<?xml version="1.0" encoding="UTF-8" standalone="no"?>
<svg
   xmlns:dc="http://purl.org/dc/elements/1.1/"
   xmlns:cc="http://creativecommons.org/ns#"
   xmlns:rdf="http://www.w3.org/1999/02/22-rdf-syntax-ns#"
   xmlns:svg="http://www.w3.org/2000/svg"
   xmlns="http://www.w3.org/2000/svg"
   xmlns:sodipodi="http://sodipodi.sourceforge.net/DTD/sodipodi-0.dtd"
   xmlns:inkscape="http://www.inkscape.org/namespaces/inkscape"
   width="170mm"
   height="170mm"
   viewBox="0 0 170 170"
   version="1.1"
   id="svg2564"
   inkscape:version="1.0.2 (e86c8708, 2021-01-15)"
   sodipodi:docname="book.svg">
  <defs
     id="defs2558" />
  <sodipodi:namedview
     id="base"
     pagecolor="#ffffff"
     bordercolor="#666666"
     borderopacity="1.0"
     inkscape:pageopacity="0"
     inkscape:pageshadow="2"
     inkscape:zoom="0.35"
     inkscape:cx="-64.285714"
     inkscape:cy="560"
     inkscape:document-units="mm"
     inkscape:current-layer="g1919"
     showgrid="false"
     inkscape:window-width="1434"
     inkscape:window-height="847"
     inkscape:window-x="0"
     inkscape:window-y="25"
     inkscape:window-maximized="1"
     inkscape:document-rotation="0" />
  <metadata
     id="metadata2561">
    <rdf:RDF>
      <cc:Work
         rdf:about="">
        <dc:format>image/svg+xml</dc:format>
        <dc:type
           rdf:resource="http://purl.org/dc/dcmitype/StillImage" />
        <dc:title />
      </cc:Work>
    </rdf:RDF>
  </metadata>
  <g
     inkscape:label="Calque 1"
     inkscape:groupmode="layer"
     id="layer1">
    <g
       transform="matrix(0.30333844,0,0,-0.30333844,-281.15681,1997.9639)"
       style="fill:#000000;stroke:none"
       id="g2543">
      <g
         transform="matrix(0.59011878,0,0,0.59011878,440.6631,3152.3258)"
         id="g1919">
        <path
           id="path881-0"
           d="m 1358.7984,5274.6299 c 0.1257,2.0428 0,0 0,0 0,0 0.3292,28.0286 0.1046,42.0402 -0.3874,24.1691 -0.3129,68.0906 -2.5045,72.4734 -3.6001,7.0439 -6.8873,10.331 -13.4616,13.7747 -5.4785,2.8175 -10.1744,2.9741 -70.7516,2.9741 h -64.8035 l -7.5134,7.5134 c -4.2263,4.0698 -10.331,10.644 -13.6181,14.7138 -10.4876,12.8355 -15.1835,15.34 -29.7408,16.5922 l -12.8355,1.0957 -0.4695,123.1892 -0.3131,123.0327 4.0698,4.8525 4.0698,4.8524 131.6418,-0.313 131.7984,-0.4697 0.7826,-44.9241 c 0.4696,-24.5752 1.4088,-45.3937 2.0349,-46.1764 0.7827,-0.6261 21.6012,-1.5653 46.1764,-2.0349 l 44.9242,-0.7827 0.4695,-161.539 0.313,-161.3826 -4.8525,-4.8524 -4.6959,-4.8525 m 1.0958,-10.3309 c 4.5393,0.7827 8.1395,2.9741 12.5223,7.357 l 6.1047,6.2611 0.7827,116.615 c 0.6261,101.275 1.0957,116.7715 0.7044,125.1458 -0.2646,5.6611 -0.4933,10.4996 -0.6138,24.9358 0,0 28.0849,-2.3172 69.8785,-2.3172 h 44.6111 l 7.3569,-4.8525 c 8.1395,-5.635 10.8005,-8.7657 14.5573,-17.8444 2.5045,-5.7916 2.661,-20.0358 2.661,-176.8791 0,-156.8432 -0.1567,-171.0874 -2.661,-177.1921 -3.2871,-8.1395 -7.67,-13.1485 -16.1226,-18.7836 l -6.7308,-4.3828 h -307.7382 -307.7383 l -6.7308,4.3828 c -8.4526,5.6351 -12.83554,10.6441 -16.12264,18.7836 -2.5045,6.1047 -2.661,20.3489 -2.661,177.1921 0,156.8433 0.1565,171.0875 2.661,176.8791 3.7568,9.0787 6.41784,12.2094 14.55734,17.6879 l 7.2004,4.8525 55.7247,0.1565 c 30.6799,0.1565 56.5074,-0.1565 57.4466,-0.7827 2.1914,-1.4088 2.1914,-89.2222 0,-93.2919 -1.4088,-2.661 -3.4437,-2.9741 -16.1226,-2.9741 -18.4705,-0.1566 -25.3579,-1.7219 -31.4625,-7.67 -8.6092,-8.2961 -8.9223,-11.4267 -8.7657,-102.3707 0.1565,-68.5602 0.626,-83.7436 2.5044,-89.0656 2.8176,-7.9831 5.9482,-11.5833 13.4616,-15.4965 5.6351,-2.8176 11.1136,-2.9741 126.4764,-2.9741 108.1623,0 121.1543,0.3129 125.6937,2.5045 7.0438,3.6002 11.0108,7.6669 13.7746,13.4616 3.1974,6.7037 1.5569,13.79 2.0736,22.1847 m 162.1261,352.0788 -48.3676,48.3678 -48.3678,48.2113 -135.8682,-0.1565 c -112.5451,0 -136.8073,-0.4696 -141.0336,-2.348 -2.661,-1.0957 -6.8873,-4.6959 -9.3918,-7.8265 l -4.3829,-5.7916 -0.4696,-69.8124 c -0.313,-63.0817 -0.6261,-69.969 -2.974,-71.6908 -2.0349,-1.5653 -15.8096,-2.0349 -55.8813,-2.0349 -54.7856,0 -57.4466,-0.3131 -69.0298,-6.5743 -6.41774,-3.4437 -13.77464,-11.5832 -18.15754,-20.0359 l -3.7567,-7.0438 v -178.4444 -178.4443 l 4.2263,-7.983 c 5.4786,-10.331 16.27914,-19.8794 26.76674,-23.4796 7.5134,-2.8175 15.966,-2.974 115.3627,-3.7567 l 107.2231,-0.7827 v -34.4366 -34.4366 l -21.9142,-0.9392 c -14.7138,-0.6261 -24.2622,-1.8783 -28.9581,-3.6001 -7.3569,-2.8176 -18.9401,-10.8006 -24.5752,-16.9053 -8.9222,-9.7049 -16.1226,-32.7148 -12.8355,-41.4805 l 1.4088,-3.6002 h 176.879 176.8791 l 1.4087,3.6002 c 3.2872,8.7657 -3.9132,31.7756 -12.8354,41.4805 -5.6351,6.1047 -17.2183,14.0877 -24.5753,16.9053 -4.6959,1.7218 -14.2442,2.974 -28.958,3.6001 l -21.9142,0.9392 v 34.4366 34.4366 l 107.2231,0.7827 c 99.3966,0.7827 107.8493,0.9392 115.3627,3.7567 10.4875,3.6002 21.2881,13.1486 26.7666,23.4796 l 4.2264,7.983 v 178.4443 178.4444 l -4.2264,7.8265 c -4.0698,7.8265 -11.2701,15.4965 -18.4705,19.7228 -9.5483,5.6351 -15.653,6.2612 -60.8902,5.7916 -40.8544,-0.4696 -62.9367,2.9296 -64.502,0.2686 m -57.7481,102.5717 c 26.9232,-26.9232 33.1844,-33.9671 31.3061,-35.2193 -3.1306,-2.0349 -61.986,-2.0349 -65.8992,0 -2.8175,1.5653 -2.9741,3.6002 -2.9741,35.2193 0,25.2014 0.4696,33.654 1.8784,33.654 1.0957,0 17.0618,-15.1834 35.6888,-33.654 z m -298.816,-225.5599 c 2.661,-1.2523 7.0439,-5.009 9.7049,-8.1396 17.2183,-19.7228 24.4187,-26.297 31.4625,-28.1754 5.1656,-1.2522 25.2014,-1.8784 69.1864,-1.8784 h 61.9859 l 4.5394,-4.5393 4.5393,-4.5394 0.313,-46.8025 c 0.4696,-39.4456 0.313,-56.3509 -0.313,-84.6828 0,-2.0349 -2.0348,-5.7916 -4.5393,-8.2961 l -4.5394,-4.5394 h -120.5282 -120.5282 l -4.8524,4.0698 -4.8525,4.0698 v 88.1264 88.283 l 5.7917,4.696 5.9481,4.8524 h 30.993 c 25.2013,0 31.9321,-0.4696 35.6888,-2.5045 z m 239.0215,-337.4789 -0.4696,-34.9063 -10.1744,-0.4696 c -10.446,-3.6893 19.446,-13.0023 30.5233,-13.1485 35.5324,-0.4696 37.8803,-0.7827 43.8285,-4.0698 3.4436,-1.8783 7.6699,-4.6959 9.5483,-6.2612 8.9223,-7.3569 17.688,-24.8883 14.2443,-28.332 -2.5045,-2.5044 -328.4002,-2.5044 -330.9047,0 -3.4437,3.4437 5.322,20.9751 14.2442,28.332 1.8784,1.5653 6.1047,4.3829 9.5484,6.2612 212.4664,2.4441 180.8705,19.947 64.1773,17.6879 l -0.4696,34.9063 -0.313,34.7496 h 78.265 78.2651 z"
           inkscape:connector-curvature="0"
           sodipodi:nodetypes="ccaccscccccccccccccccccccccccccccccscccccccscccccccccscscaccccccccccsccccccccccccccccccccccccccccccccccccccssccccscccccscccccccccscccccccsscccccccc"
           style="fill:#000000;stroke:none;stroke-width:0.15653" />
        <path
           style="fill:#00d500;fill-opacity:1;stroke-width:1.36726"
           d="m 1090.3831,5242.9043 -4.833,4.2434 v 89.9825 89.9826 l 5.324,4.2167 5.3239,4.2166 h 31.7272 c 25.3494,0 32.5934,-0.4115 36.0356,-2.0475 2.3697,-1.1261 10.6762,-8.8358 18.4592,-17.1325 21.452,-22.8684 13.3707,-20.9702 91.8118,-21.5652 l 66.312,-0.5029 4.4437,-4.2548 4.4435,-4.2548 v -68.0908 -68.0908 l -4.9444,-5.473 -4.9446,-5.473 h -122.163 -122.1629 z m 44.6628,5.4542 c 3.985,0.8218 11.4428,2.741 16.5729,4.2649 10.6119,3.1523 17.7346,2.7405 29.4241,-1.7012 10.2811,-3.9065 22.2449,-4.1986 26.1986,-0.6396 11.3022,10.1737 -14.0187,61.2438 -32.8884,66.3332 -7.3431,1.9806 -17.7756,0.9487 -23.9631,-2.3701 -5.6325,-3.021 -26.6983,-29.6616 -31.5287,-39.8722 -6.4206,-13.572 -5.4762,-22.8518 2.659,-26.1287 4.0387,-1.6268 5.1299,-1.6176 13.5256,0.1136 z m 88.4798,42.1983 c 9.8374,5.0186 15.8851,14.4526 17.1854,26.8083 1.489,14.1491 -5.4485,22.5835 -16.1461,19.6296 -6.989,-1.9296 -19.3639,-14.2391 -21.2903,-21.1775 -3.3772,-12.1639 -0.9301,-23.021 5.8542,-25.9739 5.8105,-2.529 8.2811,-2.4066 14.3968,0.7135 z m -92.5142,16.551 c 3.5777,4.4163 3.2987,20.0932 -0.4923,27.6575 -5.1693,10.3144 -13.6189,17.3781 -20.7878,17.3781 -6.9072,0 -13.236,-10.4708 -13.2222,-21.8762 0.014,-10.2392 10.0083,-24.8612 18.5796,-27.178 5.4231,-1.4658 13.0362,0.4556 15.9227,4.0186 z m 71.1247,31.1949 c 11.5756,12.8128 15.8129,33.0112 9.4188,44.8976 -2.3901,4.4431 -11.1048,6.7166 -17.9197,4.6748 -10.4534,-3.1319 -15.3154,-10.936 -17.2863,-27.7466 -3.0021,-25.6054 11.3773,-37.7759 25.7872,-21.8258 z m -41.6733,2.008 c 15.5012,14.7221 7.8098,51.4831 -10.7717,51.4831 -11.8269,0 -16.5626,-6.3698 -16.6647,-22.4155 -0.094,-14.7207 5.7521,-28.5448 13.9423,-32.9708 4.4874,-2.4251 7.8572,-1.4503 13.4941,3.9032 z"
           id="path1185"
           inkscape:connector-curvature="0" />
        <path
           style="opacity:0.82;fill:#800080;stroke-width:2.90796"
           d="m 1300.0164,5482.6526 v 43.6194 h -39.2574 -39.2575 v 29.0793 29.0796 h 39.2575 39.2574 v 42.1654 42.1654 h 28.6745 28.6743 l 1.8339,-15.2667 c 1.0085,-8.3969 1.845,-26.523 1.859,-40.2805 l 0.023,-25.0136 23.9905,-1.8676 c 13.1949,-1.0271 31.5609,-1.8753 40.8132,-1.8849 l 16.8225,-0.016 -0.8288,-29.8067 -0.8288,-29.8064 -36.3493,-1.5074 c -19.9923,-0.8292 -37.9853,-2.5419 -39.9844,-3.8066 -2.4212,-1.5316 -3.6434,-10.2521 -3.6602,-26.1183 -0.016,-13.1003 -0.8505,-30.6889 -1.859,-39.0857 l -1.8337,-15.2668 h -28.6747 -28.6745 z"
           id="path1214"
           inkscape:connector-curvature="0" />
      </g>
    </g>
  </g>
</svg>
