<?xml version="1.0" encoding="UTF-8" standalone="no"?>
<svg
   xmlns:dc="http://purl.org/dc/elements/1.1/"
   xmlns:cc="http://creativecommons.org/ns#"
   xmlns:rdf="http://www.w3.org/1999/02/22-rdf-syntax-ns#"
   xmlns:svg="http://www.w3.org/2000/svg"
   xmlns="http://www.w3.org/2000/svg"
   xmlns:sodipodi="http://sodipodi.sourceforge.net/DTD/sodipodi-0.dtd"
   xmlns:inkscape="http://www.inkscape.org/namespaces/inkscape"
   width="256"
   height="256"
   viewBox="0 0 67.733331 67.733331"
   version="1.1"
   id="svg2454"
   inkscape:version="1.0.2 (e86c8708, 2021-01-15)"
   sodipodi:docname="chat.svg">
  <defs
     id="defs2448" />
  <sodipodi:namedview
     id="base"
     pagecolor="#ffffff"
     bordercolor="#666666"
     borderopacity="1.0"
     inkscape:pageopacity="0.0"
     inkscape:pageshadow="2"
     inkscape:zoom="0.6558706"
     inkscape:cx="117.03115"
     inkscape:cy="183.50537"
     inkscape:document-units="mm"
     inkscape:current-layer="layer1"
     inkscape:document-rotation="0"
     showgrid="false"
     units="px"
     inkscape:window-width="1434"
     inkscape:window-height="847"
     inkscape:window-x="0"
     inkscape:window-y="25"
     inkscape:window-maximized="0" />
  <metadata
     id="metadata2451">
    <rdf:RDF>
      <cc:Work
         rdf:about="">
        <dc:format>image/svg+xml</dc:format>
        <dc:type
           rdf:resource="http://purl.org/dc/dcmitype/StillImage" />
        <dc:title></dc:title>
      </cc:Work>
    </rdf:RDF>
  </metadata>
  <g
     inkscape:label="Calque 1"
     inkscape:groupmode="layer"
     id="layer1">
    <path
       d="M 21.854899,6.4592162 C 15.501769,6.7308969 11.489264,7.8594124 8.5843804,10.158242 5.0525412,12.937738 3.673243,18.789305 3.3388682,32.247911 c -0.1880864,8.233991 0.3552728,16.844155 1.316602,20.501384 1.0658215,4.137895 4.9529342,6.791999 11.1597748,7.565241 5.579888,0.710549 26.603734,1.671877 31.452176,1.421095 6.62481,-0.334375 10.344736,-1.525586 12.706261,-4.075198 2.528713,-2.758597 3.594534,-6.22774 4.158793,-13.500403 C 64.86392,34.358655 63.986184,21.192627 62.272512,16.406881 60.663331,11.871916 57.173289,8.9252339 51.927776,7.5877328 49.273672,6.9189823 46.243396,6.6890987 36.797294,6.4383182 28.417015,6.2084346 27.100412,6.2084346 21.854899,6.459213 Z m 20.187907,2.2779313 c 6.206842,0.2507815 8.777352,0.5642583 10.888096,1.3583995 5.726177,2.152541 7.648834,5.329107 8.631062,14.231848 0.898634,8.025008 0.961329,10.637315 0.41797,19.10119 -0.438868,6.875592 -1.400198,10.302939 -3.573637,12.685362 -2.821291,3.051175 -7.711529,3.887113 -19.916228,3.427347 C 25.428535,59.039731 17.424426,58.496372 14.582237,57.932113 10.026373,56.991682 7.2886754,54.943633 6.6199248,51.955155 5.0525412,44.786984 5.1152363,26.061967 6.7244202,17.995163 7.8947334,12.268987 11.59376,9.4685937 18.950017,8.7789446 21.771308,8.507265 35.376203,8.4863659 42.04281,8.7371443 Z"
       id="path1797"
       style="stroke-width:0.0208984" />
    <path
       d="m 44.069957,17.075631 c -0.606055,0.710548 -1.901759,2.424221 -2.883987,3.782621 -1.003126,1.379298 -1.901759,2.528713 -2.048048,2.549612 -0.125392,0 -1.880862,0.0418 -3.887112,0.0418 -2.027151,0.02089 -4.284184,0.167188 -5.078326,0.313477 -2.068947,0.39707 -2.277932,0.27168 -4.388675,-2.883987 -1.609181,-2.403322 -3.573637,-4.618559 -4.075199,-4.618559 -0.438868,0 -0.919532,1.90176 -1.212111,4.681255 -0.710547,6.791995 -1.065821,9.153521 -1.964454,12.622665 -0.835938,3.23926 -1.567385,4.827543 -2.277932,4.973832 -1.880861,0.376172 -3.949809,0.982228 -4.555864,1.3584 -0.773243,0.480664 -1.08672,1.274805 -0.689649,1.75547 0.397071,0.480665 2.424221,0.397071 4.514067,-0.208985 1.441993,-0.438867 1.859963,-0.480664 1.985353,-0.27168 0.376172,0.585157 0.125392,0.919533 -1.233009,1.692775 -2.02715,1.128517 -3.009378,2.089845 -2.925783,2.821292 0.06269,0.54336 0.104495,0.564258 1.212111,0.564258 0.94043,0 1.48379,-0.167188 2.883986,-0.877735 l 1.713673,-0.877735 1.525588,1.149415 c 4.075198,3.092971 9.32071,4.430472 15.339465,3.887113 5.078325,-0.459766 8.213093,-1.671877 11.201572,-4.409574 1.713674,-1.525588 1.797268,-1.567385 3.113871,-0.982228 1.692775,0.731446 3.113869,1.024025 3.803519,0.773243 0.480664,-0.188086 0.564258,-0.334376 0.501563,-0.898634 -0.08359,-0.81504 -0.96133,-1.400196 -3.155668,-2.068947 -1.400196,-0.438868 -1.421094,-0.459766 -1.358399,-1.107618 l 0.0627,-0.647852 2.57051,-0.146289 c 3.38555,-0.208985 4.514067,-0.731446 3.260159,-1.546486 -0.647852,-0.438868 -2.737698,-0.898634 -3.991604,-0.919532 -0.501564,0 -1.003127,-0.146289 -1.191212,-0.313477 -0.68965,-0.710547 -2.236135,-6.562115 -3.657231,-14.001965 -1.233009,-6.394928 -1.274805,-6.520318 -1.671876,-7.021882 l -0.376171,-0.459766 z m -0.376173,14.35724 c 0.731447,0.752345 1.044924,1.943556 0.752345,3.009378 -0.27168,1.003125 -1.08672,2.006251 -1.776368,2.173439 -1.295704,0.334376 -2.821292,-1.274806 -2.821292,-2.925784 0,-2.152541 2.486916,-3.594534 3.845315,-2.257033 z m -16.593372,0.355274 c 1.065821,0.835938 1.379298,2.633205 0.710546,4.033402 -0.626952,1.337501 -2.507814,1.964455 -3.594533,1.21211 -1.024024,-0.710548 -1.400197,-2.445119 -0.773244,-3.65723 0.731447,-1.379297 2.800394,-2.277931 3.657231,-1.588282 z"
       id="path1799"
       style="stroke-width:0.0208984" />
  </g>
</svg>
