<?xml version="1.0" encoding="UTF-8" standalone="no"?>
<!-- Created with Inkscape (http://www.inkscape.org/) -->

<svg
   xmlns:dc="http://purl.org/dc/elements/1.1/"
   xmlns:cc="http://creativecommons.org/ns#"
   xmlns:rdf="http://www.w3.org/1999/02/22-rdf-syntax-ns#"
   xmlns:svg="http://www.w3.org/2000/svg"
   xmlns="http://www.w3.org/2000/svg"
   xmlns:sodipodi="http://sodipodi.sourceforge.net/DTD/sodipodi-0.dtd"
   xmlns:inkscape="http://www.inkscape.org/namespaces/inkscape"
   width="210mm"
   height="297mm"
   viewBox="0 0 210 297"
   version="1.1"
   id="svg5632"
   inkscape:version="0.92.5 (2060ec1f9f, 2020-04-08)"
   sodipodi:docname="icone nutrition violet.svg">
  <defs
     id="defs5626" />
  <sodipodi:namedview
     id="base"
     pagecolor="#ffffff"
     bordercolor="#666666"
     borderopacity="1.0"
     inkscape:pageopacity="0.0"
     inkscape:pageshadow="2"
     inkscape:zoom="0.35"
     inkscape:cx="-1247.9187"
     inkscape:cy="413.42097"
     inkscape:document-units="mm"
     inkscape:current-layer="layer1"
     showgrid="false"
     inkscape:window-width="1920"
     inkscape:window-height="1009"
     inkscape:window-x="-8"
     inkscape:window-y="-8"
     inkscape:window-maximized="1" />
  <metadata
     id="metadata5629">
    <rdf:RDF>
      <cc:Work
         rdf:about="">
        <dc:format>image/svg+xml</dc:format>
        <dc:type
           rdf:resource="http://purl.org/dc/dcmitype/StillImage" />
        <dc:title />
      </cc:Work>
    </rdf:RDF>
  </metadata>
  <g
     inkscape:label="Calque 1"
     inkscape:groupmode="layer"
     id="layer1">
    <g
       id="g24327">
      <g
         style="opacity:1;fill:#800080;fill-opacity:0.81960784;stroke:none;stroke-width:1;stroke-miterlimit:4;stroke-dasharray:none;stroke-opacity:1"
         transform="matrix(1.7780048,0,0,1.7780048,-133.73195,22.236926)"
         id="g1721">
        <path
           style="opacity:1;fill:#800080;fill-opacity:0.81960784;fill-rule:nonzero;stroke:none;stroke-width:3.77952766;stroke-miterlimit:4;stroke-dasharray:none;stroke-opacity:1"
           d="M 466.50246,416.60291 C 428.53557,412.11186 393.9216,394.51755 367.16058,366.10737 299.2832,294.04701 309.57133,181.30146 389.39294,122.46748 421.24698,98.988876 463.92921,87.634705 503.07146,92.227139 c 35.74745,4.194132 67.5168,18.938941 93.11188,43.215151 34.93114,33.13117 51.962,72.24201 51.88245,119.14636 -0.0452,26.60433 -4.21021,45.39991 -15.20302,68.60597 -9.75801,20.59938 -19.70982,34.52681 -34.93141,48.88607 -15.47098,14.59455 -24.52805,20.75439 -44.05267,29.96084 -17.95961,8.46848 -30.13011,11.92733 -51.12411,14.52941 -16.0362,1.98759 -19.69228,1.99081 -36.25212,0.0319 z"
           id="path1718"
           inkscape:connector-curvature="0"
           transform="scale(0.26458333)" />
      </g>
      <g
         transform="matrix(1.1703045,0,0,1.1703045,282.60816,69.163107)"
         id="g6434">
        <path
           style="fill:#000000;stroke:none;stroke-width:0.03527778"
           inkscape:connector-curvature="0"
           d="m -165.29746,3.2908966 c -0.3175,0.5644445 -0.59972,1.6227779 -0.59972,2.3636113 -0.0706,1.0230556 -0.3175,1.5169445 -1.19945,2.2577779 -1.69333,1.4111112 -1.62277,2.8222222 0.28223,6.2088892 0.17639,0.282222 0.70555,1.305278 1.23472,2.293056 1.02305,1.940278 1.34055,2.54 2.64583,4.586111 1.34056,2.187223 1.83445,4.445 1.30528,6.455834 -0.77611,3.139722 -0.91722,3.210278 -5.64444,3.245556 -2.75167,0 -4.51556,0.176389 -5.29167,0.493889 -0.635,0.282222 -2.11667,0.776111 -3.28084,1.128889 -3.4925,1.058333 -6.87916,3.527778 -9.2075,6.6675 -1.97555,2.681111 -3.91583,7.337778 -4.40972,10.583334 -0.17639,1.164167 -0.49389,2.681111 -0.67028,3.351389 -0.17638,0.670278 -0.35277,2.046111 -0.35277,3.033889 0,1.763889 0,1.799167 -3.13973,4.903612 -3.28083,3.280833 -4.69194,5.538611 -5.82083,9.383889 -0.74083,2.54 -0.74083,5.362223 0,6.526389 0.635,0.9525 0.70556,0.635 -1.09361,7.020279 -0.28222,0.9525 -0.56445,2.2225 -0.635,2.822222 -0.10583,0.564444 -0.3175,1.516945 -0.52917,2.116667 -1.16416,3.386667 -1.94028,8.5725 -1.76389,11.88861 0.14111,2.43417 0.70556,3.52778 2.2225,4.19806 0.38806,0.17639 0.9525,0.45861 1.23473,0.635 0.70555,0.42333 2.68111,1.27 4.40972,1.905 3.21028,1.16416 3.95111,1.37583 5.11528,1.62278 0.67027,0.14111 1.79916,0.45861 2.46944,0.67027 3.21028,0.98778 11.32417,1.97556 20.84917,2.54 3.03389,0.17639 6.20889,0.49389 7.05555,0.67028 4.62139,1.09361 25.85862,-0.45861 29.95084,-2.18722 0.49389,-0.17639 1.51694,-0.49389 2.29306,-0.635 0.77611,-0.17639 2.29305,-0.45861 3.35138,-0.67028 1.05834,-0.24694 2.64584,-0.635 3.52778,-0.91722 0.88195,-0.28222 1.86973,-0.49389 2.25778,-0.49389 0.35278,0 1.27,-0.49389 2.04611,-1.12889 1.34056,-1.05833 1.41111,-1.16417 1.23472,-2.71639 -0.17638,-1.62278 -0.67027,-4.727221 -1.37583,-8.678332 -0.21167,-1.164167 -0.49389,-3.245556 -0.635,-4.586111 -0.28222,-2.716389 -0.81139,-6.314723 -1.5875,-10.512779 -0.635,-3.386667 -1.02305,-3.739445 -4.86833,-4.586111 -1.5875,-0.352778 -3.59834,-0.846667 -4.48028,-1.058334 l -1.5875,-0.458611 -0.24695,-2.434167 c -0.45861,-4.550833 -1.12888,-6.561667 -3.45722,-10.406945 -1.37583,-2.257778 -3.175,-6.6675 -4.445,-10.759723 -0.35278,-1.164166 -0.84666,-2.434166 -1.09361,-2.822222 -0.24694,-0.388056 -0.45861,-1.516945 -0.45861,-2.504722 0,-2.257778 -0.98778,-6.84389 -1.62278,-7.584723 -0.28222,-0.282222 -0.49389,-0.670278 -0.49389,-0.811389 0,-0.635 -2.82222,-3.069167 -4.62139,-3.986389 -2.71639,-1.411111 -4.65666,-1.905 -8.255,-2.151945 -3.13972,-0.246944 -3.175,-0.246944 -3.06916,-1.128889 0.0705,-0.493889 0.35277,-1.27 0.59972,-1.763889 1.30528,-2.645833 1.69333,-4.833056 1.86972,-10.583334 0.10583,-4.833056 0.0353,-6.103056 -0.45861,-7.4083335 -0.3175,-0.8819445 -0.67028,-1.9050001 -0.77611,-2.2930557 -0.10583,-0.3880556 -0.38806,-1.1994445 -0.67028,-1.8344446 -0.28222,-0.5997222 -0.49389,-1.2347223 -0.49389,-1.4111112 0,-0.2116666 -0.3175,-0.7408333 -0.74083,-1.1994445 -0.635,-0.7408334 -1.02306,-0.8466667 -3.52778,-0.8819445 -2.78694,-0.035278 -2.82222,-0.035278 -3.35139,1.0230556 z m 2.68111,0.6702779 c 0.52917,0.3527778 0.84667,0.3175 1.5875,-0.070556 1.27,-0.6702778 1.79917,-0.070556 3.13973,3.5983336 0.98777,2.7163899 1.05833,3.3161119 1.16416,8.7136119 0.14111,5.891389 -0.10583,7.620001 -1.51694,10.900834 -0.28223,0.635 -0.49389,1.305278 -0.49389,1.516945 0,0.211666 -0.49389,1.128889 -1.09361,1.975555 -1.30528,1.975556 -0.98778,2.434167 1.12889,1.693334 2.25777,-0.811389 7.37305,-0.211667 10.72444,1.305278 2.8575,1.234722 6.17361,4.7625 6.17361,6.491111 0,0.423334 0.21167,1.446389 0.45861,2.293056 0.28223,0.881944 0.38806,1.834444 0.28223,2.151944 -0.17639,0.493889 -0.45862,0.423334 -1.79917,-0.635 -1.86972,-1.411111 -4.33917,-2.610555 -5.46806,-2.610555 -0.42333,0 -1.48166,-0.246945 -2.29305,-0.529167 -1.76389,-0.635 -5.53861,-0.705556 -6.94972,-0.141111 -0.56445,0.246944 -3.45723,0.458611 -6.80862,0.493889 -7.86694,0.141111 -13.08805,1.27 -16.08666,3.563056 -1.30528,0.9525 -3.175,3.668889 -4.90362,7.126111 -0.70555,1.340556 -1.79916,3.069167 -2.46944,3.81 -1.12889,1.305278 -1.19944,1.340556 -1.23472,0.529167 -0.0353,-1.975556 1.69333,-10.124723 2.36361,-11.218334 0.24694,-0.423333 0.45861,-0.9525 0.45861,-1.128889 0,-0.811389 2.57528,-4.656667 4.05694,-6.067778 2.01084,-1.940278 4.26862,-3.457223 5.43278,-3.704167 0.52917,-0.105833 1.48167,-0.388056 2.15195,-0.670278 3.35139,-1.27 4.7625,-1.481667 7.72583,-1.199444 4.40972,0.388055 5.15056,-0.07056 6.35,-3.880556 0.70556,-2.151945 0.70556,-2.328334 0.14111,-4.550834 -0.3175,-1.27 -1.16416,-3.175 -1.86972,-4.268611 -1.44639,-2.187222 -1.83444,-2.892778 -3.66889,-6.632223 -0.70555,-1.411111 -1.16417,-2.786944 -1.05833,-3.069167 0.10583,-0.2822223 0.74083,-0.7055556 1.41111,-0.9172223 1.12889,-0.3880556 1.19944,-0.4938889 1.19944,-2.0461112 0,-1.9402779 0.3175,-3.2455558 0.74084,-3.2455558 0.17639,0 0.635,0.1763889 1.02305,0.4233338 z m 11.78278,38.0647245 c 3.84528,0.987778 5.46806,1.622778 7.09083,2.8575 1.69334,1.27 4.05695,4.233334 4.05695,5.115278 0,0.246945 0.21167,0.9525 0.49389,1.5875 0.28222,0.635 0.77611,2.116667 1.16417,3.280834 0.59972,1.975556 2.08138,5.150556 4.55083,9.701389 1.09361,2.010834 2.50472,7.972779 2.15194,8.995834 -0.45861,1.164167 -2.01083,0 -2.01083,-1.481666 0,-0.987778 -1.37583,-3.139723 -3.59833,-5.750279 -1.72861,-2.010833 -2.32834,-3.739444 -2.61056,-7.584722 -0.21167,-2.8575 -0.81139,-5.221112 -1.97556,-7.761112 -0.74083,-1.658055 -3.70416,-4.868333 -4.16277,-4.586111 -0.42334,0.282222 -0.45861,1.234722 -0.0706,1.234722 0.3175,0 2.39889,2.751667 3.21028,4.233334 0.91722,1.728611 1.79917,5.503333 1.79917,7.761111 0,3.104445 0.84666,5.25639 3.06916,7.866945 2.32834,2.716389 3.13973,4.339167 3.59834,7.302501 0.3175,1.799166 0.28222,2.8575 -0.14111,4.7625 -0.67028,3.316111 -1.05834,3.598334 -5.00945,3.81 -1.76389,0.07056 -3.38667,0.03528 -3.59833,-0.07056 -0.24695,-0.176389 -0.21167,-0.846667 0.14111,-2.151945 0.59972,-2.187222 0.28222,-4.374445 -0.9525,-6.773334 -0.88195,-1.658055 -3.42195,-2.928055 -7.86695,-3.880555 -4.40972,-0.952501 -13.29972,-1.023056 -17.28611,-0.141112 -1.55222,0.352778 -3.21028,0.705556 -3.70417,0.811389 -0.49388,0.07056 -1.62277,0.9525 -2.54,1.940278 -1.62277,1.693334 -1.69333,1.869723 -1.69333,3.81 0,1.658056 0.17639,2.257778 1.02306,3.421945 0.56444,0.776111 1.12889,1.763889 1.27,2.2225 0.24694,0.776111 0.17639,0.811389 -0.91723,0.564445 -0.67027,-0.141111 -3.03389,-0.388056 -5.25639,-0.564445 -2.2225,-0.176389 -4.33916,-0.423333 -4.69194,-0.529166 -0.84667,-0.352778 -2.01083,-2.681112 -2.01083,-4.056945 0,-0.599722 0.3175,-2.046111 0.70555,-3.210278 0.74084,-2.151945 0.88195,-2.469445 1.905,-4.445 0.3175,-0.599723 0.56445,-1.27 0.56445,-1.516945 0,-0.246944 0.21166,-0.917222 0.49389,-1.516944 0.74083,-1.693334 1.62277,-7.126112 1.62277,-10.160001 0,-3.280834 1.05834,-5.961945 2.96334,-7.655278 1.34055,-1.164167 1.65805,-2.187223 0.70555,-2.187223 -0.67028,0 -3.66889,3.069167 -3.66889,3.774723 0,0.282222 -0.24694,0.846666 -0.52916,1.27 -0.28223,0.458611 -0.67028,2.398889 -0.88195,4.480278 -0.88194,9.278056 -1.23472,10.724445 -4.19805,16.580556 -0.21167,0.352778 -1.12889,0.599723 -3.06917,0.776112 -2.71639,0.211666 -5.85611,0.9525 -6.35,1.446389 -0.14111,0.141111 -0.56445,0.246944 -0.91722,0.246944 -0.52917,0 -0.635,-0.282222 -0.635,-1.763889 0,-5.256389 3.13972,-10.618612 8.5725,-14.605001 2.61055,-1.905 4.16278,-3.915833 6.42055,-8.184445 2.64584,-4.974167 3.24556,-5.609167 7.3025,-7.337778 0.70556,-0.3175 1.72862,-0.564445 2.29306,-0.564445 0.52917,0 1.86972,-0.246944 2.92806,-0.529166 1.27,-0.352778 3.77472,-0.529167 7.40833,-0.564445 2.99861,0 5.78556,-0.141111 6.17361,-0.3175 0.98778,-0.423333 4.93889,-0.423333 6.6675,0.03528 z m -37.50028,35.771669 c 0.10583,1.375833 0.24695,2.716389 0.35278,2.998611 0.10583,0.458611 -0.28222,0.529167 -2.32833,0.423334 -5.50334,-0.211667 -8.64306,-2.187223 -6.56167,-4.092223 0.74083,-0.670278 2.32833,-1.164167 5.32694,-1.5875 3.03389,-0.458611 2.96334,-0.493889 3.21028,2.257778 z m 62.61806,-1.023056 c 0.98778,0.282223 2.18722,0.493889 2.68111,0.493889 1.30528,0 2.54,1.093611 2.25778,1.975556 -0.42333,1.340556 -6.06778,3.139722 -10.61861,3.386667 l -1.76389,0.105833 0.0353,-1.234722 c 0.0353,-1.023056 0.59972,-4.1275 1.05833,-5.891389 0.10583,-0.388056 1.86972,-0.07056 6.35,1.164166 z m -70.90834,4.339167 c 0.52917,0.529167 4.05695,1.446389 5.57389,1.446389 0.81139,0 2.71639,0.211667 4.26861,0.529167 5.18584,0.917222 10.12473,1.305278 21.51945,1.5875 12.98222,0.352778 28.22222,0.141111 31.57361,-0.423333 1.27,-0.211667 3.31611,-0.493889 4.58611,-0.635 2.75167,-0.282223 5.3975,-0.9525 6.985,-1.728612 1.12889,-0.529166 1.19945,-0.529166 1.69334,0.105834 0.28222,0.388055 0.49389,1.058333 0.49389,1.516944 0,0.917223 -1.55223,1.728612 -4.02167,2.116667 -0.81139,0.105833 -1.83445,0.388056 -2.32833,0.635 -0.49389,0.211667 -1.83445,0.599722 -2.99862,0.846667 -2.96333,0.635 -2.99861,0.670278 -2.99861,1.27 0,0.352778 0.3175,0.529167 0.9525,0.529167 1.02306,0 4.19806,-0.881945 5.99723,-1.622778 0.59972,-0.282222 1.51694,-0.493889 2.04611,-0.493889 0.49389,0 1.41111,-0.246945 2.01083,-0.564445 0.59972,-0.3175 1.19945,-0.423333 1.30528,-0.246944 0.45861,0.493889 1.12889,3.245556 1.44639,5.715 0.14111,1.27 0.49389,3.774723 0.70555,5.538612 0.635,4.409725 0.45861,4.833055 -2.01083,5.644445 -1.09361,0.38806 -2.04611,0.88194 -2.15194,1.12889 -0.24695,0.74083 0.98777,0.91722 2.25777,0.28222 0.67028,-0.3175 1.62278,-0.56444 2.11667,-0.56444 0.74083,0 0.88194,0.14111 0.77611,0.91722 -0.14111,1.19944 -1.76389,2.04611 -5.3975,2.78694 -2.82222,0.56445 -5.25639,1.12889 -8.29028,1.97556 -5.32694,1.48167 -16.61583,2.57528 -23.45972,2.32833 -8.14917,-0.3175 -16.86278,-0.88194 -19.22639,-1.27 -1.27,-0.21166 -3.06917,-0.38805 -4.05695,-0.38805 -1.69333,0 -6.24416,-0.70556 -9.17222,-1.44639 -0.77611,-0.21167 -2.04611,-0.49389 -2.82222,-0.635 -0.77611,-0.14111 -1.79917,-0.45861 -2.29306,-0.635 -0.49389,-0.21167 -1.83444,-0.67028 -2.99861,-1.02306 -2.32833,-0.70555 -5.53861,-2.25778 -6.80861,-3.31611 -0.81139,-0.67028 -0.84667,-0.81139 -0.67028,-4.833055 0.0706,-2.293056 0.35278,-4.833056 0.56445,-5.679723 0.91722,-3.421944 1.16416,-4.550833 1.37583,-6.067778 0.28222,-1.834444 0.91722,-2.151944 2.68111,-1.305278 1.30528,0.635 3.95111,1.375834 7.79639,2.187223 1.55222,0.352777 3.59833,0.846666 4.55083,1.093611 2.11667,0.599722 6.77334,0.670278 7.12612,0.105833 0.38805,-0.670278 -0.635,-1.023056 -2.96334,-1.023056 -2.64583,0 -12.80583,-2.2225 -15.52222,-3.386666 -0.635,-0.282223 -1.37583,-0.493889 -1.65806,-0.493889 -0.74083,0 -0.9525,-0.599723 -0.70555,-1.763889 0.17639,-0.776111 0.42333,-1.058334 1.02305,-1.058334 0.42334,0 0.91723,0.141111 1.12889,0.3175 z"
           id="path6313" />
        <path
           style="fill:#000000;stroke:none;stroke-width:0.03527778"
           inkscape:connector-curvature="0"
           d="m -151.5744,63.686456 c -0.42334,1.164167 2.29305,2.928056 3.88055,2.504722 1.94028,-0.458611 3.77473,-3.033889 2.18723,-3.033889 -0.28223,0 -0.52917,0.141111 -0.52917,0.352778 0,0.176389 -0.45861,0.564445 -1.05833,0.881945 -1.23473,0.635 -2.68112,0.388055 -3.21028,-0.564445 -0.42334,-0.811389 -0.98778,-0.846667 -1.27,-0.141111 z"
           id="path6315" />
        <path
           style="fill:#000000;stroke:none;stroke-width:0.03527778"
           inkscape:connector-curvature="0"
           d="m -175.84552,63.862845 c -0.28222,0.423333 0.24695,1.411111 1.23473,2.293056 1.12889,1.023055 4.62139,0.987777 5.67972,-0.07056 0.45861,-0.458611 0.67028,-0.987778 0.52917,-1.340556 -0.17639,-0.529166 -0.3175,-0.493889 -1.12889,0.141112 -0.635,0.493888 -1.44639,0.740833 -2.46945,0.740833 -1.30527,0 -1.65805,-0.176389 -2.32833,-1.058334 -0.81139,-1.128888 -1.16417,-1.27 -1.51695,-0.705555 z"
           id="path6317" />
        <path
           style="fill:#000000;stroke:none;stroke-width:0.03527778"
           inkscape:connector-curvature="0"
           d="m -174.08163,88.204513 c -0.10583,0.176389 0.3175,0.670278 0.9525,1.058333 0.9525,0.564445 1.76389,0.705556 4.445,0.705556 2.50473,0 3.24556,-0.105833 3.24556,-0.493889 0,-0.352778 -0.77611,-0.529167 -3.175,-0.635 -1.79917,-0.07055 -3.35139,-0.3175 -3.59833,-0.564444 -0.52917,-0.529167 -1.5875,-0.564445 -1.86973,-0.07056 z"
           id="path6319" />
      </g>
      <path
         transform="scale(0.26458333)"
         inkscape:connector-curvature="0"
         id="path6436"
         d="m 367.79556,754.12884 c -88.87765,-5.72848 -119.85493,-10.19158 -157.81168,-22.73696 -32.28686,-10.67138 -34.58694,-13.15772 -33.93959,-36.68809 0.49317,-17.92618 6.0865,-49.03648 9.93618,-55.2654 0.95747,-1.54922 11.59287,0.21095 25.3048,4.18798 43.32735,12.56671 74.9126,15.58748 69.3799,6.63538 -0.97805,-1.58253 -6.11834,-2.87732 -11.42287,-2.87732 -11.64347,0 -46.33298,-7.01474 -65.01817,-13.14764 -9.93029,-3.25935 -13.57143,-5.92596 -13.57143,-9.93912 0,-6.25627 1.13328,-6.60831 8.52993,-2.64974 5.58634,2.98972 26.86012,6.39695 71.56816,11.46243 40.79211,4.62181 195.78331,3.84804 226.01928,-1.12836 13.57883,-2.23488 27.41932,-5.52476 30.75666,-7.31085 4.97963,-2.665 6.39977,-2.38259 7.91832,1.57466 2.59774,6.76967 -3.58549,10.43387 -28.0428,16.61818 -22.4108,5.66682 -28.87869,9.04884 -22.2038,11.61024 2.23997,0.85956 14.34782,-1.53234 26.90634,-5.31534 12.55848,-3.78299 23.92314,-5.86175 25.25477,-4.61947 3.27177,3.05229 11.35211,59.19372 9.29223,64.56167 -0.90092,2.34774 -5.51212,5.61913 -10.24712,7.26976 -12.69882,4.42683 -10.7722,9.02416 2.81946,6.72786 12.09686,-2.04375 15.67249,1.81339 6.32072,6.81832 -10.81955,5.79043 -80.69966,20.14374 -112.035,23.01188 -31.68395,2.90004 -37.64756,3.00893 -65.71429,1.19993 z m -34.28571,-97.87525 c -6.00241,-3.34124 -34.28572,-6.22557 -34.28572,-3.49645 0,4.80152 4.44182,6.0527 21.19048,5.96898 10.85551,-0.0543 15.77194,-0.98254 13.09524,-2.47253 z"
         style="opacity:1;fill:#ffffff;fill-opacity:1;fill-rule:nonzero;stroke:none;stroke-width:10.79865074;stroke-miterlimit:4;stroke-dasharray:none;stroke-opacity:1" />
      <path
         transform="scale(0.26458333)"
         inkscape:connector-curvature="0"
         id="path6438"
         d="m 437.84291,616.67014 c 4.01559,-32.57971 -18.83862,-46.14196 -78.06786,-46.32741 -38.7791,-0.12143 -55.16701,3.52592 -66.4248,14.78371 -9.99898,9.99898 -10.70188,19.30671 -2.46452,32.63503 l 5.94731,9.62296 h -6.95676 c -3.82623,0 -15.00513,-0.84122 -24.84202,-1.86938 -16.44978,-1.71934 -18.17605,-2.56101 -21.50861,-10.48684 -4.00763,-9.53133 -3.02513,-14.66898 8.14923,-42.61404 3.93383,-9.83779 8.58223,-29.45831 10.32978,-43.60117 4.38005,-35.44754 4.809,-36.96607 13.28844,-47.04332 9.82275,-11.67367 6.31536,-14.88153 -4.71577,-4.31304 -9.74524,9.33653 -12.41106,17.83583 -17.00416,54.2135 -3.05047,24.15996 -13.90885,55.69285 -19.19097,55.73084 -5.31318,0.0382 -34.12451,5.39772 -38.7295,7.20449 -4.07033,1.597 -5,0.40584 -5,-6.40639 0,-19.81543 8.74473,-35.85722 31.5939,-57.95751 13.11475,-12.68491 27.51983,-30.33529 35.30334,-43.25677 18.78115,-31.17875 28.28373,-34.81937 99.5063,-38.12276 35.45431,-1.64442 44.4019,-1.19483 56.55474,2.84169 20.24277,6.72357 31.8942,19.84778 41.26809,46.48452 4.2685,12.12933 11.38676,28.48189 15.81835,36.33904 6.4974,11.51979 17.09814,43.21805 17.09814,51.1267 0,4.92461 -6.23974,0.72039 -8.75689,-5.90023 -1.59565,-4.19687 -7.60071,-14.03271 -13.34457,-21.85741 -8.42123,-11.47202 -11.13201,-18.55438 -13.9998,-36.57683 -4.00747,-25.18474 -9.56274,-38.77905 -19.76273,-48.36145 -9.77939,-9.18725 -11.87487,-4.98958 -3.19201,6.39423 9.64391,12.64383 13.17861,22.62815 16.01884,45.24787 1.95516,15.57098 4.62042,22.18419 15.12367,37.52575 14.08443,20.57244 17.93209,35.49197 13.39283,51.93179 -3.27601,11.86471 -10.5331,16.18386 -27.19232,16.18386 h -9.91241 z M 315.45506,557.06387 c 3.42701,-0.91911 6.92595,-3.4823 7.77541,-5.69597 1.23599,-3.22093 -0.7365,-3.66012 -9.87528,-2.19877 -8.77709,1.40352 -12.72524,0.64466 -17.06112,-3.27927 -4.94397,-4.47423 -5.64137,-4.54084 -5.64137,-0.53884 0,4.64888 10.30304,13.49383 15.63573,13.42297 1.61464,-0.0214 5.73962,-0.79102 9.16663,-1.71012 z m 107.02397,-6.57636 c 8.02717,-6.50773 5.62678,-10.71356 -3.36734,-5.90005 -4.91918,2.63267 -7.81599,2.57759 -13.09754,-0.249 -9.38828,-5.02445 -12.55926,-0.522 -4.33064,6.14906 8.46977,6.86656 12.32576,6.86656 20.79552,0 z"
         style="opacity:1;fill:#ffffff;fill-opacity:1;fill-rule:nonzero;stroke:none;stroke-width:10.79865074;stroke-miterlimit:4;stroke-dasharray:none;stroke-opacity:1" />
      <path
         transform="scale(0.26458333)"
         inkscape:connector-curvature="0"
         id="path6440"
         d="m 233.5536,504.27004 c -0.0241,-4.07006 2.4805,-17.26984 5.56569,-29.33284 6.03,-23.57705 17.79058,-43.48129 31.42958,-53.19312 13.61077,-9.69172 39.3627,-17.21679 58.91847,-17.21679 20.25612,0 25.11833,-3.09281 29.43394,-18.72266 3.47658,-12.59111 1.39449,-19.63015 -14.99234,-50.68552 -14.84475,-28.13292 -15.72571,-32.13672 -7.54195,-34.27682 4.36112,-1.14046 5.71428,-3.89719 5.71428,-11.64137 0,-9.91393 0.24439,-10.13341 10.63679,-9.5532 9.79076,0.54662 11.02829,1.61649 15.55891,13.45099 10.22012,26.69618 5.69548,83.14216 -8.41668,105 -4.67172,7.23586 -5.15612,7.05475 17.2735,6.45833 36.82149,-0.97911 64.94748,19.40139 64.94748,47.06187 v 7.27517 l -10.71428,-6.88104 c -18.41157,-11.82445 -34.66012,-13.8789 -82.32664,-10.40929 -46.17898,3.36134 -67.48819,8.02248 -79.35688,17.35839 -4.1712,3.28107 -12.68756,14.55405 -18.92524,25.05108 -17.11692,28.80504 -17.15384,28.84851 -17.20463,20.25682 z"
         style="opacity:1;fill:#ffffff;fill-opacity:1;fill-rule:nonzero;stroke:none;stroke-width:10.79865074;stroke-miterlimit:4;stroke-dasharray:none;stroke-opacity:1" />
      <path
         transform="scale(0.26458333)"
         inkscape:connector-curvature="0"
         id="path6442"
         d="m 480.428,616.98498 c 2.91812,-16.43779 4.59648,-21.02912 7.68719,-21.02912 6.34355,0 41.32487,9.55921 43.96608,12.01444 6.0472,5.62138 -11.74123,13.44404 -41.09132,18.07035 l -12.51989,1.97345 z"
         style="opacity:1;fill:#ffffff;fill-opacity:0.81960784;fill-rule:nonzero;stroke:none;stroke-width:10.79865074;stroke-miterlimit:4;stroke-dasharray:none;stroke-opacity:1" />
      <path
         transform="scale(0.26458333)"
         inkscape:connector-curvature="0"
         id="path6444"
         d="m 202.79556,615.32587 c -10.20019,-4.91936 -8.10419,-12.92179 4.28571,-16.36264 5.89286,-1.63653 14.25,-2.98268 18.57143,-2.99144 6.40972,-0.013 7.85715,1.25686 7.85715,6.89325 0,3.80004 0.78041,8.9429 1.73425,11.42857 1.44024,3.7532 -0.6184,4.48661 -12.14286,4.32602 -7.63241,-0.10636 -16.76997,-1.58855 -20.30568,-3.29376 z"
         style="opacity:1;fill:#ffffff;fill-opacity:0.81960784;fill-rule:nonzero;stroke:none;stroke-width:10.79865074;stroke-miterlimit:4;stroke-dasharray:none;stroke-opacity:1" />
    </g>
  </g>
</svg>
