<?xml version="1.0" encoding="UTF-8" standalone="no"?>
<svg
   xmlns:dc="http://purl.org/dc/elements/1.1/"
   xmlns:cc="http://creativecommons.org/ns#"
   xmlns:rdf="http://www.w3.org/1999/02/22-rdf-syntax-ns#"
   xmlns:svg="http://www.w3.org/2000/svg"
   xmlns="http://www.w3.org/2000/svg"
   xmlns:sodipodi="http://sodipodi.sourceforge.net/DTD/sodipodi-0.dtd"
   xmlns:inkscape="http://www.inkscape.org/namespaces/inkscape"
   width="256"
   height="256"
   viewBox="0 0 67.733331 67.733331"
   version="1.1"
   id="svg2454"
   inkscape:version="1.0.2 (e86c8708, 2021-01-15)"
   sodipodi:docname="poisson.svg">
  <defs
     id="defs2448" />
  <sodipodi:namedview
     id="base"
     pagecolor="#ffffff"
     bordercolor="#666666"
     borderopacity="1.0"
     inkscape:pageopacity="0.0"
     inkscape:pageshadow="2"
     inkscape:zoom="0.6558706"
     inkscape:cx="117.03115"
     inkscape:cy="183.50537"
     inkscape:document-units="mm"
     inkscape:current-layer="layer1"
     inkscape:document-rotation="0"
     showgrid="false"
     units="px"
     inkscape:window-width="1434"
     inkscape:window-height="847"
     inkscape:window-x="0"
     inkscape:window-y="25"
     inkscape:window-maximized="0" />
  <metadata
     id="metadata2451">
    <rdf:RDF>
      <cc:Work
         rdf:about="">
        <dc:format>image/svg+xml</dc:format>
        <dc:type
           rdf:resource="http://purl.org/dc/dcmitype/StillImage" />
        <dc:title></dc:title>
      </cc:Work>
    </rdf:RDF>
  </metadata>
  <g
     inkscape:label="Calque 1"
     inkscape:groupmode="layer"
     id="layer1">
    <path
       d="M 32.507542,6.4193188 C 28.353549,6.61203 20.752168,7.3186374 18.0328,7.7897084 10.345771,9.1172734 6.898384,11.494043 5.635056,16.354644 4.2860787,21.557843 3.9863059,31.985652 4.799975,45.689549 5.2710463,53.74059 8.6541959,58.365655 15.270608,60.035814 22.143969,61.791627 45.140821,63.07637 52.956326,62.177049 60.022399,61.34197 63.062948,59.800282 64.947238,56.095945 66.574573,52.841271 66.917168,49.73648 66.467513,42.39205 66.274801,39.501382 65.932206,33.313217 65.696669,28.66674 65.075714,16.675829 64.90441,15.048491 63.833793,12.628897 62.827416,10.316364 61.178666,8.8603254 58.373649,7.8111204 56.061116,6.9332154 53.470224,6.6548546 45.890251,6.397907 38.310286,6.1623711 37.882039,6.1623711 32.507542,6.4193188 Z m 15.952194,1.9056986 c 5.67427,0.214124 7.323021,0.428247 9.571318,1.284741 2.633713,0.9849656 4.41094,3.4473846 4.989073,6.8733596 0.428244,2.505243 1.691572,25.073849 1.691572,30.38411 0.02142,3.618683 -0.04279,4.625065 -0.364008,5.759918 -1.777221,6.273816 -5.931215,8.051042 -18.885683,8.029628 C 34.263354,60.635349 20.516631,59.457681 14.820949,58.001648 12.015933,57.273625 10.195884,55.731936 8.7398452,52.862684 6.941209,49.286823 6.5986112,47.017112 6.4273126,37.124613 6.1275398,20.679937 6.2346016,18.945537 7.7762899,15.669448 9.3822157,12.243475 12.101583,10.5519 17.625966,9.6097584 c 1.92711,-0.321186 9.442842,-1.049205 14.132144,-1.348979 2.441008,-0.171298 11.498429,-0.128473 16.701626,0.06424 z"
       id="path1801"
       style="stroke-width:0.0214124" />
    <path
       d="m 47.153581,15.904985 c -1.563096,0.685195 -2.14123,2.805016 -1.049205,3.875633 1.370392,1.391802 4.603658,0 4.603658,-1.969936 0,-1.734399 -1.755813,-2.676542 -3.554453,-1.905697 z"
       id="path1803"
       style="stroke-width:0.0214124" />
    <path
       d="m 52.42102,24.384271 c -0.556719,0.556721 -0.556719,1.734399 -0.04285,2.205471 0.535311,0.471072 1.284743,0.44966 2.119821,-0.06424 0.856493,-0.513896 1.092032,-1.306152 0.620961,-2.034172 -0.299773,-0.428247 -0.535312,-0.535309 -1.306157,-0.535309 -0.685194,0 -1.092025,0.128474 -1.391798,0.428247 z"
       id="path1805"
       style="stroke-width:0.0214124" />
    <path
       d="m 41.821912,26.653978 c -4.132584,0.599547 -7.986805,2.248297 -10.256513,4.346706 -0.556721,0.535308 -1.670163,1.777225 -2.441006,2.74078 -0.770844,0.984968 -1.434627,1.777223 -1.45604,1.777223 -0.04283,0 -0.36401,-0.599544 -0.706606,-1.348976 -0.856494,-1.7344 -2.655131,-4.11117 -3.640099,-4.75354 -0.92073,-0.620958 -2.548068,-1.00638 -3.425974,-0.835081 -1.777224,0.364009 -2.184059,2.548068 -0.92073,5.0319 0.385421,0.749431 1.5631,2.419594 2.633717,3.704335 1.306153,1.605925 1.884287,2.462419 1.777225,2.676542 -0.792257,1.905698 -1.884287,5.502972 -1.969936,6.573588 -0.08565,1.220501 -0.04283,1.370391 0.449659,1.884289 0.663783,0.642368 1.905699,0.74943 2.676543,0.214119 0.706607,-0.492485 2.119821,-2.676542 3.104789,-4.77495 0.471072,-1.00638 0.877906,-1.862873 0.899319,-1.905699 0.02141,-0.02141 0.728019,0.08565 1.584512,0.278361 4.560829,0.963555 7.215958,1.263328 11.262891,1.263328 3.768572,0.02142 4.153994,-0.02141 5.288847,-0.471072 2.633719,-1.070617 4.475181,-2.847841 5.246025,-5.074725 0.535306,-1.498863 0.513898,-4.368116 -0.02142,-5.824156 -0.835079,-2.248295 -2.719368,-4.132581 -4.924838,-4.967663 -1.17768,-0.428247 -3.897042,-0.706607 -5.160371,-0.535309 z m 3.361737,5.438736 c 1.563102,0.449659 2.419594,2.162646 1.755812,3.554448 C 46.40415,36.782016 45.50483,37.2745 44.19868,37.167438 43.299359,37.081788 43.021,36.953315 42.421453,36.289532 41.84332,35.668574 41.71485,35.347389 41.71485,34.597958 c 0,-1.134855 0.449657,-1.798638 1.584509,-2.312533 1.049205,-0.471072 0.899321,-0.44966 1.88429,-0.192711 z"
       id="path1807"
       style="stroke-width:0.0214124" />
  </g>
</svg>
