<?xml version="1.0" encoding="UTF-8" standalone="no"?>
<!-- Created with Inkscape (http://www.inkscape.org/) -->

<svg
   xmlns:dc="http://purl.org/dc/elements/1.1/"
   xmlns:cc="http://creativecommons.org/ns#"
   xmlns:rdf="http://www.w3.org/1999/02/22-rdf-syntax-ns#"
   xmlns:svg="http://www.w3.org/2000/svg"
   xmlns="http://www.w3.org/2000/svg"
   xmlns:sodipodi="http://sodipodi.sourceforge.net/DTD/sodipodi-0.dtd"
   xmlns:inkscape="http://www.inkscape.org/namespaces/inkscape"
   width="210mm"
   height="297mm"
   viewBox="0 0 210 297"
   version="1.1"
   id="svg8577"
   inkscape:version="0.92.5 (2060ec1f9f, 2020-04-08)"
   sodipodi:docname="icone perroquet  vert ancien site.svg">
  <defs
     id="defs8571" />
  <sodipodi:namedview
     id="base"
     pagecolor="#ffffff"
     bordercolor="#666666"
     borderopacity="1.0"
     inkscape:pageopacity="0.0"
     inkscape:pageshadow="2"
     inkscape:zoom="0.35"
     inkscape:cx="-121.42857"
     inkscape:cy="560"
     inkscape:document-units="mm"
     inkscape:current-layer="layer1"
     showgrid="false"
     inkscape:window-width="1920"
     inkscape:window-height="1009"
     inkscape:window-x="-8"
     inkscape:window-y="-8"
     inkscape:window-maximized="1" />
  <metadata
     id="metadata8574">
    <rdf:RDF>
      <cc:Work
         rdf:about="">
        <dc:format>image/svg+xml</dc:format>
        <dc:type
           rdf:resource="http://purl.org/dc/dcmitype/StillImage" />
        <dc:title></dc:title>
      </cc:Work>
    </rdf:RDF>
  </metadata>
  <g
     inkscape:label="Calque 1"
     inkscape:groupmode="layer"
     id="layer1">
    <g
       transform="matrix(0.10191314,0,0,-0.10191314,478.86766,369.78544)"
       style="fill:#000000;stroke:none"
       id="g9144">
      <g
         id="g8550">
        <path
           inkscape:connector-curvature="0"
           id="path1718-5-6-6-9"
           d="m -4428.9391,3084.3885 c -54.7112,6.4718 -104.5908,31.8256 -143.1541,72.7654 -97.813,103.8407 -82.9875,266.3098 32.0374,351.091 45.9024,33.8333 107.4086,50.1949 163.8135,43.5771 51.513,-6.0438 97.2934,-27.2915 134.1765,-62.2741 50.3367,-47.7428 74.8786,-104.1025 74.7639,-171.6928 -0.065,-38.3375 -6.067,-65.4224 -21.9079,-98.8629 -14.0615,-29.6842 -28.4024,-49.754 -50.337,-70.446 -22.2941,-21.0311 -35.3456,-29.9075 -63.481,-43.1743 -25.8803,-12.2033 -43.4182,-17.1876 -73.6711,-20.9373 -23.1086,-2.8641 -28.3771,-2.8688 -52.2402,-0.046 z"
           style="opacity:1;fill:#85c441;fill-opacity:1;fill-rule:nonzero;stroke:none;stroke-width:5.44639254;stroke-miterlimit:4;stroke-dasharray:none;stroke-opacity:1" />
        <g
           id="g8500"
           transform="matrix(0.40224905,0,0,0.40224905,-4738.2766,1637.9979)"
           style="fill:#ffffff">
          <path
             inkscape:connector-curvature="0"
             d="m 823,4659 c -6,-6 -53,-22 -105,-35 -51,-14 -110,-36 -131,-50 -37,-25 -76,-89 -77,-126 0,-10 -4,-18 -10,-18 -25,0 -50,-45 -50,-91 v -47 l 83,1 82,2 1,-105 c 1,-119 20,-179 76,-237 l 31,-33 -34,-14 c -19,-7 -49,-17 -67,-21 -18,-3 -37,-16 -43,-27 -14,-26 -6,-32 22,-18 12,7 71,16 131,21 119,10 115,11 311,-65 37,-14 87,-26 110,-26 h 41 l -46,48 c -25,26 -62,72 -83,102 -38,56 -38,55 -19,-26 8,-30 4,-29 -53,14 -18,13 -33,19 -33,14 0,-15 -28,-5 -67,25 -18,13 -33,19 -33,14 0,-17 -14,-13 -65,21 -47,31 -105,108 -105,137 1,9 8,3 17,-14 18,-34 89,-112 117,-127 17,-9 18,-7 14,16 -5,25 -3,24 41,-17 43,-40 46,-41 49,-19 3,22 5,21 46,-13 24,-19 45,-35 48,-35 7,0 -18,142 -36,204 -21,73 -71,142 -122,172 -67,39 -71,54 -25,105 45,53 61,80 61,110 0,18 -2,19 -15,9 -21,-17 -29,-7 -16,18 6,12 11,33 11,48 0,26 -1,26 -18,11 -25,-23 -46,-22 -37,1 9,20 19,82 13,82 -2,0 -9,-5 -15,-11 z M 590,4425 c 0,-8 -4,-15 -10,-15 -5,0 -10,7 -10,15 0,8 5,15 10,15 6,0 10,-7 10,-15 z m -64,-90 c -11,-8 -25,-15 -30,-15 -6,0 -2,7 8,15 11,8 25,15 30,15 6,0 2,-7 -8,-15 z m 161,-192 c -4,-3 -7,0 -7,7 0,7 3,10 7,7 3,-4 3,-10 0,-14 z"
             id="path4757"
             style="fill:#ffffff" />
        </g>
      </g>
    </g>
  </g>
</svg>
