<?xml version="1.0" encoding="UTF-8" standalone="no"?>
<!-- Created with Inkscape (http://www.inkscape.org/) -->

<svg
   xmlns:dc="http://purl.org/dc/elements/1.1/"
   xmlns:cc="http://creativecommons.org/ns#"
   xmlns:rdf="http://www.w3.org/1999/02/22-rdf-syntax-ns#"
   xmlns:svg="http://www.w3.org/2000/svg"
   xmlns="http://www.w3.org/2000/svg"
   xmlns:sodipodi="http://sodipodi.sourceforge.net/DTD/sodipodi-0.dtd"
   xmlns:inkscape="http://www.inkscape.org/namespaces/inkscape"
   width="210mm"
   height="297mm"
   viewBox="0 0 210 297"
   version="1.1"
   id="svg18679"
   sodipodi:docname="icone lapin vert ancien site.svg"
   inkscape:version="0.92.5 (2060ec1f9f, 2020-04-08)">
  <defs
     id="defs18673" />
  <sodipodi:namedview
     id="base"
     pagecolor="#ffffff"
     bordercolor="#666666"
     borderopacity="1.0"
     inkscape:pageopacity="0.0"
     inkscape:pageshadow="2"
     inkscape:zoom="0.35"
     inkscape:cx="-121.42857"
     inkscape:cy="698.67743"
     inkscape:document-units="mm"
     inkscape:current-layer="layer1"
     showgrid="false"
     inkscape:window-width="1920"
     inkscape:window-height="1009"
     inkscape:window-x="-8"
     inkscape:window-y="-8"
     inkscape:window-maximized="1" />
  <metadata
     id="metadata18676">
    <rdf:RDF>
      <cc:Work
         rdf:about="">
        <dc:format>image/svg+xml</dc:format>
        <dc:type
           rdf:resource="http://purl.org/dc/dcmitype/StillImage" />
        <dc:title></dc:title>
      </cc:Work>
    </rdf:RDF>
  </metadata>
  <g
     inkscape:label="Calque 1"
     inkscape:groupmode="layer"
     id="layer1">
    <g
       style="fill:#000000;stroke:none"
       transform="matrix(0.10191314,0,0,-0.10191314,246.0132,575.28241)"
       id="g10504">
      <path
         inkscape:connector-curvature="0"
         id="path1718-5-6-6-63"
         d="m -2140.2137,5124.0535 c -54.7112,6.4718 -104.5908,31.8256 -143.1541,72.7654 -97.813,103.8407 -82.9875,266.3098 32.0374,351.091 45.9024,33.8333 107.4086,50.1949 163.8135,43.5771 51.513,-6.0438 97.2934,-27.2915 134.1765,-62.2741 50.3367,-47.7428 74.8786,-104.1025 74.7639,-171.6928 -0.065,-38.3375 -6.067,-65.4224 -21.9079,-98.8629 -14.0615,-29.6842 -28.4024,-49.754 -50.337,-70.446 -22.2941,-21.0311 -35.3456,-29.9075 -63.481,-43.1743 -25.8803,-12.2033 -43.4182,-17.1876 -73.6711,-20.9373 -23.1086,-2.8641 -28.3771,-2.8688 -52.2402,-0.046 z"
         style="opacity:1;fill:#85c441;fill-opacity:1;fill-rule:nonzero;stroke:none;stroke-width:5.44639254;stroke-miterlimit:4;stroke-dasharray:none;stroke-opacity:1" />
      <g
         id="g10447"
         transform="matrix(0.37062799,0,0,0.37062799,-2467.055,4217.9489)"
         style="fill:#ffffff">
        <path
           inkscape:connector-curvature="0"
           d="m 686,3568 c -34,-34 -47,-80 -61,-213 -6,-52 -11,-64 -35,-80 -41,-27 -81,-112 -87,-184 -5,-56 -4,-62 24,-90 60,-59 191,-65 245,-10 16,15 28,24 28,19 0,-15 -61,-60 -83,-61 -12,0 -30,-4 -41,-8 -17,-7 -16,-10 13,-44 18,-20 48,-46 68,-58 l 36,-22 -23,-19 c -12,-10 -32,-18 -44,-18 -64,-1 -61,-50 4,-63 62,-12 115,5 136,44 9,19 21,29 30,25 7,-3 55,-8 105,-12 l 91,-7 -13,23 c -34,55 -39,66 -39,83 0,25 24,68 51,92 19,17 19,14 -4,-13 -37,-46 -37,-108 -1,-152 25,-29 26,-32 9,-44 -36,-26 6,-56 77,-56 31,0 87,30 93,50 3,10 19,35 36,56 17,21 33,51 36,66 3,15 9,25 14,22 5,-3 23,-3 39,1 36,8 60,48 60,100 v 35 l -42,-6 c -24,-3 -48,-7 -55,-9 -6,-2 -22,17 -34,41 -39,81 -153,141 -284,151 -63,5 -124,-5 -211,-32 -17,-5 -25,1 -42,29 l -22,36 43,37 c 23,21 70,65 105,99 56,55 62,64 62,102 0,33 -5,45 -24,57 -21,14 -28,14 -58,2 -49,-21 -77,-57 -128,-162 -41,-85 -47,-93 -63,-81 -16,13 -15,18 26,87 71,120 82,185 37,209 -29,16 -40,12 -74,-22 z m -86,-454 c 0,-8 -7,-14 -15,-14 -15,0 -21,21 -9,33 10,9 24,-2 24,-19 z m 130,1 c 0,-8 -4,-15 -9,-15 -13,0 -22,16 -14,24 11,11 23,6 23,-9 z m -57,-41 c 3,-3 1,-14 -5,-24 -16,-26 -2,-53 23,-47 12,3 18,3 14,-1 -9,-10 -94,-11 -100,-2 -3,5 4,6 15,3 24,-6 36,18 21,45 -6,11 -7,22 -4,26 8,8 28,8 36,0 z m 134,-41 c -4,-3 -7,0 -7,7 0,7 3,10 7,7 3,-4 3,-10 0,-14 z"
           id="path4773"
           style="fill:#ffffff" />
      </g>
    </g>
  </g>
</svg>
