<?xml version="1.0" encoding="UTF-8" standalone="no"?>
<!-- Created with Inkscape (http://www.inkscape.org/) -->

<svg
   xmlns:dc="http://purl.org/dc/elements/1.1/"
   xmlns:cc="http://creativecommons.org/ns#"
   xmlns:rdf="http://www.w3.org/1999/02/22-rdf-syntax-ns#"
   xmlns:svg="http://www.w3.org/2000/svg"
   xmlns="http://www.w3.org/2000/svg"
   xmlns:sodipodi="http://sodipodi.sourceforge.net/DTD/sodipodi-0.dtd"
   xmlns:inkscape="http://www.inkscape.org/namespaces/inkscape"
   width="210mm"
   height="297mm"
   viewBox="0 0 210 297"
   version="1.1"
   id="svg18679"
   sodipodi:docname="icone chien vert ancien site.svg"
   inkscape:version="0.92.5 (2060ec1f9f, 2020-04-08)">
  <defs
     id="defs18673" />
  <sodipodi:namedview
     id="base"
     pagecolor="#ffffff"
     bordercolor="#666666"
     borderopacity="1.0"
     inkscape:pageopacity="0.0"
     inkscape:pageshadow="2"
     inkscape:zoom="0.35"
     inkscape:cx="-121.42857"
     inkscape:cy="539.36341"
     inkscape:document-units="mm"
     inkscape:current-layer="layer1"
     showgrid="false"
     inkscape:window-width="1920"
     inkscape:window-height="1009"
     inkscape:window-x="-8"
     inkscape:window-y="-8"
     inkscape:window-maximized="1" />
  <metadata
     id="metadata18676">
    <rdf:RDF>
      <cc:Work
         rdf:about="">
        <dc:format>image/svg+xml</dc:format>
        <dc:type
           rdf:resource="http://purl.org/dc/dcmitype/StillImage" />
        <dc:title></dc:title>
      </cc:Work>
    </rdf:RDF>
  </metadata>
  <g
     inkscape:label="Calque 1"
     inkscape:groupmode="layer"
     id="layer1">
    <g
       transform="matrix(0.10191314,0,0,-0.10191314,279.10569,875.70588)"
       style="fill:#000000;stroke:none"
       id="g10599">
      <path
         inkscape:connector-curvature="0"
         id="path1718-5-6-6-1"
         d="m -2470.0146,8076.106 c -54.7112,6.4718 -104.5908,31.8256 -143.1541,72.7654 -97.813,103.8407 -82.9875,266.3098 32.0374,351.091 45.9024,33.8333 107.4086,50.1949 163.8135,43.5771 51.513,-6.0438 97.2934,-27.2915 134.1765,-62.2741 50.3367,-47.7428 74.8786,-104.1025 74.7639,-171.6928 -0.065,-38.3375 -6.067,-65.4224 -21.9079,-98.8629 -14.0615,-29.6842 -28.4024,-49.754 -50.337,-70.446 -22.2941,-21.0311 -35.3456,-29.9075 -63.481,-43.1743 -25.8803,-12.2033 -43.4182,-17.1876 -73.6711,-20.9373 -23.1086,-2.8641 -28.3771,-2.8688 -52.2402,-0.046 z"
         style="opacity:1;fill:#85c441;fill-opacity:1;fill-rule:nonzero;stroke:none;stroke-width:5.44639254;stroke-miterlimit:4;stroke-dasharray:none;stroke-opacity:1" />
      <path
         id="path4817"
         d="m -2556.4245,8479.8438 c -2.7887,-0.7968 -6.7726,-8.7645 -9.1629,-17.529 -2.3903,-8.7645 -10.7564,-23.1064 -18.7241,-31.8709 -17.1306,-19.1225 -15.1387,-27.0902 7.9677,-33.066 16.7322,-4.3823 26.6918,1.5935 26.6918,15.5371 0,11.5531 7.9678,33.8628 11.9516,33.8628 1.992,0 2.3904,-6.3742 1.1952,-13.9436 -1.5936,-9.1628 -0.7968,-13.9435 2.3903,-13.9435 2.3903,0 4.3823,-5.9757 4.3823,-13.1467 0,-9.9596 -2.3904,-14.7403 -8.7646,-17.9274 -7.1709,-3.187 -7.5692,-4.3822 -1.9918,-4.3822 9.5612,-0.3984 8.366,-7.171 -3.1872,-14.7403 -11.1548,-7.1709 -17.9273,-4.7807 -17.9273,7.1709 0,6.7726 -0.7968,7.171 -5.9758,3.1872 -7.5693,-6.3742 -7.5693,-15.9355 -0.3984,-25.8952 4.3823,-6.3742 6.7725,-6.7725 11.5532,-2.7886 4.3823,3.9838 6.7725,3.5854 11.1548,-1.992 5.179,-6.3742 4.7807,-6.7726 -1.1951,-1.9919 -4.7807,3.5855 -7.171,3.9839 -9.163,0.7967 -4.7806,-7.5692 9.9597,-19.5208 32.6677,-26.6918 21.9113,-6.7726 24.6999,-11.1548 16.3339,-26.2935 -2.3904,-4.7807 -5.9758,-29.8789 -7.5694,-55.3757 -3.1871,-49.7982 -8.7645,-67.7255 -21.5128,-70.1159 -21.9112,-4.3822 -19.521,-20.716 3.187,-20.716 6.7726,0 13.9436,-3.1871 16.7322,-6.7726 6.7726,-9.1629 35.4564,-8.7645 45.416,0.3984 6.3742,5.9758 8.7646,5.9758 15.9355,1.9919 6.3742,-4.3822 10.7565,-4.3822 23.1064,0 9.1629,3.5855 15.1387,3.9839 15.9355,1.5936 0.7967,-2.3903 3.9838,-7.171 6.7725,-11.1549 4.7806,-6.7725 7.1709,-6.7725 23.5048,-2.3902 10.7564,3.187 24.6999,3.9838 34.2612,2.3902 8.7644,-1.5935 19.5209,-1.5935 23.9031,0 9.1629,2.7888 13.9435,13.1468 8.7645,19.521 -2.7887,3.187 -1.9919,9.5612 2.7887,19.1225 5.179,11.1548 9.9597,15.1387 20.7161,17.1306 19.5208,3.9839 27.0902,8.7645 35.8547,23.1064 12.7483,20.3176 10.358,41.0338 -5.5774,56.9692 -13.1467,13.1467 -25.4967,16.7322 -39.8386,11.1548 -7.9677,-3.1871 -8.3661,-9.5613 -0.7967,-9.5613 2.7886,0 9.9596,-3.5855 15.9354,-8.3661 14.7402,-11.5532 14.7402,-35.4564 0,-47.0095 -5.9758,-4.7807 -11.9516,-8.3661 -13.5452,-8.3661 -1.5935,0 -5.179,7.9677 -7.5693,17.529 -6.7725,26.6918 -21.5128,41.0337 -63.3433,60.953 -20.7161,9.9596 -39.8387,22.3096 -43.4241,27.4886 -5.9758,9.1629 -5.5774,10.358 7.5693,24.7 7.171,7.9677 15.9355,21.1144 19.1225,28.2854 5.1791,12.7483 4.7807,13.9435 -1.9919,17.9274 -3.9839,2.3902 -13.9435,10.358 -21.5128,17.5289 l -14.3419,13.1467 17.529,-11.9515 c 21.5128,-15.1387 50.595,-17.1306 61.7498,-4.7807 6.7725,7.5694 6.3742,8.7646 -13.1467,37.4483 -19.521,29.4806 -33.0661,39.4402 -41.0338,31.4725 -2.7887,-2.7887 -9.9597,-0.7968 -22.708,5.9758 -24.6999,13.1467 -66.9289,12.35 -87.2465,-2.3903 l -13.1468,-9.1629 -11.1548,10.3581 c -11.1548,10.7564 -11.5532,10.7564 -19.1225,7.5693 z m 94.4175,-68.9208 c 4.3822,-4.3822 7.9677,-12.35 7.9677,-17.9274 0,-7.9677 -2.3903,-9.9596 -14.3419,-12.3499 -19.5209,-3.5855 -27.0902,3.9839 -23.5048,23.9031 2.3904,11.5532 4.7806,14.3419 12.35,14.3419 5.179,0 13.1468,-3.5855 17.529,-7.9677 z m -57.3676,-65.7336 c -4.3822,-3.1872 -10.7564,-5.9758 -13.9436,-5.9758 -3.5854,0.3984 -0.7967,2.7886 5.5775,5.9758 15.5371,7.1708 17.5289,7.1708 8.3661,0 z m 119.1174,-101.5885 c -7.9677,-15.5371 -7.5693,-47.4079 0.7968,-59.7579 5.9758,-8.7645 5.9758,-9.5613 0.3984,-4.7806 -15.9355,12.7483 -17.9274,46.6111 -4.3823,67.3272 8.7645,13.1468 10.3581,11.1548 3.1871,-2.7887 z m -86.4498,-70.5143 c -2.7886,-5.5774 -7.5693,-11.1548 -10.358,-12.35 -3.5854,-1.1951 -2.7887,3.5855 2.7887,14.7403 4.7807,8.7645 8.7645,19.1225 8.7645,23.1064 0.3984,3.9838 1.5936,2.3903 2.3904,-3.5855 0.7967,-5.9758 -0.7968,-15.9354 -3.5856,-21.9112 z m 86.8482,-12.35 c -2.7887,-2.3903 -50.1966,11.9516 -50.1966,15.1387 0,1.9919 11.5532,-0.3984 25.895,-5.179 13.9436,-4.3823 25.0984,-9.1629 24.3016,-9.9597 z"
         inkscape:connector-curvature="0"
         style="fill:#ffffff;stroke-width:0.39838597" />
    </g>
  </g>
</svg>
