<?xml version="1.0" encoding="UTF-8" standalone="no"?>
<svg
   xmlns:dc="http://purl.org/dc/elements/1.1/"
   xmlns:cc="http://creativecommons.org/ns#"
   xmlns:rdf="http://www.w3.org/1999/02/22-rdf-syntax-ns#"
   xmlns:svg="http://www.w3.org/2000/svg"
   xmlns="http://www.w3.org/2000/svg"
   xmlns:sodipodi="http://sodipodi.sourceforge.net/DTD/sodipodi-0.dtd"
   xmlns:inkscape="http://www.inkscape.org/namespaces/inkscape"
   width="256"
   height="256"
   viewBox="0 0 67.733331 67.733331"
   version="1.1"
   id="svg2454"
   inkscape:version="1.0.2 (e86c8708, 2021-01-15)"
   sodipodi:docname="chien.svg">
  <defs
     id="defs2448" />
  <sodipodi:namedview
     id="base"
     pagecolor="#ffffff"
     bordercolor="#666666"
     borderopacity="1.0"
     inkscape:pageopacity="0.0"
     inkscape:pageshadow="2"
     inkscape:zoom="0.6558706"
     inkscape:cx="117.03115"
     inkscape:cy="183.50537"
     inkscape:document-units="mm"
     inkscape:current-layer="layer1"
     inkscape:document-rotation="0"
     showgrid="false"
     units="px"
     inkscape:window-width="1434"
     inkscape:window-height="847"
     inkscape:window-x="0"
     inkscape:window-y="25"
     inkscape:window-maximized="0" />
  <metadata
     id="metadata2451">
    <rdf:RDF>
      <cc:Work
         rdf:about="">
        <dc:format>image/svg+xml</dc:format>
        <dc:type
           rdf:resource="http://purl.org/dc/dcmitype/StillImage" />
        <dc:title></dc:title>
      </cc:Work>
    </rdf:RDF>
  </metadata>
  <g
     inkscape:label="Calque 1"
     inkscape:groupmode="layer"
     id="layer1">
    <path
       d="m 17.117,4.0215835 c -3.79492,0.595714 -6.155714,1.610636 -8.2517457,3.574286 -2.8020642,2.6034925 -4.2141279,7.1706355 -5.184922,16.8565095 -1.0369838,10.259525 -1.0369838,22.063498 0,26.145241 0.9707941,3.905236 4.412699,6.530795 10.0168267,7.700162 5.427619,1.103171 27.005716,3.221271 32.940799,3.221271 9.399046,0 13.701431,-2.537306 15.929842,-9.376988 0.772228,-2.36079 1.301746,-5.626188 1.897458,-11.473019 C 64.884465,36.410788 64.9286,35.020789 64.81828,29.196027 64.575579,16.972855 63.82542,13.883966 60.140815,10.221425 57.669703,7.7503145 54.867638,6.4485685 50.256368,5.6101555 48.336851,5.2571395 37.32716,4.3084095 30.906685,3.9333295 25.76589,3.6465045 19.301286,3.6906315 17.117,4.0215835 Z m 13.900003,2.118096 c 5.162858,0.308889 16.635874,1.279683 18.643653,1.566508 5.22905,0.772222 9.22254,3.2212695 10.921424,6.6852385 1.50032,3.088889 1.831273,5.471746 2.007779,14.694289 0.132389,5.913016 0.08823,7.303014 -0.330953,11.473019 -0.617771,6.111581 -1.01491,8.450322 -1.87539,11.031746 C 57.95653,58.871426 53.72034,60.173181 37.194783,58.783173 24.221446,57.680001 16.256524,56.731277 13.344143,55.981108 9.4830318,55.010316 6.5706504,52.848099 5.8866814,50.46524 5.3130313,48.523646 5.0923961,45.434764 5.0923961,39.565874 c 0,-12.774765 1.544445,-24.666988 3.6625401,-28.2854 1.6547628,-2.8682545 4.4568258,-4.4788905 8.8033338,-5.1187315 1.875397,-0.264761 9.023969,-0.286825 13.458733,-0.02207 z"
       id="path1813"
       style="stroke-width:0.0220635" />
    <path
       d="m 24.37589,9.4933305 c -0.08825,0.154445 -0.242698,1.8753965 -0.330952,3.8169845 -0.198572,4.059683 -0.838413,7.854604 -2.184286,12.730635 -0.948731,3.508098 -4.147937,13.017465 -6.177778,18.423021 -0.683968,1.853332 -1.235556,3.37571 -1.19143,3.37571 0.0662,0 21.247144,4.36857 21.842858,4.523017 0.595715,0.13238 0.551592,0.2427 1.301748,-4.523017 0.794285,-5.096662 1.014921,-5.802695 2.007779,-6.288087 1.059046,-0.507468 3.155078,-0.750168 5.096671,-0.61778 1.985711,0.154439 4.302376,-0.2427 5.626189,-0.970792 1.610631,-0.882548 3.596351,-3.088892 4.456823,-4.964291 1.191425,-2.537306 1.191425,-2.537306 0.08824,-2.846192 -2.051905,-0.551586 -3.375719,-1.588572 -4.037617,-3.155077 -0.441274,-1.036987 -0.264759,-1.279687 0.353013,-0.507459 0.750159,0.992851 2.272546,1.720952 3.750798,1.853331 l 1.36794,0.13238 -0.154456,-1.522379 c -0.198565,-1.875399 -0.904598,-3.397777 -1.787138,-3.83905 -0.816344,-0.397143 -3.375718,-0.37508 -9.310793,0.110317 -4.500958,0.353015 -6.883813,0.419209 -7.258891,0.154441 -0.375078,-0.242695 -0.661902,-0.9046 -0.970793,-2.184282 -0.308889,-1.345874 -1.12524,-2.162224 -2.360792,-2.404921 -0.419208,-0.08825 -1.743019,-0.08825 -2.912383,0 -3.177144,0.220635 -3.309524,0.08825 -4.10381,-4.456827 -0.286807,-1.654762 -0.68395,-3.530159 -0.882521,-4.125874 -0.661905,-2.184286 -1.743018,-3.5080945 -2.228414,-2.7138085 z m 9.730004,14.4074615 c 1.213493,0.50746 1.522376,1.875399 0.882538,3.993489 -0.551591,1.809214 -0.441272,1.765079 -2.934447,0.99286 -1.235553,-0.37508 -2.27254,-0.772218 -2.338728,-0.860471 -0.154448,-0.242701 0.375078,-2.426986 0.728097,-3.088893 0.353013,-0.661906 1.522377,-1.367937 2.294598,-1.367937 0.330954,0 0.948733,0.154444 1.367942,0.330952 z"
       id="path1815"
       style="stroke-width:0.0220635" />
  </g>
</svg>
