<?xml version="1.0" encoding="utf-8"?>
<!-- Generator: Adobe Illustrator 16.0.4, SVG Export Plug-In . SVG Version: 6.00 Build 0)  -->
<!DOCTYPE svg PUBLIC "-//W3C//DTD SVG 1.1//EN" "http://www.w3.org/Graphics/SVG/1.1/DTD/svg11.dtd">
<svg version="1.1" id="Layer_1" xmlns="http://www.w3.org/2000/svg" xmlns:xlink="http://www.w3.org/1999/xlink" x="0px" y="0px"
	 width="128px" height="128.042px" viewBox="0 0 128 128.042" enable-background="new 0 0 128 128.042" xml:space="preserve">
<g>
	<path fill="#FBD536" d="M64,0C28.65,0,0,28.65,0,64c0,23.77,12.949,44.51,32.189,55.551c0.17,0.098,0.344,0.188,0.516,0.283
		c0.682-1.842,2.33-3.184,4.965-2.904c4.571,0.484,8.596,2.043,13.001,3.203c4.729,1.244,9.868,1.795,14.763,1.766
		c6.764-0.039,15.123-0.898,20.925-4.709c3.539-2.322,6.921,0.051,7.899,3.199c0.314-0.17,0.64-0.324,0.952-0.498
		C114.779,108.941,128,88.01,128,64C128,28.65,99.35,0,64,0z"/>
	<path fill="#FFFFFF" d="M95.21,119.891c-2.11,1.18-4.3,2.271-6.56,3.21c-7.59,3.17-15.91,4.941-24.65,4.941h-0.33
		c-11.46,0-22.2-3.15-31.48-8.471c2.99-17.061,2.051-37.42,5.41-52.859c18.311-4.031,33.83-4.037,52.141-0.006
		C93.12,82.235,92.15,102.75,95.21,119.891z"/>
	<path fill="#FFFFFF" d="M94.811,52.811C94.811,70.932,64,97.668,64,97.668S33.189,70.932,33.189,52.811S46.983,28,64,28
		S94.811,34.689,94.811,52.811z"/>
	<path fill="#633D50" d="M39.81,63.467c-1.39,5.029-5.299,5.898-8.688,1.934l-5.592-6.539c-3.39-3.965-2.806-9.842,1.298-13.062
		L42.172,33.76c4.104-3.221,6.325-1.74,4.936,3.287L39.81,63.467z"/>
	<path fill="#633D50" d="M88.19,63.467c1.39,5.029,5.299,5.898,8.688,1.934l5.592-6.539c3.39-3.965,2.806-9.842-1.298-13.062
		L85.828,33.76c-4.104-3.221-6.325-1.74-4.936,3.287L88.19,63.467z"/>
	<circle fill="#4CB6CF" cx="74.126" cy="56.75" r="3"/>
	<path fill="#EA502F" d="M50.67,74.042v0.624c0,7.25,5.75,18.254,13,18.254c7.251,0,13-11.004,13-18.254v-0.624H50.67z"/>
	<path fill="#FBD536" d="M82.337,71.042H70.516c-1.209,2-3.447,3.795-6.721,3.795s-5.512-1.795-6.721-3.795H45.663
		c-1.07,2-1.7,3.832-1.7,5.998c0,6.146,4.984,11.183,11.132,11.183c3.647,0,6.875-1.735,8.905-4.446
		c2.03,2.711,5.258,4.486,8.905,4.486c6.147,0,11.132-5.083,11.132-11.229C84.037,74.867,83.407,73.042,82.337,71.042z"/>
	<path fill="#633D50" d="M56.67,71.042v0.384c0,3.934,3.063,9.908,7,9.908s7-5.975,7-9.908v-0.384H56.67z"/>
	<circle fill="#633D50" cx="63.67" cy="103.754" r="5.25"/>
	<path fill="#EA502F" d="M56.703,65.135c-1.557,1.555-4.102,1.555-5.658,0l-5.055-5.057c-1.557-1.555-1.557-4.102,0-5.656
		l5.055-5.057c1.557-1.555,4.102-1.555,5.658,0l5.055,5.057c1.556,1.555,1.556,4.102,0,5.656L56.703,65.135z"/>
	<circle fill="#633D50" cx="53.874" cy="57.25" r="3"/>
</g>
</svg>
