<?xml version="1.0" encoding="UTF-8" standalone="no"?>
<svg
   xmlns:dc="http://purl.org/dc/elements/1.1/"
   xmlns:cc="http://creativecommons.org/ns#"
   xmlns:rdf="http://www.w3.org/1999/02/22-rdf-syntax-ns#"
   xmlns:svg="http://www.w3.org/2000/svg"
   xmlns="http://www.w3.org/2000/svg"
   xmlns:sodipodi="http://sodipodi.sourceforge.net/DTD/sodipodi-0.dtd"
   xmlns:inkscape="http://www.inkscape.org/namespaces/inkscape"
   width="256"
   height="256"
   viewBox="0 0 67.733331 67.733331"
   version="1.1"
   id="svg2454"
   inkscape:version="1.0.2 (e86c8708, 2021-01-15)"
   sodipodi:docname="souris.svg">
  <defs
     id="defs2448" />
  <sodipodi:namedview
     id="base"
     pagecolor="#ffffff"
     bordercolor="#666666"
     borderopacity="1.0"
     inkscape:pageopacity="0.0"
     inkscape:pageshadow="2"
     inkscape:zoom="0.6558706"
     inkscape:cx="117.03115"
     inkscape:cy="183.50537"
     inkscape:document-units="mm"
     inkscape:current-layer="layer1"
     inkscape:document-rotation="0"
     showgrid="false"
     units="px"
     inkscape:window-width="1434"
     inkscape:window-height="847"
     inkscape:window-x="0"
     inkscape:window-y="25"
     inkscape:window-maximized="0" />
  <metadata
     id="metadata2451">
    <rdf:RDF>
      <cc:Work
         rdf:about="">
        <dc:format>image/svg+xml</dc:format>
        <dc:type
           rdf:resource="http://purl.org/dc/dcmitype/StillImage" />
        <dc:title></dc:title>
      </cc:Work>
    </rdf:RDF>
  </metadata>
  <g
     inkscape:label="Calque 1"
     inkscape:groupmode="layer"
     id="layer1">
    <path
       d="m 29.38543,7.4040109 c -0.452007,0.04109 -2.486038,0.205458 -4.520067,0.369823 -10.087966,0.842376 -14.176571,2.03403 -16.9913383,4.9309811 -2.2600337,2.32167 -3.1640462,6.471912 -3.3695038,15.512046 -0.1438208,6.060997 0.2054576,16.662606 0.6163728,19.210284 0.5547351,3.287312 1.7052967,5.917177 3.4516868,7.827924 2.5887655,2.814773 5.9788135,3.883154 15.2654945,4.807707 6.369184,0.616377 10.129058,0.82183 17.484437,0.965659 7.437564,0.123267 9.882511,-0.02055 13.704017,-0.862928 2.85586,-0.636922 4.540612,-1.479297 5.958272,-2.958584 1.314928,-1.376566 2.013481,-2.670954 2.650399,-4.889894 0.431465,-1.458743 0.472553,-2.013478 0.472553,-6.225361 C 64.087191,41.756509 63.24483,24.600811 62.772282,19.032907 62.402459,14.779937 61.518989,12.376083 59.710964,10.691332 57.430383,8.5545729 54.533435,7.6916509 48.903894,7.4656479 45.102928,7.3218279 30.844177,7.2601899 29.38543,7.4040149 Z m 16.642057,1.705298 c 3.205142,0.102728 6.204819,0.308186 7.088289,0.493098 5.259713,1.0067421 7.191012,3.1640461 7.786842,8.6497581 0.205459,1.725848 1.191653,18.861002 1.582024,27.325857 0.267094,5.608993 -1.191654,9.656502 -4.191336,11.587812 -2.835312,1.808016 -9.820871,2.527124 -20.175931,2.095665 C 24.803726,58.68621 15.578682,57.556196 12.702276,56.159086 10.401152,55.008527 8.4493059,52.317029 7.504201,48.926986 6.641279,45.845117 6.4974592,43.338537 6.4358214,31.504183 6.3741883,20.409472 6.3741883,20.286197 6.8467366,18.66308 8.4287597,13.054094 11.407894,11.020063 19.523467,10.054413 28.255412,9.0271259 35.692976,8.7600299 46.027487,9.1093089 Z"
       id="path1853"
       style="stroke-width:0.0205458" />
    <path
       d="m 36.576443,20.183466 c -0.698556,0.308193 -1.417657,0.82183 -1.602568,1.10947 -0.554736,0.862928 -0.452007,2.342225 0.246548,3.739335 0.349278,0.67801 0.554736,1.294378 0.493098,1.397109 -0.06163,0.102732 -0.513644,0.349273 -1.006742,0.554736 -2.116213,0.904008 -3.554415,2.999681 -4.129696,5.958265 -0.410915,2.075121 -0.164366,4.314615 0.657464,6.143184 1.068379,2.321671 0.513644,4.437881 -1.561477,5.876079 -2.85586,1.972399 -7.006103,1.705303 -9.286682,-0.595824 -1.705297,-1.705294 -1.910754,-3.081859 -0.986195,-6.574634 0.719101,-2.6504 0.842376,-4.129705 0.390369,-4.82826 -0.267095,-0.472549 -1.561478,-1.376566 -1.705298,-1.212192 -0.06164,0.04111 0.164366,0.452004 0.452007,0.904008 0.719101,1.027292 0.698555,1.808025 -0.123275,3.739325 -0.842376,2.013488 -1.314928,4.376248 -1.150562,5.691171 0.431461,3.225688 2.794223,5.444629 6.53355,6.061006 1.664206,0.28764 3.492778,0.08221 5.382987,-0.636922 2.136759,-0.801277 4.109151,-3.122948 4.520066,-5.382986 l 0.14382,-0.760197 h 2.095668 c 2.424399,0 3.698236,-0.308185 5.136439,-1.273835 1.212199,-0.780741 2.034029,-1.890212 2.609311,-3.492775 0.246547,-0.657466 0.452007,-1.191656 0.472553,-1.191656 0,0 0.493095,0.184917 1.068377,0.39037 1.808029,0.698555 2.999683,0.760189 4.068059,0.226007 1.561476,-0.760197 2.527129,-2.958593 1.992941,-4.561165 -0.452005,-1.356012 -2.075124,-2.424393 -3.698235,-2.424393 -1.047836,0 -1.335476,-0.43146 -0.924559,-1.417655 0.575276,-1.376574 2.403853,-4.335158 2.670947,-4.335158 0.452006,0 1.109471,-0.862919 1.109471,-1.438199 0,-0.719108 -0.698559,-1.438208 -1.397112,-1.438208 -0.780742,0 -1.479295,0.534191 -1.479295,1.130015 0,0.657466 -2.670947,3.492784 -3.595505,3.800968 -1.171112,0.390371 -1.458753,0.08221 -1.602571,-1.705294 -0.205458,-2.773685 -1.273837,-4.047519 -3.431141,-4.047519 -0.82183,0 -1.479295,0.164364 -2.362762,0.595824 z"
       id="path1855"
       style="stroke-width:0.0205458" />
  </g>
</svg>
