<?xml version="1.0" encoding="UTF-8" standalone="no"?>
<svg
   xmlns:dc="http://purl.org/dc/elements/1.1/"
   xmlns:cc="http://creativecommons.org/ns#"
   xmlns:rdf="http://www.w3.org/1999/02/22-rdf-syntax-ns#"
   xmlns:svg="http://www.w3.org/2000/svg"
   xmlns="http://www.w3.org/2000/svg"
   xmlns:sodipodi="http://sodipodi.sourceforge.net/DTD/sodipodi-0.dtd"
   xmlns:inkscape="http://www.inkscape.org/namespaces/inkscape"
   height="63"
   viewBox="0 0 63 63"
   width="63"
   version="1.1"
   id="svg6"
   sodipodi:docname="activites.svg"
   inkscape:version="0.92.3 (2405546, 2018-03-11)">
  <metadata
     id="metadata12">
    <rdf:RDF>
      <cc:Work
         rdf:about="">
        <dc:format>image/svg+xml</dc:format>
        <dc:type
           rdf:resource="http://purl.org/dc/dcmitype/StillImage" />
        <dc:title></dc:title>
      </cc:Work>
    </rdf:RDF>
  </metadata>
  <defs
     id="defs10" />
  <sodipodi:namedview
     pagecolor="#ffffff"
     bordercolor="#666666"
     borderopacity="1"
     objecttolerance="10"
     gridtolerance="10"
     guidetolerance="10"
     inkscape:pageopacity="0"
     inkscape:pageshadow="2"
     inkscape:window-width="1600"
     inkscape:window-height="851"
     id="namedview8"
     showgrid="false"
     inkscape:zoom="9.614995"
     inkscape:cx="27.55234"
     inkscape:cy="27.930811"
     inkscape:window-x="0"
     inkscape:window-y="25"
     inkscape:window-maximized="1"
     inkscape:current-layer="svg6" />
  <path
     d="M 0,39 H 24 V 63 H 0 Z"
     id="path2"
     inkscape:connector-curvature="0"
     style="fill:none" />
  <path
     d="M 49.31877,30.947187 61.269815,18.996142 c 1.171082,-1.171083 1.171082,-3.062831 0,-4.233913 L 48.237771,1.7301848 c -1.171082,-1.17108228 -3.06283,-1.17108228 -4.233913,0 L 32.052813,13.68123 20.101769,1.7301848 C 19.501214,1.1596575 18.75052,0.85938003 17.969798,0.85938003 c -0.750694,0 -1.531415,0.30027747 -2.101942,0.87080477 L 2.8358117,14.762229 c -1.1710823,1.171082 -1.1710823,3.06283 0,4.233913 L 14.786857,30.947187 2.8358117,42.898231 c -1.1710823,1.171083 -1.1710823,3.062831 0,4.233913 L 15.867856,60.164188 c 1.171082,1.171083 3.06283,1.171083 4.233913,0 L 32.052813,48.213143 44.003858,60.164188 c 0.600555,0.600555 1.351249,0.870805 2.131971,0.870805 0.780721,0 1.531415,-0.300277 2.13197,-0.870805 L 61.299843,47.132144 c 1.171082,-1.171082 1.171082,-3.06283 0,-4.233913 z M 32.112869,21.878806 c 1.651526,0 3.002775,1.351249 3.002775,3.002775 0,1.651526 -1.351249,3.002775 -3.002775,3.002775 -1.651526,0 -3.002775,-1.351249 -3.002775,-3.002775 0,-1.651526 1.351249,-3.002775 3.002775,-3.002775 z M 17.969798,27.764245 7.0697246,16.894199 17.969798,5.9941255 28.839844,16.864171 Z m 8.137521,6.125661 c -1.651527,0 -3.002775,-1.351249 -3.002775,-3.002775 0,-1.651526 1.351248,-3.002775 3.002775,-3.002775 1.651526,0 3.002775,1.351249 3.002775,3.002775 0,1.651526 -1.351249,3.002775 -3.002775,3.002775 z m 6.00555,6.00555 c -1.651526,0 -3.002775,-1.351248 -3.002775,-3.002775 0,-1.651526 1.351249,-3.002775 3.002775,-3.002775 1.651526,0 3.002775,1.351249 3.002775,3.002775 0,1.651527 -1.351249,3.002775 -3.002775,3.002775 z m 6.00555,-12.0111 c 1.651526,0 3.002775,1.351249 3.002775,3.002775 0,1.651526 -1.351249,3.002775 -3.002775,3.002775 -1.651526,0 -3.002775,-1.351249 -3.002775,-3.002775 0,-1.651526 1.351249,-3.002775 3.002775,-3.002775 z M 46.105801,55.930275 35.205727,45.06023 46.105801,34.160156 56.975847,45.030202 Z"
     id="path4"
     inkscape:connector-curvature="0"
     style="stroke-width:3.00277519;fill:#680d3f;fill-opacity:1" />
</svg>
