<?xml version="1.0" encoding="UTF-8" standalone="no"?>
<svg
   xmlns:dc="http://purl.org/dc/elements/1.1/"
   xmlns:cc="http://creativecommons.org/ns#"
   xmlns:rdf="http://www.w3.org/1999/02/22-rdf-syntax-ns#"
   xmlns:svg="http://www.w3.org/2000/svg"
   xmlns="http://www.w3.org/2000/svg"
   xmlns:sodipodi="http://sodipodi.sourceforge.net/DTD/sodipodi-0.dtd"
   xmlns:inkscape="http://www.inkscape.org/namespaces/inkscape"
   height="63"
   viewBox="0 0 63 63"
   width="63"
   version="1.1"
   id="svg8"
   sodipodi:docname="horaires.svg"
   inkscape:version="0.92.3 (2405546, 2018-03-11)">
  <metadata
     id="metadata14">
    <rdf:RDF>
      <cc:Work
         rdf:about="">
        <dc:format>image/svg+xml</dc:format>
        <dc:type
           rdf:resource="http://purl.org/dc/dcmitype/StillImage" />
        <dc:title></dc:title>
      </cc:Work>
    </rdf:RDF>
  </metadata>
  <defs
     id="defs12" />
  <sodipodi:namedview
     pagecolor="#ffffff"
     bordercolor="#666666"
     borderopacity="1"
     objecttolerance="10"
     gridtolerance="10"
     guidetolerance="10"
     inkscape:pageopacity="0"
     inkscape:pageshadow="2"
     inkscape:window-width="1600"
     inkscape:window-height="851"
     id="namedview10"
     showgrid="false"
     inkscape:zoom="10.920635"
     inkscape:cx="31.5"
     inkscape:cy="34.679293"
     inkscape:window-x="0"
     inkscape:window-y="25"
     inkscape:window-maximized="1"
     inkscape:current-layer="svg8"
     inkscape:lockguides="false" />
  <path
     d="M -2.8386628,-4.1293605 H 65.664244 V 64.373547 H -2.8386628 Z"
     id="path2"
     inkscape:connector-curvature="0"
     style="fill:none;stroke-width:2.85428762" />
  <path
     d="m 31.384248,1.579215 c -15.755669,0 -28.5143352,12.78721 -28.5143352,28.542878 0,15.755669 12.7586662,28.542878 28.5143352,28.542878 15.784211,0 28.571421,-12.787209 28.571421,-28.542878 0,-15.755668 -12.78721,-28.542878 -28.571421,-28.542878 z m 0.02854,51.377181 c -12.615952,0 -22.8343028,-10.218351 -22.8343028,-22.834303 0,-12.615952 10.2183508,-22.8343023 22.8343028,-22.8343023 12.615952,0 22.834302,10.2183503 22.834302,22.8343023 0,12.615952 -10.21835,22.834303 -22.834302,22.834303 z"
     id="path4"
     inkscape:connector-curvature="0"
     style="stroke-width:2.85428762;fill:#680d3f;fill-opacity:1" />
  <path
     d="m 32.839934,15.850655 h -4.281432 v 17.125727 l 14.985011,8.991006 2.140716,-3.510774 -12.844295,-7.620948 z"
     id="path6"
     inkscape:connector-curvature="0"
     style="stroke-width:2.85428762;fill:#680d3f;fill-opacity:1" />
</svg>
