<?xml version="1.0" encoding="UTF-8" standalone="no"?>
<!-- Created with Inkscape (http://www.inkscape.org/) -->

<svg
   xmlns:dc="http://purl.org/dc/elements/1.1/"
   xmlns:cc="http://creativecommons.org/ns#"
   xmlns:rdf="http://www.w3.org/1999/02/22-rdf-syntax-ns#"
   xmlns:svg="http://www.w3.org/2000/svg"
   xmlns="http://www.w3.org/2000/svg"
   xmlns:xlink="http://www.w3.org/1999/xlink"
   xmlns:sodipodi="http://sodipodi.sourceforge.net/DTD/sodipodi-0.dtd"
   xmlns:inkscape="http://www.inkscape.org/namespaces/inkscape"
   width="297mm"
   height="160mm"
   viewBox="0 0 297 160"
   version="1.1"
   id="svg8"
   inkscape:version="0.92.3 (2405546, 2018-03-11)"
   sodipodi:docname="logo atlanticvet version courte.svg"
   inkscape:export-filename="/home/florent/VisualStudioCode/atlanticvet.fr/site/static/images/logo.png"
   inkscape:export-xdpi="150"
   inkscape:export-ydpi="150">
  <defs
     id="defs2">
    <path
       style="fill:none;stroke:none;stroke-width:0.26458332px;stroke-linecap:butt;stroke-linejoin:miter;stroke-opacity:1"
       d="m 108.64805,109.53989 c 4.43742,-0.88748 -0.2591,0.18019 1.9703,-0.56294 0.83789,-0.2793 -0.57753,0.66649 0.84442,-0.28147 0.1104,-0.0736 0.16279,-0.22214 0.28147,-0.28147 0.1116,-0.0558 0.78687,0.0575 0.84441,0 0.0663,-0.0663 -0.0839,-0.23952 0,-0.28148 0.16784,-0.0839 0.3809,0.0455 0.56294,0 0.81634,-0.20408 0.3294,-0.21959 0.84442,-0.56294 0.17456,-0.11637 0.36391,-0.21513 0.56294,-0.28147 0.17802,-0.0593 0.40681,0.10409 0.56294,0 4.13616,-2.20048 13.33654,-8.358715 18.85861,-16.606827 0.93352,-0.933524 -0.13269,0.265374 0.28147,-0.562943 0.5857,-1.171417 -0.0194,0.300902 0.56294,-0.281472 0.13269,-0.132686 -0.13269,-0.430255 0,-0.562943 0.0663,-0.06634 0.21513,0.06634 0.28147,0 0.0663,-0.06634 -0.0663,-0.215128 0,-0.281472 0.0663,-0.06634 0.21513,0.06634 0.28147,0 0,-0.750591 -0.0938,0.09382 0.28148,-0.281472 0.14834,-0.148349 0.16509,-0.388382 0.28147,-0.562943 0.21651,-0.324774 0.6279,-0.519639 0.84441,-0.844415 0.11638,-0.174562 0.1651,-0.388382 0.28147,-0.562944 -0.0281,-0.557609 0.4146,-0.133122 0.56295,-0.281471 0.0663,-0.06634 -0.042,-0.197551 0,-0.281472 0.0593,-0.118679 0.18764,-0.187648 0.28147,-0.281472 0.18765,-0.187647 0.42641,-0.335386 0.56294,-0.56294 0.15265,-0.254418 0.11689,-0.597549 0.28147,-0.844415 0.052,-0.07807 0.18765,0 0.28147,0 0.0938,-0.09382 0.22214,-0.162793 0.28147,-0.281472 0.042,-0.08392 -0.052,-0.203407 0,-0.281472 0.36087,-0.541292 1.0465,-0.866068 1.40736,-1.407358 0.0521,-0.07807 -0.0663,-0.21513 0,-0.281472 0.0663,-0.06634 0.21513,0.06634 0.28147,0 0.13269,-0.132688 -0.13268,-0.430257 0,-0.562943 0.14835,-0.14835 0.4146,-0.133123 0.56295,-0.281472 0.0663,-0.06634 -0.042,-0.197554 0,-0.281472 0.16888,-0.337767 0.67553,-0.50665 0.84441,-0.844415 0.13269,-0.265374 0.1169,-0.597548 0.28147,-0.844415 0.22081,-0.331208 0.60558,-0.525965 0.84442,-0.844415 0.0563,-0.07506 -0.042,-0.197554 0,-0.281472 0.0593,-0.118678 0.22213,-0.162792 0.28147,-0.281471 0.042,-0.08392 0,-0.187648 0,-0.281472 v -0.281472 c 0,-0.63591 -0.0839,0.08392 0.56294,-0.562943 0.0663,-0.06634 -0.0184,-0.189468 0,-0.281472 0.0759,-0.379333 0.10847,-0.77988 0.28148,-1.125886 0.51864,-1.037291 0.8366,-0.820973 1.12588,-1.68883 0.0645,-0.193604 -0.083,-0.678339 0,-0.844416 0.0593,-0.118678 0.22213,-0.162792 0.28147,-0.281471 0.042,-0.08392 0,-0.187648 0,-0.281472 0.0938,-0.09382 0.22214,-0.16279 0.28148,-0.281469 0.042,-0.08392 -0.0663,-0.21513 0,-0.281472 0.0663,-0.06634 0.21512,0.06634 0.28147,0 0.0575,-0.05754 -0.0558,-0.732813 0,-0.844415 0.0593,-0.118679 0.2132,-0.167695 0.28147,-0.281471 0.21588,-0.359799 0.34706,-0.766091 0.56294,-1.125887 0.0683,-0.113779 0.23951,-0.155594 0.28147,-0.281472 0.0558,-0.16738 0,-1.356354 0,-1.68883 v -0.281472 c 0,-0.09382 -0.0663,-0.215127 0,-0.281471 0.0663,-0.06634 0.21513,0.06634 0.28148,0 0.0663,-0.06634 0,-0.187648 0,-0.281472 v -0.281472 c 0,-0.184957 -0.0529,-0.685609 0,-0.844415 0.0663,-0.19903 0.21512,-0.363913 0.28147,-0.562943 0.0593,-0.178017 -0.0593,-0.384924 0,-0.562943 0.0663,-0.199031 0.21513,-0.363914 0.28147,-0.562944 0.0529,-0.158805 0,-0.659458 0,-0.844415 v -0.281471 0.562943 -0.844415 c 0,-0.09382 -0.0663,-0.215128 0,-0.281472 0.14835,-0.148349 0.41459,-0.133122 0.56294,-0.281472 0.0663,-0.06634 0,-0.187647 0,-0.281471 v -1.68883 -1.125884 c 0,-0.09382 -0.0938,-0.281472 0,-0.281472 0.0938,0 0,0.187648 0,0.281472"
       id="path991-7"
       inkscape:connector-curvature="0"
       sodipodi:nodetypes="ccccccccccccccccccccccccccccccccccccccccssccccccccccccccssccssccccsccsccscssc" />
    <clipPath
       clipPathUnits="userSpaceOnUse"
       id="clipPath1521">
      <g
         style="fill:#84c440;fill-opacity:1"
         transform="matrix(1.0909835,0,0,1.0909835,-12.765096,-4.6577617)"
         id="use1523"
         inkscape:label="Clip">
        <text
           y="-130.35013"
           x="-198.84294"
           xml:space="preserve"
           style="font-style:normal;font-variant:normal;font-weight:normal;font-stretch:normal;font-size:22.45853615px;line-height:1.25;font-family:'Boustown Sans';-inkscape-font-specification:'Boustown Sans, Normal';font-variant-ligatures:normal;font-variant-caps:normal;font-variant-numeric:normal;font-feature-settings:normal;text-align:start;letter-spacing:0px;word-spacing:0px;writing-mode:lr-tb;text-anchor:start;fill:#84c440;fill-opacity:1;stroke:none;stroke-width:1.0319494"
           id="text902"
           transform="rotate(-6.050669)"><textPath
             style="fill:#84c440;fill-opacity:1;stroke-width:1.0319494"
             xlink:href="#path991"
             id="textPath900">atlantic</textPath></text>
      </g>
    </clipPath>
    <path
       style="fill:none;stroke:none;stroke-width:0.26458332px;stroke-linecap:butt;stroke-linejoin:miter;stroke-opacity:1"
       d="m 108.64805,109.53989 c 4.43742,-0.88748 -0.2591,0.18019 1.9703,-0.56294 0.83789,-0.2793 -0.57753,0.66649 0.84442,-0.28147 0.1104,-0.0736 0.16279,-0.22214 0.28147,-0.28147 0.1116,-0.0558 0.78687,0.0575 0.84441,0 0.0663,-0.0663 -0.0839,-0.23952 0,-0.28148 0.16784,-0.0839 0.3809,0.0455 0.56294,0 0.81634,-0.20408 0.3294,-0.21959 0.84442,-0.56294 0.17456,-0.11637 0.36391,-0.21513 0.56294,-0.28147 0.17802,-0.0593 0.40681,0.10409 0.56294,0 4.13616,-2.20048 13.33654,-8.358715 18.85861,-16.606827 0.93352,-0.933524 -0.13269,0.265374 0.28147,-0.562943 0.5857,-1.171417 -0.0194,0.300902 0.56294,-0.281472 0.13269,-0.132686 -0.13269,-0.430255 0,-0.562943 0.0663,-0.06634 0.21513,0.06634 0.28147,0 0.0663,-0.06634 -0.0663,-0.215128 0,-0.281472 0.0663,-0.06634 0.21513,0.06634 0.28147,0 0,-0.750591 -0.0938,0.09382 0.28148,-0.281472 0.14834,-0.148349 0.16509,-0.388382 0.28147,-0.562943 0.21651,-0.324774 0.6279,-0.519639 0.84441,-0.844415 0.11638,-0.174562 0.1651,-0.388382 0.28147,-0.562944 -0.0281,-0.557609 0.4146,-0.133122 0.56295,-0.281471 0.0663,-0.06634 -0.042,-0.197551 0,-0.281472 0.0593,-0.118679 0.18764,-0.187648 0.28147,-0.281472 0.18765,-0.187647 0.42641,-0.335386 0.56294,-0.56294 0.15265,-0.254418 0.11689,-0.597549 0.28147,-0.844415 0.052,-0.07807 0.18765,0 0.28147,0 0.0938,-0.09382 0.22214,-0.162793 0.28147,-0.281472 0.042,-0.08392 -0.052,-0.203407 0,-0.281472 0.36087,-0.541292 1.0465,-0.866068 1.40736,-1.407358 0.0521,-0.07807 -0.0663,-0.21513 0,-0.281472 0.0663,-0.06634 0.21513,0.06634 0.28147,0 0.13269,-0.132688 -0.13268,-0.430257 0,-0.562943 0.14835,-0.14835 0.4146,-0.133123 0.56295,-0.281472 0.0663,-0.06634 -0.042,-0.197554 0,-0.281472 0.16888,-0.337767 0.67553,-0.50665 0.84441,-0.844415 0.13269,-0.265374 0.1169,-0.597548 0.28147,-0.844415 0.22081,-0.331208 0.60558,-0.525965 0.84442,-0.844415 0.0563,-0.07506 -0.042,-0.197554 0,-0.281472 0.0593,-0.118678 0.22213,-0.162792 0.28147,-0.281471 0.042,-0.08392 0,-0.187648 0,-0.281472 v -0.281472 c 0,-0.63591 -0.0839,0.08392 0.56294,-0.562943 0.0663,-0.06634 -0.0184,-0.189468 0,-0.281472 0.0759,-0.379333 0.10847,-0.77988 0.28148,-1.125886 0.51864,-1.037291 0.8366,-0.820973 1.12588,-1.68883 0.0645,-0.193604 -0.083,-0.678339 0,-0.844416 0.0593,-0.118678 0.22213,-0.162792 0.28147,-0.281471 0.042,-0.08392 0,-0.187648 0,-0.281472 0.0938,-0.09382 0.22214,-0.16279 0.28148,-0.281469 0.042,-0.08392 -0.0663,-0.21513 0,-0.281472 0.0663,-0.06634 0.21512,0.06634 0.28147,0 0.0575,-0.05754 -0.0558,-0.732813 0,-0.844415 0.0593,-0.118679 0.2132,-0.167695 0.28147,-0.281471 0.21588,-0.359799 0.34706,-0.766091 0.56294,-1.125887 0.0683,-0.113779 0.23951,-0.155594 0.28147,-0.281472 0.0558,-0.16738 0,-1.356354 0,-1.68883 v -0.281472 c 0,-0.09382 -0.0663,-0.215127 0,-0.281471 0.0663,-0.06634 0.21513,0.06634 0.28148,0 0.0663,-0.06634 0,-0.187648 0,-0.281472 v -0.281472 c 0,-0.184957 -0.0529,-0.685609 0,-0.844415 0.0663,-0.19903 0.21512,-0.363913 0.28147,-0.562943 0.0593,-0.178017 -0.0593,-0.384924 0,-0.562943 0.0663,-0.199031 0.21513,-0.363914 0.28147,-0.562944 0.0529,-0.158805 0,-0.659458 0,-0.844415 v -0.281471 0.562943 -0.844415 c 0,-0.09382 -0.0663,-0.215128 0,-0.281472 0.14835,-0.148349 0.41459,-0.133122 0.56294,-0.281472 0.0663,-0.06634 0,-0.187647 0,-0.281471 v -1.68883 -1.125884 c 0,-0.09382 -0.0938,-0.281472 0,-0.281472 0.0938,0 0,0.187648 0,0.281472"
       id="path991-7-5"
       inkscape:connector-curvature="0"
       sodipodi:nodetypes="ccccccccccccccccccccccccccccccccccccccccssccccccccccccccssccssccccsccsccscssc" />
  </defs>
  <sodipodi:namedview
     id="base"
     pagecolor="#ffffff"
     bordercolor="#666666"
     borderopacity="1.0"
     inkscape:pageopacity="0.0"
     inkscape:pageshadow="2"
     inkscape:zoom="0.33368166"
     inkscape:cx="299.13363"
     inkscape:cy="469.90819"
     inkscape:document-units="mm"
     inkscape:current-layer="g1056"
     showgrid="false"
     showguides="false"
     inkscape:window-width="1600"
     inkscape:window-height="851"
     inkscape:window-x="0"
     inkscape:window-y="25"
     inkscape:window-maximized="1"
     inkscape:lockguides="true" />
  <metadata
     id="metadata5">
    <rdf:RDF>
      <cc:Work
         rdf:about="">
        <dc:format>image/svg+xml</dc:format>
        <dc:type
           rdf:resource="http://purl.org/dc/dcmitype/StillImage" />
        <dc:title></dc:title>
      </cc:Work>
    </rdf:RDF>
  </metadata>
  <g
     inkscape:label="Calque 1"
     inkscape:groupmode="layer"
     id="layer1"
     transform="translate(0,-137)">
    <g
       id="g1513"
       transform="matrix(2.0911398,0,0,2.0911398,-171.88074,-11.884164)">
      <path
         sodipodi:nodetypes="ccccccccccccccccccccccccccccccccccccccccssccccccccccccccssccssccccsccsccscssc"
         inkscape:connector-curvature="0"
         id="path991"
         d="m 108.64805,109.53989 c 4.43742,-0.88748 -0.2591,0.18019 1.9703,-0.56294 0.83789,-0.2793 -0.57753,0.66649 0.84442,-0.28147 0.1104,-0.0736 0.16279,-0.22214 0.28147,-0.28147 0.1116,-0.0558 0.78687,0.0575 0.84441,0 0.0663,-0.0663 -0.0839,-0.23952 0,-0.28148 0.16784,-0.0839 0.3809,0.0455 0.56294,0 0.81634,-0.20408 0.3294,-0.21959 0.84442,-0.56294 0.17456,-0.11637 0.36391,-0.21513 0.56294,-0.28147 0.17802,-0.0593 0.40681,0.10409 0.56294,0 4.13616,-2.20048 13.33654,-8.358715 18.85861,-16.606827 0.93352,-0.933524 -0.13269,0.265374 0.28147,-0.562943 0.5857,-1.171417 -0.0194,0.300902 0.56294,-0.281472 0.13269,-0.132686 -0.13269,-0.430255 0,-0.562943 0.0663,-0.06634 0.21513,0.06634 0.28147,0 0.0663,-0.06634 -0.0663,-0.215128 0,-0.281472 0.0663,-0.06634 0.21513,0.06634 0.28147,0 0,-0.750591 -0.0938,0.09382 0.28148,-0.281472 0.14834,-0.148349 0.16509,-0.388382 0.28147,-0.562943 0.21651,-0.324774 0.6279,-0.519639 0.84441,-0.844415 0.11638,-0.174562 0.1651,-0.388382 0.28147,-0.562944 -0.0281,-0.557609 0.4146,-0.133122 0.56295,-0.281471 0.0663,-0.06634 -0.042,-0.197551 0,-0.281472 0.0593,-0.118679 0.18764,-0.187648 0.28147,-0.281472 0.18765,-0.187647 0.42641,-0.335386 0.56294,-0.56294 0.15265,-0.254418 0.11689,-0.597549 0.28147,-0.844415 0.052,-0.07807 0.18765,0 0.28147,0 0.0938,-0.09382 0.22214,-0.162793 0.28147,-0.281472 0.042,-0.08392 -0.052,-0.203407 0,-0.281472 0.36087,-0.541292 1.0465,-0.866068 1.40736,-1.407358 0.0521,-0.07807 -0.0663,-0.21513 0,-0.281472 0.0663,-0.06634 0.21513,0.06634 0.28147,0 0.13269,-0.132688 -0.13268,-0.430257 0,-0.562943 0.14835,-0.14835 0.4146,-0.133123 0.56295,-0.281472 0.0663,-0.06634 -0.042,-0.197554 0,-0.281472 0.16888,-0.337767 0.67553,-0.50665 0.84441,-0.844415 0.13269,-0.265374 0.1169,-0.597548 0.28147,-0.844415 0.22081,-0.331208 0.60558,-0.525965 0.84442,-0.844415 0.0563,-0.07506 -0.042,-0.197554 0,-0.281472 0.0593,-0.118678 0.22213,-0.162792 0.28147,-0.281471 0.042,-0.08392 0,-0.187648 0,-0.281472 v -0.281472 c 0,-0.63591 -0.0839,0.08392 0.56294,-0.562943 0.0663,-0.06634 -0.0184,-0.189468 0,-0.281472 0.0759,-0.379333 0.10847,-0.77988 0.28148,-1.125886 0.51864,-1.037291 0.8366,-0.820973 1.12588,-1.68883 0.0645,-0.193604 -0.083,-0.678339 0,-0.844416 0.0593,-0.118678 0.22213,-0.162792 0.28147,-0.281471 0.042,-0.08392 0,-0.187648 0,-0.281472 0.0938,-0.09382 0.22214,-0.16279 0.28148,-0.281469 0.042,-0.08392 -0.0663,-0.21513 0,-0.281472 0.0663,-0.06634 0.21512,0.06634 0.28147,0 0.0575,-0.05754 -0.0558,-0.732813 0,-0.844415 0.0593,-0.118679 0.2132,-0.167695 0.28147,-0.281471 0.21588,-0.359799 0.34706,-0.766091 0.56294,-1.125887 0.0683,-0.113779 0.23951,-0.155594 0.28147,-0.281472 0.0558,-0.16738 0,-1.356354 0,-1.68883 v -0.281472 c 0,-0.09382 -0.0663,-0.215127 0,-0.281471 0.0663,-0.06634 0.21513,0.06634 0.28148,0 0.0663,-0.06634 0,-0.187648 0,-0.281472 v -0.281472 c 0,-0.184957 -0.0529,-0.685609 0,-0.844415 0.0663,-0.19903 0.21512,-0.363913 0.28147,-0.562943 0.0593,-0.178017 -0.0593,-0.384924 0,-0.562943 0.0663,-0.199031 0.21513,-0.363914 0.28147,-0.562944 0.0529,-0.158805 0,-0.659458 0,-0.844415 v -0.281471 0.562943 -0.844415 c 0,-0.09382 -0.0663,-0.215128 0,-0.281472 0.14835,-0.148349 0.41459,-0.133122 0.56294,-0.281472 0.0663,-0.06634 0,-0.187647 0,-0.281471 v -1.68883 -1.125884 c 0,-0.09382 -0.0938,-0.281472 0,-0.281472 0.0938,0 0,0.187648 0,0.281472"
         style="fill:none;stroke:none;stroke-width:0.26458332px;stroke-linecap:butt;stroke-linejoin:miter;stroke-opacity:1" />
      <path
         sodipodi:nodetypes="cccccccccsccccccccccccscccccccccsccccsccscccccccccsccccccccccccccccccc"
         inkscape:connector-curvature="0"
         id="path1058"
         d="m 133.75732,126.4336 c 0.63121,0.84163 0.27366,0.5217 1.01778,1.01779 0.16963,0.11308 0.33188,0.23811 0.50889,0.33925 0.21956,0.12546 0.46812,0.199 0.67852,0.33926 0.13307,0.0887 0.21132,0.24331 0.33926,0.33927 0.10116,0.0759 0.24986,0.0803 0.33926,0.16963 0.04,0.04 -0.047,0.13826 0,0.16963 2.25676,0.94124 9.70585,4.24677 12.72226,4.24075 h 2.37483 1.35703 c 0.0578,0 0.58672,0.0306 0.67853,0 0.11995,-0.04 0.23405,-0.0995 0.33926,-0.16963 0.0666,-0.0443 0.0937,-0.14434 0.16963,-0.16963 0.10728,-0.0357 0.24517,0.0627 0.33927,0 0.10519,-0.0701 0.0565,-0.28271 0.16962,-0.33926 0.15172,-0.0759 0.34797,0.0536 0.50889,0 0.0536,-0.0179 -0.04,-0.12965 0,-0.16963 0.04,-0.04 0.12965,0.04 0.16963,0 0.04,-0.04 -0.04,-0.12965 0,-0.16963 1.7e-4,-1.7e-4 0.50813,2.5e-4 0.50889,0 0.0759,-0.0253 0.0981,-0.13387 0.16964,-0.16963 0.0755,-0.0377 0.60093,0.0258 0.67851,0 0.0759,-0.0253 0.0981,-0.13388 0.16963,-0.16963 0.0506,-0.0253 0.11906,0.0253 0.16963,0 0.0715,-0.0357 0.10304,-0.12527 0.16963,-0.16964 0.1052,-0.0701 0.22618,-0.11308 0.33926,-0.16962 0.11309,-0.0565 0.2166,-0.13896 0.33927,-0.16963 0.1097,-0.0274 0.23811,0.0506 0.33926,0 0.0506,-0.0253 -0.04,-0.12965 0,-0.16963 0.0894,-0.0893 0.23405,-0.0995 0.33925,-0.16963 0.0666,-0.0443 0.0981,-0.13387 0.16963,-0.16963 0.0506,-0.0253 0.11599,0.0179 0.16963,0 1.2287,-0.40957 -0.26743,0.0489 0.5089,-0.33926 0.0506,-0.0253 0.11599,0.0179 0.16963,0 0.23988,-0.0799 0.43863,-0.2593 0.67851,-0.33926 0.0536,-0.0179 0.11599,0.0179 0.16963,0 1.22871,-0.40956 -0.26744,0.0489 0.5089,-0.33927 0.0506,-0.0253 0.11905,0.0253 0.16963,0 0.0715,-0.0357 0.0981,-0.13386 0.16963,-0.16962 0.0506,-0.0253 0.11905,0.0253 0.16963,0 0.20356,-0.10179 0.30533,-0.40712 0.50889,-0.50889 0.0506,-0.0253 0.12964,0.04 0.16962,0 0.0893,-0.0895 0.0803,-0.24986 0.16963,-0.33926 0.04,-0.04 0.11906,0.0253 0.16963,0 0.14306,-0.0715 0.2062,-0.25056 0.33927,-0.33927 0.10519,-0.0701 0.24986,-0.0803 0.33926,-0.16963 0.04,-0.04 -0.0313,-0.12258 0,-0.16963 0.13307,-0.1996 0.37582,-0.30928 0.50889,-0.50888 0.0701,-0.10521 0.0995,-0.23406 0.16963,-0.33926 0.0887,-0.13308 0.22617,-0.22618 0.33926,-0.33926 0.16963,-0.16964 0.33926,-0.33927 0.50889,-0.5089 0.0565,-0.0565 0.13387,-0.0981 0.16963,-0.16963 0.0253,-0.0506 -0.0253,-0.11906 0,-0.16963 0.12644,-0.25287 0.47861,-0.30898 0.67853,-0.50888 0.0894,-0.0893 0.0644,-0.26913 0.16962,-0.33926 0.0941,-0.0627 0.2593,0.0799 0.33926,0 0.0799,-0.08 -0.0506,-0.23812 0,-0.33927 0.0253,-0.0506 0.12965,0.04 0.16963,0 0.04,-0.04 -0.04,-0.12965 0,-0.16963 0.0893,-0.0895 0.24986,-0.0803 0.33926,-0.16963 0.04,-0.04 -0.04,-0.12964 0,-0.16963 0.0895,-0.0893 0.24986,-0.0802 0.33926,-0.16963 0.04,-0.04 -0.0253,-0.11906 0,-0.16962 0.0357,-0.0715 0.13387,-0.0981 0.16963,-0.16963 0.0253,-0.0506 -0.0314,-0.12259 0,-0.16964 0.0887,-0.13307 0.2433,-0.21132 0.33927,-0.33926 0.12396,-0.16528 0.13172,-0.40513 0.33926,-0.50889 0.0506,-0.0253 0.12964,0.04 0.16962,0 0.08,-0.0799 -0.0506,-0.23811 0,-0.33926 0.0863,-0.17269 0.37116,-0.27039 0.50889,-0.33927"
         style="fill:none;stroke:none;stroke-width:0.27649716px;stroke-linecap:butt;stroke-linejoin:miter;stroke-opacity:1" />
      <g
         id="g1543"
         transform="matrix(-0.92132837,0.14077599,0.14119543,0.92181802,340.7471,16.238592)" />
      <g
         transform="rotate(50.207612,123.75182,85.153108)"
         id="g1056">
        <path
           inkscape:connector-curvature="0"
           d="m 146.15327,120.1991 c -1.82272,0.45945 -1.74357,0.82711 -2.84089,-0.68485 -0.48212,-0.65409 -0.5021,-0.72634 -0.37463,-1.60174 0.0946,-0.68252 -0.10988,-1.24873 -0.53985,-1.46374 -0.88571,-0.44288 -1.72114,0.92122 -0.93944,1.57237 0.19873,0.25194 0.69646,0.65971 0.69646,0.65971 0.27217,0.0173 0.25026,0.47159 0.41796,0.67471 0.6286,0.76135 1.16099,2.00457 2.17433,2.00207 0.58305,-0.001 1.95476,-0.16338 1.40606,-1.15853 z m 14.49006,-14.04575 c 17.79696,-0.68238 7.32708,17.42645 -3.95188,16.92229 1.7777,0.45329 1.39074,-0.32825 0.67786,-0.84348 -2.25014,-1.5495 -5.09845,0.70939 -4.60675,3.65394 0.51009,3.04995 4.09183,4.13942 5.627,1.71615 0.87349,-1.36801 0.83357,-4.24508 -0.0399,-3.36361 0.18858,0.954 0.48321,2.38913 -0.25832,3.27675 -1.72103,2.06011 -2.6507,0.8805 -3.7933,0.40895 -1.66555,-0.68737 -1.21942,-3.86451 -0.8041,-4.53527 2.16605,-2.53744 4.7001,-0.005 3.19748,-0.31343 -3.78761,-1.28541 -3.89061,3.96114 -1.12819,4.69182 2.25468,0.66914 3.09309,-2.37406 2.33246,-3.73321 16.90118,-1.84715 17.61414,-22.23467 3.39529,-18.96965 -1.40876,0.23473 -1.60557,0.17591 -2.11745,-0.65145 -1.1817,-1.70593 -2.89604,-2.43686 -4.51272,-2.96378 -1.30892,-0.43386 -3.48501,-0.66203 -3.42904,-0.36247 0.0227,0.13585 0.0291,0.24654 0.0206,0.24224 -0.23421,0.0471 -2.62411,0.0514 -2.53071,0.002 0.0721,-0.0319 0.48819,-0.0784 0.93536,-0.098 0.44118,-0.0166 0.85478,-0.0705 0.91038,-0.12748 0.0557,-0.057 -0.43718,-0.0658 -1.09115,-0.0195 -4.05785,0.25662 -8.65581,1.96873 -9.99413,3.721 -0.72645,0.938 -1.06002,2.79664 -0.76336,4.18966 0.0593,0.28995 0.08,0.0455 0.0444,-0.55484 -0.0674,-1.15397 -0.0508,-1.31538 0.29562,-2.40945 0.22166,-0.69821 0.67911,-1.47651 0.8279,-1.39645 0.043,0.0215 -0.056,0.18697 -0.21763,0.37207 -0.68924,0.77556 -0.99822,2.79361 -0.63978,4.18358 0.12875,0.49437 0.11753,0.72638 -0.032,0.90615 -0.11536,0.14032 -0.17384,0.37701 -0.12867,0.53539 0.0391,0.16105 0.10378,0.46489 0.13193,0.67134 0.1387,0.89539 1.28543,1.10105 1.5779,0.27418 0.21425,-0.60574 -0.61377,-1.99857 -1.07576,-1.79394 -0.36603,0.1621 -0.39176,-2.58342 -0.0381,-3.58336 1.33309,-3.769 11.39646,-5.82601 16.27501,-3.32423 2.65526,1.36156 1.61445,1.9189 2.8515,2.92185 0.47602,0.38596 2.05218,0.35439 2.05218,0.35439 z m -17.18313,-3.59476 c 0.52641,-0.2007 0.14417,-0.006 -0.84579,0.43137 -0.99002,0.43847 -1.4178,0.60362 -0.9542,0.36586 0.46359,-0.23776 1.27359,-0.59651 1.79999,-0.79723 z m 10.56678,22.55668 c 0.0217,-1.72046 2.00518,-2.55035 3.09279,-1.30494 1.27121,1.45601 0.43622,3.78812 -1.29749,3.63971 -1.11633,-0.10561 -1.81823,-1.01102 -1.7953,-2.33477 z"
           id="path879"
           sodipodi:nodetypes="cccsccaacccccccsscccccccccccccccccccccccssscscsscscccc"
           style="fill:#262b2e;fill-opacity:1;stroke:none;stroke-width:0.00697505" />
        <g
           style="fill:#000000;stroke:none"
           id="g1409"
           transform="matrix(0.00582885,-0.00790533,-0.00671037,-0.00494777,141.29019,184.86994)">
          <g
             id="g847"
             transform="matrix(1.0020086,-0.35760866,0.32486922,1.2633367,4625.047,2633.5162)"
             style="fill:#680d3f;fill-opacity:1;stroke:none">
            <path
               id="path837"
               d="m 1153,2171 c -69,-32 -123,-137 -123,-240 0,-68 26,-159 62,-214 94,-146 261,-140 327,12 71,166 1,386 -141,445 -48,21 -74,20 -125,-3 z"
               inkscape:connector-curvature="0"
               style="fill:#680d3f;fill-opacity:1" />
            <path
               id="path839"
               d="m 1720,2174 c -141,-61 -209,-281 -139,-445 66,-152 233,-158 327,-12 101,157 72,385 -58,451 -51,26 -81,27 -130,6 z"
               inkscape:connector-curvature="0"
               style="fill:#680d3f;fill-opacity:1" />
            <path
               id="path841"
               d="m 845,1720 c -30,-12 -71,-61 -84,-99 -37,-110 23,-268 125,-327 80,-47 165,-20 200,63 20,46 17,144 -5,203 -46,120 -155,194 -236,160 z"
               inkscape:connector-curvature="0"
               style="fill:#680d3f;fill-opacity:1" />
            <path
               id="path843"
               d="m 2062,1719 c -49,-14 -117,-90 -141,-155 -54,-144 -6,-279 103,-291 84,-10 171,65 210,180 55,162 -39,306 -172,266 z"
               inkscape:connector-curvature="0"
               style="fill:#680d3f;fill-opacity:1" />
            <path
               id="path845"
               d="m 1397,1595 c -78,-29 -122,-72 -178,-173 -37,-67 -81,-128 -144,-197 -51,-55 -97,-110 -103,-122 -14,-26 -16,-102 -2,-137 16,-42 78,-103 128,-124 76,-33 125,-35 270,-13 l 132,21 136,-21 c 147,-22 188,-20 266,13 50,21 112,81 128,124 14,35 12,111 -1,137 -7,12 -53,67 -104,122 -63,68 -106,127 -136,184 -53,100 -106,155 -177,181 -62,23 -158,25 -215,5 z"
               inkscape:connector-curvature="0"
               style="fill:#680d3f;fill-opacity:1" />
          </g>
        </g>
        <text
           inkscape:transform-center-y="-40.998094"
           inkscape:transform-center-x="-141.26175"
           y="-46.471355"
           x="-239.18054"
           xml:space="preserve"
           style="font-style:normal;font-variant:normal;font-weight:normal;font-stretch:normal;font-size:17.63888931px;line-height:1.25;font-family:'Boustown Sans';-inkscape-font-specification:'Boustown Sans, Normal';font-variant-ligatures:normal;font-variant-caps:normal;font-variant-numeric:normal;font-feature-settings:normal;text-align:start;letter-spacing:0px;word-spacing:0px;writing-mode:lr-tb;text-anchor:start;fill:#680d3f;fill-opacity:1;stroke:none;stroke-width:0.81049097"
           id="text964-6"
           transform="matrix(2.7526607,-0.71687056,0.71687056,2.7526607,-204.12764,-119.65848)"><textPath
             style="font-style:normal;font-variant:normal;font-weight:normal;font-stretch:normal;font-size:17.63888931px;font-family:'Boustown Sans';-inkscape-font-specification:'Boustown Sans, Normal';font-variant-ligatures:normal;font-variant-caps:normal;font-variant-numeric:normal;font-feature-settings:normal;text-align:start;writing-mode:lr-tb;text-anchor:start;fill:#680d3f;fill-opacity:1;stroke-width:0.81049097"
             xlink:href="#path991-7"
             id="textPath995-7">V E T</textPath></text>
        <flowRoot
           xml:space="preserve"
           id="flowRoot888"
           style="font-style:normal;font-variant:normal;font-weight:normal;font-stretch:normal;font-size:13.33333302px;line-height:1.25;font-family:Waree;-inkscape-font-specification:Waree;text-align:center;letter-spacing:0px;word-spacing:0px;text-anchor:middle;fill:#000000;fill-opacity:1;stroke:none"
           transform="matrix(0.08097754,-0.09721852,0.09721852,0.08097754,68.06002,92.84978)"><flowRegion
             id="flowRegion890"><rect
               id="rect892"
               width="14.984342"
               height="17.981211"
               x="134.85907"
               y="-171.29082" /></flowRegion><flowPara
             id="flowPara894"></flowPara></flowRoot>        <text
           xml:space="preserve"
           style="font-style:normal;font-variant:normal;font-weight:normal;font-stretch:normal;font-size:62.84968185px;line-height:1.25;font-family:Waree;-inkscape-font-specification:Waree;text-align:center;letter-spacing:0px;word-spacing:0px;text-anchor:middle;fill:#84c440;fill-opacity:1;stroke:none;stroke-width:0.84173679"
           x="44.71397"
           y="170.6866"
           id="text898"
           transform="rotate(-50.207611)"><tspan
             sodipodi:role="line"
             id="tspan896"
             x="44.71397"
             y="170.6866"
             style="font-style:normal;font-variant:normal;font-weight:normal;font-stretch:normal;font-size:62.84968185px;font-family:'Boustown Sans';-inkscape-font-specification:'Boustown Sans';fill:#84c440;fill-opacity:1;stroke-width:0.84173679">Atlantic</tspan></text>
      </g>
    </g>
    <flowRoot
       xml:space="preserve"
       id="flowRoot1346"
       style="font-style:normal;font-variant:normal;font-weight:normal;font-stretch:normal;font-size:20px;line-height:1.25;font-family:'212 Queenie Sans';-inkscape-font-specification:'212 Queenie Sans, Normal';font-variant-ligatures:normal;font-variant-caps:normal;font-variant-numeric:normal;font-feature-settings:normal;text-align:start;letter-spacing:0px;word-spacing:0px;writing-mode:lr-tb;text-anchor:start;fill:#000000;fill-opacity:1;stroke:none"><flowRegion
         id="flowRegion1348"><rect
           id="rect1350"
           width="222.89122"
           height="209.93242"
           x="614.2467"
           y="34.845116" /></flowRegion><flowPara
         id="flowPara1352" /></flowRoot>    <flowRoot
       xml:space="preserve"
       id="flowRoot1354"
       style="font-style:normal;font-variant:normal;font-weight:normal;font-stretch:normal;font-size:20px;line-height:1.25;font-family:'212 Queenie Sans';-inkscape-font-specification:'212 Queenie Sans, Normal';font-variant-ligatures:normal;font-variant-caps:normal;font-variant-numeric:normal;font-feature-settings:normal;text-align:start;letter-spacing:0px;word-spacing:0px;writing-mode:lr-tb;text-anchor:start;fill:#000000;fill-opacity:1;stroke:none"><flowRegion
         id="flowRegion1356"><rect
           id="rect1358"
           width="257.448"
           height="270.40677"
           x="580.55383"
           y="22.750242" /></flowRegion><flowPara
         id="flowPara1360" /></flowRoot>    <flowRoot
       xml:space="preserve"
       id="flowRoot1362"
       style="font-style:normal;font-variant:normal;font-weight:normal;font-stretch:normal;font-size:20px;line-height:1.25;font-family:'212 Queenie Sans';-inkscape-font-specification:'212 Queenie Sans, Normal';font-variant-ligatures:normal;font-variant-caps:normal;font-variant-numeric:normal;font-feature-settings:normal;text-align:start;letter-spacing:0px;word-spacing:0px;writing-mode:lr-tb;text-anchor:start;fill:#000000;fill-opacity:1;stroke:none"><flowRegion
         id="flowRegion1364"><rect
           id="rect1366"
           width="199.56538"
           height="184.01485"
           x="572.77856"
           y="19.294565" /></flowRegion><flowPara
         id="flowPara1368" /></flowRoot>  </g>
</svg>
