<?xml version="1.0" encoding="UTF-8" standalone="no"?>
<!-- Created with Inkscape (http://www.inkscape.org/) -->

<svg
   xmlns:dc="http://purl.org/dc/elements/1.1/"
   xmlns:cc="http://creativecommons.org/ns#"
   xmlns:rdf="http://www.w3.org/1999/02/22-rdf-syntax-ns#"
   xmlns:svg="http://www.w3.org/2000/svg"
   xmlns="http://www.w3.org/2000/svg"
   xmlns:xlink="http://www.w3.org/1999/xlink"
   xmlns:sodipodi="http://sodipodi.sourceforge.net/DTD/sodipodi-0.dtd"
   xmlns:inkscape="http://www.inkscape.org/namespaces/inkscape"
   width="120mm"
   height="120mm"
   viewBox="0 0 120 120"
   version="1.1"
   id="svg8"
   inkscape:version="0.92.3 (2405546, 2018-03-11)"
   sodipodi:docname="MINI_logo_atlanticvet_white.svg"
   inkscape:export-filename="/home/florent/VisualStudioCode/atlanticvet.fr/site/static/images/mini-logo.png"
   inkscape:export-xdpi="150"
   inkscape:export-ydpi="150">
  <defs
     id="defs2">
    <path
       style="fill:none;stroke:none;stroke-width:0.26458332px;stroke-linecap:butt;stroke-linejoin:miter;stroke-opacity:1"
       d="m 108.64805,109.53989 c 4.43742,-0.88748 -0.2591,0.18019 1.9703,-0.56294 0.83789,-0.2793 -0.57753,0.66649 0.84442,-0.28147 0.1104,-0.0736 0.16279,-0.22214 0.28147,-0.28147 0.1116,-0.0558 0.78687,0.0575 0.84441,0 0.0663,-0.0663 -0.0839,-0.23952 0,-0.28148 0.16784,-0.0839 0.3809,0.0455 0.56294,0 0.81634,-0.20408 0.3294,-0.21959 0.84442,-0.56294 0.17456,-0.11637 0.36391,-0.21513 0.56294,-0.28147 0.17802,-0.0593 0.40681,0.10409 0.56294,0 4.13616,-2.20048 13.33654,-8.358715 18.85861,-16.606827 0.93352,-0.933524 -0.13269,0.265374 0.28147,-0.562943 0.5857,-1.171417 -0.0194,0.300902 0.56294,-0.281472 0.13269,-0.132686 -0.13269,-0.430255 0,-0.562943 0.0663,-0.06634 0.21513,0.06634 0.28147,0 0.0663,-0.06634 -0.0663,-0.215128 0,-0.281472 0.0663,-0.06634 0.21513,0.06634 0.28147,0 0,-0.750591 -0.0938,0.09382 0.28148,-0.281472 0.14834,-0.148349 0.16509,-0.388382 0.28147,-0.562943 0.21651,-0.324774 0.6279,-0.519639 0.84441,-0.844415 0.11638,-0.174562 0.1651,-0.388382 0.28147,-0.562944 -0.0281,-0.557609 0.4146,-0.133122 0.56295,-0.281471 0.0663,-0.06634 -0.042,-0.197551 0,-0.281472 0.0593,-0.118679 0.18764,-0.187648 0.28147,-0.281472 0.18765,-0.187647 0.42641,-0.335386 0.56294,-0.56294 0.15265,-0.254418 0.11689,-0.597549 0.28147,-0.844415 0.052,-0.07807 0.18765,0 0.28147,0 0.0938,-0.09382 0.22214,-0.162793 0.28147,-0.281472 0.042,-0.08392 -0.052,-0.203407 0,-0.281472 0.36087,-0.541292 1.0465,-0.866068 1.40736,-1.407358 0.0521,-0.07807 -0.0663,-0.21513 0,-0.281472 0.0663,-0.06634 0.21513,0.06634 0.28147,0 0.13269,-0.132688 -0.13268,-0.430257 0,-0.562943 0.14835,-0.14835 0.4146,-0.133123 0.56295,-0.281472 0.0663,-0.06634 -0.042,-0.197554 0,-0.281472 0.16888,-0.337767 0.67553,-0.50665 0.84441,-0.844415 0.13269,-0.265374 0.1169,-0.597548 0.28147,-0.844415 0.22081,-0.331208 0.60558,-0.525965 0.84442,-0.844415 0.0563,-0.07506 -0.042,-0.197554 0,-0.281472 0.0593,-0.118678 0.22213,-0.162792 0.28147,-0.281471 0.042,-0.08392 0,-0.187648 0,-0.281472 v -0.281472 c 0,-0.63591 -0.0839,0.08392 0.56294,-0.562943 0.0663,-0.06634 -0.0184,-0.189468 0,-0.281472 0.0759,-0.379333 0.10847,-0.77988 0.28148,-1.125886 0.51864,-1.037291 0.8366,-0.820973 1.12588,-1.68883 0.0645,-0.193604 -0.083,-0.678339 0,-0.844416 0.0593,-0.118678 0.22213,-0.162792 0.28147,-0.281471 0.042,-0.08392 0,-0.187648 0,-0.281472 0.0938,-0.09382 0.22214,-0.16279 0.28148,-0.281469 0.042,-0.08392 -0.0663,-0.21513 0,-0.281472 0.0663,-0.06634 0.21512,0.06634 0.28147,0 0.0575,-0.05754 -0.0558,-0.732813 0,-0.844415 0.0593,-0.118679 0.2132,-0.167695 0.28147,-0.281471 0.21588,-0.359799 0.34706,-0.766091 0.56294,-1.125887 0.0683,-0.113779 0.23951,-0.155594 0.28147,-0.281472 0.0558,-0.16738 0,-1.356354 0,-1.68883 v -0.281472 c 0,-0.09382 -0.0663,-0.215127 0,-0.281471 0.0663,-0.06634 0.21513,0.06634 0.28148,0 0.0663,-0.06634 0,-0.187648 0,-0.281472 v -0.281472 c 0,-0.184957 -0.0529,-0.685609 0,-0.844415 0.0663,-0.19903 0.21512,-0.363913 0.28147,-0.562943 0.0593,-0.178017 -0.0593,-0.384924 0,-0.562943 0.0663,-0.199031 0.21513,-0.363914 0.28147,-0.562944 0.0529,-0.158805 0,-0.659458 0,-0.844415 v -0.281471 0.562943 -0.844415 c 0,-0.09382 -0.0663,-0.215128 0,-0.281472 0.14835,-0.148349 0.41459,-0.133122 0.56294,-0.281472 0.0663,-0.06634 0,-0.187647 0,-0.281471 v -1.68883 -1.125884 c 0,-0.09382 -0.0938,-0.281472 0,-0.281472 0.0938,0 0,0.187648 0,0.281472"
       id="path991-7"
       inkscape:connector-curvature="0"
       sodipodi:nodetypes="ccccccccccccccccccccccccccccccccccccccccssccccccccccccccssccssccccsccsccscssc" />
    <clipPath
       clipPathUnits="userSpaceOnUse"
       id="clipPath1521">
      <g
         style="fill:#84c440;fill-opacity:1"
         transform="matrix(1.0909835,0,0,1.0909835,-12.765096,-4.6577617)"
         id="use1523"
         inkscape:label="Clip">
        <text
           y="-130.35013"
           x="-198.84294"
           xml:space="preserve"
           style="font-style:normal;font-variant:normal;font-weight:normal;font-stretch:normal;font-size:22.45853615px;line-height:1.25;font-family:'Boustown Sans';-inkscape-font-specification:'Boustown Sans, Normal';font-variant-ligatures:normal;font-variant-caps:normal;font-variant-numeric:normal;font-feature-settings:normal;text-align:start;letter-spacing:0px;word-spacing:0px;writing-mode:lr-tb;text-anchor:start;fill:#84c440;fill-opacity:1;stroke:none;stroke-width:1.0319494"
           id="text902"
           transform="rotate(-6.050669)"><textPath
             style="fill:#84c440;fill-opacity:1;stroke-width:1.0319494"
             xlink:href="#path991"
             id="textPath900">atlantic</textPath></text>
      </g>
    </clipPath>
    <path
       style="fill:none;stroke:none;stroke-width:0.26458332px;stroke-linecap:butt;stroke-linejoin:miter;stroke-opacity:1"
       d="m 108.64805,109.53989 c 4.43742,-0.88748 -0.2591,0.18019 1.9703,-0.56294 0.83789,-0.2793 -0.57753,0.66649 0.84442,-0.28147 0.1104,-0.0736 0.16279,-0.22214 0.28147,-0.28147 0.1116,-0.0558 0.78687,0.0575 0.84441,0 0.0663,-0.0663 -0.0839,-0.23952 0,-0.28148 0.16784,-0.0839 0.3809,0.0455 0.56294,0 0.81634,-0.20408 0.3294,-0.21959 0.84442,-0.56294 0.17456,-0.11637 0.36391,-0.21513 0.56294,-0.28147 0.17802,-0.0593 0.40681,0.10409 0.56294,0 4.13616,-2.20048 13.33654,-8.358715 18.85861,-16.606827 0.93352,-0.933524 -0.13269,0.265374 0.28147,-0.562943 0.5857,-1.171417 -0.0194,0.300902 0.56294,-0.281472 0.13269,-0.132686 -0.13269,-0.430255 0,-0.562943 0.0663,-0.06634 0.21513,0.06634 0.28147,0 0.0663,-0.06634 -0.0663,-0.215128 0,-0.281472 0.0663,-0.06634 0.21513,0.06634 0.28147,0 0,-0.750591 -0.0938,0.09382 0.28148,-0.281472 0.14834,-0.148349 0.16509,-0.388382 0.28147,-0.562943 0.21651,-0.324774 0.6279,-0.519639 0.84441,-0.844415 0.11638,-0.174562 0.1651,-0.388382 0.28147,-0.562944 -0.0281,-0.557609 0.4146,-0.133122 0.56295,-0.281471 0.0663,-0.06634 -0.042,-0.197551 0,-0.281472 0.0593,-0.118679 0.18764,-0.187648 0.28147,-0.281472 0.18765,-0.187647 0.42641,-0.335386 0.56294,-0.56294 0.15265,-0.254418 0.11689,-0.597549 0.28147,-0.844415 0.052,-0.07807 0.18765,0 0.28147,0 0.0938,-0.09382 0.22214,-0.162793 0.28147,-0.281472 0.042,-0.08392 -0.052,-0.203407 0,-0.281472 0.36087,-0.541292 1.0465,-0.866068 1.40736,-1.407358 0.0521,-0.07807 -0.0663,-0.21513 0,-0.281472 0.0663,-0.06634 0.21513,0.06634 0.28147,0 0.13269,-0.132688 -0.13268,-0.430257 0,-0.562943 0.14835,-0.14835 0.4146,-0.133123 0.56295,-0.281472 0.0663,-0.06634 -0.042,-0.197554 0,-0.281472 0.16888,-0.337767 0.67553,-0.50665 0.84441,-0.844415 0.13269,-0.265374 0.1169,-0.597548 0.28147,-0.844415 0.22081,-0.331208 0.60558,-0.525965 0.84442,-0.844415 0.0563,-0.07506 -0.042,-0.197554 0,-0.281472 0.0593,-0.118678 0.22213,-0.162792 0.28147,-0.281471 0.042,-0.08392 0,-0.187648 0,-0.281472 v -0.281472 c 0,-0.63591 -0.0839,0.08392 0.56294,-0.562943 0.0663,-0.06634 -0.0184,-0.189468 0,-0.281472 0.0759,-0.379333 0.10847,-0.77988 0.28148,-1.125886 0.51864,-1.037291 0.8366,-0.820973 1.12588,-1.68883 0.0645,-0.193604 -0.083,-0.678339 0,-0.844416 0.0593,-0.118678 0.22213,-0.162792 0.28147,-0.281471 0.042,-0.08392 0,-0.187648 0,-0.281472 0.0938,-0.09382 0.22214,-0.16279 0.28148,-0.281469 0.042,-0.08392 -0.0663,-0.21513 0,-0.281472 0.0663,-0.06634 0.21512,0.06634 0.28147,0 0.0575,-0.05754 -0.0558,-0.732813 0,-0.844415 0.0593,-0.118679 0.2132,-0.167695 0.28147,-0.281471 0.21588,-0.359799 0.34706,-0.766091 0.56294,-1.125887 0.0683,-0.113779 0.23951,-0.155594 0.28147,-0.281472 0.0558,-0.16738 0,-1.356354 0,-1.68883 v -0.281472 c 0,-0.09382 -0.0663,-0.215127 0,-0.281471 0.0663,-0.06634 0.21513,0.06634 0.28148,0 0.0663,-0.06634 0,-0.187648 0,-0.281472 v -0.281472 c 0,-0.184957 -0.0529,-0.685609 0,-0.844415 0.0663,-0.19903 0.21512,-0.363913 0.28147,-0.562943 0.0593,-0.178017 -0.0593,-0.384924 0,-0.562943 0.0663,-0.199031 0.21513,-0.363914 0.28147,-0.562944 0.0529,-0.158805 0,-0.659458 0,-0.844415 v -0.281471 0.562943 -0.844415 c 0,-0.09382 -0.0663,-0.215128 0,-0.281472 0.14835,-0.148349 0.41459,-0.133122 0.56294,-0.281472 0.0663,-0.06634 0,-0.187647 0,-0.281471 v -1.68883 -1.125884 c 0,-0.09382 -0.0938,-0.281472 0,-0.281472 0.0938,0 0,0.187648 0,0.281472"
       id="path991-7-5"
       inkscape:connector-curvature="0"
       sodipodi:nodetypes="ccccccccccccccccccccccccccccccccccccccccssccccccccccccccssccssccccsccsccscssc" />
  </defs>
  <sodipodi:namedview
     id="base"
     pagecolor="#ffffff"
     bordercolor="#666666"
     borderopacity="1.0"
     inkscape:pageopacity="0.0"
     inkscape:pageshadow="2"
     inkscape:zoom="0.87479677"
     inkscape:cx="140.14016"
     inkscape:cy="139.99219"
     inkscape:document-units="mm"
     inkscape:current-layer="g1056"
     showgrid="false"
     showguides="false"
     inkscape:window-width="1600"
     inkscape:window-height="851"
     inkscape:window-x="0"
     inkscape:window-y="25"
     inkscape:window-maximized="1"
     inkscape:lockguides="true" />
  <metadata
     id="metadata5">
    <rdf:RDF>
      <cc:Work
         rdf:about="">
        <dc:format>image/svg+xml</dc:format>
        <dc:type
           rdf:resource="http://purl.org/dc/dcmitype/StillImage" />
        <dc:title />
      </cc:Work>
    </rdf:RDF>
  </metadata>
  <g
     inkscape:label="Calque 1"
     inkscape:groupmode="layer"
     id="layer1"
     transform="translate(0,-177)">
    <g
       id="g1513"
       transform="matrix(2.0911398,0,0,2.0911398,-171.88074,-11.884164)">
      <path
         sodipodi:nodetypes="ccccccccccccccccccccccccccccccccccccccccssccccccccccccccssccssccccsccsccscssc"
         inkscape:connector-curvature="0"
         id="path991"
         d="m 108.64805,109.53989 c 4.43742,-0.88748 -0.2591,0.18019 1.9703,-0.56294 0.83789,-0.2793 -0.57753,0.66649 0.84442,-0.28147 0.1104,-0.0736 0.16279,-0.22214 0.28147,-0.28147 0.1116,-0.0558 0.78687,0.0575 0.84441,0 0.0663,-0.0663 -0.0839,-0.23952 0,-0.28148 0.16784,-0.0839 0.3809,0.0455 0.56294,0 0.81634,-0.20408 0.3294,-0.21959 0.84442,-0.56294 0.17456,-0.11637 0.36391,-0.21513 0.56294,-0.28147 0.17802,-0.0593 0.40681,0.10409 0.56294,0 4.13616,-2.20048 13.33654,-8.358715 18.85861,-16.606827 0.93352,-0.933524 -0.13269,0.265374 0.28147,-0.562943 0.5857,-1.171417 -0.0194,0.300902 0.56294,-0.281472 0.13269,-0.132686 -0.13269,-0.430255 0,-0.562943 0.0663,-0.06634 0.21513,0.06634 0.28147,0 0.0663,-0.06634 -0.0663,-0.215128 0,-0.281472 0.0663,-0.06634 0.21513,0.06634 0.28147,0 0,-0.750591 -0.0938,0.09382 0.28148,-0.281472 0.14834,-0.148349 0.16509,-0.388382 0.28147,-0.562943 0.21651,-0.324774 0.6279,-0.519639 0.84441,-0.844415 0.11638,-0.174562 0.1651,-0.388382 0.28147,-0.562944 -0.0281,-0.557609 0.4146,-0.133122 0.56295,-0.281471 0.0663,-0.06634 -0.042,-0.197551 0,-0.281472 0.0593,-0.118679 0.18764,-0.187648 0.28147,-0.281472 0.18765,-0.187647 0.42641,-0.335386 0.56294,-0.56294 0.15265,-0.254418 0.11689,-0.597549 0.28147,-0.844415 0.052,-0.07807 0.18765,0 0.28147,0 0.0938,-0.09382 0.22214,-0.162793 0.28147,-0.281472 0.042,-0.08392 -0.052,-0.203407 0,-0.281472 0.36087,-0.541292 1.0465,-0.866068 1.40736,-1.407358 0.0521,-0.07807 -0.0663,-0.21513 0,-0.281472 0.0663,-0.06634 0.21513,0.06634 0.28147,0 0.13269,-0.132688 -0.13268,-0.430257 0,-0.562943 0.14835,-0.14835 0.4146,-0.133123 0.56295,-0.281472 0.0663,-0.06634 -0.042,-0.197554 0,-0.281472 0.16888,-0.337767 0.67553,-0.50665 0.84441,-0.844415 0.13269,-0.265374 0.1169,-0.597548 0.28147,-0.844415 0.22081,-0.331208 0.60558,-0.525965 0.84442,-0.844415 0.0563,-0.07506 -0.042,-0.197554 0,-0.281472 0.0593,-0.118678 0.22213,-0.162792 0.28147,-0.281471 0.042,-0.08392 0,-0.187648 0,-0.281472 v -0.281472 c 0,-0.63591 -0.0839,0.08392 0.56294,-0.562943 0.0663,-0.06634 -0.0184,-0.189468 0,-0.281472 0.0759,-0.379333 0.10847,-0.77988 0.28148,-1.125886 0.51864,-1.037291 0.8366,-0.820973 1.12588,-1.68883 0.0645,-0.193604 -0.083,-0.678339 0,-0.844416 0.0593,-0.118678 0.22213,-0.162792 0.28147,-0.281471 0.042,-0.08392 0,-0.187648 0,-0.281472 0.0938,-0.09382 0.22214,-0.16279 0.28148,-0.281469 0.042,-0.08392 -0.0663,-0.21513 0,-0.281472 0.0663,-0.06634 0.21512,0.06634 0.28147,0 0.0575,-0.05754 -0.0558,-0.732813 0,-0.844415 0.0593,-0.118679 0.2132,-0.167695 0.28147,-0.281471 0.21588,-0.359799 0.34706,-0.766091 0.56294,-1.125887 0.0683,-0.113779 0.23951,-0.155594 0.28147,-0.281472 0.0558,-0.16738 0,-1.356354 0,-1.68883 v -0.281472 c 0,-0.09382 -0.0663,-0.215127 0,-0.281471 0.0663,-0.06634 0.21513,0.06634 0.28148,0 0.0663,-0.06634 0,-0.187648 0,-0.281472 v -0.281472 c 0,-0.184957 -0.0529,-0.685609 0,-0.844415 0.0663,-0.19903 0.21512,-0.363913 0.28147,-0.562943 0.0593,-0.178017 -0.0593,-0.384924 0,-0.562943 0.0663,-0.199031 0.21513,-0.363914 0.28147,-0.562944 0.0529,-0.158805 0,-0.659458 0,-0.844415 v -0.281471 0.562943 -0.844415 c 0,-0.09382 -0.0663,-0.215128 0,-0.281472 0.14835,-0.148349 0.41459,-0.133122 0.56294,-0.281472 0.0663,-0.06634 0,-0.187647 0,-0.281471 v -1.68883 -1.125884 c 0,-0.09382 -0.0938,-0.281472 0,-0.281472 0.0938,0 0,0.187648 0,0.281472"
         style="fill:none;stroke:none;stroke-width:0.26458332px;stroke-linecap:butt;stroke-linejoin:miter;stroke-opacity:1" />
      <path
         sodipodi:nodetypes="cccccccccsccccccccccccscccccccccsccccsccscccccccccsccccccccccccccccccc"
         inkscape:connector-curvature="0"
         id="path1058"
         d="m 128.18185,119.81437 c 1.0061,1.34151 0.4362,0.83156 1.62228,1.62229 0.27038,0.18025 0.52899,0.37954 0.81114,0.54074 0.34996,0.19998 0.74615,0.3172 1.08152,0.54077 0.2121,0.14138 0.33683,0.38782 0.54076,0.54077 0.16124,0.12098 0.39826,0.12799 0.54076,0.27038 0.0637,0.0637 -0.0749,0.22038 0,0.27038 3.59713,1.50028 15.47054,6.7691 20.2785,6.7595 h 3.78534 2.16302 c 0.0921,0 0.9352,0.0488 1.08154,0 0.1912,-0.0637 0.37306,-0.1586 0.54076,-0.27038 0.10616,-0.0706 0.14935,-0.23007 0.27038,-0.27038 0.171,-0.0569 0.39078,0.0999 0.54077,0 0.16767,-0.11173 0.0901,-0.45062 0.27037,-0.54076 0.24183,-0.12098 0.55464,0.0854 0.81114,0 0.0854,-0.0285 -0.0637,-0.20665 0,-0.27038 0.0637,-0.0637 0.20665,0.0637 0.27038,0 0.0637,-0.0637 -0.0637,-0.20665 0,-0.27038 2.7e-4,-2.7e-4 0.80993,4e-4 0.81114,0 0.12098,-0.0403 0.15636,-0.21338 0.2704,-0.27038 0.12033,-0.0601 0.95784,0.0411 1.0815,0 0.12098,-0.0403 0.15637,-0.2134 0.27038,-0.27038 0.0807,-0.0403 0.18977,0.0403 0.27038,0 0.11397,-0.0569 0.16424,-0.19967 0.27038,-0.2704 0.16768,-0.11173 0.36052,-0.18023 0.54076,-0.27036 0.18026,-0.0901 0.34525,-0.22149 0.54077,-0.27038 0.17486,-0.0437 0.37954,0.0807 0.54076,0 0.0807,-0.0403 -0.0637,-0.20665 0,-0.27038 0.1425,-0.14234 0.37307,-0.1586 0.54075,-0.27038 0.10616,-0.0706 0.15636,-0.21338 0.27038,-0.27038 0.0807,-0.0403 0.18488,0.0285 0.27038,0 1.95847,-0.65283 -0.42627,0.0779 0.81116,-0.54076 0.0807,-0.0403 0.18488,0.0285 0.27038,0 0.38235,-0.12735 0.69914,-0.4133 1.0815,-0.54076 0.0854,-0.0285 0.18487,0.0285 0.27037,0 1.9585,-0.65281 -0.42627,0.0779 0.81116,-0.54077 0.0807,-0.0403 0.18976,0.0403 0.27038,0 0.11397,-0.0569 0.15637,-0.21336 0.27038,-0.27036 0.0807,-0.0403 0.18977,0.0403 0.27038,0 0.32446,-0.16225 0.48668,-0.64893 0.81114,-0.81114 0.0807,-0.0403 0.20664,0.0637 0.27037,0 0.14234,-0.14266 0.12799,-0.39827 0.27038,-0.54077 0.0637,-0.0637 0.18977,0.0403 0.27038,0 0.22802,-0.11397 0.32867,-0.39938 0.54078,-0.54077 0.16766,-0.11173 0.39825,-0.128 0.54075,-0.27038 0.0637,-0.0637 -0.0499,-0.19539 0,-0.27038 0.21211,-0.31815 0.59904,-0.49298 0.81114,-0.81113 0.11174,-0.1677 0.1586,-0.37307 0.27038,-0.54076 0.14139,-0.21212 0.3605,-0.36051 0.54076,-0.54076 0.27038,-0.27039 0.54076,-0.54077 0.81114,-0.81115 0.0901,-0.0901 0.21338,-0.15636 0.27038,-0.27038 0.0403,-0.0807 -0.0403,-0.18978 0,-0.27038 0.20154,-0.40306 0.76287,-0.4925 1.08153,-0.81112 0.1425,-0.14234 0.10266,-0.42898 0.27037,-0.54077 0.14999,-0.0999 0.41331,0.12736 0.54076,0 0.12736,-0.12751 -0.0807,-0.37955 0,-0.54077 0.0403,-0.0807 0.20665,0.0637 0.27038,0 0.0637,-0.0637 -0.0637,-0.20666 0,-0.27038 0.14234,-0.14266 0.39826,-0.12799 0.54076,-0.27038 0.0637,-0.0637 -0.0637,-0.20664 0,-0.27038 0.14265,-0.14234 0.39826,-0.12783 0.54076,-0.27039 0.0637,-0.0637 -0.0403,-0.18977 0,-0.27036 0.0569,-0.11396 0.21338,-0.15636 0.27038,-0.27038 0.0403,-0.0807 -0.05,-0.19539 0,-0.27039 0.14138,-0.21211 0.3878,-0.33683 0.54078,-0.54076 0.19758,-0.26345 0.20995,-0.64576 0.54076,-0.81114 0.0807,-0.0403 0.20664,0.0637 0.27036,0 0.12751,-0.12735 -0.0807,-0.37953 0,-0.54076 0.13756,-0.27526 0.59161,-0.43098 0.81114,-0.54078"
         style="fill:none;stroke:none;stroke-width:0.44071966px;stroke-linecap:butt;stroke-linejoin:miter;stroke-opacity:1" />
      <g
         id="g1543"
         transform="matrix(-0.92132837,0.14077599,0.14119543,0.92181802,340.7471,16.238592)" />
      <g
         transform="rotate(50.207612,123.75182,85.153108)"
         id="g1056">
        <path
           inkscape:connector-curvature="0"
           d="m 128.1619,129.93652 c -2.9053,0.73233 -2.77915,1.31836 -4.52821,-1.09161 -0.76847,-1.04258 -0.80031,-1.15775 -0.59713,-2.55307 0.15078,-1.08791 -0.17515,-1.99041 -0.86049,-2.33312 -1.41177,-0.70592 -2.74339,1.46837 -1.49741,2.50626 0.31676,0.40158 1.11012,1.05154 1.11012,1.05154 0.43381,0.0275 0.39889,0.75169 0.66619,1.07545 1.00196,1.21354 1.85055,3.19516 3.46575,3.19117 0.92935,-0.002 3.11578,-0.26041 2.24118,-1.84662 z m 23.09627,-22.38807 c 28.36728,-1.08769 11.67892,27.7767 -6.29905,26.9731 2.83354,0.72251 2.21675,-0.52321 1.08047,-1.34446 -3.58659,-2.4698 -8.12662,1.13073 -7.34289,5.82416 0.81306,4.86144 6.52213,6.59798 8.96911,2.73544 1.39229,-2.18052 1.32865,-6.7664 -0.0636,-5.36139 0.30058,1.52062 0.7702,3.80813 -0.41175,5.22294 -2.74321,3.28369 -4.22505,1.40347 -6.04629,0.65184 -2.65478,-1.09563 -1.94368,-6.15979 -1.28169,-7.22894 3.45256,-4.04453 7.49168,-0.008 5.0966,-0.49959 -6.03723,-2.04886 -6.2014,6.31381 -1.79827,7.47848 3.59382,1.06657 4.93019,-3.78411 3.7178,-5.95052 26.93946,-2.94424 28.07587,-35.44084 5.41188,-30.2365 -2.24547,0.37415 -2.55917,0.2804 -3.37508,-1.03841 -1.88356,-2.7192 -4.61612,-3.88426 -7.19301,-4.72418 -2.08633,-0.691544 -5.55489,-1.055235 -5.46567,-0.577749 0.0362,0.216533 0.0463,0.392967 0.0328,0.386118 -0.37332,0.07502 -4.18267,0.08191 -4.0338,0.0035 0.11493,-0.05084 0.77815,-0.12497 1.49091,-0.156206 0.70321,-0.02648 1.36246,-0.112374 1.45109,-0.203195 0.0888,-0.09086 -0.69684,-0.104881 -1.73922,-0.03107 -6.46798,0.409039 -13.79685,3.138072 -15.93005,5.931172 -1.15791,1.49516 -1.68961,4.45772 -1.21674,6.67811 0.0945,0.46216 0.12751,0.0725 0.0708,-0.88438 -0.10743,-1.83936 -0.0809,-2.09664 0.4712,-3.84052 0.35331,-1.11292 1.08247,-2.35353 1.31963,-2.22591 0.0686,0.0343 -0.0893,0.29802 -0.34689,0.59307 -1.09861,1.23623 -1.59111,4.45289 -1.01977,6.66841 0.20522,0.788 0.18733,1.15781 -0.051,1.44435 -0.18387,0.22366 -0.27708,0.60093 -0.20509,0.85338 0.0623,0.2567 0.16542,0.74101 0.21029,1.07008 0.22108,1.42719 2.0489,1.75501 2.51508,0.43702 0.3415,-0.96551 -0.97831,-3.1856 -1.7147,-2.85943 -0.58343,0.25837 -0.62445,-4.11782 -0.0607,-5.71165 2.12486,-6.00769 18.16527,-9.286482 25.94137,-5.29876 4.23233,2.1703 2.57334,3.05869 4.54513,4.65738 0.75874,0.6152 3.27104,0.56488 3.27104,0.56488 z m -27.38886,-5.72996 c 0.83906,-0.31991 0.2298,-0.01 -1.34814,0.68758 -1.57803,0.6989 -2.25988,0.96215 -1.52093,0.58317 0.73893,-0.37899 2.03002,-0.95081 2.86907,-1.27075 z m 16.8428,35.95411 c 0.0346,-2.74231 3.19614,-4.06511 4.92973,-2.08 2.02623,2.32079 0.6953,6.03803 -2.06813,5.80148 -1.77936,-0.16834 -2.89815,-1.61151 -2.8616,-3.72148 z"
           id="path879"
           sodipodi:nodetypes="cccsccaacccccccsscccccccccccccccccccccccssscscsscscccc"
           style="fill:#ffffff;fill-opacity:1;stroke:none;stroke-width:0.0111178" />
        <g
           style="fill:#ffffff;stroke:none"
           id="g1409"
           transform="matrix(0.00929083,-0.01260061,-0.01069592,-0.00788644,120.41045,233.01791)">
          <g
             id="g847"
             transform="matrix(1.0020086,-0.35760866,0.32486922,1.2633367,4625.047,2633.5162)"
             style="fill:#ffffff;fill-opacity:1;stroke:none">
            <path
               id="path837"
               d="m 1153,2171 c -69,-32 -123,-137 -123,-240 0,-68 26,-159 62,-214 94,-146 261,-140 327,12 71,166 1,386 -141,445 -48,21 -74,20 -125,-3 z"
               inkscape:connector-curvature="0"
               style="fill:#ffffff;fill-opacity:1" />
            <path
               id="path839"
               d="m 1720,2174 c -141,-61 -209,-281 -139,-445 66,-152 233,-158 327,-12 101,157 72,385 -58,451 -51,26 -81,27 -130,6 z"
               inkscape:connector-curvature="0"
               style="fill:#ffffff;fill-opacity:1" />
            <path
               id="path841"
               d="m 845,1720 c -30,-12 -71,-61 -84,-99 -37,-110 23,-268 125,-327 80,-47 165,-20 200,63 20,46 17,144 -5,203 -46,120 -155,194 -236,160 z"
               inkscape:connector-curvature="0"
               style="fill:#ffffff;fill-opacity:1" />
            <path
               id="path843"
               d="m 2062,1719 c -49,-14 -117,-90 -141,-155 -54,-144 -6,-279 103,-291 84,-10 171,65 210,180 55,162 -39,306 -172,266 z"
               inkscape:connector-curvature="0"
               style="fill:#ffffff;fill-opacity:1" />
            <path
               id="path845"
               d="m 1397,1595 c -78,-29 -122,-72 -178,-173 -37,-67 -81,-128 -144,-197 -51,-55 -97,-110 -103,-122 -14,-26 -16,-102 -2,-137 16,-42 78,-103 128,-124 76,-33 125,-35 270,-13 l 132,21 136,-21 c 147,-22 188,-20 266,13 50,21 112,81 128,124 14,35 12,111 -1,137 -7,12 -53,67 -104,122 -63,68 -106,127 -136,184 -53,100 -106,155 -177,181 -62,23 -158,25 -215,5 z"
               inkscape:connector-curvature="0"
               style="fill:#ffffff;fill-opacity:1" />
          </g>
        </g>
        <flowRoot
           xml:space="preserve"
           id="flowRoot888"
           style="font-style:normal;font-variant:normal;font-weight:normal;font-stretch:normal;font-size:13.33333302px;line-height:1.25;font-family:Waree;-inkscape-font-specification:Waree;text-align:center;letter-spacing:0px;word-spacing:0px;text-anchor:middle;fill:#ffffff;fill-opacity:1;stroke:none;"
           transform="matrix(0.08097754,-0.09721852,0.09721852,0.08097754,68.06002,92.84978)"><flowRegion
             id="flowRegion890"
             style="fill:#ffffff;"><rect
               id="rect892"
               width="14.984342"
               height="17.981211"
               x="134.85907"
               y="-171.29082"
               style="fill:#ffffff;" /></flowRegion><flowPara
             id="flowPara894" /></flowRoot>      </g>
    </g>
    <flowRoot
       xml:space="preserve"
       id="flowRoot1346"
       style="font-style:normal;font-variant:normal;font-weight:normal;font-stretch:normal;font-size:20px;line-height:1.25;font-family:'212 Queenie Sans';-inkscape-font-specification:'212 Queenie Sans, Normal';font-variant-ligatures:normal;font-variant-caps:normal;font-variant-numeric:normal;font-feature-settings:normal;text-align:start;letter-spacing:0px;word-spacing:0px;writing-mode:lr-tb;text-anchor:start;fill:#000000;fill-opacity:1;stroke:none"><flowRegion
         id="flowRegion1348"><rect
           id="rect1350"
           width="222.89122"
           height="209.93242"
           x="614.2467"
           y="34.845116" /></flowRegion><flowPara
         id="flowPara1352" /></flowRoot>    <flowRoot
       xml:space="preserve"
       id="flowRoot1354"
       style="font-style:normal;font-variant:normal;font-weight:normal;font-stretch:normal;font-size:20px;line-height:1.25;font-family:'212 Queenie Sans';-inkscape-font-specification:'212 Queenie Sans, Normal';font-variant-ligatures:normal;font-variant-caps:normal;font-variant-numeric:normal;font-feature-settings:normal;text-align:start;letter-spacing:0px;word-spacing:0px;writing-mode:lr-tb;text-anchor:start;fill:#000000;fill-opacity:1;stroke:none"><flowRegion
         id="flowRegion1356"><rect
           id="rect1358"
           width="257.448"
           height="270.40677"
           x="580.55383"
           y="22.750242" /></flowRegion><flowPara
         id="flowPara1360" /></flowRoot>    <flowRoot
       xml:space="preserve"
       id="flowRoot1362"
       style="font-style:normal;font-variant:normal;font-weight:normal;font-stretch:normal;font-size:20px;line-height:1.25;font-family:'212 Queenie Sans';-inkscape-font-specification:'212 Queenie Sans, Normal';font-variant-ligatures:normal;font-variant-caps:normal;font-variant-numeric:normal;font-feature-settings:normal;text-align:start;letter-spacing:0px;word-spacing:0px;writing-mode:lr-tb;text-anchor:start;fill:#000000;fill-opacity:1;stroke:none"><flowRegion
         id="flowRegion1364"><rect
           id="rect1366"
           width="199.56538"
           height="184.01485"
           x="572.77856"
           y="19.294565" /></flowRegion><flowPara
         id="flowPara1368" /></flowRoot>  </g>
</svg>
