<?xml version="1.0" encoding="UTF-8" standalone="no"?>
<svg
   xmlns:dc="http://purl.org/dc/elements/1.1/"
   xmlns:cc="http://creativecommons.org/ns#"
   xmlns:rdf="http://www.w3.org/1999/02/22-rdf-syntax-ns#"
   xmlns:svg="http://www.w3.org/2000/svg"
   xmlns="http://www.w3.org/2000/svg"
   xmlns:sodipodi="http://sodipodi.sourceforge.net/DTD/sodipodi-0.dtd"
   xmlns:inkscape="http://www.inkscape.org/namespaces/inkscape"
   width="512"
   height="512"
   viewBox="0 0 135.46666 135.46667"
   version="1.1"
   id="svg6670"
   sodipodi:docname="-icone chronovet carreÌ paiement securise  nouveau violet.svg"
   inkscape:version="1.0.2 (e86c8708, 2021-01-15)"
   inkscape:export-filename="/Users/floorent/espace-de-travail/projects/atlanticvet.fr/site/static/images/icons/cb.png"
   inkscape:export-xdpi="247"
   inkscape:export-ydpi="247">
  <defs
     id="defs6664" />
  <sodipodi:namedview
     id="base"
     pagecolor="#ffffff"
     bordercolor="#666666"
     borderopacity="1.0"
     inkscape:pageopacity="0.0"
     inkscape:pageshadow="2"
     inkscape:zoom="0.35"
     inkscape:cx="436.1925"
     inkscape:cy="823.0109"
     inkscape:document-units="mm"
     inkscape:current-layer="layer1"
     showgrid="false"
     inkscape:window-width="1434"
     inkscape:window-height="847"
     inkscape:window-x="0"
     inkscape:window-y="25"
     inkscape:window-maximized="1"
     inkscape:document-rotation="0"
     units="px" />
  <metadata
     id="metadata6667">
    <rdf:RDF>
      <cc:Work
         rdf:about="">
        <dc:format>image/svg+xml</dc:format>
        <dc:type
           rdf:resource="http://purl.org/dc/dcmitype/StillImage" />
        <dc:title></dc:title>
      </cc:Work>
    </rdf:RDF>
  </metadata>
  <g
     inkscape:label="Calque 1"
     inkscape:groupmode="layer"
     id="layer1">
    <path
       id="path3334-8"
       d="M 22.750148,4.6923703 C 16.690844,6.4236107 11.881865,10.655501 8.034691,17.484264 5.9187332,21.331436 5.9187332,21.619982 5.9187332,65.093119 v 43.761671 l 2.4044765,4.7128 c 2.6930213,5.1937 6.3478493,8.75236 12.0224613,11.25301 3.558628,1.63506 7.309628,1.82741 46.550865,1.82741 30.77746,0 43.761724,-0.28854 46.647104,-1.15415 5.28988,-1.53887 13.27276,-9.52176 14.81164,-14.81165 0.86563,-2.88537 1.15415,-15.773439 1.15415,-46.166154 0,-40.395426 -0.0963,-42.415185 -2.01976,-46.550903 C 125.08516,12.67526 121.52654,8.8280873 116.52519,6.1350664 112.77418,4.0191086 111.71624,4.0191086 69.397213,3.8267628 42.466953,3.7305388 24.866104,4.019211 22.750148,4.6923703 Z"
       inkscape:connector-curvature="0"
       style="fill:#800080;fill-opacity:0.819608;stroke:none;stroke-width:0.0961796;stroke-opacity:1" />
    <g
       id="g8047-3-9"
       transform="matrix(1.7318179,0,0,1.7318179,-7079.3883,-59.349065)"
       style="fill:#ffffff">
      <g
         style="fill:#ffffff;stroke:none"
         transform="matrix(0.03527778,0,0,-0.03527778,4075.5095,114.69445)"
         id="g8031-8-6">
        <path
           inkscape:connector-curvature="0"
           d="m 799,1777 c -69,-46 -69,-46 -69,-491 0,-386 1,-399 21,-436 43,-77 27,-75 547,-78 l 462,-3 v -67 c 0,-37 4,-73 8,-80 7,-9 58,-12 223,-10 l 214,3 3,155 c 2,126 0,157 -12,165 -8,6 -16,32 -17,60 -3,41 0,50 14,53 16,3 17,30 17,336 0,323 -1,334 -21,360 -46,58 -22,56 -717,56 H 833 Z m 1339,-62 25,-30 -683,-3 c -376,-1 -685,0 -688,3 -7,7 30,46 53,56 11,4 301,7 643,6 l 624,-2 z m 22,-445 v -171 l -32,37 c -41,46 -83,64 -149,64 -107,0 -177,-71 -187,-188 -3,-37 -11,-73 -19,-80 -7,-7 -13,-33 -13,-58 v -44 h -455 c -502,0 -492,-1 -514,62 -7,19 -11,131 -11,289 v 259 h 690 690 z m -121,-148 c 46,-25 72,-75 69,-132 l -3,-45 -122,-3 -123,-3 v 53 c 0,64 27,113 73,133 43,19 66,18 106,-3 z"
           id="path8025-6-2"
           style="fill:#ffffff" />
        <path
           inkscape:connector-curvature="0"
           d="m 822,1343 3,-38 h 380 380 l 3,38 3,37 H 1205 819 Z"
           id="path8027-0-3"
           style="fill:#ffffff" />
        <path
           inkscape:connector-curvature="0"
           d="m 830,1070 v -40 h 185 185 v 40 40 H 1015 830 Z"
           id="path8029-2-5"
           style="fill:#ffffff" />
      </g>
    </g>
  </g>
</svg>
