<?xml version="1.0" encoding="UTF-8" standalone="no"?>
<svg
   xmlns:dc="http://purl.org/dc/elements/1.1/"
   xmlns:cc="http://creativecommons.org/ns#"
   xmlns:rdf="http://www.w3.org/1999/02/22-rdf-syntax-ns#"
   xmlns:svg="http://www.w3.org/2000/svg"
   xmlns="http://www.w3.org/2000/svg"
   xmlns:sodipodi="http://sodipodi.sourceforge.net/DTD/sodipodi-0.dtd"
   xmlns:inkscape="http://www.inkscape.org/namespaces/inkscape"
   width="256"
   height="256"
   viewBox="0 0 67.733332 67.733335"
   version="1.1"
   id="svg6670"
   sodipodi:docname="-icone chronovet carreÌ paiement securise  nouveau violet.svg"
   inkscape:version="1.0.2 (e86c8708, 2021-01-15)">
  <defs
     id="defs6664" />
  <sodipodi:namedview
     id="base"
     pagecolor="#ffffff"
     bordercolor="#666666"
     borderopacity="1.0"
     inkscape:pageopacity="0.0"
     inkscape:pageshadow="2"
     inkscape:zoom="0.35"
     inkscape:cx="436.1925"
     inkscape:cy="823.0109"
     inkscape:document-units="mm"
     inkscape:current-layer="layer1"
     showgrid="false"
     inkscape:window-width="1434"
     inkscape:window-height="847"
     inkscape:window-x="0"
     inkscape:window-y="25"
     inkscape:window-maximized="1"
     inkscape:document-rotation="0"
     units="px" />
  <metadata
     id="metadata6667">
    <rdf:RDF>
      <cc:Work
         rdf:about="">
        <dc:format>image/svg+xml</dc:format>
        <dc:type
           rdf:resource="http://purl.org/dc/dcmitype/StillImage" />
        <dc:title></dc:title>
      </cc:Work>
    </rdf:RDF>
  </metadata>
  <g
     inkscape:label="Calque 1"
     inkscape:groupmode="layer"
     id="layer1">
    <path
       id="path3334-8"
       d="M 10.97797,4.241018 C 8.0136471,5.0879727 5.6610062,7.1582912 3.7788985,10.499048 2.743733,12.381155 2.743733,12.522317 2.743733,33.790176 v 21.409016 l 1.1763142,2.305591 c 1.3174754,2.540852 3.105484,4.281811 5.8816085,5.505175 1.7409463,0.799905 3.5760043,0.894004 22.7735403,0.894004 15.0569,0 21.409029,-0.141161 22.820616,-0.564632 2.587902,-0.752843 6.493279,-4.65822 7.246121,-7.246134 0.423485,-1.411574 0.564632,-7.716654 0.564632,-22.58533 0,-19.762186 -0.04707,-20.750289 -0.988101,-22.773558 C 61.042134,8.1463946 59.301189,6.2642869 56.854436,4.9468115 55.019378,3.911646 54.50181,3.911646 33.798573,3.8175469 20.623794,3.7704723 12.013135,3.9116961 10.97797,4.241018 Z"
       inkscape:connector-curvature="0"
       style="fill:#800080;fill-opacity:0.819608;stroke:none;stroke-width:0.0470528;stroke-opacity:1" />
    <g
       id="g8047-3-9"
       transform="matrix(0.84723719,0,0,0.84723719,-3463.519,-27.089231)"
       style="fill:#ffffff">
      <g
         style="fill:#ffffff;stroke:none"
         transform="matrix(0.03527778,0,0,-0.03527778,4075.5095,114.69445)"
         id="g8031-8-6">
        <path
           inkscape:connector-curvature="0"
           d="m 799,1777 c -69,-46 -69,-46 -69,-491 0,-386 1,-399 21,-436 43,-77 27,-75 547,-78 l 462,-3 v -67 c 0,-37 4,-73 8,-80 7,-9 58,-12 223,-10 l 214,3 3,155 c 2,126 0,157 -12,165 -8,6 -16,32 -17,60 -3,41 0,50 14,53 16,3 17,30 17,336 0,323 -1,334 -21,360 -46,58 -22,56 -717,56 H 833 Z m 1339,-62 25,-30 -683,-3 c -376,-1 -685,0 -688,3 -7,7 30,46 53,56 11,4 301,7 643,6 l 624,-2 z m 22,-445 v -171 l -32,37 c -41,46 -83,64 -149,64 -107,0 -177,-71 -187,-188 -3,-37 -11,-73 -19,-80 -7,-7 -13,-33 -13,-58 v -44 h -455 c -502,0 -492,-1 -514,62 -7,19 -11,131 -11,289 v 259 h 690 690 z m -121,-148 c 46,-25 72,-75 69,-132 l -3,-45 -122,-3 -123,-3 v 53 c 0,64 27,113 73,133 43,19 66,18 106,-3 z"
           id="path8025-6-2"
           style="fill:#ffffff" />
        <path
           inkscape:connector-curvature="0"
           d="m 822,1343 3,-38 h 380 380 l 3,38 3,37 H 1205 819 Z"
           id="path8027-0-3"
           style="fill:#ffffff" />
        <path
           inkscape:connector-curvature="0"
           d="m 830,1070 v -40 h 185 185 v 40 40 H 1015 830 Z"
           id="path8029-2-5"
           style="fill:#ffffff" />
      </g>
    </g>
  </g>
</svg>
