<?xml version="1.0" encoding="UTF-8" standalone="no"?>
<svg
   xmlns:dc="http://purl.org/dc/elements/1.1/"
   xmlns:cc="http://creativecommons.org/ns#"
   xmlns:rdf="http://www.w3.org/1999/02/22-rdf-syntax-ns#"
   xmlns:svg="http://www.w3.org/2000/svg"
   xmlns="http://www.w3.org/2000/svg"
   xmlns:sodipodi="http://sodipodi.sourceforge.net/DTD/sodipodi-0.dtd"
   xmlns:inkscape="http://www.inkscape.org/namespaces/inkscape"
   width="256"
   height="256"
   viewBox="0 0 67.733332 67.733335"
   version="1.1"
   id="svg6670"
   sodipodi:docname="-icone chronovet carreÌ commande en ligne nouveau violet.svg"
   inkscape:version="1.0.2 (e86c8708, 2021-01-15)">
  <defs
     id="defs6664" />
  <sodipodi:namedview
     id="base"
     pagecolor="#ffffff"
     bordercolor="#666666"
     borderopacity="1.0"
     inkscape:pageopacity="0.0"
     inkscape:pageshadow="2"
     inkscape:zoom="0.35"
     inkscape:cx="436.1925"
     inkscape:cy="823.0109"
     inkscape:document-units="mm"
     inkscape:current-layer="layer1"
     showgrid="false"
     inkscape:window-width="1434"
     inkscape:window-height="847"
     inkscape:window-x="0"
     inkscape:window-y="25"
     inkscape:window-maximized="1"
     inkscape:document-rotation="0"
     units="px" />
  <metadata
     id="metadata6667">
    <rdf:RDF>
      <cc:Work
         rdf:about="">
        <dc:format>image/svg+xml</dc:format>
        <dc:type
           rdf:resource="http://purl.org/dc/dcmitype/StillImage" />
        <dc:title></dc:title>
      </cc:Work>
    </rdf:RDF>
  </metadata>
  <g
     inkscape:label="Calque 1"
     inkscape:groupmode="layer"
     id="layer1">
    <path
       style="fill:#800080;fill-opacity:0.819608;stroke:none;stroke-width:0.045869;stroke-opacity:1"
       inkscape:connector-curvature="0"
       d="M 12.282714,5.2128798 C 9.3929689,6.0385265 7.0995168,8.0567589 5.26476,11.313467 4.2556377,13.148224 4.2556377,13.285834 4.2556377,34.018622 V 54.88902 l 1.1467199,2.247586 c 1.2843298,2.476928 3.0273548,4.174087 5.7336364,5.366673 1.697147,0.779781 3.486038,0.871512 22.200594,0.871512 14.678091,0 20.87041,-0.137609 22.246484,-0.550427 2.522794,-0.733902 6.329918,-4.541026 7.063819,-7.063832 0.412831,-1.376061 0.550427,-7.522515 0.550427,-22.017117 0,-19.264995 -0.04589,-20.22824 -0.963242,-22.200606 C 61.087341,9.0200032 59.390195,7.1852464 57.004999,5.9009167 55.216108,4.8917943 54.711561,4.8917943 34.529186,4.8000626 21.685864,4.7541723 13.291837,4.8918432 12.282714,5.2128798 Z"
       id="path3334-0-6" />
    <g
       id="g6252"
       transform="matrix(0.82311937,0,0,0.82311937,197.59173,-618.8093)"
       style="fill:#ffffff">
      <g
         style="fill:#ffffff;stroke:none"
         transform="matrix(0.01763889,0,0,-0.01763889,-241.70614,825.41037)"
         id="g6238">
        <path
           inkscape:connector-curvature="0"
           d="M 880,3123 C 722,3038 731,3106 724,1922 l -5,-1055 45,-66 c 103,-151 101,-150 667,-157 280,-3 509,-12 509,-19 0,-7 -15,-65 -33,-129 l -32,-116 h -135 c -128,0 -186,-27 -145,-68 15,-16 1575,-16 1590,0 41,41 -17,68 -145,68 h -135 l -32,116 c -18,64 -33,122 -33,129 0,7 229,16 509,19 566,7 564,6 667,157 l 45,66 -5,1055 c -7,1184 2,1116 -156,1201 -107,57 -2913,57 -3020,0 z m 2963,-176 c 35,-31 37,-86 37,-910 V 1160 H 2390 900 v 873 c 0,785 3,878 33,910 49,54 2851,58 2910,4 z M 3880,941 C 3880,815 3936,820 2390,820 844,820 900,815 900,941 v 59 H 2390 3880 Z M 2698,491 c 12,-49 22,-94 22,-100 0,-6 -148,-11 -330,-11 -181,0 -330,5 -330,11 0,6 10,51 22,100 l 23,89 h 285 285 z"
           id="path6234"
           style="fill:#ffffff" />
        <path
           inkscape:connector-curvature="0"
           d="m 1373,2707 c -7,-8 -13,-30 -13,-50 0,-38 20,-46 189,-72 92,-15 101,-21 117,-85 42,-162 159,-569 215,-740 54,-168 57,-189 30,-219 -45,-50 -38,-108 19,-161 63,-59 146,-39 186,45 l 26,55 h 329 c 216,0 329,-7 329,-21 0,-32 94,-119 130,-119 102,0 155,137 81,210 l -48,49 -449,-13 c -261,-7 -452,-5 -459,6 -5,10 -17,47 -24,83 l -14,65 h 478 478 l 31,115 c 86,316 121,488 104,504 -10,9 -310,45 -668,81 -357,35 -651,65 -651,67 -1,2 -15,39 -31,83 -29,78 -34,81 -159,104 -150,28 -207,31 -226,13 z m 1052,-381 c 463,-45 555,-60 555,-85 -1,-17 -22,-112 -47,-211 l -46,-180 -452,-5 -453,-6 -44,146 c -97,325 -113,395 -90,395 12,1 272,-24 577,-54 z"
           id="path6236"
           style="fill:#ffffff" />
      </g>
    </g>
  </g>
</svg>
