<?xml version="1.0" encoding="UTF-8" standalone="no"?>
<!-- Created with Inkscape (http://www.inkscape.org/) -->

<svg
   xmlns:dc="http://purl.org/dc/elements/1.1/"
   xmlns:cc="http://creativecommons.org/ns#"
   xmlns:rdf="http://www.w3.org/1999/02/22-rdf-syntax-ns#"
   xmlns:svg="http://www.w3.org/2000/svg"
   xmlns="http://www.w3.org/2000/svg"
   xmlns:sodipodi="http://sodipodi.sourceforge.net/DTD/sodipodi-0.dtd"
   xmlns:inkscape="http://www.inkscape.org/namespaces/inkscape"
   width="210mm"
   height="297mm"
   viewBox="0 0 210 297"
   version="1.1"
   id="svg14364"
   sodipodi:docname="icone consultations médecine violet flash page présentation.svg"
   inkscape:version="0.92.5 (2060ec1f9f, 2020-04-08)">
  <defs
     id="defs14358" />
  <sodipodi:namedview
     id="base"
     pagecolor="#ffffff"
     bordercolor="#666666"
     borderopacity="1.0"
     inkscape:pageopacity="0.0"
     inkscape:pageshadow="2"
     inkscape:zoom="0.35"
     inkscape:cx="-121.42857"
     inkscape:cy="560"
     inkscape:document-units="mm"
     inkscape:current-layer="layer1"
     showgrid="false"
     inkscape:window-width="1920"
     inkscape:window-height="1009"
     inkscape:window-x="-8"
     inkscape:window-y="-8"
     inkscape:window-maximized="1" />
  <metadata
     id="metadata14361">
    <rdf:RDF>
      <cc:Work
         rdf:about="">
        <dc:format>image/svg+xml</dc:format>
        <dc:type
           rdf:resource="http://purl.org/dc/dcmitype/StillImage" />
        <dc:title></dc:title>
      </cc:Work>
    </rdf:RDF>
  </metadata>
  <g
     inkscape:label="Calque 1"
     inkscape:groupmode="layer"
     id="layer1">
    <g
       transform="matrix(0.10191314,0,0,-0.10191314,447.36514,579.65415)"
       style="fill:#000000;stroke:none"
       id="g12305">
      <g
         id="g11958"
         transform="translate(28.867081,14.43354)">
        <g
           style="opacity:1;fill:#800080;fill-opacity:0.81960784;stroke:none;stroke-width:1;stroke-miterlimit:4;stroke-dasharray:none;stroke-opacity:1"
           transform="matrix(5.4463921,0,0,-5.4463921,-4858.2767,5745.254)"
           id="g1721-6-5-5-9">
          <path
             style="opacity:1;fill:#800080;fill-opacity:0.81960784;fill-rule:nonzero;stroke:none;stroke-width:3.77952766;stroke-miterlimit:4;stroke-dasharray:none;stroke-opacity:1"
             d="M 466.50246,416.60291 C 428.53557,412.11186 393.9216,394.51755 367.16058,366.10737 299.2832,294.04701 309.57133,181.30146 389.39294,122.46748 421.24698,98.988876 463.92921,87.634705 503.07146,92.227139 c 35.74745,4.194132 67.5168,18.938941 93.11188,43.215151 34.93114,33.13117 51.962,72.24201 51.88245,119.14636 -0.0452,26.60433 -4.21021,45.39991 -15.20302,68.60597 -9.75801,20.59938 -19.70982,34.52681 -34.93141,48.88607 -15.47098,14.59455 -24.52805,20.75439 -44.05267,29.96084 -17.95961,8.46848 -30.13011,11.92733 -51.12411,14.52941 -16.0362,1.98759 -19.69228,1.99081 -36.25212,0.0319 z"
             id="path1718-5-67-2-2-4"
             inkscape:connector-curvature="0"
             transform="scale(0.26458333)" />
        </g>
        <g
           transform="matrix(0.60372324,0.26010944,-0.26010944,0.60372324,-869.59865,720.54731)"
           id="g11826"
           style="fill:#ffffff"
           inkscape:transform-center-x="35.120796"
           inkscape:transform-center-y="-43.509541" />
      </g>
      <g
         id="g11806"
         transform="matrix(0.10449102,0.04501914,-0.04501914,0.10449102,-4211.2975,5250.079)"
         style="fill:#ffffff;stroke:none">
        <path
           id="path11796"
           d="m 1759,2495 c -288,-222 -154,-627 144,-437 175,111 231,350 107,457 -73,63 -151,57 -251,-20 z"
           inkscape:connector-curvature="0"
           style="fill:#ffffff" />
        <path
           id="path11798"
           d="m 1140,2468 c -129,-117 -154,-298 -56,-402 129,-138 347,47 331,281 -13,197 -132,249 -275,121 z"
           inkscape:connector-curvature="0"
           style="fill:#ffffff" />
        <path
           id="path11800"
           d="m 2210,2057 c -245,-135 -278,-404 -56,-449 165,-33 406,159 406,323 0,111 -228,193 -350,126 z"
           inkscape:connector-curvature="0"
           style="fill:#ffffff" />
        <path
           id="path11802"
           d="m 1460,1861 c -27,-8 -90,-36 -140,-61 -134,-68 -182,-77 -268,-47 -240,83 -432,-45 -432,-289 0,-101 66,-163 249,-236 195,-78 273,-155 351,-349 101,-249 206,-309 389,-219 158,77 204,211 136,402 l -34,97 74,151 c 122,246 57,443 -179,543 -72,30 -75,30 -146,8 z"
           inkscape:connector-curvature="0"
           style="fill:#ffffff" />
        <path
           id="path11804"
           d="m 2190,1402 c -177,-81 -230,-223 -120,-317 75,-65 248,-58 349,14 238,170 43,429 -229,303 z"
           inkscape:connector-curvature="0"
           style="fill:#ffffff" />
      </g>
      <g
         id="g11984"
         transform="matrix(0.21199225,-0.00121946,0.00121946,0.21199225,-4231.3017,5168.7681)"
         style="fill:#ffffff;stroke:none"
         inkscape:transform-center-x="-162.33003"
         inkscape:transform-center-y="-32.41265">
        <path
           id="path11978"
           d="m 1281,1363 c -7,-13 -3,-24 15,-46 39,-47 33,-83 -28,-144 l -52,-53 24,-25 c 13,-14 26,-25 30,-25 4,0 30,23 58,51 48,48 55,51 89,46 20,-4 47,-16 60,-29 22,-21 24,-21 40,-5 16,16 11,24 -97,132 -63,63 -118,115 -122,115 -4,0 -11,-8 -17,-17 z"
           inkscape:connector-curvature="0"
           style="fill:#ffffff" />
        <path
           id="path11980"
           d="m 1050,1129 c -19,-21 -36,-42 -38,-47 -1,-4 22,-32 53,-62 42,-41 52,-57 43,-67 -16,-20 -23,-17 -77,37 -28,28 -55,50 -61,50 -5,0 -28,-18 -49,-39 l -39,-39 54,-53 c 56,-56 63,-69 41,-87 -10,-9 -26,1 -67,43 -30,30 -57,55 -61,55 -3,0 -25,-18 -49,-41 l -43,-41 59,-59 c 54,-55 57,-60 42,-76 -16,-15 -20,-12 -69,40 -29,32 -55,57 -59,57 -3,0 -26,-18 -50,-40 l -44,-40 59,-60 c 56,-57 58,-61 42,-77 -16,-16 -20,-14 -76,41 l -58,58 -27,-25 c -14,-13 -26,-28 -26,-33 0,-13 213,-224 225,-224 6,0 132,121 280,270 l 270,270 -115,115 c -63,63 -117,115 -120,114 -3,0 -21,-18 -40,-40 z"
           inkscape:connector-curvature="0"
           style="fill:#ffffff" />
        <path
           id="path11982"
           d="m 520,577 c 0,-4 7,-34 17,-67 16,-59 16,-61 -5,-83 -12,-13 -19,-27 -15,-31 4,-3 -49,-63 -117,-131 -69,-69 -118,-125 -111,-125 8,0 67,53 132,117 65,64 122,114 126,110 3,-4 17,2 29,14 23,22 24,22 85,5 33,-10 62,-16 65,-14 2,2 -44,51 -101,108 -58,58 -105,101 -105,97 z"
           inkscape:connector-curvature="0"
           style="fill:#ffffff" />
      </g>
      <g
         id="g12036"
         transform="matrix(-0.00200818,-0.05164869,0.05164869,-0.00200818,-4373.554,5523.4338)"
         style="fill:#ffffff;stroke:none"
         inkscape:transform-center-x="17.152913"
         inkscape:transform-center-y="12.475561">
        <path
           id="path12022"
           d="m 3409,4585 c -25,-7 -61,-20 -80,-30 -51,-26 -2101,-2081 -2125,-2130 -29,-62 -27,-224 5,-284 15,-29 240,-261 664,-684 495,-494 651,-644 686,-660 33,-15 68,-21 126,-21 146,-2 68,-71 1224,1085 1155,1156 1085,1077 1085,1224 -1,143 21,117 -691,826 -345,345 -644,634 -663,644 -44,23 -127,45 -160,44 -14,-1 -46,-7 -71,-14 z m 193,-352 c 55,-21 143,-78 184,-120 38,-37 92,-128 117,-193 23,-61 23,-218 0,-286 -37,-111 -122,-215 -221,-271 -241,-135 -543,-45 -664,198 -46,94 -58,138 -58,220 0,65 16,131 48,199 65,137 215,252 357,274 55,8 194,-4 237,-21 z m -728,-723 c 88,-30 191,-111 243,-192 62,-96 83,-163 83,-264 0,-173 -103,-347 -249,-419 -58,-30 -187,-65 -238,-65 -46,0 -150,28 -212,58 -153,74 -261,248 -261,422 0,207 128,387 330,462 67,25 230,24 304,-2 z m 1421,-2 c 154,-32 312,-190 355,-354 22,-89 9,-237 -28,-309 -8,-16 -41,-64 -73,-106 -52,-69 -66,-80 -143,-119 -199,-98 -403,-70 -557,77 -88,84 -140,195 -146,313 -10,187 76,349 240,448 104,63 215,79 352,50 z M 2127,2784 c 28,-8 68,-26 88,-40 20,-13 38,-24 40,-24 17,0 120,-103 139,-139 36,-66 55,-113 65,-160 51,-238 -90,-477 -328,-556 -74,-24 -217,-23 -292,3 -136,48 -220,123 -291,262 -32,63 -33,68 -33,190 0,124 1,125 39,205 105,218 344,326 573,259 z m 1423,6 c 246,-47 422,-300 381,-548 -16,-91 -32,-129 -90,-207 -51,-68 -57,-74 -126,-119 -89,-58 -138,-71 -260,-71 -100,0 -116,3 -181,31 -128,55 -196,122 -257,252 -30,64 -31,73 -32,192 v 125 l 40,79 c 103,204 308,307 525,266 z m -670,-747 c 133,-49 253,-170 305,-308 37,-97 19,-304 -32,-366 -7,-8 -13,-19 -13,-23 0,-5 -15,-27 -32,-49 -83,-106 -168,-155 -314,-184 -82,-16 -89,-16 -157,2 -171,44 -277,125 -341,261 -83,175 -71,314 42,491 57,89 197,179 302,194 75,10 185,2 240,-18 z"
           inkscape:connector-curvature="0"
           style="fill:#ffffff" />
        <path
           id="path12024"
           d="m 3330,4141 c -100,-32 -183,-99 -224,-180 -120,-232 12,-508 267,-561 67,-14 178,0 237,30 49,25 127,96 156,142 80,127 79,291 -4,416 -92,139 -275,204 -432,153 z m 104,-103 c 8,-13 7,-24 -5,-45 -20,-36 -36,-112 -58,-290 -18,-141 -29,-173 -59,-173 -31,0 -80,45 -113,104 -31,56 -34,68 -34,146 0,74 4,91 29,137 27,49 87,102 146,130 34,16 81,12 94,-9 z m 213,-60 c 129,-138 100,-356 -59,-448 -62,-35 -103,-39 -118,-10 -19,35 14,328 47,415 31,83 77,98 130,43 z"
           inkscape:connector-curvature="0"
           style="fill:#ffffff" />
        <path
           id="path12026"
           d="m 2602,3417 c -232,-82 -326,-320 -217,-553 17,-37 109,-125 156,-149 118,-62 286,-56 378,11 128,95 181,192 181,331 0,174 -101,309 -272,364 -78,25 -147,23 -226,-4 z m 102,-96 c 14,-16 15,-23 6,-41 -23,-43 -40,-118 -60,-273 -11,-87 -25,-167 -30,-178 -24,-44 -83,-15 -135,65 -83,131 -56,297 65,389 74,56 126,69 154,38 z m 207,-54 c 69,-58 107,-177 87,-272 -16,-73 -63,-142 -124,-181 -67,-43 -120,-46 -134,-9 -5,14 -7,30 -5,37 3,7 9,58 15,113 15,147 27,216 46,260 32,78 66,94 115,52 z"
           inkscape:connector-curvature="0"
           style="fill:#ffffff" />
        <path
           id="path12028"
           d="m 4085,3411 c -107,-29 -203,-107 -250,-206 -41,-85 -47,-209 -14,-297 29,-80 119,-176 197,-215 51,-25 67,-28 162,-28 94,0 111,3 161,28 86,42 160,119 190,197 19,53 24,83 24,160 -1,86 -4,101 -34,162 -61,127 -174,198 -321,204 -47,2 -98,0 -115,-5 z m 83,-114 c 2,-10 -5,-49 -16,-85 -26,-86 -41,-170 -49,-274 -7,-101 -23,-138 -60,-138 -57,0 -153,145 -153,233 0,103 67,214 159,262 55,29 114,30 119,2 z m 221,-62 c 55,-63 75,-113 75,-190 1,-59 -4,-80 -29,-129 -36,-70 -100,-130 -157,-144 -72,-18 -95,9 -79,94 5,27 12,85 16,129 10,121 36,222 65,253 32,34 72,29 109,-13 z"
           inkscape:connector-curvature="0"
           style="fill:#ffffff" />
        <path
           id="path12030"
           d="m 1910,2696 c -115,-25 -214,-101 -266,-204 -26,-52 -29,-66 -29,-167 0,-101 2,-115 28,-168 62,-125 183,-207 318,-215 131,-8 231,35 322,139 62,71 82,132 81,249 0,86 -4,101 -33,162 -50,104 -138,173 -261,204 -66,16 -88,16 -160,0 z m 63,-107 c 7,-12 4,-36 -11,-85 -20,-65 -35,-147 -47,-256 -13,-117 -17,-139 -31,-153 -28,-27 -60,-18 -103,31 -47,54 -81,137 -81,198 0,106 72,214 173,262 57,27 85,27 100,3 z m 207,-55 c 17,-15 44,-50 60,-78 26,-44 30,-61 30,-129 0,-84 -21,-141 -75,-205 -31,-37 -100,-72 -143,-72 -45,0 -56,26 -44,103 6,34 13,91 17,127 9,90 35,211 51,235 13,18 51,44 66,45 3,0 21,-12 38,-26 z"
           inkscape:connector-curvature="0"
           style="fill:#ffffff" />
        <path
           id="path12032"
           d="m 3374,2690 c -127,-27 -237,-124 -279,-245 -22,-65 -20,-197 4,-265 24,-70 109,-165 182,-205 47,-25 67,-30 151,-33 119,-5 176,11 255,70 104,79 145,166 146,308 0,87 -3,101 -32,162 -61,128 -173,204 -312,213 -41,2 -93,0 -115,-5 z m 71,-111 c 4,-12 -2,-45 -13,-77 -24,-69 -39,-155 -51,-284 -13,-155 -47,-183 -125,-105 -111,112 -113,289 -5,399 80,81 179,115 194,67 z m 228,-72 c 69,-80 88,-206 46,-302 -44,-101 -164,-184 -224,-157 -30,14 -30,15 -5,207 30,237 59,304 124,291 17,-4 43,-21 59,-39 z"
           inkscape:connector-curvature="0"
           style="fill:#ffffff" />
        <path
           id="path12034"
           d="m 2614,1951 c -143,-43 -234,-145 -265,-298 -14,-70 -2,-164 32,-238 23,-51 132,-157 184,-178 179,-73 365,-21 478,133 40,55 60,126 61,215 1,177 -96,311 -265,365 -75,24 -144,24 -225,1 z m 97,-97 c 10,-13 10,-21 0,-47 -19,-48 -47,-188 -64,-320 -15,-120 -26,-147 -58,-147 -28,0 -87,58 -117,114 -22,44 -26,63 -26,137 0,75 3,91 28,133 34,58 61,83 129,118 60,32 89,35 108,12 z m 222,-73 c 45,-50 52,-63 71,-139 15,-57 15,-66 0,-119 -28,-98 -84,-167 -158,-197 -52,-21 -83,-20 -96,4 -12,23 -5,120 20,275 21,124 32,160 62,193 31,33 61,28 101,-17 z"
           inkscape:connector-curvature="0"
           style="fill:#ffffff" />
      </g>
    </g>
  </g>
</svg>
