<?xml version="1.0" encoding="UTF-8" standalone="no"?>
<svg
   xmlns:dc="http://purl.org/dc/elements/1.1/"
   xmlns:cc="http://creativecommons.org/ns#"
   xmlns:rdf="http://www.w3.org/1999/02/22-rdf-syntax-ns#"
   xmlns:svg="http://www.w3.org/2000/svg"
   xmlns="http://www.w3.org/2000/svg"
   xmlns:sodipodi="http://sodipodi.sourceforge.net/DTD/sodipodi-0.dtd"
   xmlns:inkscape="http://www.inkscape.org/namespaces/inkscape"
   width="512"
   height="512"
   viewBox="0 0 135.46666 135.46667"
   version="1.1"
   id="svg6670"
   sodipodi:docname="icone chronovet commande en ligne vieux violet.svg"
   inkscape:version="1.0.2 (e86c8708, 2021-01-15)"
   inkscape:export-filename="/Users/floorent/espace-de-travail/projects/atlanticvet.fr/site/static/images/icons/commande.png"
   inkscape:export-xdpi="247"
   inkscape:export-ydpi="247">
  <defs
     id="defs6664" />
  <sodipodi:namedview
     id="base"
     pagecolor="#ffffff"
     bordercolor="#666666"
     borderopacity="1.0"
     inkscape:pageopacity="0.0"
     inkscape:pageshadow="2"
     inkscape:zoom="0.35"
     inkscape:cx="926.99976"
     inkscape:cy="509.64918"
     inkscape:document-units="mm"
     inkscape:current-layer="layer1"
     showgrid="false"
     inkscape:window-width="1434"
     inkscape:window-height="847"
     inkscape:window-x="0"
     inkscape:window-y="25"
     inkscape:window-maximized="1"
     inkscape:document-rotation="0"
     units="px" />
  <metadata
     id="metadata6667">
    <rdf:RDF>
      <cc:Work
         rdf:about="">
        <dc:format>image/svg+xml</dc:format>
        <dc:type
           rdf:resource="http://purl.org/dc/dcmitype/StillImage" />
        <dc:title></dc:title>
      </cc:Work>
    </rdf:RDF>
  </metadata>
  <g
     inkscape:label="Calque 1"
     inkscape:groupmode="layer"
     id="layer1">
    <g
       id="g7207"
       transform="matrix(2.5340191,0,0,2.5340191,-17.03944,-11.583864)">
      <path
         id="path3334-0-6"
         d="m 16.304842,7.8966071 c -2.3677,0.67649 -4.24683,2.3301199 -5.75013,4.9984899 -0.8268201,1.5033 -0.8268201,1.61605 -0.8268201,18.60337 v 17.10008 l 0.9395601,1.84155 c 1.05231,2.02946 2.48045,3.42001 4.69783,4.39716 1.39055,0.63889 2.85627,0.71406 18.18996,0.71406 12.02643,0 17.10008,-0.11274 18.22756,-0.45098 2.06704,-0.60132 5.18639,-3.72068 5.78772,-5.78773 0.33824,-1.12747 0.45099,-6.16353 0.45099,-18.03964 0,-15.78468 -0.0376,-16.57391 -0.78924,-18.18996 -0.93957,-2.06705 -2.33011,-3.5703499 -4.28441,-4.6226599 -1.46572,-0.82682 -1.87913,-0.82682 -18.41547,-0.90198 -10.52312,-0.0376 -17.40073,0.0752 -18.22755,0.33824 z"
         inkscape:connector-curvature="0"
         style="fill:#800080;fill-opacity:0.819608;stroke:none;stroke-width:0.0375826;stroke-opacity:1" />
      <g
         style="fill:#ffffff"
         transform="matrix(0.67441929,0,0,0.67441929,168.13698,-503.39325)"
         id="g6252">
        <g
           id="g6238"
           transform="matrix(0.01763889,0,0,-0.01763889,-241.70614,825.41037)"
           style="fill:#ffffff;stroke:none">
          <path
             style="fill:#ffffff"
             id="path6234"
             d="M 880,3123 C 722,3038 731,3106 724,1922 l -5,-1055 45,-66 c 103,-151 101,-150 667,-157 280,-3 509,-12 509,-19 0,-7 -15,-65 -33,-129 l -32,-116 h -135 c -128,0 -186,-27 -145,-68 15,-16 1575,-16 1590,0 41,41 -17,68 -145,68 h -135 l -32,116 c -18,64 -33,122 -33,129 0,7 229,16 509,19 566,7 564,6 667,157 l 45,66 -5,1055 c -7,1184 2,1116 -156,1201 -107,57 -2913,57 -3020,0 z m 2963,-176 c 35,-31 37,-86 37,-910 V 1160 H 2390 900 v 873 c 0,785 3,878 33,910 49,54 2851,58 2910,4 z M 3880,941 C 3880,815 3936,820 2390,820 844,820 900,815 900,941 v 59 H 2390 3880 Z M 2698,491 c 12,-49 22,-94 22,-100 0,-6 -148,-11 -330,-11 -181,0 -330,5 -330,11 0,6 10,51 22,100 l 23,89 h 285 285 z"
             inkscape:connector-curvature="0" />
          <path
             style="fill:#ffffff"
             id="path6236"
             d="m 1373,2707 c -7,-8 -13,-30 -13,-50 0,-38 20,-46 189,-72 92,-15 101,-21 117,-85 42,-162 159,-569 215,-740 54,-168 57,-189 30,-219 -45,-50 -38,-108 19,-161 63,-59 146,-39 186,45 l 26,55 h 329 c 216,0 329,-7 329,-21 0,-32 94,-119 130,-119 102,0 155,137 81,210 l -48,49 -449,-13 c -261,-7 -452,-5 -459,6 -5,10 -17,47 -24,83 l -14,65 h 478 478 l 31,115 c 86,316 121,488 104,504 -10,9 -310,45 -668,81 -357,35 -651,65 -651,67 -1,2 -15,39 -31,83 -29,78 -34,81 -159,104 -150,28 -207,31 -226,13 z m 1052,-381 c 463,-45 555,-60 555,-85 -1,-17 -22,-112 -47,-211 l -46,-180 -452,-5 -453,-6 -44,146 c -97,325 -113,395 -90,395 12,1 272,-24 577,-54 z"
             inkscape:connector-curvature="0" />
        </g>
      </g>
    </g>
  </g>
</svg>
