<?xml version="1.0" encoding="UTF-8" standalone="no"?>
<svg
   xmlns:dc="http://purl.org/dc/elements/1.1/"
   xmlns:cc="http://creativecommons.org/ns#"
   xmlns:rdf="http://www.w3.org/1999/02/22-rdf-syntax-ns#"
   xmlns:svg="http://www.w3.org/2000/svg"
   xmlns="http://www.w3.org/2000/svg"
   xmlns:sodipodi="http://sodipodi.sourceforge.net/DTD/sodipodi-0.dtd"
   xmlns:inkscape="http://www.inkscape.org/namespaces/inkscape"
   width="512"
   height="512"
   viewBox="0 0 135.46666 135.46667"
   version="1.1"
   id="svg6670"
   sodipodi:docname="icone chronovet carreÌ retour nouveau violet.svg"
   inkscape:version="1.0.2 (e86c8708, 2021-01-15)"
   inkscape:export-filename="/Users/floorent/espace-de-travail/projects/atlanticvet.fr/site/static/images/icons/retrait.png"
   inkscape:export-xdpi="247"
   inkscape:export-ydpi="247">
  <defs
     id="defs6664" />
  <sodipodi:namedview
     id="base"
     pagecolor="#ffffff"
     bordercolor="#666666"
     borderopacity="1.0"
     inkscape:pageopacity="0.0"
     inkscape:pageshadow="2"
     inkscape:zoom="0.35"
     inkscape:cx="436.1925"
     inkscape:cy="823.0109"
     inkscape:document-units="mm"
     inkscape:current-layer="layer1"
     showgrid="false"
     inkscape:window-width="1434"
     inkscape:window-height="847"
     inkscape:window-x="0"
     inkscape:window-y="25"
     inkscape:window-maximized="1"
     inkscape:document-rotation="0"
     units="px" />
  <metadata
     id="metadata6667">
    <rdf:RDF>
      <cc:Work
         rdf:about="">
        <dc:format>image/svg+xml</dc:format>
        <dc:type
           rdf:resource="http://purl.org/dc/dcmitype/StillImage" />
        <dc:title></dc:title>
      </cc:Work>
    </rdf:RDF>
  </metadata>
  <g
     inkscape:label="Calque 1"
     inkscape:groupmode="layer"
     id="layer1">
    <path
       style="fill:#800080;fill-opacity:0.819608;stroke:none;stroke-width:0.0967715;stroke-opacity:1"
       inkscape:connector-curvature="0"
       d="M 21.26623,6.2097175 C 15.169637,7.9516121 10.33106,12.209545 6.460212,19.080335 4.3312325,22.951183 4.3312325,23.241503 4.3312325,66.982166 v 44.030984 l 2.4192738,4.74181 c 2.7095938,5.22566 6.3869137,8.80621 12.0964467,11.32225 3.580528,1.64513 7.354611,1.83866 46.837341,1.83866 30.966864,0 44.031016,-0.29032 46.934166,-1.16126 5.32243,-1.54834 13.35444,-9.58035 14.90278,-14.9028 0.87096,-2.90312 1.16125,-15.870505 1.16125,-46.450258 0,-40.644011 -0.0968,-42.6762 -2.03218,-46.837368 C 124.231,14.241734 120.65048,10.370886 115.61835,7.661292 111.84427,5.5323126 110.77981,5.5323126 68.200358,5.338783 41.104369,5.2419668 23.395208,5.5324156 21.26623,6.2097175 Z"
       id="path3334-0-6-0" />
    <g
       id="g6324"
       transform="matrix(0.08063976,0,0,-0.08063976,-55.727149,126.98214)"
       style="fill:#ffffff;stroke:none">
      <path
         id="path6316"
         d="m 1360,1237 c -130,-73 -241,-136 -248,-140 -9,-6 -12,-55 -12,-176 V 754 l -34,-12 C 966,705 879,574 878,457 c 0,-101 35,-188 64,-159 8,8 7,24 -3,59 -54,190 71,363 261,363 189,0 313,-177 258,-364 -19,-64 -109,-150 -177,-170 -69,-20 -90,-20 -163,0 -95,27 -110,-17 -16,-45 59,-18 148,-16 209,4 52,18 135,88 171,145 l 15,25 50,-28 c 28,-15 57,-27 64,-27 7,0 125,61 261,136 l 249,137 -3,101 c -3,93 -5,101 -23,101 -18,0 -20,-8 -23,-87 l -3,-88 -42,-24 c -57,-32 -380,-210 -389,-214 -5,-2 -8,104 -8,236 v 240 l 73,39 72,39 3,-68 c 2,-48 7,-71 17,-74 8,-3 41,9 75,27 l 60,34 v 82 82 l 68,40 67,39 5,-71 c 4,-64 7,-72 25,-72 18,0 20,8 23,96 2,69 -1,99 -10,107 -26,21 -490,272 -501,271 -7,0 -118,-60 -247,-132 z m 468,-37 c 116,-63 211,-117 212,-120 0,-6 -122,-71 -134,-70 -4,0 -104,53 -221,118 l -213,117 66,36 c 37,20 70,36 73,35 4,0 101,-53 217,-116 z m -180,-107 215,-117 -31,-14 c -29,-14 -34,-12 -246,104 -188,103 -214,121 -199,131 9,7 23,13 31,13 8,0 111,-53 230,-117 z m -88,-68 c 94,-52 176,-95 181,-95 24,0 2,-18 -61,-52 l -70,-37 -215,117 c -118,64 -214,119 -214,122 -1,3 30,21 67,41 l 67,36 36,-18 c 20,-10 114,-61 209,-114 z M 1393,905 1590,798 V 559 c 0,-132 -2,-239 -5,-239 -2,0 -19,9 -37,20 -32,19 -33,20 -29,92 7,186 -134,338 -314,338 h -55 v 136 136 l 23,-14 c 12,-8 111,-63 220,-123 z m 489,-27 c -3,-40 -9,-57 -25,-70 -12,-10 -24,-18 -27,-18 -3,0 -4,26 -2,57 2,39 9,62 20,71 30,23 37,14 34,-40 z"
         inkscape:connector-curvature="0"
         style="fill:#ffffff" />
      <path
         id="path6318"
         d="m 2074,825 c -4,-9 -2,-21 4,-27 15,-15 44,-1 40,19 -4,23 -36,29 -44,8 z"
         inkscape:connector-curvature="0"
         style="fill:#ffffff" />
      <path
         id="path6320"
         d="m 1065,549 -37,-42 46,-45 c 36,-37 48,-44 58,-34 10,10 10,17 0,32 -6,11 -12,21 -12,22 0,2 41,1 90,-2 98,-5 110,-12 110,-62 0,-48 -26,-63 -106,-59 -41,3 -72,-18 -59,-39 9,-15 132,-12 164,4 33,17 51,54 51,102 0,28 -8,44 -34,70 -34,34 -35,34 -126,34 -81,0 -91,2 -80,15 15,18 6,45 -14,45 -7,0 -30,-19 -51,-41 z"
         inkscape:connector-curvature="0"
         style="fill:#ffffff" />
      <path
         id="path6322"
         d="m 964,245 c -4,-9 -2,-21 4,-27 15,-15 44,-1 40,19 -4,23 -36,29 -44,8 z"
         inkscape:connector-curvature="0"
         style="fill:#ffffff" />
    </g>
  </g>
</svg>
