<?xml version="1.0" encoding="UTF-8" standalone="no"?>
<svg
   xmlns:dc="http://purl.org/dc/elements/1.1/"
   xmlns:cc="http://creativecommons.org/ns#"
   xmlns:rdf="http://www.w3.org/1999/02/22-rdf-syntax-ns#"
   xmlns:svg="http://www.w3.org/2000/svg"
   xmlns="http://www.w3.org/2000/svg"
   xmlns:sodipodi="http://sodipodi.sourceforge.net/DTD/sodipodi-0.dtd"
   xmlns:inkscape="http://www.inkscape.org/namespaces/inkscape"
   width="512"
   height="512"
   viewBox="0 0 135.46666 135.46667"
   version="1.1"
   id="svg6670"
   sodipodi:docname="icone chronovet carreÌ prix web nouveau violet.svg"
   inkscape:version="1.0.2 (e86c8708, 2021-01-15)"
   inkscape:export-filename="/Users/floorent/espace-de-travail/projects/atlanticvet.fr/site/static/images/icons/prix-web.png"
   inkscape:export-xdpi="247"
   inkscape:export-ydpi="247">
  <defs
     id="defs6664" />
  <sodipodi:namedview
     id="base"
     pagecolor="#ffffff"
     bordercolor="#666666"
     borderopacity="1.0"
     inkscape:pageopacity="0.0"
     inkscape:pageshadow="2"
     inkscape:zoom="0.35"
     inkscape:cx="436.1925"
     inkscape:cy="823.0109"
     inkscape:document-units="mm"
     inkscape:current-layer="layer1"
     showgrid="false"
     inkscape:window-width="1434"
     inkscape:window-height="847"
     inkscape:window-x="0"
     inkscape:window-y="25"
     inkscape:window-maximized="1"
     inkscape:document-rotation="0"
     units="px" />
  <metadata
     id="metadata6667">
    <rdf:RDF>
      <cc:Work
         rdf:about="">
        <dc:format>image/svg+xml</dc:format>
        <dc:type
           rdf:resource="http://purl.org/dc/dcmitype/StillImage" />
        <dc:title></dc:title>
      </cc:Work>
    </rdf:RDF>
  </metadata>
  <g
     inkscape:label="Calque 1"
     inkscape:groupmode="layer"
     id="layer1">
    <path
       id="path3334"
       d="m 22.590595,6.943913 c -5.947437,1.6992784 -10.667632,5.853039 -14.4437788,12.55573 -2.076893,3.776146 -2.076893,4.059366 -2.076893,46.729901 v 42.953746 l 2.3600851,4.6258 c 2.6433027,5.09781 6.2306547,8.59076 11.8005017,11.04524 3.492929,1.60488 7.174678,1.79368 45.691445,1.79368 30.209245,0 42.953775,-0.28322 45.785895,-1.13284 5.19221,-1.51046 13.02772,-9.34597 14.53818,-14.5382 0.84965,-2.8321 1.13284,-15.48223 1.13284,-45.313835 0,-39.649643 -0.0944,-41.632114 -1.98246,-45.69148 -2.36012,-5.19223 -5.85305,-8.968379 -10.76206,-11.6116809 C 110.9526,6.2830812 109.91418,6.2830812 68.376463,6.0942864 41.943389,5.9998388 24.667488,6.2831816 22.590595,6.943913 Z"
       inkscape:connector-curvature="0"
       style="fill:#800080;fill-opacity:0.819608;stroke:none;stroke-width:0.0944039;stroke-opacity:1" />
    <g
       id="g3409"
       transform="matrix(2.1656091,0,0,2.4391712,-1004.4885,188.22519)">
      <g
         style="fill:#ffffff;stroke:none"
         transform="matrix(0.01195851,0,0,-0.01311853,456.26181,-10.775076)"
         id="g3390">
        <path
           inkscape:connector-curvature="0"
           d="M 1500,3000 V 1880 h 50 50 v 1120 1120 h -50 -50 z"
           id="path3346"
           style="fill:#ffffff" />
        <path
           inkscape:connector-curvature="0"
           d="m 1700,3000 c 0,-982 4,-1120 30,-1120 26,0 30,138 30,1120 0,982 -4,1120 -30,1120 -26,0 -30,-138 -30,-1120 z"
           id="path3348"
           style="fill:#ffffff" />
        <path
           inkscape:connector-curvature="0"
           d="m 1800,3000 c 0,-733 7,-1120 20,-1120 13,0 20,387 20,1120 0,733 -7,1120 -20,1120 -13,0 -20,-387 -20,-1120 z"
           id="path3350"
           style="fill:#ffffff" />
        <path
           inkscape:connector-curvature="0"
           d="m 1940,3000 c 0,-733 7,-1120 20,-1120 13,0 20,387 20,1120 0,733 -7,1120 -20,1120 -13,0 -20,-387 -20,-1120 z"
           id="path3352"
           style="fill:#ffffff" />
        <path
           inkscape:connector-curvature="0"
           d="m 2040,3000 c 0,-733 7,-1120 20,-1120 13,0 20,387 20,1120 0,733 -7,1120 -20,1120 -13,0 -20,-387 -20,-1120 z"
           id="path3354"
           style="fill:#ffffff" />
        <path
           inkscape:connector-curvature="0"
           d="M 2180,3000 V 1880 h 49 50 v 1120 1120 h -49 -50 z"
           id="path3356"
           style="fill:#ffffff" />
        <path
           inkscape:connector-curvature="0"
           d="m 2309,3000 c 0,-621 3,-876 6,-565 3,311 3,819 0,1130 -3,311 -6,57 -6,-565 z"
           id="path3358"
           style="fill:#ffffff" />
        <path
           inkscape:connector-curvature="0"
           d="m 2361,3000 c 1,-955 5,-1120 29,-1120 24,0 29,165 29,1120 0,969 -4,1120 -29,1120 -25,0 -29,-151 -29,-1120 z"
           id="path3360"
           style="fill:#ffffff" />
        <path
           inkscape:connector-curvature="0"
           d="M 2440,3000 V 1880 h 100 100 v 1120 1120 h -100 -100 z"
           id="path3362"
           style="fill:#ffffff" />
        <path
           inkscape:connector-curvature="0"
           d="m 2700,3000 c 0,-982 4,-1120 30,-1120 26,0 30,138 30,1120 0,982 -4,1120 -30,1120 -26,0 -30,-138 -30,-1120 z"
           id="path3364"
           style="fill:#ffffff" />
        <path
           inkscape:connector-curvature="0"
           d="m 2849,3000 c 0,-621 3,-876 6,-565 3,311 3,819 0,1130 -3,311 -6,57 -6,-565 z"
           id="path3366"
           style="fill:#ffffff" />
        <path
           inkscape:connector-curvature="0"
           d="M 2880,3000 V 1880 h 90 90 v 1120 1120 h -90 -90 z"
           id="path3368"
           style="fill:#ffffff" />
        <path
           inkscape:connector-curvature="0"
           d="M 3160,3000 V 1880 h 50 50 v 1120 1120 h -50 -50 z"
           id="path3370"
           style="fill:#ffffff" />
        <path
           inkscape:connector-curvature="0"
           d="m 3300,3000 c 0,-733 7,-1120 20,-1120 13,0 20,387 20,1120 0,733 -7,1120 -20,1120 -13,0 -20,-387 -20,-1120 z"
           id="path3372"
           style="fill:#ffffff" />
        <path
           inkscape:connector-curvature="0"
           d="M 3582,3000 V 1880 h 49 49 v 1120 1120 h -49 -50 z"
           id="path3374"
           style="fill:#ffffff" />
        <path
           inkscape:connector-curvature="0"
           d="m 3700,3000 c 0,-733 7,-1120 20,-1120 13,0 20,387 20,1120 0,733 -7,1120 -20,1120 -13,0 -20,-387 -20,-1120 z"
           id="path3376"
           style="fill:#ffffff" />
        <path
           inkscape:connector-curvature="0"
           d="m 3789,3000 c 0,-621 3,-876 6,-565 3,311 3,819 0,1130 -3,311 -6,57 -6,-565 z"
           id="path3378"
           style="fill:#ffffff" />
        <path
           inkscape:connector-curvature="0"
           d="m 3940,3000 c 0,-733 7,-1120 20,-1120 13,0 20,387 20,1120 0,733 -7,1120 -20,1120 -13,0 -20,-387 -20,-1120 z"
           id="path3380"
           style="fill:#ffffff" />
        <path
           inkscape:connector-curvature="0"
           d="M 4060,3000 V 1880 h 50 50 v 1120 1120 h -50 -50 z"
           id="path3382"
           style="fill:#ffffff" />
        <path
           inkscape:connector-curvature="0"
           d="m 4209,3000 c 0,-621 3,-876 6,-565 3,311 3,819 0,1130 -3,311 -6,57 -6,-565 z"
           id="path3384"
           style="fill:#ffffff" />
        <path
           inkscape:connector-curvature="0"
           d="m 4260,3000 c 0,-733 7,-1120 20,-1120 13,0 20,387 20,1120 0,733 -7,1120 -20,1120 -13,0 -20,-387 -20,-1120 z"
           id="path3386"
           style="fill:#ffffff" />
        <path
           inkscape:connector-curvature="0"
           d="M 4380,3000 V 1880 h 60 60 v 1120 1120 h -60 -60 z"
           id="path3388"
           style="fill:#ffffff" />
      </g>
    </g>
    <path
       style="opacity:1;fill:#ffffff;fill-opacity:1;fill-rule:nonzero;stroke:none;stroke-width:1.20482;stroke-miterlimit:4;stroke-dasharray:none;stroke-opacity:1"
       d="m 37.21729,82.171975 c -5.164074,-1.583153 -6.146203,-4.899696 -5.167942,-17.453994 0.924331,-11.859858 2.429464,-15.423873 7.434384,-17.610411 3.483861,-1.521687 5.360002,-1.571196 40.324054,-1.063214 36.159204,0.525264 36.716194,0.558597 39.970564,2.391886 4.28767,2.415498 5.24147,6.161074 4.38086,17.206371 -0.83972,10.777804 -2.41881,14.729457 -6.80917,17.04905 -3.31089,1.748713 -3.72997,1.761498 -39.828185,1.209733 C 49.240798,83.469148 40.180609,83.080405 37.21729,82.171975 Z"
       id="path7152"
       inkscape:connector-curvature="0"
       inkscape:transform-center-x="-81.089305"
       inkscape:transform-center-y="-33.270174" />
    <path
       inkscape:connector-curvature="0"
       style="font-style:normal;font-variant:normal;font-weight:normal;font-stretch:normal;font-size:19.1895px;line-height:1.25;font-family:'Choco Letter';-inkscape-font-specification:'Choco Letter, Normal';font-variant-ligatures:normal;font-variant-caps:normal;font-variant-numeric:normal;font-feature-settings:normal;text-align:start;letter-spacing:0px;word-spacing:0px;writing-mode:lr-tb;text-anchor:start;fill:#800080;fill-opacity:0.819608;stroke:none;stroke-width:0.482477"
       d="m 119.46609,58.025915 c -0.0804,-0.01758 -0.16955,-0.02637 -0.30632,-0.03517 -0.39942,-0.01758 -0.63078,0.03567 -1.09331,0.248428 -0.96668,0.425366 -2.0383,1.718796 -2.79487,3.366906 l -0.14594,0.319691 -0.0201,-1.169468 c -0.0419,-1.275947 -0.0628,-1.594783 -0.25184,-1.913745 -0.14745,-0.265935 -0.3575,-0.443527 -0.65149,-0.567514 -0.22959,-0.08817 -0.27284,-0.106003 -0.58877,-0.106254 -0.31461,1.51e-4 -0.35729,0.01758 -0.58849,0.106254 -0.37834,0.159506 -0.60906,0.407833 -0.90348,0.88625 -0.50278,0.904261 -1.09318,2.69354 -1.38725,4.253107 -0.46219,2.463349 -0.65136,5.706494 -0.44114,7.425491 0.12736,0.886376 0.31502,1.524199 0.67249,2.250817 0.48329,0.992379 1.02965,1.45276 1.95444,1.665418 0.23109,0.05325 0.39944,0.07084 0.58866,0.053 0.65129,-0.01758 1.84924,-0.442597 2.73212,-0.956483 0.71456,-0.407606 1.57617,-0.975046 1.99657,-1.347184 1.05063,-0.88615 1.84939,-2.126528 2.14383,-3.260653 0.10475,-0.443151 0.12585,-1.187654 0.0201,-1.50649 -0.27334,-0.832948 -0.94636,-1.258088 -2.08128,-1.328973 -0.1683,-0.01758 -0.31635,-0.03567 -0.31635,-0.03567 0,0 0.1281,-0.141169 0.2743,-0.31866 0.63058,-0.726543 1.21925,-1.559792 1.68174,-2.410398 0.67234,-1.258289 0.94516,-2.126679 0.94408,-3.119384 -6.7e-4,-1.223046 -0.42047,-2.0732 -1.1768,-2.409821 -0.1045,-0.04421 -0.1796,-0.07159 -0.25999,-0.08892 z m -0.52023,0.790999 c 0.0342,0.01256 0.0701,0.03266 0.10776,0.05978 0.31506,0.230342 0.39939,0.726719 0.20999,1.293757 -0.14719,0.354379 -0.37778,0.832847 -0.7563,1.47077 -0.40051,0.655406 -0.67242,1.010188 -1.40806,1.825376 -0.33742,0.371837 -0.86193,0.974544 -1.1981,1.346733 -0.31454,0.390048 -0.60903,0.726769 -0.63008,0.744478 -0.0631,0.05325 -0.10651,-0.195175 -0.106,-0.90401 -6.7e-4,-0.602756 -6.7e-4,-0.602806 0.1477,-0.992252 0.69265,-2.002817 1.59724,-3.526714 2.54297,-4.341953 0.29482,-0.247925 0.44114,-0.336444 0.63034,-0.425039 0.23511,-0.09344 0.35536,-0.11605 0.46093,-0.07737 z m -11.12359,-0.418961 c -1.32438,-0.389948 -3.04807,-0.159757 -4.16173,0.549304 -0.92471,0.620289 -1.6812,1.790058 -2.08071,3.278638 -0.44066,1.577401 -0.77726,4.501207 -0.71411,6.007572 0.0836,1.55944 0.37834,3.119283 0.81948,4.21794 0.1472,0.425365 0.46234,0.974895 0.69351,1.276148 0.42032,0.549378 1.09299,0.974568 1.7864,1.116315 0.1271,0.03592 0.33634,0.053 0.56749,0.03517 0.63031,-0.01758 1.02976,-0.195175 1.97578,-0.815289 0.84049,-0.549404 1.19771,-0.815088 1.55523,-1.133999 0.35563,-0.319439 0.46196,-0.478795 0.46302,-0.691176 -0.005,-0.125344 -0.0201,-0.159255 -0.14745,-0.265785 -0.12736,-0.106756 -0.16729,-0.123837 -0.3153,-0.124088 -0.23009,3.52e-4 -0.27143,0.01758 -0.62998,0.283469 -0.46252,0.33667 -1.66075,0.992403 -1.80789,0.992403 -0.0844,-3.02e-4 -0.23185,-0.425617 -0.33607,-1.06339 -0.29419,-1.701263 -0.4417,-3.6504 -0.46287,-6.060573 -0.0201,-1.506313 -0.0628,-1.346933 0.37801,-1.382502 0.14645,-0.01758 0.39945,-0.053 0.58875,-0.08867 0.18764,-0.03592 0.50446,-0.07109 0.69371,-0.106505 0.67264,-0.08867 0.8614,-0.212758 0.86148,-0.496176 -4.2e-4,-0.141923 -0.0176,-0.176587 -0.106,-0.283494 -0.0846,-0.07109 -0.18814,-0.106504 -0.27445,-0.142425 -0.1482,-0.01758 -1.2193,0.01758 -1.87104,0.0535 l -0.27151,0.01758 0.01,-0.180857 c 0.0251,-0.105249 0.0626,-0.584646 0.0834,-1.063138 0.0419,-0.496277 0.0841,-1.010012 0.14695,-1.205062 0.0706,-0.446616 0.29281,-0.975397 0.48248,-1.294258 0.1462,-0.248428 0.16705,-0.266036 0.42127,-0.354129 0.63064,-0.212758 1.40783,-0.17734 2.31151,0.124088 0.50444,0.177341 0.79891,0.141923 0.90388,-0.07084 0.12459,-0.21301 -0.0846,-0.461186 -0.63023,-0.762188 -0.29415,-0.159506 -0.48324,-0.230341 -0.94591,-0.372163 z m -9.197625,0.779972 c -0.609466,-0.159255 -1.051159,0.03517 -1.177182,0.513735 -0.02992,0.127353 -0.04248,0.354354 5.3e-5,1.010187 0.0839,2.00249 0.104998,3.136515 0.08365,4.164311 -0.04167,1.896287 -0.105248,2.552221 -0.567291,5.015595 -0.02911,0.269276 -0.08465,0.549027 -0.1055,0.637697 -0.190653,1.275546 -0.399973,2.197666 -0.585027,2.641821 -0.08767,0.229337 -0.273393,0.531192 -0.337595,0.530891 -0.04047,3.01e-4 -0.250437,-0.229839 -0.35712,-0.407532 -0.127856,-0.248678 -0.378441,-0.814836 -0.525845,-1.27567 -0.315189,-0.921518 -0.714406,-2.853122 -0.840455,-3.8455 -0.0053,-0.125093 -0.01758,-0.319138 -0.04248,-0.425894 -0.126349,-0.673492 -0.209995,-2.35697 -0.146695,-3.083564 0.0412,-0.478718 0.04273,-0.513558 -0.01758,-0.63737 -0.104747,-0.159506 -0.315649,-0.248176 -0.48372,-0.194924 -0.273672,0.07084 -0.314134,0.142425 -0.39761,0.975398 -0.232351,1.771822 -0.548248,3.277834 -1.029504,4.855637 -0.229337,0.762514 -0.608182,1.772726 -0.840483,2.215475 -0.273466,0.531594 -0.735734,1.240177 -0.945903,1.381949 -0.1055,0.08842 -0.104746,0.07109 -0.209995,-0.566912 -0.147198,-1.116516 -0.231849,-2.038285 -0.273599,-2.782512 -0.0201,-0.230341 -0.04273,-0.655557 -0.06255,-0.974292 -0.06207,-1.063063 -0.146946,-2.46335 -0.168297,-3.225386 6.63e-4,-0.407381 -0.0422,-1.13415 -0.0628,-1.612593 -0.04346,-0.478869 -0.0839,-1.329501 -0.0839,-1.914322 -0.0422,-1.506364 -0.126097,-2.215148 -0.35712,-2.604996 -0.126851,-0.195175 -0.399696,-0.42514 -0.609737,-0.496001 -0.293139,-0.106002 -0.735511,-0.106505 -0.966681,-0.01758 -0.420064,0.17734 -0.630692,0.407757 -0.988005,1.134351 -0.672517,1.293706 -1.218806,3.154525 -1.430105,4.890929 -0.462115,3.739347 -0.125847,6.344067 1.093407,8.382126 0.672565,1.151909 1.576119,1.843361 2.669147,2.091512 0.987706,0.212507 1.912416,-0.141923 2.542929,-0.97492 0.630461,-0.815239 1.176621,-2.268351 1.680967,-4.394954 0.08465,-0.371988 0.162269,-0.692759 0.175331,-0.748046 0.01005,-0.03868 0.04248,0.03542 0.04067,0.230091 0.0201,0.159255 0.08365,0.567062 0.147198,0.886175 0.483218,2.62273 1.365996,4.075691 2.479978,4.075691 0.504338,-2.6e-5 1.050805,-0.407733 1.471271,-1.116592 0.336625,-0.584696 0.798461,-1.630327 1.050732,-2.392338 0.273021,-0.832973 0.609963,-2.285607 0.819609,-3.508528 0.462467,-2.782286 0.52579,-4.536701 0.252545,-6.681013 -0.168549,-1.24058 -0.35752,-1.612919 -0.903781,-1.754641 z m 20.132995,8.247361 c 0.15825,0.04697 0.24315,0.117306 0.3371,0.276511 0.29439,0.496252 0.2105,1.240655 -0.27395,2.179655 -0.52502,1.027972 -1.30325,1.91387 -2.35401,2.693666 -0.29344,0.213009 -0.63046,0.442849 -0.73538,0.513785 -0.25295,0.141671 -0.2741,0.159506 -0.25333,0.07084 0.037,-0.01256 0.0626,-0.265911 0.0834,-0.514087 0.0201,-0.354153 0.0201,-0.672914 0.001,-1.363989 -0.0638,-0.868541 -0.1467,-2.162449 -0.1889,-2.587764 l -0.0201,-0.212759 0.20999,-0.08842 c 0.104,-0.0535 0.33662,-0.195175 0.50477,-0.319112 0.71456,-0.478493 1.84947,-0.797404 2.50078,-0.691151 0.0746,0.01256 0.13564,0.02688 0.18965,0.04321 z M 73.584171,59.375335 c -0.144435,-0.03316 -0.299824,-0.02009 -0.427654,0.05074 -0.210749,0.106253 -0.27485,0.177089 -0.672714,0.868742 -0.356816,0.584947 -0.630638,1.062862 -1.660494,2.959074 -0.231598,0.425215 -0.43991,0.780273 -0.460985,0.797957 -0.005,0.01758 -0.147951,-0.17709 -0.294219,-0.407356 -0.504692,-0.779821 -1.870264,-2.853348 -2.206708,-3.331866 -0.167796,-0.265734 -0.420518,-0.637923 -0.546616,-0.850581 -0.378494,-0.584872 -0.672638,-0.815163 -1.176802,-0.921442 -0.609514,-0.141671 -1.261454,0.124088 -1.534598,0.602631 -0.127605,0.212256 -0.125595,0.247925 -0.126349,0.549153 7.99e-4,0.372365 0.06179,0.602229 0.546214,1.701212 0.146193,0.371913 0.399719,0.921744 0.504767,1.205288 0.546415,1.399985 1.449896,3.313378 2.416603,5.138678 0.146193,0.301002 0.273697,0.567364 0.273597,0.585073 -0.0075,0.03316 -0.126349,0.336972 -0.272843,0.673819 -0.545486,1.187628 -1.344874,3.06598 -1.575894,3.704029 -0.126098,0.336671 -0.273346,0.761936 -0.336872,0.903607 -0.209241,0.531871 -0.147197,0.974695 0.167544,1.134025 0.273823,0.159506 0.588967,0.124088 0.841036,-0.07109 0.252095,-0.194924 0.525466,-0.726744 1.639194,-3.066056 l 0.630136,-1.346682 0.546214,0.868164 c 1.134929,1.807592 1.765919,2.676284 2.50153,3.349726 0.211252,0.195175 0.588414,0.371887 0.903759,0.425064 0.693411,0.141672 1.492197,-0.195175 1.82839,-0.762162 0.23009,-0.390149 0.250437,-0.779871 0.06333,-1.381874 -0.124842,-0.478091 -0.188393,-0.566987 -1.092935,-2.197565 -0.462567,-0.815214 -0.987726,-1.737007 -1.134951,-2.056019 -0.399468,-0.708885 -0.777608,-1.435353 -1.198003,-2.161971 -0.188393,-0.336495 -0.357394,-0.620139 -0.357617,-0.637924 0.005,-0.01758 0.168549,-0.371937 0.3803,-0.814535 0.211,-0.425039 0.672489,-1.417819 1.02983,-2.215274 0.335794,-0.797605 0.756639,-1.719047 0.903862,-2.055742 0.292488,-0.656185 0.334078,-0.833727 0.237626,-1.014232 -0.07435,-0.115297 -0.20472,-0.194422 -0.349504,-0.22783 z M 61.00254,58.198408 c -0.555532,-0.12233 -1.107046,0.133633 -1.401391,0.660882 -0.252723,0.442924 -0.588564,1.559516 -0.715491,2.374503 -0.01758,0.06682 -0.04094,0.319213 -0.08465,0.549153 -0.1688,1.080897 -0.483642,4.128842 -0.546566,5.156714 -0.02009,0.797454 -2e-4,3.190194 0.0417,3.899054 0.126098,1.73673 0.189649,2.091336 0.399745,2.658424 0.27327,0.655707 0.777535,1.080696 1.450147,1.18705 0.315646,0.05325 0.420242,0.053 0.714486,-2.01e-4 0.651513,-0.124088 1.134904,-0.460381 1.471173,-1.045203 0.105751,-0.177089 0.210246,-0.407456 0.253049,-0.531343 0.104746,-0.230593 0.157748,-0.818128 0.189146,-1.471097 6.28e-4,-0.247925 0.0201,-0.513785 0.02261,-0.602229 0.04948,-0.210749 0.106253,-1.824774 0.125846,-2.817528 0.02009,-0.425115 0.02009,-1.718947 0.02009,-2.870881 -0.02009,-2.339312 -0.0633,-3.349223 -0.252572,-4.359386 -0.125344,-0.620038 -0.168297,-0.79758 -0.357645,-1.329275 -0.294068,-0.761961 -0.630337,-1.20496 -1.092528,-1.382125 -0.08013,-0.03366 -0.158501,-0.05903 -0.239133,-0.07661 z m -6.149092,-0.119065 c -0.315093,-0.106002 -0.840433,-0.106253 -1.19755,1.76e-4 -0.56754,0.177089 -1.198304,0.655909 -1.70272,1.311591 -0.272517,0.354631 -0.735486,1.116291 -1.029479,1.701188 l -0.146695,0.337223 -0.06255,-0.425215 c -0.104997,-0.62024 -0.293842,-1.453062 -0.39889,-1.736631 -0.252168,-0.620239 -0.672638,-0.992755 -1.303302,-1.099109 -0.630362,-0.106253 -1.303048,0.248176 -1.660366,0.850782 -0.273625,0.460658 -0.524762,1.258238 -0.777284,2.321452 -0.21954,0.93679 -0.294649,1.48848 -0.481685,3.066282 -0.1688,1.630226 -0.147198,4.182598 0.04195,6.131936 0.189147,1.648136 0.462442,2.852795 0.840911,3.508553 0.27327,0.460784 0.756435,0.833023 1.239951,0.939377 0.231849,0.03542 0.693286,0.03542 0.924607,-0.01758 0.525415,-0.141672 0.987782,-0.514036 1.198003,-0.992504 0.08289,-0.195175 0.194924,-0.83134 0.251944,-1.594934 l 0.0633,-0.443075 0.378293,0.301404 c 0.567464,0.478467 0.987681,0.726618 1.681444,0.992504 0.987605,0.354379 1.596993,0.460733 2.521927,0.372289 0.336419,-0.03542 0.504239,-0.08892 0.672562,-0.195175 0.294822,-0.247925 0.252572,-0.673216 -0.0849,-0.850732 -0.105249,-0.07084 -0.2532,-0.08892 -0.60984,-0.141922 -1.302825,-0.17709 -2.37468,-0.514162 -3.110316,-0.99263 -0.293391,-0.177089 -0.336193,-0.212507 -0.273421,-0.247925 1.155853,-0.567138 2.332705,-1.594984 3.110115,-2.693817 1.176877,-1.612693 1.849766,-3.632791 1.933815,-5.723952 0.04145,-1.187503 -0.146947,-2.410373 -0.525491,-3.190169 -0.357117,-0.797429 -0.840659,-1.276198 -1.492398,-1.488932 z m -0.73006,1.175572 c 0.0309,0.01256 0.05426,0.02738 0.07686,0.04722 0.315244,0.26581 0.483893,1.134151 0.441944,2.356971 -0.02009,1.275821 -0.190654,2.055592 -0.671934,3.243522 -0.586756,1.435905 -1.386974,2.60477 -2.458879,3.614907 -0.168549,0.141671 -0.3799,0.33652 -0.483567,0.407808 l -0.188895,0.141671 0.04019,-0.460834 c 0.0013,-0.265483 0.02009,-1.435428 0.04245,-2.640615 l 0.02009,-2.161921 0.127856,-0.372189 c 0.316447,-0.903481 0.840531,-2.055541 1.197674,-2.622679 0.274551,-0.478116 0.588715,-0.868014 0.966907,-1.187051 0.367215,-0.325794 0.687157,-0.448174 0.888009,-0.366763 z m -11.676337,-0.62137 c -0.500447,-0.120572 -0.953494,-0.08415 -1.394936,0.101983 -0.819484,0.354505 -1.470896,0.904135 -2.248557,1.861095 -0.125344,0.159758 -0.231346,0.265408 -0.230593,0.247925 -0.0201,-0.620088 -0.146946,-1.435453 -0.252295,-1.75449 -0.293994,-0.708784 -1.051132,-1.098305 -1.807617,-0.885597 -0.399318,0.08867 -0.693738,0.318686 -0.882658,0.673191 -0.230844,0.407682 -0.758093,2.657796 -0.938372,4.148787 -0.06129,0.549856 -0.271713,2.516753 -0.314692,3.313981 -0.148705,1.789456 -0.0201,5.050938 0.231347,6.41553 0.125344,0.620038 0.399166,1.22282 0.693185,1.541757 0.273169,0.283543 0.798534,0.549203 1.2609,0.620088 0.378293,0.05325 0.736064,1.76e-4 1.198279,-0.212507 0.272668,-0.124088 0.379725,-0.176838 0.546189,-0.354555 0.504265,-0.496252 0.588363,-0.921517 0.580476,-2.477517 l 0.0011,-0.885873 0.315772,-0.106002 c 0.81971,-0.26581 1.680992,-0.709186 2.206708,-1.099009 0.882633,-0.655733 1.744367,-1.789782 2.332831,-3.04802 0.861483,-1.913996 1.975362,-6.680913 -0.756862,-7.921392 -0.178596,-0.07511 -0.350461,-0.13288 -0.517251,-0.17307 z m -0.519964,1.36728 c 0.07033,0.01758 0.125344,0.07109 0.15624,0.170558 1.429223,5.227876 -2.081841,8.683252 -2.963394,9.108895 -0.169554,0.08817 -0.314742,0.159506 -0.335088,0.159506 -0.03291,-0.0025 -0.06431,-0.230593 -0.08365,-0.956684 -0.06179,-0.992077 -0.125846,-4.182397 -0.104997,-4.696333 l 7.98e-4,-0.407179 0.398087,-0.67417 c 0.588464,-1.010138 1.030032,-1.55924 1.723443,-2.126378 0.294847,-0.247925 0.441216,-0.336746 0.693436,-0.443075 0.223057,-0.09972 0.397886,-0.164781 0.517352,-0.134638 z"
       id="text7156" />
  </g>
</svg>
