<?xml version="1.0" encoding="UTF-8" standalone="no"?>
<!-- Created with Inkscape (http://www.inkscape.org/) -->

<svg
   xmlns:dc="http://purl.org/dc/elements/1.1/"
   xmlns:cc="http://creativecommons.org/ns#"
   xmlns:rdf="http://www.w3.org/1999/02/22-rdf-syntax-ns#"
   xmlns:svg="http://www.w3.org/2000/svg"
   xmlns="http://www.w3.org/2000/svg"
   xmlns:sodipodi="http://sodipodi.sourceforge.net/DTD/sodipodi-0.dtd"
   xmlns:inkscape="http://www.inkscape.org/namespaces/inkscape"
   width="210mm"
   height="297mm"
   viewBox="0 0 210 297"
   version="1.1"
   id="svg6670"
   sodipodi:docname="icone conseil vétérinaire ancien bleu.svg"
   inkscape:version="0.92.5 (2060ec1f9f, 2020-04-08)">
  <defs
     id="defs6664" />
  <sodipodi:namedview
     id="base"
     pagecolor="#ffffff"
     bordercolor="#666666"
     borderopacity="1.0"
     inkscape:pageopacity="0.0"
     inkscape:pageshadow="2"
     inkscape:zoom="0.35"
     inkscape:cx="2044.7639"
     inkscape:cy="671.58233"
     inkscape:document-units="mm"
     inkscape:current-layer="layer1"
     showgrid="false"
     inkscape:window-width="1920"
     inkscape:window-height="1009"
     inkscape:window-x="-8"
     inkscape:window-y="-8"
     inkscape:window-maximized="1" />
  <metadata
     id="metadata6667">
    <rdf:RDF>
      <cc:Work
         rdf:about="">
        <dc:format>image/svg+xml</dc:format>
        <dc:type
           rdf:resource="http://purl.org/dc/dcmitype/StillImage" />
        <dc:title></dc:title>
      </cc:Work>
    </rdf:RDF>
  </metadata>
  <g
     inkscape:label="Calque 1"
     inkscape:groupmode="layer"
     id="layer1">
    <g
       id="g2929-1-5"
       transform="matrix(4.2048734,0,0,4.2048734,-733.54257,-755.27838)"
       style="fill:#1c6586;fill-opacity:0.95294118">
      <path
         id="path1286-7-5"
         d="m 178.33615,181.36805 c -0.73035,0.18259 -1.32883,0.66949 -1.70922,1.37955 -0.33982,0.63398 -0.33982,7.88677 0,8.52076 0.74049,1.37955 0.88758,1.42012 5.51313,1.42012 4.33646,0 4.2756,0.0102 5.00595,-0.72527 0.73542,-0.73036 0.72528,-0.67456 0.72528,-4.95523 0,-4.56469 -0.0406,-4.72699 -1.42013,-5.46242 -0.42604,-0.22823 -7.31365,-0.38039 -8.11501,-0.17751 z m 4.96537,2.06425 c 0.27896,0.24853 0.33982,0.46154 0.35503,1.2629 l 0.005,0.52748 0.93829,0.0304 0.9383,0.0304 v 1.97803 1.97804 h -3.34744 -3.34744 l -0.0304,-0.32968 c -0.0254,-0.24345 0.0101,-0.32967 0.1268,-0.32967 0.0913,0 0.15722,0.0862 0.15722,0.20288 0,0.15723 0.0659,0.20287 0.29417,0.20287 0.2891,0 0.29417,-0.005 0.32968,-0.71006 0.0507,-0.85208 0.15722,-0.98395 1.02959,-1.27811 0.75064,-0.24853 0.81657,-0.4159 0.38546,-0.90787 -0.17244,-0.1978 -0.31446,-0.40068 -0.31446,-0.45647 0,-0.0558 -0.37532,-0.0964 -0.86222,-0.0964 h -0.86222 v 1.36941 c 0,1.16146 -0.0254,1.36941 -0.15722,1.36941 -0.13187,0 -0.14709,-0.20795 -0.1268,-1.49621 l 0.0304,-1.4962 0.96366,-0.0558 0.96365,-0.0558 -1.02959,-0.0203 c -0.85714,-0.0152 -1.03973,0.005 -1.09045,0.14201 -0.0812,0.20795 -0.0812,3.72784 0,3.93578 0.0558,0.14201 0.46154,0.1623 3.55031,0.1623 h 3.48946 v -2.12512 -2.12511 l -0.87744,-0.0304 c -1.25275,-0.0406 -1.31869,-0.28403 -0.0761,-0.28403 1.31362,0 1.25783,-0.11158 1.25783,2.44465 0,2.6323 0.15216,2.42436 -1.78023,2.42436 -1.39984,0 -1.46577,0.0101 -1.46577,0.20287 0,0.11158 0.0558,0.20288 0.11665,0.20288 0.19273,0 0.49197,0.31952 0.49197,0.5224 0,0.21302 -2.25698,0.29417 -2.38378,0.0862 -0.10144,-0.1623 0.14201,-0.50211 0.41082,-0.56805 0.15216,-0.0406 0.24852,-0.13694 0.24852,-0.25359 0,-0.18259 -0.0964,-0.19273 -1.46577,-0.19273 -1.93239,0 -1.78023,0.20794 -1.78023,-2.43451 0,-2.58158 -0.0811,-2.4345 1.32376,-2.4345 h 1.00931 v -0.49704 c 0,-0.27389 0.0304,-0.5782 0.0659,-0.67456 0.18259,-0.48183 2.03382,-0.64413 2.51565,-0.22317 z"
         inkscape:connector-curvature="0"
         style="fill:#1c6586;fill-opacity:0.95294118;stroke:none;stroke-width:0.00507188;stroke-opacity:1" />
      <path
         id="path1288-0-3"
         d="m 181.14597,183.63011 c -0.0659,0.0659 -0.12172,0.29417 -0.12172,0.50718 0,0.47169 0.2333,0.50719 1.01437,0.17245 l 0.49705,-0.21302 0.27388,0.21302 c 0.49704,0.39053 0.847,-0.18259 0.39053,-0.64413 -0.20287,-0.1978 -1.86138,-0.22823 -2.05411,-0.0355 z"
         inkscape:connector-curvature="0"
         style="fill:#1c6586;fill-opacity:0.95294118;stroke:#904e00;stroke-width:0.00507188;stroke-opacity:1" />
      <path
         id="path1290-9-8"
         d="m 182.14006,184.57348 c -0.13694,0.0761 -0.44632,0.17244 -0.6847,0.20794 -0.49197,0.0761 -0.55791,0.29924 -0.26881,0.90787 0.43111,0.91801 1.68893,0.80136 2.06425,-0.18259 0.20288,-0.54776 0.0964,-0.68977 -0.80643,-1.05495 -0.0254,-0.0152 -0.1623,0.0406 -0.30431,0.12173 z"
         inkscape:connector-curvature="0"
         style="fill:#1c6586;fill-opacity:0.95294118;stroke:#904e00;stroke-width:0.00507188;stroke-opacity:1" />
      <path
         id="path1292-6-4"
         d="m 183.46889,185.76537 c -0.0507,0.1268 -0.20794,0.33981 -0.35503,0.47168 -0.26373,0.24853 -0.34996,0.51733 -0.16737,0.51733 0.23331,0 1.2629,0.44633 1.43534,0.61877 0.15216,0.15216 0.19273,0.34489 0.19273,0.9028 v 0.71006 h 0.35504 0.35503 v -1.72444 -1.72444 h -0.86222 c -0.80643,0 -0.87237,0.0152 -0.95352,0.22824 z"
         inkscape:connector-curvature="0"
         style="fill:#1c6586;fill-opacity:0.95294118;stroke:#904e00;stroke-width:0.00507188;stroke-opacity:1" />
      <path
         id="path1294-8-36"
         d="m 181.70388,186.75438 c -0.0507,0.18766 0.29417,0.60863 0.50212,0.60863 0.20287,0 0.46154,-0.38546 0.3956,-0.58834 -0.0862,-0.27895 -0.82164,-0.29924 -0.89772,-0.0203 z"
         inkscape:connector-curvature="0"
         style="fill:#1c6586;fill-opacity:0.95294118;stroke:#904e00;stroke-width:0.00507188;stroke-opacity:1" />
      <path
         id="path1296-6-8"
         d="m 181.10033,187.1297 c -0.25867,0.0659 -0.21809,0.46662 0.0761,0.72021 0.29925,0.26374 0.36011,0.87236 0.0913,0.9738 -0.23331,0.0913 -0.38039,-0.0304 -0.23838,-0.1978 0.1978,-0.24345 0.0761,-0.60356 -0.20795,-0.60356 -0.28402,0 -0.40575,0.36011 -0.20794,0.60356 0.14201,0.16737 -0.005,0.2891 -0.23838,0.1978 -0.23838,-0.0913 -0.20795,-0.70499 0.0406,-0.95351 0.23838,-0.23838 0.26881,-0.50719 0.0558,-0.50719 -0.27388,0 -0.46154,0.42604 -0.46154,1.03466 v 0.58834 h 2.18091 2.18091 v -0.53255 c -0.005,-0.59848 -0.17244,-1.01944 -0.43618,-1.07016 -0.1268,-0.0254 -0.17245,0.0355 -0.17245,0.22823 0,0.14202 0.0456,0.25867 0.0964,0.25867 0.38039,0 0.29417,0.83686 -0.0964,0.96366 -0.53762,0.17244 -0.95351,-0.5782 -0.49197,-0.9028 0.18259,-0.1268 0.29924,-0.59848 0.17752,-0.71006 -0.22317,-0.19781 -0.49705,-0.13187 -0.84194,0.20287 l -0.38039,0.37025 -0.37532,-0.36518 c -0.38039,-0.37024 -0.42096,-0.38546 -0.75063,-0.29924 z"
         inkscape:connector-curvature="0"
         style="fill:#1c6586;fill-opacity:0.95294118;stroke:#904e00;stroke-width:0.00507188;stroke-opacity:1" />
      <path
         id="path1298-7-6"
         d="m 183.39282,188.22523 c -0.0355,0.0913 -0.0152,0.21302 0.0456,0.27388 0.15216,0.15216 0.44633,0.0152 0.40575,-0.1978 -0.0456,-0.23331 -0.37024,-0.2891 -0.45139,-0.0761 z"
         inkscape:connector-curvature="0"
         style="fill:#1c6586;fill-opacity:0.95294118;stroke:#904e00;stroke-width:0.00507188;stroke-opacity:1" />
      <path
         id="path1300-0-1"
         d="m 181.83575,189.89895 c 0,0.15723 0.0659,0.20288 0.30431,0.20288 0.23838,0 0.30431,-0.0456 0.30431,-0.20288 0,-0.15723 -0.0659,-0.20287 -0.30431,-0.20287 -0.23838,0 -0.30431,0.0456 -0.30431,0.20287 z"
         inkscape:connector-curvature="0"
         style="fill:#1c6586;fill-opacity:0.95294118;stroke:#904e00;stroke-width:0.00507188;stroke-opacity:1" />
      <path
         id="path1302-7-5"
         d="m 181.27784,190.50758 c -0.0406,0.0659 0.26881,0.10143 0.85715,0.10143 0.54269,0 0.91801,-0.0406 0.91801,-0.10143 0,-0.0609 -0.35503,-0.10144 -0.85715,-0.10144 -0.47168,0 -0.8825,0.0456 -0.91801,0.10144 z"
         inkscape:connector-curvature="0"
         style="fill:#1c6586;fill-opacity:0.95294118;stroke:#904e00;stroke-width:0.00507188;stroke-opacity:1" />
    </g>
  </g>
</svg>
