<?xml version="1.0" standalone="no"?>
<!DOCTYPE svg PUBLIC "-//W3C//DTD SVG 20010904//EN"
 "http://www.w3.org/TR/2001/REC-SVG-20010904/DTD/svg10.dtd">
<svg version="1.0" xmlns="http://www.w3.org/2000/svg"
 width="375.000000pt" height="303.000000pt" viewBox="0 0 375.000000 303.000000"
 preserveAspectRatio="xMidYMid meet">
<metadata>
Created by potrace 1.10, written by Peter Selinger 2001-2011
</metadata>
<g transform="translate(0.000000,303.000000) scale(0.100000,-0.100000)"
fill="#000000" stroke="none">
<path d="M1140 2700 c-17 -17 -20 -33 -20 -123 0 -119 10 -144 54 -133 36 9
46 40 46 137 0 85 -8 112 -40 129 -15 8 -24 6 -40 -10z"/>
<path d="M1601 2702 c-18 -15 -21 -30 -22 -124 -2 -112 5 -138 42 -138 39 0
49 26 49 131 0 55 -4 108 -10 118 -14 27 -36 32 -59 13z"/>
<path d="M2055 2695 c-23 -22 -25 -32 -25 -120 0 -82 3 -98 20 -115 23 -23 41
-25 58 -8 19 19 16 232 -4 252 -20 21 -20 20 -49 -9z"/>
<path d="M2504 2695 c-24 -24 -25 -29 -22 -126 4 -85 7 -104 23 -115 30 -22
54 -17 66 13 12 31 10 199 -3 224 -13 29 -38 30 -64 4z"/>
<path d="M840 2584 c-30 -8 -72 -26 -93 -40 -44 -29 -127 -137 -127 -166 0
-10 -7 -32 -15 -48 -14 -26 -15 -146 -13 -994 2 -756 6 -968 16 -978 6 -6 12
-20 12 -31 0 -26 66 -123 104 -152 17 -12 49 -32 71 -44 40 -20 52 -20 1055
-23 l1015 -3 55 34 c74 45 113 84 141 139 l24 47 0 1025 0 1025 -25 49 c-33
64 -108 130 -173 152 -33 12 -83 18 -137 19 l-85 0 -5 -65 c-6 -84 -30 -126
-82 -150 -40 -18 -42 -18 -84 3 -51 25 -64 53 -64 142 0 75 0 75 -115 75 -115
0 -115 0 -115 -74 0 -74 -23 -117 -78 -145 -37 -19 -39 -19 -78 -2 -63 29 -73
46 -76 136 l-3 80 -109 3 c-81 2 -112 -1 -118 -10 -4 -7 -8 -45 -8 -85 0 -70
-1 -72 -36 -101 -48 -40 -65 -43 -111 -22 -49 22 -62 47 -71 140 l-7 75 -110
0 -110 0 -5 -76 c-6 -89 -23 -119 -78 -141 -36 -14 -42 -14 -76 2 -55 25 -76
63 -76 136 0 33 -5 65 -12 72 -16 16 -130 14 -198 -4z m2094 -760 c14 -5 16
-52 16 -428 0 -231 -4 -427 -9 -434 -5 -9 -27 -12 -72 -10 l-64 3 -3 115 c-2
76 -7 117 -15 122 -7 4 -78 8 -158 8 -109 0 -149 -3 -157 -13 -6 -7 -13 -62
-14 -123 l-3 -109 -80 0 -80 0 -3 115 c-2 76 -7 117 -15 122 -21 13 -301 10
-315 -4 -8 -8 -12 -59 -12 -165 0 -84 1 -154 3 -154 1 -1 49 -4 107 -8 l105
-6 -3 -40 c-6 -76 -3 -74 -110 -77 l-97 -3 0 -160 0 -160 95 -3 c60 -2 97 -7
102 -15 10 -16 10 -108 0 -124 -6 -10 -146 -13 -635 -13 -608 -1 -628 0 -666
19 -22 12 -50 35 -63 53 l-23 33 -3 710 c-1 391 0 720 3 733 l5 22 1074 0
c591 0 1081 -3 1090 -6z m-730 -680 c12 -12 16 -37 16 -107 0 -51 -4 -98 -8
-105 -6 -9 -35 -12 -108 -10 l-99 3 0 110 0 110 90 6 c50 3 91 6 92 7 1 1 9
-5 17 -14z m531 -94 l0 -95 -104 -3 c-77 -2 -107 1 -113 10 -9 15 -11 149 -2
173 5 13 22 15 113 13 l106 -3 0 -95z m215 -402 c-1 -286 -11 -323 -102 -369
-34 -17 -62 -19 -308 -19 -222 0 -270 2 -270 14 0 14 101 109 455 428 22 20
65 60 95 88 59 56 110 92 123 87 5 -1 8 -105 7 -229z m-802 30 c18 -18 16
-192 -2 -207 -9 -7 -40 -11 -78 -9 l-63 3 -3 99 c-1 55 0 106 2 113 7 17 127
18 144 1z"/>
<path d="M937 1663 c-4 -3 -7 -71 -7 -150 l0 -144 153 3 152 3 3 125 c4 186
18 170 -152 170 -78 0 -146 -3 -149 -7z"/>
<path d="M1451 1656 c-8 -9 -11 -57 -9 -147 l3 -134 155 0 155 0 3 125 c4 186
18 170 -152 170 -110 0 -146 -3 -155 -14z"/>
<path d="M1954 1657 c-2 -7 -3 -74 -2 -148 l3 -134 148 -5 c105 -4 152 -2 158
6 5 7 8 74 7 150 l-3 139 -153 3 c-119 2 -154 0 -158 -11z"/>
<path d="M2471 1656 c-8 -9 -11 -56 -9 -147 l3 -134 155 0 155 0 0 145 0 145
-146 3 c-116 2 -149 0 -158 -12z"/>
<path d="M928 1049 c-3 -124 -1 -142 14 -150 21 -11 268 -12 286 -1 9 7 12 43
10 148 l-3 139 -152 3 -152 3 -3 -142z"/>
<path d="M1447 1184 c-4 -4 -7 -69 -7 -145 0 -165 -17 -151 180 -147 l135 3 0
145 0 145 -151 3 c-82 1 -153 -1 -157 -4z"/>
<path d="M948 713 c-16 -4 -18 -19 -20 -116 -2 -124 0 -168 8 -176 9 -9 269
-8 287 1 15 8 17 25 17 141 0 90 -4 137 -12 145 -12 12 -239 16 -280 5z"/>
<path d="M1458 709 c-16 -9 -18 -27 -18 -144 0 -123 2 -135 19 -145 28 -15
274 -13 289 2 17 17 17 269 0 286 -15 15 -265 16 -290 1z"/>
</g>
</svg>
