<?xml version="1.0" standalone="no"?>
<!DOCTYPE svg PUBLIC "-//W3C//DTD SVG 20010904//EN"
 "http://www.w3.org/TR/2001/REC-SVG-20010904/DTD/svg10.dtd">
<svg version="1.0" xmlns="http://www.w3.org/2000/svg"
 width="246.000000pt" height="318.000000pt" viewBox="0 0 246.000000 318.000000"
 preserveAspectRatio="xMidYMid meet">
<metadata>
Created by potrace 1.10, written by Peter Selinger 2001-2011
</metadata>
<g transform="translate(0.000000,318.000000) scale(0.100000,-0.100000)"
fill="#000000" stroke="none">
<path d="M923 2688 c-12 -6 -25 -24 -28 -39 -4 -16 -7 -30 -8 -31 -1 0 -93 -4
-204 -7 -184 -5 -204 -8 -230 -27 -66 -49 -62 13 -62 -1064 0 -1075 -3 -1016
61 -1063 41 -30 109 -33 793 -27 l620 5 35 27 c24 18 39 41 48 70 9 33 12 260
10 1008 -3 950 -3 966 -23 1000 -36 62 -66 70 -270 70 -99 0 -185 4 -190 8 -6
4 -16 19 -23 35 -6 15 -23 32 -38 37 -35 14 -463 12 -491 -2z m408 -38 c26
-14 24 -39 -3 -49 -13 -4 -108 -8 -213 -7 -167 1 -190 3 -193 17 -2 9 4 24 13
33 14 14 44 16 196 16 105 0 188 -4 200 -10z m-472 -126 c26 -6 31 -11 31 -36
0 -80 28 -88 302 -85 214 3 217 3 243 27 17 16 25 34 25 56 0 20 6 34 16 38
27 10 233 7 280 -5 57 -15 100 -63 109 -121 3 -24 5 -420 3 -880 -3 -827 -3
-837 -24 -864 -11 -15 -33 -37 -48 -48 -27 -21 -40 -21 -599 -24 -384 -2 -584
0 -609 8 -40 11 -98 70 -98 99 0 10 -3 20 -6 24 -3 3 -6 384 -5 846 1 910 -1
879 55 930 14 14 45 28 69 32 55 9 216 11 256 3z"/>
<path d="M829 2249 c-8 -5 -49 -9 -92 -9 -64 0 -79 -3 -85 -17 -13 -33 -8
-219 7 -237 11 -13 34 -16 122 -16 137 0 139 2 139 140 0 87 -2 98 -22 117
-30 26 -51 33 -69 22z m-29 -66 c0 -16 -5 -35 -10 -43 -8 -12 -14 -11 -41 9
-25 19 -33 21 -40 10 -12 -19 -11 -23 9 -50 10 -13 23 -36 30 -51 7 -17 19
-28 31 -28 11 0 23 11 29 28 5 15 18 49 27 75 12 35 22 47 34 45 13 -3 15 -15
13 -78 -2 -51 -8 -79 -18 -86 -17 -14 -142 -15 -166 -3 -15 8 -18 24 -18 98 0
48 3 91 7 94 3 4 30 7 60 7 51 0 53 -1 53 -27z"/>
<path d="M1035 2086 c-16 -12 -17 -16 -6 -30 12 -15 52 -16 375 -14 344 3 361
4 364 22 2 10 -2 22 -10 27 -7 5 -169 9 -359 9 -279 0 -349 -3 -364 -14z"/>
<path d="M758 1841 c-106 -8 -110 -13 -112 -143 -1 -140 -3 -138 135 -138 137
0 139 2 139 140 0 52 -4 100 -8 106 -11 16 -55 44 -67 42 -5 -1 -45 -4 -87 -7z
m37 -76 c0 -34 -32 -48 -47 -20 -7 12 -17 15 -39 10 -24 -6 -29 -3 -29 13 0
26 14 31 70 29 43 -2 45 -3 45 -32z m87 -66 c-1 -41 -4 -80 -7 -86 -5 -15 -71
-18 -80 -3 -3 5 4 26 15 47 11 21 20 44 20 51 0 22 33 73 45 69 6 -3 9 -34 7
-78z m-162 -1 c0 -5 12 -25 26 -43 28 -38 25 -55 -11 -55 -47 0 -55 9 -55 64
0 29 3 56 7 59 7 8 33 -11 33 -25z"/>
<path d="M1030 1675 c-9 -11 -10 -19 -3 -26 11 -11 724 -16 742 -5 8 5 8 13 1
27 -10 18 -25 19 -369 19 -311 0 -360 -2 -371 -15z"/>
<path d="M758 1430 c-48 -3 -92 -10 -99 -17 -17 -17 -18 -228 -2 -244 8 -8 52
-14 118 -15 141 -4 145 -1 145 132 0 52 -4 104 -10 114 -15 27 -56 36 -152 30z
m5 -36 c30 -5 37 -11 37 -29 0 -37 -25 -51 -56 -30 -35 22 -56 6 -34 -28 7
-12 20 -35 29 -52 8 -16 22 -35 30 -42 14 -10 14 -12 -1 -18 -9 -4 -31 -5 -50
-3 l-33 3 -1 85 c-1 120 3 126 79 114z m122 -100 c-1 -92 -6 -104 -49 -104
-42 0 -53 13 -33 43 7 12 17 37 20 54 8 41 36 85 51 80 7 -2 11 -31 11 -73z"/>
<path d="M1023 1264 c-15 -41 13 -44 376 -44 190 0 352 4 359 9 8 5 12 17 10
27 -3 18 -20 19 -371 22 -334 2 -368 1 -374 -14z"/>
<path d="M828 1024 c-3 -3 -40 -6 -82 -7 -45 -2 -81 -8 -88 -15 -9 -9 -13 -47
-13 -123 0 -139 0 -139 137 -139 133 0 138 5 138 140 0 96 -1 102 -26 125 -25
24 -54 32 -66 19z m-30 -76 c-3 -37 -27 -48 -51 -23 -18 17 -47 20 -47 4 0 -6
16 -39 35 -73 19 -35 35 -66 35 -70 0 -4 -19 -6 -42 -4 l-43 3 -2 85 c-1 47 0
91 3 98 2 8 23 12 59 12 l56 0 -3 -32z m85 -64 c-1 -38 -2 -74 -2 -81 -1 -6
-17 -17 -37 -23 -50 -17 -65 -1 -42 43 10 17 20 46 24 62 9 40 34 77 48 72 7
-2 10 -30 9 -73z"/>
<path d="M1322 872 c-254 -2 -294 -4 -299 -18 -3 -8 -2 -19 4 -25 11 -11 698
-16 731 -5 26 9 29 31 5 41 -23 9 -88 11 -441 7z"/>
</g>
</svg>
