<?xml version="1.0" standalone="no"?>
<!DOCTYPE svg PUBLIC "-//W3C//DTD SVG 20010904//EN"
 "http://www.w3.org/TR/2001/REC-SVG-20010904/DTD/svg10.dtd">
<svg version="1.0" xmlns="http://www.w3.org/2000/svg"
 width="441.000000pt" height="351.000000pt" viewBox="0 0 441.000000 351.000000"
 preserveAspectRatio="xMidYMid meet">
<metadata>
Created by potrace 1.10, written by Peter Selinger 2001-2011
</metadata>
<g transform="translate(0.000000,351.000000) scale(0.100000,-0.100000)"
fill="#000000" stroke="none">
<path d="M1251 3097 c-7 -10 -12 -133 -13 -393 l-3 -379 -372 0 c-255 0 -375
-3 -383 -11 -13 -13 -15 -843 -2 -856 4 -4 179 -9 387 -10 l380 -3 5 -385 5
-385 432 -3 433 -2 5 22 c3 13 4 176 3 363 l-3 340 -25 0 -25 0 3 -326 c2
-222 0 -329 -7 -334 -6 -3 -178 -6 -383 -6 l-373 -1 -3 379 c-2 346 -4 379
-20 391 -13 10 -98 13 -387 11 l-370 -1 -3 376 c-2 297 0 376 10 376 7 0 177
1 378 3 l365 2 3 388 c1 213 6 387 10 387 4 1 176 2 382 2 l375 1 3 -383 c2
-292 5 -386 15 -392 6 -5 181 -8 387 -7 l375 1 3 -98 c1 -55 7 -103 11 -107 5
-5 18 -6 30 -2 20 6 21 13 21 130 0 88 -4 126 -12 132 -7 4 -182 8 -388 8
l-375 0 -5 383 c-4 326 -7 384 -20 392 -9 6 -185 10 -426 10 -332 0 -414 -3
-423 -13z"/>
<path d="M3942 1998 c-38 -38 22 -103 67 -72 40 29 21 84 -29 84 -14 0 -31 -5
-38 -12z"/>
<path d="M1567 1949 c-56 -9 -107 -44 -144 -100 -23 -36 -26 -49 -25 -129 0
-99 13 -125 82 -178 32 -25 43 -27 128 -27 105 0 126 12 120 70 -3 33 -5 33
-90 20 -61 -10 -101 7 -128 52 -59 101 24 231 133 209 75 -16 82 -14 85 25 2
21 -2 40 -10 46 -19 15 -96 21 -151 12z"/>
<path d="M3755 1954 c-6 -1 -27 -5 -48 -9 -83 -14 -147 -108 -147 -215 0 -79
27 -138 82 -181 39 -31 47 -34 117 -34 66 0 81 4 113 26 50 34 72 64 93 127
39 120 -35 259 -150 279 -28 5 -55 8 -60 7z m86 -120 c21 -22 24 -36 24 -97 0
-57 -4 -78 -20 -98 -50 -67 -140 -55 -175 23 -24 53 -25 71 -3 130 13 38 25
52 56 67 45 23 80 15 118 -25z"/>
<path d="M1797 1943 c-4 -3 -7 -100 -7 -214 l0 -209 24 -6 c13 -3 35 -4 47 -2
23 3 24 7 25 83 1 44 2 86 3 93 1 8 25 12 86 12 l84 0 3 -92 c3 -89 4 -93 27
-96 12 -2 33 -1 46 2 l23 6 -1 212 -2 213 -48 3 -49 3 2 -73 c3 -118 11 -108
-84 -108 -99 0 -99 1 -87 97 4 40 4 66 -3 73 -11 11 -79 14 -89 3z"/>
<path d="M2265 1943 c-6 -5 -10 -88 -10 -213 0 -125 4 -208 10 -212 12 -9 58
-10 79 -2 14 5 15 18 10 85 -6 66 -4 79 9 85 28 10 53 -14 92 -90 24 -48 45
-76 59 -80 34 -9 84 -7 91 5 8 11 -29 68 -87 134 -43 49 -48 71 -17 80 45 15
72 96 48 147 -22 48 -54 60 -168 65 -58 2 -110 1 -116 -4z m173 -79 c28 -19
29 -67 2 -94 -22 -22 -75 -27 -86 -8 -8 13 -6 96 2 110 9 13 58 9 82 -8z"/>
<path d="M2745 1941 c-29 -12 -74 -60 -96 -103 -14 -27 -19 -58 -19 -113 0
-87 20 -130 86 -180 35 -27 46 -30 114 -30 67 0 79 3 112 28 48 37 69 71 84
136 25 105 -19 217 -100 255 -36 17 -145 21 -181 7z m154 -102 c32 -31 37 -54
32 -134 -3 -52 -24 -83 -67 -101 -99 -42 -182 93 -125 205 35 68 109 82 160
30z"/>
<path d="M3110 1943 c-6 -132 -1 -416 7 -424 6 -6 26 -9 44 -7 l34 3 0 144 c0
162 10 184 47 104 12 -26 40 -75 63 -108 22 -33 49 -77 59 -97 21 -38 65 -56
107 -43 19 6 20 12 14 123 -4 65 -2 155 3 202 7 58 7 89 0 97 -12 14 -84 18
-92 5 -3 -5 0 -66 6 -135 6 -70 8 -130 4 -134 -13 -13 -39 12 -67 64 -16 29
-50 87 -77 130 l-49 78 -51 3 c-29 2 -52 -1 -52 -5z"/>
<path d="M2412 1391 c-11 -7 -14 -74 -13 -351 1 -189 4 -347 7 -352 7 -12 92
-10 115 2 10 6 19 16 19 22 0 12 24 52 119 198 30 47 64 101 76 120 31 54 95
155 142 223 91 132 93 154 15 142 -54 -8 -66 -17 -102 -79 -26 -46 -102 -169
-132 -215 -10 -14 -21 -33 -25 -41 -4 -8 -23 -42 -43 -75 -19 -33 -41 -72 -48
-87 -6 -16 -18 -28 -26 -28 -13 0 -15 37 -13 263 l2 262 -40 3 c-22 1 -46 -2
-53 -7z"/>
<path d="M3542 1388 c-7 -7 -12 -34 -12 -60 l0 -48 91 0 90 0 -2 -297 -2 -298
54 0 54 0 -1 40 c0 22 -2 155 -4 295 l-3 255 79 2 c43 1 85 2 92 2 18 1 16 95
-3 111 -8 6 -23 9 -35 5 -25 -8 -343 -9 -368 -1 -10 4 -23 1 -30 -6z"/>
<path d="M3057 1383 c-4 -3 -7 -163 -7 -355 l0 -348 195 0 195 0 1 33 c2 44
-1 71 -9 79 -4 4 -61 3 -127 -1 -96 -7 -122 -6 -131 5 -6 7 -10 52 -10 101 l1
88 107 -4 107 -3 7 26 c3 14 3 42 0 62 l-7 35 -107 -3 -107 -3 0 90 0 90 125
2 c69 1 131 2 138 3 8 0 12 18 12 55 l0 55 -188 0 c-104 0 -192 -3 -195 -7z"/>
</g>
</svg>
