<?xml version="1.0" standalone="no"?>
<!DOCTYPE svg PUBLIC "-//W3C//DTD SVG 20010904//EN"
 "http://www.w3.org/TR/2001/REC-SVG-20010904/DTD/svg10.dtd">
<svg version="1.0" xmlns="http://www.w3.org/2000/svg"
 width="236.000000pt" height="147.000000pt" viewBox="0 0 236.000000 147.000000"
 preserveAspectRatio="xMidYMid meet">
<metadata>
Created by potrace 1.10, written by Peter Selinger 2001-2011
</metadata>
<g transform="translate(0.000000,147.000000) scale(0.100000,-0.100000)"
fill="#000000" stroke="none">
<path d="M1450 1281 c-36 -10 -100 -30 -142 -45 -121 -42 -165 -47 -463 -56
-348 -11 -418 -26 -537 -117 -126 -96 -219 -314 -203 -473 17 -159 76 -256
198 -324 67 -38 193 -77 242 -75 21 1 10 6 -38 19 -150 40 -254 119 -296 226
-32 81 -40 225 -17 314 22 90 77 198 123 242 59 57 148 105 226 123 46 11 157
20 307 26 256 10 283 13 503 65 183 42 326 47 447 13 105 -29 240 -103 317
-173 129 -119 130 -173 5 -293 -42 -40 -72 -73 -66 -73 5 0 15 5 22 12 6 6 14
9 18 6 11 -12 -74 -86 -117 -101 -24 -9 -92 -21 -152 -26 -114 -11 -163 -29
-207 -75 l-24 -27 44 20 c45 19 187 47 196 38 8 -7 -175 -175 -233 -214 -28
-19 -77 -43 -110 -54 l-58 -20 62 5 c115 8 230 90 320 227 37 58 47 68 80 74
68 12 178 70 206 107 15 19 27 42 27 51 0 9 22 37 49 62 55 52 81 98 81 145 0
44 -20 77 -87 141 -99 96 -233 176 -377 224 -92 31 -243 34 -346 6z"/>
<path d="M1646 1189 c-14 -11 -33 -34 -41 -50 -10 -17 -24 -29 -36 -29 -53 0
-110 -58 -109 -112 1 -20 4 -18 20 13 22 43 90 79 147 79 36 1 37 2 19 15 -19
15 -19 16 9 45 16 17 50 37 75 45 l45 14 -51 0 c-38 1 -58 -5 -78 -20z"/>
<path d="M1782 1145 c-4 -38 -41 -104 -68 -122 -20 -13 -54 -19 -123 -23 -96
-5 -96 -5 -99 -32 -2 -16 1 -28 7 -28 6 0 8 7 5 15 -8 20 14 27 51 16 l30 -8
-35 -11 -35 -12 35 5 c153 23 192 39 223 92 13 23 17 46 14 80 -2 26 -4 39 -5
28z"/>
<path d="M917 1107 c35 -14 70 -30 78 -37 9 -7 18 -10 21 -7 12 12 -76 59
-118 63 -43 5 -43 5 19 -19z"/>
<path d="M910 1060 c0 -4 11 -11 24 -14 13 -3 47 -26 75 -52 59 -53 69 -42 13
14 -34 34 -112 71 -112 52z"/>
<path d="M1873 1016 c3 -8 -1 -20 -10 -27 -13 -11 -17 -10 -29 6 -18 25 -27
14 -15 -18 19 -49 77 -71 115 -44 17 13 17 15 2 45 -21 40 -76 73 -63 38z"/>
<path d="M930 982 c14 -9 50 -37 80 -61 53 -43 53 -37 1 22 -28 31 -72 57 -93
56 -7 0 -2 -8 12 -17z"/>
<path d="M986 847 c61 -67 75 -76 54 -35 -18 34 -51 68 -84 85 -24 13 -18 3
30 -50z"/>
<path d="M1528 859 l-33 -30 43 27 c23 15 42 28 42 30 0 12 -24 0 -52 -27z"/>
<path d="M2133 874 c-8 -23 14 -33 43 -20 22 10 22 12 7 24 -23 17 -42 15 -50
-4z"/>
<path d="M698 849 c59 -29 147 -111 180 -168 24 -41 27 -56 27 -141 0 -84 -3
-101 -27 -145 -26 -49 -58 -84 -108 -119 l-25 -18 25 7 c34 10 89 43 124 74
70 63 95 190 59 297 -23 68 -117 160 -204 202 -37 18 -73 32 -80 32 -8 0 5
-10 29 -21z"/>
<path d="M1878 843 c18 -2 45 -2 60 0 15 2 0 4 -33 4 -33 0 -45 -2 -27 -4z"/>
<path d="M1510 779 c-30 -42 -22 -43 18 -3 20 22 27 34 18 34 -8 0 -24 -14
-36 -31z"/>
<path d="M950 792 c0 -6 5 -14 11 -18 6 -3 24 -27 40 -52 30 -47 40 -43 15 6
-17 32 -66 80 -66 64z"/>
<path d="M2030 790 c0 -7 3 -10 7 -7 3 4 3 10 0 14 -4 3 -7 0 -7 -7z"/>
<path d="M1914 770 c-22 -11 -54 -35 -70 -52 l-29 -32 40 31 c22 17 55 38 73
47 17 9 32 19 32 21 0 7 -1 7 -46 -15z"/>
<path d="M1537 718 c-13 -18 -28 -46 -31 -63 -9 -37 -4 -32 39 39 36 61 31 76
-8 24z"/>
<path d="M1944 705 c-9 -13 -14 -28 -12 -33 1 -5 10 6 19 24 19 40 16 44 -7 9z"/>
<path d="M952 705 c2 -5 11 -26 20 -45 8 -19 18 -44 22 -54 11 -33 16 -12 5
26 -5 20 -19 47 -30 60 -11 13 -19 19 -17 13z"/>
<path d="M1581 654 c-22 -16 -51 -70 -51 -96 0 -7 10 3 21 22 12 19 33 47 47
63 28 30 19 36 -17 11z"/>
<path d="M1633 590 c-30 -18 -70 -66 -62 -74 2 -2 26 18 53 45 55 54 56 58 9
29z"/>
<path d="M1099 348 c16 -24 45 -58 65 -77 43 -41 35 -51 -41 -51 -28 0 -54 -4
-57 -9 -3 -5 58 -12 137 -15 78 -3 183 -8 232 -11 l90 -4 -90 22 c-49 13 -110
31 -134 40 -53 22 -169 96 -195 125 -33 38 -38 24 -7 -20z"/>
<path d="M770 241 c-16 -5 12 -9 79 -12 91 -4 105 -7 121 -27 17 -21 18 -21
23 -2 9 35 -28 50 -118 49 -44 -1 -91 -4 -105 -8z"/>
<path d="M1580 240 c-8 -5 -26 -10 -40 -11 -20 -1 -19 -3 10 -9 18 -5 40 -16
47 -26 10 -14 13 -15 13 -3 0 8 -5 20 -12 27 -18 18 12 16 40 -4 20 -13 22
-13 22 0 0 28 -51 45 -80 26z"/>
<path d="M835 206 c33 -6 66 -15 73 -19 7 -5 12 -3 12 6 0 21 -23 27 -88 26
l-57 -1 60 -12z"/>
<path d="M610 200 c24 -8 198 -14 189 -6 -2 2 -51 6 -109 9 -59 3 -94 2 -80
-3z"/>
</g>
</svg>
