<?xml version="1.0" standalone="no"?>
<!DOCTYPE svg PUBLIC "-//W3C//DTD SVG 20010904//EN"
 "http://www.w3.org/TR/2001/REC-SVG-20010904/DTD/svg10.dtd">
<svg version="1.0" xmlns="http://www.w3.org/2000/svg"
 width="300.000000pt" height="300.000000pt" viewBox="0 0 300.000000 300.000000"
 preserveAspectRatio="xMidYMid meet">
<metadata>
Created by potrace 1.10, written by Peter Selinger 2001-2011
</metadata>
<g transform="translate(0.000000,300.000000) scale(0.050000,-0.050000)"
fill="#000000" stroke="none">
<path d="M1500 3000 l0 -1120 50 0 50 0 0 1120 0 1120 -50 0 -50 0 0 -1120z"/>
<path d="M1700 3000 c0 -982 4 -1120 30 -1120 26 0 30 138 30 1120 0 982 -4
1120 -30 1120 -26 0 -30 -138 -30 -1120z"/>
<path d="M1800 3000 c0 -733 7 -1120 20 -1120 13 0 20 387 20 1120 0 733 -7
1120 -20 1120 -13 0 -20 -387 -20 -1120z"/>
<path d="M1940 3000 c0 -733 7 -1120 20 -1120 13 0 20 387 20 1120 0 733 -7
1120 -20 1120 -13 0 -20 -387 -20 -1120z"/>
<path d="M2040 3000 c0 -733 7 -1120 20 -1120 13 0 20 387 20 1120 0 733 -7
1120 -20 1120 -13 0 -20 -387 -20 -1120z"/>
<path d="M2180 3000 l0 -1120 49 0 50 0 0 1120 0 1120 -49 0 -50 0 0 -1120z"/>
<path d="M2309 3000 c0 -621 3 -876 6 -565 3 311 3 819 0 1130 -3 311 -6 57
-6 -565z"/>
<path d="M2361 3000 c1 -955 5 -1120 29 -1120 24 0 29 165 29 1120 0 969 -4
1120 -29 1120 -25 0 -29 -151 -29 -1120z"/>
<path d="M2440 3000 l0 -1120 100 0 100 0 0 1120 0 1120 -100 0 -100 0 0
-1120z"/>
<path d="M2700 3000 c0 -982 4 -1120 30 -1120 26 0 30 138 30 1120 0 982 -4
1120 -30 1120 -26 0 -30 -138 -30 -1120z"/>
<path d="M2849 3000 c0 -621 3 -876 6 -565 3 311 3 819 0 1130 -3 311 -6 57
-6 -565z"/>
<path d="M2880 3000 l0 -1120 90 0 90 0 0 1120 0 1120 -90 0 -90 0 0 -1120z"/>
<path d="M3160 3000 l0 -1120 50 0 50 0 0 1120 0 1120 -50 0 -50 0 0 -1120z"/>
<path d="M3300 3000 c0 -733 7 -1120 20 -1120 13 0 20 387 20 1120 0 733 -7
1120 -20 1120 -13 0 -20 -387 -20 -1120z"/>
<path d="M3582 3000 l0 -1120 49 0 49 0 0 1120 0 1120 -49 0 -50 0 1 -1120z"/>
<path d="M3700 3000 c0 -733 7 -1120 20 -1120 13 0 20 387 20 1120 0 733 -7
1120 -20 1120 -13 0 -20 -387 -20 -1120z"/>
<path d="M3789 3000 c0 -621 3 -876 6 -565 3 311 3 819 0 1130 -3 311 -6 57
-6 -565z"/>
<path d="M3940 3000 c0 -733 7 -1120 20 -1120 13 0 20 387 20 1120 0 733 -7
1120 -20 1120 -13 0 -20 -387 -20 -1120z"/>
<path d="M4060 3000 l0 -1120 50 0 50 0 0 1120 0 1120 -50 0 -50 0 0 -1120z"/>
<path d="M4209 3000 c0 -621 3 -876 6 -565 3 311 3 819 0 1130 -3 311 -6 57
-6 -565z"/>
<path d="M4260 3000 c0 -733 7 -1120 20 -1120 13 0 20 387 20 1120 0 733 -7
1120 -20 1120 -13 0 -20 -387 -20 -1120z"/>
<path d="M4380 3000 l0 -1120 60 0 60 0 0 1120 0 1120 -60 0 -60 0 0 -1120z"/>
</g>
</svg>
