<?xml version="1.0" standalone="no"?>
<!DOCTYPE svg PUBLIC "-//W3C//DTD SVG 20010904//EN"
 "http://www.w3.org/TR/2001/REC-SVG-20010904/DTD/svg10.dtd">
<svg version="1.0" xmlns="http://www.w3.org/2000/svg"
 width="300.000000pt" height="300.000000pt" viewBox="0 0 300.000000 300.000000"
 preserveAspectRatio="xMidYMid meet">
<metadata>
Created by potrace 1.10, written by Peter Selinger 2001-2011
</metadata>
<g transform="translate(0.000000,300.000000) scale(0.100000,-0.100000)"
fill="#000000" stroke="none">
<path d="M924 2655 c-10 -8 -35 -15 -55 -15 -60 0 -160 -37 -213 -77 -62 -47
-111 -119 -133 -192 -22 -72 -21 -205 1 -291 25 -95 97 -234 166 -320 47 -59
60 -82 60 -110 0 -29 9 -43 60 -92 114 -108 328 -238 426 -258 l52 -11 4 -292
c5 -264 7 -298 26 -358 57 -174 200 -308 377 -354 329 -84 655 170 655 512 l0
72 48 21 c100 44 155 126 156 230 0 183 -186 303 -349 226 -91 -43 -144 -126
-145 -227 0 -101 72 -204 164 -231 l38 -12 -4 -95 c-3 -82 -8 -106 -35 -164
-44 -93 -118 -169 -211 -214 -64 -32 -85 -37 -161 -41 -186 -9 -342 81 -420
240 -43 88 -51 158 -51 440 l0 246 43 7 c94 16 228 90 383 211 100 77 124 107
124 149 0 23 11 46 36 76 234 280 275 613 98 794 -55 57 -153 104 -231 112
-32 3 -67 12 -78 19 -56 39 -135 -3 -135 -71 0 -78 92 -114 147 -59 23 23 32
26 70 20 62 -8 135 -49 177 -97 121 -142 84 -397 -91 -626 -48 -64 -59 -73
-88 -73 -20 0 -46 -10 -68 -27 -283 -220 -366 -260 -482 -234 -66 15 -193 90
-312 186 -65 52 -97 71 -127 75 -35 4 -46 13 -93 75 -148 193 -198 416 -127
562 32 67 102 129 167 148 70 21 90 19 117 -10 53 -56 150 -17 150 60 0 69
-82 111 -136 70z m1474 -1401 c32 -24 72 -98 72 -134 0 -14 -10 -46 -22 -70
-42 -83 -157 -115 -227 -63 -99 74 -95 200 9 271 29 20 44 23 88 20 31 -3 64
-13 80 -24z"/>
<path d="M2250 1180 c-33 -33 -30 -85 6 -117 75 -68 176 31 113 111 -26 33
-88 37 -119 6z"/>
<path d="M1403 2450 c-57 -23 -72 -162 -23 -215 59 -63 151 3 136 97 -7 45
-42 118 -55 118 -5 0 -15 2 -23 4 -7 3 -23 1 -35 -4z"/>
<path d="M1193 2396 c-24 -21 -28 -32 -31 -93 -4 -63 -2 -72 23 -101 15 -18
36 -32 46 -32 32 0 74 27 87 55 15 33 15 41 -4 104 -26 89 -68 112 -121 67z"/>
<path d="M1546 2259 c-50 -59 -28 -167 38 -189 97 -32 150 99 81 198 -25 35
-86 31 -119 -9z"/>
<path d="M1050 2253 c-30 -11 -60 -47 -66 -79 -7 -39 25 -117 54 -133 59 -32
132 8 132 70 0 47 -37 117 -71 134 -15 8 -29 15 -31 14 -2 0 -10 -3 -18 -6z"/>
<path d="M1314 2130 c-12 -5 -39 -29 -60 -55 -21 -26 -57 -60 -81 -76 -53 -37
-70 -84 -54 -145 21 -77 67 -97 140 -59 63 32 99 32 160 0 73 -39 123 -18 140
57 13 55 2 96 -33 126 -17 15 -58 55 -91 89 -63 65 -87 77 -121 63z"/>
</g>
</svg>
