<?xml version="1.0" standalone="no"?>
<!DOCTYPE svg PUBLIC "-//W3C//DTD SVG 20010904//EN"
 "http://www.w3.org/TR/2001/REC-SVG-20010904/DTD/svg10.dtd">
<svg version="1.0" xmlns="http://www.w3.org/2000/svg"
 width="381.000000pt" height="336.000000pt" viewBox="0 0 381.000000 336.000000"
 preserveAspectRatio="xMidYMid meet">
<metadata>
Created by potrace 1.10, written by Peter Selinger 2001-2011
</metadata>
<g transform="translate(0.000000,336.000000) scale(0.100000,-0.100000)"
fill="#000000" stroke="none">
<path d="M838 2787 c-57 -26 -88 -94 -88 -198 0 -92 24 -201 60 -268 87 -164
122 -246 146 -336 23 -87 27 -120 27 -250 0 -253 -60 -469 -181 -659 -18 -28
-28 -54 -24 -58 5 -5 40 -8 78 -6 l69 3 45 91 c52 105 92 161 127 177 19 9 26
8 34 -4 13 -18 2 -144 -17 -188 -8 -18 -14 -44 -14 -57 0 -23 4 -24 58 -24 32
0 65 6 74 13 8 6 34 40 56 73 184 276 478 505 734 573 116 31 178 34 255 16
94 -24 102 -33 80 -93 -55 -145 -62 -253 -22 -340 l24 -53 -25 -9 c-14 -6 -39
-10 -56 -10 -98 0 -208 -68 -208 -129 0 -17 1 -32 3 -33 1 -1 142 -5 312 -8
l310 -5 -2 -37 c-4 -58 -58 -178 -111 -244 -95 -118 -244 -208 -474 -285 -100
-34 -128 -47 -128 -61 0 -10 9 -20 23 -22 208 -45 379 -35 545 30 221 87 394
254 507 489 85 178 111 305 102 506 -5 120 -12 166 -45 289 -14 56 -88 206
-133 274 -52 77 -166 195 -244 250 -152 110 -308 159 -500 159 -132 0 -213
-16 -332 -63 -128 -51 -301 -182 -364 -275 -38 -56 -49 -46 -49 43 0 89 22
177 76 307 33 80 38 102 42 196 4 97 2 111 -19 155 -26 51 -69 84 -110 84 -14
0 -47 -14 -74 -32 l-48 -32 -61 22 c-78 28 -143 28 -228 0 -61 -20 -69 -20
-85 -6 -26 23 -79 48 -100 48 -10 -1 -30 -6 -45 -13z m280 -165 c53 -28 64
-27 137 3 119 49 199 22 246 -84 59 -135 -7 -260 -197 -368 -41 -23 -61 -28
-119 -28 -92 0 -167 36 -252 120 -77 77 -101 143 -84 227 14 64 45 114 85 140
41 25 126 21 184 -10z"/>
<path d="M956 2511 c-52 -54 -52 -140 -1 -195 31 -33 51 -33 60 2 10 41 53 92
91 108 95 40 194 -4 227 -101 17 -49 27 -52 63 -22 62 53 67 140 12 202 -26
30 -36 35 -75 35 -30 0 -55 -7 -75 -22 -42 -30 -94 -30 -147 -2 -63 34 -119
32 -155 -5z"/>
<path d="M1140 2362 l-22 -18 25 -30 25 -29 26 24 c33 31 33 49 0 61 -32 13
-28 13 -54 -8z"/>
</g>
</svg>
