<?xml version="1.0" standalone="no"?>
<!DOCTYPE svg PUBLIC "-//W3C//DTD SVG 20010904//EN"
 "http://www.w3.org/TR/2001/REC-SVG-20010904/DTD/svg10.dtd">
<svg version="1.0" xmlns="http://www.w3.org/2000/svg"
 width="99.000000pt" height="90.000000pt" viewBox="0 0 99.000000 90.000000"
 preserveAspectRatio="xMidYMid meet">
<metadata>
Created by potrace 1.10, written by Peter Selinger 2001-2011
</metadata>
<g transform="translate(0.000000,90.000000) scale(0.100000,-0.100000)"
fill="#000000" stroke="none">
<path d="M507 660 c-54 -21 -147 -78 -147 -90 0 -10 63 -21 114 -21 64 1 98
-46 60 -83 -8 -9 -23 -16 -32 -15 -13 0 -12 2 4 9 28 11 37 26 29 50 -8 24
-38 34 -65 20 -16 -8 -25 -7 -42 5 -28 19 -100 20 -137 1 -37 -20 -78 -81
-107 -161 -52 -144 -14 -219 116 -225 118 -7 153 12 175 95 8 28 14 40 14 28
2 -43 -30 -103 -63 -120 -72 -36 -88 -73 -32 -73 48 0 111 52 137 113 7 16 15
24 18 18 9 -14 139 -26 185 -17 20 4 52 20 71 37 91 80 92 280 2 378 -62 67
-200 91 -300 51z m-243 -264 c-3 -9 -10 -16 -14 -16 -17 0 -21 19 -8 39 10 16
14 18 20 7 5 -8 5 -21 2 -30z m115 -18 c-10 -19 -29 -24 -29 -8 0 6 5 19 12
30 16 24 31 4 17 -22z m-87 -104 l23 6 -22 -11 c-15 -8 -23 -21 -23 -37 0 -22
3 -24 35 -20 42 5 47 -7 5 -15 -33 -7 -90 9 -90 26 0 7 4 7 12 -1 19 -19 28
-14 28 18 0 17 -4 30 -10 30 -5 0 -10 5 -10 11 0 8 4 8 15 -1 8 -6 24 -9 37
-6z"/>
<path d="M241 552 c-17 -32 2 -42 31 -17 15 13 24 26 21 29 -13 12 -43 5 -52
-12z"/>
<path d="M594 159 c-14 -16 -14 -18 3 -27 23 -12 74 2 95 25 15 17 13 18 -33
19 -35 1 -53 -4 -65 -17z"/>
<path d="M170 145 c-23 -28 2 -41 51 -26 45 14 43 27 -7 37 -21 4 -34 1 -44
-11z"/>
</g>
</svg>
