<?xml version="1.0" standalone="no"?>
<!DOCTYPE svg PUBLIC "-//W3C//DTD SVG 20010904//EN"
 "http://www.w3.org/TR/2001/REC-SVG-20010904/DTD/svg10.dtd">
<svg version="1.0" xmlns="http://www.w3.org/2000/svg"
 width="300.000000pt" height="300.000000pt" viewBox="0 0 300.000000 300.000000"
 preserveAspectRatio="xMidYMid meet">
<metadata>
Created by potrace 1.10, written by Peter Selinger 2001-2011
</metadata>
<g transform="translate(0.000000,300.000000) scale(0.050000,-0.050000)"
fill="#000000" stroke="none">
<path d="M1950 4337 c-649 -548 -1182 -1004 -1185 -1013 -4 -10 98 -97 224
-195 l231 -178 0 -114 0 -114 55 17 c242 74 403 61 521 -42 36 -32 78 -58 93
-58 48 0 111 -101 111 -177 0 -39 15 -110 33 -158 41 -109 20 -164 -91 -234
-115 -72 -128 -106 -100 -264 13 -76 18 -197 11 -280 -12 -143 -11 -147 33
-147 170 0 194 -235 45 -430 -71 -94 -29 -110 281 -110 233 0 251 3 237 35
-72 171 -26 328 151 515 63 66 151 175 196 243 212 315 471 300 703 -40 53
-79 135 -179 181 -223 169 -162 207 -305 130 -495 -13 -32 6 -35 255 -35 l269
0 -27 104 c-38 146 -37 155 55 423 93 270 97 418 16 577 -73 143 20 269 131
177 42 -35 88 -3 130 91 90 204 277 -33 293 -372 8 -161 36 -302 73 -370 32
-57 33 -18 34 693 l1 753 230 194 c127 106 230 200 230 208 0 12 -478 419
-2060 1754 l-310 262 -1180 -997z m1484 162 c418 -203 519 -743 203 -1088
-427 -468 -1197 -167 -1197 469 0 515 528 844 994 619z m-480 -2027 c229 -247
32 -696 -236 -537 -69 40 -158 206 -158 294 1 279 230 421 394 243z m670 10
c208 -231 -88 -727 -319 -533 -79 67 -113 169 -98 295 31 266 269 402 417 238z
m-1152 -473 c83 -62 128 -163 128 -288 0 -327 -424 -253 -456 80 -22 238 145
344 328 208z m1590 -7 c146 -147 18 -467 -199 -496 -242 -33 -282 363 -52 515
88 58 180 51 251 -19z"/>
<path d="M2995 4479 c-303 -75 -488 -328 -470 -639 44 -761 1161 -768 1211 -8
26 412 -354 744 -741 647z m305 -298 l0 -139 145 -6 145 -6 0 -150 0 -150
-144 -6 -144 -6 -6 -144 -6 -144 -160 0 -160 0 -6 144 -6 144 -144 6 -144 6 0
150 0 150 145 6 145 6 0 139 0 139 170 0 170 0 0 -139z"/>
<path d="M1480 2716 c-27 -11 -83 -20 -124 -18 -66 3 -80 -5 -123 -72 -27 -42
-76 -102 -111 -135 -75 -71 -77 -101 -12 -223 28 -52 50 -113 50 -136 0 -34
10 -28 53 33 102 143 109 40 15 -239 -40 -118 -48 -183 -48 -374 l0 -231 -61
12 c-164 33 -182 -122 -39 -342 l101 -154 -96 17 c-246 42 -668 -26 -650 -104
5 -21 1234 -37 1371 -17 81 12 119 59 72 89 -15 9 -44 12 -63 6 -52 -16 -43
17 28 104 177 220 177 400 0 384 l-72 -6 9 90 c21 198 6 429 -37 549 -47 131
-54 191 -23 191 11 0 20 -36 20 -80 0 -84 29 -107 50 -40 7 22 52 63 100 91
105 62 121 99 80 195 -16 40 -30 105 -30 143 0 73 -55 151 -107 151 -14 0 -47
23 -73 50 -72 76 -190 104 -280 66z"/>
<path d="M4700 2191 c-11 -30 -20 -65 -20 -79 0 -39 -155 -85 -185 -55 -71 71
-113 16 -62 -83 91 -174 90 -349 -4 -610 -145 -405 -65 -612 245 -638 374 -31
509 91 514 466 2 183 7 210 47 253 74 79 40 153 -38 82 -73 -66 -97 -139 -97
-297 0 -130 -37 -290 -67 -290 -4 0 -4 56 1 125 9 110 2 147 -62 307 -40 100
-72 208 -73 240 0 32 -13 80 -27 107 -16 28 -23 79 -17 124 22 161 -112 461
-155 348z"/>
</g>
</svg>
