<?xml version="1.0" standalone="no"?>
<!DOCTYPE svg PUBLIC "-//W3C//DTD SVG 20010904//EN"
 "http://www.w3.org/TR/2001/REC-SVG-20010904/DTD/svg10.dtd">
<svg version="1.0" xmlns="http://www.w3.org/2000/svg"
 width="300.000000pt" height="300.000000pt" viewBox="0 0 300.000000 300.000000"
 preserveAspectRatio="xMidYMid meet">
<metadata>
Created by potrace 1.10, written by Peter Selinger 2001-2011
</metadata>
<g transform="translate(0.000000,300.000000) scale(0.100000,-0.100000)"
fill="#000000" stroke="none">
<path d="M1325 2959 c-488 -51 -938 -370 -1149 -814 -85 -177 -122 -313 -138
-502 -32 -372 66 -725 282 -1008 166 -218 367 -372 635 -485 78 -33 194 -64
313 -84 107 -19 364 -21 444 -5 246 50 315 72 474 152 147 74 248 149 376 279
221 223 360 513 402 837 21 155 20 227 -4 386 -55 374 -226 679 -517 922 -159
133 -395 249 -604 297 -145 33 -345 43 -514 25z m436 -59 c208 -42 369 -107
534 -215 93 -61 232 -187 311 -281 99 -119 166 -236 244 -429 15 -36 38 -118
57 -200 26 -113 25 -415 0 -533 -41 -185 -118 -367 -223 -522 -136 -202 -320
-363 -539 -472 -76 -37 -193 -86 -230 -95 -291 -72 -461 -79 -720 -28 -55 11
-235 74 -303 107 -155 74 -275 160 -402 287 -168 169 -268 332 -345 557 -91
271 -93 586 -4 854 73 223 191 413 359 580 329 328 820 480 1261 390z"/>
<path d="M773 2525 c-156 -125 -223 -263 -182 -372 12 -34 83 -109 121 -129
31 -16 64 -18 73 -4 14 23 11 90 -6 145 -26 84 -24 157 7 230 37 88 38 92 13
65 -31 -35 -71 -126 -76 -174 -4 -29 4 -66 25 -127 30 -86 32 -139 7 -139 -25
0 -124 119 -136 162 -28 107 42 232 201 360 25 20 42 39 39 42 -3 3 -42 -24
-86 -59z"/>
<path d="M1569 2568 c-20 -38 14 -338 36 -316 3 3 -1 51 -10 106 -34 229 -11
252 105 106 32 -41 63 -82 69 -92 5 -9 13 -14 16 -10 16 16 -165 228 -195 228
-5 0 -15 -10 -21 -22z"/>
<path d="M2212 2563 c-41 -36 -152 -185 -145 -196 3 -5 20 14 38 41 19 27 56
73 82 102 61 66 83 64 83 -7 -1 -48 -12 -144 -25 -218 -5 -27 -4 -37 3 -30 24
23 52 277 36 319 -9 24 -36 19 -72 -11z"/>
<path d="M1295 2558 c60 -42 182 -174 204 -220 51 -107 38 -172 -54 -267 l-64
-66 -10 28 c-9 23 -5 44 20 120 24 72 30 103 25 140 -6 54 -36 120 -73 163
-27 32 -26 27 11 -61 29 -69 34 -150 12 -213 -22 -61 -27 -104 -15 -139 14
-43 33 -47 81 -17 161 102 171 256 26 411 -56 59 -162 143 -182 143 -6 0 3
-10 19 -22z"/>
<path d="M873 2310 c-13 -5 -23 -11 -23 -12 0 -2 24 -3 54 -3 55 0 63 9 16 19
-14 3 -35 1 -47 -4z"/>
<path d="M1193 2310 c-13 -5 -23 -11 -23 -12 0 -2 24 -3 54 -3 55 0 63 9 16
19 -14 3 -35 1 -47 -4z"/>
<path d="M881 2281 c-17 -11 -6 -48 20 -62 46 -24 79 20 41 54 -20 19 -40 21
-61 8z"/>
<path d="M1202 2274 c-44 -31 -11 -80 37 -55 18 10 38 48 29 56 -14 12 -47 12
-66 -1z"/>
<path d="M1679 2161 c-49 -33 -115 -98 -108 -106 3 -3 37 22 75 55 58 51 75
60 107 60 28 0 44 -7 62 -26 24 -26 31 -44 55 -136 7 -28 21 -53 34 -62 20
-12 25 -12 47 5 20 16 22 20 9 29 -8 5 -29 10 -45 10 -27 0 -31 4 -33 29 -3
42 -37 117 -66 146 -34 34 -81 33 -137 -4z"/>
<path d="M2031 2162 c-27 -26 -71 -126 -71 -159 0 -29 15 -1 34 61 22 72 53
106 98 106 39 0 65 -16 130 -78 26 -25 51 -43 54 -39 8 8 -78 91 -121 118 -44
28 -91 25 -124 -9z"/>
<path d="M1720 2140 c-11 -11 -20 -23 -20 -27 1 -26 40 -49 90 -54 33 -4 35
-2 38 28 3 28 -2 36 -30 53 -41 25 -53 25 -78 0z"/>
<path d="M2054 2141 c-33 -20 -50 -64 -30 -80 15 -11 66 -3 94 15 31 20 30 62
-4 74 -31 12 -23 13 -60 -9z m26 -43 c0 -9 -4 -20 -10 -23 -6 -4 -10 9 -10 32
0 28 3 34 10 23 5 -8 10 -23 10 -32z"/>
<path d="M810 2094 c0 -6 3 -14 8 -18 4 -4 12 -22 19 -39 11 -31 11 -31 12 -6
1 15 -8 37 -19 50 -10 13 -19 19 -20 13z"/>
<path d="M1308 2083 c-18 -21 -33 -87 -18 -78 6 3 10 14 10 23 0 10 7 28 16
40 19 28 13 39 -8 15z"/>
<path d="M885 2053 c-4 -10 -9 -52 -12 -93 -3 -60 -1 -82 14 -110 16 -32 23
-35 73 -41 30 -3 67 -11 83 -17 22 -9 35 -9 66 4 21 8 49 13 62 11 69 -13 105
46 96 160 -3 39 -10 80 -16 90 -8 13 -10 -1 -5 -57 12 -145 -20 -193 -111
-166 -47 15 -62 7 -22 -11 21 -10 21 -10 -10 -17 -18 -4 -47 -5 -63 -1 l-30 7
22 18 c23 19 22 19 -25 5 -92 -27 -124 17 -114 157 6 79 5 92 -8 61z"/>
<path d="M1017 1988 c-16 -6 -30 -20 -34 -36 -5 -20 0 -31 26 -54 19 -17 43
-28 61 -28 18 0 42 11 61 28 44 39 36 76 -19 91 -44 13 -58 13 -95 -1z m14
-48 c21 -12 26 -40 6 -40 -17 0 -37 20 -37 37 0 16 5 16 31 3z m109 -3 c0 -17
-20 -37 -37 -37 -19 0 -16 27 5 39 23 14 32 13 32 -2z"/>
<path d="M1495 1993 c-56 -11 -67 -14 -63 -18 2 -2 42 0 88 4 99 10 189 0 251
-29 35 -16 38 -19 14 -15 -121 23 -234 15 -324 -22 -54 -23 -30 -24 39 -2 87
27 191 34 257 16 46 -12 53 -12 58 1 3 8 4 16 3 17 -2 1 -28 12 -58 25 -44 19
-74 25 -150 26 -52 1 -104 0 -115 -3z"/>
<path d="M2107 1977 c-37 -13 -73 -30 -80 -37 -10 -10 -8 -11 8 -5 111 42 135
47 216 47 47 0 105 -3 130 -6 36 -6 41 -5 25 5 -10 6 -67 13 -125 16 -93 3
-115 1 -174 -20z"/>
<path d="M2085 1939 c-22 -5 -44 -15 -50 -21 -7 -8 -4 -9 10 -3 85 32 201 30
303 -5 63 -22 101 -21 46 1 -96 38 -218 49 -309 28z"/>
<path d="M1548 1886 c-99 -40 -132 -56 -125 -62 2 -2 51 14 108 38 107 42 166
51 239 35 27 -6 32 -5 22 5 -7 7 -44 14 -85 15 -63 3 -83 -1 -159 -31z"/>
<path d="M1914 1893 c-9 -44 -35 -64 -89 -70 -25 -3 -45 -9 -45 -14 0 -4 21
-5 48 -2 48 5 92 26 92 43 0 5 11 -2 25 -15 16 -17 35 -25 59 -25 19 0 41 -3
50 -6 9 -3 16 -1 16 5 0 6 -13 11 -29 11 -23 0 -91 17 -91 23 0 1 -7 20 -15
42 l-14 40 -7 -32z"/>
<path d="M2073 1913 c-13 -2 -23 -9 -23 -14 0 -5 11 -6 28 -2 63 18 135 7 240
-35 110 -45 116 -47 107 -33 -3 5 -52 28 -109 50 -103 40 -165 49 -243 34z"/>
<path d="M495 1679 c-134 -18 -259 -67 -288 -113 -11 -17 -12 -71 -8 -273 6
-249 6 -252 30 -277 66 -70 206 -106 409 -106 227 1 393 51 435 131 15 30 17
61 16 256 -1 268 -3 272 -99 321 -36 18 -96 39 -135 47 -91 19 -272 26 -360
14z m343 -54 c81 -16 182 -61 190 -83 3 -10 -15 -13 -83 -11 -85 2 -115 -7
-100 -31 4 -7 37 -10 93 -9 48 1 89 -2 91 -7 7 -14 -79 -62 -144 -80 -92 -26
-341 -31 -446 -9 -146 29 -222 79 -204 134 11 33 109 79 216 100 76 15 303 12
387 -4z m204 -377 c-2 -100 -7 -189 -12 -198 -11 -21 -81 -55 -155 -76 -90
-25 -321 -31 -418 -10 -98 20 -172 52 -197 84 -18 22 -20 41 -20 199 0 96 3
173 8 171 125 -64 207 -81 397 -80 166 1 271 21 349 66 22 13 43 24 46 25 3 1
4 -81 2 -181z"/>
<path d="M656 1304 c-36 -36 -28 -114 12 -114 42 0 72 71 46 108 -18 26 -37
28 -58 6z"/>
<path d="M542 1298 c-16 -16 -15 -69 3 -91 8 -11 23 -17 37 -15 19 2 24 10 26
40 5 63 -32 100 -66 66z"/>
<path d="M462 1218 c-28 -28 4 -112 40 -106 37 5 46 33 23 75 -21 40 -43 51
-63 31z"/>
<path d="M726 1188 c-21 -29 -20 -72 0 -89 14 -11 20 -9 41 15 31 36 29 89 -4
94 -13 2 -27 -5 -37 -20z"/>
<path d="M563 1116 c-15 -12 -38 -28 -50 -35 -35 -18 -30 -57 10 -81 41 -26
171 -28 205 -4 32 22 28 37 -28 94 -57 58 -91 64 -137 26z m107 -48 c11 -12
20 -27 20 -34 0 -17 -32 -26 -64 -19 -14 3 -37 7 -51 10 -29 6 -32 21 -7 46
24 25 77 24 102 -3z"/>
<path d="M2195 1623 c-132 -28 -212 -93 -186 -150 7 -14 11 -93 11 -196 1
-182 1 -184 53 -224 125 -96 550 -81 655 23 l32 32 0 205 c0 233 -1 237 -85
276 -107 50 -331 66 -480 34z m287 -23 c95 -11 184 -40 220 -71 l23 -20 -75 3
c-41 1 -81 -1 -88 -6 -27 -16 2 -26 79 -26 43 0 79 -4 79 -9 0 -18 -105 -61
-184 -76 -193 -37 -455 7 -489 83 -10 22 -8 27 21 53 35 31 108 56 204 68 90
12 113 12 210 1z m240 -327 c-3 -125 -7 -162 -19 -175 -35 -39 -196 -78 -320
-78 -122 0 -267 37 -308 78 -24 24 -25 28 -25 174 l0 148 23 -14 c128 -80 520
-78 619 4 12 11 25 19 28 20 3 0 3 -71 2 -157z"/>
<path d="M2408 1313 c-9 -35 3 -83 21 -83 17 0 41 18 41 31 0 4 -13 22 -29 39
-25 28 -29 29 -33 13z"/>
<path d="M2330 1266 c0 -36 4 -46 20 -51 29 -9 43 3 35 34 -6 24 -36 61 -50
61 -3 0 -5 -20 -5 -44z"/>
<path d="M2520 1268 c0 -10 -4 -18 -8 -18 -4 0 -13 -14 -19 -30 -10 -26 -9
-32 6 -39 23 -13 51 5 51 32 -1 28 -29 81 -30 55z"/>
<path d="M2270 1192 c0 -4 9 -22 20 -39 22 -36 41 -41 61 -17 12 14 10 19 -14
38 -26 21 -67 32 -67 18z"/>
<path d="M2408 1169 c-10 -5 -18 -17 -18 -26 0 -9 -7 -25 -16 -35 -39 -43 46
-65 116 -30 44 22 51 48 15 62 -14 5 -28 17 -31 25 -7 17 -41 19 -66 4z"/>
<path d="M1480 1038 c-156 -7 -232 -22 -320 -66 -94 -46 -110 -78 -154 -297
-21 -103 -35 -198 -32 -210 22 -86 236 -170 466 -181 204 -11 452 21 576 72
52 22 123 80 129 107 9 35 -53 356 -78 407 -34 66 -120 121 -233 148 -108 26
-166 29 -354 20z m346 -68 c125 -33 204 -96 204 -165 0 -13 4 -25 8 -27 5 -2
21 -70 36 -153 l27 -150 -36 -31 c-67 -56 -209 -92 -419 -106 -116 -8 -188 -8
-262 0 -132 15 -278 61 -329 105 l-38 33 38 186 c45 219 57 242 153 278 98 37
179 48 363 49 146 1 188 -2 255 -19z"/>
<path d="M1146 831 c-13 -20 7 -38 82 -73 110 -53 140 -59 302 -65 159 -6 265
8 355 47 60 26 85 47 85 72 0 21 -32 25 -49 4 -16 -19 -114 -53 -195 -67 -91
-15 -313 -6 -385 16 -30 9 -78 30 -106 46 -53 30 -80 36 -89 20z"/>
<path d="M1282 637 c-24 -25 -29 -76 -10 -95 9 -9 9 -15 0 -24 -7 -7 -12 -29
-12 -50 0 -30 6 -41 27 -55 39 -26 102 -23 121 5 14 21 21 22 146 22 112 0
138 -3 171 -20 50 -26 68 -25 100 3 23 19 26 31 30 100 5 88 -8 121 -52 130
-32 6 -90 -9 -100 -27 -6 -10 -46 -15 -146 -18 -133 -5 -138 -5 -149 16 -15
29 -28 36 -69 36 -24 0 -42 -7 -57 -23z m89 -49 c7 -13 17 -26 23 -31 6 -4 81
-4 166 -1 135 5 157 8 172 25 9 11 29 19 47 19 35 0 40 -19 20 -64 -9 -20 -9
-29 1 -41 11 -13 10 -19 -4 -33 -16 -16 -19 -16 -56 6 -36 20 -51 22 -195 22
-147 0 -157 -1 -162 -19 -10 -40 -73 -35 -73 5 0 12 5 26 10 29 14 8 13 48 -1
62 -16 16 -3 43 20 43 11 0 26 -10 32 -22z"/>
</g>
</svg>
