<?xml version="1.0" standalone="no"?>
<!DOCTYPE svg PUBLIC "-//W3C//DTD SVG 20010904//EN"
 "http://www.w3.org/TR/2001/REC-SVG-20010904/DTD/svg10.dtd">
<svg version="1.0" xmlns="http://www.w3.org/2000/svg"
 width="158.000000pt" height="154.000000pt" viewBox="0 0 158.000000 154.000000"
 preserveAspectRatio="xMidYMid meet">
<metadata>
Created by potrace 1.10, written by Peter Selinger 2001-2011
</metadata>
<g transform="translate(0.000000,154.000000) scale(0.050000,-0.050000)"
fill="#000000" stroke="none">
<path d="M1759 2495 c-288 -222 -154 -627 144 -437 175 111 231 350 107 457
-73 63 -151 57 -251 -20z"/>
<path d="M1140 2468 c-129 -117 -154 -298 -56 -402 129 -138 347 47 331 281
-13 197 -132 249 -275 121z"/>
<path d="M2210 2057 c-245 -135 -278 -404 -56 -449 165 -33 406 159 406 323 0
111 -228 193 -350 126z"/>
<path d="M1460 1861 c-27 -8 -90 -36 -140 -61 -134 -68 -182 -77 -268 -47
-240 83 -432 -45 -432 -289 0 -101 66 -163 249 -236 195 -78 273 -155 351
-349 101 -249 206 -309 389 -219 158 77 204 211 136 402 l-34 97 74 151 c122
246 57 443 -179 543 -72 30 -75 30 -146 8z"/>
<path d="M2190 1402 c-177 -81 -230 -223 -120 -317 75 -65 248 -58 349 14 238
170 43 429 -229 303z"/>
</g>
</svg>
