<?xml version="1.0" standalone="no"?>
<!DOCTYPE svg PUBLIC "-//W3C//DTD SVG 20010904//EN"
 "http://www.w3.org/TR/2001/REC-SVG-20010904/DTD/svg10.dtd">
<svg version="1.0" xmlns="http://www.w3.org/2000/svg"
 width="300.000000pt" height="247.000000pt" viewBox="0 0 300.000000 247.000000"
 preserveAspectRatio="xMidYMid meet">
<metadata>
Created by potrace 1.10, written by Peter Selinger 2001-2011
</metadata>
<g transform="translate(0.000000,247.000000) scale(0.100000,-0.100000)"
fill="#000000" stroke="none">
<path d="M799 1777 c-69 -46 -69 -46 -69 -491 0 -386 1 -399 21 -436 43 -77
27 -75 547 -78 l462 -3 0 -67 c0 -37 4 -73 8 -80 7 -9 58 -12 223 -10 l214 3
3 155 c2 126 0 157 -12 165 -8 6 -16 32 -17 60 -3 41 0 50 14 53 16 3 17 30
17 336 0 323 -1 334 -21 360 -46 58 -22 56 -717 56 l-639 0 -34 -23z m1339
-62 l25 -30 -683 -3 c-376 -1 -685 0 -688 3 -7 7 30 46 53 56 11 4 301 7 643
6 l624 -2 26 -30z m22 -445 l0 -171 -32 37 c-41 46 -83 64 -149 64 -107 0
-177 -71 -187 -188 -3 -37 -11 -73 -19 -80 -7 -7 -13 -33 -13 -58 l0 -44 -455
0 c-502 0 -492 -1 -514 62 -7 19 -11 131 -11 289 l0 259 690 0 690 0 0 -170z
m-121 -148 c46 -25 72 -75 69 -132 l-3 -45 -122 -3 -123 -3 0 53 c0 64 27 113
73 133 43 19 66 18 106 -3z"/>
<path d="M822 1343 l3 -38 380 0 380 0 3 38 3 37 -386 0 -386 0 3 -37z"/>
<path d="M830 1070 l0 -40 185 0 185 0 0 40 0 40 -185 0 -185 0 0 -40z"/>
</g>
</svg>
