<?xml version="1.0" standalone="no"?>
<!DOCTYPE svg PUBLIC "-//W3C//DTD SVG 20010904//EN"
 "http://www.w3.org/TR/2001/REC-SVG-20010904/DTD/svg10.dtd">
<svg version="1.0" xmlns="http://www.w3.org/2000/svg"
 width="264.000000pt" height="276.000000pt" viewBox="0 0 264.000000 276.000000"
 preserveAspectRatio="xMidYMid meet">
<metadata>
Created by potrace 1.10, written by Peter Selinger 2001-2011
</metadata>
<g transform="translate(0.000000,276.000000) scale(0.100000,-0.100000)"
fill="#000000" stroke="none">
<path d="M924 2587 c-34 -31 -36 -36 -36 -97 0 -36 -2 -68 -5 -72 -2 -4 -15
-1 -28 8 -18 12 -35 14 -62 9 -118 -21 -107 -142 19 -221 21 -14 41 -31 44
-39 4 -8 -7 -32 -23 -52 -30 -40 -63 -105 -63 -126 -1 -39 -40 -89 -97 -126
-33 -21 -64 -44 -68 -50 -9 -16 13 -41 35 -41 39 0 42 -26 10 -73 -38 -56 -38
-90 -3 -125 l28 -27 1 -300 c1 -319 3 -330 56 -431 34 -64 147 -143 242 -171
27 -7 32 -15 48 -78 23 -91 24 -200 2 -209 -9 -3 -20 -4 -25 -1 -4 3 -48 -4
-96 -15 -86 -21 -136 -41 -147 -59 -10 -15 25 -43 43 -35 59 24 208 52 276 50
65 -1 76 1 81 17 3 10 -1 28 -8 40 -19 30 -52 210 -44 241 6 24 8 25 87 22 56
-2 85 -7 95 -18 11 -11 19 -47 24 -114 4 -55 13 -112 19 -128 17 -44 6 -66
-34 -66 -70 0 -233 -48 -249 -73 -10 -16 9 -51 24 -42 29 18 215 55 281 57 91
1 105 15 71 71 -25 41 -41 297 -20 314 7 6 45 18 83 28 39 9 116 39 172 66
111 55 215 141 298 249 41 54 46 56 111 69 138 28 312 144 363 242 24 46 27
117 6 145 -19 25 -19 56 2 113 15 44 15 48 -4 92 -16 35 -28 48 -49 53 -42 11
-54 24 -54 61 0 25 -8 40 -34 63 -29 25 -41 29 -79 27 -27 -2 -65 -14 -91 -30
-59 -34 -138 -121 -166 -182 -12 -26 -28 -60 -36 -75 -8 -14 -14 -37 -14 -51
0 -13 -7 -41 -15 -60 -8 -20 -15 -47 -15 -61 0 -14 -5 -28 -10 -31 -19 -12
-202 185 -271 290 -65 97 -88 142 -124 235 -52 133 -111 234 -175 297 -46 47
-62 68 -55 77 54 73 65 98 65 150 0 48 -3 57 -31 80 -38 33 -69 33 -107 1 -33
-28 -42 -24 -42 18 0 34 -32 90 -63 112 -12 8 -41 15 -64 15 -35 0 -50 -6 -79
-33z m250 -390 c52 -15 143 -105 180 -176 43 -84 43 -83 61 -131 34 -87 96
-209 144 -281 96 -147 303 -350 343 -337 14 5 37 96 38 148 0 19 7 48 15 64 8
15 15 35 15 43 0 22 38 93 81 150 43 58 127 113 171 113 42 0 71 -44 63 -97
-5 -33 -3 -43 12 -51 11 -7 24 -7 35 -1 12 6 25 6 38 -1 16 -9 20 -21 20 -63
0 -31 -6 -61 -15 -73 -21 -27 -18 -71 6 -97 42 -45 -1 -149 -87 -210 -100 -71
-169 -101 -262 -113 -51 -6 -56 -10 -106 -73 -161 -202 -290 -280 -535 -325
-139 -26 -338 -15 -441 26 -47 18 -117 64 -146 95 -29 32 -64 98 -64 123 0 10
-7 45 -15 77 -28 106 -15 500 18 541 5 6 19 12 30 12 40 0 57 28 57 94 -1 36
-6 68 -15 80 -10 13 -14 49 -14 123 -1 101 1 108 36 179 43 90 115 160 171
170 20 3 42 7 47 9 13 5 70 -3 119 -18z"/>
<path d="M888 2025 c-15 -33 3 -75 32 -75 21 0 60 33 60 50 0 17 -39 50 -60
50 -12 0 -25 -10 -32 -25z"/>
<path d="M1168 1706 c-56 -80 -68 -133 -68 -298 0 -110 4 -158 15 -185 8 -19
15 -44 15 -54 0 -23 61 -128 92 -156 12 -12 48 -34 78 -49 47 -24 66 -28 132
-26 136 2 231 47 292 137 41 60 36 74 -65 183 -100 105 -162 193 -224 316 -22
43 -60 101 -85 127 -44 46 -49 49 -98 49 -51 0 -54 -2 -84 -44z"/>
<path d="M800 1416 c0 -8 4 -17 9 -20 10 -7 23 19 14 28 -11 11 -23 6 -23 -8z"/>
<path d="M925 1390 c-4 -6 -3 -16 3 -22 6 -6 12 -6 17 2 4 6 3 16 -3 22 -6 6
-12 6 -17 -2z"/>
<path d="M865 1280 c-4 -6 -3 -16 3 -22 6 -6 12 -6 17 2 4 6 3 16 -3 22 -6 6
-12 6 -17 -2z"/>
<path d="M750 1243 c0 -21 3 -24 9 -14 5 8 7 20 4 28 -8 21 -13 15 -13 -14z"/>
<path d="M1195 900 c-4 -6 -3 -16 3 -22 6 -6 12 -6 17 2 4 6 3 16 -3 22 -6 6
-12 6 -17 -2z"/>
<path d="M986 873 c-12 -12 -6 -43 9 -43 8 0 15 9 15 19 0 21 -13 34 -24 24z"/>
<path d="M1110 771 c0 -12 5 -21 10 -21 6 0 10 6 10 14 0 8 -4 18 -10 21 -5 3
-10 -3 -10 -14z"/>
</g>
</svg>
