<?xml version="1.0" standalone="no"?>
<!DOCTYPE svg PUBLIC "-//W3C//DTD SVG 20010904//EN"
 "http://www.w3.org/TR/2001/REC-SVG-20010904/DTD/svg10.dtd">
<svg version="1.0" xmlns="http://www.w3.org/2000/svg"
 width="300.000000pt" height="150.000000pt" viewBox="0 0 300.000000 150.000000"
 preserveAspectRatio="xMidYMid meet">
<metadata>
Created by potrace 1.10, written by Peter Selinger 2001-2011
</metadata>
<g transform="translate(0.000000,150.000000) scale(0.100000,-0.100000)"
fill="#000000" stroke="none">
<path d="M1360 1237 c-130 -73 -241 -136 -248 -140 -9 -6 -12 -55 -12 -176 l0
-167 -34 -12 c-100 -37 -187 -168 -188 -285 0 -101 35 -188 64 -159 8 8 7 24
-3 59 -54 190 71 363 261 363 189 0 313 -177 258 -364 -19 -64 -109 -150 -177
-170 -69 -20 -90 -20 -163 0 -95 27 -110 -17 -16 -45 59 -18 148 -16 209 4 52
18 135 88 171 145 l15 25 50 -28 c28 -15 57 -27 64 -27 7 0 125 61 261 136
l249 137 -3 101 c-3 93 -5 101 -23 101 -18 0 -20 -8 -23 -87 l-3 -88 -42 -24
c-57 -32 -380 -210 -389 -214 -5 -2 -8 104 -8 236 l0 240 73 39 72 39 3 -68
c2 -48 7 -71 17 -74 8 -3 41 9 75 27 l60 34 0 82 0 82 68 40 67 39 5 -71 c4
-64 7 -72 25 -72 18 0 20 8 23 96 2 69 -1 99 -10 107 -26 21 -490 272 -501
271 -7 0 -118 -60 -247 -132z m468 -37 c116 -63 211 -117 212 -120 0 -6 -122
-71 -134 -70 -4 0 -104 53 -221 118 l-213 117 66 36 c37 20 70 36 73 35 4 0
101 -53 217 -116z m-180 -107 l215 -117 -31 -14 c-29 -14 -34 -12 -246 104
-188 103 -214 121 -199 131 9 7 23 13 31 13 8 0 111 -53 230 -117z m-88 -68
c94 -52 176 -95 181 -95 24 0 2 -18 -61 -52 l-70 -37 -215 117 c-118 64 -214
119 -214 122 -1 3 30 21 67 41 l67 36 36 -18 c20 -10 114 -61 209 -114z m-167
-120 l197 -107 0 -239 c0 -132 -2 -239 -5 -239 -2 0 -19 9 -37 20 -32 19 -33
20 -29 92 7 186 -134 338 -314 338 l-55 0 0 136 0 136 23 -14 c12 -8 111 -63
220 -123z m489 -27 c-3 -40 -9 -57 -25 -70 -12 -10 -24 -18 -27 -18 -3 0 -4
26 -2 57 2 39 9 62 20 71 30 23 37 14 34 -40z"/>
<path d="M2074 825 c-4 -9 -2 -21 4 -27 15 -15 44 -1 40 19 -4 23 -36 29 -44
8z"/>
<path d="M1065 549 l-37 -42 46 -45 c36 -37 48 -44 58 -34 10 10 10 17 0 32
-6 11 -12 21 -12 22 0 2 41 1 90 -2 98 -5 110 -12 110 -62 0 -48 -26 -63 -106
-59 -41 3 -72 -18 -59 -39 9 -15 132 -12 164 4 33 17 51 54 51 102 0 28 -8 44
-34 70 -34 34 -35 34 -126 34 -81 0 -91 2 -80 15 15 18 6 45 -14 45 -7 0 -30
-19 -51 -41z"/>
<path d="M964 245 c-4 -9 -2 -21 4 -27 15 -15 44 -1 40 19 -4 23 -36 29 -44 8z"/>
</g>
</svg>
