<?xml version="1.0" standalone="no"?>
<!DOCTYPE svg PUBLIC "-//W3C//DTD SVG 20010904//EN"
 "http://www.w3.org/TR/2001/REC-SVG-20010904/DTD/svg10.dtd">
<svg version="1.0" xmlns="http://www.w3.org/2000/svg"
 width="184.000000pt" height="157.000000pt" viewBox="0 0 184.000000 157.000000"
 preserveAspectRatio="xMidYMid meet">
<metadata>
Created by potrace 1.10, written by Peter Selinger 2001-2011
</metadata>
<g transform="translate(0.000000,157.000000) scale(0.100000,-0.100000)"
fill="#000000" stroke="none">
<path d="M1281 1363 c-7 -13 -3 -24 15 -46 39 -47 33 -83 -28 -144 l-52 -53
24 -25 c13 -14 26 -25 30 -25 4 0 30 23 58 51 48 48 55 51 89 46 20 -4 47 -16
60 -29 22 -21 24 -21 40 -5 16 16 11 24 -97 132 -63 63 -118 115 -122 115 -4
0 -11 -8 -17 -17z"/>
<path d="M1050 1129 c-19 -21 -36 -42 -38 -47 -1 -4 22 -32 53 -62 42 -41 52
-57 43 -67 -16 -20 -23 -17 -77 37 -28 28 -55 50 -61 50 -5 0 -28 -18 -49 -39
l-39 -39 54 -53 c56 -56 63 -69 41 -87 -10 -9 -26 1 -67 43 -30 30 -57 55 -61
55 -3 0 -25 -18 -49 -41 l-43 -41 59 -59 c54 -55 57 -60 42 -76 -16 -15 -20
-12 -69 40 -29 32 -55 57 -59 57 -3 0 -26 -18 -50 -40 l-44 -40 59 -60 c56
-57 58 -61 42 -77 -16 -16 -20 -14 -76 41 l-58 58 -27 -25 c-14 -13 -26 -28
-26 -33 0 -13 213 -224 225 -224 6 0 132 121 280 270 l270 270 -115 115 c-63
63 -117 115 -120 114 -3 0 -21 -18 -40 -40z"/>
<path d="M520 577 c0 -4 7 -34 17 -67 16 -59 16 -61 -5 -83 -12 -13 -19 -27
-15 -31 4 -3 -49 -63 -117 -131 -69 -69 -118 -125 -111 -125 8 0 67 53 132
117 65 64 122 114 126 110 3 -4 17 2 29 14 23 22 24 22 85 5 33 -10 62 -16 65
-14 2 2 -44 51 -101 108 -58 58 -105 101 -105 97z"/>
</g>
</svg>
