<?xml version="1.0" standalone="no"?>
<!DOCTYPE svg PUBLIC "-//W3C//DTD SVG 20010904//EN"
 "http://www.w3.org/TR/2001/REC-SVG-20010904/DTD/svg10.dtd">
<svg version="1.0" xmlns="http://www.w3.org/2000/svg"
 width="621.000000pt" height="531.000000pt" viewBox="0 0 621.000000 531.000000"
 preserveAspectRatio="xMidYMid meet">
<metadata>
Created by potrace 1.10, written by Peter Selinger 2001-2011
</metadata>
<g transform="translate(0.000000,531.000000) scale(0.100000,-0.100000)"
fill="#000000" stroke="none">
<path d="M3409 4585 c-25 -7 -61 -20 -80 -30 -51 -26 -2101 -2081 -2125 -2130
-29 -62 -27 -224 5 -284 15 -29 240 -261 664 -684 495 -494 651 -644 686 -660
33 -15 68 -21 126 -21 146 -2 68 -71 1224 1085 1155 1156 1085 1077 1085 1224
-1 143 21 117 -691 826 -345 345 -644 634 -663 644 -44 23 -127 45 -160 44
-14 -1 -46 -7 -71 -14z m193 -352 c55 -21 143 -78 184 -120 38 -37 92 -128
117 -193 23 -61 23 -218 0 -286 -37 -111 -122 -215 -221 -271 -241 -135 -543
-45 -664 198 -46 94 -58 138 -58 220 0 65 16 131 48 199 65 137 215 252 357
274 55 8 194 -4 237 -21z m-728 -723 c88 -30 191 -111 243 -192 62 -96 83
-163 83 -264 0 -173 -103 -347 -249 -419 -58 -30 -187 -65 -238 -65 -46 0
-150 28 -212 58 -153 74 -261 248 -261 422 0 207 128 387 330 462 67 25 230
24 304 -2z m1421 -2 c154 -32 312 -190 355 -354 22 -89 9 -237 -28 -309 -8
-16 -41 -64 -73 -106 -52 -69 -66 -80 -143 -119 -199 -98 -403 -70 -557 77
-88 84 -140 195 -146 313 -10 187 76 349 240 448 104 63 215 79 352 50z
m-2168 -724 c28 -8 68 -26 88 -40 20 -13 38 -24 40 -24 17 0 120 -103 139
-139 36 -66 55 -113 65 -160 51 -238 -90 -477 -328 -556 -74 -24 -217 -23
-292 3 -136 48 -220 123 -291 262 -32 63 -33 68 -33 190 0 124 1 125 39 205
105 218 344 326 573 259z m1423 6 c246 -47 422 -300 381 -548 -16 -91 -32
-129 -90 -207 -51 -68 -57 -74 -126 -119 -89 -58 -138 -71 -260 -71 -100 0
-116 3 -181 31 -128 55 -196 122 -257 252 -30 64 -31 73 -32 192 l0 125 40 79
c103 204 308 307 525 266z m-670 -747 c133 -49 253 -170 305 -308 37 -97 19
-304 -32 -366 -7 -8 -13 -19 -13 -23 0 -5 -15 -27 -32 -49 -83 -106 -168 -155
-314 -184 -82 -16 -89 -16 -157 2 -171 44 -277 125 -341 261 -83 175 -71 314
42 491 57 89 197 179 302 194 75 10 185 2 240 -18z"/>
<path d="M3330 4141 c-100 -32 -183 -99 -224 -180 -120 -232 12 -508 267 -561
67 -14 178 0 237 30 49 25 127 96 156 142 80 127 79 291 -4 416 -92 139 -275
204 -432 153z m104 -103 c8 -13 7 -24 -5 -45 -20 -36 -36 -112 -58 -290 -18
-141 -29 -173 -59 -173 -31 0 -80 45 -113 104 -31 56 -34 68 -34 146 0 74 4
91 29 137 27 49 87 102 146 130 34 16 81 12 94 -9z m213 -60 c129 -138 100
-356 -59 -448 -62 -35 -103 -39 -118 -10 -19 35 14 328 47 415 31 83 77 98
130 43z"/>
<path d="M2602 3417 c-232 -82 -326 -320 -217 -553 17 -37 109 -125 156 -149
118 -62 286 -56 378 11 128 95 181 192 181 331 0 174 -101 309 -272 364 -78
25 -147 23 -226 -4z m102 -96 c14 -16 15 -23 6 -41 -23 -43 -40 -118 -60 -273
-11 -87 -25 -167 -30 -178 -24 -44 -83 -15 -135 65 -83 131 -56 297 65 389 74
56 126 69 154 38z m207 -54 c69 -58 107 -177 87 -272 -16 -73 -63 -142 -124
-181 -67 -43 -120 -46 -134 -9 -5 14 -7 30 -5 37 3 7 9 58 15 113 15 147 27
216 46 260 32 78 66 94 115 52z"/>
<path d="M4085 3411 c-107 -29 -203 -107 -250 -206 -41 -85 -47 -209 -14 -297
29 -80 119 -176 197 -215 51 -25 67 -28 162 -28 94 0 111 3 161 28 86 42 160
119 190 197 19 53 24 83 24 160 -1 86 -4 101 -34 162 -61 127 -174 198 -321
204 -47 2 -98 0 -115 -5z m83 -114 c2 -10 -5 -49 -16 -85 -26 -86 -41 -170
-49 -274 -7 -101 -23 -138 -60 -138 -57 0 -153 145 -153 233 0 103 67 214 159
262 55 29 114 30 119 2z m221 -62 c55 -63 75 -113 75 -190 1 -59 -4 -80 -29
-129 -36 -70 -100 -130 -157 -144 -72 -18 -95 9 -79 94 5 27 12 85 16 129 10
121 36 222 65 253 32 34 72 29 109 -13z"/>
<path d="M1910 2696 c-115 -25 -214 -101 -266 -204 -26 -52 -29 -66 -29 -167
0 -101 2 -115 28 -168 62 -125 183 -207 318 -215 131 -8 231 35 322 139 62 71
82 132 81 249 0 86 -4 101 -33 162 -50 104 -138 173 -261 204 -66 16 -88 16
-160 0z m63 -107 c7 -12 4 -36 -11 -85 -20 -65 -35 -147 -47 -256 -13 -117
-17 -139 -31 -153 -28 -27 -60 -18 -103 31 -47 54 -81 137 -81 198 0 106 72
214 173 262 57 27 85 27 100 3z m207 -55 c17 -15 44 -50 60 -78 26 -44 30 -61
30 -129 0 -84 -21 -141 -75 -205 -31 -37 -100 -72 -143 -72 -45 0 -56 26 -44
103 6 34 13 91 17 127 9 90 35 211 51 235 13 18 51 44 66 45 3 0 21 -12 38
-26z"/>
<path d="M3374 2690 c-127 -27 -237 -124 -279 -245 -22 -65 -20 -197 4 -265
24 -70 109 -165 182 -205 47 -25 67 -30 151 -33 119 -5 176 11 255 70 104 79
145 166 146 308 0 87 -3 101 -32 162 -61 128 -173 204 -312 213 -41 2 -93 0
-115 -5z m71 -111 c4 -12 -2 -45 -13 -77 -24 -69 -39 -155 -51 -284 -13 -155
-47 -183 -125 -105 -111 112 -113 289 -5 399 80 81 179 115 194 67z m228 -72
c69 -80 88 -206 46 -302 -44 -101 -164 -184 -224 -157 -30 14 -30 15 -5 207
30 237 59 304 124 291 17 -4 43 -21 59 -39z"/>
<path d="M2614 1951 c-143 -43 -234 -145 -265 -298 -14 -70 -2 -164 32 -238
23 -51 132 -157 184 -178 179 -73 365 -21 478 133 40 55 60 126 61 215 1 177
-96 311 -265 365 -75 24 -144 24 -225 1z m97 -97 c10 -13 10 -21 0 -47 -19
-48 -47 -188 -64 -320 -15 -120 -26 -147 -58 -147 -28 0 -87 58 -117 114 -22
44 -26 63 -26 137 0 75 3 91 28 133 34 58 61 83 129 118 60 32 89 35 108 12z
m222 -73 c45 -50 52 -63 71 -139 15 -57 15 -66 0 -119 -28 -98 -84 -167 -158
-197 -52 -21 -83 -20 -96 4 -12 23 -5 120 20 275 21 124 32 160 62 193 31 33
61 28 101 -17z"/>
</g>
</svg>
