<?xml version="1.0" standalone="no"?>
<!DOCTYPE svg PUBLIC "-//W3C//DTD SVG 20010904//EN"
 "http://www.w3.org/TR/2001/REC-SVG-20010904/DTD/svg10.dtd">
<svg version="1.0" xmlns="http://www.w3.org/2000/svg"
 width="186.000000pt" height="128.000000pt" viewBox="0 0 186.000000 128.000000"
 preserveAspectRatio="xMidYMid meet">
<metadata>
Created by potrace 1.10, written by Peter Selinger 2001-2011
</metadata>
<g transform="translate(0.000000,128.000000) scale(0.050000,-0.050000)"
fill="#000000" stroke="none">
<path d="M462 2236 c-284 -146 -306 -227 -298 -1067 l6 -660 66 -103 c173
-269 151 -266 1588 -266 1444 0 1432 -2 1599 320 65 125 74 1376 11 1503 -58
116 -161 223 -266 277 l-98 50 -1241 5 -1242 6 -125 -65z m2610 1 c121 -30
274 -169 322 -293 60 -157 54 -1336 -8 -1464 -64 -132 -123 -191 -246 -249
l-110 -51 -1220 1 c-1696 0 -1610 -55 -1610 1037 0 652 7 711 98 840 52 72
184 163 267 182 108 26 2403 23 2507 -3z"/>
</g>
</svg>
