<?xml version="1.0" standalone="no"?>
<!DOCTYPE svg PUBLIC "-//W3C//DTD SVG 20010904//EN"
 "http://www.w3.org/TR/2001/REC-SVG-20010904/DTD/svg10.dtd">
<svg version="1.0" xmlns="http://www.w3.org/2000/svg"
 width="900.000000pt" height="900.000000pt" viewBox="0 0 900.000000 900.000000"
 preserveAspectRatio="xMidYMid meet">
<metadata>
Created by potrace 1.10, written by Peter Selinger 2001-2011
</metadata>
<g transform="translate(0.000000,900.000000) scale(0.100000,-0.100000)"
fill="#000000" stroke="none">
<path d="M3885 8940 c-3 -5 -41 -10 -83 -10 -49 0 -88 -6 -106 -15 -15 -8 -51
-15 -80 -15 -28 -1 -62 -7 -76 -15 -14 -8 -46 -14 -71 -15 -29 0 -51 -6 -59
-15 -7 -9 -29 -15 -54 -15 -23 0 -51 -7 -62 -15 -10 -8 -35 -15 -55 -15 -20 0
-42 -7 -49 -15 -7 -8 -27 -15 -44 -15 -18 0 -41 -7 -52 -15 -10 -8 -30 -15
-44 -15 -14 0 -34 -7 -44 -15 -11 -8 -29 -15 -41 -15 -12 0 -30 -7 -41 -15
-10 -8 -31 -15 -45 -15 -15 0 -32 -7 -39 -15 -7 -8 -23 -15 -35 -15 -12 0 -28
-7 -35 -15 -7 -8 -23 -15 -35 -15 -12 0 -28 -7 -35 -15 -7 -8 -23 -15 -35 -15
-12 0 -28 -7 -35 -15 -7 -8 -20 -15 -30 -15 -10 0 -23 -7 -30 -15 -7 -8 -23
-15 -35 -15 -13 0 -25 -7 -29 -15 -3 -8 -14 -15 -24 -15 -11 0 -25 -7 -32 -15
-7 -8 -20 -15 -30 -15 -10 0 -23 -7 -30 -15 -7 -8 -20 -15 -30 -15 -10 0 -23
-7 -30 -15 -7 -8 -21 -15 -31 -15 -10 0 -22 -6 -26 -12 -4 -7 -26 -22 -48 -33
-22 -11 -44 -25 -48 -32 -4 -7 -17 -13 -28 -13 -11 0 -22 -7 -25 -15 -4 -8
-11 -15 -16 -15 -6 0 -55 -30 -110 -67 -55 -38 -108 -73 -117 -78 -10 -6 -26
-18 -36 -28 -10 -11 -37 -30 -59 -44 -23 -14 -45 -30 -51 -37 -5 -6 -39 -34
-75 -61 -84 -63 -148 -123 -345 -320 -196 -196 -256 -261 -320 -345 -27 -36
-55 -69 -61 -75 -7 -5 -23 -28 -37 -51 -14 -22 -33 -49 -44 -59 -10 -10 -22
-26 -28 -36 -5 -9 -40 -62 -78 -117 -37 -55 -67 -104 -67 -110 0 -5 -7 -12
-15 -16 -8 -3 -15 -12 -15 -21 0 -8 -14 -34 -30 -57 -16 -22 -30 -47 -30 -53
0 -7 -7 -15 -15 -19 -8 -3 -15 -14 -15 -24 0 -11 -7 -25 -15 -32 -8 -7 -15
-20 -15 -30 0 -10 -7 -23 -15 -30 -8 -7 -15 -20 -15 -30 0 -10 -7 -23 -15 -30
-8 -7 -15 -21 -15 -32 0 -10 -7 -21 -15 -24 -8 -4 -15 -16 -15 -29 0 -12 -7
-28 -15 -35 -8 -7 -15 -20 -15 -30 0 -10 -7 -23 -15 -30 -8 -7 -15 -23 -15
-35 0 -12 -7 -28 -15 -35 -8 -7 -15 -23 -15 -35 0 -12 -7 -28 -15 -35 -8 -7
-15 -23 -15 -35 0 -12 -7 -28 -15 -35 -8 -7 -15 -24 -15 -39 0 -14 -7 -35 -15
-45 -8 -11 -15 -29 -15 -41 0 -12 -7 -30 -15 -41 -8 -10 -15 -30 -15 -44 0
-14 -7 -34 -15 -44 -8 -11 -15 -34 -15 -52 0 -17 -7 -37 -15 -44 -8 -7 -15
-29 -15 -49 0 -20 -7 -45 -15 -55 -8 -11 -15 -39 -15 -62 0 -25 -6 -47 -15
-54 -10 -8 -15 -31 -15 -64 0 -29 -7 -59 -15 -70 -9 -12 -15 -42 -15 -76 0
-31 -5 -61 -12 -68 -15 -15 -28 -155 -34 -371 -5 -168 -1 -209 16 -181 6 8 10
27 10 42 0 15 4 29 8 32 5 3 12 51 16 107 3 56 12 113 20 128 20 37 39 146 50
278 2 33 11 74 19 90 9 16 18 47 22 68 4 22 10 51 15 65 14 45 58 194 69 235
20 75 49 160 80 235 17 41 31 82 31 91 0 9 7 22 15 29 8 7 15 21 15 32 0 11 8
32 19 46 10 15 24 44 30 65 12 35 100 223 121 257 5 8 26 47 45 85 20 39 43
75 50 81 8 6 19 22 25 35 6 13 19 38 30 54 11 17 27 45 35 63 9 18 22 35 30
39 8 3 15 13 15 22 0 10 15 35 33 57 37 44 67 85 122 164 47 68 84 113 158
194 31 34 57 66 57 71 0 4 36 43 80 86 44 43 80 83 80 88 0 5 9 13 20 16 11 3
20 10 20 16 0 13 127 132 220 207 25 19 54 45 65 57 34 36 200 165 213 165 4
0 28 17 54 38 108 86 143 110 228 155 29 16 58 33 64 39 38 33 545 288 574
288 6 0 26 9 44 19 37 22 358 131 385 131 10 0 27 7 37 15 11 8 29 15 41 15
12 0 25 3 28 7 11 11 146 43 160 38 6 -3 37 4 67 15 30 11 71 20 90 20 19 0
78 9 130 20 52 11 106 20 120 20 14 0 34 7 44 15 13 10 44 15 91 15 40 0 85 4
101 9 16 5 48 14 72 20 23 7 42 16 42 21 0 14 -367 13 -375 0z"/>
<path d="M4730 8941 c0 -20 73 -41 162 -46 114 -6 154 -13 169 -31 6 -8 23
-14 38 -14 14 0 64 -7 111 -16 47 -9 99 -17 115 -18 17 0 36 -5 43 -9 6 -5 16
-6 20 -3 5 3 32 -4 60 -14 29 -11 78 -23 109 -26 57 -6 138 -28 158 -43 15
-11 89 -31 114 -31 12 0 34 -9 49 -20 15 -10 47 -24 72 -29 25 -6 79 -24 120
-41 41 -18 89 -35 105 -40 17 -4 48 -17 70 -28 22 -11 78 -38 125 -60 145 -68
154 -72 205 -102 28 -16 57 -33 65 -36 8 -4 31 -20 51 -36 20 -15 44 -28 52
-28 9 0 19 -5 23 -11 3 -6 18 -16 33 -23 25 -11 173 -108 231 -151 15 -11 55
-39 89 -62 34 -24 89 -66 123 -95 33 -29 84 -73 112 -97 76 -65 256 -233 275
-256 9 -10 41 -45 71 -77 106 -110 140 -149 140 -158 0 -4 10 -17 23 -27 12
-10 44 -48 72 -83 155 -204 215 -286 215 -296 0 -2 16 -27 35 -54 19 -27 35
-53 35 -56 0 -4 12 -23 27 -43 34 -43 142 -237 149 -268 3 -12 21 -44 40 -70
19 -26 34 -53 34 -60 0 -6 6 -24 14 -40 20 -39 71 -160 89 -208 8 -22 29 -73
46 -114 17 -40 31 -80 31 -88 0 -8 9 -35 19 -61 50 -125 108 -343 141 -527 4
-27 13 -63 18 -80 6 -16 13 -66 17 -109 3 -44 13 -95 21 -115 9 -20 18 -72 20
-116 5 -87 43 -265 57 -265 10 0 2 376 -10 505 -5 50 -14 100 -21 112 -7 12
-12 46 -12 75 0 32 -6 62 -15 74 -8 10 -15 40 -15 65 0 25 -7 54 -15 65 -8 10
-15 37 -15 60 0 22 -7 49 -15 60 -8 10 -15 35 -15 55 0 20 -7 42 -15 49 -8 7
-15 29 -15 50 0 21 -7 43 -15 50 -8 7 -15 25 -15 39 0 15 -7 36 -15 47 -8 10
-15 31 -15 45 0 15 -7 32 -15 39 -8 7 -15 25 -15 40 0 15 -7 33 -15 40 -8 7
-15 26 -15 42 0 16 -6 31 -15 34 -8 4 -15 16 -15 28 0 12 -7 31 -15 42 -8 10
-15 26 -15 35 0 9 -7 22 -15 29 -8 7 -15 23 -15 35 0 12 -7 28 -15 35 -8 7
-15 20 -15 30 0 10 -7 23 -15 30 -8 7 -15 20 -15 30 0 10 -7 23 -15 30 -8 7
-15 20 -15 30 0 10 -7 23 -15 30 -8 7 -15 21 -15 32 0 10 -7 21 -15 24 -8 4
-15 14 -15 24 0 11 -5 22 -11 25 -5 4 -15 17 -20 28 -5 12 -18 36 -29 52 -11
17 -24 39 -30 50 -6 11 -19 34 -30 50 -11 17 -24 40 -30 53 -5 12 -14 22 -19
22 -5 0 -12 8 -15 18 -11 29 -34 65 -60 93 -14 15 -26 30 -26 34 0 7 -149 205
-165 220 -6 6 -27 30 -45 55 -85 113 -457 485 -569 570 -49 37 -102 83 -120
103 -8 9 -19 17 -24 17 -4 0 -44 27 -87 60 -43 33 -84 60 -89 60 -6 0 -11 4
-11 9 0 10 -38 34 -72 47 -10 3 -18 10 -18 15 0 5 -10 14 -22 19 -34 15 -62
33 -71 48 -4 6 -17 12 -27 12 -10 0 -22 5 -25 11 -4 5 -17 15 -28 20 -12 5
-35 18 -52 29 -16 11 -40 24 -52 29 -11 5 -24 15 -28 20 -3 6 -14 11 -24 11
-10 0 -24 7 -31 15 -7 8 -20 15 -30 15 -10 0 -23 7 -30 15 -7 8 -20 15 -30 15
-10 0 -23 7 -30 15 -7 8 -20 15 -30 15 -10 0 -23 7 -30 15 -7 8 -23 15 -35 15
-13 0 -25 7 -29 15 -3 8 -16 15 -29 15 -14 0 -30 7 -37 15 -7 8 -23 15 -35 15
-12 0 -28 7 -35 15 -7 8 -23 15 -37 15 -13 0 -31 7 -39 15 -9 8 -25 15 -38 15
-12 0 -31 7 -42 15 -10 8 -31 15 -45 15 -15 0 -32 7 -39 15 -7 8 -25 15 -39
15 -15 0 -36 7 -47 15 -10 8 -32 15 -49 15 -16 0 -39 7 -49 15 -11 8 -36 15
-57 15 -20 0 -42 7 -49 15 -7 9 -30 15 -54 15 -22 0 -50 7 -60 15 -11 8 -40
15 -65 15 -25 0 -55 7 -65 15 -12 9 -42 15 -74 15 -29 0 -63 6 -75 12 -29 17
-160 28 -379 34 -119 3 -178 1 -178 -5z"/>
<path d="M2893 6348 c-13 -6 -23 -15 -23 -20 0 -4 -5 -8 -11 -8 -33 0 -174
-139 -206 -202 -55 -110 -53 -95 -53 -430 1 -172 5 -450 10 -618 6 -168 14
-557 19 -864 7 -353 14 -579 22 -610 18 -79 46 -132 92 -171 75 -64 112 -75
264 -75 74 0 143 -4 153 -10 27 -14 117 8 158 39 19 14 52 52 75 85 77 114
216 233 293 252 16 4 35 12 42 17 17 13 120 30 187 30 64 0 164 -16 190 -30
11 -6 44 -22 73 -34 28 -13 52 -27 52 -31 0 -5 6 -8 13 -8 24 0 117 -91 176
-174 33 -46 77 -96 97 -111 l37 -29 777 0 777 0 39 24 c49 30 51 33 122 122
57 71 129 138 150 138 5 0 12 7 16 15 3 8 14 15 24 15 11 0 25 7 32 15 7 8 22
15 34 15 12 0 27 5 34 12 29 29 231 42 327 20 113 -27 201 -84 325 -216 47
-48 94 -92 105 -97 11 -5 27 -13 35 -18 65 -39 204 -69 261 -56 19 4 104 10
189 14 172 8 205 17 255 73 42 46 63 93 70 163 4 33 8 240 10 460 4 418 -7
657 -32 686 -7 8 -13 20 -13 25 0 28 -136 147 -180 157 -14 3 -43 10 -65 16
-22 6 -61 11 -86 11 -69 0 -92 35 -118 175 -4 22 -12 56 -18 75 -6 19 -19 62
-28 95 -9 33 -21 74 -27 90 -5 17 -14 46 -18 65 -12 52 -52 164 -79 219 -20
42 -89 121 -105 121 -7 0 -18 6 -24 12 -29 29 -149 36 -580 37 -266 1 -460 -3
-503 -10 -103 -16 -157 -58 -183 -144 -5 -16 -12 -350 -15 -741 l-6 -710 -29
-45 c-37 -57 -74 -89 -93 -82 -12 5 -14 17 -9 62 3 31 6 452 7 937 1 790 -1
884 -15 912 -9 17 -16 37 -16 44 0 30 -65 135 -114 183 -30 30 -103 85 -112
85 -4 0 -16 8 -27 18 -18 16 -99 17 -1376 19 -964 1 -1363 -1 -1378 -9z m2736
-152 c28 -19 58 -41 65 -49 24 -23 86 -125 86 -140 0 -8 7 -31 16 -52 14 -33
14 -132 8 -919 -4 -484 -4 -930 1 -989 l7 -108 61 7 c34 3 72 12 84 20 12 8
27 14 33 14 17 0 113 76 130 102 31 49 43 74 53 113 7 25 13 307 16 747 l6
707 23 23 23 23 512 0 512 0 35 -27 c19 -15 42 -42 51 -60 26 -53 67 -166 79
-218 4 -19 13 -48 18 -65 28 -83 42 -134 42 -150 0 -10 6 -38 14 -64 13 -42
27 -94 43 -161 8 -35 49 -86 87 -108 17 -11 79 -26 141 -36 l110 -16 58 -62
57 -61 0 -549 c0 -616 3 -590 -72 -629 -33 -17 -60 -19 -243 -19 l-205 0 -64
31 c-48 23 -88 56 -161 131 -54 55 -107 104 -119 109 -11 5 -34 18 -51 29 -16
11 -37 22 -45 26 -158 62 -303 80 -406 49 -27 -8 -59 -15 -71 -15 -12 0 -34
-6 -50 -14 -15 -8 -50 -25 -76 -38 -96 -46 -158 -92 -217 -160 -25 -29 -67
-74 -94 -100 l-48 -48 -745 0 -744 0 -26 28 c-14 15 -36 43 -48 62 -43 66
-173 190 -225 213 -8 4 -30 16 -49 28 -41 24 -103 48 -156 59 -154 32 -174 34
-243 21 -37 -7 -86 -16 -110 -20 -24 -4 -48 -13 -54 -19 -7 -7 -19 -12 -28
-12 -9 0 -37 -11 -61 -25 -24 -13 -54 -29 -67 -35 -27 -12 -222 -204 -222
-219 0 -6 -14 -26 -31 -46 l-31 -35 -158 0 c-180 0 -227 13 -273 74 -24 31
-27 44 -32 162 -19 441 -25 647 -26 954 -1 190 -5 449 -9 575 -23 651 -23 702
-4 752 33 88 66 130 164 207 l45 35 1316 0 1317 1 51 -34z"/>
<path d="M6625 5591 c-130 -8 -169 -23 -216 -82 l-34 -43 -3 -255 c-2 -140 -1
-273 2 -295 4 -28 19 -55 44 -84 l37 -42 483 -1 c266 0 486 2 489 5 4 3 -1 21
-9 38 -24 51 -39 98 -48 150 -5 27 -12 53 -16 60 -4 7 -11 30 -15 53 -11 60
-30 126 -45 163 -8 18 -14 43 -14 55 0 12 -7 31 -15 41 -8 11 -15 28 -15 38 0
10 -8 31 -17 46 -20 33 -94 102 -108 102 -6 0 -16 5 -23 12 -35 35 -255 53
-477 39z m317 -131 c116 -13 175 -51 191 -120 6 -29 23 -80 43 -128 8 -18 14
-44 14 -58 0 -14 6 -40 14 -57 16 -38 36 -109 43 -155 l5 -33 -373 4 -374 5
-3 249 c-2 203 0 252 12 268 12 17 30 21 128 26 191 9 210 9 300 -1z"/>
<path d="M1398 4502 c-2 -30 0 -59 4 -65 5 -9 133 -11 513 -9 l506 2 -3 61 -3
61 -507 1 -506 2 -4 -53z"/>
<path d="M8922 4283 c-12 -42 -28 -136 -41 -258 -5 -44 -15 -102 -21 -130 -27
-120 -32 -148 -40 -217 -5 -40 -20 -113 -34 -163 -14 -49 -25 -102 -26 -118 0
-15 -4 -35 -9 -45 -26 -51 -41 -97 -51 -154 -7 -34 -18 -74 -26 -88 -7 -14
-27 -63 -43 -110 -39 -115 -84 -221 -126 -304 -19 -37 -35 -76 -35 -86 0 -9
-8 -28 -18 -41 -10 -13 -29 -46 -41 -74 -12 -27 -27 -57 -32 -65 -5 -8 -20
-37 -34 -65 -14 -27 -52 -90 -85 -140 -33 -49 -64 -99 -69 -110 -8 -19 -59
-95 -154 -230 -47 -67 -133 -174 -176 -220 -15 -16 -57 -64 -91 -105 -85 -101
-279 -298 -310 -315 -14 -7 -53 -40 -87 -72 -95 -90 -317 -266 -370 -294 -13
-7 -23 -16 -23 -21 0 -5 -20 -17 -45 -28 -25 -11 -45 -24 -45 -29 0 -5 -10
-13 -21 -16 -20 -7 -132 -74 -220 -132 -19 -12 -42 -23 -51 -23 -8 0 -21 -7
-28 -15 -7 -8 -42 -29 -79 -45 -36 -17 -102 -49 -146 -71 -44 -22 -84 -39 -89
-39 -5 0 -17 -6 -25 -14 -9 -7 -56 -28 -106 -46 -49 -18 -99 -36 -110 -41 -42
-18 -236 -79 -253 -79 -10 0 -26 -6 -37 -13 -28 -18 -95 -40 -102 -33 -4 3
-11 2 -17 -4 -7 -5 -48 -16 -91 -25 -44 -9 -86 -20 -95 -25 -8 -4 -51 -13 -95
-19 -44 -7 -105 -17 -135 -24 -30 -6 -62 -11 -70 -10 -8 1 -41 -7 -73 -17 -36
-13 -84 -20 -130 -20 -40 0 -97 -6 -127 -14 -30 -7 -72 -17 -92 -20 -21 -4
-38 -11 -38 -16 0 -14 397 -13 405 0 3 6 43 10 88 10 52 1 91 6 107 15 14 8
50 15 80 15 30 0 66 7 80 15 14 8 46 14 71 15 25 0 54 7 65 15 10 8 37 15 59
15 22 0 49 7 59 15 11 8 34 15 51 15 17 0 40 7 51 15 10 8 35 15 55 15 20 0
42 7 49 15 7 8 25 15 39 15 15 0 36 7 47 15 10 8 31 15 45 15 15 0 32 7 39 15
7 8 22 15 34 15 12 0 31 7 42 15 10 8 29 15 40 15 12 0 27 7 34 15 7 8 23 15
35 15 12 0 28 7 35 15 7 8 23 15 35 15 12 0 28 7 35 15 7 8 23 15 37 15 13 0
26 7 29 15 4 8 16 15 29 15 12 0 28 7 35 15 7 8 20 15 30 15 10 0 23 7 30 15
7 8 21 15 32 15 10 0 21 7 24 15 4 8 14 15 24 15 10 0 23 7 30 15 7 8 21 15
31 15 10 0 21 5 24 11 4 5 17 15 28 20 12 5 36 18 52 29 17 11 39 24 50 30 31
16 59 34 66 43 8 11 47 34 72 43 9 3 17 10 17 15 0 5 10 14 23 19 33 15 61 33
70 48 4 6 13 12 18 12 10 0 166 113 184 134 6 7 39 34 75 61 134 102 503 471
605 605 27 36 54 70 61 75 18 16 134 173 134 182 0 4 14 23 30 42 17 18 30 40
30 47 0 7 6 17 13 21 14 9 32 37 47 71 5 12 14 22 19 22 5 0 11 8 15 18 3 9
15 31 25 47 30 45 47 75 76 132 14 29 30 55 36 58 5 4 9 14 9 25 0 10 7 20 15
24 8 3 15 16 15 30 0 13 7 26 15 30 8 3 15 14 15 24 0 11 7 25 15 32 8 7 15
23 15 35 0 13 7 25 15 29 8 3 15 16 15 29 0 14 7 30 15 37 8 7 15 23 15 35 0
12 7 28 15 35 8 7 15 23 15 35 0 12 7 28 15 35 8 7 15 22 15 34 0 11 7 30 15
40 8 11 15 30 15 42 0 12 7 27 15 34 8 7 15 26 15 42 0 16 7 36 15 44 8 9 15
30 15 49 0 20 6 35 15 39 10 3 15 19 15 43 0 21 7 47 15 57 8 11 15 34 15 51
0 17 7 40 15 51 8 10 15 37 15 59 0 22 7 49 15 59 8 11 15 40 15 65 0 25 7 55
15 65 9 12 15 42 15 79 0 32 6 68 12 80 17 30 29 163 34 396 5 194 -2 246 -24
174z"/>
<path d="M34 4073 c5 -212 18 -350 34 -380 7 -12 12 -46 12 -75 0 -32 6 -62
15 -74 8 -10 15 -40 15 -65 0 -25 7 -54 15 -65 8 -10 15 -38 15 -60 0 -24 6
-47 15 -54 8 -7 15 -29 15 -49 0 -21 7 -46 15 -57 8 -10 15 -32 15 -49 0 -16
7 -39 15 -49 8 -11 15 -32 15 -47 0 -14 7 -32 15 -39 8 -7 15 -24 15 -39 0
-14 7 -35 15 -45 8 -11 15 -30 15 -42 0 -13 7 -29 15 -38 8 -8 15 -26 15 -39
0 -14 7 -30 15 -37 8 -7 15 -23 15 -35 0 -12 7 -28 15 -35 8 -7 15 -23 15 -37
0 -13 7 -26 15 -29 8 -4 15 -16 15 -29 0 -12 7 -28 15 -35 8 -7 15 -23 15 -35
0 -13 7 -25 15 -29 8 -3 15 -14 15 -24 0 -11 7 -25 15 -32 8 -7 15 -20 15 -30
0 -10 7 -23 15 -30 8 -7 15 -21 15 -32 0 -10 7 -21 15 -24 8 -4 15 -14 15 -23
0 -9 5 -22 11 -28 12 -12 33 -46 48 -80 5 -11 15 -24 20 -28 6 -3 11 -15 11
-25 0 -10 6 -23 13 -27 14 -9 32 -37 47 -70 5 -13 14 -23 19 -23 5 0 11 -8 15
-17 7 -24 19 -41 104 -155 39 -53 72 -100 72 -103 0 -3 8 -13 17 -24 37 -38
70 -77 103 -121 92 -120 454 -483 570 -570 25 -18 50 -39 55 -45 17 -19 209
-161 228 -168 9 -3 17 -11 17 -17 0 -5 7 -10 15 -10 8 0 15 -4 15 -9 0 -10 38
-34 73 -47 9 -3 17 -10 17 -15 0 -5 10 -14 23 -19 12 -6 36 -19 52 -30 17 -11
39 -24 50 -30 11 -6 34 -19 50 -30 17 -11 40 -24 52 -29 11 -5 24 -15 28 -20
3 -6 14 -11 25 -11 10 0 20 -7 24 -15 3 -8 14 -15 24 -15 11 0 25 -7 32 -15 7
-8 20 -15 30 -15 10 0 23 -7 30 -15 7 -8 20 -15 30 -15 10 0 23 -7 30 -15 7
-8 20 -15 30 -15 10 0 23 -7 30 -15 7 -8 23 -15 35 -15 12 0 28 -7 35 -15 7
-8 20 -15 29 -15 9 0 25 -7 35 -15 11 -8 30 -15 42 -15 12 0 24 -7 28 -15 3
-9 18 -15 34 -15 16 0 35 -7 42 -15 7 -8 25 -15 40 -15 15 0 33 -7 40 -15 7
-8 24 -15 39 -15 14 0 35 -7 45 -15 11 -8 32 -15 47 -15 14 0 32 -7 39 -15 7
-8 29 -15 50 -15 21 0 43 -7 50 -15 7 -8 29 -15 49 -15 20 0 45 -7 55 -15 11
-8 38 -15 60 -15 23 0 50 -7 60 -15 11 -8 40 -15 65 -15 25 0 55 -7 65 -15 12
-9 42 -15 74 -15 29 0 63 -5 75 -12 30 -17 176 -29 410 -34 201 -5 247 3 145
26 -29 6 -105 16 -168 21 -68 7 -131 18 -155 29 -37 17 -146 35 -275 47 -30 3
-59 9 -64 14 -6 5 -23 9 -38 9 -15 0 -45 6 -65 14 -21 8 -65 19 -98 26 -33 7
-69 19 -80 26 -11 8 -28 14 -38 14 -24 0 -138 36 -192 60 -22 10 -57 22 -78
25 -20 4 -40 11 -43 16 -3 5 -13 9 -23 9 -11 0 -50 14 -87 31 -38 16 -82 36
-99 43 -16 7 -55 25 -85 38 -30 14 -71 32 -90 39 -19 7 -57 28 -84 46 -26 18
-56 33 -66 33 -9 0 -25 9 -35 20 -10 11 -28 20 -40 20 -13 0 -25 7 -29 15 -3
8 -14 15 -24 15 -11 0 -25 7 -33 16 -7 8 -29 24 -48 35 -59 33 -107 62 -153
95 -23 17 -65 43 -91 56 -26 14 -58 36 -71 49 -53 53 -83 79 -92 79 -8 0 -68
48 -174 139 -205 177 -360 333 -533 536 -37 44 -84 100 -105 124 -20 24 -43
55 -51 70 -8 14 -35 53 -61 86 -25 33 -59 82 -75 109 -15 27 -52 86 -81 130
-30 44 -54 85 -54 90 0 9 -22 45 -72 118 -10 15 -18 36 -18 46 0 10 -9 27 -20
37 -11 10 -20 22 -20 27 0 5 -17 44 -39 87 -21 42 -42 88 -46 102 -4 13 -22
56 -40 94 -18 39 -52 126 -75 195 -22 69 -45 133 -50 142 -6 10 -10 24 -10 32
0 23 -51 176 -61 182 -5 3 -9 22 -9 42 0 20 -14 78 -31 127 -20 58 -33 116
-35 161 -2 39 -16 114 -30 165 -14 52 -32 141 -40 199 -12 96 -16 120 -30 188
-2 12 -9 22 -15 22 -6 0 -8 -60 -5 -177z"/>
<path d="M891 4130 c-4 -8 -7 -37 -7 -65 l1 -50 768 -3 768 -2 -3 65 -3 66
-758 2 c-666 2 -760 0 -766 -13z"/>
<path d="M378 3730 c-1 -5 -2 -36 0 -67 l4 -58 1016 2 1017 2 3 66 3 65 -1020
0 c-658 0 -1021 -3 -1023 -10z"/>
<path d="M3831 3703 c-25 -3 -54 -11 -65 -19 -11 -8 -28 -14 -38 -14 -32 0
-137 -72 -195 -133 -123 -131 -183 -335 -138 -462 8 -22 15 -48 15 -57 0 -39
68 -146 135 -214 54 -55 88 -80 148 -108 42 -20 88 -36 102 -36 13 0 46 -5 72
-10 74 -16 268 21 305 58 7 7 17 12 23 12 34 0 180 162 216 240 50 107 65 271
33 347 -58 137 -74 162 -149 238 -60 60 -82 77 -122 94 -11 6 -24 15 -28 20
-3 6 -16 11 -28 11 -13 0 -32 6 -43 14 -21 15 -163 26 -243 19z m219 -132 c19
-8 42 -18 50 -22 8 -5 24 -13 35 -18 27 -12 73 -57 110 -106 141 -187 103
-432 -89 -573 -74 -55 -109 -65 -227 -69 -103 -4 -109 -3 -172 27 -61 30 -147
102 -174 146 -59 94 -81 195 -63 291 7 37 19 78 27 90 7 12 13 27 13 33 0 19
63 95 105 126 41 31 72 49 135 77 42 20 196 18 250 -2z"/>
<path d="M6650 3671 c-30 -4 -65 -12 -77 -19 -12 -7 -30 -12 -41 -12 -11 0
-22 -7 -26 -15 -3 -8 -14 -15 -26 -15 -27 0 -181 -154 -209 -210 -12 -25 -26
-52 -31 -60 -23 -40 -42 -140 -38 -200 4 -66 23 -153 39 -180 5 -8 11 -21 14
-27 20 -52 35 -75 83 -128 44 -50 124 -115 140 -115 5 0 15 -7 22 -15 7 -8 20
-15 30 -15 9 0 32 -8 51 -17 27 -14 61 -17 160 -17 123 0 168 8 229 45 8 5 25
13 37 19 29 12 68 44 129 106 51 52 98 136 128 229 21 64 21 203 1 252 -8 19
-15 41 -15 49 0 51 -158 241 -232 278 -18 9 -40 20 -48 25 -66 39 -204 57
-320 42z m208 -120 c9 -6 39 -20 67 -33 56 -26 175 -140 175 -167 0 -10 6 -24
14 -30 14 -11 19 -35 32 -134 7 -54 -11 -156 -35 -202 -37 -70 -132 -175 -157
-175 -6 0 -17 -7 -24 -15 -7 -8 -20 -15 -29 -15 -9 0 -29 -7 -45 -15 -40 -21
-184 -20 -233 2 -95 41 -114 52 -145 79 -44 39 -98 108 -98 126 0 8 -5 19 -11
25 -6 6 -17 43 -25 83 -30 143 17 277 134 385 31 30 54 43 132 78 40 18 218
23 248 8z"/>
</g>
</svg>
