<?xml version="1.0" standalone="no"?>
<!DOCTYPE svg PUBLIC "-//W3C//DTD SVG 20010904//EN"
 "http://www.w3.org/TR/2001/REC-SVG-20010904/DTD/svg10.dtd">
<svg version="1.0" xmlns="http://www.w3.org/2000/svg"
 width="300.000000pt" height="300.000000pt" viewBox="0 0 300.000000 300.000000"
 preserveAspectRatio="xMidYMid meet">
<metadata>
Created by potrace 1.10, written by Peter Selinger 2001-2011
</metadata>
<g transform="translate(0.000000,300.000000) scale(0.100000,-0.100000)"
fill="#000000" stroke="none">
<path d="M191 2953 c-59 -21 -124 -87 -144 -148 -15 -42 -17 -104 -17 -474 0
-263 4 -440 10 -463 17 -59 69 -120 129 -150 l55 -28 450 0 c432 0 453 1 496
21 55 25 95 62 123 114 22 39 22 48 22 505 l0 465 -28 47 c-32 55 -76 92 -136
113 -65 23 -895 21 -960 -2z m887 -193 c60 -37 62 -52 62 -435 0 -383 -2 -398
-62 -435 -32 -20 -46 -20 -410 -18 l-378 3 -32 33 -33 32 0 384 0 384 25 27
c14 15 34 31 45 35 11 5 184 9 385 9 349 1 366 0 398 -19z"/>
<path d="M1860 2958 c-63 -18 -113 -62 -153 -133 -22 -40 -22 -43 -22 -495 l0
-455 25 -49 c28 -54 66 -91 125 -117 37 -17 76 -19 484 -19 320 0 455 3 485
12 55 16 138 99 154 154 9 30 12 164 12 480 0 420 -1 441 -21 484 -25 55 -62
95 -114 123 -39 22 -50 22 -490 24 -280 1 -463 -2 -485 -9z"/>
<path d="M225 1311 c-82 -21 -165 -100 -184 -176 -15 -58 -15 -875 -1 -927 17
-59 69 -120 129 -150 l55 -28 450 0 c432 0 453 1 496 21 55 25 95 62 123 114
21 39 22 51 25 489 3 487 2 498 -52 569 -14 19 -50 47 -78 63 l-53 29 -440 2
c-242 1 -453 -2 -470 -6z m842 -198 c24 -11 42 -30 54 -57 17 -37 19 -72 19
-384 0 -372 -2 -389 -55 -430 -27 -22 -33 -22 -402 -22 -410 0 -417 1 -448 60
-13 24 -15 87 -15 392 0 346 1 365 20 396 37 60 48 61 438 62 311 0 358 -2
389 -17z"/>
<path d="M1850 1301 c-72 -26 -133 -89 -154 -161 -24 -81 -24 -864 0 -938 22
-67 63 -115 126 -146 l52 -26 444 0 c320 0 456 3 486 12 55 16 138 99 154 154
9 30 12 165 12 485 0 408 -2 447 -19 484 -27 59 -65 100 -118 126 l-48 24
-440 2 c-412 3 -444 2 -495 -16z m870 -189 c70 -34 71 -42 68 -455 l-3 -369
-37 -34 -38 -34 -381 0 -381 0 -34 34 -34 34 -1 359 c-1 408 -2 389 19 425 33
56 45 58 432 58 318 0 359 -2 390 -18z"/>
</g>
</svg>
