<?xml version="1.0" standalone="no"?>
<!DOCTYPE svg PUBLIC "-//W3C//DTD SVG 20010904//EN"
 "http://www.w3.org/TR/2001/REC-SVG-20010904/DTD/svg10.dtd">
<svg version="1.0" xmlns="http://www.w3.org/2000/svg"
 width="300.000000pt" height="313.000000pt" viewBox="0 0 300.000000 313.000000"
 preserveAspectRatio="xMidYMid meet">
<metadata>
Created by potrace 1.10, written by Peter Selinger 2001-2011
</metadata>
<g transform="translate(0.000000,313.000000) scale(0.100000,-0.100000)"
fill="#000000" stroke="none">
<path d="M1355 2974 c-154 -34 -313 -135 -415 -263 -94 -118 -143 -244 -155
-408 -17 -210 42 -384 275 -808 142 -261 433 -776 435 -773 5 6 266 471 372
663 193 350 241 447 285 575 40 118 42 133 46 258 5 165 -12 247 -75 375 -38
74 -63 108 -132 177 -98 97 -181 149 -296 186 -103 33 -240 40 -340 18z m321
-55 c134 -41 252 -122 343 -236 99 -125 141 -253 141 -433 0 -239 -45 -346
-462 -1090 -210 -373 -198 -355 -213 -338 -7 7 -96 162 -198 343 -422 757
-461 846 -461 1080 -1 139 12 199 63 310 85 183 275 337 461 374 30 6 64 13
75 15 41 10 185 -5 251 -25z"/>
<path d="M1424 2611 c-100 -24 -193 -100 -241 -199 -24 -49 -28 -69 -28 -142
0 -76 3 -92 33 -152 103 -210 362 -264 531 -112 60 54 109 146 118 222 27 229
-195 435 -413 383z m194 -61 c60 -27 116 -81 150 -145 23 -43 27 -62 27 -135
0 -99 -23 -158 -86 -221 -116 -116 -306 -119 -422 -6 -68 67 -92 125 -92 227
0 72 4 92 27 136 26 50 85 111 130 135 80 43 181 46 266 9z"/>
<path d="M1150 993 c-240 -23 -408 -50 -562 -89 -586 -148 -644 -392 -133
-559 691 -227 2012 -153 2363 132 96 78 99 171 7 252 -146 128 -603 246 -1025
265 -111 5 -108 4 59 -14 431 -47 686 -133 747 -252 64 -124 -156 -254 -537
-317 -209 -35 -372 -44 -658 -38 -340 7 -532 33 -741 99 -121 39 -181 69 -236
120 -176 162 115 326 678 383 84 8 162 17 173 19 26 4 -89 4 -135 -1z m-772
-210 c-45 -88 -45 -121 -2 -186 188 -284 1443 -369 2040 -138 97 37 184 97
215 147 27 45 30 111 5 149 -10 15 -15 30 -11 33 12 12 154 -69 189 -109 69
-76 35 -150 -103 -223 -511 -269 -1897 -271 -2413 -4 -148 76 -184 151 -110
228 49 53 208 138 190 103z"/>
</g>
</svg>
