<?xml version="1.0" standalone="no"?>
<!DOCTYPE svg PUBLIC "-//W3C//DTD SVG 20010904//EN"
 "http://www.w3.org/TR/2001/REC-SVG-20010904/DTD/svg10.dtd">
<svg version="1.0" xmlns="http://www.w3.org/2000/svg"
 width="300.000000pt" height="300.000000pt" viewBox="0 0 300.000000 300.000000"
 preserveAspectRatio="xMidYMid meet">
<metadata>
Created by potrace 1.10, written by Peter Selinger 2001-2011
</metadata>
<g transform="translate(0.000000,300.000000) scale(0.100000,-0.100000)"
fill="#000000" stroke="none">
<path d="M892 2356 c-93 -23 -199 -83 -267 -151 -186 -186 -214 -486 -71 -750
l44 -80 141 -3 c82 -1 149 2 160 8 11 5 27 33 36 61 9 27 19 49 21 47 2 -3 22
-32 44 -66 45 -70 63 -82 89 -58 10 9 23 16 30 16 6 0 14 6 16 13 3 6 18 129
35 271 17 143 32 261 34 263 6 7 15 -155 26 -491 6 -170 15 -317 21 -328 22
-42 55 -7 63 69 12 109 29 204 36 208 4 2 22 0 40 -5 47 -13 66 1 84 64 17 58
56 99 82 89 8 -3 29 -33 46 -67 16 -33 37 -69 46 -78 24 -28 70 -23 100 12 32
36 48 37 80 8 23 -22 31 -23 200 -23 l177 0 3 103 3 102 89 0 90 0 0 150 0
150 -90 0 -90 0 0 83 c0 51 -5 88 -12 95 -17 17 -269 17 -286 0 -7 -7 -12 -44
-12 -95 l0 -82 -87 -3 -88 -3 -3 -147 c-2 -115 0 -148 10 -149 7 0 48 0 90 1
l77 1 3 -43 c2 -35 7 -43 23 -43 18 0 20 7 20 60 l0 60 -90 3 -90 3 -1 109 0
109 90 3 91 3 3 88 3 87 104 0 104 0 3 -87 3 -88 93 -3 92 -3 0 -109 0 -109
-92 -3 -93 -3 -3 -104 -3 -103 -138 4 c-133 4 -140 5 -170 31 -45 38 -81 35
-122 -8 -18 -18 -36 -32 -41 -29 -5 3 -20 29 -34 57 -50 101 -105 131 -162 91
-23 -16 -62 -83 -62 -106 0 -29 -16 -39 -43 -29 -61 23 -97 -26 -97 -134 0
-27 -4 -55 -8 -61 -4 -7 -8 88 -9 210 -1 121 -7 288 -12 370 -8 125 -12 152
-28 168 -21 21 -48 16 -63 -11 -11 -21 -33 -173 -56 -388 -23 -208 -29 -213
-104 -90 -44 71 -77 62 -119 -35 l-20 -48 -121 0 -120 0 -41 81 c-121 242
-102 490 52 662 101 114 227 167 394 167 207 0 348 -80 423 -242 15 -33 34
-58 42 -58 8 0 27 25 42 58 74 160 216 242 416 242 167 0 278 -44 382 -149
161 -164 195 -404 90 -646 -63 -146 -257 -367 -469 -535 -104 -81 -278 -202
-398 -274 l-63 -37 -62 37 c-230 138 -453 307 -612 466 -101 100 -136 122
-136 85 0 -34 206 -229 386 -365 88 -66 327 -224 387 -257 37 -19 37 -19 74 0
140 75 436 288 590 423 377 335 500 689 347 1001 -132 267 -497 382 -773 243
-60 -30 -147 -112 -176 -166 -11 -20 -22 -36 -25 -36 -3 0 -14 16 -25 36 -48
89 -170 177 -290 209 -71 18 -219 18 -293 1z"/>
<path d="M795 471 c-98 -14 22 -20 437 -22 504 -1 462 -2 753 1 228 2 318 13
190 23 -93 7 -1329 5 -1380 -2z"/>
</g>
</svg>
