<?xml version="1.0" standalone="no"?>
<!DOCTYPE svg PUBLIC "-//W3C//DTD SVG 20010904//EN"
 "http://www.w3.org/TR/2001/REC-SVG-20010904/DTD/svg10.dtd">
<svg version="1.0" xmlns="http://www.w3.org/2000/svg"
 width="900.000000pt" height="900.000000pt" viewBox="0 0 900.000000 900.000000"
 preserveAspectRatio="xMidYMid meet">
<metadata>
Created by potrace 1.10, written by Peter Selinger 2001-2011
</metadata>
<g transform="translate(0.000000,900.000000) scale(0.100000,-0.100000)"
fill="#000000" stroke="none">
<path d="M7180 7473 c-19 -8 -42 -19 -50 -24 -8 -5 -25 -13 -37 -19 -26 -11
-32 -50 -8 -50 8 0 15 4 15 8 0 8 18 18 91 52 15 7 41 15 58 19 18 3 33 11 34
16 3 16 -65 15 -103 -2z"/>
<path d="M7240 7385 c-14 -7 -42 -21 -64 -32 -38 -18 -55 -38 -42 -51 6 -6 28
4 136 59 19 10 35 22 35 26 0 13 -38 12 -65 -2z"/>
<path d="M7347 7250 c-14 -11 -46 -56 -72 -100 -56 -96 -143 -191 -188 -206
-38 -13 -77 6 -77 37 0 22 -106 134 -141 149 -13 5 -31 14 -39 18 -55 32 -115
52 -249 86 -89 23 -502 24 -534 1 -12 -8 -38 -15 -59 -15 -20 0 -39 -4 -42 -9
-3 -5 -18 -12 -33 -15 -79 -19 -166 -83 -217 -161 -21 -30 -41 -55 -45 -55
-22 0 -140 -136 -168 -193 -77 -156 -84 -196 -93 -477 -4 -142 -12 -257 -19
-273 -6 -16 -11 -41 -11 -57 0 -23 -10 -36 -44 -61 -53 -37 -64 -60 -75 -159
-5 -41 -14 -88 -20 -103 -6 -16 -11 -50 -11 -77 0 -26 -7 -61 -15 -76 -8 -16
-15 -51 -15 -79 0 -27 -5 -68 -11 -89 -12 -45 -5 -66 48 -133 58 -73 264 -147
478 -173 39 -4 83 -13 98 -19 16 -6 52 -11 82 -11 29 0 89 -7 132 -15 98 -19
273 -19 378 0 44 8 117 15 163 15 75 0 138 10 257 41 22 5 56 14 75 19 96 24
239 91 280 131 33 33 38 69 20 143 -9 40 -9 40 61 107 38 38 69 74 69 80 0 7
6 20 14 28 7 9 21 56 31 106 25 128 11 246 -47 400 -20 54 -23 84 -28 290 -3
157 -9 237 -17 252 -7 12 -13 33 -13 46 0 14 -7 38 -15 53 -8 16 -15 37 -15
46 0 9 -4 20 -10 23 -17 11 -12 62 8 69 34 11 124 76 165 119 64 67 80 106 81
190 1 74 -1 80 -27 103 -34 29 -56 30 -90 4z m81 -104 c3 -62 0 -70 -33 -120
-34 -52 -95 -105 -178 -155 l-38 -23 -34 23 c-43 29 -44 40 -4 63 47 28 98 89
158 190 65 108 78 120 106 102 16 -11 21 -26 23 -80z m-894 59 c39 -9 89 -20
111 -26 22 -6 57 -14 78 -18 21 -5 44 -14 50 -20 6 -6 19 -11 29 -11 27 0 161
-138 185 -190 12 -25 23 -61 26 -80 2 -19 10 -57 17 -85 39 -158 65 -253 82
-300 5 -16 12 -41 15 -55 2 -14 9 -34 13 -45 14 -30 40 -106 49 -140 4 -17 13
-39 18 -50 6 -11 18 -38 26 -60 8 -22 29 -74 45 -115 17 -41 36 -93 41 -115
14 -53 13 -186 -2 -255 -22 -98 -86 -190 -132 -190 -25 0 -25 1 -26 88 -1 126
-31 341 -52 377 -21 34 -72 71 -111 81 -15 3 -29 10 -32 15 -3 5 -19 9 -35 9
-33 0 -69 16 -69 30 0 5 13 28 29 52 41 62 54 145 37 233 -12 64 -49 147 -82
185 -8 9 -14 52 -16 110 -2 52 -9 109 -15 125 -6 17 -19 57 -30 89 -20 62 -43
86 -43 45 0 -13 6 -41 14 -64 26 -77 47 -181 44 -220 l-3 -40 -52 -2 c-100 -3
-123 -57 -123 -287 l0 -163 -29 -39 c-43 -60 -132 -114 -187 -114 -18 0 -59
-7 -93 -15 -37 -10 -91 -15 -143 -13 l-83 3 -19 38 c-14 30 -19 63 -20 147 0
64 3 113 9 119 6 6 60 14 120 17 164 10 215 39 251 141 18 51 18 54 0 108 -23
66 -70 124 -128 156 -40 22 -53 24 -188 22 -221 -3 -317 -38 -389 -143 -26
-39 -31 -55 -31 -108 0 -56 3 -65 34 -100 44 -49 110 -72 203 -72 45 0 75 -4
79 -12 4 -7 8 -66 9 -133 1 -66 7 -132 13 -147 13 -32 15 -32 -88 -29 -95 2
-223 22 -241 38 -8 7 -20 13 -26 13 -15 0 -133 129 -133 145 0 7 -8 27 -17 46
-14 27 -17 61 -17 174 -1 162 10 194 86 258 83 70 88 78 77 99 -20 37 2 191
37 261 8 16 14 34 14 40 1 38 218 177 278 177 9 0 37 7 62 14 65 21 378 21
474 1z m-892 -397 c-4 -108 -5 -114 -30 -133 -43 -32 -96 -88 -113 -120 -9
-16 -22 -69 -29 -117 -11 -74 -11 -98 3 -175 19 -109 36 -156 70 -195 15 -16
27 -33 27 -37 0 -11 -67 -41 -90 -41 -11 0 -29 -5 -39 -12 -10 -6 -25 -9 -34
-5 -13 5 -13 12 -1 64 9 39 14 125 14 258 0 110 5 218 11 240 6 22 14 56 19
75 24 98 76 200 134 263 24 26 47 47 53 47 6 0 8 -43 5 -112z m1449 60 c33
-25 99 -128 99 -156 0 -9 7 -26 15 -36 8 -11 15 -31 15 -45 0 -14 7 -46 16
-70 12 -35 14 -73 10 -175 -3 -72 -5 -133 -5 -136 -2 -12 -50 77 -51 92 0 10
-6 32 -14 50 -8 18 -21 58 -29 88 -9 30 -23 79 -31 109 -9 29 -16 61 -16 71 0
10 -7 34 -15 53 -8 20 -15 48 -15 62 0 14 -7 40 -16 56 -14 28 -14 59 1 59 3
0 20 -10 36 -22z m-284 -361 c11 -13 36 -47 53 -77 31 -52 33 -61 34 -155 1
-90 -2 -104 -24 -140 -47 -76 -79 -78 -53 -2 20 57 15 242 -7 242 -12 0 -15
-19 -16 -105 -3 -156 -30 -241 -91 -286 -38 -29 -129 -51 -151 -38 -25 16 -26
33 0 43 25 10 54 40 82 85 16 24 19 56 21 199 4 220 17 257 89 257 30 0 47 -7
63 -23z m57 -508 c128 -33 160 -46 192 -77 38 -37 42 -57 17 -99 -22 -39 -68
-68 -120 -76 -40 -7 -43 -5 -58 24 -20 39 -69 61 -102 46 -13 -5 -23 -14 -23
-19 0 -13 -22 -9 -42 9 -10 9 -18 25 -18 35 0 23 -44 41 -80 33 -34 -8 -70
-56 -70 -94 0 -16 -4 -33 -10 -36 -5 -3 -10 -17 -10 -30 0 -33 -26 -38 -145
-32 -73 3 -100 9 -115 22 -11 10 -20 23 -20 28 0 19 -35 36 -74 37 -29 0 -54
10 -93 37 -50 34 -54 35 -71 20 -23 -21 -51 -22 -79 -2 -12 8 -43 16 -70 16
-130 2 -145 0 -168 -21 -13 -12 -29 -23 -36 -24 -44 -9 -69 -20 -69 -30 0 -6
-12 -19 -26 -30 -22 -16 -31 -17 -67 -6 -23 6 -60 15 -82 19 -99 20 -147 61
-126 107 11 25 163 104 203 104 13 1 34 7 48 15 36 21 55 18 102 -11 69 -44
134 -54 384 -61 200 -5 241 -4 302 12 50 12 88 15 129 10 79 -8 162 -9 199 0
17 4 51 24 75 45 48 42 61 45 123 29z m-184 -172 c0 -19 -48 -43 -61 -30 -5 5
-7 17 -3 26 8 21 64 24 64 4z m-842 -59 c3 -33 -1 -40 -23 -50 -17 -8 -34 -9
-52 -2 -39 13 -41 34 -4 34 36 0 52 19 22 27 -12 3 -21 12 -21 20 0 10 10 13
38 11 35 -3 37 -5 40 -40z m93 25 c25 -15 29 -23 27 -53 -3 -30 -7 -35 -31
-38 -16 -2 -35 2 -43 9 -17 14 -19 70 -2 87 15 15 14 15 49 -5z m130 -3 c29
-16 24 -40 -9 -40 -36 0 -44 8 -31 31 11 22 14 23 40 9z m780 -10 c22 -12 26
-60 6 -60 -21 0 -50 37 -44 55 7 18 12 18 38 5z m-134 -17 c2 -5 -8 -18 -22
-27 -27 -18 -32 -8 -14 25 10 20 30 22 36 2z m403 -35 c6 -29 16 -115 20 -190
5 -76 14 -146 20 -157 5 -11 10 -47 10 -81 0 -54 -3 -64 -27 -86 -41 -38 -188
-104 -273 -124 -19 -4 -48 -13 -63 -19 -16 -6 -45 -11 -65 -11 -20 -1 -48 -7
-62 -15 -14 -8 -53 -14 -90 -15 -36 0 -132 -7 -214 -16 -123 -13 -166 -14
-250 -5 -55 7 -149 16 -208 21 -59 5 -112 11 -118 15 -5 3 -42 10 -82 15 -74
9 -139 23 -193 42 -16 5 -46 14 -65 18 -51 12 -109 35 -122 48 -7 7 -18 12
-24 12 -16 0 -77 58 -92 87 -18 32 -15 53 7 53 11 0 21 -4 23 -8 5 -12 73 -62
115 -83 46 -23 123 -26 123 -4 0 11 -11 15 -37 15 -41 0 -108 37 -187 104 -42
36 -46 43 -46 83 0 24 5 53 11 65 6 11 15 52 19 92 5 39 14 91 21 116 6 25 13
51 15 57 2 9 17 5 50 -12 26 -14 57 -25 69 -25 12 0 42 -7 65 -15 23 -8 72
-15 109 -15 36 0 107 -5 156 -10 101 -10 478 -30 660 -34 124 -3 329 13 425
34 30 6 90 19 133 28 56 12 85 24 105 43 15 15 32 27 38 28 6 1 17 -23 24 -51z
m-1422 10 c3 -14 -3 -18 -26 -18 -35 0 -45 9 -30 27 15 19 52 12 56 -9z m942
-8 c13 -25 5 -40 -21 -40 -22 0 -34 22 -25 45 8 21 33 19 46 -5z m-482 -2 c22
-22 13 -38 -21 -38 -43 0 -51 9 -30 32 19 21 34 23 51 6z m620 -5 c-2 -10 -13
-19 -26 -21 -24 -4 -29 7 -10 26 18 18 40 15 36 -5z m-535 -7 c7 -16 -1 -26
-20 -26 -7 0 -13 9 -13 20 0 23 25 27 33 6z"/>
<path d="M6466 6820 c-21 -26 -24 -34 -15 -54 11 -23 47 -46 73 -46 7 0 25 9
40 21 34 27 35 71 1 93 -37 25 -70 20 -99 -14z"/>
<path d="M5731 6804 c-37 -47 -21 -94 33 -94 45 0 79 36 74 81 -3 32 -5 34
-44 37 -35 3 -45 -1 -63 -24z"/>
<path d="M7030 5675 c-7 -8 -21 -15 -32 -15 -13 0 -18 -6 -16 -17 2 -13 11
-17 28 -15 28 4 72 41 64 53 -8 14 -30 11 -44 -6z"/>
<path d="M5237 5484 c-8 -8 3 -34 15 -34 6 0 28 -14 50 -31 27 -22 43 -28 50
-21 11 11 -22 52 -42 52 -5 0 -10 4 -10 8 0 5 -11 14 -25 20 -30 14 -30 14
-38 6z"/>
<path d="M7025 5270 c-49 -12 -105 -39 -105 -50 0 -15 44 -12 82 4 18 8 45 17
61 21 15 3 27 12 27 20 0 16 -18 17 -65 5z"/>
<path d="M5325 7050 c-91 -182 -106 -218 -113 -274 -9 -78 31 -21 57 79 4 17
13 39 19 50 6 11 13 27 16 35 4 8 15 29 26 45 27 40 39 68 33 78 -8 14 -28 7
-38 -13z"/>
<path d="M4530 7030 c0 -6 11 -23 25 -38 24 -25 26 -33 24 -122 -1 -75 1 -95
12 -95 34 0 31 175 -3 233 -18 30 -58 45 -58 22z"/>
<path d="M3065 7018 c-32 -19 -93 -90 -118 -138 -23 -44 -25 -45 -75 -48 -47
-3 -53 -1 -61 20 -17 43 -126 128 -165 128 -37 0 -32 -17 8 -34 52 -21 126
-94 126 -122 0 -21 -5 -24 -39 -24 -22 0 -42 4 -45 9 -9 15 -90 51 -114 51
-55 0 -16 -35 72 -64 18 -6 18 -8 -4 -31 -13 -14 -28 -25 -33 -25 -15 0 -124
-100 -152 -139 -14 -21 -42 -47 -62 -57 -21 -11 -45 -26 -56 -34 -30 -23 -107
-127 -107 -143 0 -8 -7 -20 -15 -27 -8 -7 -15 -22 -15 -34 -1 -11 -7 -32 -15
-46 -8 -14 -14 -44 -15 -67 0 -40 -3 -44 -37 -59 -23 -10 -87 -19 -163 -24
-69 -5 -141 -13 -160 -19 -19 -6 -48 -11 -65 -11 -16 0 -39 -7 -49 -15 -11 -8
-27 -15 -36 -15 -43 0 -73 -67 -90 -200 -5 -36 -13 -78 -19 -93 -6 -16 -11
-44 -11 -64 0 -19 -7 -62 -15 -94 -9 -33 -17 -107 -18 -165 l-2 -106 30 -24
c80 -65 224 -107 475 -138 145 -19 518 -22 601 -6 30 6 103 15 163 20 97 8
115 7 165 -10 119 -42 243 -16 370 78 25 18 56 32 72 32 15 0 40 5 55 10 20 8
32 7 50 -5 36 -23 75 -18 149 21 47 25 74 34 91 30 13 -4 37 0 52 7 28 14 203
17 232 3 20 -8 93 17 119 41 16 15 28 44 57 141 2 6 11 12 19 12 24 0 82 47
106 87 22 36 22 36 4 92 -11 31 -29 73 -42 93 -29 47 -28 52 0 102 18 30 27
70 36 151 13 120 4 192 -37 285 l-19 45 53 59 c30 33 54 67 54 75 0 9 7 27 16
39 11 16 16 49 17 115 2 103 -17 158 -71 210 -40 38 -117 48 -152 19 -25 -20
-25 -20 -22 -174 3 -131 1 -157 -12 -167 -9 -8 -16 -19 -16 -26 0 -6 -11 -24
-24 -40 -21 -25 -28 -27 -67 -21 -24 4 -110 9 -190 12 -119 5 -152 3 -183 -10
-74 -31 -106 -19 -106 39 0 48 -41 114 -105 172 -35 31 -62 60 -59 65 3 4 29
24 59 44 52 34 62 54 29 54 -13 0 -53 -23 -111 -66 -15 -10 -29 -13 -40 -8
-10 4 -36 12 -58 18 -63 17 -59 43 15 91 37 24 60 46 60 57 0 10 -4 18 -8 18
-13 0 -93 -55 -137 -94 -36 -33 -45 -36 -100 -36 -33 0 -69 -3 -80 -5 -30 -8
-47 8 -40 37 7 28 72 102 98 111 9 4 17 16 17 27 0 23 -7 24 -35 8z m1247
-151 c15 -11 28 -28 28 -36 0 -9 7 -25 15 -35 10 -14 15 -45 15 -102 0 -102
-20 -152 -97 -234 l-55 -60 33 -68 34 -67 -2 -141 c-1 -164 -8 -182 -99 -277
-50 -51 -56 -63 -56 -98 1 -22 8 -60 18 -85 28 -73 5 -226 -38 -261 -27 -22
-78 -26 -99 -7 -20 18 -25 49 -9 59 13 8 13 42 1 49 -13 9 -51 -57 -51 -88 0
-24 -3 -26 -40 -26 -44 0 -48 9 -25 50 19 33 18 40 -2 40 -11 0 -26 -16 -37
-41 -18 -36 -58 -69 -85 -69 -6 0 1 20 14 44 32 58 33 120 1 185 -20 43 -22
56 -14 93 6 24 16 56 24 71 16 32 19 77 5 77 -13 0 -51 -77 -51 -104 0 -12 -3
-26 -7 -29 -8 -8 -53 32 -53 47 -1 16 -36 56 -49 56 -23 0 -8 -35 61 -142 83
-128 93 -167 58 -223 -20 -32 -120 -115 -139 -115 -5 0 -23 -8 -41 -17 -30
-17 -32 -17 -45 0 -11 15 -11 25 -3 43 20 43 -5 50 -36 9 -18 -23 -35 -35 -52
-35 -31 0 -30 7 5 77 36 71 61 147 61 185 0 28 -22 127 -41 183 -6 17 -14 44
-19 60 -10 36 -28 88 -47 133 -27 66 -45 107 -54 122 -5 8 -20 38 -34 65 -14
28 -30 57 -34 65 -27 48 -41 97 -41 140 0 38 -4 50 -15 50 -12 0 -15 -13 -15
-61 0 -60 23 -118 127 -313 12 -22 22 -48 23 -56 0 -8 7 -24 15 -34 8 -11 15
-29 15 -40 0 -12 7 -30 15 -40 8 -11 15 -31 15 -44 0 -13 5 -33 11 -44 15 -27
39 -144 39 -183 -1 -62 -36 -154 -97 -252 -34 -57 -120 -112 -228 -147 -64
-21 -99 -20 -162 2 -48 17 -163 94 -163 110 0 4 -10 19 -22 32 -33 37 -68 88
-68 99 0 5 -6 22 -14 38 -47 95 -57 195 -31 313 8 36 14 81 15 101 0 19 7 44
15 55 8 10 15 27 15 36 0 10 6 32 14 50 40 98 59 195 43 223 -14 26 -27 6 -27
-43 -1 -26 -7 -58 -15 -72 -8 -14 -14 -37 -15 -51 0 -14 -7 -34 -15 -45 -8
-10 -15 -29 -15 -41 0 -12 -12 -34 -27 -48 -27 -25 -30 -25 -193 -25 l-165 0
-20 37 c-23 44 -86 83 -132 83 -94 0 23 76 147 95 60 9 80 33 86 100 9 107 41
228 75 285 5 8 13 24 18 35 12 26 57 74 101 107 47 36 169 98 191 98 10 0 44
7 76 15 37 10 105 15 195 15 150 0 206 -12 305 -66 55 -30 152 -121 153 -144
0 -8 7 -23 15 -33 7 -10 17 -52 20 -93 6 -61 10 -74 25 -74 9 0 22 11 28 25 8
17 20 25 36 25 13 0 40 7 59 15 47 20 209 20 302 0 38 -8 78 -15 87 -15 18 0
88 66 88 83 0 6 8 19 18 30 15 17 17 38 14 172 -2 138 -1 155 15 164 23 14 70
4 105 -22z m-1922 -402 c0 -14 -6 -41 -14 -59 -7 -18 -17 -70 -21 -115 l-7
-83 -42 -19 c-84 -38 -110 -19 -81 59 34 95 70 156 119 210 36 39 46 40 46 7z
m-330 -398 c0 -8 -20 -23 -43 -35 -32 -16 -49 -33 -62 -63 l-19 -41 -103 4
c-63 2 -107 8 -115 16 -6 6 -25 12 -40 12 -23 0 -28 4 -28 23 0 19 11 28 53
45 29 12 64 22 77 22 14 1 50 7 80 15 75 18 200 20 200 2z m-220 -168 c86 -6
280 -7 476 -3 234 4 333 3 338 -4 4 -6 0 -38 -9 -71 -20 -79 -20 -222 1 -286
29 -86 87 -194 136 -253 26 -30 45 -58 43 -60 -5 -5 -75 -13 -300 -32 -160
-13 -635 11 -673 34 -7 4 -33 11 -60 16 -52 9 -102 25 -145 46 -16 8 -33 14
-39 14 -6 0 -21 10 -34 23 -21 20 -24 30 -24 113 0 52 6 112 15 140 8 27 15
69 16 94 2 102 22 121 101 98 70 -22 223 -48 279 -48 24 0 82 -7 129 -15 116
-20 270 -20 270 0 0 12 -13 15 -57 15 -32 1 -92 5 -133 11 -41 5 -120 13 -176
18 -104 10 -198 24 -269 42 -22 6 -53 13 -70 17 -38 10 -54 49 -37 88 11 23
17 25 45 20 18 -4 97 -11 177 -17z m2415 -101 c36 -71 45 -114 34 -147 -11
-32 -75 -85 -91 -75 -4 3 -8 24 -8 47 -1 23 -7 53 -15 67 -25 43 -19 85 16
114 39 33 44 33 64 -6z"/>
<path d="M2490 6201 c0 -10 7 -34 15 -54 11 -26 23 -37 45 -42 53 -12 109 45
80 80 -16 19 -30 10 -30 -21 0 -20 -5 -24 -30 -24 -27 0 -30 4 -36 40 -5 30
-11 40 -25 40 -12 0 -19 -7 -19 -19z"/>
<path d="M2540 5741 c-49 -9 -55 -41 -8 -41 39 0 74 21 64 38 -4 7 -10 11 -14
11 -4 -1 -23 -4 -42 -8z"/>
<path d="M4415 6971 c-3 -6 3 -15 14 -20 19 -11 61 -86 61 -110 0 -26 32 -121
41 -121 18 0 21 50 5 84 -9 19 -16 41 -16 50 0 19 -30 85 -50 108 -16 19 -45
24 -55 9z"/>
<path d="M5405 6957 c-11 -12 -27 -36 -36 -55 -10 -18 -21 -38 -26 -45 -16
-21 -37 -97 -29 -105 9 -8 46 34 46 52 0 17 34 82 65 121 14 20 23 40 20 45
-9 14 -17 11 -40 -13z"/>
<path d="M2229 6654 c-32 -17 -159 -133 -159 -145 0 -16 35 -10 51 9 23 25 63
58 109 88 23 15 40 35 40 45 0 22 -5 22 -41 3z"/>
<path d="M2300 6612 c0 -4 -12 -15 -27 -24 -66 -40 -163 -152 -146 -169 5 -5
48 30 110 90 56 54 99 101 96 105 -9 9 -33 7 -33 -2z"/>
<path d="M6345 4750 c-3 -6 3 -22 14 -36 12 -15 21 -37 21 -50 0 -12 3 -29 6
-38 7 -19 31 -21 36 -4 8 22 -14 92 -35 116 -22 24 -33 27 -42 12z"/>
<path d="M6260 4670 c0 -10 6 -23 13 -27 21 -13 45 -58 49 -89 4 -41 34 -40
31 1 -4 51 -11 69 -41 103 -33 36 -52 41 -52 12z"/>
<path d="M5954 4607 c-9 -16 -17 -46 -17 -67 -2 -29 -9 -43 -34 -64 -48 -40
-46 -80 8 -176 5 -8 20 -37 35 -65 29 -55 38 -72 75 -130 38 -62 52 -126 37
-183 -22 -89 -26 -91 -160 -92 -78 0 -128 -5 -150 -14 -18 -8 -60 -22 -93 -32
-99 -30 -195 -100 -261 -189 -56 -76 -111 -208 -125 -300 -5 -33 -14 -76 -19
-95 -5 -19 -10 -58 -10 -86 0 -50 0 -51 -89 -139 -93 -93 -133 -157 -165 -266
-21 -72 -21 -152 0 -185 18 -27 20 -18 -31 -199 -8 -27 -16 -63 -18 -80 -3
-16 -9 -43 -15 -60 -33 -96 -55 -243 -50 -337 4 -69 20 -100 63 -119 11 -5 27
-13 35 -18 20 -12 76 -36 125 -54 91 -33 112 -39 145 -46 19 -4 51 -13 70 -19
91 -28 321 -56 591 -72 86 -5 176 -14 200 -19 131 -31 733 13 849 62 14 5 43
14 65 18 22 5 65 13 95 19 30 7 75 18 100 26 25 8 53 14 64 14 10 0 36 14 58
32 38 30 40 33 35 77 -5 46 -19 134 -39 246 -6 33 -14 92 -18 130 -8 77 -23
179 -45 298 -18 96 -29 106 -138 130 -45 10 -102 24 -127 30 l-45 13 -7 69
c-13 129 -32 186 -98 295 -39 64 -90 189 -126 305 -10 33 -24 69 -31 80 -7 11
-13 43 -13 71 0 64 -28 194 -46 215 -8 8 -14 19 -14 23 0 18 -80 87 -131 113
-77 40 -132 54 -234 61 -89 7 -90 7 -87 32 2 14 10 36 17 50 37 75 48 137 53
300 3 137 1 173 -13 210 -9 25 -19 54 -22 65 -3 11 -11 34 -19 52 -8 17 -14
35 -14 40 0 6 -9 21 -21 34 -18 21 -29 24 -100 25 -79 1 -80 1 -95 -29z m76
-19 c15 -10 24 -9 45 2 36 19 51 2 89 -102 28 -77 30 -94 33 -247 4 -167 -3
-216 -43 -309 -8 -18 -14 -37 -14 -43 0 -6 -14 -32 -31 -56 -37 -56 -28 -69
32 -48 64 23 209 6 304 -37 81 -35 175 -135 175 -184 0 -12 6 -41 13 -65 8
-25 11 -52 8 -61 -5 -14 -13 -12 -51 18 -53 40 -123 74 -155 74 -12 0 -42 7
-65 15 -50 18 -157 20 -197 4 -16 -7 -98 -13 -193 -14 -223 -4 -371 -36 -456
-101 -37 -27 -90 -104 -139 -202 -20 -38 -51 -87 -70 -108 -32 -37 -34 -38
-35 -15 -1 56 48 287 67 318 7 12 13 27 13 32 0 23 73 132 115 172 57 55 121
98 154 105 15 3 42 11 61 19 95 36 135 42 219 34 125 -11 146 2 180 110 20 61
20 66 4 129 -9 36 -33 90 -53 121 -41 62 -52 82 -104 188 -20 40 -33 79 -30
87 3 8 21 20 40 26 32 11 34 14 34 58 0 55 9 92 21 92 5 0 18 -5 29 -12z m334
-1079 c109 -28 155 -46 201 -81 48 -36 115 -120 115 -145 0 -7 6 -27 14 -45 8
-18 22 -60 33 -93 17 -56 59 -146 129 -275 31 -57 71 -226 61 -255 -13 -33
-57 0 -57 42 0 28 -39 89 -102 163 -49 57 -66 106 -74 215 -6 81 -23 148 -56
220 -21 47 -105 138 -118 130 -12 -8 -13 -35 -2 -35 9 0 68 -78 91 -120 26
-49 51 -156 51 -220 0 -88 24 -149 87 -223 66 -77 89 -123 102 -207 9 -51 8
-81 -4 -135 -19 -94 -30 -102 -142 -108 -50 -2 -96 -1 -102 2 -7 5 -6 24 4 61
17 62 8 124 -27 192 -25 47 -97 83 -223 110 -125 27 -377 29 -490 4 -44 -10
-91 -20 -105 -23 -14 -2 -46 -27 -72 -55 -46 -48 -48 -53 -48 -108 0 -47 5
-64 29 -97 16 -22 32 -50 36 -63 7 -22 5 -23 -26 -16 -19 4 -86 11 -149 16
-63 5 -123 12 -133 15 -24 10 -57 76 -57 115 0 17 9 58 20 91 21 61 25 70 54
126 9 17 16 36 16 43 0 7 6 26 14 43 21 48 46 202 46 288 0 93 30 169 84 217
38 33 47 62 20 62 -19 0 -104 -87 -104 -107 0 -8 -7 -24 -15 -36 -8 -13 -19
-68 -25 -127 -25 -263 -35 -304 -119 -470 -6 -10 -32 -17 -87 -22 -77 -6 -166
-27 -180 -41 -4 -4 -16 -7 -26 -7 -15 0 -18 8 -18 50 0 149 89 301 243 414 74
54 118 111 182 232 75 141 92 159 207 208 20 9 49 16 65 16 15 0 53 7 83 15
36 10 107 15 210 16 85 0 164 4 175 9 28 12 140 12 189 -1z m-1063 -1014 c3
-39 7 -77 10 -85 3 -13 -8 -15 -66 -12 -156 6 -245 62 -186 116 21 19 66 33
151 45 86 13 84 14 91 -64z m1775 29 c28 -8 62 -14 76 -14 37 0 72 -31 64 -56
-12 -38 -172 -89 -301 -96 l-50 -3 1 35 c1 29 17 117 30 167 3 11 53 2 180
-33z m-2010 -123 c15 -15 115 -41 158 -41 23 0 77 -6 121 -15 147 -26 287 -37
610 -45 368 -10 800 -4 895 12 36 6 94 14 130 18 78 8 153 27 198 49 32 15 34
15 48 -3 8 -11 14 -30 14 -43 0 -26 -44 -49 -114 -60 -23 -3 -52 -11 -66 -18
-14 -6 -52 -17 -85 -24 -84 -18 -85 -19 -85 -36 0 -10 9 -15 27 -15 29 0 119
25 170 46 17 8 43 14 58 14 14 0 40 7 57 16 17 9 34 12 37 7 13 -14 32 -92 41
-162 4 -36 14 -107 20 -157 18 -125 13 -137 -57 -160 -31 -11 -58 -25 -61 -32
-7 -21 28 -26 64 -8 19 9 46 16 60 16 21 0 25 -4 22 -26 -4 -34 -50 -58 -153
-79 -80 -16 -149 -32 -235 -56 -151 -42 -471 -73 -665 -66 -231 9 -478 25
-545 36 -36 6 -87 11 -115 11 -48 0 -177 20 -260 41 -22 6 -58 14 -80 18 -22
4 -51 13 -65 18 -14 6 -52 19 -85 29 -66 20 -157 64 -193 94 -23 19 -24 23
-19 137 2 65 10 137 16 161 26 97 33 129 39 172 8 52 26 61 76 37 37 -18 112
-39 221 -62 44 -10 102 -24 129 -31 60 -17 192 -19 202 -3 11 19 -18 29 -84
29 -75 0 -363 63 -440 96 -18 8 -39 14 -47 14 -21 0 -27 17 -20 50 5 22 12 30
29 30 12 0 26 -4 32 -9z"/>
<path d="M6343 2895 c-12 -33 65 -83 110 -71 55 13 107 86 62 86 -8 0 -15 -4
-15 -10 0 -5 -13 -16 -30 -25 -35 -18 -76 -11 -91 16 -12 23 -28 24 -36 4z"/>
<path d="M5655 2890 c-8 -12 7 -40 35 -65 32 -29 131 -28 161 2 13 13 19 28
15 38 -5 15 -9 14 -32 -4 -18 -14 -41 -21 -70 -21 -37 0 -47 5 -66 30 -23 32
-33 36 -43 20z"/>
<path d="M5705 2200 c-3 -5 9 -19 27 -30 27 -16 50 -20 126 -20 71 0 92 3 92
14 0 10 -22 15 -90 18 -51 2 -95 9 -102 16 -15 15 -45 16 -53 2z"/>
<path d="M6656 3972 c-3 -5 13 -26 35 -48 49 -48 79 -109 79 -163 0 -30 4 -41
15 -41 12 0 15 13 15 60 0 48 -5 69 -26 101 -47 75 -102 117 -118 91z"/>
<path d="M5396 3882 c-59 -71 -86 -114 -86 -138 0 -22 39 1 50 29 4 12 35 53
68 91 34 39 59 73 56 78 -12 19 -35 4 -88 -60z"/>
<path d="M4370 3901 c0 -11 5 -23 10 -26 21 -13 40 -79 40 -136 0 -58 -19
-150 -39 -188 -15 -27 -14 -61 2 -61 28 1 77 162 77 251 -1 49 -7 76 -29 119
-28 57 -61 79 -61 41z"/>
<path d="M6596 3882 c-3 -5 8 -19 25 -31 33 -25 89 -107 89 -133 0 -25 18 -31
29 -10 20 38 -73 182 -118 182 -11 0 -22 -4 -25 -8z"/>
<path d="M5504 3862 c-11 -9 -42 -45 -67 -79 -46 -60 -58 -93 -36 -93 13 0 27
14 62 66 15 22 43 55 62 74 19 19 35 38 35 42 0 14 -34 8 -56 -10z"/>
<path d="M4210 3858 c0 -6 10 -32 21 -56 19 -38 21 -55 16 -122 -4 -44 -12
-108 -18 -145 -10 -50 -10 -68 -1 -77 6 -6 14 -9 18 -5 16 15 33 141 34 239 0
91 -3 112 -21 142 -20 35 -49 49 -49 24z"/>
<path d="M2571 3833 c-25 -2 -54 -11 -65 -19 -11 -8 -30 -14 -42 -14 -12 0
-27 -7 -34 -15 -7 -8 -18 -15 -26 -15 -17 0 -121 -101 -134 -132 -22 -48 -38
-69 -73 -96 -34 -25 -95 -99 -110 -132 -4 -8 -16 -28 -27 -45 -23 -36 -81
-155 -103 -210 -26 -68 -40 -179 -34 -264 7 -85 4 -92 -43 -106 -41 -12 -58
-34 -75 -93 -9 -32 -22 -78 -30 -103 -8 -26 -15 -55 -15 -66 0 -11 -6 -39 -14
-64 -35 -114 -68 -313 -57 -342 13 -32 133 -87 189 -87 19 0 39 -12 64 -40 37
-39 92 -62 179 -76 37 -6 83 10 139 47 20 13 39 15 90 10 l65 -6 3 -35 c1 -19
4 -45 7 -56 7 -30 65 -84 90 -84 11 0 42 -20 68 -44 73 -66 125 -79 294 -71
292 13 365 43 424 175 21 45 21 73 3 183 -5 32 -4 37 14 37 30 0 62 -69 62
-133 0 -73 26 -139 62 -160 46 -26 159 -40 287 -34 140 7 171 12 238 43 54 25
93 68 93 103 0 29 -21 71 -53 108 l-29 31 -3 199 c-2 109 -8 257 -14 328 -6
72 -10 173 -11 225 0 127 -37 234 -117 347 -32 44 -29 58 20 83 70 37 187 136
187 159 0 4 5 12 11 18 25 25 48 119 49 193 0 64 -4 81 -25 112 -27 40 -98 78
-145 78 -52 0 -103 -50 -149 -146 -42 -87 -50 -104 -88 -190 -10 -23 -33 -52
-52 -65 -32 -22 -34 -23 -63 -6 -16 9 -34 17 -38 17 -5 0 -34 9 -64 21 -51 18
-56 23 -62 57 -8 40 -26 79 -62 130 -28 39 -116 92 -153 92 -14 0 -35 11 -48
23 -19 21 -47 36 -159 83 -18 8 -48 14 -66 14 -19 0 -49 6 -67 14 -36 14 -213
26 -288 19z m289 -48 c14 -8 37 -14 52 -15 26 0 52 -9 145 -52 40 -18 62 -39
89 -84 10 -17 14 -17 37 -5 21 11 32 12 56 1 66 -27 151 -144 137 -188 -6 -17
-11 -18 -51 -9 -32 7 -81 6 -187 -7 -79 -9 -171 -16 -205 -16 -76 0 -143 -26
-279 -107 -39 -24 -75 -43 -78 -43 -11 0 -66 -43 -66 -52 0 -21 65 2 145 52
142 89 206 109 385 122 256 19 343 14 454 -29 61 -23 79 -46 51 -67 -19 -14
-19 -15 -2 -22 36 -13 197 123 197 168 0 7 4 18 9 24 5 5 19 34 31 64 79 196
110 226 197 199 79 -24 109 -101 82 -204 -6 -22 -13 -53 -16 -70 -8 -42 -143
-172 -218 -211 -33 -16 -87 -38 -120 -48 -33 -10 -71 -23 -85 -30 -27 -13 -35
-44 -10 -37 8 2 36 9 62 15 25 6 50 14 54 19 29 28 72 -19 131 -143 51 -109
55 -127 64 -345 4 -115 12 -246 18 -289 13 -112 -7 -372 -32 -404 -18 -23 3
-26 33 -4 l29 22 20 -29 c35 -49 37 -86 8 -113 -52 -48 -116 -61 -301 -62
-178 -1 -237 9 -255 42 -5 9 -14 58 -21 107 -7 50 -19 97 -27 106 -7 8 -13 20
-13 26 0 6 -7 16 -15 23 -26 21 -17 58 30 121 46 62 55 89 32 89 -12 0 -47
-34 -47 -45 0 -3 -19 -31 -42 -63 -24 -31 -52 -77 -62 -101 -17 -37 -18 -48
-8 -87 23 -85 13 -127 -45 -200 -43 -55 -82 -71 -183 -77 -47 -3 -128 -9 -181
-13 -101 -7 -199 7 -199 29 1 7 14 23 30 37 28 22 41 60 22 60 -5 0 -28 -18
-53 -40 -40 -36 -45 -38 -57 -22 -22 29 -4 64 68 134 38 37 72 78 75 91 6 23
-9 92 -37 172 -6 17 -13 85 -15 153 -4 94 -2 139 12 195 45 191 56 220 108
288 31 43 34 59 10 59 -17 0 -63 -56 -76 -92 -9 -24 -44 -23 -57 2 -10 18 -50
29 -50 13 0 -3 12 -22 27 -42 32 -42 35 -107 7 -198 -25 -81 -24 -313 0 -398
41 -141 40 -131 18 -162 -11 -15 -42 -49 -70 -74 -27 -25 -55 -56 -61 -68 -16
-30 -44 -26 -80 11 -40 41 -40 72 0 139 24 42 30 61 26 93 -4 43 -20 92 -43
138 -8 14 -14 33 -14 43 0 9 -7 29 -15 45 -13 26 -13 37 0 100 29 136 17 348
-27 475 -6 17 -13 51 -17 77 -4 25 -13 54 -21 63 -9 11 -13 51 -14 133 -1 66
-5 119 -11 122 -5 3 -15 -24 -22 -60 -14 -70 -5 -148 23 -203 8 -16 14 -42 14
-58 0 -17 5 -40 12 -52 6 -12 14 -48 19 -82 30 -247 31 -258 20 -329 -7 -39
-16 -101 -21 -139 -5 -37 -14 -76 -20 -87 -5 -10 -10 -28 -10 -39 0 -19 -12
-52 -48 -131 -24 -52 -70 -109 -103 -125 -17 -9 -57 -15 -104 -15 -63 0 -82 4
-103 21 -60 47 -78 113 -47 173 8 15 15 34 15 42 0 7 6 28 14 46 8 18 19 61
25 94 12 64 9 96 -26 304 -10 60 -16 160 -17 270 l-1 175 33 70 c19 39 38 77
43 85 5 8 15 29 24 45 44 89 92 164 129 198 27 24 81 47 114 47 6 0 12 9 12
20 0 11 -4 20 -10 20 -42 0 52 130 115 160 11 6 27 14 35 18 71 41 74 41 225
41 112 0 156 -3 175 -14z m-922 -1064 c5 -32 -8 -42 -43 -33 -54 15 -41 65 15
60 18 -2 26 -10 28 -27z m-12 -86 c32 -20 45 -76 47 -198 1 -99 -8 -146 -46
-237 -6 -14 -13 -47 -16 -75 -6 -50 -6 -50 -41 -48 -51 2 -91 13 -122 35 -25
17 -27 23 -22 71 6 56 27 163 49 242 8 28 17 69 21 92 7 49 32 63 69 39 29
-19 75 -21 75 -3 0 11 -73 47 -97 47 -14 0 -21 20 -15 44 4 15 11 17 40 13 19
-4 45 -13 58 -22z m504 -415 c11 -21 20 -48 20 -59 0 -11 5 -23 10 -26 15 -9
12 -72 -5 -105 -14 -26 -21 -30 -59 -30 -51 0 -76 8 -76 23 0 6 8 29 18 51 25
56 43 106 49 136 12 62 16 63 43 10z"/>
<path d="M3500 3046 c0 -14 5 -28 10 -31 6 -3 10 -15 10 -27 0 -18 -4 -19 -34
-14 -28 5 -37 3 -45 -12 -13 -24 -5 -32 31 -32 18 0 28 -5 28 -15 0 -8 -4 -15
-10 -15 -5 0 -10 -7 -10 -15 0 -23 36 -18 53 8 11 14 19 18 24 11 4 -5 16 -21
26 -35 15 -20 19 -22 27 -9 6 10 4 22 -6 38 -16 24 -18 21 31 37 23 7 18 24
-11 31 -18 5 -23 11 -18 23 14 33 16 61 5 61 -6 0 -14 -7 -17 -15 -9 -24 -43
-18 -56 10 -14 32 -38 32 -38 1z"/>
<path d="M1848 3499 c-28 -16 -109 -166 -123 -226 -6 -29 -4 -33 14 -33 15 0
21 6 21 21 0 11 6 33 14 47 8 15 17 34 20 42 4 8 15 29 26 45 11 17 24 40 30
53 5 12 14 22 20 22 12 0 14 27 2 34 -4 2 -15 0 -24 -5z"/>
<path d="M1913 3378 c-36 -76 -57 -137 -49 -145 12 -12 36 8 42 34 4 15 20 55
35 89 32 68 35 84 15 84 -7 0 -27 -28 -43 -62z"/>
<path d="M4934 3053 c-32 -48 -45 -76 -65 -137 -21 -65 -23 -94 -9 -116 9 -13
11 -13 20 0 5 8 10 23 10 32 0 59 39 155 82 202 10 11 18 26 18 33 0 23 -37
14 -56 -14z"/>
<path d="M5019 3033 c-25 -31 -70 -141 -73 -177 0 -10 4 -21 9 -23 11 -3 30
31 65 117 12 30 26 59 31 65 14 14 11 35 -4 35 -8 0 -20 -8 -28 -17z"/>
<path d="M4280 2797 c0 -7 5 -18 10 -23 30 -30 53 -222 31 -262 -16 -29 -18
-87 -3 -87 20 0 51 102 52 169 0 67 -26 171 -49 198 -18 21 -41 24 -41 5z"/>
<path d="M4143 2704 c-4 -10 4 -25 21 -40 25 -23 26 -30 26 -120 0 -52 -5
-105 -11 -116 -16 -29 5 -48 28 -25 14 13 17 37 17 129 1 101 -2 117 -22 151
-25 39 -49 48 -59 21z"/>
<path d="M7380 2645 c0 -8 4 -15 9 -15 12 0 39 -75 43 -115 5 -47 23 -35 26
17 4 58 -28 128 -58 128 -11 0 -20 -7 -20 -15z"/>
<path d="M7290 2603 c0 -10 12 -26 26 -38 17 -14 27 -33 31 -63 4 -32 10 -42
24 -42 23 0 26 47 7 83 -35 61 -88 98 -88 60z"/>
</g>
</svg>
