<?xml version="1.0" standalone="no"?>
<!DOCTYPE svg PUBLIC "-//W3C//DTD SVG 20010904//EN"
 "http://www.w3.org/TR/2001/REC-SVG-20010904/DTD/svg10.dtd">
<svg version="1.0" xmlns="http://www.w3.org/2000/svg"
 width="300.000000pt" height="292.000000pt" viewBox="0 0 300.000000 292.000000"
 preserveAspectRatio="xMidYMid meet">
<metadata>
Created by potrace 1.10, written by Peter Selinger 2001-2011
</metadata>
<g transform="translate(0.000000,292.000000) scale(0.100000,-0.100000)"
fill="#000000" stroke="none">
<path d="M600 2708 c-34 -55 -45 -108 -44 -213 0 -126 13 -171 68 -231 41 -46
45 -48 108 -52 l65 -4 -59 -112 c-33 -61 -77 -139 -99 -173 -36 -55 -45 -62
-77 -65 -33 -3 -40 -8 -60 -48 -27 -53 -26 -113 4 -157 10 -16 19 -44 19 -64
3 -105 160 -237 339 -283 32 -9 61 -17 63 -19 2 -2 -2 -28 -8 -58 -7 -32 -10
-104 -7 -180 l5 -127 -54 -5 c-77 -8 -155 -47 -182 -90 -12 -19 -31 -77 -43
-129 -35 -156 -9 -258 67 -258 19 0 37 -5 40 -10 9 -15 170 -6 189 9 34 29 29
68 -16 118 -17 18 -20 32 -16 87 3 56 8 70 33 96 l28 29 38 -34 c21 -18 57
-39 80 -46 l41 -13 -6 -145 c-11 -235 -15 -261 -40 -261 -11 0 -34 -11 -50
-24 -25 -19 -30 -30 -30 -71 -1 -43 2 -50 24 -61 14 -7 41 -20 61 -30 27 -13
50 -16 93 -11 34 3 58 1 62 -5 9 -14 72 -3 93 16 9 8 27 16 41 18 57 7 60 115
3 141 -22 10 -24 15 -19 51 4 23 10 106 16 185 5 79 11 145 13 147 1 2 21 -3
43 -11 62 -21 185 -35 315 -35 65 0 119 -2 119 -5 0 -18 -39 -59 -72 -76 -42
-22 -78 -71 -78 -107 0 -28 44 -70 79 -78 14 -3 34 -9 43 -15 27 -14 104 -11
145 6 58 24 71 42 79 104 3 31 17 90 30 132 20 65 28 78 50 83 19 5 33 0 56
-19 17 -14 44 -29 60 -32 16 -3 32 -12 35 -20 3 -7 0 -62 -6 -120 -11 -104
-12 -108 -45 -135 -37 -30 -49 -67 -34 -109 9 -27 32 -44 48 -34 4 2 15 -4 25
-15 21 -23 82 -27 109 -7 12 9 36 12 67 9 41 -4 51 -1 73 21 34 34 36 102 5
136 -20 21 -21 31 -16 115 3 56 21 156 46 259 23 92 46 213 52 270 11 92 7
271 -7 337 -4 21 1 28 28 40 93 42 167 298 140 477 -20 127 -82 203 -166 203
-41 0 -45 -9 -15 -36 34 -30 49 -78 49 -157 0 -110 -37 -343 -62 -391 -16 -31
-16 -31 -38 -3 -28 35 -126 80 -230 106 -99 23 -309 51 -392 51 -32 0 -58 2
-58 5 0 2 11 15 25 29 55 55 25 112 -129 241 -190 159 -211 189 -240 343 -21
111 -37 135 -116 176 -138 72 -323 103 -407 68 -25 -11 -36 -11 -54 -1 -47 25
-122 106 -161 174 -54 93 -94 135 -130 135 -21 0 -33 -8 -48 -32z m77 -3 c12
-8 43 -50 69 -93 64 -106 101 -150 151 -182 l42 -27 -39 -38 c-21 -21 -49 -57
-62 -81 -12 -24 -28 -46 -35 -48 -23 -9 -115 11 -141 31 -69 52 -100 210 -68
348 15 62 38 105 55 105 4 0 16 -7 28 -15z m595 -315 c107 -35 163 -64 190
-101 11 -14 26 -64 34 -114 26 -148 61 -201 213 -324 210 -170 219 -216 62
-295 -153 -78 -282 -73 -355 15 -86 101 -86 252 -1 464 24 60 41 113 36 118
-9 9 -78 -153 -107 -249 -12 -37 -18 -91 -18 -145 0 -73 4 -94 26 -139 l27
-54 -25 -51 c-34 -68 -106 -139 -168 -166 -64 -28 -218 -38 -297 -19 -168 40
-328 162 -341 260 -2 18 1 24 12 21 72 -19 146 -31 203 -31 62 0 71 3 97 28
32 33 54 101 45 141 -3 15 -18 34 -33 43 -32 19 -178 58 -216 58 -14 0 -26 3
-26 6 0 3 20 38 44 78 24 40 68 119 96 177 131 260 183 308 332 309 60 0 100
-7 170 -30z m1402 -433 c45 -32 69 -98 74 -203 8 -166 -49 -354 -125 -412
l-33 -24 -9 23 c-6 18 -4 30 10 48 25 32 36 74 59 226 31 207 25 284 -27 346
l-27 32 25 -8 c13 -4 37 -17 53 -28z m-1974 -138 c56 -11 119 -28 139 -37 32
-15 36 -22 39 -57 2 -30 -4 -50 -20 -75 -21 -32 -29 -35 -76 -38 l-53 -3 7 28
c7 26 16 38 39 47 6 2 5 9 -3 17 -11 12 -16 10 -33 -10 -10 -13 -19 -36 -19
-53 0 -29 0 -29 -46 -22 -94 14 -128 29 -147 65 -32 61 -3 159 47 159 13 0 70
-9 126 -21z m780 -334 c68 -35 202 -14 305 47 30 17 43 18 181 8 182 -13 264
-25 372 -56 102 -30 137 -47 180 -87 46 -44 63 -109 69 -262 7 -160 -6 -259
-59 -475 -27 -109 -42 -194 -44 -249 -2 -55 -8 -87 -16 -93 -11 -6 -11 -8 0
-8 22 0 62 -48 62 -75 0 -37 -34 -67 -73 -63 -26 2 -33 8 -35 28 -6 40 -19 44
-26 9 -9 -45 -23 -59 -61 -59 -38 0 -59 21 -50 50 4 12 2 20 -5 20 -7 0 -14
-9 -17 -20 -9 -35 -38 -20 -41 21 -3 30 2 41 24 58 15 11 32 21 38 21 7 0 12
8 13 18 13 203 18 243 30 253 18 16 16 32 -3 25 -27 -10 -95 16 -129 51 -48
50 -68 129 -63 249 3 85 7 106 31 148 15 27 25 51 23 53 -2 2 -15 -6 -30 -19
-33 -29 -56 -118 -56 -213 0 -70 22 -167 42 -193 6 -7 9 -14 6 -17 -2 -2 -51
-12 -109 -20 -137 -21 -435 -21 -541 -1 -110 21 -118 27 -118 86 0 26 -3 55
-6 64 -12 31 -24 15 -24 -31 0 -27 -7 -147 -16 -268 -13 -173 -19 -223 -32
-232 -12 -10 -13 -13 -1 -16 64 -18 74 -24 83 -50 8 -22 6 -31 -8 -45 -16 -16
-18 -16 -30 1 -13 16 -14 16 -20 -8 -13 -53 -96 -53 -96 0 0 34 -18 32 -22 -2
-3 -25 -8 -28 -45 -31 -56 -4 -86 23 -76 69 4 23 3 30 -5 25 -7 -4 -12 -18
-12 -32 0 -32 -28 -43 -46 -19 -30 41 14 99 76 100 30 0 39 3 35 15 -2 8 2
132 9 275 7 143 10 264 8 269 -8 16 -22 -19 -22 -56 0 -46 -16 -49 -75 -15
-84 47 -120 174 -111 382 7 169 10 177 50 170 47 -9 162 13 220 41 67 34 139
111 162 174 l18 50 25 -24 c15 -13 42 -32 61 -41z m-550 -604 c0 -10 7 -35 15
-54 18 -44 18 -47 2 -47 -25 0 -56 -45 -68 -98 -14 -66 -6 -108 26 -152 30
-41 31 -56 4 -70 -31 -17 -78 -3 -85 26 -10 38 -27 29 -20 -11 4 -21 3 -35 -3
-35 -25 0 -60 25 -75 53 l-16 32 3 -33 c5 -44 -22 -40 -45 8 -22 43 -23 119
-3 208 27 119 63 154 180 178 83 17 85 16 85 -5z m1150 -280 c0 -5 -9 -29 -20
-53 -11 -25 -22 -71 -26 -104 -4 -32 -11 -66 -15 -76 -13 -24 -89 -50 -140
-46 -43 3 -44 4 -44 38 0 31 3 35 28 38 36 4 35 22 -3 22 -31 0 -64 -34 -58
-61 2 -8 -4 -14 -12 -14 -22 0 -24 44 -3 67 14 16 14 20 3 16 -8 -2 -22 -19
-31 -36 -12 -24 -18 -28 -22 -18 -12 30 14 76 53 96 39 20 75 58 85 90 5 14
20 20 63 25 31 3 73 10 92 15 48 11 50 11 50 1z"/>
<path d="M888 2193 c-36 -9 -16 -23 33 -23 45 0 50 2 39 15 -12 15 -37 17 -72
8z"/>
<path d="M1080 2182 c0 -5 7 -16 17 -23 9 -8 22 -29 30 -46 7 -18 18 -33 23
-33 14 0 2 49 -20 80 -17 25 -50 39 -50 22z"/>
<path d="M817 2109 c-36 -27 -67 -89 -67 -133 0 -48 36 -74 79 -56 37 15 82
82 89 132 9 70 -44 99 -101 57z m71 -11 c17 -17 15 -59 -4 -86 -16 -23 -34
-29 -34 -12 0 6 8 10 17 10 16 0 16 1 0 17 -15 16 -18 16 -37 -2 -24 -21 -26
-53 -5 -61 23 -9 18 -24 -9 -24 -58 0 -59 75 -2 135 35 37 54 43 74 23z"/>
<path d="M980 2074 c-98 -83 -92 -236 8 -220 89 14 122 24 122 37 0 12 -17 12
-41 -1 -24 -13 -24 -15 6 44 60 118 -5 215 -95 140z m93 -15 c13 -22 1 -98
-23 -137 -28 -46 -62 -60 -95 -38 -47 31 -29 116 36 170 34 29 66 31 82 5z"/>
<path d="M976 1981 c-22 -25 -18 -75 7 -79 41 -8 74 57 45 86 -17 17 -32 15
-52 -7z"/>
<path d="M1212 1746 c-47 -177 -181 -296 -335 -296 -83 0 -129 18 -178 71
l-37 40 -6 -26 c-4 -16 -13 -25 -26 -25 -11 0 -20 -4 -20 -10 0 -16 47 -12 53
5 5 10 14 6 40 -20 37 -37 115 -65 182 -65 102 0 211 58 274 146 40 56 76 161
69 205 -3 19 -6 13 -16 -25z"/>
<path d="M1048 1404 c-9 -9 -37 -19 -62 -21 -52 -6 -60 -18 -18 -28 32 -7 72
6 91 29 19 22 9 40 -11 20z"/>
<path d="M577 1723 c-6 -12 18 -74 26 -67 14 14 8 74 -7 74 -8 0 -17 -3 -19
-7z"/>
</g>
</svg>
