<?xml version="1.0" standalone="no"?>
<!DOCTYPE svg PUBLIC "-//W3C//DTD SVG 20010904//EN"
 "http://www.w3.org/TR/2001/REC-SVG-20010904/DTD/svg10.dtd">
<svg version="1.0" xmlns="http://www.w3.org/2000/svg"
 width="300.000000pt" height="223.000000pt" viewBox="0 0 300.000000 223.000000"
 preserveAspectRatio="xMidYMid meet">
<metadata>
Created by potrace 1.10, written by Peter Selinger 2001-2011
</metadata>
<g transform="translate(0.000000,223.000000) scale(0.100000,-0.100000)"
fill="#000000" stroke="none">
<path d="M940 2142 c0 -4 5 -13 12 -20 6 -6 8 -15 4 -19 -4 -5 -17 3 -28 17
-17 21 -21 23 -31 9 -7 -8 -20 -13 -29 -11 -10 2 -30 -6 -45 -18 -16 -12 -43
-28 -62 -36 -33 -14 -33 -15 -26 -61 21 -146 46 -212 86 -225 10 -3 6 -46 -20
-209 -43 -273 -40 -259 -61 -259 -28 0 -77 47 -90 86 -12 36 -9 131 4 169 8
20 7 20 -8 1 -9 -11 -16 -15 -16 -10 0 17 48 56 62 51 9 -4 8 -6 -4 -6 -40 -2
-22 -16 23 -18 50 -1 62 10 37 35 -32 32 -115 -10 -135 -68 -24 -72 -9 -209
30 -264 32 -45 112 -76 215 -83 62 -4 95 -2 112 7 20 11 25 10 36 -5 7 -9 22
-15 36 -13 21 3 23 8 21 52 l-2 50 23 -40 c16 -29 28 -39 46 -39 23 0 25 4 24
40 -1 22 -33 128 -72 236 -101 281 -103 303 -30 334 44 19 98 62 98 77 0 5 15
22 34 38 18 17 38 42 43 57 41 116 39 122 -50 104 -75 -15 -126 -8 -184 25
-45 26 -53 28 -53 16z m106 -57 c16 -4 41 -11 56 -17 20 -7 32 -6 51 7 24 15
25 15 31 -10 4 -16 13 -25 26 -25 24 0 24 -3 6 -38 -23 -45 -61 -73 -105 -79
-23 -3 -41 -10 -41 -15 0 -6 15 -7 37 -3 l38 7 -20 -22 c-11 -12 -43 -33 -72
-46 -28 -14 -55 -33 -58 -44 -4 -13 -18 -19 -51 -22 l-45 -3 3 172 3 172 22
-21 c24 -23 47 -15 40 13 -5 18 -4 18 22 0 15 -11 40 -23 57 -26z m-158 -81
c2 -83 1 -92 -15 -90 -10 0 -18 -6 -18 -14 0 -8 8 -14 18 -14 13 1 17 -6 17
-31 0 -50 -11 -95 -24 -95 -16 0 -48 39 -41 50 9 15 -7 40 -25 40 -18 0 -22 7
-35 65 -3 17 -8 38 -12 49 -3 11 -1 16 5 12 30 -18 70 31 52 64 -9 17 -7 24
12 40 13 11 32 19 43 17 18 -2 20 -11 23 -93z m105 -310 c0 -22 6 -46 12 -54
13 -16 95 -240 95 -259 0 -6 -4 -11 -10 -11 -5 0 -10 -9 -10 -20 0 -13 7 -20
20 -20 36 0 62 -91 27 -98 -13 -3 -23 9 -40 47 -19 44 -42 69 -53 58 -2 -2 1
-19 6 -38 13 -43 13 -99 1 -99 -16 0 -41 42 -42 70 0 14 -4 34 -10 45 -6 14
-8 5 -6 -34 l2 -55 -39 -9 c-57 -14 -196 7 -216 32 -8 11 -26 21 -39 23 -32 4
-71 66 -51 78 9 5 20 0 31 -14 10 -13 33 -29 50 -36 28 -12 33 -11 44 3 6 9
22 86 35 171 13 85 27 153 32 150 17 -11 57 6 63 26 8 26 -11 60 -35 60 -11 0
-20 4 -20 9 0 11 132 30 143 20 5 -4 9 -24 10 -45z m-361 -251 c3 -35 1 -63
-3 -63 -10 0 -21 103 -13 125 9 24 12 16 16 -62z"/>
<path d="M990 1999 c0 -5 14 -9 30 -9 17 0 30 4 30 8 0 5 -13 9 -30 10 -16 0
-30 -4 -30 -9z"/>
<path d="M944 1885 c-9 -23 3 -45 25 -45 20 0 37 32 26 50 -9 15 -45 12 -51
-5z"/>
<path d="M976 1531 c-25 -28 -5 -63 32 -59 30 3 42 39 22 64 -17 19 -34 18
-54 -5z"/>
<path d="M814 1495 c-4 -9 -2 -21 4 -27 15 -15 44 -1 40 19 -4 23 -36 29 -44
8z"/>
<path d="M907 1426 c-8 -19 15 -37 32 -26 17 10 7 40 -13 40 -7 0 -16 -6 -19
-14z"/>
<path d="M812 1354 c-27 -18 -29 -55 -4 -77 35 -32 82 -10 82 38 0 20 -32 55
-50 55 -3 0 -16 -7 -28 -16z"/>
<path d="M917 1293 c-13 -13 -7 -51 9 -57 20 -8 44 11 44 34 0 23 -37 39 -53
23z"/>
<path d="M2140 2120 c0 -5 -10 -14 -22 -21 -18 -10 -20 -9 -14 6 5 15 2 16
-31 9 -21 -5 -121 -7 -223 -5 -151 3 -192 0 -223 -12 -73 -31 -71 -95 9 -214
26 -37 53 -89 60 -115 14 -44 72 -119 100 -129 9 -3 8 -21 -2 -69 -7 -36 -14
-81 -14 -100 -1 -64 -9 -80 -39 -74 -20 4 -36 -1 -57 -19 -55 -48 -32 -138 48
-181 31 -17 37 -18 64 -5 20 10 40 13 64 7 19 -4 52 -4 72 -1 23 3 44 1 52 -6
20 -17 71 -17 102 -1 38 21 66 73 63 118 -3 34 2 42 49 86 74 69 100 163 68
241 -16 37 -52 63 -68 47 -6 -6 0 -19 16 -35 21 -21 26 -36 26 -74 0 -59 -24
-101 -82 -143 l-43 -32 -7 109 c-7 107 -7 108 17 126 15 11 25 29 26 45 1 45
12 59 74 100 79 52 108 85 108 122 0 39 -49 92 -117 127 l-48 24 21 23 c29 31
26 39 -9 21 -42 -22 -53 -19 -34 10 10 15 12 25 5 25 -6 0 -11 -4 -11 -10z
m-66 -31 l-19 -21 32 7 c28 6 32 4 26 -10 -5 -15 -3 -16 15 -6 27 14 32 14 27
-1 -3 -8 18 -25 51 -43 64 -34 114 -86 114 -117 0 -12 -18 -38 -42 -60 -45
-41 -155 -101 -169 -92 -23 14 1 149 48 271 3 7 0 13 -5 13 -13 0 -60 -143
-69 -206 -8 -64 2 -94 33 -94 25 0 26 -2 19 -37 -3 -21 -10 -41 -13 -45 -4 -4
-53 -15 -109 -24 l-101 -17 -56 23 c-66 28 -112 70 -137 125 -17 37 -17 40 -1
44 9 2 23 8 30 13 8 7 16 7 25 1 59 -47 167 13 167 93 0 67 -43 114 -105 114
-22 0 -25 4 -26 38 l-1 37 -10 -41 c-6 -25 -18 -44 -32 -50 -11 -5 -30 -27
-40 -48 -18 -38 -19 -42 -3 -85 38 -107 -41 -51 -103 72 -40 80 -39 111 3 134
28 16 56 18 232 15 120 -1 206 2 215 8 23 15 25 12 4 -11z m-185 -143 c14 -17
6 -96 -10 -96 -5 0 -9 6 -10 13 0 6 -7 -1 -14 -18 -10 -20 -14 -24 -15 -12 0
11 -4 15 -12 11 -8 -5 -9 0 -5 16 4 17 3 20 -6 11 -16 -16 -44 -14 -51 5 -16
43 4 92 45 106 16 6 60 -14 78 -36z m105 -342 c60 10 83 11 88 2 4 -6 8 -38 8
-72 0 -34 3 -82 6 -108 7 -45 6 -46 -20 -46 -65 0 -119 -56 -121 -125 l-1 -40
-55 0 c-54 0 -54 0 -52 30 3 40 -13 86 -39 115 -21 22 -21 26 -9 124 6 55 14
111 17 123 l6 21 45 -19 c42 -18 50 -18 127 -5z m252 -118 c-16 -42 -93 -126
-115 -126 -26 0 -18 22 17 44 47 29 90 79 98 112 4 14 9 23 12 20 3 -3 -3 -26
-12 -50z m-515 -136 c6 -16 15 -30 20 -30 5 0 3 14 -6 30 -13 26 -13 30 -1 30
27 0 75 -50 82 -86 18 -98 -83 -129 -136 -42 -24 40 -25 76 -4 106 21 30 33
28 45 -8z m379 4 c0 -3 -9 -23 -20 -44 -11 -22 -17 -40 -12 -40 5 0 16 17 26
37 15 32 19 35 28 20 23 -41 -30 -121 -89 -133 -60 -12 -95 60 -56 116 32 47
79 71 49 25 -26 -40 -18 -42 14 -3 19 23 36 35 45 31 8 -3 15 -7 15 -9z"/>
<path d="M1908 1812 c-28 -6 -22 -41 8 -48 26 -7 43 6 44 32 0 13 -27 22 -52
16z"/>
<path d="M2024 1809 c-10 -17 13 -36 27 -22 12 12 4 33 -11 33 -5 0 -12 -5
-16 -11z"/>
<path d="M1820 1741 c0 -17 41 -33 68 -28 17 3 35 -2 51 -14 29 -23 41 -24 67
-4 17 13 16 14 -17 8 -30 -4 -39 -1 -51 16 -14 19 -19 20 -41 10 -22 -10 -31
-9 -52 5 -14 9 -25 12 -25 7z"/>
<path d="M716 1139 c-44 -35 -70 -98 -86 -209 -9 -65 1 -100 29 -100 23 0 37
21 58 93 17 58 52 127 65 127 22 0 25 -48 6 -120 -11 -41 -22 -114 -25 -162
-7 -108 10 -160 69 -214 l41 -37 -11 -134 c-16 -189 5 -220 68 -102 50 94 75
90 99 -15 7 -31 17 -59 23 -62 20 -13 43 27 48 84 l5 57 58 9 c122 18 195 -13
222 -94 29 -88 56 -80 90 26 l21 66 22 -60 c29 -80 52 -107 80 -98 31 10 28
42 -14 163 l-35 104 20 72 c11 39 27 99 37 132 22 75 13 127 -26 167 -30 30
-80 39 -80 14 0 -8 11 -27 24 -43 60 -73 57 -102 -16 -139 -63 -32 -119 -38
-251 -29 l-105 7 15 41 c12 30 17 80 18 177 1 84 6 143 14 158 24 44 34 27 47
-83 13 -116 40 -138 71 -57 25 64 23 146 -5 199 -39 74 -97 64 -152 -26 l-25
-42 -85 6 c-190 13 -183 11 -208 66 -15 31 -34 55 -52 64 -38 19 -42 19 -74
-6z m87 -29 c14 -16 30 -45 36 -63 l11 -33 143 -12 c141 -11 142 -11 157 11
38 55 84 98 103 95 52 -8 84 -130 54 -212 -21 -62 -34 -55 -42 21 -14 145 -37
176 -78 105 -16 -27 -19 -55 -20 -169 -2 -129 -4 -142 -31 -201 -31 -66 -79
-117 -122 -128 -49 -12 -121 2 -160 31 -79 61 -97 174 -55 348 26 109 26 119
1 148 l-20 24 -25 -30 c-14 -16 -37 -66 -51 -110 -27 -79 -39 -99 -57 -88 -13
8 0 113 23 185 33 105 85 136 133 78z m788 -321 c19 -47 15 -84 -20 -186 -17
-50 -31 -109 -31 -131 0 -23 16 -85 35 -139 35 -96 38 -123 12 -123 -16 0 -40
41 -62 108 -21 66 -46 68 -57 4 -8 -49 -28 -94 -44 -99 -6 -2 -16 16 -23 41
-13 51 -55 92 -104 101 -36 6 -193 12 -176 6 6 -2 0 -8 -13 -15 -19 -9 -24
-21 -28 -69 -3 -32 -9 -58 -15 -58 -5 0 -16 24 -23 53 -24 96 -73 114 -106 40
-10 -21 -29 -52 -42 -68 l-25 -29 6 95 c3 52 8 116 12 143 l6 47 47 -6 c28 -4
63 -1 83 5 32 11 109 81 118 109 3 8 30 9 104 1 147 -15 259 5 317 58 28 25
23 77 -12 116 -39 45 -39 62 -1 43 15 -8 34 -30 42 -47z"/>
<path d="M1026 901 c-9 -10 -21 -32 -26 -49 -11 -42 12 -70 65 -78 32 -5 44
-2 58 14 27 30 33 88 12 112 -24 26 -86 27 -109 1z"/>
<path d="M815 790 c-4 -6 11 -10 37 -9 33 0 38 2 23 9 -28 12 -53 12 -60 0z"/>
<path d="M913 774 c-19 -8 -16 -31 6 -51 20 -18 19 -73 -1 -73 -5 0 -6 -4 -3
-10 14 -23 31 -8 32 27 1 21 6 39 12 41 6 2 18 11 27 19 13 13 13 18 2 29 -15
15 -58 25 -75 18z"/>
<path d="M2107 1090 c-49 -31 -74 -68 -64 -94 10 -26 45 -18 71 17 15 19 26
39 26 46 0 7 5 9 10 6 19 -11 11 -81 -10 -100 -34 -30 -59 -78 -71 -133 -9
-46 -8 -57 9 -90 17 -33 18 -41 6 -56 -20 -28 -27 -96 -14 -146 41 -160 40
-169 -30 -238 -56 -55 -64 -88 -26 -98 52 -13 70 -2 105 66 l34 64 16 -34 c11
-23 12 -34 5 -37 -6 -2 -20 -10 -30 -17 -18 -14 -18 -15 0 -35 21 -23 30 -25
195 -41 110 -11 115 -10 135 10 17 16 21 33 21 78 -1 76 -41 150 -141 262 -67
75 -134 171 -134 193 0 4 7 7 16 7 24 0 82 63 89 96 4 16 20 64 36 106 51 134
34 172 -40 88 -45 -51 -48 -53 -84 -46 l-37 7 0 52 c0 49 -19 97 -39 97 -4 0
-28 -13 -54 -30z m73 -11 c6 -11 10 -39 9 -63 -3 -51 5 -66 35 -66 30 0 37 -9
25 -32 -6 -10 -7 -28 -4 -39 7 -20 8 -20 37 8 17 15 43 46 59 67 35 48 36 40
4 -33 -13 -31 -29 -75 -35 -98 -12 -48 -45 -78 -102 -93 -33 -10 -42 -8 -65
10 -14 11 -34 20 -44 20 -13 0 -19 7 -19 24 0 19 4 22 24 19 30 -6 66 28 66
62 0 14 -10 35 -22 47 l-21 21 22 18 c19 15 22 26 19 71 -4 65 -26 76 -51 24
-19 -42 -57 -67 -57 -39 0 25 11 39 50 68 41 30 56 31 70 4z m178 -85 c-51
-63 -98 -107 -98 -92 0 23 104 142 108 123 2 -8 -3 -22 -10 -31z m-148 -298
c0 -7 11 -29 24 -49 21 -31 23 -41 15 -69 -32 -112 40 -243 150 -277 21 -6 48
-11 60 -11 18 0 21 -6 21 -44 0 -67 -8 -70 -166 -58 -106 8 -141 15 -153 28
-10 11 -12 18 -5 21 40 15 44 26 24 71 -11 24 -24 41 -30 37 -6 -4 -24 -33
-40 -66 -33 -64 -68 -85 -97 -56 -14 13 -9 21 39 69 68 67 76 97 48 193 -23
82 -25 143 -6 188 12 30 17 32 65 34 37 2 51 -1 51 -11z m137 -236 c-1 -8 4
-14 11 -12 7 1 17 -9 22 -22 5 -13 15 -28 23 -33 18 -10 32 -53 18 -53 -15 0
-64 23 -78 37 -7 6 -13 21 -13 33 0 12 -4 19 -10 15 -5 -3 -7 -13 -4 -23 4 -9
-3 -3 -15 13 -24 35 -27 53 -6 35 19 -16 19 -10 1 26 -8 15 -13 31 -10 36 8
13 63 -35 61 -52z"/>
<path d="M78 279 c-20 -11 -25 -73 -8 -84 6 -3 10 0 10 7 0 7 7 2 16 -11 16
-22 16 -24 0 -33 -24 -13 -21 -41 4 -33 11 3 20 2 20 -3 0 -16 -28 -34 -41
-26 -7 4 -10 2 -7 -6 7 -21 24 -23 41 -5 11 10 18 12 22 4 4 -6 13 -8 21 -5
19 7 44 -3 44 -19 0 -8 3 -16 8 -19 4 -2 7 13 7 35 0 28 -4 39 -15 39 -11 1
-10 4 5 15 40 29 45 37 44 73 l-1 37 -11 -42 c-5 -24 -16 -43 -23 -43 -7 0
-19 -9 -28 -21 -13 -20 -14 -20 -19 -2 -3 12 -5 9 -6 -9 -1 -32 -21 -38 -21
-7 0 17 -5 20 -25 17 -13 -3 -22 -1 -19 3 3 5 12 9 20 9 12 0 14 8 10 33 -3
18 -1 39 5 47 8 11 9 7 6 -18 -4 -39 18 -56 38 -28 8 11 15 13 20 7 13 -22 25
-10 25 27 0 21 5 43 12 50 9 9 9 12 -3 12 -9 0 -22 -12 -29 -26 -11 -20 -16
-23 -25 -12 -26 33 -72 8 -62 -34 6 -22 6 -22 -9 -4 -9 13 -11 23 -4 30 12 12
14 56 3 56 -5 0 -16 -5 -25 -11z m90 -75 c-6 -32 -25 -26 -20 6 3 21 8 28 14
22 6 -6 8 -18 6 -28z"/>
<path d="M705 125 c11 -9 32 -23 48 -31 24 -13 27 -13 27 1 0 8 8 15 18 16 9
1 50 3 91 5 111 5 98 14 -20 14 -57 0 -122 3 -144 6 -38 5 -39 5 -20 -11z"/>
<path d="M2182 130 c-107 -6 -100 -13 10 -12 38 1 48 -3 53 -18 6 -18 9 -19
33 -6 15 8 36 21 47 30 20 15 20 15 -3 13 -13 -1 -76 -4 -140 -7z"/>
<path d="M1188 123 c18 -2 45 -2 60 0 15 2 0 4 -33 4 -33 0 -45 -2 -27 -4z"/>
<path d="M1478 123 c18 -2 45 -2 60 0 15 2 0 4 -33 4 -33 0 -45 -2 -27 -4z"/>
<path d="M987 113 c-13 -13 -7 -32 13 -38 11 -4 18 -11 14 -16 -4 -6 -11 -6
-20 2 -8 6 -17 10 -19 7 -10 -10 25 -30 40 -24 22 8 18 31 -7 44 -22 10 -22
11 4 9 21 -1 30 -9 39 -32 l11 -30 15 34 c8 18 12 36 9 39 -3 3 -10 -6 -14
-19 l-9 -24 -7 23 c-5 14 -13 21 -22 18 -7 -3 -16 -1 -19 4 -7 12 -19 13 -28
3z"/>
<path d="M1112 111 c-8 -5 -12 -21 -10 -37 2 -23 9 -30 31 -32 22 -3 27 1 27
17 0 13 -6 21 -17 21 -14 0 -15 -2 -5 -9 11 -7 11 -9 -1 -14 -19 -7 -27 1 -27
26 0 16 5 18 27 12 23 -5 25 -4 14 9 -15 18 -21 19 -39 7z"/>
<path d="M1407 114 c-13 -14 -7 -33 13 -39 11 -4 18 -11 14 -16 -3 -6 -12 -5
-22 3 -13 11 -14 11 -10 -2 6 -21 44 -25 51 -6 4 10 -3 21 -21 31 -24 15 -25
16 -4 11 15 -3 22 0 19 7 -4 14 -30 21 -40 11z"/>
<path d="M1718 109 c-36 -20 -15 -69 29 -69 16 0 23 6 23 20 0 14 -7 20 -22
20 -17 0 -19 -3 -9 -9 8 -5 9 -11 3 -15 -13 -8 -36 20 -27 34 4 7 18 9 33 5
22 -5 24 -4 13 9 -16 19 -20 19 -43 5z"/>
<path d="M2028 113 c-13 -3 -18 -15 -18 -41 l0 -36 20 22 c24 26 25 29 3 35
-14 4 -12 5 5 6 12 0 22 6 22 11 0 10 -3 11 -32 3z"/>
<path d="M1280 75 c0 -31 3 -35 25 -35 14 0 25 5 25 10 0 6 -8 10 -17 10 -15
0 -16 2 -3 10 13 8 13 11 1 19 -11 7 -10 10 5 14 13 3 11 5 -8 6 -25 1 -28 -2
-28 -34z"/>
<path d="M1341 73 c1 -21 3 -31 6 -22 2 10 13 19 24 22 29 8 24 37 -6 37 -22
0 -25 -4 -24 -37z"/>
<path d="M1570 76 c0 -20 5 -36 10 -36 6 0 10 6 10 14 0 7 9 16 21 19 29 8 19
31 -14 35 -25 3 -27 0 -27 -32z"/>
<path d="M1638 80 c-3 -17 -1 -33 4 -36 4 -3 8 4 8 16 0 12 5 18 10 15 12 -7
12 -3 4 19 -10 25 -21 19 -26 -14z"/>
<path d="M1890 75 c0 -28 4 -35 20 -35 23 0 43 32 34 54 -3 9 -17 16 -30 16
-21 0 -24 -5 -24 -35z m40 5 c0 -11 -7 -20 -15 -20 -8 0 -15 9 -15 20 0 11 7
20 15 20 8 0 15 -9 15 -20z"/>
<path d="M1960 95 c10 -12 10 -19 2 -27 -7 -7 -12 -17 -12 -22 0 -6 5 -5 12 2
7 7 16 8 23 2 8 -6 11 1 11 25 0 27 -3 32 -13 23 -9 -7 -13 -7 -13 1 0 6 -5
11 -11 11 -8 0 -7 -5 1 -15z"/>
<path d="M1500 85 c-9 -11 -9 -17 2 -28 20 -20 40 3 23 26 -11 15 -14 15 -25
2z"/>
<path d="M1812 83 c-11 -11 -11 -16 0 -27 11 -11 16 -11 26 1 11 11 11 16 0
27 -11 11 -16 11 -26 -1z"/>
<path d="M1206 81 c-7 -11 3 -41 14 -41 11 0 21 30 14 41 -7 12 -21 12 -28 0z"/>
<path d="M727 39 c-22 -11 -37 -21 -35 -22 1 -1 48 0 103 4 68 4 82 6 43 7
-46 2 -56 5 -52 17 8 21 -13 18 -59 -6z"/>
<path d="M2247 46 c-3 -8 -16 -16 -29 -19 -13 -2 0 -5 27 -6 28 -2 60 -4 73
-7 33 -6 27 3 -18 26 -47 24 -46 24 -53 6z"/>
</g>
</svg>
