<?xml version="1.0" standalone="no"?>
<!DOCTYPE svg PUBLIC "-//W3C//DTD SVG 20010904//EN"
 "http://www.w3.org/TR/2001/REC-SVG-20010904/DTD/svg10.dtd">
<svg version="1.0" xmlns="http://www.w3.org/2000/svg"
 width="189.000000pt" height="300.000000pt" viewBox="0 0 189.000000 300.000000"
 preserveAspectRatio="xMidYMid meet">
<metadata>
Created by potrace 1.10, written by Peter Selinger 2001-2011
</metadata>
<g transform="translate(0.000000,300.000000) scale(0.100000,-0.100000)"
fill="#000000" stroke="none">
<path d="M1555 2824 c-55 -15 -241 -21 -321 -10 -68 10 -80 -3 -89 -96 -4 -40
-13 -103 -21 -140 l-15 -66 -82 6 c-64 4 -85 9 -97 24 -9 12 -42 25 -83 34
-79 16 -237 92 -304 146 -129 102 -126 101 -140 82 -52 -72 44 -261 166 -328
106 -57 238 -73 299 -36 l32 20 -6 -28 c-3 -15 -15 -33 -25 -41 -20 -14 -27
-37 -7 -25 7 4 8 3 4 -4 -4 -7 -13 -12 -20 -12 -21 0 -56 -45 -56 -72 0 -17
-11 -36 -31 -53 -71 -59 -170 -93 -326 -110 -55 -6 -64 -4 -83 15 -30 30 -82
50 -127 50 -55 0 -104 -30 -130 -80 -55 -104 -4 -237 109 -284 50 -21 86 -20
133 4 37 19 42 19 78 5 20 -8 51 -15 67 -15 26 0 29 -3 32 -37 l3 -38 45 3
c91 5 211 42 273 85 16 10 31 17 34 13 8 -7 -16 -178 -26 -188 -4 -5 -38 -18
-76 -31 -44 -15 -70 -29 -70 -39 0 -8 -8 -22 -17 -32 -23 -22 -22 -29 2 -51
15 -14 32 -17 87 -13 37 2 83 11 102 21 19 9 36 16 38 14 8 -9 -31 -110 -70
-179 -25 -42 -47 -84 -50 -92 -3 -8 -26 -18 -54 -22 -93 -13 -133 -53 -133
-132 0 -37 22 -72 47 -72 6 0 8 -41 5 -110 -5 -121 6 -170 40 -170 16 0 19 -6
16 -32 l-3 -31 -67 -1 c-59 -1 -70 -4 -96 -29 -17 -16 -32 -41 -35 -55 -11
-56 47 -140 137 -201 l40 -26 -138 -5 c-130 -5 -139 -6 -157 -29 -32 -39 -25
-83 18 -118 30 -24 55 -33 120 -43 72 -11 86 -10 106 3 19 12 22 22 19 51 l-4
36 121 0 121 0 0 -36 c0 -19 4 -44 10 -54 14 -26 132 -64 173 -56 18 4 59 6
93 6 52 -1 66 3 91 24 17 14 38 26 46 26 9 0 18 4 21 8 3 5 38 7 78 6 67 -3
97 4 158 35 8 5 16 24 18 44 2 28 -3 42 -22 62 l-25 25 44 21 c88 42 179 176
210 312 38 169 25 390 -30 482 -27 48 -51 60 -42 23 16 -63 28 -210 22 -268
-9 -97 -41 -223 -71 -281 -24 -49 -108 -149 -124 -149 -5 0 -2 21 6 47 18 61
18 196 -1 260 -18 61 -63 113 -97 113 -29 0 -60 -31 -81 -80 -11 -25 -16 -29
-16 -15 -2 35 -79 312 -107 381 l-26 65 22 51 c56 130 22 356 -75 496 -30 44
-33 53 -25 88 16 72 28 318 21 414 -6 75 -4 98 7 112 20 24 41 88 42 128 l0
34 38 -36 c51 -50 92 -68 152 -68 94 0 169 57 223 169 23 48 30 79 31 125 1
58 0 61 -24 63 -14 1 -47 -5 -75 -13z m81 -56 c-24 -182 -172 -308 -300 -254
-43 18 -103 71 -124 110 l-17 31 -6 -80 c-7 -82 -24 -135 -43 -135 -8 0 -11
-66 -11 -212 0 -117 -4 -244 -8 -281 l-9 -68 -41 38 c-28 24 -44 49 -49 73
-22 104 -39 133 -53 89 -4 -11 -32 -46 -63 -78 -101 -103 -314 -183 -445 -167
-76 10 -81 15 -61 61 19 46 15 116 -9 165 -10 18 -17 35 -17 37 0 1 29 3 63 3
68 0 196 28 247 55 17 9 49 32 71 52 37 33 41 35 58 19 26 -23 57 -20 80 10
26 34 27 68 1 94 -24 24 -17 46 16 54 14 4 22 11 19 16 -3 5 -13 6 -22 3 -9
-4 -14 -2 -11 3 3 5 11 29 18 53 l11 43 89 -4 c52 -2 95 -9 104 -17 17 -15 22
-1 6 15 -7 7 -6 22 5 46 8 20 20 81 26 135 6 54 16 104 23 111 9 9 25 10 71 1
71 -13 237 -5 310 15 80 22 78 23 71 -36z m-1013 -126 c103 -56 155 -76 240
-92 66 -13 75 -34 31 -69 -45 -36 -98 -46 -169 -34 -132 23 -222 87 -284 202
-28 54 -40 118 -25 134 4 3 31 -16 61 -42 30 -27 96 -71 146 -99z m267 -316
c0 -2 3 -12 7 -22 4 -11 3 -15 -4 -11 -14 9 -43 -2 -43 -16 0 -6 7 -19 17 -29
15 -17 15 -18 -5 -18 -24 0 -52 25 -52 46 0 32 21 54 50 54 17 0 30 -2 30 -4z
m-597 -182 c61 -31 97 -96 97 -176 0 -63 -23 -106 -65 -124 -47 -19 -81 -18
-130 6 -121 59 -141 248 -32 295 43 19 91 18 130 -1z m707 -98 c0 -28 -54
-107 -102 -151 -80 -72 -235 -135 -332 -135 -32 0 -36 3 -36 25 0 17 6 25 17
25 41 0 154 35 228 70 90 43 161 101 190 153 18 34 35 40 35 13z m-2 -87 c-24
-16 -27 -9 -10 21 16 27 17 28 20 9 2 -12 -2 -26 -10 -30z m74 -66 c107 -109
170 -266 172 -423 1 -85 -2 -101 -26 -151 -46 -92 -120 -113 -192 -56 -24 20
-30 33 -33 78 -3 30 2 91 10 136 14 85 10 158 -14 215 -13 32 -25 35 -51 11
-17 -15 -18 -13 -17 63 0 80 15 145 35 151 38 12 116 -114 136 -220 7 -37 16
-67 20 -67 10 0 10 5 -3 76 -14 75 -62 167 -108 205 l-36 29 31 0 c22 0 41
-12 76 -47z m-167 -115 c0 -93 -6 -117 -27 -118 -10 0 3 193 15 208 5 6 10 12
11 12 0 0 1 -46 1 -102z m45 -105 c-29 -37 -95 -81 -139 -92 -101 -27 -125 -7
-29 24 75 25 139 57 157 79 23 28 33 17 11 -11z m41 -103 c0 -30 -7 -89 -16
-130 -18 -85 -13 -137 17 -175 42 -53 119 -70 179 -39 17 8 32 14 34 12 11
-12 71 -203 105 -339 42 -167 56 -305 37 -371 -8 -31 6 -39 19 -10 4 9 8 76 9
147 2 134 13 185 49 214 26 21 57 1 86 -55 22 -44 25 -61 25 -159 -1 -90 -5
-120 -24 -168 -36 -91 -77 -138 -135 -152 -46 -12 -52 -11 -100 14 -28 15 -61
30 -72 33 -21 5 -22 13 -28 224 -8 272 -15 364 -29 364 -6 0 -8 -41 -3 -122 3
-68 6 -201 7 -296 l1 -173 26 -11 c89 -36 130 -60 140 -83 18 -40 15 -83 -7
-95 -32 -16 -41 -12 -41 19 0 17 -4 33 -10 36 -6 4 -10 -13 -10 -43 0 -57 -7
-62 -76 -62 l-44 0 0 54 c0 30 -4 58 -10 61 -6 4 -10 -15 -10 -50 0 -49 -3
-57 -24 -66 -14 -7 -40 -9 -60 -5 l-36 7 6 57 c5 43 4 54 -5 46 -6 -6 -13 -27
-15 -48 -4 -45 -9 -51 -34 -37 -70 37 -2 165 105 200 l38 13 -6 246 c-4 136
-7 271 -8 300 -1 37 -4 51 -13 46 -8 -5 -9 -71 -5 -249 4 -133 4 -262 1 -287
-6 -39 -10 -46 -39 -57 -18 -6 -49 -27 -69 -47 l-37 -36 -53 41 c-61 47 -99
99 -115 157 -16 56 -13 252 4 368 18 117 17 113 6 100 -12 -12 -31 -105 -31
-149 0 -41 -18 -55 -37 -29 -12 15 -14 42 -10 122 3 57 7 105 9 107 2 2 19 4
38 4 38 0 97 1 147 2 58 1 89 66 63 133 -12 32 -65 66 -103 66 l-27 0 60 115
c41 79 60 126 60 151 0 24 8 46 25 66 31 37 26 49 -7 18 -56 -54 -218 -92
-246 -57 -16 19 -10 23 63 36 79 15 159 55 193 97 l27 34 8 -28 c4 -15 8 -52
8 -82z m-155 -371 c49 -13 84 -48 84 -86 0 -35 -18 -63 -39 -63 -14 0 -19 7
-17 28 0 15 -3 27 -9 27 -5 0 -8 -10 -7 -22 5 -32 -41 -60 -73 -45 -20 9 -25
19 -25 48 0 45 -11 39 -15 -8 -2 -27 -7 -34 -28 -36 -22 -3 -28 2 -36 30 l-9
33 -1 -32 c-1 -39 -17 -43 -33 -8 -15 33 5 100 35 117 12 7 42 15 67 19 25 3
49 7 53 8 5 0 28 -4 53 -10z m934 -130 c18 -83 8 -326 -17 -404 -55 -167 -146
-271 -267 -301 l-28 -7 28 44 c16 24 38 51 49 59 141 103 210 254 217 471 2
46 -1 116 -5 154 -9 80 4 71 23 -16z m-1084 -417 c6 -4 16 -43 21 -87 16 -124
63 -201 163 -266 24 -16 18 -17 -101 -12 -124 6 -127 5 -139 -17 -6 -12 -9
-33 -6 -46 5 -17 1 -26 -13 -34 -32 -17 -53 -2 -49 36 3 42 -15 46 -22 4 -3
-17 -8 -31 -12 -30 -5 0 -12 0 -18 0 -5 0 -10 16 -10 35 0 19 -4 35 -10 35 -5
0 -10 -16 -10 -36 0 -28 -3 -35 -17 -32 -10 2 -23 19 -30 38 -7 19 -12 27 -12
18 -1 -22 -17 -23 -25 -2 -9 24 -7 38 8 60 13 17 31 19 198 24 115 3 176 8
163 14 -83 36 -117 57 -167 106 -81 79 -90 141 -25 180 32 20 92 26 113 12z
m849 -337 c25 -25 30 -41 19 -69 -9 -24 -24 -19 -24 8 0 14 -5 28 -11 32 -8 5
-10 -1 -5 -19 7 -29 -14 -57 -45 -57 -14 0 -19 7 -19 29 0 17 -4 33 -10 36 -6
4 -10 -8 -10 -29 0 -34 -2 -36 -35 -36 -38 0 -41 3 -48 67 l-5 42 52 9 c89 17
115 14 141 -13z"/>
<path d="M1010 2440 c0 -5 13 -16 28 -24 15 -8 34 -27 41 -43 8 -15 16 -23 18
-16 7 20 -27 73 -53 83 -31 12 -34 12 -34 0z"/>
<path d="M972 2307 c-24 -25 -29 -75 -12 -108 6 -10 26 -25 45 -33 31 -13 38
-13 72 4 21 11 33 19 27 20 -8 0 -8 11 -1 40 10 35 8 43 -9 67 -29 39 -90 44
-122 10z m100 -14 c25 -23 23 -59 -7 -88 -29 -30 -45 -31 -76 -7 -28 24 -31
79 -4 98 25 19 65 18 87 -3z"/>
<path d="M1001 2262 c-15 -28 8 -57 38 -47 17 5 21 13 19 33 -4 34 -42 43 -57
14z"/>
<path d="M19 1279 c24 -23 23 -46 -5 -103 -8 -16 -14 -36 -14 -45 1 -27 37 29
51 76 10 36 9 46 -5 68 -9 14 -24 25 -33 25 -14 0 -13 -4 6 -21z"/>
<path d="M0 1017 c0 -9 9 -21 20 -27 26 -14 26 -46 0 -60 -22 -12 -28 -32 -6
-24 21 8 28 -24 8 -38 -18 -14 -30 -74 -12 -63 6 3 10 12 10 20 0 8 8 18 17
24 13 7 18 24 19 69 2 54 0 62 -27 88 -22 21 -29 24 -29 11z"/>
</g>
</svg>
