<?xml version="1.0" standalone="no"?>
<!DOCTYPE svg PUBLIC "-//W3C//DTD SVG 20010904//EN"
 "http://www.w3.org/TR/2001/REC-SVG-20010904/DTD/svg10.dtd">
<svg version="1.0" xmlns="http://www.w3.org/2000/svg"
 width="300.000000pt" height="300.000000pt" viewBox="0 0 300.000000 300.000000"
 preserveAspectRatio="xMidYMid meet">
<metadata>
Created by potrace 1.10, written by Peter Selinger 2001-2011
</metadata>
<g transform="translate(0.000000,300.000000) scale(0.050000,-0.050000)"
fill="#000000" stroke="none">
<path d="M3690 5363 c-155 -94 -321 -389 -420 -743 -29 -104 -80 -272 -112
-372 l-60 -183 -184 -14 c-318 -25 -643 -102 -829 -198 -63 -33 -63 -33 -278
87 -420 234 -748 345 -1026 348 l-169 2 5 -100 c21 -371 186 -1027 347 -1375
l63 -138 -35 -174 c-20 -95 -80 -308 -133 -473 -260 -811 -108 -1282 430
-1324 66 -5 153 -21 193 -36 368 -138 803 -18 937 259 49 99 95 101 219 9 83
-61 266 -61 424 -1 97 38 131 41 264 27 188 -20 452 4 618 56 115 36 128 37
146 8 79 -129 114 -165 208 -222 214 -128 506 -139 735 -26 115 57 247 179
247 230 0 11 23 64 52 117 139 261 29 566 -376 1050 l-191 227 -11 223 c-14
284 -92 527 -228 709 l-50 66 32 174 c71 387 50 472 -224 883 -108 162 -270
440 -361 618 -91 177 -167 323 -169 323 -2 0 -31 -17 -64 -37z m-49 -161
c-236 -331 -271 -907 -82 -1335 l39 -87 -184 0 c-101 0 -231 -6 -289 -13
l-105 -13 88 188 c89 188 143 344 240 693 77 278 283 680 327 637 5 -5 -10
-37 -34 -70z m219 -162 c116 -231 207 -383 411 -690 197 -296 222 -380 191
-619 -38 -292 -32 -283 -126 -202 -136 116 -321 187 -628 243 -31 5 -54 39
-84 123 -179 491 -158 910 63 1260 69 109 57 117 173 -115z m-2985 -900 c492
-231 1038 -753 1158 -1106 63 -188 16 -534 -145 -1070 -5 -18 -48 8 -123 72
-63 55 -186 146 -273 202 -381 247 -665 916 -801 1887 -16 114 -27 114 184 15z
m305 8 c235 -77 646 -288 925 -474 l255 -170 103 39 c906 344 1777 182 2098
-390 l47 -83 -66 55 c-233 196 -538 -144 -309 -345 140 -123 345 -56 383 126
l17 84 28 -120 c51 -227 32 -644 -26 -541 -345 618 -1339 359 -1648 -429 -19
-49 -92 -157 -162 -239 -150 -176 -247 -364 -261 -501 -5 -55 -16 -100 -25
-100 -50 0 -79 30 -79 83 0 154 -185 352 -388 415 l-122 38 2 187 c1 158 15
235 89 497 185 652 111 915 -394 1401 -205 197 -390 333 -616 455 -186 100
-132 104 149 12z m1817 -287 l-65 -119 -147 -33 c-82 -18 -212 -54 -290 -81
-123 -41 -146 -44 -173 -20 -18 16 -80 60 -140 99 l-107 70 76 32 c223 93 558
165 785 169 l127 2 -66 -119z m1243 -962 c14 -33 19 -67 11 -75 -19 -19 -71
54 -71 100 0 56 32 43 60 -25z m-2989 -564 c25 -30 139 -117 252 -194 331
-225 350 -246 360 -404 l9 -132 -146 -10 c-476 -30 -737 -444 -474 -752 l73
-85 -58 14 c-450 106 -583 514 -371 1138 70 207 120 384 173 617 l13 58 62
-98 c33 -53 82 -122 107 -152z m2477 62 c18 -28 85 -81 150 -119 110 -63 118
-74 130 -156 26 -186 20 -206 -100 -323 -61 -60 -177 -191 -258 -290 -321
-398 -640 -589 -900 -540 -156 29 -163 199 -18 443 89 149 196 278 178 214
-35 -125 -43 -247 -19 -267 34 -28 41 -12 67 154 65 426 299 800 602 965 l110
60 12 -46 c7 -25 28 -68 46 -95z m744 15 c204 -204 308 -472 308 -791 0 -503
-228 -577 -367 -119 -55 181 -143 318 -248 386 -93 60 -129 317 -54 377 97 76
171 165 182 220 17 78 35 71 179 -73z m502 -367 c229 -271 354 -535 342 -722
l-6 -93 -44 83 c-59 110 -172 200 -301 241 -101 32 -105 36 -105 105 -1 105
-52 326 -100 436 -31 68 -39 115 -29 165 l13 70 53 -69 c29 -38 109 -135 177
-216z m-823 -235 c97 -73 229 -340 229 -461 0 -39 -245 -188 -394 -239 -230
-80 -663 -123 -696 -70 -7 11 -4 20 5 20 30 0 266 223 349 329 122 157 404
469 424 470 10 1 47 -21 83 -49z m-2088 -322 c126 -41 266 -167 308 -278 172
-451 -690 -730 -1050 -339 -332 360 194 798 742 617z m3052 -98 c370 -317
-166 -764 -682 -570 -230 87 -342 254 -214 320 42 21 103 61 137 90 l62 52 35
-54 c46 -70 149 -114 213 -89 90 34 143 128 183 325 l11 54 88 -30 c48 -17
123 -61 167 -98z"/>
<path d="M2642 2575 c-27 -14 -64 -47 -83 -75 -43 -60 -72 -151 -43 -133 23
15 54 -19 73 -82 11 -35 6 -45 -21 -45 -55 0 21 -73 104 -101 267 -88 436 303
188 431 -70 36 -153 38 -218 5z"/>
<path d="M4706 5198 c-24 -9 -59 -39 -77 -67 -19 -28 -51 -51 -72 -51 -56 0
-137 -89 -137 -150 0 -79 88 -157 161 -143 33 7 59 4 59 -6 0 -10 31 -58 69
-108 62 -82 67 -96 46 -150 -64 -171 171 -281 261 -122 25 42 49 59 88 59 105
0 156 160 76 240 -23 23 -67 40 -105 41 -76 1 -238 204 -196 246 87 87 -52
256 -173 211z m113 -97 c28 -51 27 -53 -22 -99 l-42 -40 82 -93 c45 -52 93
-124 107 -161 25 -70 52 -84 90 -46 31 31 101 4 117 -44 23 -74 -70 -131 -126
-75 -37 37 -91 5 -67 -40 29 -53 -16 -109 -79 -100 -59 8 -83 109 -30 129 45
18 38 54 -21 110 -29 26 -80 96 -113 154 -43 76 -67 100 -82 85 -34 -34 -110
-24 -133 19 -36 67 46 134 112 91 61 -41 92 -24 76 40 -23 93 87 152 131 70z"/>
<path d="M1200 5040 c-111 -111 28 -279 156 -189 92 65 35 229 -80 229 -20 0
-54 -18 -76 -40z m133 -72 c21 -54 -46 -104 -86 -64 -41 41 -22 96 33 96 23 0
47 -14 53 -32z"/>
<path d="M927 4908 c-38 -58 -14 -131 57 -175 51 -32 142 7 164 71 47 132
-144 222 -221 104z m153 -38 c20 -24 20 -36 0 -60 -50 -60 -121 -14 -93 60 7
17 24 30 40 30 15 0 39 -13 53 -30z"/>
<path d="M1206 4766 c-25 -5 -67 -36 -95 -69 -141 -168 31 -398 226 -303 215
105 105 416 -131 372z m137 -99 c22 -19 37 -61 37 -99 0 -115 -138 -170 -220
-88 -117 117 61 298 183 187z"/>
<path d="M791 4709 c-42 -43 -39 -135 6 -176 79 -72 203 -17 203 90 0 100
-138 156 -209 86z m142 -61 c21 -54 -46 -104 -86 -64 -41 41 -22 96 33 96 23
0 47 -14 53 -32z"/>
<path d="M2408 4526 c-146 -28 -200 -237 -90 -348 170 -170 447 63 309 260
-26 38 -150 110 -171 99 -3 -1 -25 -6 -48 -11z m145 -117 c53 -53 53 -130 1
-183 -123 -122 -309 61 -191 188 57 60 126 58 190 -5z"/>
<path d="M5043 2614 c-86 -92 -28 -234 97 -234 126 0 186 150 94 237 -60 56
-136 55 -191 -3z m146 -45 c44 -45 13 -129 -49 -129 -22 0 -80 58 -80 80 0 22
58 80 80 80 9 0 31 -14 49 -31z"/>
</g>
</svg>
