<?xml version="1.0" standalone="no"?>
<!DOCTYPE svg PUBLIC "-//W3C//DTD SVG 20010904//EN"
 "http://www.w3.org/TR/2001/REC-SVG-20010904/DTD/svg10.dtd">
<svg version="1.0" xmlns="http://www.w3.org/2000/svg"
 width="243.000000pt" height="263.000000pt" viewBox="0 0 243.000000 263.000000"
 preserveAspectRatio="xMidYMid meet">
<metadata>
Created by potrace 1.10, written by Peter Selinger 2001-2011
</metadata>
<g transform="translate(0.000000,263.000000) scale(0.100000,-0.100000)"
fill="#000000" stroke="none">
<path d="M1488 2303 c-28 -30 -92 -191 -103 -261 -6 -38 -9 -42 -28 -36 -12 4
-66 8 -120 8 l-98 1 -27 81 c-48 137 -122 221 -173 194 -29 -16 -84 -107 -103
-170 -25 -85 -21 -156 15 -247 31 -77 32 -82 40 -305 4 -124 11 -247 14 -272
5 -32 4 -46 -4 -46 -20 0 -41 -67 -40 -123 3 -78 -48 -211 -111 -290 -152
-195 -143 -359 17 -292 20 8 37 14 38 13 1 -2 10 -25 19 -53 21 -63 62 -122
97 -141 16 -8 54 -14 85 -14 52 0 59 3 91 36 19 20 36 49 39 63 6 27 7 27 87
28 45 0 91 2 102 4 17 3 19 -1 17 -26 -4 -44 35 -98 79 -109 75 -18 135 23
192 132 l36 67 43 -3 c62 -4 108 26 108 71 0 66 -27 127 -90 204 -55 66 -64
84 -77 146 -8 38 -25 100 -39 137 -13 37 -24 77 -24 88 0 11 -8 30 -18 42 -17
21 -16 26 31 163 55 161 67 245 47 336 -11 51 -10 65 3 103 28 76 50 210 44
273 -6 86 -45 154 -114 203 -40 28 -44 28 -75 -5z m89 -55 c35 -38 63 -109 63
-164 0 -57 -31 -214 -50 -256 -11 -23 -11 -39 0 -85 24 -108 17 -156 -56 -370
-36 -109 -89 -243 -118 -298 -43 -84 -59 -105 -99 -132 -92 -62 -190 -51 -262
28 -83 93 -110 221 -124 600 -8 215 -9 227 -37 294 -25 60 -29 83 -29 160 1
79 4 96 28 140 16 28 37 61 48 74 19 23 20 23 41 5 38 -34 78 -106 103 -190
l25 -81 107 1 c60 0 128 -1 153 -4 l45 -5 6 50 c7 55 61 216 85 253 17 25 33
21 71 -20z m-39 -1054 c-2 -15 -13 -33 -26 -42 -24 -16 -24 -18 -3 41 13 35
33 35 29 1z m-615 -11 c3 -16 9 -36 12 -45 5 -14 2 -18 -13 -18 -28 0 -35 15
-28 56 8 41 21 44 29 7z m641 -100 c8 -27 25 -104 37 -173 24 -141 22 -288 -5
-375 -18 -59 -69 -123 -120 -150 -35 -19 -36 -19 -63 1 -37 28 -41 79 -13 197
24 102 23 167 -6 248 -23 63 -39 64 -30 2 23 -164 15 -275 -22 -306 -9 -7 -48
-12 -104 -12 l-90 0 -25 65 c-26 66 -33 143 -23 244 3 32 0 51 -7 53 -45 15
-51 -186 -10 -307 30 -88 27 -120 -15 -155 -69 -58 -169 -16 -203 85 -45 135
-30 477 26 581 16 31 55 12 73 -35 22 -57 56 -101 106 -138 32 -24 54 -31 104
-35 71 -6 112 5 178 46 36 23 53 44 82 103 27 52 46 78 69 90 18 9 35 17 39
18 3 0 13 -21 22 -47z m-768 -360 c-1 -111 -2 -117 -27 -135 -13 -10 -38 -20
-54 -21 -28 -2 -30 0 -33 40 -2 25 4 55 14 75 18 36 95 158 99 158 2 0 2 -52
1 -117z m907 30 c50 -76 64 -127 42 -159 -13 -20 -23 -25 -52 -22 l-36 3 -1
118 c-1 64 1 117 4 117 3 0 22 -26 43 -57z"/>
<path d="M1518 2183 c-29 -33 -39 -64 -45 -134 l-6 -69 51 0 c79 0 82 3 82 79
0 104 -43 169 -82 124z m64 -131 c1 -18 -4 -38 -10 -44 -9 -9 -12 -9 -12 0 0
7 -5 12 -11 12 -5 0 -7 -5 -4 -10 4 -6 -3 -8 -17 -6 -13 3 -26 5 -30 5 -5 1
-8 11 -7 24 0 21 1 21 10 2 7 -15 7 -11 3 15 -3 19 -6 37 -7 40 -2 18 25 59
40 62 21 4 43 -45 45 -100z"/>
<path d="M948 2163 c-34 -39 -42 -69 -41 -146 1 -103 10 -113 81 -92 29 9 55
22 58 30 7 18 -32 172 -51 202 -18 28 -27 29 -47 6z m37 -50 c16 -24 22 -48
27 -103 2 -31 -2 -63 -8 -57 -4 3 -16 2 -27 -4 -14 -8 -18 -8 -13 0 4 6 1 11
-7 11 -19 0 -27 22 -27 76 0 38 22 104 34 104 2 0 12 -12 21 -27z"/>
<path d="M1370 1820 c-49 -53 -68 -93 -76 -162 -18 -156 70 -258 181 -209 60
26 87 75 93 165 7 122 -47 231 -121 243 -35 5 -41 2 -77 -37z m116 -29 c45
-44 64 -94 64 -165 0 -49 -10 -76 -41 -110 -11 -11 -19 -26 -19 -33 0 -7 -5
-13 -11 -13 -5 0 -7 5 -4 10 3 6 2 10 -3 10 -6 0 -12 -7 -16 -15 -3 -8 -13
-15 -21 -15 -9 0 -14 4 -11 9 3 5 -12 11 -35 15 -22 4 -37 11 -34 16 3 6 2 10
-2 10 -32 0 -40 194 -10 224 9 9 19 25 22 37 4 12 12 18 21 15 7 -3 13 -2 13
2 -3 21 3 31 16 26 8 -4 15 -1 15 5 0 19 14 12 56 -28z"/>
<path d="M1408 1679 c-41 -23 -1 -109 51 -109 49 0 78 86 37 112 -16 11 -68 9
-88 -3z m57 -29 c8 0 11 -7 8 -20 -8 -30 -33 -22 -46 14 -6 14 -4 17 9 12 8
-3 22 -6 29 -6z"/>
<path d="M1023 1665 c-16 -11 -23 -26 -23 -48 0 -41 9 -53 44 -67 56 -21 101
40 74 98 -16 33 -62 41 -95 17z"/>
<path d="M1133 1061 c-25 -16 -33 -28 -33 -51 0 -56 54 -87 133 -77 69 9 99
68 59 117 -27 33 -115 39 -159 11z m72 -23 c26 5 55 -12 55 -32 0 -25 -20 -39
-59 -41 -23 -1 -39 0 -37 3 3 2 -1 11 -9 19 -16 16 -20 38 -6 28 5 -3 13 5 17
17 4 13 9 18 11 12 2 -6 15 -9 28 -6z"/>
<path d="M1516 975 c-38 -58 -5 -155 52 -155 l27 0 -28 18 c-15 10 -24 22 -20
25 3 4 1 7 -5 7 -17 0 -15 54 2 95 12 29 13 35 2 35 -8 0 -21 -11 -30 -25z"/>
<path d="M926 968 c3 -4 -10 -14 -28 -22 l-33 -14 30 -1 c29 -1 75 22 75 37 0
4 -11 7 -24 7 -13 0 -22 -3 -20 -7z"/>
<path d="M944 768 c-59 -15 -70 -100 -18 -135 55 -35 114 22 97 94 -10 41 -33
54 -79 41z m62 -39 c17 -14 5 -56 -20 -72 -30 -20 -59 1 -59 44 0 46 39 60 79
28z"/>
</g>
</svg>
