<?xml version="1.0" standalone="no"?>
<!DOCTYPE svg PUBLIC "-//W3C//DTD SVG 20010904//EN"
 "http://www.w3.org/TR/2001/REC-SVG-20010904/DTD/svg10.dtd">
<svg version="1.0" xmlns="http://www.w3.org/2000/svg"
 width="300.000000pt" height="312.000000pt" viewBox="0 0 300.000000 312.000000"
 preserveAspectRatio="xMidYMid meet">
<metadata>
Created by potrace 1.10, written by Peter Selinger 2001-2011
</metadata>
<g transform="translate(0.000000,312.000000) scale(0.100000,-0.100000)"
fill="#000000" stroke="none">
<path d="M747 3113 c414 -2 1092 -2 1505 0 414 1 76 2 -752 2 -828 0 -1166 -1
-753 -2z"/>
<path d="M1355 3084 c-185 -28 -337 -73 -483 -145 -210 -104 -266 -207 -294
-538 -16 -194 1 -583 27 -611 15 -16 14 -20 -9 -54 -73 -109 -23 -287 102
-362 29 -17 70 -34 93 -38 31 -5 42 -12 47 -29 11 -43 89 -184 134 -244 58
-75 142 -152 213 -195 49 -30 53 -35 48 -63 -11 -64 -53 -137 -110 -192 l-58
-55 -12 41 c-25 87 -70 131 -135 131 -97 0 -142 -128 -72 -201 32 -34 22 -36
-48 -11 -48 16 -50 16 -63 -1 -17 -24 -10 -44 24 -62 19 -10 22 -15 11 -18
-181 -57 -298 -116 -380 -194 -71 -67 -134 -167 -128 -206 l3 -22 1255 0
c1204 0 1255 1 1258 18 7 36 -51 131 -122 203 -84 83 -159 122 -401 209 -224
81 -265 100 -265 124 0 23 -25 40 -50 34 -35 -9 -120 116 -135 200 -7 34 -5
37 32 55 111 57 249 210 320 356 23 49 43 95 43 102 0 7 19 15 43 19 151 26
259 184 227 332 -6 27 -20 60 -31 75 -19 27 -19 29 -2 55 16 25 18 58 18 363
0 247 -4 353 -14 405 -30 152 -77 242 -154 302 -98 74 -302 157 -487 198 -73
16 -378 29 -445 19z m450 -64 c248 -56 455 -156 521 -251 65 -95 94 -260 95
-547 0 -339 -17 -475 -59 -456 -33 14 -70 16 -90 5 -18 -10 -21 -7 -27 19 -10
45 -46 82 -136 140 -52 34 -100 56 -137 64 -39 8 -67 21 -89 42 -66 64 -298
106 -463 85 -125 -16 -242 -54 -272 -89 -17 -19 -39 -30 -82 -39 -33 -7 -84
-27 -114 -45 -73 -44 -162 -129 -162 -154 0 -28 -10 -36 -26 -23 -13 11 -45 9
-89 -6 -16 -5 -23 0 -33 27 -32 81 -39 567 -12 738 16 100 51 199 85 244 78
104 333 218 575 256 41 6 82 13 90 15 8 2 87 2 175 0 114 -3 186 -10 250 -25z
m-64 -964 c52 -13 108 -30 124 -37 29 -12 27 -13 -45 -20 -95 -10 -133 -23
-128 -47 4 -20 14 -20 150 -3 53 7 113 9 134 5 35 -6 197 -107 223 -138 16
-19 -2 -226 -29 -343 -76 -322 -271 -548 -540 -622 -102 -29 -149 -26 -263 13
-112 39 -183 82 -266 164 -138 137 -222 324 -256 572 -21 155 -20 211 8 231
93 68 178 117 208 123 20 3 81 1 135 -5 140 -17 148 -17 152 3 5 24 -32 37
-124 45 -40 3 -71 9 -69 13 6 10 145 50 229 66 95 18 239 10 357 -20z m-981
-346 c0 -37 -2 -40 -29 -40 -61 0 -66 -61 -5 -68 16 -2 32 -7 36 -10 4 -4 14
-42 23 -85 9 -43 19 -85 22 -93 5 -13 1 -13 -33 1 -84 35 -135 111 -136 201
-1 63 19 99 65 119 50 22 57 19 57 -25z m1570 24 c50 -20 70 -56 70 -124 0
-86 -52 -160 -140 -196 l-32 -14 6 27 c3 16 11 55 18 88 14 73 21 83 61 87 28
3 32 7 32 33 0 28 -3 30 -38 33 -35 3 -38 6 -33 25 3 12 6 30 6 40 0 21 0 21
50 1z m-935 -956 c83 -27 172 -26 263 4 39 14 74 22 77 20 3 -3 5 -17 5 -31 0
-38 43 -123 84 -169 l36 -39 -83 -31 c-229 -87 -434 -107 -622 -61 -68 16 -72
23 -32 48 80 49 177 194 177 265 0 23 3 27 18 21 9 -4 44 -16 77 -27z m-433
-149 c21 -27 37 -109 22 -109 -18 0 -74 40 -90 65 -14 21 -15 31 -5 51 14 32
47 29 73 -7z m991 -84 c20 -36 71 -59 392 -177 166 -61 240 -106 314 -192 48
-55 71 -96 71 -126 0 -16 -7 -20 -32 -21 -53 -1 -2310 -1 -2350 0 -44 1 -49
20 -22 74 53 103 149 177 318 245 116 47 156 73 156 104 0 13 7 18 25 18 15 0
36 11 50 26 23 24 25 25 54 10 42 -22 56 -20 84 14 31 36 57 31 57 -10 0 -61
64 -89 240 -105 170 -14 499 66 552 136 19 24 28 28 53 24 16 -3 33 -12 38
-20z"/>
<path d="M1071 1838 c-19 -5 -50 -21 -69 -36 -19 -15 -51 -32 -71 -37 -47 -14
-46 -37 2 -48 34 -8 44 -6 97 27 69 43 78 44 56 11 -23 -35 -20 -72 9 -100 30
-31 73 -32 109 -4 30 23 35 72 12 105 -14 18 -15 18 -21 -11 -14 -61 -16 -65
-39 -65 -32 0 -50 24 -42 55 4 14 2 34 -4 45 -6 11 -6 21 -1 25 19 11 87 -13
121 -43 40 -37 43 -38 61 -16 12 15 9 21 -25 50 -58 50 -121 64 -195 42z"/>
<path d="M1800 1829 c-55 -25 -80 -47 -80 -70 0 -28 18 -32 47 -10 27 22 46
20 25 -1 -20 -20 -14 -67 13 -93 49 -50 135 -17 135 52 0 20 -7 45 -17 55 -23
26 -4 22 39 -7 53 -36 86 -46 124 -39 48 9 47 39 -3 49 -20 3 -52 20 -73 36
-65 52 -136 62 -210 28z m94 -25 c9 -3 13 -11 9 -17 -4 -6 -6 -28 -4 -48 5
-85 -67 -84 -81 2 -8 48 -5 55 32 62 14 2 26 5 27 6 1 0 8 -2 17 -5z"/>
<path d="M1417 1513 c-27 -26 20 -78 80 -89 62 -12 143 39 127 80 -8 20 -48
21 -64 1 -7 -8 -25 -15 -40 -15 -15 0 -33 7 -40 15 -13 15 -51 20 -63 8z"/>
<path d="M1359 1319 c-49 -49 4 -162 89 -190 57 -19 144 -7 186 25 67 50 86
124 43 164 -22 20 -33 22 -160 22 -126 0 -139 -2 -158 -21z m271 -57 c0 -30
-65 -72 -111 -72 -40 0 -102 36 -107 63 -3 15 8 17 107 17 61 0 111 -4 111 -8z"/>
<path d="M2492 1193 c-7 -3 -28 -36 -47 -74 -19 -37 -43 -72 -52 -77 -10 -6
-43 -13 -73 -17 -60 -8 -88 -20 -107 -44 -25 -32 -14 -61 48 -127 59 -64 61
-67 55 -107 -18 -113 -19 -127 -3 -151 28 -42 66 -42 148 0 l73 36 74 -36 c84
-42 121 -42 149 1 14 21 15 34 5 99 -14 87 -8 107 45 154 51 46 66 74 58 110
-8 38 -38 56 -110 65 -33 4 -68 11 -78 16 -9 6 -33 41 -52 78 -18 38 -41 71
-50 75 -19 7 -64 7 -83 -1z m68 -48 c6 -8 27 -40 46 -71 28 -46 32 -60 22 -69
-7 -6 -41 -36 -76 -65 -60 -51 -65 -53 -93 -43 -41 16 -75 0 -98 -45 l-17 -33
-47 50 c-70 75 -62 101 34 116 65 10 103 36 135 92 48 84 68 99 94 68z m250
-180 c22 -13 8 -49 -39 -101 -56 -61 -61 -80 -49 -164 15 -95 -11 -111 -104
-64 -65 33 -101 33 -166 0 -96 -49 -119 -32 -103 73 6 38 11 73 11 77 0 3 18
-10 40 -30 33 -30 48 -36 84 -36 47 0 61 8 160 97 73 65 96 98 96 140 0 30 1
31 30 23 16 -5 34 -11 40 -15z m-106 -8 c10 -16 -2 -31 -84 -108 -84 -79 -99
-89 -132 -89 -41 0 -98 40 -98 70 0 29 27 45 55 32 14 -7 25 -16 25 -22 0 -23
26 -6 103 65 84 78 110 88 131 52z"/>
</g>
</svg>
