<?xml version="1.0" standalone="no"?>
<!DOCTYPE svg PUBLIC "-//W3C//DTD SVG 20010904//EN"
 "http://www.w3.org/TR/2001/REC-SVG-20010904/DTD/svg10.dtd">
<svg version="1.0" xmlns="http://www.w3.org/2000/svg"
 width="396.000000pt" height="465.000000pt" viewBox="0 0 396.000000 465.000000"
 preserveAspectRatio="xMidYMid meet">
<metadata>
Created by potrace 1.10, written by Peter Selinger 2001-2011
</metadata>
<g transform="translate(0.000000,465.000000) scale(0.100000,-0.100000)"
fill="#000000" stroke="none">
<path d="M779 3995 c-3 -3 -30 -9 -60 -15 -61 -11 -67 -13 -164 -60 -168 -81
-283 -211 -367 -415 -31 -77 -33 -132 -33 -1205 0 -1073 2 -1128 33 -1205 97
-234 223 -360 457 -457 77 -31 132 -33 1205 -33 1073 0 1128 2 1205 33 234 97
360 223 457 457 31 77 33 132 33 1205 0 1073 -2 1128 -33 1205 -97 234 -223
360 -457 457 -74 30 -133 32 -1196 35 -591 2 -1078 1 -1080 -2z m1273 -541
c54 -8 111 -22 126 -30 15 -7 37 -14 49 -14 12 0 24 -4 28 -9 3 -5 19 -12 35
-16 17 -4 50 -17 75 -31 25 -13 66 -35 92 -49 26 -14 64 -40 86 -58 22 -17 52
-39 66 -48 43 -27 193 -199 225 -259 10 -19 22 -37 27 -40 10 -7 69 -126 69
-140 0 -7 14 -42 31 -78 34 -74 30 -106 -15 -118 -41 -10 -50 3 -98 139 -63
182 -258 417 -418 504 -19 10 -54 31 -77 46 -50 32 -191 80 -300 103 -85 18
-336 22 -356 6 -7 -5 -34 -13 -62 -17 -60 -8 -143 -33 -170 -52 -11 -7 -27
-13 -36 -13 -16 0 -80 -28 -89 -40 -3 -3 -30 -21 -60 -39 -30 -18 -77 -54
-105 -80 -27 -26 -61 -55 -75 -66 -31 -24 -159 -197 -182 -245 -38 -80 -57
-128 -73 -185 -10 -33 -21 -69 -26 -80 -8 -20 -12 -56 -10 -84 1 -11 5 -11 19
2 25 23 48 21 66 -4 20 -30 13 -44 -68 -127 -85 -88 -93 -88 -174 -1 -70 75
-74 82 -66 114 10 38 49 44 83 11 15 -14 30 -23 34 -19 4 3 7 28 7 54 0 27 6
63 14 81 8 18 19 53 26 78 7 25 25 72 40 105 16 33 40 85 54 115 14 31 33 64
43 75 10 11 32 40 48 64 51 76 185 200 293 271 57 38 113 72 125 75 12 3 31
10 42 15 95 42 116 50 134 50 11 0 22 4 25 9 3 5 32 12 64 16 32 3 65 11 73
16 23 14 253 10 361 -7z m437 -784 c12 -6 24 -23 27 -38 4 -15 29 -62 57 -104
l50 -78 -2 -444 c-2 -456 0 -491 35 -440 35 51 61 86 77 106 27 33 126 234
138 281 17 69 48 221 45 225 -2 1 -17 -5 -34 -15 -38 -22 -67 -9 -67 29 0 33
125 168 156 168 21 0 115 -82 151 -133 28 -39 12 -77 -32 -77 -18 0 -33 6 -36
15 -4 8 -12 15 -19 15 -9 0 -19 -33 -30 -97 -18 -103 -55 -224 -86 -283 -11
-19 -19 -38 -19 -42 0 -9 -70 -128 -95 -160 -11 -14 -31 -41 -45 -60 -51 -68
-159 -165 -255 -228 -120 -78 -158 -100 -178 -100 -8 0 -37 -11 -64 -24 -62
-30 -117 -45 -228 -61 -98 -14 -313 -10 -380 6 -22 6 -65 15 -95 20 -30 6 -59
14 -65 18 -5 5 -23 11 -39 15 -53 13 -157 66 -246 127 -47 32 -89 59 -92 59
-13 0 -144 144 -198 217 -74 101 -124 197 -160 304 -32 94 -30 126 7 135 27 7
63 -19 63 -45 0 -9 6 -28 14 -43 8 -14 24 -52 36 -85 12 -32 25 -60 29 -63 5
-3 25 -36 46 -75 32 -60 123 -174 133 -167 2 1 4 209 5 462 1 312 5 463 13
468 13 9 84 126 84 140 0 5 12 23 28 38 l27 29 612 -2 c419 -1 618 -5 632 -13z"/>
<path d="M1281 2565 c-26 -29 -43 -64 -36 -75 4 -6 88 -10 210 -10 224 0 215
-3 215 65 l0 34 -186 3 c-175 3 -186 2 -203 -17z"/>
<path d="M1840 2581 c-64 -6 -64 -6 -72 -41 -12 -57 -7 -60 84 -60 109 0 114
4 89 63 -11 26 -24 46 -28 45 -4 -1 -37 -4 -73 -7z"/>
<path d="M2043 2577 c-8 -13 8 -81 20 -89 17 -11 405 -10 411 1 9 14 -37 80
-59 86 -35 8 -367 10 -372 2z"/>
<path d="M1200 2382 c-6 -2 -10 -168 -10 -466 l0 -462 28 -26 c48 -45 229
-148 260 -148 10 0 22 -4 28 -10 5 -5 29 -12 53 -15 24 -3 51 -9 60 -14 9 -5
55 -14 102 -20 91 -12 351 0 373 17 6 5 31 12 56 16 25 4 73 20 105 36 33 17
68 30 77 30 9 0 20 4 23 10 3 5 37 28 76 51 38 23 75 51 81 63 9 15 12 152 12
478 1 401 -1 458 -14 458 -231 2 -433 0 -438 -5 -4 -3 -5 -39 -3 -80 6 -145
-15 -168 -120 -135 -78 25 -97 25 -187 -1 l-72 -22 -24 22 c-22 20 -23 27 -18
121 4 81 2 100 -9 100 -8 0 -107 1 -222 3 -114 1 -212 1 -217 -1z m1052 -487
c9 -19 8 -29 -6 -50 l-16 -25 -360 0 c-399 0 -410 2 -410 56 0 18 6 35 13 37
6 3 182 6 390 6 l377 1 12 -25z m-12 -145 c23 -23 25 -39 8 -63 -12 -16 -45
-17 -398 -15 l-385 3 -3 38 c-3 31 1 39 20 46 13 6 184 10 381 10 344 1 358 0
377 -19z m-199 -150 c24 -13 27 -75 3 -84 -22 -9 -357 -7 -370 2 -20 14 -25
45 -9 68 15 24 18 24 186 24 98 0 178 -4 190 -10z"/>
<path d="M1763 2382 c-19 -3 -21 -8 -18 -59 2 -30 5 -56 7 -58 2 -2 27 2 56 7
38 8 67 8 100 0 57 -13 63 -6 60 63 l-3 49 -90 1 c-49 0 -100 -1 -112 -3z"/>
</g>
</svg>
