<?xml version="1.0" standalone="no"?>
<!DOCTYPE svg PUBLIC "-//W3C//DTD SVG 20010904//EN"
 "http://www.w3.org/TR/2001/REC-SVG-20010904/DTD/svg10.dtd">
<svg version="1.0" xmlns="http://www.w3.org/2000/svg"
 width="157.000000pt" height="136.000000pt" viewBox="0 0 157.000000 136.000000"
 preserveAspectRatio="xMidYMid meet">
<metadata>
Created by potrace 1.10, written by Peter Selinger 2001-2011
</metadata>
<g transform="translate(0.000000,136.000000) scale(0.050000,-0.050000)"
fill="#000000" stroke="none">
<path d="M650 2602 c-144 -36 -262 -132 -337 -272 -67 -125 -67 -1555 0 -1680
146 -272 175 -280 1087 -280 855 0 843 -2 987 143 145 144 143 133 143 977 0
900 -8 932 -280 1077 -84 45 -1442 75 -1600 35z m979 -407 c55 -49 67 -91 70
-249 l1 -104 185 -6 185 -6 0 -390 0 -390 -660 0 -660 0 -6 65 c-5 48 2 65 25
65 18 0 31 -17 31 -40 0 -31 13 -40 58 -40 57 0 58 1 65 140 10 168 31 194
203 252 148 49 161 82 76 179 -34 39 -62 79 -62 90 0 11 -74 19 -170 19 l-170
0 0 -270 c0 -229 -5 -270 -31 -270 -26 0 -29 41 -25 295 l6 295 190 11 190 11
-203 4 c-169 3 -205 -1 -215 -28 -16 -41 -16 -735 0 -776 11 -28 91 -32 700
-32 l688 0 0 419 0 419 -173 6 c-247 8 -260 56 -15 56 259 0 248 22 248 -482
0 -519 30 -478 -351 -478 -276 0 -289 -2 -289 -40 0 -22 11 -40 23 -40 38 0
97 -63 97 -103 0 -42 -445 -58 -470 -17 -20 32 28 99 81 112 30 8 49 27 49 50
0 36 -19 38 -289 38 -381 0 -351 -41 -351 480 0 509 -16 480 261 480 l199 0 0
98 c0 54 6 114 13 133 36 95 401 127 496 44z"/>
<path d="M1204 2156 c-13 -13 -24 -58 -24 -100 0 -93 46 -100 200 -34 l98 42
54 -42 c98 -77 167 36 77 127 -40 39 -367 45 -405 7z"/>
<path d="M1400 1970 c-27 -15 -88 -34 -135 -41 -97 -15 -110 -59 -53 -179 85
-181 333 -158 407 36 40 108 19 136 -159 208 -5 3 -32 -8 -60 -24z"/>
<path d="M1662 1735 c-10 -25 -41 -67 -70 -93 -52 -49 -69 -102 -33 -102 46 0
249 -88 283 -122 30 -30 38 -68 38 -178 l0 -140 70 0 70 0 0 340 0 340 -170 0
c-159 0 -172 -3 -188 -45z"/>
<path d="M1314 1540 c-10 -37 58 -120 99 -120 40 0 91 76 78 116 -17 55 -162
59 -177 4z"/>
<path d="M1195 1466 c-51 -13 -43 -92 15 -142 59 -52 71 -172 18 -192 -46 -18
-75 6 -47 39 39 48 15 119 -41 119 -56 0 -80 -71 -41 -119 28 -33 -1 -57 -47
-39 -47 18 -41 139 8 188 47 47 53 100 11 100 -54 0 -91 -84 -91 -204 l0 -116
430 0 430 0 0 105 c-1 118 -34 201 -86 211 -25 5 -34 -7 -34 -45 0 -28 9 -51
19 -51 75 0 58 -165 -19 -190 -106 -34 -188 114 -97 178 36 25 59 118 35 140
-44 39 -98 26 -166 -40 l-75 -73 -74 72 c-75 73 -83 76 -148 59z"/>
<path d="M1647 1250 c-7 -18 -3 -42 9 -54 30 -30 88 -3 80 39 -9 46 -73 57
-89 15z"/>
<path d="M1340 920 c0 -31 13 -40 60 -40 47 0 60 9 60 40 0 31 -13 40 -60 40
-47 0 -60 -9 -60 -40z"/>
<path d="M1230 800 c-8 -13 53 -20 169 -20 107 0 181 8 181 20 0 12 -70 20
-169 20 -93 0 -174 -9 -181 -20z"/>
</g>
</svg>
