<?xml version="1.0" standalone="no"?>
<!DOCTYPE svg PUBLIC "-//W3C//DTD SVG 20010904//EN"
 "http://www.w3.org/TR/2001/REC-SVG-20010904/DTD/svg10.dtd">
<svg version="1.0" xmlns="http://www.w3.org/2000/svg"
 width="300.000000pt" height="153.000000pt" viewBox="0 0 300.000000 153.000000"
 preserveAspectRatio="xMidYMid meet">
<metadata>
Created by potrace 1.10, written by Peter Selinger 2001-2011
</metadata>
<g transform="translate(0.000000,153.000000) scale(0.100000,-0.100000)"
fill="#000000" stroke="none">
<path d="M1214 1366 c-60 -26 -103 -118 -90 -191 12 -65 48 -91 196 -145 155
-57 196 -61 232 -25 24 24 78 155 78 190 0 27 -27 70 -52 83 -55 29 -272 102
-301 102 -18 -1 -46 -7 -63 -14z m134 -37 c31 -11 72 -25 90 -31 26 -7 32 -13
26 -26 -8 -21 -75 -202 -79 -219 -5 -16 -167 46 -199 76 -70 66 -11 217 87
220 10 1 43 -8 75 -20z m242 -110 c8 -14 8 -29 0 -54 -13 -40 -15 -40 -63 -20
-45 19 -67 19 -67 1 0 -8 22 -22 51 -31 47 -16 50 -19 44 -44 -7 -30 -39 -61
-65 -61 -9 0 -31 5 -49 11 -24 8 -31 16 -26 28 4 9 20 54 37 100 16 46 34 94
39 108 l9 24 40 -21 c21 -11 44 -29 50 -41z"/>
<path d="M1680 1036 c0 -8 9 -17 19 -21 33 -10 71 -45 91 -85 11 -21 27 -45
35 -54 21 -21 6 -21 -23 0 -29 20 -64 11 -41 -10 8 -8 31 -21 51 -29 l36 -15
27 40 c20 30 24 43 15 52 -8 8 -16 5 -30 -14 -18 -24 -20 -24 -20 -4 0 30 -56
110 -94 134 -39 23 -66 26 -66 6z"/>
<path d="M860 935 c0 -12 20 -15 120 -15 l119 0 10 -37 c6 -21 19 -72 30 -114
11 -42 39 -148 62 -235 22 -87 42 -160 44 -162 2 -2 618 26 659 31 18 2 22 20
42 182 12 99 25 202 29 228 5 43 4 48 -12 45 -15 -3 -21 -32 -43 -213 l-25
-210 -45 -2 c-138 -7 -483 -23 -529 -25 l-54 -2 -17 70 c-10 38 -41 160 -70
272 l-53 202 -133 0 c-112 0 -134 -2 -134 -15z"/>
<path d="M1542 797 c-42 -16 -88 -60 -112 -107 -24 -46 -59 -70 -105 -70 -40
0 -50 -25 -12 -32 57 -11 121 31 154 100 38 80 137 107 233 62 46 -21 64 -40
40 -40 -5 0 -39 -27 -76 -60 -75 -68 -101 -78 -158 -61 -59 17 -68 18 -73 3
-6 -17 57 -42 107 -42 53 0 86 18 166 90 36 33 74 60 84 60 10 0 23 7 30 15
10 12 9 16 -6 20 -11 3 -45 19 -77 36 -67 35 -145 45 -195 26z"/>
<path d="M1595 730 c-11 -4 -31 -20 -45 -35 -14 -15 -36 -31 -49 -36 -18 -7
-21 -12 -12 -23 16 -20 43 -10 82 30 26 27 41 34 70 34 44 0 58 14 30 29 -23
13 -48 13 -76 1z"/>
<path d="M1804 325 c-79 -33 -87 -135 -14 -178 35 -21 62 -21 100 -2 58 30 69
105 23 154 -34 36 -68 44 -109 26z m86 -45 c27 -27 25 -66 -6 -96 -29 -30 -67
-27 -96 8 -23 27 -23 49 3 82 25 32 70 35 99 6z"/>
<path d="M1304 310 c-40 -16 -66 -61 -61 -103 6 -47 28 -73 73 -87 28 -10 41
-8 72 7 115 56 35 231 -84 183z m89 -48 c21 -19 22 -60 1 -90 -23 -33 -79 -27
-107 10 -17 23 -18 31 -8 56 21 50 72 61 114 24z"/>
</g>
</svg>
