<?xml version="1.0" standalone="no"?>
<!DOCTYPE svg PUBLIC "-//W3C//DTD SVG 20010904//EN"
 "http://www.w3.org/TR/2001/REC-SVG-20010904/DTD/svg10.dtd">
<svg version="1.0" xmlns="http://www.w3.org/2000/svg"
 width="239.000000pt" height="188.000000pt" viewBox="0 0 239.000000 188.000000"
 preserveAspectRatio="xMidYMid meet">
<metadata>
Created by potrace 1.10, written by Peter Selinger 2001-2011
</metadata>
<g transform="translate(0.000000,188.000000) scale(0.050000,-0.050000)"
fill="#000000" stroke="none">
<path d="M880 3123 c-158 -85 -149 -17 -156 -1201 l-5 -1055 45 -66 c103 -151
101 -150 667 -157 280 -3 509 -12 509 -19 0 -7 -15 -65 -33 -129 l-32 -116
-135 0 c-128 0 -186 -27 -145 -68 15 -16 1575 -16 1590 0 41 41 -17 68 -145
68 l-135 0 -32 116 c-18 64 -33 122 -33 129 0 7 229 16 509 19 566 7 564 6
667 157 l45 66 -5 1055 c-7 1184 2 1116 -156 1201 -107 57 -2913 57 -3020 0z
m2963 -176 c35 -31 37 -86 37 -910 l0 -877 -1490 0 -1490 0 0 873 c0 785 3
878 33 910 49 54 2851 58 2910 4z m37 -2006 c0 -126 56 -121 -1490 -121 -1546
0 -1490 -5 -1490 121 l0 59 1490 0 1490 0 0 -59z m-1182 -450 c12 -49 22 -94
22 -100 0 -6 -148 -11 -330 -11 -181 0 -330 5 -330 11 0 6 10 51 22 100 l23
89 285 0 285 0 23 -89z"/>
<path d="M1373 2707 c-7 -8 -13 -30 -13 -50 0 -38 20 -46 189 -72 92 -15 101
-21 117 -85 42 -162 159 -569 215 -740 54 -168 57 -189 30 -219 -45 -50 -38
-108 19 -161 63 -59 146 -39 186 45 l26 55 329 0 c216 0 329 -7 329 -21 0 -32
94 -119 130 -119 102 0 155 137 81 210 l-48 49 -449 -13 c-261 -7 -452 -5
-459 6 -5 10 -17 47 -24 83 l-14 65 478 0 478 0 31 115 c86 316 121 488 104
504 -10 9 -310 45 -668 81 -357 35 -651 65 -651 67 -1 2 -15 39 -31 83 -29 78
-34 81 -159 104 -150 28 -207 31 -226 13z m1052 -381 c463 -45 555 -60 555
-85 -1 -17 -22 -112 -47 -211 l-46 -180 -452 -5 -453 -6 -44 146 c-97 325
-113 395 -90 395 12 1 272 -24 577 -54z"/>
</g>
</svg>
