<?xml version="1.0" standalone="no"?>
<!DOCTYPE svg PUBLIC "-//W3C//DTD SVG 20010904//EN"
 "http://www.w3.org/TR/2001/REC-SVG-20010904/DTD/svg10.dtd">
<svg version="1.0" xmlns="http://www.w3.org/2000/svg"
 width="300.000000pt" height="300.000000pt" viewBox="0 0 300.000000 300.000000"
 preserveAspectRatio="xMidYMid meet">
<metadata>
Created by potrace 1.10, written by Peter Selinger 2001-2011
</metadata>
<g transform="translate(0.000000,300.000000) scale(0.100000,-0.100000)"
fill="#000000" stroke="none">
<path d="M1385 2391 c-320 -42 -609 -268 -719 -561 -48 -127 -59 -188 -59
-330 0 -142 11 -203 59 -330 82 -218 286 -422 504 -504 127 -48 188 -59 330
-59 142 0 203 11 330 59 218 82 422 286 504 504 48 127 59 188 59 330 0 142
-11 203 -59 330 -82 218 -286 422 -504 504 -140 53 -309 74 -445 57z m295
-496 l0 -215 215 0 215 0 0 -180 0 -180 -212 -2 -213 -3 -3 -212 -2 -213 -180
0 -180 0 0 215 0 215 -215 0 -215 0 0 180 0 180 215 0 215 0 0 215 0 215 180
0 180 0 0 -215z"/>
</g>
</svg>
