<?xml version="1.0" standalone="no"?>
<!DOCTYPE svg PUBLIC "-//W3C//DTD SVG 20010904//EN"
 "http://www.w3.org/TR/2001/REC-SVG-20010904/DTD/svg10.dtd">
<svg version="1.0" xmlns="http://www.w3.org/2000/svg"
 width="300.000000pt" height="300.000000pt" viewBox="0 0 300.000000 300.000000"
 preserveAspectRatio="xMidYMid meet">
<metadata>
Created by potrace 1.10, written by Peter Selinger 2001-2011
</metadata>
<g transform="translate(0.000000,300.000000) scale(0.100000,-0.100000)"
fill="#000000" stroke="none">
<path d="M1405 2394 c-120 -13 -283 -70 -387 -137 -82 -52 -211 -179 -265
-259 -100 -152 -147 -310 -147 -498 0 -246 78 -441 248 -618 179 -187 388
-276 646 -276 247 0 439 77 620 250 184 176 274 387 274 644 0 257 -90 468
-274 644 -124 118 -252 190 -410 229 -67 16 -235 28 -305 21z m340 -73 c89
-27 207 -86 281 -142 136 -103 259 -291 304 -463 28 -113 28 -315 -1 -429 -57
-222 -210 -423 -409 -535 -143 -80 -343 -121 -508 -102 -362 40 -650 287 -743
636 -31 115 -31 307 0 424 82 316 326 552 646 626 92 21 339 12 430 -15z"/>
<path d="M1302 2127 c-21 -22 -22 -32 -22 -199 0 -97 -3 -183 -6 -192 -5 -14
-31 -16 -189 -16 -179 0 -182 0 -209 -25 l-26 -24 0 -174 c0 -179 0 -180 43
-219 1 -1 88 -4 192 -7 l190 -6 5 -186 c7 -247 -11 -229 220 -229 235 0 219
-16 222 230 l3 185 185 5 c102 3 192 9 201 13 35 17 40 49 37 226 -4 224 13
209 -238 213 l-185 3 -5 191 c-7 253 11 234 -220 234 -172 0 -177 -1 -198 -23z
m378 -232 l0 -215 215 0 215 0 0 -182 0 -183 -215 3 -215 4 0 -216 0 -216
-180 0 -180 0 0 216 0 216 -215 -4 -215 -3 0 183 0 182 215 0 216 0 -3 215 -3
215 183 0 182 0 0 -215z"/>
</g>
</svg>
