<?xml version="1.0" standalone="no"?>
<!DOCTYPE svg PUBLIC "-//W3C//DTD SVG 20010904//EN"
 "http://www.w3.org/TR/2001/REC-SVG-20010904/DTD/svg10.dtd">
<svg version="1.0" xmlns="http://www.w3.org/2000/svg"
 width="217.000000pt" height="218.000000pt" viewBox="0 0 217.000000 218.000000"
 preserveAspectRatio="xMidYMid meet">
<metadata>
Created by potrace 1.10, written by Peter Selinger 2001-2011
</metadata>
<g transform="translate(0.000000,218.000000) scale(0.100000,-0.100000)"
fill="#000000" stroke="none">
<path d="M1475 1908 c-80 -29 -178 -124 -280 -271 -48 -69 -65 -86 -85 -87
-39 -1 -123 -25 -176 -51 -66 -33 -134 -97 -183 -172 l-41 -63 -123 -18 c-138
-21 -170 -33 -197 -79 -39 -63 -14 -149 52 -176 35 -15 38 -19 38 -56 0 -51
14 -65 62 -65 26 0 38 -4 38 -14 0 -8 8 -24 18 -36 24 -29 55 -20 72 20 11 26
18 30 51 30 26 0 39 5 39 13 0 9 -15 14 -46 14 -42 1 -47 -2 -62 -33 -8 -19
-19 -34 -24 -34 -4 0 -15 16 -23 36 -13 32 -18 36 -43 31 -37 -7 -48 1 -54 41
l-5 34 96 -7 c53 -3 108 -9 124 -11 20 -4 27 -2 27 9 0 18 -30 23 -175 33
-103 6 -147 21 -165 53 -9 18 -7 19 31 14 51 -7 83 10 104 54 13 26 14 41 6
63 -11 33 -9 34 74 45 100 12 101 13 146 81 46 72 113 135 174 167 48 24 129
47 170 47 27 0 38 11 94 90 134 191 262 298 328 275 87 -31 150 -351 110 -555
l-15 -75 86 -87 87 -88 -70 -70 c-46 -46 -66 -73 -59 -80 6 -6 33 14 79 60
l70 70 82 -82 c46 -46 83 -89 83 -97 0 -21 -545 -561 -567 -561 -11 0 -62 44
-121 105 -56 58 -107 105 -112 105 -22 0 -7 -30 30 -61 40 -34 52 -53 26 -43
-23 9 -80 -23 -99 -55 -43 -74 0 -172 82 -186 68 -11 141 45 141 108 0 29 1
29 18 14 10 -10 29 -17 41 -17 32 0 591 560 591 592 0 16 -52 75 -180 203
l-180 180 12 40 c21 68 15 316 -10 406 -47 172 -100 228 -187 197z m-945 -749
c0 -22 -36 -66 -59 -74 -28 -9 -71 12 -71 33 0 51 90 108 118 74 6 -9 12 -23
12 -33z m782 -788 c44 -39 44 -93 -1 -133 -39 -35 -80 -36 -119 -3 -35 29 -46
63 -32 100 26 68 98 85 152 36z"/>
<path d="M1343 1669 c-44 -28 -148 -168 -135 -181 6 -6 28 15 65 64 59 78 114
122 139 113 34 -13 64 -146 53 -232 -5 -43 -4 -53 8 -53 47 0 14 270 -36 302
-21 14 -61 8 -94 -13z"/>
<path d="M1131 1419 c-113 -22 -230 -104 -288 -200 -149 -250 -22 -563 262
-644 73 -22 187 -16 261 12 192 74 311 281 275 478 -44 241 -274 400 -510 354z
m229 -48 c99 -37 193 -132 231 -232 76 -198 -9 -412 -199 -507 -73 -35 -80
-37 -176 -37 -83 0 -112 4 -160 24 -76 30 -172 124 -212 206 -26 54 -28 70
-29 165 0 97 2 110 31 170 56 116 143 191 263 226 63 18 182 11 251 -15z"/>
<path d="M990 1194 c-47 -75 -86 -143 -88 -150 -3 -11 10 -14 50 -14 l54 0 -7
-57 c-12 -93 -11 -113 6 -113 8 0 15 3 15 8 0 4 38 68 84 142 47 73 83 137 80
142 -3 4 -28 8 -55 8 l-50 0 6 48 c3 26 8 64 11 85 10 68 -18 41 -106 -99z
m77 49 c-3 -10 -8 -39 -12 -65 l-6 -48 50 0 50 0 -61 -97 c-34 -54 -62 -100
-64 -102 -2 -2 -1 26 3 62 l6 66 -46 3 -45 3 61 98 c33 53 63 97 65 97 2 0 1
-8 -1 -17z"/>
<path d="M1147 1224 c-15 -15 -5 -22 53 -34 48 -10 72 -10 118 0 50 10 63 10
88 -3 78 -41 92 -120 32 -184 l-20 -22 21 -44 c27 -56 27 -112 -1 -167 -32
-62 -45 -62 -41 2 7 93 -57 171 -137 170 -81 -1 -135 -68 -134 -164 0 -32 -3
-58 -7 -58 -14 0 -38 42 -50 92 -7 26 -18 47 -23 45 -27 -9 19 -138 55 -158
13 -7 25 -6 40 2 17 9 20 17 14 45 -9 50 4 101 35 134 51 55 112 48 157 -19
18 -26 23 -48 23 -97 0 -56 2 -63 22 -70 42 -13 98 86 98 173 0 15 -9 47 -19
69 -19 41 -19 42 2 62 15 15 22 38 25 80 4 55 2 61 -28 95 -40 46 -88 60 -147
45 -40 -10 -97 -7 -148 7 -11 4 -24 3 -28 -1z"/>
<path d="M1267 1131 c-60 -8 -66 -25 -10 -29 45 -3 88 13 78 29 -4 5 -9 8 -13
7 -4 0 -28 -4 -55 -7z"/>
<path d="M744 749 c-36 -27 -44 -29 -67 -18 -42 19 -53 7 -60 -61 -5 -58 -3
-66 24 -103 16 -22 29 -49 29 -59 0 -33 54 -78 92 -78 32 0 335 83 346 95 3 3
1 9 -4 14 -5 5 -73 -10 -159 -36 -82 -24 -162 -44 -177 -45 -49 -2 -86 50 -68
96 5 13 39 48 77 77 68 54 83 71 65 77 -12 4 -162 -116 -162 -130 0 -8 -7 -6
-17 5 -11 11 -17 34 -18 72 -1 59 1 61 39 44 22 -10 31 -7 75 26 50 36 63 55
39 55 -7 -1 -31 -14 -54 -31z"/>
</g>
</svg>
