<?xml version="1.0" standalone="no"?>
<!DOCTYPE svg PUBLIC "-//W3C//DTD SVG 20010904//EN"
 "http://www.w3.org/TR/2001/REC-SVG-20010904/DTD/svg10.dtd">
<svg version="1.0" xmlns="http://www.w3.org/2000/svg"
 width="200.000000pt" height="200.000000pt" viewBox="0 0 200.000000 200.000000"
 preserveAspectRatio="xMidYMid meet">
<metadata>
Created by potrace 1.10, written by Peter Selinger 2001-2011
</metadata>
<g transform="translate(0.000000,200.000000) scale(0.100000,-0.100000)"
fill="#000000" stroke="none">
<path d="M1410 1991 c-103 -32 -176 -119 -187 -226 -15 -147 102 -275 251
-275 147 0 255 108 256 256 0 109 -67 204 -169 239 -47 16 -109 18 -151 6z"/>
<path d="M902 1764 c-70 -18 -128 -59 -232 -164 -97 -97 -181 -216 -242 -346
-67 -142 -65 -237 8 -315 50 -53 65 -212 32 -349 -17 -75 -93 -221 -153 -295
-63 -78 -75 -101 -75 -148 0 -67 71 -137 138 -137 62 0 99 27 177 132 112 148
170 278 210 473 l7 30 19 -35 c58 -107 74 -245 42 -355 -10 -33 -18 -86 -18
-117 0 -47 4 -61 25 -83 67 -72 153 -73 217 -3 28 31 60 138 73 248 12 98 1
216 -28 305 -17 49 -18 50 -60 52 -24 1 -54 8 -67 17 -50 33 -142 222 -181
371 -24 96 -25 295 0 385 21 80 79 200 110 229 53 50 133 42 173 -18 31 -46
29 -62 -16 -156 -21 -44 -44 -104 -50 -133 -31 -148 7 -323 106 -494 36 -62
41 -103 18 -148 -20 -38 -3 -39 30 -4 35 38 31 72 -19 167 -64 118 -97 223
-103 332 -7 116 8 187 49 233 68 78 90 188 51 254 -21 37 -88 74 -148 81 -22
3 -64 -1 -93 -9z"/>
<path d="M933 1655 c-50 -35 -115 -193 -133 -325 -23 -170 28 -386 134 -568
40 -68 59 -82 106 -82 40 0 90 47 90 85 0 15 -15 53 -34 84 -78 128 -116 258
-116 391 1 108 12 155 61 257 38 79 39 83 25 117 -8 19 -23 39 -34 45 -29 15
-74 14 -99 -4z"/>
<path d="M1406 1086 l-79 -72 32 -14 c17 -7 34 -16 36 -20 3 -4 -29 -34 -70
-66 -41 -32 -73 -60 -71 -62 2 -2 49 25 104 59 l101 63 -40 24 -39 23 69 57
c53 43 67 59 59 69 -6 7 -13 13 -17 13 -3 -1 -42 -34 -85 -74z"/>
<path d="M1612 945 c-57 -18 -106 -36 -109 -39 -3 -3 6 -19 21 -36 14 -17 26
-35 26 -39 0 -4 -52 -18 -115 -31 -63 -13 -115 -28 -115 -32 0 -5 10 -6 23 -4
12 3 72 10 132 16 61 7 116 14 123 16 9 3 4 17 -17 48 l-31 44 95 23 c111 27
118 30 109 52 -8 23 -21 21 -142 -18z"/>
<path d="M1506 670 c4 -22 3 -40 -2 -40 -4 0 -46 12 -92 26 -46 14 -86 24 -88
21 -3 -3 132 -65 205 -95 11 -4 13 4 9 42 -6 54 -18 52 104 17 59 -17 67 -17
73 -4 3 9 3 18 1 21 -3 2 -42 13 -88 23 -46 11 -93 21 -106 24 -21 5 -22 3
-16 -35z"/>
</g>
</svg>
