<?xml version="1.0" standalone="no"?>
<!DOCTYPE svg PUBLIC "-//W3C//DTD SVG 20010904//EN"
 "http://www.w3.org/TR/2001/REC-SVG-20010904/DTD/svg10.dtd">
<svg version="1.0" xmlns="http://www.w3.org/2000/svg"
 width="154.000000pt" height="148.000000pt" viewBox="0 0 154.000000 148.000000"
 preserveAspectRatio="xMidYMid meet">
<metadata>
Created by potrace 1.10, written by Peter Selinger 2001-2011
</metadata>
<g transform="translate(0.000000,148.000000) scale(0.100000,-0.100000)"
fill="#000000" stroke="none">
<path d="M807 1163 c-4 -3 -7 -17 -7 -29 0 -16 -10 -29 -29 -38 -16 -9 -37
-26 -47 -40 -14 -18 -41 -30 -102 -45 -164 -40 -252 -101 -252 -174 0 -38 38
-60 85 -51 43 8 142 71 183 118 l29 33 -5 -78 c-5 -90 10 -165 44 -215 32 -47
30 -59 -14 -84 -56 -32 -82 -76 -82 -140 0 -49 3 -56 40 -92 23 -21 35 -38 27
-38 -7 0 -24 -11 -36 -24 l-23 -25 22 -30 c24 -34 62 -41 95 -17 20 14 55 10
55 -6 0 -13 79 -2 97 14 7 6 13 21 13 34 0 31 14 31 28 -1 7 -14 21 -29 33
-33 31 -12 79 -2 91 18 11 16 13 16 44 -2 40 -23 83 -18 102 13 11 18 11 24
-2 38 -14 16 -13 18 19 29 36 14 95 73 95 97 0 19 0 19 -51 -10 -53 -30 -105
-34 -94 -7 4 9 10 42 12 73 7 78 -16 125 -74 151 -24 10 -43 25 -43 32 0 8 -7
19 -15 26 -13 11 -13 16 1 48 23 55 28 158 11 221 l-15 53 35 -5 c20 -4 66
-25 104 -47 87 -53 132 -60 179 -28 37 25 45 45 36 84 -5 19 -23 33 -71 55
-74 35 -174 47 -270 31 -55 -9 -62 -8 -87 13 -15 13 -37 27 -48 30 -11 4 -18
10 -15 15 3 4 -2 13 -10 20 -11 9 -18 10 -29 1 -10 -9 -15 -8 -20 4 -6 15 -28
20 -39 8z m33 -35 c0 -20 1 -21 20 -3 11 10 23 15 28 10 4 -4 1 -10 -5 -12 -7
-3 -13 -9 -13 -14 0 -4 6 -6 14 -3 22 8 71 -21 105 -63 92 -112 85 -316 -14
-420 -36 -37 -49 -44 -77 -42 -18 1 -45 -1 -59 -5 -62 -17 -128 54 -156 168
-33 137 12 294 100 341 27 14 35 25 31 37 -3 10 -2 22 1 28 10 15 25 2 25 -22z
m451 -88 c55 -20 99 -55 99 -77 0 -8 -11 -25 -25 -38 -39 -40 -90 -34 -183 19
-42 25 -93 47 -112 49 -25 3 -35 8 -34 20 1 9 -2 15 -6 12 -5 -3 -12 0 -16 6
-13 21 21 29 123 29 78 0 115 -5 154 -20z m-606 -52 c-9 -32 -127 -142 -179
-167 -87 -43 -141 -17 -112 52 17 42 64 72 170 108 102 36 130 38 121 7z m361
-364 c17 -41 14 -49 -14 -40 -26 9 -35 32 -22 57 15 26 19 24 36 -17z m4 -54
c19 0 21 -3 12 -12 -17 -17 -15 -57 3 -64 17 -7 21 -74 5 -74 -6 0 -10 -15 -9
-32 3 -33 -15 -78 -30 -78 -8 0 -31 88 -31 123 0 12 -5 29 -11 37 -8 11 -9 1
-4 -35 9 -69 35 -156 51 -173 19 -19 18 -38 -1 -22 -9 7 -18 10 -22 6 -3 -3
-1 -6 5 -6 7 0 12 -7 12 -15 0 -21 -8 -19 -31 8 l-20 22 6 -22 c5 -17 2 -23
-9 -23 -34 0 -54 63 -58 188 -1 34 -6 62 -11 62 -7 0 -1 -138 8 -167 2 -7 0
-15 -5 -18 -9 -6 -16 21 -25 105 -3 30 -11 62 -16 70 -8 12 -10 9 -6 -10 3
-14 11 -67 18 -117 9 -74 9 -96 -1 -108 -17 -20 -30 -19 -30 3 0 14 -4 13 -19
-7 -12 -16 -20 -20 -25 -12 -4 7 -2 18 4 26 9 11 9 15 1 15 -6 0 -14 -7 -17
-15 -8 -20 -24 -19 -24 1 0 9 9 18 21 21 20 5 20 10 13 107 -3 55 -8 103 -10
105 -2 2 -4 -31 -4 -74 0 -69 -2 -76 -16 -64 -40 33 -59 121 -45 207 4 29 10
55 13 57 3 3 30 -8 61 -25 31 -16 65 -30 74 -30 10 1 38 19 63 40 44 39 44 39
65 20 12 -11 32 -20 45 -20z m101 -30 c31 -58 20 -144 -26 -199 -31 -36 -31
-37 3 -45 45 -10 67 -32 56 -57 -9 -20 -10 -20 -24 -3 -14 16 -13 17 5 10 15
-5 17 -4 8 5 -17 17 -37 1 -22 -17 22 -26 -2 -29 -47 -5 -62 33 -69 51 -42 98
19 31 23 53 23 123 0 47 -3 100 -7 117 l-7 33 31 -13 c17 -7 39 -28 49 -47z
m-438 -42 c-7 -84 11 -145 53 -185 36 -34 43 -53 19 -53 -8 0 -19 -9 -25 -20
-10 -19 -59 -50 -80 -50 -14 0 -13 27 3 33 10 4 10 7 0 18 -11 10 -15 11 -25
0 -11 -10 -9 -11 7 -5 18 7 19 6 6 -10 -11 -13 -16 -14 -22 -4 -16 25 -9 36
35 54 44 18 52 34 17 34 -9 0 -30 13 -45 29 -33 34 -44 97 -26 141 11 27 65
80 81 80 4 0 4 -28 2 -62z m354 20 c-3 -8 -6 -5 -6 6 -1 11 2 17 5 13 3 -3 4
-12 1 -19z m211 -157 c-23 -38 -109 -70 -137 -52 -24 16 6 41 48 41 20 1 47 7
61 15 34 20 42 18 28 -4z"/>
<path d="M702 938 c-19 -19 -14 -29 8 -16 20 13 27 28 12 28 -4 0 -13 -5 -20
-12z"/>
<path d="M980 935 c27 -14 36 -13 25 4 -3 6 -16 11 -28 11 -21 -1 -21 -1 3
-15z"/>
<path d="M755 929 c-4 -6 -5 -12 -2 -15 2 -3 7 2 10 11 7 17 1 20 -8 4z"/>
<path d="M1017 830 c-6 -25 -42 -26 -56 -2 -10 16 -10 16 -11 0 0 -10 8 -21
18 -26 25 -14 62 3 62 28 0 26 -6 26 -13 0z"/>
<path d="M757 819 c-4 -15 -12 -20 -29 -17 -13 2 -22 9 -20 16 1 6 -2 12 -8
12 -5 0 -10 -7 -10 -15 0 -19 34 -37 55 -29 20 8 38 41 26 48 -5 3 -11 -4 -14
-15z"/>
<path d="M990 758 c0 -12 7 -18 23 -17 15 0 17 2 7 6 -8 3 -18 11 -22 17 -5 7
-8 4 -8 -6z"/>
<path d="M726 744 c-17 -12 -17 -14 -4 -14 9 0 20 5 23 11 11 17 2 18 -19 3z"/>
</g>
</svg>
