<?xml version="1.0" standalone="no"?>
<!DOCTYPE svg PUBLIC "-//W3C//DTD SVG 20010904//EN"
 "http://www.w3.org/TR/2001/REC-SVG-20010904/DTD/svg10.dtd">
<svg version="1.0" xmlns="http://www.w3.org/2000/svg"
 width="900.000000pt" height="900.000000pt" viewBox="0 0 900.000000 900.000000"
 preserveAspectRatio="xMidYMid meet">
<metadata>
Created by potrace 1.10, written by Peter Selinger 2001-2011
</metadata>
<g transform="translate(0.000000,900.000000) scale(0.100000,-0.100000)"
fill="#000000" stroke="none">
<path d="M3343 7194 c-17 -7 -44 -30 -60 -50 l-28 -37 -3 -446 c-2 -403 -4
-447 -19 -458 -13 -10 -101 -13 -357 -13 -350 0 -367 -2 -441 -42 -41 -22 -88
-74 -116 -128 l-24 -45 0 -1140 0 -1140 27 -51 c35 -66 104 -127 171 -150 48
-18 102 -19 737 -24 l685 -5 0 -220 0 -220 -140 -6 c-94 -4 -155 -12 -185 -23
-47 -18 -121 -69 -157 -108 -57 -62 -103 -209 -82 -265 l9 -23 1130 0 1130 0
9 23 c21 56 -25 203 -82 265 -36 39 -110 90 -157 108 -30 11 -91 19 -185 23
l-140 6 0 220 0 220 685 5 c635 5 689 6 737 24 67 23 136 84 171 150 l27 51 0
1140 0 1140 -27 50 c-26 50 -72 99 -118 126 -61 36 -100 40 -389 37 -261 -3
-285 -4 -295 -21 -9 -15 -7 -22 13 -38 22 -18 41 -19 308 -19 l285 0 47 -31
c52 -36 69 -56 93 -114 16 -37 17 -128 17 -1130 0 -1002 -1 -1093 -17 -1132
-21 -52 -49 -84 -103 -120 l-43 -28 -1966 0 -1966 0 -43 28 c-54 36 -82 68
-103 120 -16 39 -17 130 -17 1132 0 1002 1 1093 17 1130 24 58 41 78 93 113
l46 31 356 1 c196 1 361 -1 367 -5 14 -9 14 -570 0 -596 -9 -17 -22 -19 -103
-19 -118 -1 -162 -11 -201 -49 -55 -53 -57 -73 -56 -654 1 -438 4 -535 16
-569 18 -51 38 -74 86 -99 36 -18 71 -19 808 -19 691 0 774 2 803 16 45 23 66
44 88 86 18 35 19 65 19 468 0 378 -2 435 -16 463 -23 45 -44 66 -86 88 -35
18 -65 19 -452 19 l-414 0 -48 48 c-27 26 -66 68 -87 94 -67 82 -97 98 -190
106 l-82 7 -3 787 -2 786 26 31 26 31 841 -2 842 -3 5 -287 c3 -157 9 -290 13
-295 5 -4 138 -10 295 -13 l287 -5 3 -1032 2 -1031 -31 -31 -30 -31 -357 -2
-357 -3 -3 -26 c-2 -19 3 -28 20 -35 26 -11 639 -11 704 0 29 5 52 19 80 47
l39 40 5 745 c4 647 7 746 20 754 8 6 125 10 266 10 290 0 328 -7 369 -68 l25
-37 0 -993 c0 -990 0 -994 -21 -1023 -40 -57 -67 -64 -264 -69 l-180 -5 -3
-27 c-3 -23 1 -28 20 -28 13 -1 105 0 206 0 203 1 225 7 274 73 49 65 49 58
46 1102 l-3 980 -22 45 c-15 29 -40 57 -71 78 l-47 32 -292 0 c-252 0 -294 2
-307 16 -14 13 -16 55 -16 301 l0 286 -309 309 -309 308 -868 -1 c-719 0 -874
-3 -901 -15z m2027 -349 c172 -172 212 -217 200 -225 -20 -13 -396 -13 -421 0
-18 10 -19 23 -19 225 0 161 3 215 12 215 7 0 109 -97 228 -215z m-1909 -1441
c17 -8 45 -32 62 -52 110 -126 156 -168 201 -180 33 -8 161 -12 442 -12 l396
0 29 -29 29 -29 2 -299 c3 -252 2 -360 -2 -541 0 -13 -13 -37 -29 -53 l-29
-29 -770 0 -770 0 -31 26 -31 26 0 563 0 564 37 30 38 31 198 0 c161 0 204 -3
228 -16z m1527 -2156 l-3 -223 -65 -3 c-68 -3 -90 -13 -90 -42 0 -33 39 -39
285 -42 227 -3 242 -5 280 -26 22 -12 49 -30 61 -40 57 -47 113 -159 91 -181
-16 -16 -2098 -16 -2114 0 -22 22 34 134 91 181 12 10 39 28 61 40 40 23 43
23 561 28 421 4 524 8 537 19 21 17 21 25 1 45 -13 13 -46 16 -210 16 l-194 0
0 116 c0 121 -8 154 -40 154 -30 0 -35 -17 -40 -145 l-5 -120 -100 0 -100 0
-3 223 -2 222 500 0 500 0 -2 -222z"/>
<path d="M3545 5031 c-67 -17 -122 -74 -143 -147 -17 -59 -15 -98 7 -125 19
-23 19 -24 40 -5 16 14 21 31 21 68 0 29 7 59 17 74 22 34 86 74 117 74 42 0
93 -31 126 -77 17 -23 38 -43 46 -43 7 0 28 19 45 43 58 81 128 97 198 47 47
-35 61 -62 61 -124 0 -57 25 -83 58 -60 18 12 22 25 22 67 -1 68 -40 141 -98
181 -38 27 -51 30 -116 31 -68 0 -78 -3 -121 -33 l-46 -32 -44 30 c-47 33
-132 46 -190 31z"/>
<path d="M3582 4823 c-10 -16 -22 -39 -25 -53 -4 -14 -16 -40 -27 -57 l-20
-33 -189 0 c-207 0 -244 -7 -239 -43 l3 -22 243 -3 243 -2 15 35 c8 19 18 35
22 35 9 0 34 -49 57 -112 25 -71 51 -67 104 18 l42 67 23 -22 c22 -20 30 -21
328 -21 247 0 308 3 317 14 15 18 5 43 -22 50 -12 3 -143 6 -292 6 l-270 0
-20 26 c-63 80 -86 83 -122 14 -13 -25 -28 -46 -33 -48 -11 -4 -35 42 -45 85
-3 18 -11 35 -16 38 -5 4 -9 14 -9 25 0 16 -18 30 -40 30 -5 0 -17 -12 -28
-27z"/>
<path d="M3525 4531 c-9 -28 4 -51 59 -110 71 -74 160 -141 188 -141 32 0 59
20 154 112 95 93 113 120 94 143 -7 8 -19 15 -26 15 -8 0 -56 -42 -108 -94
-79 -80 -98 -94 -117 -89 -13 4 -64 46 -113 95 -89 88 -120 104 -131 69z"/>
<path d="M3574 6951 c-17 -10 -40 -31 -52 -46 -21 -26 -22 -38 -22 -229 0
-221 4 -236 66 -277 26 -17 50 -19 231 -19 l202 0 34 30 c38 33 62 81 53 105
-3 9 -18 15 -35 15 -24 0 -32 -5 -37 -24 -12 -49 -39 -56 -224 -56 -168 0
-171 0 -195 25 -25 24 -25 27 -25 195 0 140 3 175 16 195 l16 25 188 0 c227 0
217 6 222 -127 3 -101 12 -119 52 -109 26 6 26 8 26 100 0 98 -13 149 -47 177
-40 34 -73 39 -256 39 -161 0 -186 -2 -213 -19z"/>
<path d="M4304 6832 c-9 -14 -9 -22 1 -35 11 -15 40 -17 288 -17 251 0 277 2
286 17 6 11 6 24 0 35 -9 17 -32 18 -287 18 -256 0 -278 -1 -288 -18z"/>
<path d="M4306 6418 c-14 -20 -14 -24 1 -40 15 -17 49 -18 572 -18 488 0 559
2 579 16 26 18 27 27 6 48 -14 14 -80 16 -579 16 l-564 0 -15 -22z"/>
<path d="M3507 6013 c-13 -12 -7 -51 9 -57 9 -3 446 -6 973 -6 1028 0 1008 -1
982 48 l-12 22 -973 0 c-535 0 -976 -3 -979 -7z"/>
<path d="M2587 5958 c-30 -21 -55 -50 -70 -78 l-22 -45 -3 -980 c-2 -744 0
-991 9 -1025 15 -56 50 -103 95 -130 35 -20 37 -20 1562 -18 l1527 3 0 25 0
25 -1505 5 c-1404 5 -1507 6 -1537 22 -17 10 -41 31 -52 47 -21 29 -21 33 -21
1023 l0 993 25 37 c40 60 86 69 325 67 124 -1 206 3 212 9 5 5 7 19 3 31 -6
21 -11 21 -254 21 l-247 0 -47 -32z"/>
<path d="M3679 5598 c-14 -5 -19 -15 -17 -30 l3 -23 896 -3 c949 -2 930 -3
913 42 -5 14 -87 16 -891 18 -486 2 -893 0 -904 -4z"/>
<path d="M4836 5174 c-12 -12 -13 -20 -6 -35 10 -18 25 -19 320 -19 307 0 309
0 321 22 24 44 0 48 -322 48 -257 0 -300 -2 -313 -16z"/>
<path d="M4898 4769 c-23 -13 -23 -46 0 -58 10 -6 131 -9 284 -9 249 0 268 1
284 19 16 18 16 20 0 38 -16 18 -35 19 -284 19 -158 1 -274 -3 -284 -9z"/>
<path d="M1614 1927 c-2 -7 -3 -62 -2 -123 l3 -109 104 -3 c65 -2 108 1 116 8
8 7 15 28 17 48 l3 37 2635 0 2635 0 3 -37 c2 -20 9 -41 17 -48 8 -7 51 -10
116 -8 l104 3 0 120 0 120 -104 3 c-114 3 -131 -3 -131 -48 0 -16 -3 -35 -6
-44 -6 -15 -247 -16 -2634 -16 -2387 0 -2628 1 -2634 16 -3 9 -6 28 -6 43 0
15 -5 32 -12 39 -18 18 -217 17 -224 -1z m187 -44 c6 -6 9 -41 7 -79 l-3 -69
-74 -3 c-87 -3 -91 0 -91 78 0 62 6 76 34 81 35 7 117 2 127 -8z m5531 -6 c10
-16 10 -118 -1 -135 -5 -9 -29 -12 -82 -10 l-74 3 -3 73 c-3 67 -1 73 19 80
31 12 131 4 141 -11z"/>
<path d="M2810 1471 l-25 -7 -3 -177 -2 -177 25 -6 c42 -11 117 1 170 27 63
30 94 86 94 169 0 92 -42 146 -131 168 -51 13 -89 14 -128 3z m176 -72 c32
-31 34 -36 34 -103 -1 -58 -5 -76 -23 -97 -48 -57 -155 -81 -177 -40 -5 11
-10 74 -10 140 0 140 3 145 89 137 44 -4 60 -11 87 -37z"/>
<path d="M3863 1470 c-12 -5 -24 -17 -27 -27 -3 -10 -4 -87 -3 -171 2 -171 2
-172 74 -172 61 0 119 26 143 65 28 45 25 68 -11 104 l-31 31 21 34 c40 65 20
116 -53 135 -52 13 -82 13 -113 1z m110 -39 c28 -11 42 -41 32 -70 -8 -25 -91
-59 -106 -44 -17 17 -23 91 -9 108 14 17 47 19 83 6z m30 -182 c27 -37 13 -76
-36 -102 -42 -22 -72 -16 -81 16 -8 31 -7 102 1 111 4 4 27 6 52 4 34 -2 48
-9 64 -29z"/>
<path d="M4828 1466 c-68 -30 -78 -100 -22 -152 19 -19 43 -34 52 -34 23 0 82
-54 82 -75 0 -9 -11 -27 -25 -40 -26 -27 -80 -34 -117 -14 -27 14 -42 -1 -25
-25 9 -12 31 -20 65 -24 88 -8 152 49 137 124 -7 38 -29 59 -98 94 -47 23 -52
29 -55 62 -4 46 21 62 85 55 48 -5 66 9 38 30 -23 16 -80 16 -117 -1z"/>
<path d="M5340 1460 c-17 -17 -19 -33 -19 -162 0 -156 4 -188 25 -188 10 0 14
16 14 61 0 95 24 118 88 85 21 -11 31 -28 46 -80 14 -51 23 -66 37 -66 17 0
18 5 13 43 -3 23 -15 59 -25 80 -24 48 -24 60 1 82 24 22 27 90 5 122 -28 40
-152 56 -185 23z m124 -30 c15 -5 28 -20 32 -36 14 -57 -51 -107 -110 -84 -23
8 -26 15 -26 58 0 26 5 53 12 60 14 14 57 16 92 2z"/>
<path d="M5704 1467 c-68 -27 -104 -88 -104 -179 1 -151 138 -238 248 -158 96
69 111 214 33 303 -36 42 -115 57 -177 34z m142 -63 c27 -34 39 -97 30 -157
-8 -49 -29 -78 -75 -102 -32 -16 -36 -16 -72 0 -67 31 -98 108 -78 192 19 79
53 105 128 99 33 -3 49 -11 67 -32z"/>
<path d="M2517 1464 c-6 -7 -11 -353 -4 -354 35 -7 145 -10 163 -6 46 12 20
31 -50 37 -74 6 -86 15 -86 67 0 60 13 72 80 72 52 0 82 12 67 26 -3 3 -32 6
-65 7 -33 1 -64 6 -68 10 -4 4 -8 29 -8 55 l-1 47 70 5 c53 4 70 9 70 20 0 12
-17 16 -80 18 -45 1 -84 0 -88 -4z"/>
<path d="M3147 1464 c-4 -4 -7 -86 -7 -181 0 -161 1 -174 18 -171 15 3 17 20
17 177 0 164 -5 197 -28 175z"/>
<path d="M3235 1460 c-12 -20 7 -30 55 -30 l49 0 3 -157 c3 -140 5 -158 20
-161 16 -3 18 11 20 155 l3 158 55 5 c30 3 54 8 53 13 -2 4 -3 12 -3 17 0 6
-48 10 -124 10 -73 0 -127 -4 -131 -10z"/>
<path d="M3589 1443 c-20 -51 -50 -138 -58 -168 -5 -16 -13 -41 -18 -55 -13
-32 -33 -94 -33 -103 0 -4 8 -7 19 -7 13 0 24 15 38 53 l20 52 67 3 c64 3 66
2 77 -25 23 -59 35 -78 53 -81 24 -5 19 21 -29 153 -20 55 -40 114 -44 130
-19 75 -71 102 -92 48z m71 -120 c7 -23 10 -49 7 -57 -7 -17 -53 -21 -76 -7
-18 12 -6 82 22 117 23 30 22 32 47 -53z"/>
<path d="M4135 1458 c-3 -8 -4 -88 -3 -178 l3 -165 62 -9 c72 -10 133 -1 133
19 0 12 -15 15 -64 15 -40 0 -68 5 -74 13 -7 8 -13 73 -14 163 -3 133 -5 149
-21 152 -9 2 -19 -3 -22 -10z"/>
<path d="M4407 1464 c-6 -7 -11 -353 -4 -355 27 -7 166 -7 176 0 24 16 1 31
-47 31 -74 0 -91 8 -97 44 -3 17 -2 45 3 61 8 29 11 30 72 35 38 3 65 10 68
18 2 6 0 12 -5 12 -4 1 -34 2 -65 3 -31 1 -59 5 -63 9 -10 10 -15 81 -7 95 4
7 36 13 72 15 50 2 65 7 65 18 0 12 -17 16 -80 18 -45 1 -84 0 -88 -4z"/>
<path d="M5014 1459 c-10 -17 16 -29 64 -29 l42 0 0 -160 c0 -153 1 -160 20
-160 18 0 20 8 22 158 l3 157 50 5 c36 4 50 9 50 20 0 12 -21 15 -122 18 -83
2 -124 -1 -129 -9z"/>
<path d="M5996 1455 c-8 -21 -8 -308 0 -329 3 -9 15 -16 25 -16 17 0 19 8 19
59 0 33 4 71 10 86 14 37 34 23 95 -67 33 -48 58 -74 73 -76 12 -2 22 0 22 4
0 4 -24 44 -54 88 -83 126 -82 111 -20 182 56 64 65 84 37 84 -17 0 -56 -39
-106 -107 -39 -55 -55 -44 -59 40 -2 48 -7 63 -19 65 -9 2 -19 -4 -23 -13z"/>
<path d="M6296 1454 c-3 -9 -6 -87 -6 -175 0 -138 2 -160 16 -166 9 -3 53 -6
97 -7 70 -1 82 1 85 17 3 15 -5 17 -61 17 -79 0 -89 10 -85 82 l3 53 63 5 c78
6 86 24 12 28 -30 2 -60 8 -67 14 -15 12 -17 94 -3 103 6 3 37 7 69 8 62 2 78
8 66 26 -3 7 -43 11 -95 11 -71 0 -89 -3 -94 -16z"/>
</g>
</svg>
