<?xml version="1.0" standalone="no"?>
<!DOCTYPE svg PUBLIC "-//W3C//DTD SVG 20010904//EN"
 "http://www.w3.org/TR/2001/REC-SVG-20010904/DTD/svg10.dtd">
<svg version="1.0" xmlns="http://www.w3.org/2000/svg"
 width="300.000000pt" height="256.000000pt" viewBox="0 0 300.000000 256.000000"
 preserveAspectRatio="xMidYMid meet">
<metadata>
Created by potrace 1.10, written by Peter Selinger 2001-2011
</metadata>
<g transform="translate(0.000000,256.000000) scale(0.100000,-0.100000)"
fill="#000000" stroke="none">
<path d="M81 2436 c-8 -10 -10 -224 -9 -787 l3 -774 989 -3 c684 -1 993 1
1000 8 7 7 13 139 16 373 l5 361 31 6 c89 19 173 87 221 180 27 54 28 60 33
257 5 220 8 228 73 277 58 43 162 15 198 -54 18 -33 19 -68 19 -606 l0 -571
-38 -25 c-64 -43 -69 -63 -101 -473 -19 -239 -27 -384 -22 -407 39 -171 253
-226 368 -95 59 67 59 74 26 500 -33 426 -34 429 -106 476 l-37 24 0 581 0
581 -24 52 c-67 144 -262 175 -377 60 -59 -59 -63 -75 -69 -292 -5 -179 -8
-204 -27 -240 -25 -47 -75 -96 -120 -119 -67 -33 -63 -53 -63 342 0 265 -3
361 -12 370 -19 19 -1961 17 -1977 -2z m1904 -781 l0 -700 -912 -3 -913 -2 0
705 0 705 913 -2 912 -3 0 -700z"/>
<path d="M704 2152 c-6 -4 -39 -61 -74 -127 -74 -140 -172 -301 -245 -400 -82
-111 -81 -110 -45 -152 113 -128 306 -245 490 -294 115 -32 356 -34 470 -5
113 29 234 83 332 148 98 66 208 166 208 189 0 8 -32 60 -71 115 -92 128 -158
235 -244 398 -79 148 -92 158 -148 109 -50 -44 -95 -69 -167 -93 -54 -18 -80
-21 -156 -18 -104 6 -172 31 -261 98 -52 40 -69 46 -89 32z"/>
<path d="M828 713 l-3 -56 -60 -17 c-33 -9 -70 -23 -83 -31 -54 -33 -89 -140
-57 -172 15 -15 55 -17 405 -17 340 0 391 2 404 16 22 21 20 59 -5 110 -24 52
-68 81 -143 96 l-56 12 0 58 0 58 -200 0 -199 0 -3 -57z"/>
</g>
</svg>
