<?xml version="1.0" standalone="no"?>
<!DOCTYPE svg PUBLIC "-//W3C//DTD SVG 20010904//EN"
 "http://www.w3.org/TR/2001/REC-SVG-20010904/DTD/svg10.dtd">
<svg version="1.0" xmlns="http://www.w3.org/2000/svg"
 width="300.000000pt" height="300.000000pt" viewBox="0 0 300.000000 300.000000"
 preserveAspectRatio="xMidYMid meet">
<metadata>
Created by potrace 1.10, written by Peter Selinger 2001-2011
</metadata>
<g transform="translate(0.000000,300.000000) scale(0.100000,-0.100000)"
fill="#000000" stroke="none">
<path d="M1131 2704 c-28 -20 -25 -36 27 -142 72 -149 212 -263 339 -278 50
-6 52 -6 100 38 72 68 156 123 241 160 73 31 84 33 197 33 100 0 130 -4 179
-22 226 -85 410 -301 476 -558 27 -102 36 -299 21 -422 -36 -291 -182 -556
-391 -710 -217 -159 -432 -230 -665 -220 -183 8 -347 61 -499 162 l-56 37 -63
-11 c-98 -17 -139 -14 -239 20 -134 45 -217 34 -292 -37 -56 -54 -66 -92 -66
-276 0 -138 3 -169 16 -182 20 -21 37 -20 57 2 14 16 17 44 17 178 0 142 2
163 20 192 37 61 127 79 209 42 67 -31 165 -44 248 -33 68 9 73 8 119 -20 149
-88 304 -139 476 -158 246 -26 495 46 739 212 230 158 379 391 445 699 14 65
18 127 18 265 -1 162 -4 190 -28 280 -63 238 -199 431 -389 549 -113 70 -201
99 -323 104 -180 8 -330 -51 -501 -195 -50 -43 -53 -44 -90 -34 -58 16 -130
68 -173 125 -39 52 -100 165 -100 184 0 9 -30 32 -42 32 -2 0 -14 -7 -27 -16z"/>
<path d="M777 2634 c-28 -28 26 -171 113 -302 139 -211 322 -353 555 -431 72
-24 89 -34 87 -48 -21 -123 -7 -232 38 -311 l19 -32 -51 -26 c-100 -51 -176
-143 -193 -235 l-6 -34 -67 0 c-92 0 -154 -20 -207 -68 l-46 -39 -57 25 c-104
47 -221 60 -334 36 -205 -42 -391 -231 -427 -433 -6 -33 -11 -141 -11 -241 0
-164 2 -184 18 -198 23 -21 36 -21 56 -1 13 13 16 46 16 203 0 204 10 267 57
353 41 75 127 154 213 196 73 36 78 37 191 37 l116 0 84 -42 c46 -24 91 -43
100 -43 9 0 29 18 43 41 19 29 44 48 83 66 51 23 62 25 143 19 106 -9 120 0
120 72 0 96 74 181 197 227 26 10 54 22 61 28 20 15 14 56 -14 92 -60 79 -81
205 -49 295 30 85 24 92 -105 130 -297 88 -533 301 -647 584 -29 72 -35 81
-60 84 -16 2 -32 0 -36 -4z"/>
<path d="M2167 1955 c-20 -42 -37 -78 -37 -81 0 -3 14 -3 31 1 30 7 31 6 25
-24 -22 -115 -25 -115 33 -7 l42 79 -32 -7 -31 -6 4 60 c2 33 4 60 3 60 0 0
-17 -34 -38 -75z"/>
<path d="M1906 1850 c14 -41 28 -82 30 -90 4 -10 10 -6 23 14 l19 28 36 -47
c20 -27 36 -46 36 -44 0 2 -13 44 -28 94 l-28 89 -13 -32 c-12 -29 -31 -44
-31 -24 0 4 -16 25 -34 47 l-35 40 25 -75z"/>
<path d="M2435 1854 c-38 -13 -77 -27 -85 -30 -11 -4 -7 -10 14 -21 l30 -16
-23 -18 c-12 -10 -35 -27 -49 -38 -24 -18 -17 -17 66 7 92 26 93 26 65 40 -15
8 -30 16 -32 18 -3 3 36 38 78 71 21 16 18 16 -64 -13z"/>
<path d="M1845 1639 l7 -32 -56 5 c-31 3 -56 3 -56 2 0 -2 30 -17 68 -35 37
-18 71 -35 76 -37 5 -3 6 9 3 27 l-7 33 43 -7 c23 -3 51 -9 62 -11 21 -5 -40
33 -108 68 l-39 19 7 -32z"/>
<path d="M2463 1604 c5 -26 4 -26 -49 -22 -30 3 -54 3 -54 2 0 -2 34 -21 76
-43 l76 -39 -6 34 c-7 33 -6 34 24 29 96 -16 97 -15 20 25 -41 21 -79 39 -84
40 -4 0 -6 -12 -3 -26z"/>
<path d="M1961 1435 c-40 -13 -76 -26 -79 -29 -2 -3 7 -11 22 -17 14 -7 26
-15 26 -18 0 -3 -18 -19 -40 -35 -22 -16 -38 -31 -37 -33 2 -1 38 9 81 23 l78
26 -27 18 -27 18 47 36 c56 42 54 42 -44 11z"/>
<path d="M2327 1378 c14 -46 27 -85 29 -87 2 -2 9 8 15 23 7 14 15 26 18 25 3
0 21 -18 39 -41 17 -22 32 -36 32 -31 0 8 -26 89 -46 143 -4 10 -10 7 -23 -14
l-19 -28 -32 46 c-19 25 -35 46 -36 46 -1 0 9 -37 23 -82z"/>
<path d="M2132 1329 l-44 -80 36 7 c28 5 35 3 32 -7 -2 -8 -7 -36 -10 -64 l-5
-50 39 75 c21 41 39 78 40 83 0 4 -14 7 -31 7 -24 0 -29 4 -26 18 8 27 18 92
15 92 -2 0 -22 -36 -46 -81z"/>
</g>
</svg>
