<?xml version="1.0" standalone="no"?>
<!DOCTYPE svg PUBLIC "-//W3C//DTD SVG 20010904//EN"
 "http://www.w3.org/TR/2001/REC-SVG-20010904/DTD/svg10.dtd">
<svg version="1.0" xmlns="http://www.w3.org/2000/svg"
 width="300.000000pt" height="300.000000pt" viewBox="0 0 300.000000 300.000000"
 preserveAspectRatio="xMidYMid meet">
<metadata>
Created by potrace 1.10, written by Peter Selinger 2001-2011
</metadata>
<g transform="translate(0.000000,300.000000) scale(0.050000,-0.050000)"
fill="#000000" stroke="none">
<path d="M2520 5930 c-912 -172 -1643 -682 -2094 -1460 -416 -717 -503 -1617
-236 -2423 683 -2056 3296 -2698 4867 -1197 1607 1535 1004 4260 -1098 4958
-425 141 -1055 194 -1439 122z m942 -308 c2128 -384 2953 -2990 1430 -4514
-1402 -1401 -3806 -828 -4420 1055 -622 1909 1024 3814 2990 3459z"/>
<path d="M2903 5434 c-41 -44 -43 -65 -43 -379 l0 -332 53 -42 c70 -55 138
-52 198 8 76 76 76 666 0 742 -63 63 -150 64 -208 3z"/>
<path d="M1960 4064 c-66 -53 -60 -138 16 -246 197 -279 963 -1270 1007 -1304
94 -70 78 -82 862 630 193 175 222 249 135 336 -92 92 -141 66 -537 -290
l-367 -330 -463 615 c-511 676 -527 691 -653 589z"/>
<path d="M564 3099 c-60 -55 -57 -147 5 -210 76 -76 666 -76 742 0 60 60 63
128 8 198 l-42 53 -335 0 c-309 0 -338 -3 -378 -41z"/>
<path d="M4700 3100 c-60 -60 -53 -167 14 -220 70 -55 680 -55 735 0 54 54 59
145 11 205 l-43 55 -338 0 c-312 0 -342 -3 -379 -40z"/>
<path d="M2900 1300 c-37 -37 -40 -67 -40 -379 l0 -338 55 -43 c60 -48 151
-43 205 11 55 55 55 665 0 735 -53 67 -160 74 -220 14z"/>
</g>
</svg>
