<?xml version="1.0" encoding="UTF-8" standalone="no"?>
<!-- Created with Inkscape (http://www.inkscape.org/) -->

<svg
   xmlns:dc="http://purl.org/dc/elements/1.1/"
   xmlns:cc="http://creativecommons.org/ns#"
   xmlns:rdf="http://www.w3.org/1999/02/22-rdf-syntax-ns#"
   xmlns:svg="http://www.w3.org/2000/svg"
   xmlns="http://www.w3.org/2000/svg"
   xmlns:sodipodi="http://sodipodi.sourceforge.net/DTD/sodipodi-0.dtd"
   xmlns:inkscape="http://www.inkscape.org/namespaces/inkscape"
   width="210mm"
   height="297mm"
   viewBox="0 0 210 297"
   version="1.1"
   id="svg4994"
   inkscape:version="0.92.5 (2060ec1f9f, 2020-04-08)"
   sodipodi:docname="icon hospit vert.svg">
  <defs
     id="defs4988" />
  <sodipodi:namedview
     id="base"
     pagecolor="#ffffff"
     bordercolor="#666666"
     borderopacity="1.0"
     inkscape:pageopacity="0.0"
     inkscape:pageshadow="2"
     inkscape:zoom="0.35"
     inkscape:cx="-642.85714"
     inkscape:cy="560"
     inkscape:document-units="mm"
     inkscape:current-layer="layer1"
     showgrid="false"
     inkscape:window-width="1920"
     inkscape:window-height="1009"
     inkscape:window-x="-8"
     inkscape:window-y="-8"
     inkscape:window-maximized="1" />
  <metadata
     id="metadata4991">
    <rdf:RDF>
      <cc:Work
         rdf:about="">
        <dc:format>image/svg+xml</dc:format>
        <dc:type
           rdf:resource="http://purl.org/dc/dcmitype/StillImage" />
        <dc:title />
      </cc:Work>
    </rdf:RDF>
  </metadata>
  <g
     inkscape:label="Calque 1"
     inkscape:groupmode="layer"
     id="layer1">
    <g
       id="g23026">
      <g
         style="opacity:1;fill:#00d600;fill-opacity:0.81960784;stroke:none;stroke-width:1;stroke-miterlimit:4;stroke-dasharray:none;stroke-opacity:1"
         transform="matrix(1.7780048,0,0,1.7780048,-117.37636,30.93037)"
         id="g1721">
        <path
           style="opacity:1;fill:#00d600;fill-opacity:0.81960784;fill-rule:nonzero;stroke:none;stroke-width:3.77952766;stroke-miterlimit:4;stroke-dasharray:none;stroke-opacity:1"
           d="M 466.50246,416.60291 C 428.53557,412.11186 393.9216,394.51755 367.16058,366.10737 299.2832,294.04701 309.57133,181.30146 389.39294,122.46748 421.24698,98.988876 463.92921,87.634705 503.07146,92.227139 c 35.74745,4.194132 67.5168,18.938941 93.11188,43.215151 34.93114,33.13117 51.962,72.24201 51.88245,119.14636 -0.0452,26.60433 -4.21021,45.39991 -15.20302,68.60597 -9.75801,20.59938 -19.70982,34.52681 -34.93141,48.88607 -15.47098,14.59455 -24.52805,20.75439 -44.05267,29.96084 -17.95961,8.46848 -30.13011,11.92733 -51.12411,14.52941 -16.0362,1.98759 -19.69228,1.99081 -36.25212,0.0319 z"
           id="path1718"
           inkscape:connector-curvature="0"
           transform="scale(0.26458333)" />
      </g>
      <g
         style="fill:#000000;stroke:none"
         transform="matrix(0.01540632,0,0,-0.01577846,74.019447,295.33321)"
         id="g4841">
        <g
           style="fill:#000000;stroke:none"
           transform="matrix(1.2492179,0,0,1.2197552,3767.1689,-675.14523)"
           id="g4872">
          <g
             transform="matrix(1.1806265,0,0,1.1806265,-2035.4153,7061.6825)"
             id="g4892">
            <path
               transform="matrix(3.3927224,0,0,3.3927223,-34539.235,-11803.323)"
               id="path4776"
               d="m 10810.969,4180.6344 c -27.165,-7.4085 -119.03,-10.3719 -158.542,-4.939 -33.586,4.939 -39.512,-1.4817 -43.958,-47.4145 -1.975,-19.756 -6.42,-50.8718 -10.371,-69.1461 l -7.409,-32.5975 -40.5,2.9634 c -31.609,1.9756 -41.981,4.4452 -47.908,11.8537 -4.445,5.9268 -20.744,12.3475 -40.994,16.7926 -39.018,7.9024 -117.054,45.4389 -150.146,72.1095 -63.713,50.3779 -62.231,49.884 -69.146,40.4999 -25.683,-35.5609 21.732,-128.9081 81.988,-161.9995 52.353,-28.1523 117.548,-36.0547 147.676,-17.7804 l 15.805,9.878 -2.964,-13.8292 c -1.481,-7.4085 -7.408,-16.2987 -12.347,-20.25 -9.878,-6.9146 -13.335,-18.2743 -3.457,-12.3475 3.457,1.9756 3.951,1.4817 1.975,-1.9756 -1.975,-3.4573 -6.421,-5.9268 -9.878,-5.9268 -10.372,0 -27.658,-22.2255 -27.658,-35.5608 0,-8.3963 -5.433,-17.7805 -15.311,-26.1768 -35.067,-29.1401 -83.963,-45.9327 -161.012,-54.3291 -27.164,-2.9634 -31.609,-1.9756 -40.994,7.4086 -14.817,14.817 -40.499,24.695 -62.725,24.695 -27.165,0 -51.366,-14.817 -64.207,-39.5121 -27.165,-51.3656 -1.976,-117.0544 53.835,-140.2678 24.695,-10.3719 42.476,-9.878 65.689,1.9756 18.274,9.3841 20.744,9.3841 38.524,2.4695 9.878,-3.9512 25.189,-7.4085 33.092,-7.4085 12.841,0 14.323,-1.4817 15.804,-18.2743 l 1.482,-18.7682 22.226,1.4817 c 44.945,2.4695 104.213,20.7438 134.834,41.9815 7.903,4.939 15.311,8.3963 16.793,6.4207 3.951,-3.4573 -7.902,-87.9143 -12.841,-92.8533 -1.976,-2.4695 -18.769,-8.8902 -37.537,-15.3109 -21.731,-7.4085 -34.573,-14.3232 -34.573,-19.2622 0,-3.9512 -3.951,-10.8658 -8.396,-15.8048 -11.36,-10.8658 -10.866,-14.3231 0.988,-25.1889 7.408,-6.9146 15.804,-8.3963 42.969,-6.4207 18.274,0.9878 40.994,5.4329 50.378,10.3719 9.384,4.4451 17.78,7.9024 18.768,6.9146 3.951,-4.4451 -15.311,-54.3291 -34.573,-88.4082 -12.347,-20.7439 -23.213,-41.4877 -24.695,-45.4389 -1.482,-3.9512 -12.841,-8.8902 -26.671,-10.8658 -45.932,-6.4207 -65.688,-26.1768 -65.688,-65.1949 0,-18.2744 10.865,-35.5609 23.213,-35.5609 2.963,0 3.951,-20.2499 2.469,-54.3291 -2.469,-59.762 2.964,-83.9631 19.756,-83.9631 7.903,0 9.385,-2.9634 7.903,-15.8048 l -1.482,-15.3109 -33.091,-0.4939 c -29.14,-0.4939 -34.573,-1.9756 -47.415,-14.3232 -8.396,-7.9024 -15.804,-20.2499 -17.286,-27.1645 -5.433,-27.6584 23.213,-69.1461 67.664,-99.274 l 19.756,-12.8415 -68.158,-2.4695 c -64.207,-2.4695 -68.652,-2.9634 -77.542,-14.3231 -15.805,-19.2621 -12.348,-40.9938 8.89,-58.2803 14.817,-11.8536 27.164,-16.2987 59.268,-21.2377 35.561,-5.4329 42.475,-4.939 52.353,1.4817 9.384,5.9268 10.866,10.8658 9.384,25.1889 l -1.975,17.7805 h 59.762 59.762 v -17.7805 c 0,-9.3841 1.975,-21.7316 4.939,-26.6706 6.914,-12.8414 65.195,-31.6097 85.445,-27.6585 8.89,1.9756 29.14,2.9634 45.932,2.9634 25.683,-0.4939 32.598,1.4817 44.945,11.8537 8.397,6.9146 18.769,12.8414 22.72,12.8414 4.445,0 8.89,1.9756 10.372,3.9512 1.481,2.4695 18.768,3.4573 38.524,2.9634 33.091,-1.4817 47.908,1.9756 78.036,17.2865 3.952,2.4695 7.903,11.8536 8.891,21.7317 0.987,13.8292 -1.482,20.7438 -10.866,30.6218 l -12.348,12.3475 21.732,10.3719 c 43.463,20.7439 88.408,86.9266 103.719,154.0971 18.768,83.4692 12.347,192.6213 -14.817,238.0601 -13.335,23.7073 -25.189,29.6341 -20.744,11.3597 7.903,-31.1157 13.829,-103.7191 10.866,-132.3654 -4.445,-47.9083 -20.25,-110.1398 -35.067,-138.7861 -11.854,-24.2011 -53.341,-73.5912 -61.244,-73.5912 -2.469,0 -0.988,10.3719 2.964,23.2134 8.89,30.1279 8.89,96.8045 -0.494,128.4142 -8.89,30.1279 -31.116,55.8107 -47.909,55.8107 -14.323,0 -29.634,-15.3109 -40.006,-39.512 -5.432,-12.3475 -7.902,-14.3231 -7.902,-7.4085 -0.988,17.2865 -39.018,154.097 -52.847,188.1762 l -12.842,32.1035 10.866,25.1889 c 27.659,64.2071 10.866,175.8287 -37.042,244.9748 -14.818,21.7316 -16.299,26.1768 -12.348,43.4633 7.902,35.5608 13.829,157.0604 10.372,204.4749 -2.963,37.0425 -1.976,48.4023 3.457,55.3169 9.878,11.8536 20.25,43.4632 20.744,63.2193 v 16.7926 l 18.768,-17.7804 c 25.189,-24.6951 45.439,-33.5853 75.073,-33.5853 46.427,0 83.469,28.1524 110.14,83.4692 11.36,23.7073 14.817,39.0182 15.311,61.7376 0.494,28.6463 0,30.128 -11.854,31.1158 -6.914,0.4939 -23.213,-2.4695 -37.042,-6.4207 z m 40.006,-27.6585 c -11.854,-89.8899 -84.951,-152.1214 -148.17,-125.4508 -21.238,8.8903 -50.872,35.067 -61.244,54.3291 l -8.396,15.3109 -2.964,-39.512 c -3.457,-40.4999 -11.853,-66.6766 -21.238,-66.6766 -3.951,0 -5.433,-32.5975 -5.433,-104.707 0,-57.7864 -1.975,-120.5118 -3.951,-138.7861 l -4.445,-33.5852 -20.25,18.7682 c -13.829,11.8536 -21.731,24.2011 -24.201,36.0547 -10.866,51.3657 -19.262,65.6888 -26.177,43.9572 -1.975,-5.4329 -15.804,-22.7194 -31.115,-38.5242 -49.884,-50.8718 -155.085,-90.3839 -219.786,-82.4815 -37.537,4.939 -40.006,7.4085 -30.128,30.128 9.384,22.7194 7.408,57.2925 -4.445,81.4936 -4.939,8.8902 -8.397,17.2865 -8.397,18.2743 0,0.4939 14.324,1.4817 31.116,1.4817 33.585,0 96.805,13.8293 121.994,27.1646 8.396,4.4451 24.201,15.8048 35.067,25.6828 18.274,16.2987 20.25,17.2865 28.646,9.3841 12.841,-11.3597 28.152,-9.878 39.512,4.939 12.841,16.7927 13.335,33.5853 0.494,46.4267 -11.854,11.8536 -8.396,22.7194 7.902,26.6706 6.915,1.9756 10.866,5.433 9.384,7.9025 -1.481,2.4695 -6.42,2.9634 -10.865,1.4817 -4.446,-1.9756 -6.915,-0.9878 -5.433,1.4817 1.481,2.4695 5.433,14.3231 8.89,26.1767 l 5.433,21.2377 43.957,-1.9756 c 25.683,-0.9878 46.92,-4.4451 51.366,-8.3963 8.396,-7.4085 10.865,-0.4939 2.963,7.4085 -3.457,3.4573 -2.963,10.8658 2.469,22.7195 3.952,9.878 9.879,40.0059 12.842,66.6766 2.963,26.6706 7.902,51.3656 11.36,54.8229 4.445,4.4452 12.347,4.9391 35.067,0.4939 35.067,-6.4207 117.054,-2.4695 153.109,7.4086 39.512,10.8658 38.524,11.3597 35.067,-17.7805 z m -500.322,-62.2315 c 50.872,-27.6584 76.555,-37.5364 118.536,-45.4388 32.598,-6.4207 37.043,-16.7927 15.311,-34.0792 -22.225,-17.7804 -48.402,-22.7194 -83.469,-16.7926 -65.195,11.3597 -109.646,42.9694 -140.268,99.7679 -13.829,26.6707 -19.756,58.2803 -12.347,66.1827 1.975,1.4817 15.311,-7.9024 30.128,-20.7438 14.817,-13.3353 47.414,-35.0669 72.109,-48.8962 z m 131.872,-156.0726 c 0,-0.9878 1.482,-5.9268 3.457,-10.8658 1.976,-5.4329 1.482,-7.4085 -1.975,-5.4329 -6.915,4.4451 -21.238,-0.9878 -21.238,-7.9024 0,-2.9634 3.457,-9.3841 8.396,-14.3232 7.409,-8.3963 7.409,-8.8902 -2.469,-8.8902 -11.854,0 -25.683,12.3475 -25.683,22.7195 0,15.8048 10.372,26.6706 24.695,26.6706 8.396,0 14.817,-0.9878 14.817,-1.9756 z m -294.859,-89.8899 c 30.128,-15.311 47.908,-47.4145 47.908,-86.9266 0,-31.1157 -11.359,-52.3534 -32.103,-61.2437 -23.213,-9.3841 -40.006,-8.8902 -64.207,2.9634 -59.762,29.1402 -69.64,122.4874 -15.805,145.7008 21.238,9.3841 44.945,8.8902 64.207,-0.4939 z m 349.188,-48.4023 c 0,-13.8292 -26.671,-52.8474 -50.378,-74.579 -39.512,-35.5609 -116.067,-66.6766 -163.975,-66.6766 -15.805,0 -17.78,1.4817 -17.78,12.3475 0,8.3963 2.963,12.3475 8.396,12.3475 20.25,0 76.061,17.2865 112.609,34.5731 44.451,21.2377 79.518,49.8839 93.841,75.5668 8.891,16.7926 17.287,19.756 17.287,6.4207 z m -0.988,-42.9694 c -11.854,-7.9024 -13.335,-4.4451 -4.939,10.3719 7.902,13.3354 8.396,13.8293 9.878,4.4451 0.988,-5.9268 -0.988,-12.8414 -4.939,-14.817 z m 36.549,-32.5974 c 52.847,-53.8352 83.963,-131.3776 84.951,-208.92 0.494,-41.9816 -0.988,-49.884 -12.842,-74.5791 -22.719,-45.4388 -59.268,-55.8107 -94.829,-27.6584 -11.853,9.878 -14.817,16.2987 -16.298,38.5243 -1.482,14.817 0.987,44.9449 4.939,67.1705 6.914,41.9815 4.939,78.0363 -6.915,106.1886 -6.421,15.8048 -12.348,17.2866 -25.189,5.4329 -8.396,-7.4085 -8.89,-6.4207 -8.396,31.1158 0,39.512 7.408,71.6156 17.286,74.579 18.768,5.9268 57.293,-56.3047 67.171,-108.6582 3.457,-18.2743 7.902,-33.0913 9.878,-33.0913 4.939,0 4.939,2.4695 -1.482,37.5364 -6.915,37.0426 -30.622,82.4815 -53.341,101.2497 l -17.781,14.3231 h 15.311 c 10.866,0 20.25,-5.9268 37.537,-23.2133 z m -82.482,-56.7986 c 0,-45.9328 -2.963,-57.7864 -13.335,-58.2803 -4.939,0 1.482,95.3228 7.409,102.7314 2.469,2.9634 4.939,5.9268 5.432,5.9268 0,0 0.494,-22.7195 0.494,-50.3779 z m 22.226,-51.8596 c -14.323,-18.2743 -46.921,-40.0059 -68.652,-45.4389 -49.884,-13.3353 -61.738,-3.4573 -14.323,11.8537 37.042,12.3475 68.652,28.1523 77.542,39.0181 11.36,13.8292 16.299,8.3963 5.433,-5.4329 z m 20.25,-50.8718 c 0,-14.817 -3.458,-43.9571 -7.903,-64.2071 -8.89,-41.9815 -6.42,-67.6644 8.397,-86.4326 20.744,-26.1767 58.774,-34.573 88.408,-19.2621 8.396,3.9512 15.805,6.9146 16.793,5.9268 5.432,-5.9268 35.066,-100.2619 51.859,-167.4324 20.744,-82.4814 27.659,-150.6397 18.274,-183.2371 -3.951,-15.311 2.964,-19.2622 9.385,-4.9391 1.975,4.4452 3.951,37.5365 4.445,72.6035 0.987,66.1827 6.42,91.3716 24.201,105.6947 12.841,10.3719 28.152,0.4939 42.475,-27.1645 10.866,-21.7317 12.348,-30.128 12.348,-78.5302 -0.494,-44.4511 -2.47,-59.2681 -11.854,-82.9754 -17.78,-44.9449 -38.03,-68.1583 -66.676,-75.0729 -22.72,-5.9268 -25.683,-5.4329 -49.391,6.9146 -13.829,7.4085 -30.127,14.817 -35.56,16.2988 -10.372,2.4695 -10.866,6.4207 -13.83,110.6337 -3.951,134.341 -7.408,179.7799 -14.323,179.7799 -2.963,0 -3.951,-20.2499 -1.481,-60.2559 1.481,-33.5853 2.963,-99.2741 3.457,-146.1946 l 0.494,-85.4449 12.841,-5.4329 c 43.957,-17.7804 64.207,-29.634 69.146,-40.9937 8.891,-19.7561 7.409,-40.9938 -3.457,-46.9206 -15.805,-7.9024 -20.25,-5.9268 -20.25,9.3841 0,8.3963 -1.976,16.2987 -4.939,17.7804 -2.963,1.9757 -4.939,-6.4207 -4.939,-21.2377 0,-28.1523 -3.457,-30.6218 -37.536,-30.6218 h -21.732 v 26.6706 c 0,14.817 -1.976,28.6463 -4.939,30.128 -2.963,1.9756 -4.939,-7.4086 -4.939,-24.6951 0,-24.2011 -1.482,-28.1523 -11.854,-32.5974 -6.914,-3.4573 -19.756,-4.4451 -29.634,-2.4695 l -17.78,3.4573 2.963,28.1523 c 2.47,21.2377 1.976,26.6707 -2.469,22.7194 -2.964,-2.9634 -6.421,-13.3353 -7.409,-23.7072 -1.975,-22.2255 -4.445,-25.1889 -16.792,-18.2743 -34.573,18.2743 -0.988,81.4936 51.859,98.7801 l 18.768,6.4207 -2.963,121.4996 c -1.976,67.1705 -3.457,133.8471 -3.951,148.1703 -0.494,18.2743 -1.976,25.1889 -6.421,22.7194 -3.951,-2.4695 -4.445,-35.067 -2.469,-122.9813 1.975,-65.6888 1.975,-129.402 0.494,-141.7495 -2.964,-19.2621 -4.939,-22.7194 -19.263,-28.1524 -8.89,-2.9634 -24.201,-13.3353 -34.079,-23.2133 l -18.274,-17.7804 -26.177,20.2499 c -30.128,23.2133 -48.896,48.8962 -56.798,77.5424 -7.903,27.6585 -6.421,124.463 1.975,181.7555 8.89,57.7864 8.397,55.8108 2.964,49.3901 -5.927,-5.9268 -15.311,-51.8596 -15.311,-73.5912 0,-20.25 -8.891,-27.1646 -18.275,-14.3232 -5.926,7.4086 -6.914,20.7439 -4.939,60.2559 1.482,28.1524 3.458,51.8596 4.445,52.8474 0.988,0.9878 9.385,1.9756 18.769,1.9756 18.768,0 47.908,0.4939 72.603,0.9878 28.646,0.4939 43.957,32.5975 31.116,65.6888 -5.927,15.8048 -32.104,32.5975 -50.872,32.5975 h -13.335 l 29.634,56.7986 c 20.25,39.0181 29.634,62.2315 29.634,74.579 0,11.8536 3.951,22.7194 12.347,32.5974 15.311,18.2743 12.842,24.2012 -3.457,8.8902 -27.658,-26.6706 -107.67,-45.4388 -121.5,-28.1523 -7.902,9.3841 -4.939,11.3597 31.116,17.7804 39.018,7.4085 78.53,27.1646 95.323,47.9084 l 13.335,16.7926 3.952,-13.8292 c 1.975,-7.4085 3.951,-25.6828 3.951,-40.4999 z m -76.555,-183.2371 c 24.201,-6.4208 41.488,-23.7073 41.488,-42.4755 0,-17.2865 -8.89,-31.1158 -19.262,-31.1158 -6.915,0 -9.384,3.4573 -8.397,13.8293 0,7.4085 -1.481,13.3353 -4.445,13.3353 -2.469,0 -3.951,-4.939 -3.457,-10.8658 2.469,-15.8049 -20.25,-29.6341 -36.055,-22.2256 -9.878,4.4451 -12.347,9.3841 -12.347,23.7073 0,22.2255 -5.433,19.2621 -7.409,-3.9512 -0.988,-13.3354 -3.457,-16.7927 -13.829,-17.7805 -10.866,-1.4817 -13.829,0.9878 -17.78,14.8171 l -4.446,16.2987 -0.493,-15.8048 c -0.494,-19.2622 -8.397,-21.2378 -16.299,-3.9512 -7.409,16.2987 2.469,49.39 17.286,57.7863 5.927,3.4573 20.744,7.4086 33.092,9.3842 12.347,1.4817 24.201,3.4573 26.176,3.9512 2.47,0 13.83,-1.9756 26.177,-4.939 z m 461.303,-64.2071 c 8.891,-40.9938 3.952,-161.0117 -8.396,-199.5359 -27.164,-82.4815 -72.109,-133.8471 -131.871,-148.6642 l -13.83,-3.4573 13.83,21.7317 c 7.902,11.8536 18.768,25.1889 24.201,29.1401 69.64,50.8718 103.719,125.4508 107.176,232.6273 0.988,22.7194 -0.494,57.2924 -2.469,76.0607 -4.445,39.512 1.975,35.0669 11.359,-7.9024 z m -535.388,-205.9567 c 2.963,-1.9756 7.902,-21.2377 10.372,-42.9693 7.902,-61.2437 31.116,-99.2741 80.506,-131.3776 11.853,-7.9024 8.89,-8.3963 -49.884,-5.9268 -61.244,2.9634 -62.726,2.4695 -68.652,-8.3963 -2.964,-5.9268 -4.445,-16.2988 -2.964,-22.7195 2.47,-8.3963 0.494,-12.8414 -6.421,-16.7926 -15.804,-8.3963 -26.176,-0.9878 -24.201,17.7804 1.482,20.7439 -7.408,22.7195 -10.865,1.9756 -1.482,-8.3963 -3.952,-15.3109 -5.927,-14.817 -2.47,0 -5.927,0 -8.89,0 -2.47,0 -4.939,7.9024 -4.939,17.2865 0,9.3841 -1.976,17.2866 -4.939,17.2866 -2.47,0 -4.939,-7.9025 -4.939,-17.7805 0,-13.8292 -1.482,-17.2865 -8.397,-15.8048 -4.939,0.9878 -11.36,9.3841 -14.817,18.7682 -3.457,9.3842 -5.927,13.3354 -5.927,8.8903 -0.494,-10.8659 -8.396,-11.3598 -12.347,-0.9879 -4.445,11.8537 -3.457,18.7683 3.951,29.6341 6.421,8.3963 15.311,9.3841 97.792,11.8536 56.799,1.4817 86.927,3.9512 80.506,6.9146 -40.994,17.7804 -57.786,28.1524 -82.481,52.3535 -40.006,39.0182 -44.451,69.64 -12.348,88.9021 15.805,9.8781 45.439,12.8415 55.811,5.9268 z m 419.322,-166.4445 c 12.347,-12.3475 14.817,-20.2499 9.384,-34.0792 -4.445,-11.8536 -11.854,-9.3841 -11.854,3.9512 0,6.9147 -2.469,13.8293 -5.433,15.8049 -3.951,2.4695 -4.939,-0.4939 -2.469,-9.3841 3.457,-14.3232 -6.915,-28.1524 -22.226,-28.1524 -6.914,0 -9.384,3.4573 -9.384,14.3231 0,8.3963 -1.975,16.2988 -4.939,17.7805 -2.963,1.9756 -4.939,-3.9512 -4.939,-14.3232 0,-16.7926 -0.988,-17.7804 -17.286,-17.7804 -18.769,0 -20.25,1.4817 -23.708,33.0914 l -2.469,20.7438 25.683,4.4451 c 43.957,8.3963 56.798,6.9146 69.64,-6.4207 z"
               inkscape:connector-curvature="0"
               style="fill:#000000;stroke:none;stroke-width:0.49390075" />
            <path
               transform="matrix(3.3927224,0,0,3.3927223,-34539.235,-11803.323)"
               id="path4778"
               d="m 10541.793,3990.9765 c 0,-2.4695 6.421,-7.9024 13.829,-11.8536 7.409,-3.9512 16.793,-13.3354 20.25,-21.2378 3.951,-7.4085 7.902,-11.3597 8.89,-7.9024 3.458,9.878 -13.335,36.0548 -26.176,40.9938 -15.311,5.9268 -16.793,5.9268 -16.793,0 z"
               inkscape:connector-curvature="0"
               style="fill:#000000;stroke:none;stroke-width:0.49390075" />
            <path
               transform="matrix(3.3927224,0,0,3.3927223,-34539.235,-11803.323)"
               id="path4780"
               d="m 10523.025,3925.2877 c -11.854,-12.3475 -14.323,-37.0426 -5.927,-53.3413 2.963,-4.939 12.841,-12.3475 22.225,-16.2987 15.311,-6.4207 18.769,-6.4207 35.561,1.9756 10.372,5.4329 16.299,9.3841 13.336,9.878 -3.952,0 -3.952,5.4329 -0.494,19.756 4.939,17.2866 3.951,21.2378 -4.445,33.0914 -14.324,19.2621 -44.452,21.7316 -60.256,4.939 z m 49.39,-6.9146 c 12.347,-11.3597 11.359,-29.1402 -3.458,-43.4633 -14.323,-14.817 -22.225,-15.3109 -37.536,-3.4573 -13.829,11.8536 -15.311,39.0182 -1.976,48.4023 12.348,9.3841 32.104,8.8902 42.97,-1.4817 z"
               inkscape:connector-curvature="0"
               style="fill:#000000;stroke:none;stroke-width:0.49390075" />
            <path
               transform="matrix(3.3927224,0,0,3.3927223,-34539.235,-11803.323)"
               id="path4782"
               d="m 10537.348,3903.0622 c -7.409,-13.8293 3.951,-28.1524 18.768,-23.2134 8.396,2.4695 10.372,6.4207 9.384,16.2987 -1.975,16.7927 -20.744,21.2378 -28.152,6.9147 z"
               inkscape:connector-curvature="0"
               style="fill:#000000;stroke:none;stroke-width:0.49390075" />
            <path
               id="path4868"
               d="m -804.63258,3728.3285 c -80,-30 -120,-67 -161.99999,-150 -36.00003,-72 -39.00003,-74 -95.00003,-95 -190.9999,-69 -344.9999,-226 -410.9999,-420 l -27,-80 v -360 c 0,-412 -1,-404 97,-551 87,-130 249,-250 424.99993,-314 47.99999,-17 90.99999,-37 94.99999,-43 4,-7 8,-26 8,-43 0,-45 34,-83 81,-90 l 39,-7 c 0,0 -58.7672,50.6054 0,-211 58.7672,-261.6055 -75.7348,-1873.89993 327.8017,-2096.83623 403.536488,-222.9363 1278.89939,-3.70279 1066.3039,-3.82595 -27.1733,-81.5344 -452.0275,-36.12716 -652.010312,-47.22906 -66.995804,12.394 -366.419688,51.78081 -411.325088,93.59161 -359.0103,334.2697 -233.9868,1571.30195 -228.7702,2062.29963 l 3,200 35,9 c 46,11 80,44 80,76 0,56 9,67 71,86 244,72 460.9999879,255 540.999996,454 22,54 23.000004,69 26.000004,404 3,328 2,352 -18.000004,424 -59.000004,214 -208.000006,377 -419.999996,458 -63,24 -66,27 -83,76 -52,146 -234,226 -387,169 z m 196,-105 c 51,-25 100,-78 89,-95 -4,-6 -76,-10 -176,-10 -192,0 -206,6 -153,62 65,69 156,85 240,43 z m 176,-216 c 98,-20 196,-75 272.99999,-153 111.999998,-113 165.0000019,-236 165.0000019,-383 v -73 l -701.9999919,2 -702.99992,3 -3,45 c -8,114 54,285 139,383 69,80 169.9999,142 281.99993,172 64.99999,17 469.99999,20 548.99999,4 z m -454,-705 c 30,-20 29,-59 -2,-79 -21,-14 -52,-16 -196.00002,-13 -155.9999,3 -172.9999,5 -185.9999,22 -19,27 -18,42 6,66 18,18 33,20 187.9999,20 135.00002,0 172.00002,-3 190.00002,-16 z m 186,-316 c 8,-22 6,-32 -9,-48 -17,-19 -29,-20 -300.00002,-20 -289.9999,0 -303.9999,2 -317.9999,41 -3,9 1,26 9,38 15,21 19,21 311.9999,19 l 297.00002,-3 z m -150,-274 c 20,-20 20,-48 0,-68 -24,-24 -358.99992,-24 -385.99992,1 -22,20 -23,46 -2,67 13,13 45,16 193.9999,16 149.00002,0 181.00002,-3 194.00002,-16 z"
               inkscape:connector-curvature="0"
               sodipodi:nodetypes="cccccscccscczzccscccscccccccccsccccscccccccccccsscccscccccsscsss" />
          </g>
        </g>
      </g>
      <path
         inkscape:connector-curvature="0"
         id="path4894"
         d="m 65.873677,106.34119 -4.690288,-0.05 -0.09583,-0.71454 c -0.220348,-1.64281 0.459241,-4.35194 1.697763,-6.767926 1.551701,-3.026947 5.028038,-5.538841 8.450858,-6.106362 0.599347,-0.09939 3.309738,-0.18381 6.02308,-0.187633 5.551193,-0.0071 6.435363,0.114148 8.500033,1.172327 1.64565,0.84345 2.06321,1.148272 3.43334,2.506418 2.61904,2.596065 3.83573,5.553426 3.83573,9.323276 v 0.9563 l -11.232186,-0.0411 c -6.177696,-0.0226 -13.342824,-0.0635 -15.922478,-0.0909 z"
         style="opacity:1;fill:#ffffff;fill-opacity:0.95412843;fill-rule:nonzero;stroke:none;stroke-width:0.66591948;stroke-miterlimit:4;stroke-dasharray:none;stroke-opacity:1" />
      <path
         inkscape:connector-curvature="0"
         id="path4896"
         d="m 64.837776,110.57359 c -1.067478,-0.19426 -1.389564,-1.17051 -0.592911,-1.79715 0.436038,-0.343 0.687999,-0.36517 4.149241,-0.36517 4.146663,0 4.726968,0.12499 4.721954,1.01762 -0.0071,1.15811 -0.429086,1.27711 -4.434557,1.24887 -1.871795,-0.0125 -3.601474,-0.0601 -3.843727,-0.10419 z"
         style="opacity:1;fill:#ffffff;fill-opacity:1;fill-rule:nonzero;stroke:none;stroke-width:0.66591948;stroke-miterlimit:4;stroke-dasharray:none;stroke-opacity:1" />
      <path
         inkscape:connector-curvature="0"
         id="path4898"
         d="m 64.248421,117.24374 c -1.404108,-0.16073 -1.88753,-0.78909 -1.216618,-1.58126 0.370625,-0.43762 1.52816,-0.49226 8.977769,-0.42379 l 4.793234,0.0441 0.118771,0.63311 c 0.09619,0.51243 0.04641,0.70559 -0.261082,1.01311 -0.371603,0.37173 -0.499086,0.38055 -5.881053,0.40633 -3.025649,0.0142 -5.96462,-0.0267 -6.531039,-0.0916 z"
         style="opacity:1;fill:#ffffff;fill-opacity:1;fill-rule:nonzero;stroke:none;stroke-width:0.66591948;stroke-miterlimit:4;stroke-dasharray:none;stroke-opacity:1" />
      <path
         inkscape:connector-curvature="0"
         id="path4900"
         d="m 65.387606,123.74701 c -0.694648,-0.17282 -0.923104,-0.45451 -0.859772,-1.06017 0.08161,-0.77944 0.6095,-0.87985 4.626618,-0.87985 4.140493,0 4.545843,0.0861 4.634014,0.98288 0.09548,0.97144 -0.150064,1.03447 -4.176249,1.0717 -1.996059,0.0185 -3.897138,-0.0331 -4.224611,-0.11451 z"
         style="opacity:1;fill:#ffffff;fill-opacity:0.94954128;fill-rule:nonzero;stroke:none;stroke-width:0.66591948;stroke-miterlimit:4;stroke-dasharray:none;stroke-opacity:1" />
      <path
         inkscape:connector-curvature="0"
         id="path4902"
         d="m 109.25785,130.17236 c -1.73608,-0.39105 -2.80461,-0.77512 -4.30653,-1.54791 -2.74712,-1.41349 -5.428277,-4.55779 -6.493747,-7.61551 -0.47644,-1.36731 -0.66305,-3.13541 -0.35126,-3.32811 0.20159,-0.12464 0.96723,0.37052 2.410167,1.55855 2.5316,2.08437 6.64225,4.52527 9.81777,5.82977 0.80216,0.32952 2.50987,0.84827 3.79492,1.15277 2.31898,0.54949 3.21357,0.97328 3.21357,1.52235 0,0.43847 -1.38078,1.63966 -2.45669,2.13711 -0.81042,0.37471 -1.28251,0.46059 -2.74096,0.49857 -1.06378,0.0277 -2.2078,-0.0546 -2.88724,-0.20759 z"
         style="opacity:1;fill:#ffffff;fill-opacity:0.94954128;fill-rule:nonzero;stroke:none;stroke-width:0.66591948;stroke-miterlimit:4;stroke-dasharray:none;stroke-opacity:1" />
      <path
         inkscape:connector-curvature="0"
         id="path4904"
         d="m 98.842673,153.45271 c -1.55467,-0.33717 -1.6408,-0.48138 -1.13273,-1.89649 0.7355,-2.04857 0.66429,-4.1397 -0.21221,-6.23138 -0.24398,-0.58226 -0.48323,-1.18488 -0.53166,-1.33914 -0.0761,-0.24227 0.20863,-0.2955 2.08974,-0.39084 3.908557,-0.1981 8.281487,-1.28619 10.182137,-2.53359 0.53297,-0.34978 1.40512,-1.00885 1.9381,-1.46461 1.4564,-1.24535 1.60609,-1.29734 2.28749,-0.79461 1.09118,0.80503 2.00632,0.71439 2.94578,-0.2918 0.47231,-0.50585 0.93342,-1.5676 0.93342,-2.14931 0,-0.23564 -0.2775,-0.8408 -0.61667,-1.34481 -0.87986,-1.30746 -0.83177,-1.70134 0.26428,-2.1644 1.17734,-0.49742 1.20293,-0.93109 0.0494,-0.83844 l -0.39103,0.0315 0.32055,-0.9369 c 0.1762,-0.5153 0.41963,-1.35317 0.54075,-1.86191 l 0.2202,-0.925 0.81934,4.2e-4 c 2.16901,9.4e-4 5.58166,0.37671 6.29663,0.69298 0.87314,0.38624 1.06721,0.29897 0.67304,-0.30263 -0.31973,-0.48798 -0.28574,-0.88515 0.25213,-2.94555 0.20237,-0.77525 0.56309,-2.75739 0.80161,-4.40478 0.23854,-1.64739 0.51752,-3.2147 0.61999,-3.48293 0.27684,-0.72466 0.76079,-0.81822 2.74741,-0.53115 3.27674,0.4735 9.47132,0.10971 12.59766,-0.73986 0.53298,-0.14491 1.22674,-0.26427 1.54167,-0.26542 0.53456,-0.002 0.57263,0.0379 0.57263,0.59908 0,0.96748 -0.46013,3.09053 -0.95303,4.39727 -1.02564,2.71907 -2.98483,5.06086 -5.1088,6.10649 -1.39393,0.68624 -3.41167,0.90509 -4.78902,0.51946 -1.76815,-0.49505 -4.33763,-2.65332 -5.40264,-4.53802 l -0.56948,-1.00777 -0.11628,0.96905 c -0.064,0.53297 -0.20602,1.8155 -0.3156,2.85005 -0.25174,2.37682 -0.59938,3.54961 -1.25573,4.23642 -0.28489,0.29811 -0.52298,0.55008 -0.52908,0.55993 -0.005,0.009 -0.0795,3.90293 -0.16304,8.65129 -0.12678,7.20282 -0.36455,11.73012 -0.63264,12.04431 -0.10757,0.12606 -2.21201,-1.84141 -2.65895,-2.48576 -0.26876,-0.38746 -0.66159,-1.45533 -0.95027,-2.58314 -0.52953,-2.06874 -0.9273,-3.01112 -1.27103,-3.01112 -0.11877,0 -0.41408,0.37587 -0.65619,0.83525 -0.57726,1.09541 -3.48186,4.01668 -4.93304,4.96138 -1.6772,1.09184 -4.77378,2.54948 -6.73776,3.17164 -3.21892,1.01973 -6.48209,1.33049 -8.767057,0.83494 z m 24.607547,-12.61882 c 0.74733,-0.42861 0.89234,-0.58874 0.81187,-0.89644 -0.0539,-0.20603 0.004,-0.91171 0.12731,-1.56818 0.21577,-1.14356 0.20768,-1.22478 -0.19331,-1.93824 -0.57691,-1.02648 -1.58271,-1.59108 -2.83437,-1.59108 -1.65045,0 -2.69156,1.00398 -2.90437,2.80083 -0.15931,1.34531 0.27355,2.32423 1.31809,2.98074 1.03714,0.65187 1.19411,0.70688 2.06023,0.72194 0.47561,0.009 1.0006,-0.15735 1.6146,-0.50957 z m 0.58375,-7.76989 c -0.26095,-0.90994 -1.19106,-2.0503 -1.98617,-2.43522 -1.6131,-0.78088 -1.85691,-0.22135 -0.37925,0.87028 0.53801,0.39745 1.26317,1.11929 1.61146,1.6041 0.66396,0.92419 1.02488,0.90545 0.75396,-0.0391 z"
         style="opacity:1;fill:#ffffff;fill-opacity:1;fill-rule:nonzero;stroke:none;stroke-width:0.66591948;stroke-miterlimit:4;stroke-dasharray:none;stroke-opacity:1" />
      <path
         inkscape:connector-curvature="0"
         id="path4906"
         d="m 90.728243,153.44741 c -1.83886,-0.70848 -3.25767,-1.91612 -4.03013,-3.43025 -1.30792,-2.56373 -1.08727,-5.6183 0.52209,-7.22766 0.94605,-0.94605 1.96207,-1.31114 3.69386,-1.32737 1.18311,-0.0107 1.67063,0.0658 2.32144,0.36621 2.50965,1.15835 4.01941,4.05433 3.79853,7.28621 -0.14509,2.1231 -0.82203,3.31173 -2.33186,4.09461 -0.88841,0.46066 -3.05895,0.59079 -3.97393,0.23825 z"
         style="opacity:1;fill:#ffffff;fill-opacity:1;fill-rule:nonzero;stroke:none;stroke-width:0.66591948;stroke-miterlimit:4;stroke-dasharray:none;stroke-opacity:1" />
      <path
         inkscape:connector-curvature="0"
         id="path4908"
         d="m 120.4549,140.10588 c -1.32079,-0.69683 -1.75423,-2.82774 -0.7745,-3.80749 1.31991,-1.31988 4.00523,-0.45709 4.00523,1.28689 0,0.98307 -0.76119,2.10298 -1.79721,2.64423 -0.59473,0.31069 -0.61331,0.30908 -1.43352,-0.12357 z m 1.85137,-1.15275 c 0.36712,-0.33224 0.4165,-0.96195 0.11966,-1.52595 -0.26633,-0.50597 -0.49173,-0.64316 -1.06204,-0.64643 -0.54448,-0.004 -1.20207,0.71312 -1.20207,1.30927 0,0.95363 1.41509,1.52319 2.14447,0.86311 z"
         style="opacity:1;fill:#ffffff;fill-opacity:0.94954128;fill-rule:nonzero;stroke:none;stroke-width:0.66591948;stroke-miterlimit:4;stroke-dasharray:none;stroke-opacity:1" />
      <path
         inkscape:connector-curvature="0"
         id="path4910"
         d="m 114.05842,138.1795 c -0.757,-0.48498 -1.03769,-1.20118 -0.77853,-1.98646 0.29413,-0.89122 0.76138,-1.22522 1.83904,-1.3146 0.93065,-0.0772 0.94464,-0.0711 1.14251,0.49656 0.27732,0.7955 0.26583,0.82306 -0.308,0.73883 -0.66592,-0.0978 -1.25357,0.2294 -1.25357,0.69784 0,0.20548 0.19822,0.63346 0.44049,0.95109 0.24225,0.31762 0.44046,0.62244 0.44046,0.67734 0,0.23772 -1.01611,0.0638 -1.5224,-0.2606 z"
         style="opacity:1;fill:#ffffff;fill-opacity:0.94954128;fill-rule:nonzero;stroke:none;stroke-width:0.66591948;stroke-miterlimit:4;stroke-dasharray:none;stroke-opacity:1" />
      <path
         inkscape:connector-curvature="0"
         id="path4912"
         d="m 102.83715,156.29871 c -0.38832,-0.2932 -0.34884,-1.35468 0.058,-1.55695 0.14527,-0.0722 0.84034,-0.219 1.54443,-0.32602 1.61918,-0.24612 5.03759,-1.38401 7.21603,-2.40201 3.25617,-1.52162 5.93762,-3.63541 7.36951,-5.80945 1.20434,-1.82852 1.76375,-1.15476 0.71377,0.85965 -1.76437,3.38498 -4.63667,5.82246 -9.13185,7.74952 -2.86442,1.22792 -7.05075,2.02819 -7.76981,1.48526 z"
         style="opacity:1;fill:#ffffff;fill-opacity:0.94954128;fill-rule:nonzero;stroke:none;stroke-width:0.66591948;stroke-miterlimit:4;stroke-dasharray:none;stroke-opacity:1" />
      <path
         inkscape:connector-curvature="0"
         id="path4914"
         d="m 123.2213,176.40538 c -0.86797,-0.25157 -2.21827,-1.24594 -2.61054,-1.92241 -0.51605,-0.88993 -0.58777,-3.72073 -0.16624,-6.55821 0.58624,-3.94586 0.36193,-7.16838 -0.63502,-9.12255 -0.42983,-0.84255 -0.84805,-0.90643 -1.69666,-0.25916 l -0.58453,0.44585 -0.11824,-0.47144 c -0.18342,-0.73074 0.0839,-5.00722 0.38538,-6.16594 0.51633,-1.98431 1.01414,-2.25542 2.19029,-1.19285 1.54194,1.39307 3.15448,4.68234 3.8766,7.90757 0.42518,1.89902 0.60854,2.37858 0.90943,2.37858 0.51893,0 -0.44185,-4.34667 -1.42411,-6.44274 -0.94478,-2.01614 -1.61354,-2.9761 -2.98056,-4.27843 l -1.17431,-1.11876 0.94509,0.0998 c 1.15695,0.12215 2.37688,0.99442 3.83369,2.74134 3.454,4.14183 5.26282,8.82504 5.61925,14.54886 0.17052,2.73779 -0.0903,4.40048 -0.97185,6.19514 -1.31665,2.68056 -3.25629,3.83601 -5.39762,3.2154 z"
         style="opacity:1;fill:#ffffff;fill-opacity:0.94954128;fill-rule:nonzero;stroke:none;stroke-width:0.66591948;stroke-miterlimit:4;stroke-dasharray:none;stroke-opacity:1" />
      <path
         inkscape:connector-curvature="0"
         id="path4916"
         d="m 115.64168,159.93974 c -0.14722,-0.38368 0.21592,-5.52508 0.47587,-6.73716 0.1081,-0.5041 0.26944,-0.96157 0.3585,-1.01661 0.24856,-0.15362 0.18567,6.57883 -0.0683,7.30751 -0.23873,0.68505 -0.59488,0.89249 -0.7661,0.44626 z"
         style="opacity:1;fill:#ffffff;fill-opacity:0.94954128;fill-rule:nonzero;stroke:none;stroke-width:0.66591948;stroke-miterlimit:4;stroke-dasharray:none;stroke-opacity:1" />
      <path
         inkscape:connector-curvature="0"
         id="path4918"
         d="m 109.76652,163.60149 c 0,-0.23651 0.64628,-0.54886 2.67988,-1.29516 2.66743,-0.97891 4.58165,-1.95993 5.52996,-2.83406 0.93909,-0.86561 1.18974,-0.76789 0.51771,0.20187 -0.61009,0.88033 -2.45086,2.31288 -3.8629,3.00625 -1.5339,0.75318 -4.86465,1.38386 -4.86465,0.9211 z"
         style="opacity:1;fill:#ffffff;fill-opacity:0.94954128;fill-rule:nonzero;stroke:none;stroke-width:0.66591948;stroke-miterlimit:4;stroke-dasharray:none;stroke-opacity:1" />
      <path
         inkscape:connector-curvature="0"
         id="path4922"
         d="m 120.54222,217.87354 c -0.50163,-0.0615 -0.57504,-0.12909 -0.49683,-0.45633 0.0505,-0.21124 0.14722,-1.11747 0.21491,-2.01385 0.091,-1.20435 0.0688,-1.62976 -0.0848,-1.62976 -0.29163,0 -0.65479,0.96933 -0.79267,2.11581 -0.16429,1.3651 -0.28637,1.52035 -0.97268,1.23609 -1.367,-0.56625 -1.62947,-1.99491 -0.70601,-3.84293 0.8979,-1.79682 2.70495,-3.22178 5.06605,-3.99482 l 0.9346,-0.30601 -0.0982,-2.05291 c -0.0539,-1.12908 -0.17919,-5.77933 -0.27831,-10.33387 -0.18772,-8.62702 -0.26277,-10.05782 -0.53639,-10.22692 -0.49121,-0.30358 -0.54727,1.05996 -0.43495,10.57931 0.1385,11.73584 0.21309,11.16421 -1.57859,12.08904 -0.67832,0.35013 -1.80032,1.16282 -2.49329,1.80596 -0.69298,0.64314 -1.31841,1.16934 -1.38985,1.16934 -0.0715,0 -0.69374,-0.43263 -1.3829,-0.96139 -2.63422,-2.02109 -4.18046,-4.00095 -4.87157,-6.2377 -0.71865,-2.32586 -0.62854,-9.48068 0.18943,-15.04043 0.3852,-2.61825 0.41616,-3.13201 0.18871,-3.13201 -0.41288,0 -1.09982,2.80884 -1.34504,5.49982 -0.18008,1.97619 -0.67859,2.417 -1.43238,1.26658 -0.36347,-0.55474 -0.4166,-2.43173 -0.17317,-6.11703 0.14366,-2.1752 0.16499,-2.26383 0.5827,-2.42264 0.23845,-0.0907 1.91802,-0.16482 3.73239,-0.16482 3.07289,0 3.35214,-0.0272 4.07725,-0.39643 1.37427,-0.69987 1.94434,-2.50955 1.38192,-4.38678 -0.40541,-1.35308 -2.20672,-2.6567 -3.99963,-2.89454 -0.49782,-0.066 -0.90511,-0.14988 -0.90511,-0.18624 0,-0.0365 0.70939,-1.4335 1.57642,-3.1047 2.07146,-3.99271 2.61274,-5.3039 2.83124,-6.85843 0.15344,-1.09157 0.30687,-1.47233 0.99915,-2.47928 1.17608,-1.71066 0.98133,-1.75352 -1.00203,-0.22053 -1.87567,1.44975 -6.60938,2.62891 -8.17072,2.03528 -0.24267,-0.0923 -0.52634,-0.32679 -0.63037,-0.52116 -0.25415,-0.47489 0.0711,-0.63619 2.14317,-1.06265 3.51183,-0.72277 5.52581,-1.69138 7.39369,-3.5559 l 1.35243,-1.35004 0.23329,0.90613 c 0.32091,1.24648 0.26664,5.10543 -0.0982,6.98473 -0.7564,3.89605 -0.75924,5.37868 -0.0124,6.9505 0.69969,1.4745 2.60143,2.69845 4.45376,2.86641 0.80445,0.0729 1.26803,-0.004 2.3242,-0.38323 0.72562,-0.26088 1.44716,-0.51445 1.60341,-0.56345 0.2246,-0.0704 0.41742,0.29213 0.9206,1.73107 1.94458,5.56094 3.9142,13.11403 4.62224,17.72532 0.35638,2.32104 0.40953,6.34707 0.098,7.41855 -0.28415,0.97701 -0.009,1.39746 0.50282,0.77046 0.35828,-0.4383 0.3956,-0.82057 0.69217,-7.09171 0.20387,-4.31074 0.43802,-5.42068 1.37433,-6.51454 0.45163,-0.52763 0.73887,-0.7093 1.12146,-0.7093 0.77256,0 1.81417,1.04824 2.57864,2.59505 0.61327,1.24087 0.65795,1.44587 0.75384,3.45845 0.1538,3.22692 -0.0645,6.49372 -0.52579,7.86561 -0.49207,1.46379 -1.45471,3.38509 -2.21502,4.42085 -0.99901,1.3609 -2.47653,2.1788 -4.33321,2.3987 -0.74838,0.0885 -1.04784,-0.005 -3.10844,-0.98215 -1.25415,-0.59414 -2.36192,-1.08024 -2.46168,-1.08024 -0.4447,0 -0.59129,-1.48261 -0.83607,-8.45529 -0.36101,-10.28312 -0.61839,-13.541 -1.08199,-13.69552 -0.32221,-0.1074 -0.37569,1.06564 -0.22668,4.97217 0.0777,2.035 0.19693,6.80517 0.26512,10.60036 l 0.12393,6.90034 0.81393,0.30495 c 1.84856,0.69259 4.06042,1.82879 4.71979,2.42449 0.99534,0.89924 1.40254,2.51369 0.94051,3.7289 -0.18066,0.47517 -1.2639,1.06602 -1.66924,0.91048 -0.11966,-0.0459 -0.26436,-0.53785 -0.32168,-1.0932 -0.19268,-1.86691 -0.82176,-1.71208 -0.82656,0.20343 -0.004,1.44188 -0.26793,2.15432 -0.85721,2.31052 -0.25682,0.0681 -1.18049,0.12713 -2.05264,0.13104 l -1.58573,0.007 -0.088,-2.0559 c -0.0485,-1.13076 -0.14224,-2.10996 -0.20851,-2.176 -0.30046,-0.29957 -0.4964,0.20824 -0.49819,1.2911 -0.004,1.93769 -0.15256,2.49214 -0.77292,2.87048 -0.53731,0.32765 -1.67216,0.39959 -3.24948,0.20597 z"
         style="opacity:1;fill:#ffffff;fill-opacity:1;fill-rule:nonzero;stroke:none;stroke-width:0.66591948;stroke-miterlimit:4;stroke-dasharray:none;stroke-opacity:1" />
      <path
         inkscape:connector-curvature="0"
         id="path4924"
         d="m 111.77234,183.92076 c -0.63379,-0.27586 -0.94868,-0.99021 -0.94868,-2.15215 0,-0.42162 -0.0731,-0.76657 -0.16215,-0.76657 -0.16287,0 -0.25072,0.32793 -0.46093,1.72016 -0.12944,0.8572 -0.50376,1.14893 -1.36718,1.0654 -0.52412,-0.0507 -0.59236,-0.13655 -0.95466,-1.19985 l -0.3902,-1.14523 -0.0238,0.70477 c -0.0544,1.61176 -0.46457,2.04621 -1.05174,1.11411 -0.51429,-0.81639 -0.39783,-2.41023 0.26508,-3.62823 0.62657,-1.1512 1.20947,-1.42662 3.97859,-1.8799 1.2933,-0.21171 1.67442,-0.21151 2.68982,0.001 2.86143,0.59981 4.3105,2.19594 3.80742,4.19384 -0.23637,0.93871 -0.84217,1.57307 -1.42365,1.49075 -0.35349,-0.0501 -0.42185,-0.17336 -0.46984,-0.84797 -0.0974,-1.36976 -0.72743,-1.58214 -0.73401,-0.24746 -0.004,0.73625 -0.57947,1.42521 -1.37618,1.64648 -0.78886,0.21909 -0.70514,0.22332 -1.37785,-0.0695 z"
         style="opacity:1;fill:#ffffff;fill-opacity:1;fill-rule:nonzero;stroke:none;stroke-width:0.66591948;stroke-miterlimit:4;stroke-dasharray:none;stroke-opacity:1" />
      <path
         inkscape:connector-curvature="0"
         id="path4926"
         d="m 103.98745,216.20504 c -0.11628,-0.11628 -0.21251,-0.57218 -0.21384,-1.01311 -0.007,-2.09264 -0.53401,-2.11908 -1.05551,-0.0528 -0.15665,0.62072 -0.26141,0.74882 -0.6123,0.74882 -0.53836,0 -0.58974,-0.0932 -0.76753,-1.39328 -0.23901,-1.74762 -0.60169,-1.6617 -0.81144,0.19224 -0.11379,1.00539 -0.13673,1.04419 -0.588377,0.99154 -0.37452,-0.0437 -0.57696,-0.26441 -0.99657,-1.08668 -0.4737,-0.92823 -0.54323,-0.9946 -0.69221,-0.66071 -0.211,0.47284 -0.37625,0.46815 -0.71844,-0.0205 -0.55737,-0.79576 -0.1618,-2.45503 0.65916,-2.76554 0.68641,-0.25957 2.048687,-0.36502 7.083247,-0.54825 4.97445,-0.18103 6.07859,-0.27546 6.07859,-0.5198 0,-0.0734 -0.49553,-0.34744 -1.10119,-0.60888 -2.87763,-1.24215 -6.21208,-4.06619 -7.24603,-6.13683 -0.85339,-1.70907 -0.51343,-3.07314 1.01478,-4.07165 1.28388,-0.83886 3.94246,-1.06432 4.44507,-0.37696 0.11966,0.16358 0.34504,1.06355 0.50104,2.00005 0.78099,4.68827 1.634,6.80102 3.57782,8.86157 0.63932,0.67772 1.62798,1.5588 2.197,1.95792 0.75879,0.53228 0.96851,0.76268 0.78676,0.8644 -0.13637,0.0763 -1.90453,0.0668 -3.92939,-0.021 -2.02486,-0.0878 -3.95185,-0.1033 -4.28216,-0.0345 -0.93333,0.19454 -1.30565,0.83778 -1.28218,2.2152 0.0178,0.99606 -0.0322,1.18714 -0.36541,1.42054 -0.45951,0.32187 -1.38521,0.35395 -1.68089,0.0583 z"
         style="opacity:1;fill:#ffffff;fill-opacity:1;fill-rule:nonzero;stroke:none;stroke-width:0.66591948;stroke-miterlimit:4;stroke-dasharray:none;stroke-opacity:1" />
      <path
         inkscape:connector-curvature="0"
         id="path4928"
         d="m 137.9571,209.79412 c 0,-0.32269 1.84365,-2.77809 2.6302,-3.50297 2.55272,-2.35255 4.2294,-4.16551 5.00704,-5.41406 2.94696,-4.73143 3.95361,-10.94303 3.19238,-19.69887 -0.0914,-1.05064 -0.0789,-1.10885 0.14935,-0.70475 0.13691,0.24226 0.39856,1.03512 0.58144,1.7619 0.28791,1.14423 0.33124,1.98299 0.32301,6.25479 -0.0142,7.09854 -0.411,9.37515 -2.31718,13.27565 -1.60033,3.27471 -3.77432,5.65178 -6.30669,6.89581 -1.31777,0.64738 -3.25953,1.32202 -3.25953,1.1325 z"
         style="opacity:1;fill:#ffffff;fill-opacity:0.94954128;fill-rule:nonzero;stroke:none;stroke-width:0.66591948;stroke-miterlimit:4;stroke-dasharray:none;stroke-opacity:1" />
      <path
         inkscape:connector-curvature="0"
         id="path4930"
         d="m 134.47477,215.3623 c -0.21946,-0.0933 -0.47341,-0.36541 -0.56434,-0.60461 -0.14224,-0.37423 -0.42113,-2.66935 -0.38714,-3.18649 0.0142,-0.20884 0.51914,-0.32203 3.14252,-0.70373 2.42518,-0.35286 3.17873,-0.20708 4.13832,0.80065 0.7942,0.83405 0.9634,1.50018 0.6012,2.36703 -0.31393,0.75133 -0.69323,0.74596 -0.76844,-0.0107 -0.0741,-0.7455 -0.40718,-1.50745 -0.62701,-1.43416 -0.1097,0.0366 -0.16784,0.41417 -0.13815,0.89729 0.0638,1.03643 -0.27104,1.59114 -1.13174,1.87519 -0.82426,0.27203 -0.99468,0.1049 -1.22335,-1.20019 -0.12233,-0.69801 -0.25701,-1.0055 -0.44049,-1.0055 -0.19337,0 -0.28817,0.26809 -0.35336,0.9994 -0.0491,0.54967 -0.14419,1.05452 -0.21153,1.12187 -0.20605,0.20605 -1.61316,0.26416 -2.03649,0.0841 z"
         style="opacity:1;fill:#ffffff;fill-opacity:0.94954128;fill-rule:nonzero;stroke:none;stroke-width:0.66591948;stroke-miterlimit:4;stroke-dasharray:none;stroke-opacity:1" />
      <path
         inkscape:connector-curvature="0"
         id="path4932"
         d="m 123.66753,176.42579 c -0.82996,-0.15291 -2.11887,-0.91665 -2.6873,-1.59217 -0.82729,-0.9832 -0.92902,-3.02749 -0.39205,-7.87842 0.28704,-2.59315 0.306,-3.27863 0.13015,-4.70932 -0.43433,-3.53428 -1.2768,-4.79209 -2.54274,-3.7963 -0.2464,0.1938 -0.48863,0.35236 -0.53833,0.35236 -0.3966,0 -0.15344,-5.14699 0.32104,-6.79639 0.46685,-1.6228 1.05864,-1.74835 2.2873,-0.48525 1.3913,1.43032 2.70535,4.2122 3.53422,7.48206 0.48533,1.91457 0.69478,2.44246 0.96912,2.44246 0.29441,0 0.18552,-1.2549 -0.27514,-3.17144 -0.67637,-2.81398 -2.00092,-5.38855 -3.70312,-7.19803 -1.32768,-1.41131 -1.33943,-1.43186 -0.7585,-1.32703 1.12542,0.20307 2.06613,0.79712 3.27103,2.06555 3.96403,4.17308 6.21669,10.08196 6.21669,16.3067 0,3.30922 -0.59585,5.15522 -2.22679,6.89884 -1.13814,1.21674 -2.26017,1.6544 -3.6056,1.40638 z"
         style="opacity:1;fill:#ffffff;fill-opacity:0.94954128;fill-rule:nonzero;stroke:none;stroke-width:0.66591948;stroke-miterlimit:4;stroke-dasharray:none;stroke-opacity:1" />
    </g>
  </g>
</svg>
