<?xml version="1.0" encoding="UTF-8" standalone="no"?>
<!-- Created with Inkscape (http://www.inkscape.org/) -->

<svg
   xmlns:dc="http://purl.org/dc/elements/1.1/"
   xmlns:cc="http://creativecommons.org/ns#"
   xmlns:rdf="http://www.w3.org/1999/02/22-rdf-syntax-ns#"
   xmlns:svg="http://www.w3.org/2000/svg"
   xmlns="http://www.w3.org/2000/svg"
   xmlns:sodipodi="http://sodipodi.sourceforge.net/DTD/sodipodi-0.dtd"
   xmlns:inkscape="http://www.inkscape.org/namespaces/inkscape"
   width="210mm"
   height="297mm"
   viewBox="0 0 210 297"
   version="1.1"
   id="svg8577"
   inkscape:version="0.92.5 (2060ec1f9f, 2020-04-08)"
   sodipodi:docname="icone chat vert ancien site.svg">
  <defs
     id="defs8571" />
  <sodipodi:namedview
     id="base"
     pagecolor="#ffffff"
     bordercolor="#666666"
     borderopacity="1.0"
     inkscape:pageopacity="0.0"
     inkscape:pageshadow="2"
     inkscape:zoom="0.35"
     inkscape:cx="-121.42857"
     inkscape:cy="560"
     inkscape:document-units="mm"
     inkscape:current-layer="layer1"
     showgrid="false"
     inkscape:window-width="1920"
     inkscape:window-height="1009"
     inkscape:window-x="-8"
     inkscape:window-y="-8"
     inkscape:window-maximized="1" />
  <metadata
     id="metadata8574">
    <rdf:RDF>
      <cc:Work
         rdf:about="">
        <dc:format>image/svg+xml</dc:format>
        <dc:type
           rdf:resource="http://purl.org/dc/dcmitype/StillImage" />
        <dc:title></dc:title>
      </cc:Work>
    </rdf:RDF>
  </metadata>
  <g
     inkscape:label="Calque 1"
     inkscape:groupmode="layer"
     id="layer1">
    <g
       id="g9138"
       transform="translate(-131.53571,-129.26786)">
      <path
         style="opacity:1;fill:#85c441;fill-opacity:1;fill-rule:nonzero;stroke:none;stroke-width:0.55505896;stroke-miterlimit:4;stroke-dasharray:none;stroke-opacity:1"
         d="m 156.76843,180.93382 c -5.57579,-0.65956 -10.65918,-3.24345 -14.58929,-7.41575 -9.96843,-10.58273 -8.45751,-27.14047 3.26504,-35.78079 4.67805,-3.44805 10.94634,-5.11552 16.69474,-4.44108 5.24986,0.61595 9.91548,2.78137 13.67435,6.34655 5.12997,4.86562 7.63112,10.60942 7.61943,17.49775 -0.007,3.9071 -0.61831,6.66741 -2.23271,10.07543 -1.43305,3.02521 -2.89457,5.07059 -5.13,7.17938 -2.27206,2.14334 -3.60218,3.04797 -6.46955,4.40002 -2.63754,1.24368 -4.42488,1.75165 -7.50805,2.13379 -2.35507,0.29189 -2.892,0.29237 -5.32396,0.005 z"
         id="path1718-5-6"
         inkscape:connector-curvature="0" />
      <g
         style="fill:#ffffff;fill-opacity:1;stroke:none"
         transform="matrix(0.03623253,0,0,-0.03623253,25.980587,271.49259)"
         id="g4948">
        <path
           style="fill:#ffffff;fill-opacity:1"
           id="path4769"
           d="m 3953,3675 c -13,-9 -27,-33 -33,-54 -17,-64 3,-129 66,-215 74,-102 91,-156 63,-208 -11,-20 -12,-19 -47,15 -43,42 -79,57 -130,57 -73,-1 -118,-32 -200,-140 -13,-16 -33,-35 -44,-41 -20,-11 -20,-10 -4,12 20,29 21,110 2,147 -8,15 -26,38 -40,51 -19,18 -26,35 -26,61 0,20 -6,44 -13,54 -12,17 -16,17 -43,3 -16,-8 -37,-24 -47,-35 -11,-11 -38,-23 -65,-27 -26,-4 -69,-18 -95,-31 -27,-13 -66,-24 -88,-24 -41,0 -79,-14 -79,-29 0,-4 12,-25 26,-46 17,-26 26,-55 29,-92 7,-100 68,-163 156,-163 26,0 59,4 73,10 22,8 27,6 38,-18 7,-15 28,-36 45,-47 24,-15 37,-33 48,-69 18,-59 20,-177 3,-194 -16,-16 -1,-29 20,-16 22,14 29,50 31,149 1,101 17,89 32,-23 10,-73 9,-85 -5,-101 -9,-10 -16,-21 -16,-24 0,-11 38,-8 45,2 3,5 10,69 15,143 9,114 14,135 33,156 31,33 107,82 128,82 15,0 16,-5 8,-40 -6,-25 -5,-56 1,-82 21,-94 4,-220 -32,-239 -26,-14 -9,-34 21,-24 15,4 26,27 45,88 13,45 27,100 30,122 4,22 12,55 18,73 l 10,33 44,-88 c 35,-70 44,-99 44,-140 0,-42 -4,-55 -20,-65 -25,-16 -26,-28 -1,-28 41,0 46,23 53,262 7,225 7,229 32,259 49,58 46,125 -11,253 -33,74 -35,83 -29,147 8,73 -7,120 -39,133 -23,9 -28,8 -52,-9 z m -425,-506 c -2,-6 -8,-10 -13,-10 -5,0 -11,4 -13,10 -2,6 4,11 13,11 9,0 15,-5 13,-11 z m -56,-36 c 31,-28 18,-81 -24,-96 -23,-8 -68,29 -68,55 0,49 56,74 92,41 z m -140,-38 c 0,-5 -5,-11 -11,-13 -6,-2 -11,4 -11,13 0,9 5,15 11,13 6,-2 11,-8 11,-13 z"
           inkscape:connector-curvature="0" />
        <path
           style="fill:#ffffff;fill-opacity:1"
           id="path4771"
           d="m 3424,3092 c 0,-14 6,-17 26,-13 18,4 20,6 8,9 -10,2 -18,8 -18,13 0,5 -4,9 -8,9 -4,0 -8,-8 -8,-18 z"
           inkscape:connector-curvature="0" />
      </g>
    </g>
  </g>
</svg>
