<?xml version="1.0" encoding="UTF-8" standalone="no"?>
<!-- Created with Inkscape (http://www.inkscape.org/) -->

<svg
   xmlns:dc="http://purl.org/dc/elements/1.1/"
   xmlns:cc="http://creativecommons.org/ns#"
   xmlns:rdf="http://www.w3.org/1999/02/22-rdf-syntax-ns#"
   xmlns:svg="http://www.w3.org/2000/svg"
   xmlns="http://www.w3.org/2000/svg"
   xmlns:sodipodi="http://sodipodi.sourceforge.net/DTD/sodipodi-0.dtd"
   xmlns:inkscape="http://www.inkscape.org/namespaces/inkscape"
   width="210mm"
   height="297mm"
   viewBox="0 0 210 297"
   version="1.1"
   id="svg3162"
   inkscape:version="0.92.5 (2060ec1f9f, 2020-04-08)"
   sodipodi:docname="icone boutique en ligne.svg">
  <defs
     id="defs3156" />
  <sodipodi:namedview
     id="base"
     pagecolor="#ffffff"
     bordercolor="#666666"
     borderopacity="1.0"
     inkscape:pageopacity="0.0"
     inkscape:pageshadow="2"
     inkscape:zoom="0.35"
     inkscape:cx="-64.285714"
     inkscape:cy="560"
     inkscape:document-units="mm"
     inkscape:current-layer="layer1"
     showgrid="false"
     inkscape:window-width="1920"
     inkscape:window-height="1009"
     inkscape:window-x="-8"
     inkscape:window-y="-8"
     inkscape:window-maximized="1" />
  <metadata
     id="metadata3159">
    <rdf:RDF>
      <cc:Work
         rdf:about="">
        <dc:format>image/svg+xml</dc:format>
        <dc:type
           rdf:resource="http://purl.org/dc/dcmitype/StillImage" />
        <dc:title></dc:title>
      </cc:Work>
    </rdf:RDF>
  </metadata>
  <g
     inkscape:label="Calque 1"
     inkscape:groupmode="layer"
     id="layer1">
    <g
       transform="matrix(0.24788233,0,0,-0.24788233,-412.10098,1723.7615)"
       style="fill:#000000;stroke:none"
       id="g3134">
      <g
         style="fill:#000000;stroke:none"
         id="g1402"
         transform="matrix(0.42441567,0,0,0.42441567,1031.8002,4075.0244)"
         inkscape:label="#path1185">
        <g
           style="fill:#000000;stroke:none"
           transform="matrix(0.26945611,0,0,0.26945611,2305.0844,4918.1108)"
           id="g1260">
          <path
             inkscape:connector-curvature="0"
             d="m 859,2751 c -28,-29 -29,-32 -29,-129 v -99 L 745,2366 C 622,2140 586,2040 575,1890 557,1657 522,590 530,558 c 15,-51 49,-98 99,-133 l 43,-30 892,-3 893,-2 54,28 c 42,21 61,40 87,82 30,52 32,59 32,155 0,55 -11,368 -25,695 -31,741 -24,705 -192,1012 l -78,143 -5,113 c -5,109 -6,115 -33,138 l -28,24 H 1579 888 Z m 1399,-139 3,-93 -80,-147 c -173,-318 -165,-280 -197,-1027 -14,-330 -24,-648 -22,-706 3,-98 5,-108 31,-143 l 28,-36 -665,2 c -652,3 -665,3 -693,24 -15,11 -38,40 -50,65 l -22,44 24,610 c 13,336 29,652 35,704 15,132 48,221 156,420 l 94,175 v 96 c 0,53 3,100 7,103 3,4 308,6 677,5 l 671,-3 z m 130,-354 c 124,-245 118,-202 149,-998 26,-655 26,-676 9,-713 -35,-73 -60,-82 -238,-85 -176,-4 -210,5 -251,62 -32,45 -32,94 -3,796 26,615 31,667 71,779 22,63 165,332 173,327 4,-2 44,-78 90,-168 z M 2080,445 c 11,-13 8,-15 -18,-15 -24,0 -30,4 -26,15 4,8 12,15 19,15 7,0 18,-7 25,-15 z"
             id="path1244" />
          <path
             inkscape:connector-curvature="0"
             d="m 2267,1884 c -4,-4 -7,-265 -7,-579 0,-510 2,-574 16,-586 11,-9 20,-10 32,-2 16,9 17,60 17,589 v 579 l -25,3 c -14,2 -29,0 -33,-4 z"
             id="path1258" />
        </g>
        <path
           inkscape:connector-curvature="0"
           id="path1319"
           d="m 2626.8045,5042.7656 c -139.6761,1.5344 -145.526,1.8299 -152.1448,7.6854 -3.7858,3.3492 -9.4793,11.0623 -12.652,17.1401 -5.5469,10.6262 -5.5972,15.1311 -1.3077,117.2239 7.2349,172.1966 11.0202,241.9902 14.2292,262.3669 4.2228,26.8141 14.7864,52.5959 43.4653,106.0833 l 24.7835,46.2218 v 26.1536 26.1536 h 188.4043 188.4043 v -24.8432 -24.8431 l -23.1,-41.3944 c -38.6051,-69.179 -42.9141,-84.4303 -48.2467,-170.77 -4.6954,-76.0233 -9.824,-208.4526 -10.5535,-272.5075 -0.5886,-51.7103 -0.2343,-55.4509 6.2778,-66.2238 l 6.9017,-11.418 -39.5999,0.6882 c -21.7801,0.3782 -104.9677,1.4058 -184.8615,2.2835 z m -11.3219,104.0362 c 35.7927,10.282 55.0876,10.8526 88.0725,2.6044 43.9111,-10.9806 54.4972,-7.8547 54.4972,16.0917 0,14.7755 -5.028,27.6744 -21.4492,55.0261 -16.9739,28.2724 -31.2152,45.1894 -48.1234,57.1649 -9.9374,7.0383 -15.5803,8.7322 -29.0894,8.7322 -31.5035,0 -43.2441,-9.3388 -80.3847,-63.9403 -22.9594,-33.7532 -29.5994,-48.131 -29.5994,-64.0911 0,-8.8305 1.9126,-13.0573 8.0412,-17.7707 9.3129,-7.1625 12.9153,-6.7787 58.0352,6.1828 z m 186.4431,106.3963 c 24.4784,23.9334 31.7303,55.678 17.3982,76.1607 -9.5783,13.6886 -20.1171,12.9568 -39.0211,-2.7091 -25.5303,-21.1572 -35.444,-51.72 -23.8731,-73.5973 5.2769,-9.9771 8.5639,-11.7282 22.6429,-12.0625 7.8689,-0.1873 12.9542,2.5296 22.8531,12.2082 z m -237.1484,18.4708 c 6.4586,5.8832 7.0402,8.5449 5.6269,25.7593 -3.764,45.8467 -46.8733,80.6463 -64.63,52.172 -12.6673,-20.3134 -6.2522,-51.9191 14.8319,-73.0747 9.5038,-9.5359 13.4883,-11.4179 24.1736,-11.4179 8.7965,0 15.0452,2.0502 19.9976,6.5613 z m 166.1319,78.0557 c 20.1632,18.7537 32.3456,62.7746 24.1177,87.1503 -2.6767,7.9298 -6.9004,12.7418 -14.1516,16.1227 -9.8228,4.5798 -11.0804,4.4569 -25.3191,-2.4756 -21.2878,-10.3647 -29.3912,-26.7384 -29.6133,-59.836 -0.091,-13.5339 1.5233,-29.6088 3.5868,-35.7219 6.2542,-18.5284 24.5948,-20.8507 41.3795,-5.2395 z m -98.3288,1.398 c 3.5236,3.7679 8.6726,11.2357 11.4422,16.595 10.2245,19.7857 3.619,64.7361 -11.9223,81.1321 -10.2275,10.7898 -28.8251,11.1869 -41.0842,0.8772 -7.3545,-6.1854 -8.745,-9.9978 -9.8533,-27.0118 -1.7778,-27.3008 5.5062,-50.5183 20.7717,-66.2082 13.5045,-13.8802 21.4028,-15.2678 30.6459,-5.3843 z m 204.559,239.3373 c 21.7554,1.5401 28.4423,3.1239 31.1412,7.3762 2.6556,4.1837 2.3749,6.0812 -1.2341,8.3449 -2.8542,1.7902 -56.7403,2.6449 -138.5362,2.1969 -129.5532,-0.7094 -133.9025,-0.9226 -135.0244,-6.6212 -2.5821,-13.1153 4.126,-13.9214 113.0001,-13.5805 56.622,0.1775 115.4161,1.2051 130.6534,2.2837 z"
           style="opacity:0.81999972;fill:#00d500;fill-opacity:1;stroke-width:3.07925344" />
      </g>
      <path
         style="fill:#000000;stroke:none;stroke-width:0.38440329"
         id="path1359"
         d="m 1874.5936,6559.9268 c -23.0642,-9.9945 -39.5936,-45.3596 -34.5963,-73.4211 4.6128,-24.9861 18.4514,-34.9807 75.3431,-55.7385 59.5824,-21.9109 75.343,-23.4485 89.1815,-9.61 9.2257,9.2256 29.9835,59.5825 29.9835,73.0366 0,10.3789 -10.3789,26.9082 -19.989,31.9055 -21.1422,11.1476 -104.5577,39.2091 -115.7054,39.2091 -6.9193,-0.3844 -17.6825,-2.6908 -24.2174,-5.3816 z m 51.51,-14.223 c 11.9165,-4.2284 27.6771,-9.61 34.5963,-11.9165 9.9945,-2.6907 12.301,-4.9972 9.9945,-9.9944 -3.0752,-8.0725 -28.8303,-77.6495 -30.3678,-84.1843 -1.9221,-6.1505 -64.1954,17.6825 -76.4963,29.2146 -26.9082,25.3706 -4.2284,83.4155 33.4431,84.5687 3.844,0.3844 16.5293,-3.0752 28.8302,-7.6881 z m 93.0256,-42.2843 c 3.0753,-5.3816 3.0753,-11.1477 0,-20.7578 -4.9972,-15.3761 -5.766,-15.3761 -24.2174,-7.6881 -17.2981,7.3037 -25.755,7.3037 -25.755,0.3844 0,-3.0752 8.4569,-8.4568 19.6046,-11.9165 18.0669,-6.1504 19.2201,-7.3036 16.9137,-16.9137 -2.6909,-11.5321 -14.9917,-23.4486 -24.9862,-23.4486 -3.4596,0 -11.9165,1.922 -18.8358,4.2285 -9.2257,3.0751 -11.9165,6.1504 -9.9944,10.7632 1.5376,3.4597 7.688,20.7578 14.2229,38.4404 6.1505,17.6825 13.0697,36.1339 14.9917,41.5155 l 3.4597,9.2257 15.3761,-8.0724 c 8.0724,-4.2285 16.9137,-11.1478 19.2201,-15.7606 z"
         inkscape:connector-curvature="0" />
      <path
         inkscape:transform-center-y="-0.1638004"
         inkscape:transform-center-x="-1.9655866"
         id="path1361"
         d="m 2041.9763,6532.8337 c 1.8982,-2.8932 7.2878,-4.012 11.8533,-3.0861 14.3058,4.2136 36.3518,0.5729 53.0743,-9.1466 8.9605,-4.9842 20.4409,-9.8667 25.4692,-11.2231 12.5764,-2.6117 7.1524,-6.1704 -8.3172,-5.4571 -15.2326,0.3517 -25.7534,-11.207 -12.4537,-13.344 4.791,-0.9947 16.1926,-0.2386 25.3229,1.6136 l 16.5775,3.1173 0.2729,20.8707 c 0.1165,15.5939 -1.5235,21.2441 -6.9133,22.3632 -4.791,0.9951 -6.9722,-1.9882 -7.5268,-12.1807 -0.8148,-12.9495 -1.538,-13.4242 -6.2834,-6.1918 -7.1179,10.8488 -46.3495,26.4913 -65.7854,26.1542 -19.5603,-0.936 -30.0357,-6.2573 -25.2903,-13.4896 z"
         inkscape:connector-curvature="0"
         style="fill:#000000;stroke:none;stroke-width:0.43250662" />
      <path
         style="fill:#000000;stroke:none;stroke-width:0.38440329"
         id="path1363"
         d="m 1915.3753,6390.3094 c 0,-4.6128 7.688,-5.7661 46.1283,-5.7661 h 45.744 l 3.8441,-14.2229 c 2.3064,-8.0724 7.3036,-27.677 11.5321,-43.822 4.2284,-16.1449 14.9917,-56.8916 23.833,-90.3347 8.4569,-33.4431 16.1449,-61.5046 16.9137,-62.2734 0.7688,-0.7687 237.5612,9.9946 253.3218,11.9166 6.9193,0.7688 8.4568,7.6881 16.1449,69.9614 4.6128,38.0559 9.6101,77.6494 11.1477,87.6439 1.922,16.5293 1.5376,18.4514 -4.6128,17.2982 -5.7661,-1.1533 -8.0725,-12.3009 -16.5294,-81.8779 l -9.6101,-80.7247 -17.2982,-0.7688 c -53.0476,-2.6909 -185.6667,-8.8413 -203.3492,-9.6101 l -20.7578,-0.7689 -6.5349,26.9083 c -3.844,14.6073 -15.7605,61.5045 -26.9082,104.5577 l -20.3734,77.6494 h -51.1256 c -43.0532,0 -51.51,-0.7687 -51.51,-5.766 z"
         inkscape:connector-curvature="0" />
      <path
         style="fill:#000000;stroke:none;stroke-width:0.38440329"
         id="path1369"
         d="m 2278.252,6155.8234 c -30.3679,-12.6853 -33.4431,-51.8944 -5.3817,-68.4238 13.4541,-8.0725 23.833,-8.0725 38.4403,-0.7688 22.2954,11.5322 26.5238,40.3624 8.8413,59.1981 -13.0697,13.8386 -26.1394,16.9138 -41.8999,9.9945 z m 33.0586,-17.2981 c 10.3789,-10.3789 9.6101,-25.3707 -2.3064,-36.9027 -11.1477,-11.5321 -25.7551,-10.3789 -36.9027,3.0751 -8.8413,10.379 -8.8413,18.8358 1.1532,31.5211 9.6101,12.3009 26.9082,13.4541 38.0559,2.3065 z"
         inkscape:connector-curvature="0" />
      <path
         style="fill:#000000;stroke:none;stroke-width:0.38440329"
         id="path1371"
         d="m 2086.0503,6150.0573 c -15.3761,-6.1504 -25.3706,-23.4485 -23.4486,-39.5934 2.3064,-18.067 10.7633,-28.0615 28.0614,-33.4431 10.7634,-3.8441 15.7606,-3.0752 27.6771,2.6907 44.2064,21.5266 13.4541,88.7972 -32.2899,70.3458 z m 34.2119,-18.4513 c 8.0724,-7.3037 8.4569,-23.0642 0.3844,-34.5963 -8.8413,-12.6853 -30.3679,-10.3789 -41.1311,3.844 -6.5349,8.8413 -6.9193,11.9165 -3.0753,21.5267 8.0725,19.2201 27.6771,23.4485 43.822,9.2256 z"
         inkscape:connector-curvature="0" />
      <path
         style="opacity:0.81999972;fill:#800080;stroke:none;stroke-width:2.98659396"
         d="m 1907.9673,6439.1442 c -13.1198,4.5367 -30.8634,11.7971 -39.4301,16.1343 -29.364,14.8666 -36.1515,46.2678 -16.4186,75.9577 9.1069,13.7021 28.1278,25.9922 40.353,26.0738 8.0947,0.054 84.3625,-22.3421 88.5545,-26.0041 1.5814,-1.3815 -4.7446,-21.8145 -14.8444,-47.9482 -9.6801,-25.0475 -18.1921,-47.1612 -18.9157,-49.1415 -2.014,-5.5125 -13.1404,-4.1173 -39.2987,4.928 z"
         id="path1404"
         inkscape:connector-curvature="0" />
    </g>
  </g>
</svg>
