<?xml version="1.0" standalone="no"?>
<!DOCTYPE svg PUBLIC "-//W3C//DTD SVG 20010904//EN"
 "http://www.w3.org/TR/2001/REC-SVG-20010904/DTD/svg10.dtd">
<svg version="1.0" xmlns="http://www.w3.org/2000/svg"
 width="242.000000pt" height="130.000000pt" viewBox="0 0 242.000000 130.000000"
 preserveAspectRatio="xMidYMid meet">
<metadata>
Created by potrace 1.10, written by Peter Selinger 2001-2011
</metadata>
<g transform="translate(0.000000,130.000000) scale(0.050000,-0.050000)"
fill="#000000" stroke="none">
<path d="M1247 2278 c-191 -55 -241 -342 -79 -449 42 -27 52 -49 52 -118 l0
-85 -305 -12 c-401 -16 -605 -78 -773 -234 -86 -80 -63 -100 88 -79 434 62
935 121 944 112 10 -10 -29 -335 -105 -871 -34 -242 -31 -251 59 -164 163 158
230 372 246 785 l12 293 72 9 c63 8 81 -1 142 -66 216 -230 556 20 410 302
-86 166 -378 154 -449 -19 -44 -106 -181 -93 -181 17 0 58 9 81 36 90 203 64
215 383 18 472 -94 42 -98 43 -187 17z m162 -46 c176 -74 148 -412 -35 -412
-25 0 -31 -73 -40 -475 -10 -505 -23 -589 -120 -775 -62 -119 -67 -92 -32 165
12 89 18 178 14 198 -5 21 -20 -71 -34 -203 -24 -230 -57 -393 -60 -300 -2 40
65 567 98 770 16 99 17 93 10 -60 l-7 -170 27 180 c14 99 26 212 25 250 l-1
70 -14 -80 c-19 -108 -23 -28 -5 110 12 97 15 102 24 46 9 -52 17 -61 41 -46
23 15 25 27 8 55 -13 21 -19 80 -13 139 9 99 7 104 -54 135 -107 56 -170 196
-121 271 14 21 17 12 8 -33 -7 -35 -4 -77 5 -95 12 -21 17 6 16 79 -1 86 7
117 38 144 22 19 33 24 25 10 -17 -30 -10 -31 56 -6 66 25 160 -7 201 -70 108
-165 -119 -361 -263 -226 -25 24 -46 34 -46 22 0 -84 206 -113 290 -40 137
118 53 340 -128 340 -55 0 -76 7 -59 17 38 24 68 22 146 -10z m529 -510 c109
-102 54 -364 -75 -361 -22 0 -15 11 21 30 175 95 103 369 -97 369 -100 0 -187
-90 -187 -194 0 -77 44 -166 83 -166 11 0 1 24 -22 53 -94 119 -18 287 129
287 100 0 170 -72 170 -176 0 -108 -72 -174 -186 -171 l-84 1 70 -25 c39 -14
58 -27 44 -27 -55 -4 -163 57 -197 111 -49 77 -65 86 -152 87 -41 0 -75 9 -75
20 0 11 41 20 90 20 79 0 94 7 110 51 59 153 242 200 358 91z m-738 -182 c0
-31 -14 -41 -65 -42 l-65 -3 60 -13 c47 -11 18 -19 -130 -39 -104 -14 -284
-38 -400 -53 -355 -48 -454 -55 -420 -32 17 12 66 22 110 23 44 1 121 10 170
20 72 14 58 15 -70 7 l-160 -9 60 40 c184 124 910 205 910 101z"/>
<path d="M1222 2132 c-97 -104 -3 -273 136 -242 118 26 153 192 55 260 -62 44
-140 37 -191 -18z m190 -43 c43 -65 13 -142 -62 -161 -101 -25 -173 106 -99
181 48 47 123 38 161 -20z"/>
<path d="M1689 1671 c-60 -60 -63 -128 -8 -198 84 -106 259 -38 259 101 0 63
-85 146 -150 146 -28 0 -74 -22 -101 -49z m171 -31 c101 -101 -37 -243 -143
-147 -65 58 -14 187 73 187 17 0 48 -18 70 -40z"/>
<path d="M730 1448 l-180 -26 170 11 c94 6 211 18 260 27 l90 15 -80 0 c-44
-1 -161 -12 -260 -27z"/>
<path d="M2581 1927 c-39 -50 -41 -76 -41 -631 l0 -578 49 -49 49 -49 832 0
832 0 49 49 c41 41 49 68 49 170 l0 121 60 0 60 0 0 140 0 140 -60 0 c-55 0
-60 6 -60 70 0 64 5 70 60 70 l60 0 0 130 0 130 -60 0 c-60 0 -60 0 -60 117 0
89 -10 131 -41 170 l-42 53 -847 0 -847 0 -42 -53z m1699 -7 c55 -55 63 -1139
9 -1216 l-31 -44 -788 0 -788 0 -31 44 c-54 77 -46 1161 9 1216 39 39 67 40
810 40 743 0 771 -1 810 -40z m-1680 -605 l-10 -585 -5 560 c-5 496 -1 610 19
610 3 0 2 -263 -4 -585z m1755 -16 l-5 -569 -10 584 c-6 321 -3 577 5 569 9
-9 13 -272 10 -584z m125 211 c0 -49 -9 -90 -20 -90 -11 0 -20 41 -20 90 0 50
9 90 20 90 11 0 20 -40 20 -90z m0 -410 c0 -55 -9 -100 -20 -100 -11 0 -20 45
-20 100 0 55 9 100 20 100 11 0 20 -45 20 -100z"/>
<path d="M2721 1801 c-41 -76 -27 -969 16 -1008 58 -53 1421 -50 1470 4 29 31
33 98 33 516 0 490 -6 527 -78 527 -22 0 -18 -9 14 -31 52 -37 71 -954 20
-1005 -31 -31 -1379 -34 -1437 -3 -65 34 -60 962 5 1008 36 25 38 31 11 31
-18 0 -43 -17 -54 -39z"/>
<path d="M3413 1619 c-43 -161 -112 -191 -115 -50 l-2 81 -31 -75 c-28 -68
-38 -75 -113 -78 l-82 -4 79 -8 c59 -6 86 1 105 27 23 32 26 30 26 -23 0 -33
9 -72 20 -89 16 -25 19 -24 20 7 0 25 10 33 29 26 22 -8 37 12 54 73 34 121
57 135 57 37 0 -64 6 -81 25 -69 43 27 122 23 189 -10 59 -30 67 -29 103 3 27
24 54 31 92 21 42 -10 60 -3 86 33 l32 45 16 -43 c13 -35 30 -42 91 -40 76 3
76 3 10 12 -37 4 -70 21 -75 36 -31 101 -30 100 -73 32 -34 -54 -51 -64 -91
-54 -30 8 -68 0 -98 -19 -39 -25 -56 -27 -78 -9 -44 36 -163 57 -187 33 -16
-16 -23 1 -24 57 -4 172 -27 188 -65 48z"/>
<path d="M2788 1578 c-43 -71 94 -200 154 -146 48 43 77 107 64 141 -10 26
-201 31 -218 5z m192 -31 c0 -35 -59 -127 -81 -127 -25 0 -103 117 -91 137 19
30 172 21 172 -10z"/>
<path d="M3343 1155 c-12 -30 -29 -56 -38 -57 -229 -22 -273 -41 -95 -39 66 0
134 2 150 3 292 18 446 18 470 -2 16 -13 39 -17 52 -9 14 9 79 13 146 11 66
-2 115 2 107 10 -8 8 -55 13 -105 11 -81 -3 -94 3 -128 59 -38 61 -39 62 -45
15 -11 -76 -458 -74 -478 3 l-13 50 -23 -55z"/>
<path d="M2800 1100 c0 -21 22 -63 49 -94 l50 -56 50 60 c73 87 59 119 -54
124 -81 3 -95 -1 -95 -34z"/>
</g>
</svg>
