<?xml version="1.0" encoding="UTF-8" standalone="no"?>
<!-- Created with Inkscape (http://www.inkscape.org/) -->

<svg
   xmlns:dc="http://purl.org/dc/elements/1.1/"
   xmlns:cc="http://creativecommons.org/ns#"
   xmlns:rdf="http://www.w3.org/1999/02/22-rdf-syntax-ns#"
   xmlns:svg="http://www.w3.org/2000/svg"
   xmlns="http://www.w3.org/2000/svg"
   xmlns:sodipodi="http://sodipodi.sourceforge.net/DTD/sodipodi-0.dtd"
   xmlns:inkscape="http://www.inkscape.org/namespaces/inkscape"
   width="210mm"
   height="297mm"
   viewBox="0 0 210 297"
   version="1.1"
   id="svg6670"
   sodipodi:docname="icone chronovet carré livraison  ancien violet.svg"
   inkscape:version="0.92.5 (2060ec1f9f, 2020-04-08)">
  <defs
     id="defs6664" />
  <sodipodi:namedview
     id="base"
     pagecolor="#ffffff"
     bordercolor="#666666"
     borderopacity="1.0"
     inkscape:pageopacity="0.0"
     inkscape:pageshadow="2"
     inkscape:zoom="0.35"
     inkscape:cx="436.1925"
     inkscape:cy="823.0109"
     inkscape:document-units="mm"
     inkscape:current-layer="layer1"
     showgrid="false"
     inkscape:window-width="1920"
     inkscape:window-height="1009"
     inkscape:window-x="-8"
     inkscape:window-y="-8"
     inkscape:window-maximized="1" />
  <metadata
     id="metadata6667">
    <rdf:RDF>
      <cc:Work
         rdf:about="">
        <dc:format>image/svg+xml</dc:format>
        <dc:type
           rdf:resource="http://purl.org/dc/dcmitype/StillImage" />
        <dc:title></dc:title>
      </cc:Work>
    </rdf:RDF>
  </metadata>
  <g
     inkscape:label="Calque 1"
     inkscape:groupmode="layer"
     id="layer1">
    <path
       id="path3334-6-2"
       d="m 15.832657,4.2984862 c -2.36771,0.67648 -4.24685,2.33012 -5.75014,4.99848 -0.82684,1.5032998 -0.82684,1.6160498 -0.82684,18.6033798 v 17.10007 l 0.93959,1.84155 c 1.0523,2.02946 2.48045,3.42001 4.6978,4.39716 1.39058,0.6389 2.8563,0.71406 18.18996,0.71406 12.02644,0 17.10009,-0.11274 18.22757,-0.45098 2.067033,-0.60133 5.186403,-3.72068 5.787713,-5.78772 0.33824,-1.12748 0.45099,-6.16354 0.45099,-18.03964 0,-15.78468 -0.0376,-16.57391 -0.78923,-18.1899698 -0.93956,-2.06704 -2.33014,-3.57034 -4.28442,-4.62265 -1.465723,-0.82682 -1.879113,-0.82682 -18.415463,-0.90199 -10.52311,-0.0376 -17.40073,0.0752 -18.22753,0.33825 z"
       inkscape:connector-curvature="0"
       style="fill:#660e3f;fill-opacity:0.92696078;stroke:none;stroke-width:0.03758258;stroke-opacity:1" />
    <g
       style="fill:#ffffff"
       id="g1068-40-4-2"
       transform="translate(-237.30877,-123.78774)">
      <g
         id="g9145-14-5-8"
         transform="matrix(0.16115891,0,0,0.17409438,352.56114,151.33905)"
         style="fill:#ffffff">
        <g
           style="fill:#ffffff"
           id="g248-4-1-6">
          <g
             style="fill:#ffffff;stroke:none"
             id="g9129-4-6-4"
             transform="matrix(0.12852483,0,0,-0.12852483,212.21717,968.13551)">
            <path
               id="path1244-8-3-9-6"
               d="m -5797.6545,7995.6324 c -7.5448,-7.8143 -7.8143,-8.6226 -7.8143,-34.7599 v -26.6761 l -22.9037,-42.3046 c -33.1431,-60.8971 -42.8435,-87.8427 -45.8076,-128.2612 -4.8502,-62.7832 -14.2811,-350.2929 -12.1255,-358.9155 4.0419,-13.7423 13.2034,-26.4067 26.6762,-35.8377 l 11.5866,-8.0836 240.3548,-0.8084 240.6243,-0.5389 14.5507,7.5447 c 11.3171,5.6586 16.4368,10.7783 23.4427,22.0955 8.0836,14.0117 8.6226,15.8978 8.6226,41.7656 0,14.8201 -2.9641,99.1599 -6.7364,187.272 -8.3532,199.667 -6.467,189.9666 -51.7356,272.6896 l -21.0176,38.5323 -1.3473,30.4485 c -1.3472,29.3707 -1.6167,30.9874 -8.892,37.1849 l -7.5448,6.467 h -185.9247 -186.1942 z m 376.9691,-37.4544 0.8084,-25.0595 -21.5565,-39.61 c -46.616,-85.6871 -44.4603,-75.4477 -53.0829,-276.7314 -3.7724,-88.9206 -6.4669,-174.6076 -5.928,-190.236 0.8083,-26.4068 1.3472,-29.1013 8.3531,-38.5323 l 7.5448,-9.7004 -179.1883,0.5389 c -175.6854,0.8084 -179.1884,0.8084 -186.7331,6.4669 -4.0419,2.9641 -10.2394,10.7783 -13.4728,17.5147 l -5.9281,11.8561 6.467,164.3682 c 3.5029,90.5373 7.8142,175.6854 9.4309,189.6971 4.0419,35.5682 12.9339,59.5498 42.0352,113.1716 l 25.3289,47.1548 v 25.8678 c 0,14.2812 0.8083,26.9456 1.8862,27.754 0.8083,1.0778 82.9925,1.6167 182.4218,1.3472 l 180.805,-0.8083 z m 35.0293,-95.3875 c 33.4125,-66.0168 31.7958,-54.4301 40.1489,-268.9172 7.0059,-176.4938 7.0059,-182.1523 2.4251,-192.1222 -9.4309,-19.6703 -16.1673,-22.0954 -64.1305,-22.9038 -47.4243,-1.0778 -56.5858,1.3473 -67.6335,16.7063 -8.6226,12.1255 -8.6226,25.3289 -0.8084,214.4871 7.0059,165.7155 8.3532,179.7272 19.1314,209.9063 5.928,16.9757 44.4603,89.4594 46.6159,88.1121 1.0779,-0.5389 11.8561,-21.0176 24.2511,-45.2686 z m -82.9925,-488.5239 c 2.964,-3.503 2.1556,-4.0419 -4.8502,-4.0419 -6.4669,0 -8.0837,1.0778 -7.0059,4.0419 1.0778,2.1556 3.2335,4.0418 5.1197,4.0418 1.8862,0 4.8502,-1.8862 6.7364,-4.0418 z"
               inkscape:connector-curvature="0"
               style="fill:#ffffff;stroke:none;stroke-width:0.26945612" />
            <path
               style="opacity:1;fill:#ffffff;fill-opacity:1;stroke:none;stroke-width:3.07925344"
               d="m -5716.5297,7373.9305 c -139.6761,1.5344 -145.526,1.8299 -152.1448,7.6854 -3.7858,3.3492 -9.4793,11.0623 -12.652,17.1401 -5.5469,10.6262 -5.5972,15.1311 -1.3077,117.2239 7.2349,172.1966 11.0202,241.9902 14.2292,262.3669 4.2228,26.8141 14.7864,52.5959 43.4653,106.0833 l 24.7835,46.2218 v 26.1536 26.1536 h 188.4043 188.4043 v -24.8432 -24.8431 l -23.1,-41.3944 c -38.6051,-69.179 -42.9141,-84.4303 -48.2467,-170.77 -4.6954,-76.0233 -9.824,-208.4526 -10.5535,-272.5075 -0.5886,-51.7103 -0.2343,-55.4509 6.2778,-66.2238 l 6.9017,-11.418 -39.5999,0.6882 c -21.7801,0.3782 -104.9677,1.4058 -184.8615,2.2835 z m -11.3219,104.0362 c 35.7927,10.282 55.0876,10.8526 88.0725,2.6044 43.9111,-10.9806 54.4972,-7.8547 54.4972,16.0917 0,14.7755 -5.028,27.6744 -21.4492,55.0261 -16.9739,28.2724 -31.2152,45.1894 -48.1234,57.1649 -9.9374,7.0383 -15.5803,8.7322 -29.0894,8.7322 -31.5035,0 -43.2441,-9.3388 -80.3847,-63.9403 -22.9594,-33.7532 -29.5994,-48.131 -29.5994,-64.0911 0,-8.8305 1.9126,-13.0573 8.0412,-17.7707 9.3129,-7.1625 12.9153,-6.7787 58.0352,6.1828 z m 186.4431,106.3963 c 24.4784,23.9334 31.7303,55.678 17.3982,76.1607 -9.5783,13.6886 -20.1171,12.9568 -39.0211,-2.7091 -25.5303,-21.1572 -35.444,-51.72 -23.8731,-73.5973 5.2769,-9.9771 8.5639,-11.7282 22.6429,-12.0625 7.8689,-0.1873 12.9542,2.5296 22.8531,12.2082 z m -237.1484,18.4708 c 6.4586,5.8832 7.0402,8.5449 5.6269,25.7593 -3.764,45.8467 -46.8733,80.6463 -64.63,52.172 -12.6673,-20.3134 -6.2522,-51.9191 14.8319,-73.0747 9.5038,-9.5359 13.4883,-11.4179 24.1736,-11.4179 8.7965,0 15.0452,2.0502 19.9976,6.5613 z m 166.1319,78.0557 c 20.1632,18.7537 32.3456,62.7746 24.1177,87.1503 -2.6767,7.9298 -6.9004,12.7418 -14.1516,16.1227 -9.8228,4.5798 -11.0804,4.4569 -25.3191,-2.4756 -21.2878,-10.3647 -29.3912,-26.7384 -29.6133,-59.836 -0.091,-13.5339 1.5233,-29.6088 3.5868,-35.7219 6.2542,-18.5284 24.5948,-20.8507 41.3795,-5.2395 z m -98.3288,1.398 c 3.5236,3.7679 8.6726,11.2357 11.4422,16.595 10.2245,19.7857 3.619,64.7361 -11.9223,81.1321 -10.2275,10.7898 -28.8251,11.1869 -41.0842,0.8772 -7.3545,-6.1854 -8.745,-9.9978 -9.8533,-27.0118 -1.7778,-27.3008 5.5062,-50.5183 20.7717,-66.2082 13.5045,-13.8802 21.4028,-15.2678 30.6459,-5.3843 z m 204.559,239.3373 c 21.7554,1.5401 28.4423,3.1239 31.1412,7.3762 2.6556,4.1837 2.3749,6.0812 -1.2341,8.3449 -2.8542,1.7902 -56.7403,2.6449 -138.5362,2.1969 -129.5532,-0.7094 -133.9025,-0.9226 -135.0244,-6.6212 -2.5821,-13.1153 4.126,-13.9214 113.0001,-13.5805 56.622,0.1775 115.4161,1.2051 130.6534,2.2837 z"
               id="path1319-6-4-6-2"
               inkscape:connector-curvature="0" />
          </g>
          <g
             id="g9062-9-8-8"
             transform="matrix(0.03527778,0,0,-0.03527778,-662.69345,157.63244)"
             style="fill:#ffffff;stroke:none">
            <path
               style="fill:#ffffff"
               id="path9044-1-2-5"
               d="m 2893,6348 c -13,-6 -23,-15 -23,-20 0,-4 -5,-8 -11,-8 -33,0 -174,-139 -206,-202 -55,-110 -53,-95 -53,-430 1,-172 5,-450 10,-618 6,-168 14,-557 19,-864 7,-353 14,-579 22,-610 18,-79 46,-132 92,-171 75,-64 112,-75 264,-75 74,0 143,-4 153,-10 27,-14 117,8 158,39 19,14 52,52 75,85 77,114 216,233 293,252 16,4 35,12 42,17 17,13 120,30 187,30 64,0 164,-16 190,-30 11,-6 44,-22 73,-34 28,-13 52,-27 52,-31 0,-5 6,-8 13,-8 24,0 117,-91 176,-174 33,-46 77,-96 97,-111 l 37,-29 h 777 777 l 39,24 c 49,30 51,33 122,122 57,71 129,138 150,138 5,0 12,7 16,15 3,8 14,15 24,15 11,0 25,7 32,15 7,8 22,15 34,15 12,0 27,5 34,12 29,29 231,42 327,20 113,-27 201,-84 325,-216 47,-48 94,-92 105,-97 11,-5 27,-13 35,-18 65,-39 204,-69 261,-56 19,4 104,10 189,14 172,8 205,17 255,73 42,46 63,93 70,163 4,33 8,240 10,460 4,418 -7,657 -32,686 -7,8 -13,20 -13,25 0,28 -136,147 -180,157 -14,3 -43,10 -65,16 -22,6 -61,11 -86,11 -69,0 -92,35 -118,175 -4,22 -12,56 -18,75 -6,19 -19,62 -28,95 -9,33 -21,74 -27,90 -5,17 -14,46 -18,65 -12,52 -52,164 -79,219 -20,42 -89,121 -105,121 -7,0 -18,6 -24,12 -29,29 -149,36 -580,37 -266,1 -460,-3 -503,-10 -103,-16 -157,-58 -183,-144 -5,-16 -12,-350 -15,-741 l -6,-710 -29,-45 c -37,-57 -74,-89 -93,-82 -12,5 -14,17 -9,62 3,31 6,452 7,937 1,790 -1,884 -15,912 -9,17 -16,37 -16,44 0,30 -65,135 -114,183 -30,30 -103,85 -112,85 -4,0 -16,8 -27,18 -18,16 -99,17 -1376,19 -964,1 -1363,-1 -1378,-9 z m 2736,-152 c 28,-19 58,-41 65,-49 24,-23 86,-125 86,-140 0,-8 7,-31 16,-52 14,-33 14,-132 8,-919 -4,-484 -4,-930 1,-989 l 7,-108 61,7 c 34,3 72,12 84,20 12,8 27,14 33,14 17,0 113,76 130,102 31,49 43,74 53,113 7,25 13,307 16,747 l 6,707 23,23 23,23 h 512 512 l 35,-27 c 19,-15 42,-42 51,-60 26,-53 67,-166 79,-218 4,-19 13,-48 18,-65 28,-83 42,-134 42,-150 0,-10 6,-38 14,-64 13,-42 27,-94 43,-161 8,-35 49,-86 87,-108 17,-11 79,-26 141,-36 l 110,-16 58,-62 57,-61 v -549 c 0,-616 3,-590 -72,-629 -33,-17 -60,-19 -243,-19 h -205 l -64,31 c -48,23 -88,56 -161,131 -54,55 -107,104 -119,109 -11,5 -34,18 -51,29 -16,11 -37,22 -45,26 -158,62 -303,80 -406,49 -27,-8 -59,-15 -71,-15 -12,0 -34,-6 -50,-14 -15,-8 -50,-25 -76,-38 -96,-46 -158,-92 -217,-160 -25,-29 -67,-74 -94,-100 l -48,-48 h -745 -744 l -26,28 c -14,15 -36,43 -48,62 -43,66 -173,190 -225,213 -8,4 -30,16 -49,28 -41,24 -103,48 -156,59 -154,32 -174,34 -243,21 -37,-7 -86,-16 -110,-20 -24,-4 -48,-13 -54,-19 -7,-7 -19,-12 -28,-12 -9,0 -37,-11 -61,-25 -24,-13 -54,-29 -67,-35 -27,-12 -222,-204 -222,-219 0,-6 -14,-26 -31,-46 l -31,-35 h -158 c -180,0 -227,13 -273,74 -24,31 -27,44 -32,162 -19,441 -25,647 -26,954 -1,190 -5,449 -9,575 -23,651 -23,702 -4,752 33,88 66,130 164,207 l 45,35 h 1316 l 1317,1 z"
               inkscape:connector-curvature="0" />
            <path
               style="fill:#ffffff"
               id="path9046-7-0-8"
               d="m 6625,5591 c -130,-8 -169,-23 -216,-82 l -34,-43 -3,-255 c -2,-140 -1,-273 2,-295 4,-28 19,-55 44,-84 l 37,-42 483,-1 c 266,0 486,2 489,5 4,3 -1,21 -9,38 -24,51 -39,98 -48,150 -5,27 -12,53 -16,60 -4,7 -11,30 -15,53 -11,60 -30,126 -45,163 -8,18 -14,43 -14,55 0,12 -7,31 -15,41 -8,11 -15,28 -15,38 0,10 -8,31 -17,46 -20,33 -94,102 -108,102 -6,0 -16,5 -23,12 -35,35 -255,53 -477,39 z m 317,-131 c 116,-13 175,-51 191,-120 6,-29 23,-80 43,-128 8,-18 14,-44 14,-58 0,-14 6,-40 14,-57 16,-38 36,-109 43,-155 l 5,-33 -373,4 -374,5 -3,249 c -2,203 0,252 12,268 12,17 30,21 128,26 191,9 210,9 300,-1 z"
               inkscape:connector-curvature="0" />
            <path
               style="fill:#ffffff"
               id="path9048-7-5-4"
               d="m 1398,4502 c -2,-30 0,-59 4,-65 5,-9 133,-11 513,-9 l 506,2 -3,61 -3,61 -507,1 -506,2 z"
               inkscape:connector-curvature="0" />
            <path
               style="fill:#ffffff"
               id="path9054-7-8-54"
               d="m 891,4130 c -4,-8 -7,-37 -7,-65 l 1,-50 768,-3 768,-2 -3,65 -3,66 -758,2 c -666,2 -760,0 -766,-13 z"
               inkscape:connector-curvature="0" />
            <path
               style="fill:#ffffff"
               id="path9056-1-9-8"
               d="m 378,3730 c -1,-5 -2,-36 0,-67 l 4,-58 1016,2 1017,2 3,66 3,65 H 1401 c -658,0 -1021,-3 -1023,-10 z"
               inkscape:connector-curvature="0" />
            <path
               style="fill:#ffffff"
               id="path9058-9-0-5"
               d="m 3831,3703 c -25,-3 -54,-11 -65,-19 -11,-8 -28,-14 -38,-14 -32,0 -137,-72 -195,-133 -123,-131 -183,-335 -138,-462 8,-22 15,-48 15,-57 0,-39 68,-146 135,-214 54,-55 88,-80 148,-108 42,-20 88,-36 102,-36 13,0 46,-5 72,-10 74,-16 268,21 305,58 7,7 17,12 23,12 34,0 180,162 216,240 50,107 65,271 33,347 -58,137 -74,162 -149,238 -60,60 -82,77 -122,94 -11,6 -24,15 -28,20 -3,6 -16,11 -28,11 -13,0 -32,6 -43,14 -21,15 -163,26 -243,19 z m 219,-132 c 19,-8 42,-18 50,-22 8,-5 24,-13 35,-18 27,-12 73,-57 110,-106 141,-187 103,-432 -89,-573 -74,-55 -109,-65 -227,-69 -103,-4 -109,-3 -172,27 -61,30 -147,102 -174,146 -59,94 -81,195 -63,291 7,37 19,78 27,90 7,12 13,27 13,33 0,19 63,95 105,126 41,31 72,49 135,77 42,20 196,18 250,-2 z"
               inkscape:connector-curvature="0" />
            <path
               style="fill:#ffffff"
               id="path9060-11-3-8"
               d="m 6650,3671 c -30,-4 -65,-12 -77,-19 -12,-7 -30,-12 -41,-12 -11,0 -22,-7 -26,-15 -3,-8 -14,-15 -26,-15 -27,0 -181,-154 -209,-210 -12,-25 -26,-52 -31,-60 -23,-40 -42,-140 -38,-200 4,-66 23,-153 39,-180 5,-8 11,-21 14,-27 20,-52 35,-75 83,-128 44,-50 124,-115 140,-115 5,0 15,-7 22,-15 7,-8 20,-15 30,-15 9,0 32,-8 51,-17 27,-14 61,-17 160,-17 123,0 168,8 229,45 8,5 25,13 37,19 29,12 68,44 129,106 51,52 98,136 128,229 21,64 21,203 1,252 -8,19 -15,41 -15,49 0,51 -158,241 -232,278 -18,9 -40,20 -48,25 -66,39 -204,57 -320,42 z m 208,-120 c 9,-6 39,-20 67,-33 56,-26 175,-140 175,-167 0,-10 6,-24 14,-30 14,-11 19,-35 32,-134 7,-54 -11,-156 -35,-202 -37,-70 -132,-175 -157,-175 -6,0 -17,-7 -24,-15 -7,-8 -20,-15 -29,-15 -9,0 -29,-7 -45,-15 -40,-21 -184,-20 -233,2 -95,41 -114,52 -145,79 -44,39 -98,108 -98,126 0,8 -5,19 -11,25 -6,6 -17,43 -25,83 -30,143 17,277 134,385 31,30 54,43 132,78 40,18 218,23 248,8 z"
               inkscape:connector-curvature="0" />
          </g>
        </g>
      </g>
    </g>
  </g>
</svg>
