<?xml version="1.0" encoding="UTF-8" standalone="no"?>
<!-- Created with Inkscape (http://www.inkscape.org/) -->

<svg
   xmlns:dc="http://purl.org/dc/elements/1.1/"
   xmlns:cc="http://creativecommons.org/ns#"
   xmlns:rdf="http://www.w3.org/1999/02/22-rdf-syntax-ns#"
   xmlns:svg="http://www.w3.org/2000/svg"
   xmlns="http://www.w3.org/2000/svg"
   xmlns:sodipodi="http://sodipodi.sourceforge.net/DTD/sodipodi-0.dtd"
   xmlns:inkscape="http://www.inkscape.org/namespaces/inkscape"
   width="210mm"
   height="297mm"
   viewBox="0 0 210 297"
   version="1.1"
   id="svg893"
   inkscape:version="0.92.5 (2060ec1f9f, 2020-04-08)"
   sodipodi:docname="icone une clinique pour vos animaux  violet ancien site page de présentation.svg">
  <defs
     id="defs887" />
  <sodipodi:namedview
     id="base"
     pagecolor="#ffffff"
     bordercolor="#666666"
     borderopacity="1.0"
     inkscape:pageopacity="0.0"
     inkscape:pageshadow="2"
     inkscape:zoom="0.35"
     inkscape:cx="400"
     inkscape:cy="560"
     inkscape:document-units="mm"
     inkscape:current-layer="layer1"
     showgrid="false"
     inkscape:window-width="1920"
     inkscape:window-height="1009"
     inkscape:window-x="-8"
     inkscape:window-y="-8"
     inkscape:window-maximized="1" />
  <metadata
     id="metadata890">
    <rdf:RDF>
      <cc:Work
         rdf:about="">
        <dc:format>image/svg+xml</dc:format>
        <dc:type
           rdf:resource="http://purl.org/dc/dcmitype/StillImage" />
        <dc:title></dc:title>
      </cc:Work>
    </rdf:RDF>
  </metadata>
  <g
     inkscape:label="Calque 1"
     inkscape:groupmode="layer"
     id="layer1">
    <g
       transform="matrix(0.10191314,0,0,-0.10191314,-111.94301,522.85505)"
       style="fill:#000000;stroke:none"
       id="g869">
      <path
         inkscape:connector-curvature="0"
         id="path1718-5-6-6-6-5"
         d="m 1331.171,4601.1852 c -54.711,6.4718 -104.591,31.8256 -143.154,72.7654 -97.813,103.8407 -82.987,266.3098 32.038,351.091 45.902,33.8333 107.408,50.1949 163.813,43.5771 51.513,-6.0438 97.293,-27.2915 134.176,-62.2741 50.337,-47.7428 74.879,-104.1025 74.764,-171.6928 -0.07,-38.3375 -6.067,-65.4224 -21.908,-98.8629 -14.061,-29.6842 -28.402,-49.754 -50.337,-70.446 -22.294,-21.0311 -35.345,-29.9075 -63.481,-43.1743 -25.88,-12.2033 -43.418,-17.1876 -73.671,-20.9373 -23.108,-2.8641 -28.377,-2.8688 -52.24,-0.046 z"
         style="opacity:1;fill:#800080;fill-opacity:0.81960784;fill-rule:nonzero;stroke:none;stroke-width:5.44639254;stroke-miterlimit:4;stroke-dasharray:none;stroke-opacity:1" />
      <g
         style="fill:#ffffff"
         transform="matrix(0.42962796,0,0,0.42962796,1091.605,1419.2779)"
         id="g798">
        <g
           id="g780"
           transform="matrix(0.17307767,0,0,0.17307767,89.044355,7456.0981)"
           style="fill:#ffffff;stroke:none">
          <path
             style="fill:#ffffff"
             id="path772"
             d="M 1950,4337 C 1301,3789 768,3333 765,3324 c -4,-10 98,-97 224,-195 l 231,-178 v -114 -114 l 55,17 c 242,74 403,61 521,-42 36,-32 78,-58 93,-58 48,0 111,-101 111,-177 0,-39 15,-110 33,-158 41,-109 20,-164 -91,-234 -115,-72 -128,-106 -100,-264 13,-76 18,-197 11,-280 -12,-143 -11,-147 33,-147 170,0 194,-235 45,-430 -71,-94 -29,-110 281,-110 233,0 251,3 237,35 -72,171 -26,328 151,515 63,66 151,175 196,243 212,315 471,300 703,-40 53,-79 135,-179 181,-223 169,-162 207,-305 130,-495 -13,-32 6,-35 255,-35 h 269 l -27,104 c -38,146 -37,155 55,423 93,270 97,418 16,577 -73,143 20,269 131,177 42,-35 88,-3 130,91 90,204 277,-33 293,-372 8,-161 36,-302 73,-370 32,-57 33,-18 34,693 l 1,753 230,194 c 127,106 230,200 230,208 0,12 -478,419 -2060,1754 l -310,262 z m 1484,162 c 418,-203 519,-743 203,-1088 -427,-468 -1197,-167 -1197,469 0,515 528,844 994,619 z M 2954,2472 c 229,-247 32,-696 -236,-537 -69,40 -158,206 -158,294 1,279 230,421 394,243 z m 670,10 c 208,-231 -88,-727 -319,-533 -79,67 -113,169 -98,295 31,266 269,402 417,238 z M 2472,2009 c 83,-62 128,-163 128,-288 0,-327 -424,-253 -456,80 -22,238 145,344 328,208 z m 1590,-7 c 146,-147 18,-467 -199,-496 -242,-33 -282,363 -52,515 88,58 180,51 251,-19 z"
             inkscape:connector-curvature="0" />
          <path
             style="fill:#ffffff"
             id="path774"
             d="m 2995,4479 c -303,-75 -488,-328 -470,-639 44,-761 1161,-768 1211,-8 26,412 -354,744 -741,647 z m 305,-298 v -139 l 145,-6 145,-6 v -150 -150 l -144,-6 -144,-6 -6,-144 -6,-144 h -160 -160 l -6,144 -6,144 -144,6 -144,6 v 150 150 l 145,6 145,6 v 139 139 h 170 170 z"
             inkscape:connector-curvature="0" />
          <path
             style="fill:#ffffff"
             id="path776"
             d="m 1480,2716 c -27,-11 -83,-20 -124,-18 -66,3 -80,-5 -123,-72 -27,-42 -76,-102 -111,-135 -75,-71 -77,-101 -12,-223 28,-52 50,-113 50,-136 0,-34 10,-28 53,33 102,143 109,40 15,-239 -40,-118 -48,-183 -48,-374 v -231 l -61,12 c -164,33 -182,-122 -39,-342 l 101,-154 -96,17 C 839,896 417,828 435,750 c 5,-21 1234,-37 1371,-17 81,12 119,59 72,89 -15,9 -44,12 -63,6 -52,-16 -43,17 28,104 177,220 177,400 0,384 l -72,-6 9,90 c 21,198 6,429 -37,549 -47,131 -54,191 -23,191 11,0 20,-36 20,-80 0,-84 29,-107 50,-40 7,22 52,63 100,91 105,62 121,99 80,195 -16,40 -30,105 -30,143 0,73 -55,151 -107,151 -14,0 -47,23 -73,50 -72,76 -190,104 -280,66 z"
             inkscape:connector-curvature="0" />
          <path
             style="fill:#ffffff"
             id="path778"
             d="m 4700,2191 c -11,-30 -20,-65 -20,-79 0,-39 -155,-85 -185,-55 -71,71 -113,16 -62,-83 91,-174 90,-349 -4,-610 -145,-405 -65,-612 245,-638 374,-31 509,91 514,466 2,183 7,210 47,253 74,79 40,153 -38,82 -73,-66 -97,-139 -97,-297 0,-130 -37,-290 -67,-290 -4,0 -4,56 1,125 9,110 2,147 -62,307 -40,100 -72,208 -73,240 0,32 -13,80 -27,107 -16,28 -23,79 -17,124 22,161 -112,461 -155,348 z"
             inkscape:connector-curvature="0" />
        </g>
      </g>
    </g>
  </g>
</svg>
