<?xml version="1.0" encoding="UTF-8" standalone="no"?>
<!-- Created with Inkscape (http://www.inkscape.org/) -->

<svg
   xmlns:dc="http://purl.org/dc/elements/1.1/"
   xmlns:cc="http://creativecommons.org/ns#"
   xmlns:rdf="http://www.w3.org/1999/02/22-rdf-syntax-ns#"
   xmlns:svg="http://www.w3.org/2000/svg"
   xmlns="http://www.w3.org/2000/svg"
   xmlns:sodipodi="http://sodipodi.sourceforge.net/DTD/sodipodi-0.dtd"
   xmlns:inkscape="http://www.inkscape.org/namespaces/inkscape"
   width="210mm"
   height="297mm"
   viewBox="0 0 210 297"
   version="1.1"
   id="svg5632"
   sodipodi:docname="icone chirurgie  vert.svg"
   inkscape:version="0.92.5 (2060ec1f9f, 2020-04-08)">
  <defs
     id="defs5626" />
  <sodipodi:namedview
     id="base"
     pagecolor="#ffffff"
     bordercolor="#666666"
     borderopacity="1.0"
     inkscape:pageopacity="0.0"
     inkscape:pageshadow="2"
     inkscape:zoom="0.56568542"
     inkscape:cx="636.08398"
     inkscape:cy="482.91462"
     inkscape:document-units="mm"
     inkscape:current-layer="g12817"
     showgrid="false"
     inkscape:window-width="1920"
     inkscape:window-height="1009"
     inkscape:window-x="-8"
     inkscape:window-y="-8"
     inkscape:window-maximized="1"
     showguides="false"
     inkscape:lockguides="true" />
  <metadata
     id="metadata5629">
    <rdf:RDF>
      <cc:Work
         rdf:about="">
        <dc:format>image/svg+xml</dc:format>
        <dc:type
           rdf:resource="http://purl.org/dc/dcmitype/StillImage" />
        <dc:title />
      </cc:Work>
    </rdf:RDF>
  </metadata>
  <g
     inkscape:label="Calque 1"
     inkscape:groupmode="layer"
     id="layer1">
    <g
       id="g12817"
       transform="matrix(0.03527778,0,0,-0.03527778,34.14934,172.13688)"
       style="fill:#000000;stroke:none">
      <g
         id="g16969">
        <path
           inkscape:connector-curvature="0"
           id="path1718"
           d="M 92.392725,211.72254 C 72.665915,209.38908 54.681205,200.24744 40.776735,185.4861 5.5090548,148.04503 10.854555,89.464768 52.328205,58.895849 c 16.5507,-12.198997 38.72751,-18.09839 59.065015,-15.712256 18.57363,2.179184 35.08033,9.840282 48.379,22.453699 18.1495,17.21427 26.99839,37.535458 26.95705,61.905988 -0.0235,13.82306 -2.18754,23.58885 -7.89917,35.64624 -5.07006,10.70302 -10.24082,17.93942 -18.14964,25.40019 -8.0384,7.58303 -12.74427,10.78356 -22.88886,15.56704 -9.33144,4.40004 -15.65498,6.19719 -26.56303,7.54918 -8.33208,1.03271 -10.2317,1.03438 -18.835845,0.0166 z"
           style="opacity:1;fill:#00d600;fill-opacity:0.81960784;fill-rule:nonzero;stroke:none;stroke-width:1.96376443;stroke-miterlimit:4;stroke-dasharray:none;stroke-opacity:1"
           transform="matrix(28.346455,0,0,-28.346455,-968.01273,4879.4703)" />
        <path
           style="stroke-width:1.2480576"
           inkscape:connector-curvature="0"
           d="m 1679.2583,3381.25 c -230.8906,-34.9456 -420.5954,-91.1082 -602.8118,-180.9683 -262.0921,-129.798 -331.98333,-258.348 -366.92894,-671.455 -19.96892,-242.1232 1.24806,-727.6176 33.69756,-762.5632 18.72086,-19.9689 17.4728,-24.9612 -11.23252,-67.3951 -91.10821,-136.0383 -28.70533,-358.1926 127.30187,-451.7969 36.19367,-21.217 87.36404,-42.434 116.06936,-47.4262 38.68977,-6.2403 52.41837,-14.9767 58.65867,-36.1937 13.7287,-53.6664 111.0772,-229.64257 167.2397,-304.52603 72.3874,-93.60432 177.2242,-189.70475 265.8363,-243.37123 61.1548,-37.44173 66.1471,-43.68202 59.9068,-78.62763 -13.7287,-79.87568 -66.1471,-170.98389 -137.2864,-239.62706 l -72.3873,-68.64317 -14.9767,51.17037 c -31.2014,108.58101 -87.364,163.49554 -168.4878,163.49554 -121.0615,0 -177.22413,-159.75137 -89.8601,-250.85958 39.9378,-42.43396 27.4573,-44.93007 -59.90677,-13.72863 -59.90676,19.96892 -62.40288,19.96892 -78.62763,-1.24806 -21.21698,-29.95338 -12.48057,-54.91453 29.95339,-77.37957 C 959.12908,87.62597 962.87325,81.38569 949.14462,77.64151 723.24619,6.5022303 577.22345,-67.13317 474.88273,-164.48166 386.27064,-248.10152 307.64301,-372.90728 315.13136,-421.58153 l 3.74417,-27.45727 H 1885.1878 c 1502.6614,0 1566.3123,1.24806 1570.0565,22.46504 8.7364,44.93007 -63.651,163.49555 -152.263,253.35569 -104.8369,103.58879 -198.4412,152.26303 -500.4711,260.84404 -279.5649,101.09267 -330.7353,124.80576 -330.7353,154.75915 0,28.70532 -31.2015,49.9223 -62.4029,42.43396 -43.682,-11.23252 -149.7669,144.77468 -168.4878,249.61152 -8.7364,42.43396 -6.2403,46.17813 39.9379,68.64316 138.5344,71.13929 310.7663,262.0921 399.3784,444.30854 28.7053,61.1548 53.6665,118.5654 53.6665,127.3019 0,8.7364 23.7131,18.7208 53.6665,23.713 188.4567,32.4495 323.2469,229.6427 283.309,414.3552 -7.4883,33.6975 -24.9611,74.8834 -38.6897,93.6043 -23.7131,33.6976 -23.7131,36.1937 -2.4962,68.6432 19.969,31.2014 22.4651,72.3873 22.4651,453.0449 0,308.2702 -4.9923,440.5643 -17.4728,505.4633 -37.4418,189.7048 -96.1005,302.03 -192.2009,376.9134 -122.3096,92.3563 -376.9134,195.9451 -607.8041,247.1154 -91.1082,19.9689 -471.7657,36.1937 -555.3856,23.7131 z m 561.6259,-79.8757 c 309.5183,-69.8912 567.8662,-194.697 650.238,-313.2624 81.1238,-118.5655 117.3175,-324.495 118.5655,-682.6875 0,-423.0916 -21.217,-592.8274 -73.6354,-569.1143 -41.1859,17.4728 -87.364,19.9689 -112.3252,6.2403 -22.465,-12.4806 -26.2092,-8.7364 -33.6975,23.7131 -12.4806,56.1626 -57.4107,102.3407 -169.7359,174.728 -64.899,42.434 -124.8057,69.8913 -170.9838,79.8757 -48.6743,9.9845 -83.6199,26.2092 -111.0772,52.4184 -82.3718,79.8757 -371.9211,132.2942 -577.8506,106.0849 -156.0072,-19.9689 -302.03,-67.3951 -339.4717,-111.0771 -21.217,-23.7131 -48.6743,-37.4417 -102.3407,-48.6742 -41.1859,-8.7364 -104.8369,-33.6976 -142.2786,-56.1626 -91.1082,-54.9146 -202.18533,-160.9995 -202.18533,-192.2009 0,-34.9456 -12.48057,-44.9301 -32.4495,-28.7053 -16.22474,13.7286 -56.16259,11.2325 -111.07712,-7.4884 -19.96892,-6.2403 -28.70533,0 -41.1859,33.6976 -39.93785,101.0927 -48.67425,707.6487 -14.97669,921.0665 19.96892,124.8058 63.65093,248.3635 106.08489,304.5261 97.3485,129.7979 415.60315,272.0765 717.63315,319.5027 51.1703,7.4883 102.3407,16.2248 112.3251,18.7209 9.9845,2.4961 108.5811,2.4961 218.4101,0 142.2786,-3.7442 232.1387,-12.4806 312.0144,-31.2015 z m -79.8757,-1203.1275 c 64.899,-16.2248 134.7903,-37.4417 154.7592,-46.1781 36.1937,-14.9767 33.6975,-16.2248 -56.1626,-24.9612 -118.5655,-12.4806 -165.9917,-28.7053 -159.7514,-58.6587 4.9923,-24.9611 17.4728,-24.9611 187.2087,-3.7442 66.147,8.7364 141.0305,11.2326 167.2397,6.2403 43.682,-7.4883 245.8673,-133.5421 278.3168,-172.2319 19.969,-23.7131 -2.4961,-282.061 -36.1936,-428.0838 -94.8524,-401.87456 -338.2237,-683.93558 -673.9511,-776.29184 -127.3019,-36.19367 -185.9606,-32.4495 -328.2392,16.22475 -139.7825,48.67425 -228.3945,102.34072 -331.9833,204.68145 -172.232,170.98389 -277.0688,404.37064 -319.5028,713.88894 -26.2092,193.449 -24.9611,263.3402 9.9845,288.3013 116.0693,84.868 222.1542,146.0228 259.596,153.5111 24.9611,3.7442 101.0926,1.2481 168.4878,-6.2403 174.728,-21.2169 184.7125,-21.2169 189.7047,3.7442 6.2403,29.9534 -39.9378,46.1781 -154.7591,56.1626 -49.9223,3.7442 -88.6121,11.2325 -86.116,16.2247 7.4883,12.4806 180.9683,62.4029 285.8052,82.3718 118.5655,22.4651 298.2857,12.4806 445.5565,-24.9611 z M 936.66404,1666.4189 c 0,-46.1782 -2.49611,-49.9223 -36.19367,-49.9223 -76.13151,0 -82.3718,-76.1316 -6.24028,-84.868 19.96892,-2.4961 39.93784,-8.7364 44.93007,-12.4805 4.99223,-4.9923 17.47281,-52.4185 28.70532,-106.0849 11.23252,-53.6665 23.7131,-106.0849 27.45727,-116.0694 6.24025,-16.2248 1.24806,-16.2248 -41.1859,1.2481 -104.83684,43.682 -168.48778,138.5344 -169.73583,250.8595 -1.24806,78.6277 23.71309,123.5578 81.12374,148.5189 62.40288,27.4573 71.13928,23.7131 71.13928,-31.2014 z m 1959.45046,29.9533 c 62.4029,-24.9611 87.364,-69.8912 87.364,-154.7591 0,-107.3329 -64.899,-199.6892 -174.7281,-244.6193 l -39.9378,-17.4728 7.4883,33.6976 c 3.7442,19.9689 13.7287,68.6431 22.4651,109.829 17.4728,91.1082 26.2092,103.5888 76.1315,108.581 34.9456,3.7442 39.9378,8.7364 39.9378,41.1859 0,34.9457 -3.7441,37.4418 -47.4262,41.1859 -43.682,3.7442 -47.4261,7.4884 -41.1859,31.2015 3.7442,14.9767 7.4884,37.4417 7.4884,49.9223 0,26.2092 0,26.2092 62.4029,1.248 z M 1729.1806,503.22916 c 103.5888,-33.69756 214.6659,-32.4495 328.2392,4.99223 48.6742,17.4728 92.3562,27.45726 96.1004,24.96115 3.7442,-3.74417 6.2403,-21.21698 6.2403,-38.68979 0,-47.42619 53.6665,-153.51108 104.8368,-210.92173 l 44.9301,-48.67425 -103.5888,-38.68978 C 1920.1334,87.62597 1664.2816,62.66482 1429.6468,120.07547 c -84.8679,19.96892 -89.8602,28.70533 -39.9379,59.90677 99.8447,61.15482 220.9062,242.12317 220.9062,330.73526 0,28.70533 3.7442,33.69756 22.4651,26.20921 11.2325,-4.99223 54.9145,-19.96892 96.1004,-33.69755 z M 1188.7717,317.26857 c 26.2092,-33.69755 46.1781,-136.03828 27.4572,-136.03828 -22.465,0 -92.3562,49.92231 -112.3251,81.12375 -17.4729,26.20921 -18.7209,38.68978 -6.2403,63.65094 17.4728,39.93784 58.6587,36.19367 91.1082,-8.73641 z M 2425.5968,212.43173 c 24.9611,-44.93007 88.612,-73.63539 489.2385,-220.9061897 207.1776,-76.1315203 299.5339,-132.2941103 391.8901,-239.6270603 59.9068,-68.64317 88.6121,-119.81353 88.6121,-157.25526 0,-19.96892 -8.7364,-24.96115 -39.9378,-26.20921 -66.1471,-1.24806 -2883.01308,-1.24806 -2932.93539,0 -54.91453,1.24806 -61.15482,24.96115 -27.45727,92.35626 66.14706,128.54994 185.96059,220.9062 396.88232,305.77412 144.77468,58.6587 194.69699,91.1082 194.69699,129.79799 0,16.22475 8.7364,22.46503 31.20145,22.46503 18.7208,0 44.9301,13.72864 62.4029,32.4495 28.7053,29.95338 31.2014,31.20144 67.3951,12.48058 52.4184,-27.45727 69.8912,-24.96115 104.8368,17.4728 38.6898,44.93008 71.1393,38.68979 71.1393,-12.48057 0,-76.13152 79.8757,-111.07713 299.5338,-131.04605 212.1698,-17.47281 622.7808,82.3718 688.9278,169.73583 23.7131,29.95339 34.9456,34.94562 66.1471,29.95339 19.9689,-3.74418 41.1859,-14.97669 47.4262,-24.96116 z"
           id="path12805" />
        <path
           style="stroke-width:1.2480576"
           inkscape:connector-curvature="0"
           d="m 1324.8099,1826.1702 c -23.713,-6.2402 -62.4028,-26.2092 -86.1159,-44.93 -23.7131,-18.7209 -63.651,-39.9379 -88.6121,-46.1782 -58.6587,-17.4728 -57.4107,-46.1781 2.4961,-59.9067 42.434,-9.9845 54.9145,-7.4884 121.0616,33.6975 86.116,53.6665 97.3485,54.9146 69.8912,13.7287 -28.7053,-43.6821 -24.9611,-89.8602 11.2325,-124.8058 37.4418,-38.6898 91.1082,-39.9378 136.0383,-4.9922 37.4417,28.7053 43.682,89.8601 14.9767,131.046 -17.4728,22.4651 -18.7209,22.4651 -26.2092,-13.7286 -17.4728,-76.1315 -19.9689,-81.1238 -48.6743,-81.1238 -39.9378,0 -62.4028,29.9534 -52.4184,68.6432 4.9923,17.4728 2.4961,42.434 -4.9922,56.1626 -7.4883,13.7286 -7.4883,26.2092 -1.2481,31.2014 23.7131,13.7287 108.5811,-16.2247 151.015,-53.6664 49.9223,-46.1782 53.6665,-47.4262 76.1315,-19.969 14.9767,18.7209 11.2325,26.2092 -31.2014,62.4029 -72.3874,62.4029 -151.015,79.8757 -243.3713,52.4184 z"
           id="path12807" />
        <path
           style="stroke-width:1.2480576"
           inkscape:connector-curvature="0"
           d="m 2234.6439,1814.9377 c -68.6431,-31.2014 -99.8446,-58.6587 -99.8446,-87.364 0,-34.9456 22.4651,-39.9379 58.6587,-12.4806 33.6976,27.4573 57.4107,24.9612 31.2015,-1.248 -24.9612,-24.9612 -17.4728,-83.6199 16.2247,-116.0694 61.1549,-62.4029 168.4878,-21.217 168.4878,64.899 0,24.9611 -8.7364,56.1626 -21.217,68.6432 -28.7053,32.4495 -4.9922,27.4572 48.6743,-8.7364 66.147,-44.9301 107.3329,-57.4107 154.7591,-48.6743 59.9068,11.2325 58.6587,48.6743 -3.7442,61.1548 -24.9611,3.7442 -64.8989,24.9612 -91.1082,44.9301 -81.1237,64.899 -169.7358,77.3796 -262.0921,34.9456 z m 117.3175,-31.2014 c 11.2325,-3.7442 16.2247,-13.7287 11.2325,-21.217 -4.9923,-7.4883 -7.4884,-34.9456 -4.9923,-59.9068 6.2403,-106.0849 -83.6198,-104.8368 -101.0926,2.4962 -9.9845,59.9067 -6.2403,68.6431 39.9378,77.3795 17.4728,2.4961 32.4495,6.2403 33.6976,7.4884 1.248,0 9.9844,-2.4961 21.217,-6.2403 z"
           id="path12809" />
        <path
           style="stroke-width:1.2480576"
           inkscape:connector-curvature="0"
           d="m 1756.6379,1420.5515 c -33.6976,-32.4495 24.9611,-97.3485 99.8446,-111.0771 77.3796,-14.9767 178.4722,48.6742 158.5033,99.8446 -9.9845,24.9612 -59.9068,26.2092 -79.8757,1.2481 -8.7364,-9.9845 -31.2014,-18.7209 -49.9223,-18.7209 -18.7208,0 -41.1859,8.7364 -49.9223,18.7209 -16.2247,18.7208 -63.6509,24.9611 -78.6276,9.9844 z"
           id="path12811" />
        <path
           style="stroke-width:1.2480576"
           inkscape:connector-curvature="0"
           d="m 1684.2505,1178.4283 c -61.1548,-61.1548 4.9923,-202.18531 111.0772,-237.13092 71.1393,-23.7131 179.7203,-8.73641 232.1387,31.20144 83.6198,62.40288 107.3329,154.75918 53.6665,204.68148 -27.4573,24.9611 -41.1859,27.4572 -199.6893,27.4572 -157.2552,0 -173.48,-2.4961 -197.1931,-26.2092 z m 338.2237,-71.1393 c 0,-37.4417 -81.1238,-89.8601 -138.5344,-89.8601 -49.9223,0 -127.3019,44.9301 -133.5422,78.6276 -3.7442,18.7209 9.9845,21.217 133.5422,21.217 76.1315,0 138.5344,-4.9922 138.5344,-9.9845 z"
           id="path12813" />
        <g
           style="fill:#000000;stroke:none"
           transform="matrix(0.38150418,0,0,0.38150418,1297.3035,2123.3722)"
           id="g12885">
          <path
             inkscape:connector-curvature="0"
             d="m 1092,2541 c -115,-40 -147,-107 -147,-306 0,-109 4,-141 23,-199 32,-95 66,-159 110,-208 109,-122 185,-129 277,-27 84,93 123,237 105,385 -28,227 -141,375 -285,374 -16,-1 -54,-9 -83,-19 z"
             id="path12875" />
          <path
             inkscape:connector-curvature="0"
             d="m 1829,2524 c -72,-22 -138,-73 -171,-131 -61,-108 -89,-388 -52,-513 39,-131 134,-205 229,-179 110,31 239,216 291,421 18,68 15,201 -5,269 -37,124 -152,177 -292,133 z"
             id="path12877" />
          <path
             inkscape:connector-curvature="0"
             d="m 570,1933 c -8,-3 -32,-22 -53,-41 -65,-63 -99,-194 -78,-307 28,-152 153,-318 264,-350 94,-27 197,5 251,78 17,23 22,47 25,115 7,167 -39,284 -158,403 -57,57 -88,80 -125,92 -49,17 -97,20 -126,10 z"
             id="path12879" />
          <path
             inkscape:connector-curvature="0"
             d="m 2315,1798 c -75,-28 -204,-148 -257,-239 -66,-113 -76,-267 -23,-374 32,-66 74,-94 150,-102 48,-5 63,-2 119,26 83,41 163,126 213,228 37,76 38,79 38,193 0,110 -2,120 -30,175 -16,32 -42,67 -57,78 -31,23 -110,31 -153,15 z"
             id="path12881" />
          <path
             inkscape:connector-curvature="0"
             d="m 1334,1451 c -65,-19 -139,-57 -166,-87 -9,-11 -47,-66 -86,-124 C 1044,1182 978,1091 937,1037 854,927 805,835 766,712 726,586 731,539 789,477 c 76,-83 170,-77 481,31 128,44 140,47 235,46 89,-1 111,-5 205,-39 89,-32 121,-38 212,-43 95,-4 111,-2 151,17 79,38 96,118 56,261 -44,159 -151,344 -308,532 -95,114 -145,155 -208,174 -63,19 -204,17 -279,-5 z"
             id="path12883" />
        </g>
        <path
           transform="matrix(7.4999995,0,0,-7.4999995,-968.01273,4879.4703)"
           inkscape:connector-curvature="0"
           id="path13010"
           d="m 181.73266,707.02367 c -3.5429,-1.4296 -2.58132,-6.40088 2.86948,-14.835 9.30196,-14.39307 18.55168,-21.37643 46.70253,-35.25949 18.50359,-9.12535 27.42787,-14.49812 28.62893,-17.23573 0.95975,-2.18761 2.63861,-3.97747 3.73079,-3.97747 1.09217,0 4.69902,-1.84126 8.01522,-4.09169 5.5143,-3.74211 6.5275,-3.88847 11.85888,-1.71304 5.42362,2.21307 6.19959,2.06719 11.14666,-2.09549 6.33315,-5.329 10.34926,-5.74934 10.34926,-1.0832 0,1.86503 0.49586,4.68315 1.10191,6.26249 3.5698,9.30276 37.18646,15.45147 64.59577,11.815 30.80007,-4.08634 58.56638,-13.03341 65.833,-21.2132 4.29398,-4.8336 11.90301,-4.86839 16.24164,-0.0743 4.79182,5.29489 9.42271,7.42506 49.62764,22.82829 19.75202,7.56736 39.69869,15.97461 44.32592,18.68279 17.68089,10.34807 36.36971,32.78708 33.51133,40.2359 -1.03543,2.69831 -16.42734,2.91404 -198.72582,2.78529 -108.68188,-0.0767 -198.5978,-0.54079 -199.81314,-1.03119 z"
           style="opacity:0.9654088;fill:#ffffff;fill-opacity:1;fill-rule:nonzero;stroke:#000000;stroke-width:6.68132401;stroke-miterlimit:4;stroke-dasharray:none;stroke-opacity:0.06422017" />
        <path
           transform="matrix(7.4999995,0,0,-7.4999995,-968.01273,4879.4703)"
           inkscape:connector-curvature="0"
           id="path13012"
           d="m 321.38625,634.66947 c -6.0767,-1.50337 -11.0431,-3.27503 -11.03646,-3.93703 0.007,-0.66201 2.89788,-3.16937 6.42498,-5.57193 11.4823,-7.82141 27.01276,-31.90079 27.11169,-42.0356 0.0465,-4.76543 0.11537,-4.76788 12.41319,-0.44194 12.88196,4.53143 32.58954,4.58247 48.17727,0.12478 l 11.92681,-3.41076 0.0173,3.8527 c 0.0238,5.30031 7.7475,21.43324 14.10316,29.45792 l 5.25477,6.63467 -10.12954,3.89884 c -24.63484,9.48185 -40.97182,12.73617 -67.58202,13.46229 -19.14287,0.52236 -28.42993,0.007 -36.68117,-2.03394 z"
           style="opacity:0.9654088;fill:#ffffff;fill-opacity:1;fill-rule:nonzero;stroke:#000000;stroke-width:6.68132401;stroke-miterlimit:4;stroke-dasharray:none;stroke-opacity:0.06422017" />
        <path
           transform="matrix(7.4999995,0,0,-7.4999995,-968.01273,4879.4703)"
           inkscape:connector-curvature="0"
           id="path13014"
           d="m 358.06742,569.59198 c -18.23346,-6.41833 -23.16463,-8.90157 -34.80674,-17.52797 -32.04205,-23.74207 -51.36083,-64.8787 -56.35599,-120.00219 -1.69369,-18.69048 -0.68362,-21.34294 11.19194,-29.39043 22.205,-15.04722 28.73669,-16.48574 57.83831,-12.73813 8.54021,1.09977 13.05749,0.99266 14.6728,-0.34793 4.23713,-3.5165 -1.87518,-6.83686 -16.31598,-8.86324 -16.15988,-2.2676 -15.21459,-3.25257 9.02201,-9.40069 27.53823,-6.98564 59.86833,-5.52816 88.0787,3.9707 l 8.87611,2.98872 -13.92137,2.18987 c -14.93527,2.34936 -18.13561,4.05445 -16.34893,8.71048 0.77759,2.02637 2.38261,2.64603 5.09609,1.96749 2.17856,-0.54476 12.39459,-1.53417 22.70231,-2.19868 18.68522,-1.20458 18.77251,-1.19143 29.16815,4.39494 5.73478,3.08172 14.20546,8.3697 18.82375,11.75107 9.646,7.06249 9.89506,8.48406 6.49099,37.04951 -6.85713,57.54217 -32.5157,100.1528 -72.40441,120.24043 -23.60307,11.88632 -42.31448,14.06784 -61.80774,7.20605 z m 37.00032,-46.06571 c 5.76182,-2.97955 13.4842,-11.61258 15.18714,-16.97806 1.7657,-5.56324 -2.43606,-13.86918 -7.77513,-15.36967 -2.55067,-0.71683 -14.0623,-1.28483 -25.58141,-1.26221 -18.57688,0.0365 -21.22401,0.42428 -23.42291,3.43146 -4.46227,6.10252 -3.1054,16.02037 3.16951,23.1671 3.10673,3.53837 7.28308,7.09536 9.28078,7.90442 6.00853,2.43342 23.76138,1.8894 29.14202,-0.89304 z m -3.79533,-50.46158 c 7.30561,-4.4542 9.03237,-8.59903 4.85495,-11.65364 -2.63697,-1.9282 -4.01486,-1.885 -8.15439,0.25564 -6.23709,3.22532 -8.79677,3.22918 -14.97746,0.0226 -5.74721,-2.98169 -11.95148,-0.77062 -11.04503,3.93622 0.83468,4.33416 11.76532,10.99239 18.03351,10.98483 3.0161,-0.004 8.09589,-1.59918 11.28842,-3.54565 z m -63.28964,-34.95674 c 4.16741,-3.37456 5.1658,-9.15125 2.81573,-16.29177 l -1.45451,-4.41942 4.67543,4.31985 c 4.3591,4.02758 4.87427,4.121 7.61443,1.38085 2.74015,-2.74015 2.70778,-3.19465 -0.47838,-6.71766 -5.72997,-6.33577 -15.8492,-10.47353 -25.61387,-10.47353 -7.44367,0 -11.75516,1.45873 -23.93528,8.09812 -8.1709,4.45396 -14.85618,8.78223 -14.85618,9.61839 0,5.63367 13.34781,5.20583 22.70604,-0.7278 8.32803,-5.28042 10.47604,-5.15958 7.48922,0.42135 -2.76022,5.15752 -2.38101,8.03212 1.75285,13.28747 4.40667,5.60217 13.36116,6.3006 19.28452,1.50415 z m 118.67961,-0.58848 c 3.03328,-3.03328 3.57565,-5.21935 2.86318,-11.54029 l -0.87897,-7.79815 6.4176,3.81366 c 9.01448,5.35686 15.65755,6.98859 20.67914,5.07939 5.65009,-2.14816 5.44533,-4.8471 -0.56135,-7.3991 -2.67375,-1.13596 -9.40099,-4.79043 -14.94941,-8.12102 -13.11856,-7.87478 -23.59548,-8.22147 -36.48293,-1.20724 -9.63609,5.24462 -12.10584,8.748 -8.89467,12.61723 1.74641,2.10429 2.65229,2.07132 6.15548,-0.22406 4.90461,-3.21362 7.55918,-3.54368 4.58566,-0.57016 -3.19905,3.19906 -2.5551,9.22478 1.54252,14.43407 4.6772,5.94609 14.05357,6.38584 19.52375,0.91567 z"
           style="opacity:0.9654088;fill:#ffffff;fill-opacity:1;fill-rule:nonzero;stroke:#000000;stroke-width:6.68132401;stroke-miterlimit:4;stroke-dasharray:none;stroke-opacity:0.06422017" />
        <path
           transform="matrix(7.4999995,0,0,-7.4999995,-968.01273,4879.4703)"
           inkscape:connector-curvature="0"
           id="path13016"
           d="m 443.20314,423.142 c -0.24898,-5.83411 0.1941,-6.60453 3.69457,-6.42406 2.82619,0.14571 3.11208,0.43328 0.98771,0.99351 -1.7982,0.47421 -3.27067,3.03452 -3.69457,6.42406 -0.67713,5.41436 -0.71591,5.37536 -0.98771,-0.99351 z"
           style="opacity:0.9654088;fill:#ffffff;fill-opacity:1;fill-rule:nonzero;stroke:#000000;stroke-width:6.68132401;stroke-miterlimit:4;stroke-dasharray:none;stroke-opacity:0.06422017" />
        <path
           transform="matrix(7.4999995,0,0,-7.4999995,-968.01273,4879.4703)"
           inkscape:connector-curvature="0"
           id="path13018"
           d="m 314.81449,430.74783 c -0.63807,-1.03242 -1.45153,-5.45314 -1.80768,-9.82381 -0.55658,-6.83032 -0.18038,-7.94668 2.67792,-7.94668 1.829,0 5.27435,0.88798 7.65632,1.97328 4.13485,1.88396 4.23545,2.30402 2.22254,9.28077 -1.51132,5.23825 -3.16748,7.46128 -5.84865,7.85054 -2.05718,0.29867 -4.26238,-0.30168 -4.90045,-1.3341 z"
           style="opacity:0.9654088;fill:#ffffff;fill-opacity:1;fill-rule:nonzero;stroke:#000000;stroke-width:6.68132401;stroke-miterlimit:4;stroke-dasharray:none;stroke-opacity:0.06422017" />
        <path
           transform="matrix(7.4999995,0,0,-7.4999995,-968.01273,4879.4703)"
           inkscape:connector-curvature="0"
           id="path13020"
           d="m 433.29775,430.26167 c -3.6289,-5.18098 -3.60255,-14.81187 0.0443,-16.21131 7.62483,-2.92592 9.57814,-1.4143 9.57814,7.41226 0,12.0202 -4.49031,16.12625 -9.62248,8.79905 z"
           style="opacity:0.9654088;fill:#ffffff;fill-opacity:1;fill-rule:nonzero;stroke:#000000;stroke-width:6.68132401;stroke-miterlimit:4;stroke-dasharray:none;stroke-opacity:0.06422017" />
        <path
           transform="matrix(7.4999995,0,0,-7.4999995,-968.01273,4879.4703)"
           inkscape:connector-curvature="0"
           id="path13022"
           d="m 235.22751,416.54507 c -3.20431,-5.18469 -4.72562,-35.09041 -3.98515,-78.33968 0.73073,-42.68057 1.25476,-49.54932 4.66029,-61.08493 7.76227,-26.29334 14.82391,-34.09687 43.49914,-48.0691 34.34518,-16.73496 68.2537,-23.79708 107.0605,-22.29745 38.32369,1.48095 69.83824,9.25455 99.26493,24.48538 25.77182,13.33912 33.44774,23.39164 39.86217,52.20419 2.52749,11.35309 3.06068,22.97436 3.06377,66.77814 0.004,37.50429 -0.64605,55.16912 -2.21542,60.32817 l -2.21918,7.29517 -10.78256,-0.42128 c -10.25892,-0.40082 -10.91816,-0.70123 -13.5743,-6.18554 -4.83337,-9.97984 -30.09284,-27.14028 -45.39675,-30.84103 -2.88699,-0.69812 -9.73622,-4.03895 -15.22053,-7.42405 -12.52001,-7.72779 -21.51858,-10.44359 -43.16935,-13.02865 -27.14237,-3.24074 -60.16606,2.61041 -76.19593,13.50043 -3.78938,2.57435 -12.233,6.49973 -18.76361,8.72306 -17.01764,5.79367 -38.33323,21.71601 -41.86965,31.27589 -1.09281,2.95415 -3.17893,3.65452 -12.19712,4.09489 -5.98336,0.29217 -11.30293,-0.15486 -11.82125,-0.99361 z m 128.83664,-73.6031 c 8.22462,-2.80241 11.77173,-2.76026 34.25323,0.40702 4.83453,0.6811 8.48718,0.28225 10.16465,-1.10993 6.63384,-5.5056 -0.22879,-24.74566 -14.4802,-40.59667 -7.4387,-8.27362 -8.5341,-8.86897 -16.21085,-8.81056 -4.52819,0.0344 -10.00384,1.04659 -12.16811,2.24919 -5.26376,2.92488 -21.11061,25.63202 -24.40565,34.97116 -5.06734,14.36239 3.81609,19.37425 22.84693,12.88979 z m 61.8566,-37.8035 c 5.2447,-5.80527 6.39288,-8.43333 6.39288,-14.63268 0,-8.79149 -3.94064,-15.41427 -9.17167,-15.41427 -2.01734,0 -7.14296,3.47506 -11.39025,7.72235 -6.72501,6.72501 -7.72235,8.70472 -7.72235,15.32877 0,15.37554 11.1125,18.92677 21.89139,6.99583 z m -76.69217,-3.53045 c 3.97015,-3.97014 4.29562,-6.91566 1.7691,-16.01039 -1.90038,-6.84079 -9.20991,-14.72365 -15.37887,-16.58512 -5.92396,-1.78754 -11.13896,4.41011 -11.13896,13.23787 0,17.20945 15.09226,29.01412 24.74873,19.35764 z m 50.36505,-23.28396 c 10.52365,-8.27791 15.14891,-29.64246 7.97126,-36.82011 -4.19881,-4.19881 -8.95406,-4.48089 -15.80603,-0.9376 -6.09303,3.15083 -8.94271,10.60071 -8.94271,23.37883 0,7.7711 0.80428,10.34356 4.33907,13.87834 5.30491,5.30491 6.28071,5.34418 12.43841,0.50054 z m -29.38645,-2.09893 c 11.92409,-12.69262 6.0677,-39.06112 -8.58288,-38.64457 -7.57806,0.21546 -10.66695,3.47365 -11.88211,12.53336 -1.22675,9.14609 3.30754,21.78736 9.58646,26.72636 5.6867,4.47316 6.1214,4.44858 10.87853,-0.61515 z"
           style="opacity:0.9654088;fill:#ffffff;fill-opacity:1;fill-rule:nonzero;stroke:#000000;stroke-width:6.68132401;stroke-miterlimit:4;stroke-dasharray:none;stroke-opacity:0.06422017" />
        <path
           transform="matrix(7.4999995,0,0,-7.4999995,-968.01273,4879.4703)"
           inkscape:connector-curvature="0"
           id="path13024"
           d="m 499.5149,476.17501 c 0.0567,-4.79579 5.50124,-25.0984 7.31749,-27.28684 1.06047,-1.27779 3.72668,-2.32326 5.92491,-2.32326 2.43203,0 4.33872,-1.30756 4.87018,-3.33984 1.18986,-4.55003 -0.48924,-6.7628 -6.22399,-8.20213 -3.79724,-0.95304 -4.84365,-2.25633 -4.84365,-6.03271 0,-6.40672 1.22487,-7.30727 6.8055,-5.00351 8.81585,3.63931 12.63994,9.52886 12.63994,19.46699 0,12.82007 -5.56873,23.44952 -15.62687,29.8282 -8.89409,5.64047 -10.90232,6.17528 -10.86351,2.8931 z"
           style="opacity:0.9654088;fill:#ffffff;fill-opacity:1;fill-rule:nonzero;stroke:#000000;stroke-width:6.68132401;stroke-miterlimit:4;stroke-dasharray:none;stroke-opacity:0.06422017" />
        <path
           transform="matrix(7.4999995,0,0,-7.4999995,-968.01273,4879.4703)"
           inkscape:connector-curvature="0"
           id="path13026"
           d="m 251.11752,474.04748 c -10.1328,-6.1673 -15.15295,-14.57838 -16.30874,-27.32466 -1.13191,-12.48286 1.74992,-18.48388 10.67941,-22.23845 6.80709,-2.86217 8.28098,-2.12502 8.28098,4.14164 0,3.9276 -1.07668,5.15037 -5.74525,6.52479 -8.13946,2.39625 -9.08795,9.24297 -1.49092,10.76238 2.96401,0.5928 6.10932,1.97632 6.98957,3.07449 1.30884,1.63284 7.31766,24.9698 7.31766,28.42019 0,1.85372 -2.67506,0.92916 -9.72271,-3.36038 z"
           style="opacity:0.9654088;fill:#ffffff;fill-opacity:1;fill-rule:nonzero;stroke:#000000;stroke-width:6.68132401;stroke-miterlimit:4;stroke-dasharray:none;stroke-opacity:0.06422017" />
        <path
           transform="matrix(7.4999995,0,0,-7.4999995,-968.01273,4879.4703)"
           inkscape:connector-curvature="0"
           id="path13028"
           d="m 280.87743,619.21912 c -5.34984,-4.90277 -6.22894,-6.68095 -5.24366,-10.60661 2.50836,-9.99411 13.0618,-3.35148 14.75719,9.28859 1.20015,8.94777 -0.87441,9.23518 -9.51353,1.31802 z"
           style="opacity:0.9654088;fill:#ffffff;fill-opacity:1;fill-rule:nonzero;stroke:#000000;stroke-width:6.68132401;stroke-miterlimit:4;stroke-dasharray:none;stroke-opacity:0.06422017" />
        <path
           transform="matrix(7.4999995,0,0,-7.4999995,-968.01273,4879.4703)"
           inkscape:connector-curvature="0"
           id="path13030"
           d="m 368.02853,510.07622 c -2.56179,-2.01511 -4.65781,-4.36555 -4.65781,-5.2232 0,-2.66596 11.89748,-3.95028 24.29503,-2.62261 l 11.85819,1.2699 -5.73013,5.11988 c -7.21681,6.44822 -18.60088,7.09155 -25.76528,1.45603 z"
           style="opacity:0.9654088;fill:#ffffff;fill-opacity:1;fill-rule:nonzero;stroke:#000000;stroke-width:6.68132401;stroke-miterlimit:4;stroke-dasharray:none;stroke-opacity:0.06422017" />
      </g>
    </g>
  </g>
</svg>
