<?xml version="1.0" encoding="UTF-8" standalone="no"?>
<!-- Created with Inkscape (http://www.inkscape.org/) -->

<svg
   xmlns:dc="http://purl.org/dc/elements/1.1/"
   xmlns:cc="http://creativecommons.org/ns#"
   xmlns:rdf="http://www.w3.org/1999/02/22-rdf-syntax-ns#"
   xmlns:svg="http://www.w3.org/2000/svg"
   xmlns="http://www.w3.org/2000/svg"
   xmlns:sodipodi="http://sodipodi.sourceforge.net/DTD/sodipodi-0.dtd"
   xmlns:inkscape="http://www.inkscape.org/namespaces/inkscape"
   width="210mm"
   height="297mm"
   viewBox="0 0 210 297"
   version="1.1"
   id="svg5632"
   sodipodi:docname="icone echographie  vert.svg"
   inkscape:version="0.92.5 (2060ec1f9f, 2020-04-08)">
  <defs
     id="defs5626" />
  <sodipodi:namedview
     id="base"
     pagecolor="#ffffff"
     bordercolor="#666666"
     borderopacity="1.0"
     inkscape:pageopacity="0.0"
     inkscape:pageshadow="2"
     inkscape:zoom="0.68"
     inkscape:cx="755.00415"
     inkscape:cy="415.85686"
     inkscape:document-units="mm"
     inkscape:current-layer="layer1"
     showgrid="false"
     inkscape:window-width="1920"
     inkscape:window-height="1009"
     inkscape:window-x="-8"
     inkscape:window-y="-8"
     inkscape:window-maximized="1"
     showguides="false"
     inkscape:lockguides="true" />
  <metadata
     id="metadata5629">
    <rdf:RDF>
      <cc:Work
         rdf:about="">
        <dc:format>image/svg+xml</dc:format>
        <dc:type
           rdf:resource="http://purl.org/dc/dcmitype/StillImage" />
        <dc:title />
      </cc:Work>
    </rdf:RDF>
  </metadata>
  <g
     inkscape:label="Calque 1"
     inkscape:groupmode="layer"
     id="layer1">
    <path
       style="opacity:1;fill:#ffffff;fill-opacity:0.9908257;fill-rule:nonzero;stroke:#000000;stroke-width:6.68132401;stroke-miterlimit:4;stroke-dasharray:none;stroke-opacity:0.06422017"
       d=""
       id="path13507"
       inkscape:connector-curvature="0"
       transform="scale(0.26458333)" />
    <path
       style="opacity:1;fill:#ffffff;fill-opacity:0.9908257;fill-rule:nonzero;stroke:#000000;stroke-width:6.2018795;stroke-miterlimit:4;stroke-dasharray:none;stroke-opacity:0.06422017"
       d=""
       id="path13551"
       inkscape:connector-curvature="0"
       transform="scale(0.26458333)" />
    <g
       id="g13888"
       transform="matrix(0.98920992,0,0,0.98920992,-189.77116,-69.882695)">
      <g
         transform="matrix(1.2299053,0,0,1.2299053,-134.32342,-19.085578)"
         id="g13859">
        <g
           id="g13681"
           transform="matrix(0.02431235,0,0,-0.02431235,177.91306,205.31851)"
           style="fill:#000000;stroke:none">
          <g
             id="g13737"
             transform="translate(4496.7071,727.12906)">
            <g
               style="fill:#800080;fill-opacity:0.81960784"
               transform="translate(-3927.8557,-601.12102)"
               id="g13725" />
          </g>
        </g>
      </g>
    </g>
    <g
       id="g13608">
      <path
         inkscape:connector-curvature="0"
         id="path1718"
         d="M 83.932122,209.53748 C 64.205312,207.20402 46.220602,198.06238 32.316132,183.30104 -2.9515525,145.85997 2.3939475,87.279713 43.867602,56.710793 c 16.5507,-12.199 38.72751,-18.09839 59.065008,-15.71226 18.57363,2.17919 35.08033,9.84028 48.379,22.4537 18.1495,17.21427 26.99839,37.535457 26.95705,61.905987 -0.0235,13.82306 -2.18754,23.58885 -7.89917,35.64624 -5.07006,10.70302 -10.24082,17.93942 -18.14964,25.40019 -8.0384,7.58303 -12.74427,10.78356 -22.88886,15.56704 -9.33144,4.40004 -15.65498,6.19719 -26.56303,7.54918 -8.332077,1.03271 -10.231698,1.03438 -18.835838,0.0166 z"
         style="opacity:1;fill:#00d600;fill-opacity:0.81960784;fill-rule:nonzero;stroke:none;stroke-width:1.96376443;stroke-miterlimit:4;stroke-dasharray:none;stroke-opacity:1" />
      <g
         id="g13787"
         transform="matrix(2.2814629,0,0,2.2814629,-2889.286,-694.12956)"
         style="">
        <g
           id="g13632"
           style="fill:#000000;stroke:none"
           transform="matrix(0.01715757,0,0,-0.01715757,565.99795,375.44505)">
          <path
             id="path4816"
             d="m 42287.085,1175.7239 c 8.677,-17.353 14.987,-35.495 15.776,-40.228 0,-7.887 44.172,-97.808 65.469,-133.303 17.353,-28.39602 100.175,-137.24802 108.851,-141.98002 11.043,-7.099 18.142,0.788 11.832,13.409 -10.254,19.719 -24.452,42.594 -44.172,69.412 -21.297,29.185 -35.495,52.06 -44.171,70.99102 -3.156,6.31 -7.888,13.409 -10.255,15.775 -7.887,6.31 -40.227,75.723 -40.227,85.977 0,4.733 -3.155,8.677 -7.099,8.677 -3.944,0 -9.466,14.198 -12.621,31.551 -43.383,19.719 -27.607,-20.509 -43.383,19.719 z"
             inkscape:connector-curvature="0"
             style="stroke-width:0.78877884"
             sodipodi:nodetypes="ccccccccsscc" />
          <path
             id="path4818"
             d="m 44513.808,1300.3509 c -62.313,-34.706 -136.459,-130.148 -136.459,-175.897 0,-7.888 -3.155,-16.565 -7.099,-18.931 -3.944,-3.155 -9.465,-19.72 -12.62,-38.65 -9.465,-55.215 -30.762,-70.20202 -39.439,-27.608 -6.31,26.819 -6.31,27.608 -48.116,75.723 -15.775,18.142 -32.339,33.129 -36.283,33.129 -3.944,0 -12.621,5.521 -18.931,11.832 -18.931,18.93 -151.446,18.93 -180.63,0.788 -8.677,-5.521 -25.241,-12.62 -37.073,-15.775 -12.621,-2.367 -22.086,-8.677 -22.086,-12.621 0,-4.732 -5.521,-7.887 -12.62,-7.887 -14.198,0 -63.891,-48.116 -85.977,-82.822 -7.888,-12.621 -18.142,-37.862 -22.086,-55.21502 -9.465,-38.65 -11.832,-137.247 -3.155,-154.6 5.521,-11.043 -1.578,-13.41 -44.961,-17.354 -28.396,-2.366 -57.58,-8.676 -65.468,-12.62 -7.888,-3.944 -27.607,-10.254 -43.383,-12.62 -16.564,-2.367 -29.974,-7.888 -29.974,-11.043 0,-3.944 -14.986,-8.677 -33.128,-11.043 -18.931,-2.367 -34.707,-8.677 -36.284,-12.621 -1.578,-4.732 -12.621,-8.676 -24.452,-8.676 -11.832,0 -28.396,-5.522 -37.073,-11.832 -7.888,-6.31 -24.452,-11.832 -35.495,-11.832 -11.043,0 -26.818,-5.521 -35.495,-11.831 -7.888,-6.311 -22.875,-11.832 -32.34,-11.832 -9.465,0 -26.818,-3.944 -39.439,-9.465 -11.832,-4.733 -39.439,-14.987 -61.525,-22.875 l -39.439,-14.198 -21.297,25.241 c -29.184,33.917 -60.736,99.386 -67.046,134.881 -2.366,15.776 -7.888,30.763 -11.043,33.129 -19.719,11.832 1.578,115.162 36.284,176.68602 14.987,26.819 70.201,136.459 84.399,169.588 8.677,20.508 -17.353,85.977 -37.072,93.864 -26.03,9.466 -56.003,3.944 -91.498,-18.93 -36.284,-22.086 -109.641,-107.274 -109.641,-127.782 0,-5.522 -5.521,-17.354 -11.831,-25.241 -6.311,-8.677 -11.832,-26.819 -11.832,-41.017 0,-14.198 -3.155,-28.396 -7.888,-30.762 -10.254,-6.31 -10.254,-80.45602 0.789,-127.78202 23.663,-106.486 62.313,-190.096 111.218,-239 36.284,-37.073 33.128,-44.172 -16.565,-42.594 -48.115,0.788 -127.782,15.775 -134.881,25.24 -2.366,3.156 -18.931,26.819 -35.495,52.849 -78.089,117.528 -173.531,177.475 -281.594,177.475 -31.551,0 -70.99,-3.944 -88.343,-7.099 -47.327,-11.043 -44.172,-14.987 -97.809,101.752 -13.409,28.39602 -26.818,60.73602 -29.185,73.35702 -3.155,11.832 -8.676,23.663 -12.62,26.03 -3.944,2.366 -7.099,13.409 -7.099,25.24 -7.496,118.0959 -65.959,139.7543 -47.327,29.974 3.944,-3.944 7.888,-14.987 7.888,-24.452 0,-8.677 5.521,-26.03 11.832,-38.65 6.31,-11.832 11.831,-26.03 11.831,-29.974 0,-6.31 11.832,-36.284 34.707,-85.18802 7.887,-17.353 22.085,-40.228 41.805,-67.835 18.142,-24.452 16.564,-34.706 -3.155,-34.706 -6.31,0 -19.72,-9.466 -30.763,-21.297 -20.508,-22.086 -21.297,-22.086 -62.313,17.353 -114.373,283.17102 -252.543,350.73262 -158.545,186.94002 5.522,-11.831 18.142,-37.072 27.608,-56.79202 29.973,-62.313 93.864,-151.445 119.894,-168.01 21.297,-13.409 18.931,-23.663 -12.62,-65.468 -14.987,-19.72 -27.608,-42.594 -27.608,-50.482 0,-7.888 -3.155,-17.353 -7.888,-19.719 -3.943,-2.367 -7.887,-13.41 -7.887,-24.453 0,-25.241 -13.41,-50.481 -26.819,-50.481 -5.521,0 -17.353,-6.311 -26.03,-13.41 -9.465,-7.887 -37.861,-31.551 -64.679,-53.637 -50.482,-41.805 -57.581,-57.581 -33.129,-72.567 17.353,-11.043 104.908,-26.03 134.881,-23.664 14.987,1.578 20.508,-3.155 26.03,-22.086 3.944,-12.62 11.831,-33.917 18.142,-45.749 6.31,-12.62 11.043,-26.029 11.043,-29.973 0,-22.875 69.412,-98.598 116.739,-128.571 l 34.706,-21.297 -5.521,-84.4 c -3.155,-46.538 -6.311,-87.554 -7.099,-90.709 0,-3.944 5.521,-11.0430001 12.62,-15.7760001 11.043,-7.099 16.565,-5.521 29.974,8.6770001 8.676,9.465 19.719,17.353 22.874,17.353 7.888,0 84.4,74.145 109.641,105.696 12.62,16.565 26.818,24.452 52.848,28.396 41.016,6.311 53.637,-3.155 63.102,-45.749 3.155,-14.198 10.254,-35.495 16.564,-47.327 6.311,-11.831 11.043,-25.24 11.043,-30.762 0,-4.733 2.367,-10.254 6.311,-11.832 3.155,-0.788 14.198,-18.9300001 25.241,-39.439 10.254,-21.297 22.085,-37.861 25.24,-37.861 2.367,0 7.099,-7.099 10.255,-14.987 7.099,-24.452 111.217,-130.148 121.472,-123.838 14.986,9.465 9.465,24.452 -19.72,52.848 -26.818,25.241 -82.033,94.654 -103.33,129.3599999 -22.875,37.8610001 -65.469,128.5710001 -65.469,139.6140001 0,7.099 -3.155,15.775 -7.887,18.142 -13.41,8.676 -8.677,33.128 7.099,37.861 19.719,4.733 24.452,0 24.452,-26.818 0,-11.832 6.31,-33.129 13.409,-48.116 7.099,-14.198 18.142,-36.284 24.452,-49.693 23.663,-48.116 65.469,-104.908 109.64,-150.657 66.258,-67.046 144.347,-126.204 154.601,-116.739 7.888,7.888 -14.198,41.016 -37.861,57.581 -45.75,31.551 -115.162,103.33 -153.812,158.544 -11.043,14.987 -23.664,31.552 -28.396,36.284 -10.254,11.832 -52.848,100.175 -63.891,135.67 -7.888,22.875 -7.099,25.241 6.31,25.241 8.676,0 17.353,-6.31 19.719,-13.409 18.931,-63.102 82.033,-147.502 151.446,-201.9280001 56.792,-44.1709999 77.3,-58.3689999 96.231,-65.4679999 6.31,-2.367 21.297,-9.466 33.129,-15.776 11.043,-6.31 26.029,-11.043 33.128,-11.043 7.099,0 19.72,-4.732 28.396,-9.465 11.832,-7.099 17.354,-7.888 24.453,-0.789 11.831,11.832 -12.621,38.65 -43.383,46.538 -44.172,11.043 -140.403,68.6239999 -185.363,112.007 -13.41,12.62 -56.792,65.468 -70.202,85.188 -5.521,8.676 -22.085,33.917 -37.072,56.792 l -26.819,41.805 25.241,14.987 c 14.198,8.677 30.763,14.198 37.073,11.043 6.31,-2.366 37.861,-7.099 70.99,-11.043 76.511,-10.254 102.541,-14.987 122.261,-23.663 8.676,-3.944 24.452,-11.043 35.495,-15.776 11.043,-4.733 26.818,-12.62 35.495,-18.142 8.676,-5.521 44.96,-26.818 81.244,-47.327 35.495,-21.297 67.046,-41.805 69.412,-45.749 2.367,-3.944 11.043,-7.099 18.931,-7.099 7.888,0 15.776,-3.155 17.353,-6.31 3.944,-10.254 68.624,-41.016 84.4,-41.016 8.676,0 16.564,-3.944 18.142,-7.888 1.577,-4.733 16.564,-10.254 33.917,-13.409 17.353,-2.367 33.918,-7.888 36.284,-11.832 4.733,-7.8880001 127.782,-25.241 176.686,-25.241 58.37,0 149.868,12.6199999 172.743,23.6629999 12.62,6.3100001 30.762,11.0430001 39.439,11.0430001 9.465,0.789 30.762,7.099 48.115,15.776 42.594,20.508 59.159,19.719 59.159,-1.578 0,-25.2410001 23.663,-85.188 46.538,-116.739 11.043,-14.987 66.257,-73.357 123.049,-130.149 86.766,-85.976 104.908,-108.851 116.739,-142.769 16.565,-51.27 17.354,-83.61 0,-129.359 -12.62,-34.707 -56.003,-102.542 -64.679,-102.542 -2.367,0 -16.565,-11.042 -30.763,-23.663 -14.987,-12.62 -50.482,-33.917 -78.878,-47.327 -29.184,-13.409 -58.369,-27.607 -64.68,-30.762 -7.099,-3.944 -24.452,-9.465 -39.438,-12.62 -14.987,-3.156 -30.763,-8.677 -35.495,-11.832 -15.776,-11.832 -119.895,-26.03 -220.859,-29.18497 -207.448,-7.099 -334.442,52.05897 -370.726,172.74297 -12.62,44.171 -13.409,49.693 -0.788,86.765 7.099,22.086 12.62,44.961 12.62,50.482 0,6.31 3.155,17.353 7.099,25.241 14.198,26.03 40.228,117.528 40.228,139.614 0,25.241 -26.03,71.779 -47.327,82.822 -24.452,13.409 -76.512,8.676 -110.429,-8.677 -31.551,-16.564 -86.766,-73.356 -86.766,-89.132 0,-4.733 -5.521,-18.931 -11.831,-31.551 -19.72,-37.073 -29.974,-82.822 -33.129,-150.657 -3.944,-63.891 1.577,-92.287 30.762,-161.7 25.241,-60.735 31.551,-70.201 75.723,-119.10497 85.188,-93.865 173.531,-138.036 328.921,-164.855 89.921,-14.987 384.924,0 428.307,22.875 7.099,3.155 26.818,9.465 44.171,11.831 30.763,5.522 36.284,7.888 82.033,30.763 14.987,7.099 29.974,13.409 34.707,13.409 7.887,0 92.287,48.904 115.161,67.046 76.512,58.36997 150.657,153.81197 167.222,216.12597 10.254,39.439 3.155,145.135 -12.621,177.475 -6.31,12.62 -11.043,26.818 -11.043,32.34 0,5.521 -7.099,17.353 -15.775,27.607 -8.677,10.254 -15.776,21.297 -15.776,24.452 0,13.409 -123.838,129.36 -163.277,151.446 -26.819,15.775 -95.442,86.765 -106.485,110.429 -30.763,63.891 -41.017,99.386 -33.129,119.894 3.155,7.099 21.297,19.72 41.805,28.396 19.72,8.677 48.116,22.086 63.102,29.185 40.228,19.719 167.222,18.931 213.76,-2.366 19.719,-8.677 37.072,-17.353 39.439,-19.72 17.353,-18.142 59.158,-40.228 72.567,-37.861 21.297,3.155 68.624,86.765 69.413,122.261 0,13.409 3.155,26.818 7.099,29.184 3.944,2.367 9.465,13.41 11.831,24.453 4.733,18.141 48.904,97.019 59.947,106.485 2.367,2.366 29.185,33.917 59.159,70.201 29.973,37.073 69.412,81.244 86.765,99.386 138.826,143.558 150.657,166.432 104.908,205.083 -22.086,18.142 -29.185,20.508 -60.736,15.775 -88.343,-12.62 -149.868,-41.805 -206.66,-100.175 -44.172,-44.96 -93.864,-131.726 -93.864,-163.277 0,-19.719 -14.198,-22.086 -21.297,-2.366 -11.043,28.396 -44.961,65.468 -87.555,93.864 -44.96,29.974 -45.749,29.974 -122.261,29.185 -47.326,0 -84.399,-4.732 -96.231,-11.043 -17.353,-9.465 -21.297,-8.676 -30.762,3.944 -5.522,7.888 -8.677,21.297 -6.31,29.185 3.155,13.409 10.254,14.987 52.059,12.62 l 48.116,-2.366 9.465,51.271 c 16.564,91.498 37.861,170.376 57.581,216.914 3.944,8.677 14.198,33.917 23.663,55.214 16.565,37.86202 28.396,61.52502 83.611,169.58802 21.297,40.228 26.818,59.947 26.818,95.442 0,68.624 -33.128,89.132 -92.287,56.792 z m 60.736,-59.947 c 0,-4.733 -27.607,-65.469 -62.313,-134.881 -70.991,-145.13502 -87.555,-181.41902 -87.555,-192.46202 0,-3.944 -5.521,-18.142 -11.832,-29.974 -6.31,-12.62 -11.831,-29.185 -11.831,-37.072 0,-7.888 -3.155,-21.297 -7.888,-29.185 -3.944,-7.888 -10.254,-38.65 -13.409,-68.624 l -6.311,-53.637 -49.693,-3.944 c -43.382,-3.155 -51.27,-2.366 -59.947,11.832 -27.607,41.016 -89.132,90.709 -113.584,90.709 -7.888,0 -18.142,3.944 -23.663,9.466 -11.832,11.831 -89.132,23.663 -171.165,25.241 l -63.103,1.577 0.789,84.4 c 0.789,66.257 3.155,87.55402 14.198,98.59702 7.099,7.888 12.621,17.353 12.621,21.297 0,5.521 30.762,35.495 65.468,63.891 6.311,5.522 22.086,11.832 35.495,14.987 14.198,2.366 26.819,8.676 29.185,12.62 6.31,9.466 145.924,9.466 145.924,0 0,-3.944 7.099,-10.254 16.565,-12.62 29.973,-9.465 44.96,-29.974 85.188,-112.79502 9.465,-18.142 16.564,-38.651 16.564,-45.75 0,-18.93 31.551,-74.934 39.439,-70.201 4.733,3.155 7.888,16.564 7.888,29.974 0,14.198 3.944,39.439 8.676,56.792 4.733,17.353 11.832,47.32602 15.776,67.04602 4.733,19.719 13.409,46.538 19.719,60.736 6.311,13.409 11.043,26.818 11.043,29.973 0,9.466 67.835,110.43 82.033,121.472 11.043,9.466 17.353,9.466 28.396,2.367 11.832,-7.099 14.987,-6.31 18.931,3.944 3.944,9.465 7.099,10.254 16.564,2.366 6.311,-5.521 11.832,-13.409 11.832,-18.142 z m -1323.571,-21.297 c 26.03,0 23.664,-20.508 -6.31,-76.512 -29.974,-54.425 -69.413,-133.303 -85.188,-167.22102 -11.832,-26.029 -10.254,-140.402 1.577,-152.234 5.522,-5.521 9.466,-14.198 9.466,-20.508 0,-15.776 49.693,-113.584 70.201,-138.825 8.677,-10.254 8.677,-13.41 -3.155,-18.142 -10.254,-3.155 -19.72,1.577 -33.129,18.142 -29.973,37.072 -88.343,135.67 -93.864,159.333 -3.156,11.832 -9.466,26.03 -14.199,32.34 -4.732,6.31 -8.676,52.059 -8.676,118.317 0,105.69602 0,108.06302 24.452,151.44502 43.383,75.723 94.654,119.895 117.528,100.175 3.944,-3.155 13.409,-6.31 21.297,-6.31 z m -488.254,-384.13502 c 22.875,-7.099 49.693,-18.142 60.736,-25.241 31.551,-18.931 98.597,-91.499 131.726,-142.769 48.116,-74.145 49.693,-75.723 54.426,-64.68 5.521,11.832 36.284,12.62 48.115,0.789 16.565,-16.565 227.169,0.789 282.383,23.663 8.677,3.944 42.594,14.987 74.934,24.452 32.34,10.254 63.102,20.509 67.046,23.664 4.733,3.155 21.297,7.887 37.862,11.043 15.775,3.155 29.185,8.676 29.185,12.62 0,4.733 7.887,7.888 18.141,7.888 9.466,0 27.608,5.521 40.228,11.831 11.832,6.311 28.396,11.832 35.495,11.832 7.099,0 22.086,4.733 33.129,11.043 11.043,5.522 37.861,13.409 59.158,16.564 21.297,3.156 43.383,9.466 49.693,14.198 7.888,6.311 57.581,9.466 157.756,8.677 120.683,-0.789 150.657,-3.155 170.376,-13.409 13.41,-7.099 28.396,-13.409 33.918,-13.409 20.508,0 109.64,-87.555 116.739,-114.373 2.367,-11.043 7.888,-19.72 11.832,-19.72 13.409,0 7.099,-38.65 -6.31,-42.594 -34.707,-11.832 -103.33,-93.865 -134.093,-162.488 -39.439,-86.766 -45.749,-126.205 -18.93,-126.205 18.93,0 29.184,13.409 36.283,47.327 8.677,44.171 52.06,123.838 92.288,168.798 70.201,79.667 149.868,100.964 254.775,70.202 56.792,-17.353 100.964,-57.581 130.149,-118.317 11.043,-22.875 22.874,-41.805 26.818,-41.805 14.198,0 36.284,26.029 36.284,42.594 0,14.198 51.27,126.993 63.102,138.825 2.366,2.366 12.62,16.564 23.663,32.34 32.34,48.904 168.01,106.485 184.575,78.878 7.099,-11.043 36.283,-11.832 36.283,-0.789 0,4.732 3.944,7.888 7.888,7.888 17.353,0 5.522,-18.931 -37.072,-63.892 -25.241,-25.24 -65.469,-68.623 -89.921,-95.442 -24.452,-27.607 -62.314,-68.624 -82.822,-92.287 -41.016,-44.96 -89.132,-116.739 -89.921,-132.515 0,-5.521 -3.155,-10.254 -7.887,-10.254 -3.944,0 -7.888,-4.733 -7.888,-9.465 -0.789,-5.522 -7.099,-24.452 -15.776,-41.805 -8.676,-17.354 -14.986,-37.073 -15.775,-44.172 0,-7.099 -5.522,-23.663 -11.832,-35.495 -6.31,-12.621 -11.832,-29.185 -11.832,-36.284 0,-7.888 -3.155,-14.198 -7.887,-14.198 -7.888,0 -48.905,17.353 -55.215,23.663 -11.043,11.043 -71.779,39.439 -85.977,39.439 -8.676,0 -18.142,3.944 -20.508,7.888 -6.31,9.465 -112.007,10.254 -117.528,0.789 -2.366,-3.155 -17.353,-8.677 -33.129,-11.043 -22.874,-3.944 -94.653,-36.284 -239.789,-108.063 -7.099,-3.155 -23.663,-8.676 -37.861,-11.043 -13.409,-3.155 -26.818,-9.465 -29.185,-13.409 -3.155,-3.944 -12.62,-7.099 -22.086,-7.099 -9.465,0 -27.607,-5.521 -41.016,-12.62 -34.706,-18.142 -288.693,-18.142 -323.399,0 -12.621,7.099 -31.552,12.62 -41.806,12.62 -9.465,0 -23.663,3.155 -31.551,7.099 -44.171,23.663 -82.822,40.228 -92.287,40.228 -6.31,0 -11.832,3.155 -11.832,7.099 0,3.944 -9.465,11.043 -21.297,15.775 -12.62,4.733 -48.904,26.819 -81.244,48.116 -32.34,21.297 -74.934,46.538 -94.653,56.003 -19.72,9.466 -42.594,20.508 -51.271,25.241 -23.663,12.621 -96.231,23.664 -159.333,24.452 -31.552,0.789 -57.581,3.155 -57.581,6.311 0,11.042 18.142,45.749 24.452,45.749 3.155,0 7.888,9.465 11.043,21.297 2.366,11.831 8.676,23.663 12.62,26.818 3.944,2.367 8.677,14.987 9.466,26.819 2.366,37.861 -19.72,33.128 -41.806,-9.466 -40.227,-76.511 -63.102,-110.429 -82.821,-120.683 -11.043,-5.521 -19.72,-14.987 -19.72,-20.508 0,-15.776 -15.775,-21.297 -20.508,-7.099 -3.155,7.099 0.789,16.564 7.888,22.086 10.254,7.888 13.409,18.93 11.043,44.96 -3.156,42.594 -16.565,44.961 -22.875,4.733 -2.366,-15.776 -8.677,-33.129 -14.198,-38.65 -4.733,-4.733 -8.677,-22.086 -8.677,-38.651 0,-21.297 -3.155,-29.973 -11.831,-29.973 -15.776,0 -16.565,60.736 -0.789,78.089 15.775,18.142 22.874,75.723 10.254,85.977 -11.832,10.254 -23.663,3.155 -33.129,-18.142 -5.521,-14.198 -7.099,-14.198 -9.465,-1.578 -5.521,22.086 -15.776,14.987 -20.508,-14.986 -2.367,-15.776 0.789,-52.06 7.099,-80.456 7.888,-34.706 9.465,-53.637 3.944,-59.158 -4.733,-4.733 -26.03,-7.099 -47.327,-6.31 -41.805,0.788 -47.327,-1.578 -85.188,-51.271 -46.538,-60.736 -88.343,-100.964 -93.076,-89.132 -3.944,10.254 2.366,59.158 15.775,129.36 4.733,21.297 1.578,25.241 -29.184,42.594 -51.271,29.185 -104.119,82.821 -126.205,129.359 -58.37,123.05 -56.003,111.218 -52.059,197.195 2.366,54.426 7.887,88.343 16.564,104.119 7.099,13.409 13.409,28.396 13.409,33.917 0,11.832 14.987,39.439 33.918,62.314 l 14.986,16.564 36.284,-19.719 c 20.509,-11.043 49.693,-22.875 64.68,-26.03 14.987,-3.155 33.129,-7.099 39.439,-8.676 7.099,-2.367 12.621,3.943 14.198,14.986 3.155,18.931 16.565,22.875 30.763,8.677 5.521,-5.522 10.254,-5.522 13.409,-0.789 3.155,4.733 -11.043,24.452 -31.551,44.172 -50.482,50.482 -44.961,59.947 36.283,59.947 38.651,0 80.456,-5.521 104.908,-13.409 z m -182.208,-33.918 c 16.564,-18.142 29.974,-33.917 29.974,-35.495 0,-8.676 -22.875,-3.155 -26.03,6.31 -2.366,7.099 -7.099,7.099 -19.719,0 -14.198,-8.676 -22.086,-7.887 -48.905,6.311 -26.029,13.409 -29.973,18.93 -22.874,27.607 5.521,6.31 15.775,9.465 23.663,7.099 9.465,-3.155 16.564,-0.789 19.719,7.099 7.1,18.142 10.255,16.564 44.172,-18.931 z m -243.733,-261.874 c 2.367,-14.198 5.522,-33.129 7.099,-41.806 2.367,-14.198 -2.366,-15.775 -41.016,-18.142 -68.624,-3.155 -74.145,7.099 -27.607,48.905 22.085,19.719 43.383,35.495 48.115,36.284 5.522,0 11.043,-11.832 13.409,-25.241 z m 1835.489,-490.621 c 0,-66.257 47.327,-130.937 161.7,-221.647 52.848,-41.805 139.613,-130.148 151.445,-153.812 30.762,-64.679 35.495,-82.821 36.284,-137.247 0.789,-57.581 -0.789,-66.257 -36.284,-137.248 -22.086,-42.594 -128.571,-145.13497 -170.376,-164.06597 -18.142,-7.887 -32.34,-16.564 -32.34,-20.508 0,-3.155 -6.31,-6.31 -14.198,-6.31 -7.888,0 -20.508,-4.733 -29.185,-11.043 -8.676,-5.521 -28.396,-13.409 -43.383,-16.564 -14.987,-3.155 -30.762,-7.888 -35.495,-11.043 -3.944,-2.367 -29.185,-9.466 -55.214,-14.987 -183.786,-38.65 -435.406,-31.551 -548.202,15.776 -100.963,41.805 -185.363,117.52797 -229.534,206.65997 -26.03,52.848 -26.819,56.792 -26.819,149.868 0,74.934 3.155,102.541 14.198,126.993 35.495,78.878 52.848,99.386 97.809,118.317 36.284,14.987 63.102,9.465 74.145,-14.198 8.677,-18.142 1.578,-56.792 -28.396,-155.39 -25.241,-83.61 -29.185,-107.274 -25.241,-149.868 5.522,-53.637 26.819,-97.808 66.257,-134.881 65.469,-63.10197 130.938,-89.92097 242.156,-101.75197 80.455,-8.677 268.973,1.577 295.792,14.987 7.099,3.943 27.607,9.465 45.749,12.62 18.931,3.155 35.495,7.888 37.861,11.832 2.367,3.155 15.776,8.67597 30.763,11.04297 32.34,6.31 119.894,49.693 160.911,80.455 44.171,33.129 78.089,73.356 102.541,120.683 18.142,37.073 21.297,52.06 21.297,110.429 0,96.231 -26.03,139.614 -148.291,249.254 -89.92,80.456 -128.571,130.938 -143.557,189.307 -11.043,41.806 -11.043,46.538 0.788,59.947 18.142,20.509 26.819,11.832 26.819,-27.607 z"
             inkscape:connector-curvature="0"
             style="stroke-width:0.78877884"
             sodipodi:nodetypes="csccccscccssccccscsccscscsccccccccccscsccccccsccccccscsccsccccccscssccccccsccccccsccscsccsccccsccsccccccccsccccscccccccccccscccscscccscccsccccsccccccccscsccsccccccccscccscscccccccccccccccccsccccccccccccscscscscccccscccccscccsccscscccsccccsscccscccccsccsccccsccccsscscccccscsccsccccsssccssccccsccccssssccccccsccscsscscccsscccccsccccsssccccccsccccccccscccscccscsccscccccccccccccscccccsscsccccscccccccccccccscccs" />
          <path
             id="path4822"
             d="m 42701.194,781.33488 c -15.775,-11.043 -15.775,-11.832 2.367,-16.565 9.465,-3.155 40.227,-16.564 67.046,-29.973 34.706,-18.142 49.693,-29.974 51.27,-42.594 1.578,-10.254 -1.577,-17.353 -7.887,-17.353 -5.522,0 -22.875,-12.621 -37.862,-27.608 -31.551,-32.34 -40.227,-33.128 -71.779,-10.254 -31.551,23.664 -49.693,12.621 -52.848,-32.34 -3.155,-41.016 18.931,-78.878 56.792,-99.386 25.241,-14.198 28.396,-14.198 47.327,-1.577 23.663,15.775 26.03,33.917 7.099,59.947 -12.62,18.142 -11.832,19.719 7.099,35.495 11.043,9.465 27.607,22.086 37.861,28.396 9.466,6.31 25.241,18.142 34.707,25.241 16.564,12.62 18.142,12.62 30.762,-2.367 7.099,-7.887 13.409,-18.141 13.409,-21.297 0,-3.155 4.733,-14.986 11.043,-26.029 5.522,-11.043 12.621,-41.806 15.776,-67.046 9.465,-76.512 18.93,-105.697 36.284,-105.697 28.396,0 29.184,45.749 3.155,126.205 -13.41,42.594 -34.707,86.765 -48.116,100.963 -5.521,5.522 -10.254,13.41 -10.254,16.565 0,12.62 -74.934,81.244 -104.119,95.442 -46.538,22.086 -71.779,26.03 -89.132,11.832 z m 15.776,-201.139 c 7.888,-8.676 11.832,-20.508 8.676,-28.396 -4.732,-12.62 -7.887,-11.832 -26.029,6.31 -11.043,11.043 -17.353,24.453 -14.987,29.185 7.888,12.621 15.775,11.043 32.34,-7.099 z"
             inkscape:connector-curvature="0"
             style="stroke-width:0.78877884" />
          <path
             id="path4824"
             d="m 43655.617,669.32788 c -8.677,-2.366 -18.931,-7.099 -22.875,-11.043 -4.733,-3.944 -12.62,-7.099 -18.931,-7.099 -17.353,0 -100.174,-52.848 -134.881,-85.977 -37.072,-36.283 -82.822,-105.696 -99.386,-152.234 -15.775,-44.96 -22.086,-112.795 -14.198,-154.601 10.254,-52.848 21.297,-39.439 26.819,29.974 3.155,35.495 8.676,67.835 14.198,73.356 4.732,4.733 8.676,14.198 8.676,20.509 0,22.085 47.327,107.274 76.512,138.825 46.538,48.904 102.541,90.709 121.472,90.709 4.732,0 20.508,5.522 34.706,11.832 17.353,8.677 43.383,11.832 83.61,10.254 56.004,-2.366 58.37,-3.155 59.159,-22.086 0.789,-36.284 3.155,-39.439 26.818,-39.439 13.41,0 23.664,-3.155 23.664,-7.887 0,-3.944 -0.789,-7.888 -1.578,-8.677 -1.577,0 -29.185,-3.155 -61.525,-7.099 -74.934,-8.677 -135.67,-20.508 -154.6,-29.974 -8.677,-3.943 -32.34,-15.775 -52.848,-26.029 -94.654,-47.327 -159.334,-153.812 -153.812,-253.198 2.366,-35.495 4.732,-41.806 18.142,-41.806 14.198,0 16.564,7.888 24.452,67.835 10.254,74.146 17.353,90.71 58.369,136.459 57.581,63.102 130.149,90.71 306.047,116.739 62.313,8.677 77.3,22.086 67.046,62.314 -14.987,60.736 -73.357,94.653 -160.911,93.076 -32.34,-0.789 -65.469,-2.366 -74.145,-4.733 z"
             inkscape:connector-curvature="0"
             style="stroke-width:0.78877884" />
          <path
             id="path4826"
             d="m 42474.026,638.56588 c -11.043,-11.043 -4.733,-52.848 11.832,-82.822 16.564,-29.974 44.171,-45.749 60.736,-34.706 13.409,7.888 10.254,26.029 -4.733,30.762 -7.888,2.366 -21.297,22.875 -29.974,45.749 -14.986,39.439 -26.818,52.06 -37.861,41.017 z"
             inkscape:connector-curvature="0"
             style="stroke-width:0.78877884" />
          <path
             id="path4828"
             d="m 42401.458,588.08388 c -11.831,-18.931 44.172,-86.766 72.568,-86.766 20.508,0 24.452,14.198 6.31,20.509 -6.31,3.155 -11.831,7.887 -11.831,11.831 0,6.31 -52.849,62.314 -59.159,62.314 -1.577,0 -5.521,-3.155 -7.888,-7.888 z"
             inkscape:connector-curvature="0"
             style="stroke-width:0.78877884" />
          <path
             id="path4830"
             d="m 42612.851,440.58188 c -5.521,-1.577 -10.254,-14.198 -10.254,-27.607 0,-31.551 52.059,-85.188 82.033,-85.188 30.762,0 34.706,20.508 7.888,41.805 -12.621,9.466 -26.819,22.875 -32.34,29.185 -31.551,38.65 -38.65,45.749 -47.327,41.805 z"
             inkscape:connector-curvature="0"
             style="stroke-width:0.78877884" />
          <path
             id="path4880"
             d="m 45200.045,580.19588 c 0,-19.719 1.578,-27.607 3.156,-17.353 1.577,9.465 1.577,25.241 0,35.495 -1.578,9.465 -3.156,1.578 -3.156,-18.142 z"
             inkscape:connector-curvature="0"
             style="stroke-width:0.78877884" />
        </g>
      </g>
      <path
         id="path13675"
         d="m 252.02891,2392.3397 c -8,-10 -10,-224 -9,-787 l 3,-774.00004 988.99999,-3 c 684,-1 993,1 1000,8 7,7 13,139 16,373.00004 l 5,361 31,6 c 89,19 173,87 221,180 27,54 28,60 33,257 5,220 8,228 73,277 58,43 162,15 198,-54 18,-33 5.7982,-68.162 19,-606 l 27.4758,-1119.35373 c -93.579,-8.47871 -105.9608,-363.38654 17.8913,-364.17196 123.8521,-0.78542 91.6157,394.33368 7.9074,363.49305 20.8184,470.9484 58.7638,1101.62984 36.7255,1711.03264 l -24,52 c -67,144 -262,175 -377,60 -59,-59 -63,-75 -69,-292 -5,-179 -8,-204 -27,-240 -25,-47 -75,-96 -120,-119 -67,-33 -63,-53 -63,342 0,265 -3,361 -12,370 -19,19 -1960.99999,17 -1976.99999,-2 z m 1903.99999,-781 V 911.33966 l -912,-3 -912.99999,-2 v 705.00004 705 l 912.99999,-2 912,-3 z"
         inkscape:connector-curvature="0"
         sodipodi:nodetypes="ccccscccccccsczcccscccsscccccccccc"
         style="fill:#000000;stroke:none"
         transform="matrix(0.02957924,0,0,-0.02957924,26.819148,139.52732)" />
      <path
         id="path13677"
         d="m 858.26814,2077.0698 c -6,-4 -39,-61 -74,-127 -74,-140 -172,-301 -245,-400 -82,-111 -81,-110 -45,-152 113,-128 306,-245 490,-294 114.99996,-32 355.99996,-34 469.99996,-5 113,29 234,83 332,148 98,66 208,166 208,189 0,8 -32,60 -71,115 -92,128 -158,235 -244,398 -79,148 -92,158 -148,109 -50,-44 -95,-69 -167,-93 -54,-18 -80,-21 -156,-18 -104,6 -172,31 -260.99996,98 -52,40 -69,46 -89,32 z"
         inkscape:connector-curvature="0"
         style="fill:#000000;stroke:none"
         transform="matrix(0.02957924,0,0,-0.02957924,26.819148,139.52732)" />
      <g
         style="fill:#00d700;stroke:none;fill-opacity:0.81960785"
         transform="matrix(0.01025619,0,0,-0.01025619,47.363539,109.56776)"
         id="g13705">
        <path
           inkscape:connector-curvature="0"
           d="m 1092,2541 c -115,-40 -147,-107 -147,-306 0,-109 4,-141 23,-199 32,-95 66,-159 110,-208 109,-122 185,-129 277,-27 84,93 123,237 105,385 -28,227 -141,375 -285,374 -16,-1 -54,-9 -83,-19 z"
           id="path13695"
           style="fill:#00d700;fill-opacity:0.81960785" />
        <path
           inkscape:connector-curvature="0"
           d="m 1829,2524 c -72,-22 -138,-73 -171,-131 -61,-108 -89,-388 -52,-513 39,-131 134,-205 229,-179 110,31 239,216 291,421 18,68 15,201 -5,269 -37,124 -152,177 -292,133 z"
           id="path13697"
           style="fill:#00d700;fill-opacity:0.81960785" />
        <path
           inkscape:connector-curvature="0"
           d="m 570,1933 c -8,-3 -32,-22 -53,-41 -65,-63 -99,-194 -78,-307 28,-152 153,-318 264,-350 94,-27 197,5 251,78 17,23 22,47 25,115 7,167 -39,284 -158,403 -57,57 -88,80 -125,92 -49,17 -97,20 -126,10 z"
           id="path13699"
           style="fill:#00d700;fill-opacity:0.81960785" />
        <path
           inkscape:connector-curvature="0"
           d="m 2315,1798 c -75,-28 -204,-148 -257,-239 -66,-113 -76,-267 -23,-374 32,-66 74,-94 150,-102 48,-5 63,-2 119,26 83,41 163,126 213,228 37,76 38,79 38,193 0,110 -2,120 -30,175 -16,32 -42,67 -57,78 -31,23 -110,31 -153,15 z"
           id="path13701"
           style="fill:#00d700;fill-opacity:0.81960785" />
        <path
           inkscape:connector-curvature="0"
           d="m 1334,1451 c -65,-19 -139,-57 -166,-87 -9,-11 -47,-66 -86,-124 C 1044,1182 978,1091 937,1037 854,927 805,835 766,712 726,586 731,539 789,477 c 76,-83 170,-77 481,31 128,44 140,47 235,46 89,-1 111,-5 205,-39 89,-32 121,-38 212,-43 95,-4 111,-2 151,17 79,38 96,118 56,261 -44,159 -151,344 -308,532 -95,114 -145,155 -208,174 -63,19 -204,17 -279,-5 z"
           id="path13703"
           style="fill:#00d700;fill-opacity:0.81960785" />
      </g>
      <g
         id="g13862"
         style=""
         transform="matrix(1.2166345,0,0,1.2166345,-322.64522,-88.762337)">
        <path
           style="opacity:1;fill:#ffffff;fill-opacity:1;fill-rule:nonzero;stroke:#000000;stroke-width:0.67427099;stroke-miterlimit:4;stroke-dasharray:none;stroke-opacity:0.06422017"
           d="m 1116.5673,561.08738 v -64.36223 l 69.7954,0.001 c 38.3875,6.7e-4 76.0018,0.1662 83.5873,0.36786 l 13.7919,0.36664 v 63.99438 63.99437 h -83.5873 -83.5873 z m 99.238,47.94929 c 9.47,-1.65381 23.6737,-7.52799 33.0553,-13.67059 7.9442,-5.20146 17.5603,-13.42322 19.4025,-16.58926 0.9524,-1.63675 0.943,-1.67814 -1.1935,-5.21166 -1.1845,-1.95899 -4.5872,-7.07246 -7.5615,-11.36328 -6.0027,-8.65951 -11.9517,-18.4575 -18.1013,-29.81281 -7.0005,-12.92628 -9.1043,-15.59665 -11.6508,-14.78841 -0.6061,0.19235 -2.6871,1.61909 -4.6246,3.17052 -3.9886,3.19388 -8.9533,5.82661 -14.6677,7.77813 -3.3959,1.15974 -4.8743,1.32612 -11.4236,1.28561 -11.2735,-0.0697 -15.8519,-1.60621 -26.5487,-8.90943 -2.8856,-1.97017 -5.6269,-3.58213 -6.0917,-3.58213 -1.5146,0 -3.2933,2.39052 -7.4666,10.03534 -9.5229,17.44407 -16.6458,28.97369 -26.9988,43.70194 -4.1088,5.8452 -4.0777,6.51072 0.5321,11.39734 9.2765,9.83357 23.2407,18.52872 38.0163,23.67178 9.5357,3.31914 17.3275,4.30154 31.3437,3.95183 5.057,-0.12618 11.3475,-0.60539 13.9789,-1.06492 z"
           id="path13845"
           inkscape:connector-curvature="0"
           transform="scale(0.26458333)" />
      </g>
      <path
         transform="scale(0.26458333)"
         inkscape:connector-curvature="0"
         id="path13993"
         d="m 276.96935,530.69783 c -2.42241,-2.91883 -0.51434,-5.9541 2.28335,-3.63223 2.2905,1.90095 2.81667,5.77369 0.78443,5.77369 -0.70979,0 -2.09029,-0.96365 -3.06778,-2.14146 z"
         style="opacity:1;fill:#ffffff;fill-opacity:1;fill-rule:nonzero;stroke:#000000;stroke-width:1.77941179;stroke-miterlimit:4;stroke-dasharray:none;stroke-opacity:0.06422017" />
      <path
         transform="scale(0.26458333)"
         inkscape:connector-curvature="0"
         id="path13995"
         d="m 423.23942,607.83682 c -16.24528,-2.08591 -26.02143,-5.98021 -46.95643,-18.70494 -22.29186,-13.54947 -26.35886,-15.19349 -41.81417,-16.90281 -7.79382,-0.86198 -14.40821,-1.76714 -14.69865,-2.01148 -0.29044,-0.24434 0.7521,-2.30221 2.31677,-4.57304 4.0465,-5.87278 6.75565,-13.23046 5.57497,-15.14085 -1.48487,-2.40256 -4.25645,0.36023 -9.32295,9.29339 -4.70774,8.3006 -13.21483,17.91712 -14.61311,16.51883 -0.48322,-0.48322 -0.0955,-1.66167 0.86161,-2.61878 2.09532,-2.09532 2.33846,-11.44608 0.29762,-11.44608 -0.79341,0 -1.87731,1.81985 -2.40865,4.04412 -0.53135,2.22426 -1.47805,4.70588 -2.10378,5.5147 -0.62573,0.80883 -1.40115,3.45588 -1.72315,5.88235 -0.50358,3.7947 -0.76112,4.02148 -1.84127,1.62138 -0.78136,-1.73617 -0.53966,-4.51413 0.63974,-7.35294 2.89086,-6.95828 3.53577,-13.61502 1.44426,-14.90765 -1.06043,-0.65538 -2.5157,-0.20888 -3.44943,1.05833 -0.88833,1.20558 -2.35809,1.94139 -3.26614,1.63512 -2.55842,-0.86292 -3.24176,4.22807 -1.80086,13.4166 0.72251,4.60735 0.92848,9.0002 0.45773,9.7619 -0.47076,0.7617 -3.5204,1.38491 -6.77698,1.38491 -5.00017,0 -6.64486,0.84237 -10.57497,5.41624 -10.9417,12.73397 -14.02882,15.84612 -14.87718,14.99777 -0.49475,-0.49476 -0.10696,-5.69888 0.86176,-11.5647 1.54704,-9.36769 1.47977,-10.82271 -0.55296,-11.96027 -1.27284,-0.71232 -5.66555,-3.94418 -9.76158,-7.1819 -5.89903,-4.66292 -8.72,-8.51611 -13.56894,-18.53402 -5.99914,-12.3942 -6.10654,-12.88905 -5.36765,-24.73246 0.57665,-9.24306 1.74722,-14.13637 4.97741,-20.80705 4.78882,-9.88939 5.14446,-9.98589 18.71618,-5.07821 8.07386,2.9196 8.72494,2.95692 10.4491,0.59898 1.09902,-1.50299 2.81171,-2.14125 4.25728,-1.58653 3.57351,1.37128 2.9642,-0.58867 -2.08871,-6.71873 -2.47898,-3.00743 -4.09434,-6.13615 -3.58968,-6.95271 1.39662,-2.25977 15.41858,-1.77212 24.22262,0.8424 9.20347,2.73313 19.75112,12.0136 28.5927,25.15761 l 5.74781,8.54476 15.05724,0.45971 c 8.28148,0.25284 19.0864,-0.27092 24.01093,-1.1639 7.86556,-1.4263 35.37504,-9.72745 43.55386,-13.14264 11.20862,-4.68033 11.34691,-4.70404 13.90943,-2.385 3.86328,3.49623 8.69738,2.81073 10.66725,-1.51267 2.90568,-6.37725 9.52404,-7.9908 32.77626,-7.9908 27.96846,0 36.61334,3.56366 46.11834,19.01126 l 4.5084,7.32709 -8.11443,7.74443 c -12.82409,12.23934 -23.2902,36.23284 -16.42554,37.65548 1.70469,0.35329 3.09923,-0.85328 4.18263,-3.61884 4.59752,-11.73597 10.49571,-22.79776 14.72307,-27.61247 16.12933,-18.3703 43.88596,-15.41909 55.94497,5.94831 5.56123,9.85393 6.48434,9.37679 13.62118,-7.04039 6.46105,-14.86263 11.44677,-20.96413 20.91612,-25.59706 6.14301,-3.00549 9.34669,-3.71793 13.9452,-3.10114 3.28352,0.44041 6.31456,1.14529 6.73568,1.5664 0.4211,0.42111 -6.5016,8.68745 -15.38379,18.36965 -23.78956,25.93225 -29.17362,34.0392 -35.55644,53.53846 -1.78712,5.45956 -3.60211,9.92647 -4.03333,9.92647 -0.43122,0 -3.85153,-1.62068 -7.60069,-3.60151 -21.73565,-11.48381 -30.31037,-10.82893 -61.22843,4.6762 -24.38744,12.23007 -47.19135,16.63291 -70.58823,13.62872 z M 389.2518,581.00106 c 2.91755,-15.39066 4.35603,-19.71288 8.15844,-24.51382 6.53672,-8.25328 17.17483,-13.23392 36.4475,-17.06434 20.19683,-4.01409 22.36397,-5.51733 19.35425,-13.4251 -2.85445,-7.49981 -9.32538,-11.03622 -21.83141,-11.93103 -9.19368,-0.6578 -10.87995,-0.29326 -20.8369,4.50453 -19.11253,9.20944 -32.67891,26.81689 -34.56486,44.86086 -0.95033,9.09213 0.0498,16.46596 2.2332,16.46596 0.68206,0 1.65327,-3.47427 2.15825,-7.72059 1.94153,-16.32594 8.66312,-29.47142 20.63391,-40.35398 8.84303,-8.03913 16.08642,-10.74896 28.73205,-10.74896 8.41859,0 8.76659,0.15054 9.21434,3.98596 0.3295,2.82249 1.53845,4.26006 4.14179,4.92501 3.00679,0.76801 2.33712,1.13135 -3.67647,1.99473 -22.1149,3.17506 -31.97978,6.69804 -41.73097,14.90313 -8.92749,7.51198 -16.20109,25.05976 -14.00847,33.79585 1.13918,4.53884 4.73659,4.74647 5.57535,0.32179 z M 279.02981,563.87044 c 0.97599,-1.57919 -11.22973,-14.85468 -13.65766,-14.85468 -0.93035,0 -1.69155,1.70532 -1.69155,3.7896 0,6.94612 12.37942,15.87031 15.34921,11.06508 z m 38.77402,-18.82358 c 0.59593,-5.97265 -4.7571,-21.49092 -10.08405,-29.23338 -8.1098,-11.78719 -20.81893,-20.15875 -28.23036,-18.59547 -4.42737,0.93385 -2.84305,3.07064 4.67455,6.30462 6.596,2.83753 13.23052,8.04897 11.738,9.22025 -10.89768,8.55216 -11.72327,8.88997 -17.03381,6.96965 -6.44452,-2.33037 -8.47603,-0.70184 -8.26826,6.62812 0.2433,8.58327 9.84084,16.81938 15.48911,13.29198 2.89187,-1.806 3.33394,-5.5996 1.13198,-9.714 -1.22634,-2.29143 -0.31349,-3.56864 5.71173,-7.99156 3.94423,-2.89534 7.80938,-5.26425 8.5892,-5.26425 2.19941,0 6.01742,10.03684 7.83178,20.58824 0.90402,5.25735 2.34672,10.40807 3.206,11.44604 2.41473,2.91687 4.75116,1.29057 5.24413,-3.65024 z m -71.18555,-6.08161 c 1.00011,-1.61821 -11.494,-13.84415 -12.80652,-12.53163 -1.75109,1.75109 -1.14496,3.21245 3.55059,8.56039 4.44337,5.06071 7.71505,6.46443 9.25593,3.97124 z m 9.70937,-3.24433 c 0,-0.84157 -1.22866,-3.32319 -2.73036,-5.5147 -1.5017,-2.19152 -3.87948,-5.87517 -5.28396,-8.1859 -1.75553,-2.88827 -3.02802,-3.72692 -4.07156,-2.68338 -2.17121,2.17121 -0.18306,10.93594 3.33794,14.71529 3.0716,3.29697 8.74794,4.37975 8.74794,1.66869 z"
         style="opacity:1;fill:#ffffff;fill-opacity:1;fill-rule:nonzero;stroke:#000000;stroke-width:1.77941179;stroke-miterlimit:4;stroke-dasharray:none;stroke-opacity:0.06422017" />
      <path
         transform="scale(0.26458333)"
         inkscape:connector-curvature="0"
         id="path13997"
         d="m 211.66856,541.97647 c -0.44808,-0.72501 1.47702,-3.53942 4.278,-6.25424 5.73409,-5.55769 8.58798,-4.65749 7.77547,2.45262 -0.42197,3.6926 -1.15839,4.27959 -5.8607,4.67154 -2.95794,0.24655 -5.74469,-0.14491 -6.19277,-0.86992 z"
         style="opacity:1;fill:#ffffff;fill-opacity:1;fill-rule:nonzero;stroke:#000000;stroke-width:1.77941179;stroke-miterlimit:4;stroke-dasharray:none;stroke-opacity:0.06422017" />
      <path
         transform="scale(0.26458333)"
         inkscape:connector-curvature="0"
         id="path13999"
         d="m 250.64433,498.49692 c -4.11143,-1.83457 -3.9483,-2.77163 0.8723,-5.01067 3.63439,-1.68808 4.35744,-1.48516 8.12201,2.27941 l 4.13245,4.13246 h -4.99328 c -2.7463,0 -6.40637,-0.63054 -8.13348,-1.4012 z"
         style="opacity:1;fill:#ffffff;fill-opacity:1;fill-rule:nonzero;stroke:#000000;stroke-width:1.77941179;stroke-miterlimit:4;stroke-dasharray:none;stroke-opacity:0.06422017" />
      <path
         transform="scale(0.26458333)"
         inkscape:connector-curvature="0"
         id="path14001"
         d="m 505.64058,505.60397 c -10.14295,-9.85783 -17.60643,-12.69743 -35.70998,-13.58645 l -15.07353,-0.74023 v -11.64497 c 0,-16.15481 5.05429,-24.39915 18.38235,-29.98443 7.69939,-3.22652 22.14755,-3.3283 28.14008,-0.19823 5.14442,2.68708 10.70694,11.29122 14.43243,22.32416 3.7889,11.22075 8.14107,14.95401 8.18536,7.02136 0.035,-6.26021 5.37565,-26.00166 8.93413,-33.02427 4.72139,-9.31762 11.63344,-17.52612 14.37856,-17.07548 1.32002,0.21669 3.18151,-0.0966 4.13665,-0.69624 4.72216,-2.96451 2.6709,4.05996 -7.40456,25.35671 -11.5974,24.5137 -16.37106,37.79 -17.99817,50.05571 -0.82407,6.21216 -1.46716,7.37201 -4.09688,7.38894 -1.71565,0.011 -4.4979,0.39023 -6.18278,0.84263 -2.27514,0.6109 -4.88015,-0.94311 -10.12366,-6.03921 z"
         style="opacity:1;fill:#ffffff;fill-opacity:1;fill-rule:nonzero;stroke:#000000;stroke-width:1.77941179;stroke-miterlimit:4;stroke-dasharray:none;stroke-opacity:0.06422017" />
      <path
         transform="scale(0.26458333)"
         inkscape:connector-curvature="0"
         id="path14003"
         d="m 352.41328,514.82459 c -3.677,-4.11522 -10.75833,-16.04694 -14.27999,-24.06115 -2.17476,-4.94907 -2.56638,-9.08599 -2.15778,-22.79412 0.47066,-15.78996 0.75149,-17.11843 4.91097,-23.23107 6.01443,-8.83863 11.24746,-12.53217 16.04845,-11.3272 2.09247,0.52518 3.80449,1.94593 3.80449,3.15723 0,1.21129 -3.63971,9.45972 -8.08824,18.32984 -7.43373,14.82244 -8.08823,16.93801 -8.08823,26.14394 0,8.93803 0.71211,11.43439 6.61408,23.18626 3.63774,7.24339 6.61568,13.33524 6.61765,13.53744 0.0138,1.41972 -2.91528,-0.18114 -5.3814,-2.94117 z"
         style="opacity:1;fill:#ffffff;fill-opacity:1;fill-rule:nonzero;stroke:#000000;stroke-width:1.77941179;stroke-miterlimit:4;stroke-dasharray:none;stroke-opacity:0.06422017" />
      <path
         transform="scale(0.26458333)"
         inkscape:connector-curvature="0"
         id="path14005"
         d="m 415.74207,739.56413 c -18.4453,-4.19028 -35.53534,-16.6213 -44.09851,-32.07657 -4.00627,-7.23073 -4.28649,-8.79403 -4.28649,-23.91297 0,-14.98386 0.30479,-16.72622 4.13424,-23.63323 4.58828,-8.27569 10.22228,-12.39618 16.94944,-12.39618 7.37974,0 7.41891,4.02338 0.27915,28.67179 -3.9727,13.71485 -3.78673,20.60338 0.80499,29.81776 4.23817,8.5049 13.94103,16.57696 24.36594,20.27067 17.02525,6.0323 51.82386,5.42358 71.99138,-1.25933 23.63379,-7.83153 36.57999,-16.52353 44.0759,-29.59231 3.64879,-6.36149 4.28516,-9.0534 4.29693,-18.17641 0.007,-6.25637 -0.90983,-12.91952 -2.20761,-16.02553 -1.2621,-3.02067 -9.10533,-12.05649 -18.16251,-20.92421 -8.76761,-8.58421 -17.11525,-17.87818 -18.55029,-20.65325 -3.51985,-6.80664 -5.19916,-13.02415 -4.21233,-15.5958 1.4823,-3.8628 3.16829,-2.20641 4.20217,4.12838 1.54132,9.44388 4.7621,13.61346 25.88274,33.50748 22.16225,20.87513 25.15642,25.72541 25.34268,41.05301 0.15488,12.74532 -4.36678,21.42025 -17.7045,33.96655 -11.36549,10.69108 -21.01611,15.91686 -38.03861,20.59774 -15.06212,4.14181 -60.6868,5.49868 -75.06471,2.23241 z"
         style="opacity:1;fill:#ffffff;fill-opacity:1;fill-rule:nonzero;stroke:#000000;stroke-width:1.77941179;stroke-miterlimit:4;stroke-dasharray:none;stroke-opacity:0.06422017" />
    </g>
  </g>
</svg>
