<?xml version="1.0" encoding="UTF-8" standalone="no"?>
<!-- Created with Inkscape (http://www.inkscape.org/) -->

<svg
   xmlns:dc="http://purl.org/dc/elements/1.1/"
   xmlns:cc="http://creativecommons.org/ns#"
   xmlns:rdf="http://www.w3.org/1999/02/22-rdf-syntax-ns#"
   xmlns:svg="http://www.w3.org/2000/svg"
   xmlns="http://www.w3.org/2000/svg"
   xmlns:sodipodi="http://sodipodi.sourceforge.net/DTD/sodipodi-0.dtd"
   xmlns:inkscape="http://www.inkscape.org/namespaces/inkscape"
   width="210mm"
   height="297mm"
   viewBox="0 0 210 297"
   version="1.1"
   id="svg17192"
   sodipodi:docname="icone chien  violet ancien site.svg"
   inkscape:version="0.92.5 (2060ec1f9f, 2020-04-08)">
  <defs
     id="defs17186" />
  <sodipodi:namedview
     id="base"
     pagecolor="#ffffff"
     bordercolor="#666666"
     borderopacity="1.0"
     inkscape:pageopacity="0.0"
     inkscape:pageshadow="2"
     inkscape:zoom="0.49497475"
     inkscape:cx="46.357401"
     inkscape:cy="891.51321"
     inkscape:document-units="mm"
     inkscape:current-layer="layer1"
     showgrid="false"
     inkscape:window-width="1920"
     inkscape:window-height="1009"
     inkscape:window-x="-8"
     inkscape:window-y="-8"
     inkscape:window-maximized="1" />
  <metadata
     id="metadata17189">
    <rdf:RDF>
      <cc:Work
         rdf:about="">
        <dc:format>image/svg+xml</dc:format>
        <dc:type
           rdf:resource="http://purl.org/dc/dcmitype/StillImage" />
        <dc:title></dc:title>
      </cc:Work>
    </rdf:RDF>
  </metadata>
  <g
     inkscape:label="Calque 1"
     inkscape:groupmode="layer"
     id="layer1">
    <g
       transform="matrix(0.10191314,0,0,-0.10191314,334.84985,878.27227)"
       style="fill:#000000;stroke:none"
       id="g10595">
      <g
         style="fill:#000000;stroke:none"
         transform="matrix(0.28302714,0,0,0.28302714,-3512.7098,6795.2041)"
         id="g8204-2-4">
        <path
           style="opacity:1;fill:#660e3f;fill-opacity:1;fill-rule:nonzero;stroke:none;stroke-width:1.96115077;stroke-miterlimit:4;stroke-dasharray:none;stroke-opacity:1"
           d="m 666.32937,-19.30816 c -19.70056,-2.33035 -37.66133,-11.45982 -51.54729,-26.20152 -35.22075,-37.39124 -29.88236,-95.89353 11.5361,-126.42176 16.52867,-12.18276 38.67596,-18.0743 58.9864,-15.69135 18.5489,2.17629 35.03363,9.82719 48.31461,22.42382 18.12533,17.19136 26.96244,37.48549 26.92117,61.82359 -0.0233,13.80467 -2.18462,23.55746 -7.88866,35.5988 -5.06331,10.68877 -10.22718,17.91554 -18.12547,25.36639 -8.02772,7.57293 -12.7273,10.7692 -22.85841,15.54631 -9.31902,4.39419 -15.63412,6.18895 -26.52766,7.53913 -8.321,1.03134 -10.2181,1.03301 -18.81079,0.0166 z"
           id="path1718-2-6-29"
           inkscape:connector-curvature="0"
           transform="matrix(9.8122775,0,0,-9.8122775,-4834.6975,4354.8906)" />
        <path
           inkscape:connector-curvature="0"
           d="m 1856,4573 c -11,-11 -6,-23 9,-23 8,0 15,4 15,9 0,13 -16,22 -24,14 z"
           id="path4763-6-5" />
      </g>
      <path
         id="path4817-8"
         d="m -3122.1723,8495.5001 c -2.789,-0.7968 -6.773,-8.7645 -9.163,-17.529 -2.39,-8.7645 -10.757,-23.1064 -18.724,-31.8709 -17.131,-19.1225 -15.139,-27.0902 7.967,-33.066 16.733,-4.3823 26.692,1.5935 26.692,15.5371 0,11.5531 7.968,33.8628 11.952,33.8628 1.992,0 2.39,-6.3742 1.195,-13.9436 -1.594,-9.1628 -0.797,-13.9435 2.39,-13.9435 2.391,0 4.383,-5.9757 4.383,-13.1467 0,-9.9596 -2.391,-14.7403 -8.765,-17.9274 -7.171,-3.187 -7.569,-4.3822 -1.992,-4.3822 9.561,-0.3984 8.366,-7.171 -3.187,-14.7403 -11.155,-7.1709 -17.927,-4.7807 -17.927,7.1709 0,6.7726 -0.797,7.171 -5.976,3.1872 -7.569,-6.3742 -7.569,-15.9355 -0.398,-25.8952 4.382,-6.3742 6.772,-6.7725 11.553,-2.7886 4.382,3.9838 6.772,3.5854 11.155,-1.992 5.179,-6.3742 4.78,-6.7726 -1.196,-1.9919 -4.78,3.5855 -7.171,3.9839 -9.163,0.7967 -4.78,-7.5692 9.96,-19.5208 32.668,-26.6918 21.911,-6.7726 24.7,-11.1548 16.334,-26.2935 -2.39,-4.7807 -5.976,-29.8789 -7.569,-55.3757 -3.187,-49.7982 -8.765,-67.7255 -21.513,-70.1159 -21.911,-4.3822 -19.521,-20.716 3.187,-20.716 6.772,0 13.943,-3.1871 16.732,-6.7726 6.773,-9.1629 35.456,-8.7645 45.416,0.3984 6.374,5.9758 8.765,5.9758 15.936,1.9919 6.374,-4.3822 10.756,-4.3822 23.106,0 9.163,3.5855 15.139,3.9839 15.935,1.5936 0.797,-2.3903 3.984,-7.171 6.773,-11.1549 4.781,-6.7725 7.171,-6.7725 23.505,-2.3902 10.756,3.187 24.7,3.9838 34.261,2.3902 8.764,-1.5935 19.521,-1.5935 23.903,0 9.163,2.7888 13.944,13.1468 8.765,19.521 -2.789,3.187 -1.992,9.5612 2.788,19.1225 5.179,11.1548 9.96,15.1387 20.716,17.1306 19.521,3.9839 27.091,8.7645 35.855,23.1064 12.748,20.3176 10.358,41.0338 -5.577,56.9692 -13.147,13.1467 -25.497,16.7322 -39.839,11.1548 -7.968,-3.1871 -8.366,-9.5613 -0.797,-9.5613 2.789,0 9.96,-3.5855 15.936,-8.3661 14.74,-11.5532 14.74,-35.4564 0,-47.0095 -5.976,-4.7807 -11.952,-8.3661 -13.545,-8.3661 -1.594,0 -5.179,7.9677 -7.57,17.529 -6.772,26.6918 -21.513,41.0337 -63.343,60.953 -20.716,9.9596 -39.839,22.3096 -43.424,27.4886 -5.976,9.1629 -5.578,10.358 7.569,24.7 7.171,7.9677 15.936,21.1144 19.123,28.2854 5.179,12.7483 4.78,13.9435 -1.992,17.9274 -3.984,2.3902 -13.944,10.358 -21.513,17.5289 l -14.342,13.1467 17.529,-11.9515 c 21.513,-15.1387 50.595,-17.1306 61.75,-4.7807 6.772,7.5694 6.374,8.7646 -13.147,37.4483 -19.521,29.4806 -33.066,39.4402 -41.034,31.4725 -2.788,-2.7887 -9.959,-0.7968 -22.708,5.9758 -24.7,13.1467 -66.929,12.35 -87.246,-2.3903 l -13.147,-9.1629 -11.155,10.3581 c -11.155,10.7564 -11.553,10.7564 -19.122,7.5693 z m 94.417,-68.9208 c 4.382,-4.3822 7.968,-12.35 7.968,-17.9274 0,-7.9677 -2.39,-9.9596 -14.342,-12.3499 -19.521,-3.5855 -27.09,3.9839 -23.505,23.9031 2.391,11.5532 4.781,14.3419 12.35,14.3419 5.179,0 13.147,-3.5855 17.529,-7.9677 z m -57.367,-65.7336 c -4.383,-3.1872 -10.757,-5.9758 -13.944,-5.9758 -3.585,0.3984 -0.797,2.7886 5.578,5.9758 15.537,7.1708 17.528,7.1708 8.366,0 z m 119.117,-101.5885 c -7.968,-15.5371 -7.569,-47.4079 0.797,-59.7579 5.976,-8.7645 5.976,-9.5613 0.398,-4.7806 -15.935,12.7483 -17.927,46.6111 -4.382,67.3272 8.764,13.1468 10.358,11.1548 3.187,-2.7887 z m -86.45,-70.5143 c -2.788,-5.5774 -7.569,-11.1548 -10.358,-12.35 -3.585,-1.1951 -2.788,3.5855 2.789,14.7403 4.781,8.7645 8.764,19.1225 8.764,23.1064 0.399,3.9838 1.594,2.3903 2.391,-3.5855 0.797,-5.9758 -0.797,-15.9354 -3.586,-21.9112 z m 86.848,-12.35 c -2.788,-2.3903 -50.196,11.9516 -50.196,15.1387 0,1.9919 11.553,-0.3984 25.895,-5.179 13.943,-4.3823 25.098,-9.1629 24.301,-9.9597 z"
         inkscape:connector-curvature="0"
         style="fill:#ffffff;stroke:none;stroke-width:0.39838597" />
      <path
         id="path4819-7"
         d="m -3042.5086,8431.3998 c -4.382,-4.3822 -2.39,-9.1629 3.585,-9.1629 3.187,0 5.976,1.5935 5.976,3.5855 0,5.179 -6.374,8.7645 -9.561,5.5774 z"
         inkscape:connector-curvature="0"
         style="fill:#ffffff;stroke:none;stroke-width:0.39838597" />
      <path
         id="path4825-8"
         d="m -3112.6246,8430.2046 c 0,-1.9919 1.992,-3.9838 3.984,-3.9838 2.39,0 3.984,1.9919 3.984,3.9838 0,2.3904 -1.594,3.9839 -3.984,3.9839 -1.992,0 -3.984,-1.5935 -3.984,-3.9839 z"
         inkscape:connector-curvature="0"
         style="fill:#ffffff;stroke:none;stroke-width:0.39838597" />
    </g>
  </g>
</svg>
