<?xml version="1.0" encoding="UTF-8" standalone="no"?>
<!-- Created with Inkscape (http://www.inkscape.org/) -->

<svg
   xmlns:dc="http://purl.org/dc/elements/1.1/"
   xmlns:cc="http://creativecommons.org/ns#"
   xmlns:rdf="http://www.w3.org/1999/02/22-rdf-syntax-ns#"
   xmlns:svg="http://www.w3.org/2000/svg"
   xmlns="http://www.w3.org/2000/svg"
   xmlns:sodipodi="http://sodipodi.sourceforge.net/DTD/sodipodi-0.dtd"
   xmlns:inkscape="http://www.inkscape.org/namespaces/inkscape"
   width="210mm"
   height="297mm"
   viewBox="0 0 210 297"
   version="1.1"
   id="svg5632"
   sodipodi:docname="iconenac vert.svg"
   inkscape:version="0.92.5 (2060ec1f9f, 2020-04-08)">
  <defs
     id="defs5626" />
  <sodipodi:namedview
     id="base"
     pagecolor="#ffffff"
     bordercolor="#666666"
     borderopacity="1.0"
     inkscape:pageopacity="0.0"
     inkscape:pageshadow="2"
     inkscape:zoom="0.1780967"
     inkscape:cx="1625.1299"
     inkscape:cy="654.09792"
     inkscape:document-units="mm"
     inkscape:current-layer="g4991"
     showgrid="false"
     inkscape:window-width="1920"
     inkscape:window-height="1009"
     inkscape:window-x="-8"
     inkscape:window-y="-8"
     inkscape:window-maximized="1"
     showguides="false"
     inkscape:lockguides="true" />
  <metadata
     id="metadata5629">
    <rdf:RDF>
      <cc:Work
         rdf:about="">
        <dc:format>image/svg+xml</dc:format>
        <dc:type
           rdf:resource="http://purl.org/dc/dcmitype/StillImage" />
        <dc:title />
      </cc:Work>
    </rdf:RDF>
  </metadata>
  <g
     inkscape:label="Calque 1"
     inkscape:groupmode="layer"
     id="layer1">
    <path
       style="opacity:1;fill:#ffffff;fill-opacity:0.9908257;fill-rule:nonzero;stroke:#000000;stroke-width:6.68132401;stroke-miterlimit:4;stroke-dasharray:none;stroke-opacity:0.06422017"
       d=""
       id="path13507"
       inkscape:connector-curvature="0"
       transform="scale(0.26458333)" />
    <path
       style="opacity:1;fill:#ffffff;fill-opacity:0.9908257;fill-rule:nonzero;stroke:#000000;stroke-width:6.2018795;stroke-miterlimit:4;stroke-dasharray:none;stroke-opacity:0.06422017"
       d=""
       id="path13551"
       inkscape:connector-curvature="0"
       transform="scale(0.26458333)" />
    <g
       id="g4991"
       transform="matrix(0.10584787,0,0,-0.10543414,289.30536,326.88485)"
       style="fill:#000000;stroke:none">
      <g
         id="g8303">
        <path
           inkscape:connector-curvature="0"
           id="path1718"
           d="M 89.047842,241.3719 C 69.321032,239.03844 51.336322,229.89679 37.431852,215.13546 2.1641722,177.69439 7.5096722,119.11413 48.983322,88.545211 c 16.5507,-12.199 38.72751,-18.09839 59.065008,-15.71226 18.57363,2.17919 35.08033,9.84028 48.379,22.4537 18.1495,17.214269 26.99839,37.535459 26.95705,61.905989 -0.0235,13.82306 -2.18754,23.58885 -7.89917,35.64624 -5.07006,10.70302 -10.24082,17.93942 -18.14964,25.40019 -8.0384,7.58303 -12.74427,10.78355 -22.88886,15.56704 -9.33144,4.40004 -15.65498,6.19719 -26.56303,7.54918 -8.332078,1.03271 -10.231698,1.03438 -18.835838,0.0166 z"
           style="opacity:1;fill:#00d600;fill-opacity:0.81960784;fill-rule:nonzero;stroke:none;stroke-width:1.96376443;stroke-miterlimit:4;stroke-dasharray:none;stroke-opacity:1"
           transform="matrix(9.4475213,0,0,-9.484594,-2733.2185,3100.3701)" />
        <g
           style="fill:#000000;stroke:none"
           transform="matrix(1.0565408,0,0,1.0606868,-3425.9535,-599.49027)"
           id="g5138">
          <path
             inkscape:connector-curvature="0"
             d="m 1833,2674 c -32,-26 -73,-61 -92,-78 -26,-24 -32,-26 -26,-11 17,44 18,65 2,65 -36,0 -237,-173 -237,-205 0,-7 -13,-24 -28,-37 -23,-18 -32,-39 -47,-105 -12,-54 -23,-83 -32,-83 -10,0 -13,24 -13,103 0,95 -2,105 -22,124 -37,33 -89,37 -141,12 -72,-35 -90,-101 -38,-138 16,-12 36,-21 45,-21 12,0 16,-10 16,-43 0,-39 -4,-46 -50,-82 -42,-34 -55,-51 -79,-116 l -30,-77 25,-183 24,-184 40,-35 c 22,-19 40,-38 40,-42 0,-4 -53,-9 -117,-11 -65,-1 104,-4 375,-5 483,-2 492,-2 492,18 0,21 -28,40 -74,49 -27,6 -30,12 -42,69 -15,72 -38,116 -69,130 -16,8 -24,22 -29,58 -9,69 -8,84 8,84 23,0 56,50 56,85 0,46 -33,84 -81,91 -21,4 -39,8 -39,11 0,2 25,28 55,58 66,64 71,93 26,156 l -30,40 69,91 c 71,93 140,213 140,242 0,29 -38,17 -97,-30 z m 87,29 c 0,-4 -12,-31 -27,-60 -20,-41 -31,-52 -44,-48 -20,7 -58,-43 -109,-144 -23,-48 -34,-60 -41,-50 -5,8 -9,9 -9,3 0,-6 18,-36 40,-67 22,-30 40,-66 40,-79 0,-33 -97,-129 -105,-105 -3,9 -7,24 -10,33 -3,9 -8,15 -10,12 -3,-3 2,-27 10,-54 8,-27 15,-52 15,-56 0,-5 -38,-8 -85,-8 -70,0 -85,3 -85,16 0,8 -23,39 -51,69 l -51,54 18,78 c 15,65 23,83 53,111 37,34 62,47 109,58 27,7 27,7 8,-15 -46,-51 4,-13 103,79 144,135 231,200 231,173 z m -200,-75 c 0,-21 -140,-145 -182,-161 -21,-9 -38,-12 -38,-8 0,17 193,181 213,181 4,0 7,-6 7,-12 z m -423,-168 c 7,0 21,-10 33,-22 17,-19 20,-35 20,-120 v -98 h -60 -60 v 34 c 0,32 3,35 33,38 28,4 25,5 -22,12 -72,12 -106,41 -96,84 5,25 17,38 53,57 26,14 56,22 67,20 11,-3 25,-5 32,-5 z m 99,-302 c 39,-42 55,-71 78,-138 l 28,-85 -30,-152 c -28,-140 -33,-156 -69,-202 l -38,-50 -75,-1 h -76 l -47,48 -47,48 -23,177 -23,177 27,72 c 22,61 34,79 79,115 48,40 56,43 109,43 57,0 59,-1 107,-52 z m 59,-27 c -7,-6 -75,60 -75,73 0,6 18,-7 40,-29 22,-21 37,-41 35,-44 z m 25,-15 c 0,-3 13,-41 30,-85 22,-60 26,-81 16,-81 -8,0 -25,31 -40,71 -28,75 -32,99 -16,99 6,0 10,-2 10,-4 z m 273,-44 c 13,-12 15,-17 5,-24 -10,-6 -8,-8 5,-8 9,0 17,-7 17,-15 0,-8 -8,-15 -17,-15 -17,-1 -17,-1 0,-11 18,-10 18,-12 -3,-34 -60,-63 -208,-23 -239,65 -11,34 -24,30 112,32 37,1 67,5 67,10 0,4 -4,8 -10,8 -5,0 -10,5 -10,11 0,15 50,2 73,-19 z m -165,-127 c 17,-9 50,-19 74,-23 42,-7 43,-9 50,-52 11,-73 8,-232 -5,-269 -22,-62 -47,-72 -175,-69 l -113,3 36,43 c 35,41 39,51 69,212 17,94 31,170 32,170 0,0 15,-7 32,-15 z m -54,-42 c -20,-113 -52,-265 -58,-270 -18,-19 -16,21 8,151 15,79 30,147 34,150 15,16 22,2 16,-31 z m 254,-171 c 17,-31 25,-65 29,-122 l 6,-80 h -70 -70 l 23,47 c 19,37 24,62 24,125 0,70 2,79 17,76 10,-2 28,-22 41,-46 z m -336,-139 c -24,-34 -61,-68 -66,-62 -7,6 64,89 76,89 5,0 1,-12 -10,-27 z"
             id="path5118" />
          <path
             inkscape:connector-curvature="0"
             d="m 1690,2310 c 0,-25 4,-39 10,-35 6,3 10,19 10,35 0,16 -4,32 -10,35 -6,4 -10,-10 -10,-35 z"
             id="path5120" />
          <path
             inkscape:connector-curvature="0"
             d="m 1223,2390 c 0,-25 2,-35 4,-22 2,12 2,32 0,45 -2,12 -4,2 -4,-23 z"
             id="path5122" />
          <path
             inkscape:connector-curvature="0"
             d="m 1227,2159 c -9,-13 -17,-49 -18,-79 l -3,-55 42,-9 c 40,-8 43,-7 98,39 l 56,48 -34,33 c -24,23 -46,34 -80,39 -41,6 -48,5 -61,-16 z"
             id="path5124" />
          <path
             inkscape:connector-curvature="0"
             d="m 1157,2112 c -9,-10 -22,-33 -28,-51 -15,-43 -1,-60 36,-43 22,10 25,18 25,62 0,54 -7,61 -33,32 z"
             id="path5126" />
          <path
             inkscape:connector-curvature="0"
             d="m 1363,2014 -53,-46 v -63 -63 l 65,-12 c 36,-7 68,-10 71,-7 3,2 10,35 16,71 10,62 9,70 -12,116 -13,28 -26,50 -29,50 -3,0 -30,-21 -58,-46 z"
             id="path5128" />
          <path
             inkscape:connector-curvature="0"
             d="m 1157,1986 c -16,-12 -17,-23 -12,-78 9,-91 21,-115 58,-122 46,-9 64,15 76,104 9,64 8,77 -6,92 -20,22 -90,24 -116,4 z"
             id="path5130" />
          <path
             inkscape:connector-curvature="0"
             d="m 1105,1886 c 5,-47 13,-87 17,-91 14,-14 18,36 8,97 -5,34 -10,66 -10,71 0,4 -6,7 -13,7 -10,0 -11,-17 -2,-84 z"
             id="path5132" />
          <path
             inkscape:connector-curvature="0"
             d="m 1273,1783 c -16,-24 -14,-71 8,-175 10,-46 12,-48 44,-48 50,0 91,56 105,145 6,37 8,70 6,73 -3,3 -37,10 -76,17 -70,12 -72,12 -87,-12 z"
             id="path5134" />
          <path
             inkscape:connector-curvature="0"
             d="m 1134,1756 c -4,-9 -3,-40 0,-70 5,-40 14,-60 34,-79 37,-34 72,-44 71,-20 0,26 -25,163 -30,167 -2,2 -19,7 -37,11 -24,5 -33,3 -38,-9 z"
             id="path5136" />
        </g>
        <path
           inkscape:connector-curvature="0"
           d="m -1368.5486,1814.1115 c -22,-21 -16,-60 21,-138 32,-66 60,-81 95,-49 25,22 24,31 -8,106 -41,98 -70,120 -108,81 z m 86,-68 c 32,-72 36,-97 15,-115 -20,-16 -45,0 -62,39 -13,30 -12,32 11,43 14,6 25,15 25,20 0,20 -31,67 -47,71 -13,3 -12,5 5,6 19,1 28,-10 53,-64 z"
           id="path4985-0"
           style="fill:#000000;stroke:none;stroke-width:1" />
        <path
           transform="matrix(2.4996567,0,0,-2.5094655,-2733.2185,3100.3701)"
           inkscape:connector-curvature="0"
           id="path5217"
           d="m 329.24388,824.88118 c -2.33562,-1.04031 1.14244,-7.7327 9.83817,-18.93031 14.59049,-18.78837 19.04457,-34.25597 34.70237,-120.51031 5.61849,-30.95067 7.55671,-36.92281 11.56628,-35.63867 2.6492,0.84846 10.92485,3.69407 18.39032,6.32359 7.46547,2.62952 19.28791,6.14902 26.27209,7.82111 11.39333,2.72769 12.94347,4.19417 15.08176,14.2678 1.31078,6.1752 2.38324,32.94536 2.38324,59.48925 0,39.64774 -0.99105,50.83033 -5.55262,62.65353 -8.38911,21.74384 -15.78013,24.55458 -66.83981,25.41861 -23.22591,0.39303 -43.85471,-0.01 -45.8418,-0.8946 z"
           style="opacity:1;fill:#ffffff;fill-opacity:1;fill-rule:nonzero;stroke:#000000;stroke-width:3.64978528;stroke-miterlimit:4;stroke-dasharray:none;stroke-opacity:1" />
        <path
           transform="matrix(2.4996567,0,0,-2.5094655,-2733.2185,3100.3701)"
           inkscape:connector-curvature="0"
           id="path5249"
           d="m 571.89998,584.09665 c -5.14629,-4.01028 -12.23591,-16.88638 -12.24486,-22.23896 -0.005,-3.23383 2.69293,-6.44956 8.47419,-10.09911 4.66517,-2.94499 8.48212,-6.33481 8.48212,-7.53294 0,-4.79131 -8.67796,-18.76148 -14.91342,-24.00826 -4.62517,-3.89183 -5.56876,-5.56807 -3.13437,-5.56807 7.21111,0 11.08597,4.46162 19.66544,22.64336 12.56867,26.63571 14.99312,36.89955 10.37939,43.94098 -3.92538,5.99089 -11.11389,7.22264 -16.70849,2.863 z"
           style="opacity:1;fill:#ffffff;fill-opacity:1;fill-rule:nonzero;stroke:#000000;stroke-width:2.56584072;stroke-miterlimit:4;stroke-dasharray:none;stroke-opacity:1" />
        <path
           transform="matrix(2.4996567,0,0,-2.5094655,-2733.2185,3100.3701)"
           inkscape:connector-curvature="0"
           id="path5251"
           d="m 366.20284,593.53825 c -3.68708,-0.95064 -8.007,-5.01601 -11.93947,-11.23593 -3.38909,-5.36048 -13.81256,-17.86847 -23.16326,-27.79556 l -17.00127,-18.04922 6.18621,-26.06518 c 3.40241,-14.33585 7.93621,-29.97788 10.07511,-34.76007 4.55409,-10.18214 23.40542,-28.61357 35.65932,-34.86505 10.13793,-5.17198 27.81919,-9.93264 29.74345,-8.00839 0.74502,0.74502 -1.36901,4.19738 -4.69783,7.67193 -3.32882,3.47454 -5.55915,6.8106 -4.95629,7.41346 1.31908,1.31908 23.42458,-17.39328 57.96953,-49.07132 49.68412,-45.56081 84.83025,-72.48824 89.07394,-68.24456 1.58563,1.58564 -8.83065,24.92584 -16.63478,37.27428 -4.56577,7.22439 -6.91668,9.01225 -11.85046,9.01225 -10.49974,0 -25.69,20.28743 -48.93633,65.35716 -8.18858,15.87594 -9.60117,17.51975 -14.08769,16.3937 -2.7426,-0.68834 -4.98654,-0.45082 -4.98654,0.52784 0,0.97866 5.32471,9.82355 11.83268,19.6553 14.22745,21.49378 22.0958,36.43516 22.0958,41.95824 0,6.06513 -17.30196,28.43562 -28.75878,37.18357 -11.35553,8.67059 -13.25165,9.16565 -15.0917,3.94039 -9.00167,-25.56242 -11.63689,-19.33077 -3.87452,9.1623 3.06357,11.24536 5.12919,20.88705 4.59026,21.42598 -1.7007,1.70069 -55.20011,2.67804 -61.24738,1.11888 z m 78.42534,-93.90018 c 0.61781,-12.9163 -2.24081,-20.12645 -5.81869,-14.67617 -2.33642,3.55912 -2.86483,19.00345 -0.83148,24.30228 2.59529,6.76321 6.10956,1.67632 6.65017,-9.62611 z"
           style="opacity:1;fill:#ffffff;fill-opacity:1;fill-rule:nonzero;stroke:#000000;stroke-width:2.56584072;stroke-miterlimit:4;stroke-dasharray:none;stroke-opacity:1" />
        <path
           transform="matrix(2.4996567,0,0,-2.5094655,-2733.2185,3100.3701)"
           inkscape:connector-curvature="0"
           id="path5253"
           d="m 367.81899,423.28207 c 22.91345,-23.48872 72.41607,-63.43142 78.61315,-63.43142 5.96217,0 2.64118,6.99819 -9.24552,19.4827 -25.91338,27.21663 -63.39153,54.73584 -74.54421,54.73584 -5.03638,0 -4.73625,-0.62543 5.17658,-10.78712 z"
           style="opacity:1;fill:#ffffff;fill-opacity:1;fill-rule:nonzero;stroke:#000000;stroke-width:2.56584072;stroke-miterlimit:4;stroke-dasharray:none;stroke-opacity:1" />
        <path
           transform="matrix(2.4996567,0,0,-2.5094655,-2733.2185,3100.3701)"
           inkscape:connector-curvature="0"
           id="path5255"
           d="m 415.9433,654.47601 c -21.28669,-4.19631 -43.78686,-21.41722 -49.53793,-37.91474 -4.22095,-12.10824 -2.70241,-12.83323 27.24384,-13.0069 31.23986,-0.18117 45.47331,-1.90978 46.72231,-5.67428 0.4837,-1.45786 -0.63143,-2.65066 -2.47806,-2.65066 -1.84663,0 -3.35751,-1.43136 -3.35751,-3.18079 0,-4.46083 9.05832,-4.05522 18.63912,0.83462 9.75631,4.97942 16.44872,11.982 13.30697,13.92371 -3.21459,1.98673 -2.79645,5.3867 0.66247,5.3867 1.60664,0 4.10907,1.43136 5.56098,3.18079 3.29372,3.9687 -0.15926,8.90357 -7.04572,10.06951 -4.37259,0.74032 -4.30826,0.9336 1.21426,3.64847 7.57273,3.72276 7.35227,6.2416 -1.27848,14.60685 -11.51537,11.16113 -28.73897,14.89941 -49.65225,10.77672 z"
           style="opacity:1;fill:#ffffff;fill-opacity:1;fill-rule:nonzero;stroke:#000000;stroke-width:2.56584072;stroke-miterlimit:4;stroke-dasharray:none;stroke-opacity:1" />
        <path
           transform="matrix(2.4996567,0,0,-2.5094655,-2733.2185,3100.3701)"
           inkscape:connector-curvature="0"
           id="path5257"
           d="m 436.65648,825.23639 c 0,-0.62192 2.25365,-5.63167 5.0081,-11.13278 8.78857,-17.55224 11.54046,-30.34078 12.85938,-59.75983 0.70404,-15.70388 2.11774,-29.39018 3.14155,-30.41399 5.12387,-5.12387 19.95391,13.41176 26.53871,33.16993 3.5353,10.60794 7.48502,41.57816 7.54929,59.19491 l 0.0367,10.07252 h -27.56688 c -15.16179,0 -27.56689,-0.50884 -27.56689,-1.13076 z"
           style="opacity:1;fill:#ffffff;fill-opacity:1;fill-rule:nonzero;stroke:#000000;stroke-width:2.56584072;stroke-miterlimit:4;stroke-dasharray:none;stroke-opacity:1" />
        <path
           transform="matrix(2.4996567,0,0,-2.5094655,-2733.2185,3100.3701)"
           inkscape:connector-curvature="0"
           id="path5259"
           d="m 216.43928,806.54132 -19.7434,-19.82585 -9.68382,-74.00759 -9.68382,-74.00759 5.89784,-16.96424 c 14.03598,-40.37234 24.09636,-54.56594 51.63933,-72.8549 11.35577,-7.54041 12.12045,-7.72522 31.96392,-7.72522 24.74705,0 29.9107,2.611 48.48839,24.51813 14.93542,17.61211 22.53212,32.59728 33.50367,66.08896 l 8.1474,24.87067 -6.00776,31.32336 c -9.47122,49.38115 -18.18535,87.11375 -22.33485,96.71105 -2.09997,4.85697 -9.38913,16.22619 -16.19814,25.26495 l -12.38001,16.4341 h -31.93267 -31.93268 z m 79.63515,4.77242 c 16.86654,-8.16495 28.54104,-32.33627 32.96252,-68.24689 1.90795,-15.49607 1.80628,-19.16331 -0.57203,-20.63318 -4.38643,-2.71097 -50.06823,-10.95008 -56.47347,-10.18549 -8.43561,1.00696 -14.09582,10.21459 -15.13823,24.62581 -1.42748,19.73467 7.58057,69.64566 13.66858,75.73366 4.445,4.44501 14.77854,3.92175 25.55263,-1.29391 z m -49.65456,-4.68562 c 2.02885,-5.28712 -9.42745,-70.50571 -13.01527,-74.09353 -0.90721,-0.90722 -6.99846,-2.77144 -13.53609,-4.14273 -16.72415,-3.50792 -18.5908,-1.55618 -18.5908,19.43833 0,27.98979 6.81245,43.1302 24.75362,55.01395 10.43129,6.90938 18.60695,8.42673 20.38854,3.78398 z m 1.84835,-88.58933 c 6.79692,-3.6376 11.85153,-18.0306 15.68032,-44.64963 4.11724,-28.6244 2.76177,-34.30961 -9.66003,-40.51703 -9.00827,-4.50162 -27.10236,-4.85023 -37.00426,-0.71295 -10.70036,4.4709 -12.55417,9.67819 -11.03994,31.01078 2.34924,33.09639 8.4272,50.77746 18.90276,54.98906 6.65021,2.67366 18.01111,2.61458 23.12115,-0.12023 z m -45.68254,-7.47248 c 2.9221,-11.64257 -4.42413,-66.26614 -9.15624,-68.08202 -6.672,-2.56029 -7.75403,2.76391 -5.13918,25.28767 2.56338,22.08044 6.30708,43.82462 8.04676,46.73726 1.95393,3.27134 4.90543,1.40894 6.24866,-3.94291 z m 131.76018,-7.72001 c 2.94182,-3.68753 9.01686,-38.53632 9.01164,-51.6942 -0.003,-8.58918 -1.89796,-14.6043 -9.01657,-28.62715 -4.95673,-9.76423 -10.18129,-17.75314 -11.61011,-17.75314 -1.42882,0 -12.64112,8.50028 -24.91622,18.88949 l -22.31836,18.8895 v 26.23831 c 0,20.05439 0.67383,26.49689 2.85904,27.33543 3.31239,1.27108 45.29481,8.92429 50.42468,9.19219 1.89821,0.0991 4.40286,-1.01256 5.5659,-2.47043 z M 219.58553,619.62488 c 3.25769,-2.13452 5.203,-6.15669 6.20307,-12.82561 1.75767,-11.72102 0.17197,-28.02524 -3.03782,-31.23504 -3.57453,-3.57452 -12.53937,5.89076 -19.62969,20.72547 -6.55635,13.71752 -7.63637,21.96552 -3.43378,26.22341 3.09415,3.13487 12.87184,1.71563 19.89822,-2.88823 z m 50.14736,2.3528 c 3.75299,-1.61655 15.69998,-10.35653 26.54887,-19.42219 l 19.72526,-16.48301 -9.12261,-9.37422 c -12.75392,-13.10567 -24.60112,-19.52297 -40.65673,-22.02259 -17.17512,-2.67392 -21.40326,-0.72329 -27.29304,12.59153 -3.37397,7.62744 -4.4036,14.61433 -4.57173,31.02317 l -0.217,21.17858 11.66292,2.48599 c 15.81,3.36994 16.15239,3.37027 23.92406,0.0227 z"
           style="opacity:1;fill:#ffffff;fill-opacity:1;fill-rule:nonzero;stroke:#000000;stroke-width:2.56584072;stroke-miterlimit:4;stroke-dasharray:none;stroke-opacity:1" />
        <path
           transform="matrix(2.4996567,0,0,-2.5094655,-2733.2185,3100.3701)"
           inkscape:connector-curvature="0"
           id="path5261"
           d="m 365.34523,648.06779 c -4.38841,-5.51 -10.84583,-19.77702 -17.51324,-38.69374 -7.15911,-20.3118 -8.42592,-31.10885 -3.64997,-31.10885 3.64171,0 25.10325,59.97623 24.18597,67.58992 -0.51477,4.27278 -1.0626,4.6738 -3.02276,2.21267 z"
           style="opacity:1;fill:#ffffff;fill-opacity:1;fill-rule:nonzero;stroke:#000000;stroke-width:2.56584072;stroke-miterlimit:4;stroke-dasharray:none;stroke-opacity:1" />
        <path
           transform="matrix(2.4996567,0,0,-2.5094655,-2733.2185,3100.3701)"
           inkscape:connector-curvature="0"
           id="path5263"
           d="m 319.59619,559.08854 c -7.04829,-7.04829 -12.26427,-13.36587 -11.59106,-14.03908 1.77507,-1.77507 16.84267,10.64984 23.50063,19.37887 8.99409,11.79186 2.15626,8.72605 -11.90957,-5.33979 z"
           style="opacity:1;fill:#ffffff;fill-opacity:1;fill-rule:nonzero;stroke:#000000;stroke-width:2.56584072;stroke-miterlimit:4;stroke-dasharray:none;stroke-opacity:1" />
        <path
           transform="matrix(2.4996567,0,0,-2.5094655,-2733.2185,3100.3701)"
           inkscape:connector-curvature="0"
           id="path5265"
           d="m 342.68112,783.14328 c -2.10269,-5.47952 6.43725,-60.08573 15.95698,-102.0324 4.63591,-20.42714 6.98362,-26.50662 10.23605,-26.50662 3.84552,0 2.04637,16.54219 -6.26187,57.57453 -14.25023,70.37837 -16.74606,79.26472 -19.93116,70.96449 z"
           style="opacity:1;fill:#ffffff;fill-opacity:1;fill-rule:nonzero;stroke:#000000;stroke-width:2.56584072;stroke-miterlimit:4;stroke-dasharray:none;stroke-opacity:1" />
        <path
           transform="matrix(2.4996567,0,0,-2.5094655,-2733.2185,3100.3701)"
           inkscape:connector-curvature="0"
           id="path5269"
           d="m 313.01575,819.8439 c 5.39955,-9.19455 25.68705,-30.64192 27.38176,-28.94722 1.9659,1.96591 -4.43705,11.22707 -16.82652,24.33769 -11.77489,12.46028 -16.33514,14.45176 -10.55524,4.60953 z"
           style="opacity:1;fill:#ffffff;fill-opacity:1;fill-rule:nonzero;stroke:#000000;stroke-width:2.56584072;stroke-miterlimit:4;stroke-dasharray:none;stroke-opacity:1" />
        <path
           transform="matrix(2.4996567,0,0,-2.5094655,-2733.2185,3100.3701)"
           inkscape:connector-curvature="0"
           id="path5271"
           d="m 243.6883,523.20604 c 0,-13.77136 2.61647,-17.03885 13.64403,-17.03885 9.05644,0 6.09748,-3.66103 -4.208,-5.20643 -17.16929,-2.57469 -30.53547,-7.55337 -38.09307,-14.18903 -6.52206,-5.72645 -7.39196,-7.69298 -7.39196,-16.71051 0,-13.26204 6.22721,-20.84908 24.49271,-29.84116 22.61333,-11.13251 43.11151,-8.4202 54.80548,7.25183 4.11315,5.51235 4.51695,9.20821 5.15499,47.18178 l 0.69228,41.20093 H 268.23653 243.6883 Z m -2.72222,-65.2809 c -0.48587,-3.2073 -0.8834,-0.58314 -0.8834,5.83146 0,6.4146 0.39753,9.03876 0.8834,5.83146 0.48586,-3.2073 0.48586,-8.45561 0,-11.66292 z"
           style="opacity:1;fill:#ffffff;fill-opacity:1;fill-rule:nonzero;stroke:#000000;stroke-width:2.56584072;stroke-miterlimit:4;stroke-dasharray:none;stroke-opacity:1" />
      </g>
    </g>
  </g>
</svg>
