<?xml version="1.0" standalone="no"?>
<!DOCTYPE svg PUBLIC "-//W3C//DTD SVG 20010904//EN"
 "http://www.w3.org/TR/2001/REC-SVG-20010904/DTD/svg10.dtd">
<svg version="1.0" xmlns="http://www.w3.org/2000/svg"
 width="300.000000pt" height="300.000000pt" viewBox="0 0 300.000000 300.000000"
 preserveAspectRatio="xMidYMid meet">
<metadata>
Created by potrace 1.10, written by Peter Selinger 2001-2011
</metadata>
<g transform="translate(0.000000,300.000000) scale(0.050000,-0.050000)"
fill="#000000" stroke="none">
<path d="M1633 5779 c-82 -65 -82 -473 0 -538 68 -53 98 -52 158 8 118 119 54
571 -81 571 -14 0 -48 -19 -77 -41z"/>
<path d="M3111 5773 c-56 -56 -77 -407 -30 -495 44 -81 172 -87 224 -10 26 40
18 485 -10 508 -61 50 -132 49 -184 -3z"/>
<path d="M540 5662 c0 -11 18 -25 39 -32 22 -7 56 -33 75 -57 44 -55 109 -85
93 -42 -6 16 -21 29 -32 29 -11 0 -35 17 -53 37 -41 47 -122 90 -122 65z"/>
<path d="M4442 5558 c-37 -33 -63 -64 -58 -69 5 -5 39 18 76 51 37 33 63 64
57 69 -5 6 -39 -17 -75 -51z"/>
<path d="M1330 5572 c-367 -116 -481 -298 -478 -762 6 -1241 618 -2190 1413
-2190 l89 0 14 -225 c99 -1595 831 -2566 1577 -2089 373 238 708 948 786 1664
18 162 21 155 -78 163 l-88 8 -14 -116 c-107 -886 -511 -1609 -926 -1658 -533
-63 -1028 891 -1069 2063 l-6 180 142 14 c808 81 1358 971 1371 2220 5 434
-258 756 -617 756 -59 0 -32 -178 29 -191 347 -75 443 -251 405 -742 -93
-1181 -556 -1832 -1341 -1881 -901 -55 -1465 677 -1513 1967 -16 423 55 554
346 638 106 31 127 58 128 164 0 53 -44 57 -170 17z"/>
<path d="M5100 5559 c87 -70 133 -85 62 -21 -37 34 -77 62 -90 62 -12 -1 1
-19 28 -41z"/>
<path d="M5762 5396 c-56 -57 -102 -112 -102 -121 0 -9 50 35 110 98 61 63
110 117 110 121 0 18 -25 -3 -118 -98z"/>
<path d="M2372 5393 c6 -15 40 -44 75 -63 36 -19 77 -61 91 -93 30 -67 53 -73
68 -17 6 25 1 39 -13 36 -13 -2 -54 25 -91 61 -85 81 -146 116 -130 76z"/>
<path d="M5085 4877 c-35 -35 -31 -48 13 -51 21 -2 44 10 50 26 6 17 3 25 -7
19 -9 -6 -21 -2 -25 10 -4 13 -15 12 -31 -4z"/>
<path d="M2114 4867 c-28 -27 -13 -47 35 -47 27 0 54 9 61 20 7 11 4 20 -7 20
-11 0 -32 5 -47 11 -16 5 -34 4 -42 -4z"/>
<path d="M5055 4778 c-19 -11 -46 -14 -59 -6 -15 10 -18 3 -9 -21 10 -26 6
-32 -17 -24 -21 8 -30 -1 -28 -33 0 -24 6 -33 11 -19 6 14 16 23 24 19 7 -3
39 20 71 50 61 60 63 67 7 34z"/>
<path d="M1747 4571 c0 -17 7 -31 16 -31 10 0 17 -9 17 -20 0 -11 -20 -17 -44
-15 -31 4 -46 -7 -51 -35 -6 -35 -3 -36 19 -10 14 17 46 30 70 28 39 -2 42 3
22 40 -13 23 -21 46 -18 52 3 5 -3 12 -13 15 -10 3 -18 -8 -18 -24z"/>
<path d="M4700 4550 c0 -27 -1 -57 -1 -64 -1 -8 8 -18 20 -22 12 -4 21 0 19 9
-8 44 5 70 29 61 15 -6 39 -2 55 8 20 13 21 18 3 20 -55 6 -62 9 -77 23 -28
29 -48 15 -48 -35z"/>
<path d="M3462 4437 c84 -75 138 -117 149 -117 24 0 -12 34 -104 97 -54 37
-73 46 -45 20z"/>
<path d="M1585 4379 c-63 -25 -56 -40 15 -35 33 2 60 16 60 30 0 30 -12 31
-75 5z"/>
<path d="M4495 4386 c-49 -12 -44 -46 6 -46 26 0 36 -9 27 -23 -8 -13 -3 -19
14 -13 69 23 25 101 -47 82z"/>
<path d="M2524 3945 c10 -53 96 -59 96 -6 0 31 -13 41 -51 41 -39 0 -50 -9
-45 -35z"/>
<path d="M5480 3952 c0 -28 69 -57 89 -36 28 28 7 64 -39 64 -29 0 -50 -11
-50 -28z"/>
<path d="M2408 3833 c-12 -13 -52 -48 -89 -78 -36 -30 -57 -55 -46 -55 12 0
42 18 67 40 25 22 53 40 61 40 15 0 45 61 34 71 -3 3 -15 -5 -27 -18z"/>
<path d="M651 3613 c-35 -26 -35 -27 8 -38 33 -9 41 -5 33 16 -12 33 19 40 35
9 5 -12 8 -10 5 3 -7 37 -39 41 -81 10z"/>
<path d="M440 3445 c59 -8 64 -12 30 -26 -35 -14 -34 -16 14 -18 29 0 59 7 65
17 13 21 -59 43 -129 39 -34 -2 -28 -6 20 -12z"/>
<path d="M4579 3134 c-356 -100 -460 -549 -184 -798 298 -268 763 -53 765 354
1 307 -286 526 -581 444z m272 -112 c368 -167 251 -702 -152 -702 -409 0 -511
574 -126 711 105 37 182 35 278 -9z"/>
<path d="M1066 2724 c-31 -20 -6 -58 44 -67 29 -5 40 4 40 33 0 42 -44 60 -84
34z"/>
<path d="M2020 2228 c0 -21 11 -28 32 -20 17 7 40 12 51 12 11 0 14 9 7 20
-20 33 -90 23 -90 -12z"/>
<path d="M1807 2035 c-2 -36 1 -54 6 -40 6 14 29 25 52 25 l43 0 -43 40 c-55
51 -54 52 -58 -25z"/>
<path d="M365 2066 c-61 -12 -57 -46 5 -46 31 0 50 11 50 30 0 17 -2 29 -5 27
-3 -1 -25 -6 -50 -11z"/>
<path d="M5480 1420 c0 -30 11 -38 45 -33 66 10 72 73 6 73 -38 0 -51 -10 -51
-40z"/>
<path d="M3800 1230 c-59 -60 -104 -113 -99 -118 5 -4 63 45 129 110 66 65
111 118 99 118 -11 0 -69 -49 -129 -110z"/>
<path d="M5830 1156 c22 -12 56 -39 76 -59 33 -34 74 -50 74 -28 0 15 -147
111 -170 110 -11 0 -2 -10 20 -23z"/>
<path d="M2035 960 c-67 -66 -116 -120 -109 -120 8 0 57 43 109 96 52 54 113
107 135 120 22 12 28 23 14 23 -14 1 -81 -53 -149 -119z"/>
<path d="M580 1009 c0 -19 -9 -26 -23 -17 -14 9 -18 5 -9 -9 8 -13 8 -33 1
-45 -10 -16 -19 -14 -31 5 -13 20 -17 15 -18 -18 0 -25 7 -45 15 -44 33 1 78
51 69 77 -5 15 -1 22 9 16 11 -6 29 -5 42 3 16 10 11 22 -16 39 -32 20 -39 19
-39 -7z"/>
<path d="M4974 939 c-41 -43 -68 -79 -59 -79 9 0 52 36 95 80 43 44 70 80 59
79 -10 -1 -53 -37 -95 -80z"/>
<path d="M265 746 c-30 -11 -34 -86 -5 -86 11 0 20 13 20 28 0 16 11 32 24 37
14 4 16 12 5 19 -10 6 -30 7 -44 2z"/>
<path d="M5800 440 c-36 -35 -72 -55 -86 -47 -13 8 -11 -1 5 -21 27 -33 29
-32 52 9 15 29 28 36 37 22 8 -13 8 -34 -1 -48 -10 -17 -3 -16 19 3 28 22 30
33 9 58 -21 27 -20 29 11 18 22 -8 31 -6 24 6 -7 11 -3 20 9 20 11 0 21 9 21
20 0 36 -38 21 -100 -40z"/>
<path d="M1085 207 c-45 -19 -27 -67 25 -67 54 0 56 2 38 48 -13 33 -21 36
-63 19z"/>
</g>
</svg>
