<?xml version="1.0" encoding="UTF-8" standalone="no"?>
<!-- Created with Inkscape (http://www.inkscape.org/) -->

<svg
   xmlns:dc="http://purl.org/dc/elements/1.1/"
   xmlns:cc="http://creativecommons.org/ns#"
   xmlns:rdf="http://www.w3.org/1999/02/22-rdf-syntax-ns#"
   xmlns:svg="http://www.w3.org/2000/svg"
   xmlns="http://www.w3.org/2000/svg"
   xmlns:sodipodi="http://sodipodi.sourceforge.net/DTD/sodipodi-0.dtd"
   xmlns:inkscape="http://www.inkscape.org/namespaces/inkscape"
   width="210mm"
   height="297mm"
   viewBox="0 0 210 297"
   version="1.1"
   id="svg18679"
   sodipodi:docname="icone furret vert ancien site.svg"
   inkscape:version="0.92.5 (2060ec1f9f, 2020-04-08)">
  <defs
     id="defs18673" />
  <sodipodi:namedview
     id="base"
     pagecolor="#ffffff"
     bordercolor="#666666"
     borderopacity="1.0"
     inkscape:pageopacity="0.0"
     inkscape:pageshadow="2"
     inkscape:zoom="0.35"
     inkscape:cx="-121.42857"
     inkscape:cy="698.67743"
     inkscape:document-units="mm"
     inkscape:current-layer="layer1"
     showgrid="false"
     inkscape:window-width="1920"
     inkscape:window-height="1009"
     inkscape:window-x="-8"
     inkscape:window-y="-8"
     inkscape:window-maximized="1" />
  <metadata
     id="metadata18676">
    <rdf:RDF>
      <cc:Work
         rdf:about="">
        <dc:format>image/svg+xml</dc:format>
        <dc:type
           rdf:resource="http://purl.org/dc/dcmitype/StillImage" />
        <dc:title></dc:title>
      </cc:Work>
    </rdf:RDF>
  </metadata>
  <g
     inkscape:label="Calque 1"
     inkscape:groupmode="layer"
     id="layer1">
    <g
       style="fill:#000000;stroke:none"
       transform="matrix(0.10191314,0,0,-0.10191314,462.97153,889.7586)"
       id="g10504">
      <path
         inkscape:connector-curvature="0"
         id="path1718-5-6-6-63"
         d="m -2140.2137,5124.0535 c -54.7112,6.4718 -104.5908,31.8256 -143.1541,72.7654 -97.813,103.8407 -82.9875,266.3098 32.0374,351.091 45.9024,33.8333 107.4086,50.1949 163.8135,43.5771 51.513,-6.0438 97.2934,-27.2915 134.1765,-62.2741 50.3367,-47.7428 74.8786,-104.1025 74.7639,-171.6928 -0.065,-38.3375 -6.067,-65.4224 -21.9079,-98.8629 -14.0615,-29.6842 -28.4024,-49.754 -50.337,-70.446 -22.2941,-21.0311 -35.3456,-29.9075 -63.481,-43.1743 -25.8803,-12.2033 -43.4182,-17.1876 -73.6711,-20.9373 -23.1086,-2.8641 -28.3771,-2.8688 -52.2402,-0.046 z"
         style="opacity:1;fill:#85c441;fill-opacity:1;fill-rule:nonzero;stroke:none;stroke-width:5.44639254;stroke-miterlimit:4;stroke-dasharray:none;stroke-opacity:1" />
      <g
         id="g10447"
         transform="matrix(0.37062799,0,0,0.37062799,-2467.055,4217.9489)"
         style="fill:#ffffff">
        <path
           inkscape:connector-curvature="0"
           d="m 686,3568 c -34,-34 -47,-80 -61,-213 -6,-52 -11,-64 -35,-80 -41,-27 -81,-112 -87,-184 -5,-56 -4,-62 24,-90 60,-59 191,-65 245,-10 16,15 28,24 28,19 0,-15 -61,-60 -83,-61 -12,0 -30,-4 -41,-8 -17,-7 -16,-10 13,-44 18,-20 48,-46 68,-58 l 36,-22 -23,-19 c -12,-10 -32,-18 -44,-18 -64,-1 -61,-50 4,-63 62,-12 115,5 136,44 9,19 21,29 30,25 7,-3 55,-8 105,-12 l 91,-7 -13,23 c -34,55 -39,66 -39,83 0,25 24,68 51,92 19,17 19,14 -4,-13 -37,-46 -37,-108 -1,-152 25,-29 26,-32 9,-44 -36,-26 6,-56 77,-56 31,0 87,30 93,50 3,10 19,35 36,56 17,21 33,51 36,66 3,15 9,25 14,22 5,-3 23,-3 39,1 36,8 60,48 60,100 v 35 l -42,-6 c -24,-3 -48,-7 -55,-9 -6,-2 -22,17 -34,41 -39,81 -153,141 -284,151 -63,5 -124,-5 -211,-32 -17,-5 -25,1 -42,29 l -22,36 43,37 c 23,21 70,65 105,99 56,55 62,64 62,102 0,33 -5,45 -24,57 -21,14 -28,14 -58,2 -49,-21 -77,-57 -128,-162 -41,-85 -47,-93 -63,-81 -16,13 -15,18 26,87 71,120 82,185 37,209 -29,16 -40,12 -74,-22 z m -86,-454 c 0,-8 -7,-14 -15,-14 -15,0 -21,21 -9,33 10,9 24,-2 24,-19 z m 130,1 c 0,-8 -4,-15 -9,-15 -13,0 -22,16 -14,24 11,11 23,6 23,-9 z m -57,-41 c 3,-3 1,-14 -5,-24 -16,-26 -2,-53 23,-47 12,3 18,3 14,-1 -9,-10 -94,-11 -100,-2 -3,5 4,6 15,3 24,-6 36,18 21,45 -6,11 -7,22 -4,26 8,8 28,8 36,0 z m 134,-41 c -4,-3 -7,0 -7,7 0,7 3,10 7,7 3,-4 3,-10 0,-14 z"
           id="path4773"
           style="fill:#ffffff" />
      </g>
    </g>
    <g
       transform="matrix(0.10191314,0,0,-0.10191314,279.10569,753.2416)"
       style="fill:#000000;stroke:none"
       id="g11132">
      <path
         inkscape:connector-curvature="0"
         id="path1718-5-6-6"
         d="m -2493.6161,6881.9395 c -54.7112,6.4718 -104.5908,31.8256 -143.1541,72.7654 -97.813,103.8407 -82.9875,266.3098 32.0374,351.091 45.9024,33.8333 107.4086,50.1949 163.8135,43.5771 51.513,-6.0438 97.2934,-27.2915 134.1765,-62.2741 50.3367,-47.7428 74.8786,-104.1025 74.7639,-171.6928 -0.065,-38.3375 -6.067,-65.4224 -21.9079,-98.8629 -14.0615,-29.6842 -28.4024,-49.754 -50.337,-70.446 -22.2941,-21.0311 -35.3456,-29.9076 -63.481,-43.1743 -25.8803,-12.2033 -43.4182,-17.1876 -73.6711,-20.9373 -23.1086,-2.8641 -28.3771,-2.8688 -52.2402,-0.046 z"
         style="opacity:1;fill:#85c441;fill-opacity:1;fill-rule:nonzero;stroke:none;stroke-width:5.44639254;stroke-miterlimit:4;stroke-dasharray:none;stroke-opacity:1" />
      <g
         id="g11028"
         transform="matrix(0.39481977,0,0,0.39481977,-1963.8112,4030.9604)"
         style="fill:#ffffff">
        <g
           style="fill:#ffffff;stroke:none"
           transform="matrix(0.34615534,0,0,0.34615534,-1916.8802,7294.9984)"
           id="g11012">
          <path
             inkscape:connector-curvature="0"
             d="m 838,2787 c -57,-26 -88,-94 -88,-198 0,-92 24,-201 60,-268 87,-164 122,-246 146,-336 23,-87 27,-120 27,-250 0,-253 -60,-469 -181,-659 -18,-28 -28,-54 -24,-58 5,-5 40,-8 78,-6 l 69,3 45,91 c 52,105 92,161 127,177 19,9 26,8 34,-4 13,-18 2,-144 -17,-188 -8,-18 -14,-44 -14,-57 0,-23 4,-24 58,-24 32,0 65,6 74,13 8,6 34,40 56,73 184,276 478,505 734,573 116,31 178,34 255,16 94,-24 102,-33 80,-93 -55,-145 -62,-253 -22,-340 l 24,-53 -25,-9 c -14,-6 -39,-10 -56,-10 -98,0 -208,-68 -208,-129 0,-17 1,-32 3,-33 1,-1 142,-5 312,-8 l 310,-5 -2,-37 c -4,-58 -58,-178 -111,-244 -95,-118 -244,-208 -474,-285 -100,-34 -128,-47 -128,-61 0,-10 9,-20 23,-22 208,-45 379,-35 545,30 221,87 394,254 507,489 85,178 111,305 102,506 -5,120 -12,166 -45,289 -14,56 -88,206 -133,274 -52,77 -166,195 -244,250 -152,110 -308,159 -500,159 -132,0 -213,-16 -332,-63 -128,-51 -301,-182 -364,-275 -38,-56 -49,-46 -49,43 0,89 22,177 76,307 33,80 38,102 42,196 4,97 2,111 -19,155 -26,51 -69,84 -110,84 -14,0 -47,-14 -74,-32 l -48,-32 -61,22 c -78,28 -143,28 -228,0 -61,-20 -69,-20 -85,-6 -26,23 -79,48 -100,48 -10,-1 -30,-6 -45,-13 z m 280,-165 c 53,-28 64,-27 137,3 119,49 199,22 246,-84 59,-135 -7,-260 -197,-368 -41,-23 -61,-28 -119,-28 -92,0 -167,36 -252,120 -77,77 -101,143 -84,227 14,64 45,114 85,140 41,25 126,21 184,-10 z"
             id="path11006"
             style="fill:#ffffff" />
          <path
             inkscape:connector-curvature="0"
             d="m 956,2511 c -52,-54 -52,-140 -1,-195 31,-33 51,-33 60,2 10,41 53,92 91,108 95,40 194,-4 227,-101 17,-49 27,-52 63,-22 62,53 67,140 12,202 -26,30 -36,35 -75,35 -30,0 -55,-7 -75,-22 -42,-30 -94,-30 -147,-2 -63,34 -119,32 -155,-5 z"
             id="path11008"
             style="fill:#ffffff" />
          <path
             inkscape:connector-curvature="0"
             d="m 1140,2362 -22,-18 25,-30 25,-29 26,24 c 33,31 33,49 0,61 -32,13 -28,13 -54,-8 z"
             id="path11010"
             style="fill:#ffffff" />
        </g>
      </g>
    </g>
  </g>
</svg>
