<?xml version="1.0" encoding="UTF-8" standalone="no"?>
<!-- Created with Inkscape (http://www.inkscape.org/) -->

<svg
   xmlns:dc="http://purl.org/dc/elements/1.1/"
   xmlns:cc="http://creativecommons.org/ns#"
   xmlns:rdf="http://www.w3.org/1999/02/22-rdf-syntax-ns#"
   xmlns:svg="http://www.w3.org/2000/svg"
   xmlns="http://www.w3.org/2000/svg"
   xmlns:sodipodi="http://sodipodi.sourceforge.net/DTD/sodipodi-0.dtd"
   xmlns:inkscape="http://www.inkscape.org/namespaces/inkscape"
   width="210mm"
   height="297mm"
   viewBox="0 0 210 297"
   version="1.1"
   id="svg6670"
   sodipodi:docname="icone chronovet carré prix web nouveau violet.svg"
   inkscape:version="0.92.5 (2060ec1f9f, 2020-04-08)">
  <defs
     id="defs6664" />
  <sodipodi:namedview
     id="base"
     pagecolor="#ffffff"
     bordercolor="#666666"
     borderopacity="1.0"
     inkscape:pageopacity="0.0"
     inkscape:pageshadow="2"
     inkscape:zoom="0.35"
     inkscape:cx="436.1925"
     inkscape:cy="823.0109"
     inkscape:document-units="mm"
     inkscape:current-layer="layer1"
     showgrid="false"
     inkscape:window-width="1920"
     inkscape:window-height="1009"
     inkscape:window-x="-8"
     inkscape:window-y="-8"
     inkscape:window-maximized="1" />
  <metadata
     id="metadata6667">
    <rdf:RDF>
      <cc:Work
         rdf:about="">
        <dc:format>image/svg+xml</dc:format>
        <dc:type
           rdf:resource="http://purl.org/dc/dcmitype/StillImage" />
        <dc:title></dc:title>
      </cc:Work>
    </rdf:RDF>
  </metadata>
  <g
     inkscape:label="Calque 1"
     inkscape:groupmode="layer"
     id="layer1">
    <path
       id="path3334"
       d="m 11.58854,6.421867 c -2.3677002,0.67649 -4.2468302,2.33012 -5.7501302,4.99849 -0.82682,1.5033 -0.82682,1.616051 -0.82682,18.603374 v 17.10007 l 0.93956,1.84155 c 1.05231,2.02946 2.48045,3.42002 4.6978302,4.39716 1.39055,0.63891 2.85627,0.71407 18.18996,0.71407 12.02643,0 17.10008,-0.11275 18.22756,-0.45099 2.067041,-0.60132 5.186391,-3.72067 5.78771,-5.78772 0.338251,-1.12747 0.45099,-6.16354 0.45099,-18.03963 0,-15.784693 -0.0376,-16.573923 -0.789228,-18.189974 C 51.576399,9.541218 50.18585,8.037917 48.23155,6.985607 46.76583,6.158787 46.352432,6.158787 29.81609,6.083627 19.29297,6.046027 12.41536,6.158827 11.58854,6.421867 Z"
       inkscape:connector-curvature="0"
       style="fill:#800080;fill-opacity:0.81960784;stroke:none;stroke-width:0.03758258;stroke-opacity:1" />
    <g
       id="g3409"
       transform="matrix(0.86213828,0,0,0.97104451,-397.29607,78.590721)">
      <g
         style="fill:#ffffff;stroke:none"
         transform="matrix(0.01195851,0,0,-0.01311853,456.26181,-10.775076)"
         id="g3390">
        <path
           inkscape:connector-curvature="0"
           d="M 1500,3000 V 1880 h 50 50 v 1120 1120 h -50 -50 z"
           id="path3346"
           style="fill:#ffffff" />
        <path
           inkscape:connector-curvature="0"
           d="m 1700,3000 c 0,-982 4,-1120 30,-1120 26,0 30,138 30,1120 0,982 -4,1120 -30,1120 -26,0 -30,-138 -30,-1120 z"
           id="path3348"
           style="fill:#ffffff" />
        <path
           inkscape:connector-curvature="0"
           d="m 1800,3000 c 0,-733 7,-1120 20,-1120 13,0 20,387 20,1120 0,733 -7,1120 -20,1120 -13,0 -20,-387 -20,-1120 z"
           id="path3350"
           style="fill:#ffffff" />
        <path
           inkscape:connector-curvature="0"
           d="m 1940,3000 c 0,-733 7,-1120 20,-1120 13,0 20,387 20,1120 0,733 -7,1120 -20,1120 -13,0 -20,-387 -20,-1120 z"
           id="path3352"
           style="fill:#ffffff" />
        <path
           inkscape:connector-curvature="0"
           d="m 2040,3000 c 0,-733 7,-1120 20,-1120 13,0 20,387 20,1120 0,733 -7,1120 -20,1120 -13,0 -20,-387 -20,-1120 z"
           id="path3354"
           style="fill:#ffffff" />
        <path
           inkscape:connector-curvature="0"
           d="M 2180,3000 V 1880 h 49 50 v 1120 1120 h -49 -50 z"
           id="path3356"
           style="fill:#ffffff" />
        <path
           inkscape:connector-curvature="0"
           d="m 2309,3000 c 0,-621 3,-876 6,-565 3,311 3,819 0,1130 -3,311 -6,57 -6,-565 z"
           id="path3358"
           style="fill:#ffffff" />
        <path
           inkscape:connector-curvature="0"
           d="m 2361,3000 c 1,-955 5,-1120 29,-1120 24,0 29,165 29,1120 0,969 -4,1120 -29,1120 -25,0 -29,-151 -29,-1120 z"
           id="path3360"
           style="fill:#ffffff" />
        <path
           inkscape:connector-curvature="0"
           d="M 2440,3000 V 1880 h 100 100 v 1120 1120 h -100 -100 z"
           id="path3362"
           style="fill:#ffffff" />
        <path
           inkscape:connector-curvature="0"
           d="m 2700,3000 c 0,-982 4,-1120 30,-1120 26,0 30,138 30,1120 0,982 -4,1120 -30,1120 -26,0 -30,-138 -30,-1120 z"
           id="path3364"
           style="fill:#ffffff" />
        <path
           inkscape:connector-curvature="0"
           d="m 2849,3000 c 0,-621 3,-876 6,-565 3,311 3,819 0,1130 -3,311 -6,57 -6,-565 z"
           id="path3366"
           style="fill:#ffffff" />
        <path
           inkscape:connector-curvature="0"
           d="M 2880,3000 V 1880 h 90 90 v 1120 1120 h -90 -90 z"
           id="path3368"
           style="fill:#ffffff" />
        <path
           inkscape:connector-curvature="0"
           d="M 3160,3000 V 1880 h 50 50 v 1120 1120 h -50 -50 z"
           id="path3370"
           style="fill:#ffffff" />
        <path
           inkscape:connector-curvature="0"
           d="m 3300,3000 c 0,-733 7,-1120 20,-1120 13,0 20,387 20,1120 0,733 -7,1120 -20,1120 -13,0 -20,-387 -20,-1120 z"
           id="path3372"
           style="fill:#ffffff" />
        <path
           inkscape:connector-curvature="0"
           d="M 3582,3000 V 1880 h 49 49 v 1120 1120 h -49 -50 z"
           id="path3374"
           style="fill:#ffffff" />
        <path
           inkscape:connector-curvature="0"
           d="m 3700,3000 c 0,-733 7,-1120 20,-1120 13,0 20,387 20,1120 0,733 -7,1120 -20,1120 -13,0 -20,-387 -20,-1120 z"
           id="path3376"
           style="fill:#ffffff" />
        <path
           inkscape:connector-curvature="0"
           d="m 3789,3000 c 0,-621 3,-876 6,-565 3,311 3,819 0,1130 -3,311 -6,57 -6,-565 z"
           id="path3378"
           style="fill:#ffffff" />
        <path
           inkscape:connector-curvature="0"
           d="m 3940,3000 c 0,-733 7,-1120 20,-1120 13,0 20,387 20,1120 0,733 -7,1120 -20,1120 -13,0 -20,-387 -20,-1120 z"
           id="path3380"
           style="fill:#ffffff" />
        <path
           inkscape:connector-curvature="0"
           d="M 4060,3000 V 1880 h 50 50 v 1120 1120 h -50 -50 z"
           id="path3382"
           style="fill:#ffffff" />
        <path
           inkscape:connector-curvature="0"
           d="m 4209,3000 c 0,-621 3,-876 6,-565 3,311 3,819 0,1130 -3,311 -6,57 -6,-565 z"
           id="path3384"
           style="fill:#ffffff" />
        <path
           inkscape:connector-curvature="0"
           d="m 4260,3000 c 0,-733 7,-1120 20,-1120 13,0 20,387 20,1120 0,733 -7,1120 -20,1120 -13,0 -20,-387 -20,-1120 z"
           id="path3386"
           style="fill:#ffffff" />
        <path
           inkscape:connector-curvature="0"
           d="M 4380,3000 V 1880 h 60 60 v 1120 1120 h -60 -60 z"
           id="path3388"
           style="fill:#ffffff" />
      </g>
    </g>
    <path
       style="opacity:1;fill:#ffffff;fill-opacity:1;fill-rule:nonzero;stroke:none;stroke-width:0.47964332;stroke-miterlimit:4;stroke-dasharray:none;stroke-opacity:1"
       d="m 17.41149,36.370481 c -2.05584,-0.63026 -2.44683,-1.95059 -2.05738,-6.94851 0.36798,-4.72146 0.96718,-6.14031 2.95966,-7.01078 1.38694,-0.60579 2.13384,-0.6255 16.053179,-0.42327 14.39513,0.20911 14.616872,0.22238 15.912452,0.95222 1.706938,0.96162 2.08665,2.45275 1.744038,6.84993 -0.334298,4.29069 -0.962938,5.86386 -2.710759,6.7873 -1.31808,0.69617 -1.484919,0.70126 -15.85577,0.4816 -11.25881,-0.17208 -14.86571,-0.32684 -16.04542,-0.68849 z"
       id="path7152"
       inkscape:connector-curvature="0"
       inkscape:transform-center-x="-32.282"
       inkscape:transform-center-y="-13.244999" />
    <path
       inkscape:connector-curvature="0"
       style="font-style:normal;font-variant:normal;font-weight:normal;font-stretch:normal;font-size:19.18953705px;line-height:1.25;font-family:'Choco Letter';-inkscape-font-specification:'Choco Letter, Normal';font-variant-ligatures:normal;font-variant-caps:normal;font-variant-numeric:normal;font-feature-settings:normal;text-align:start;letter-spacing:0px;word-spacing:0px;writing-mode:lr-tb;text-anchor:start;fill:#800080;fill-opacity:0.81960784;stroke:none;stroke-width:0.19207601"
       d="m 50.155089,26.757831 c -0.032,-0.007 -0.0675,-0.0105 -0.121949,-0.014 -0.159009,-0.007 -0.251118,0.0142 -0.43525,0.0989 -0.384839,0.16934 -0.811458,0.68426 -1.11265,1.34038 l -0.0581,0.12727 -0.008,-0.46557 c -0.01669,-0.50796 -0.025,-0.63489 -0.100258,-0.76187 -0.0587,-0.10587 -0.14232,-0.17657 -0.259361,-0.22593 -0.0914,-0.0351 -0.108619,-0.0422 -0.234389,-0.0423 -0.125251,6e-5 -0.14224,0.007 -0.234281,0.0423 -0.150619,0.0635 -0.242469,0.16236 -0.359679,0.35282 -0.20016,0.35999 -0.4352,1.07231 -0.55227,1.69318 -0.184,0.98067 -0.259311,2.27178 -0.17562,2.95612 0.0507,0.35287 0.12541,0.60679 0.267718,0.89606 0.1924,0.39507 0.409911,0.57835 0.778071,0.66301 0.092,0.0212 0.15902,0.0282 0.23435,0.0211 0.259281,-0.007 0.736189,-0.1762 1.08767,-0.38078 0.284469,-0.16227 0.62748,-0.38817 0.79484,-0.53632 0.418261,-0.35278 0.736251,-0.84658 0.853469,-1.29808 0.0417,-0.17642 0.0501,-0.47281 0.008,-0.59974 -0.10882,-0.3316 -0.37675,-0.50085 -0.828569,-0.52907 -0.067,-0.007 -0.125941,-0.0142 -0.125941,-0.0142 0,0 0.051,-0.0562 0.109201,-0.12686 0.251039,-0.28924 0.485389,-0.62096 0.66951,-0.95959 0.26766,-0.50093 0.376269,-0.84664 0.37584,-1.24184 -2.64e-4,-0.4869 -0.167391,-0.82535 -0.468489,-0.95936 -0.0416,-0.0176 -0.0715,-0.0285 -0.103503,-0.0354 z m -0.207108,0.3149 c 0.0136,0.005 0.0279,0.013 0.0429,0.0238 0.125428,0.0917 0.158999,0.28931 0.0836,0.51505 -0.0586,0.14108 -0.150399,0.33156 -0.30109,0.58552 -0.159441,0.26092 -0.26769,0.40216 -0.560552,0.72669 -0.134329,0.14803 -0.343138,0.38797 -0.476969,0.53614 -0.12522,0.15528 -0.242459,0.28933 -0.250839,0.29638 -0.02511,0.0212 -0.0424,-0.0777 -0.0422,-0.35989 -2.64e-4,-0.23996 -2.64e-4,-0.23998 0.0588,-0.39502 0.275749,-0.79733 0.635868,-1.404 1.01237,-1.72855 0.117369,-0.0987 0.17562,-0.13394 0.250939,-0.16921 0.0936,-0.0372 0.14147,-0.0462 0.183499,-0.0308 z m -4.428349,-0.16679 c -0.527241,-0.15524 -1.213451,-0.0636 -1.656803,0.21868 -0.368128,0.24694 -0.66929,0.71263 -0.828339,1.30524 -0.175429,0.62797 -0.30943,1.79195 -0.284289,2.39164 0.0333,0.62082 0.150619,1.2418 0.326239,1.67918 0.0586,0.16934 0.18406,0.38811 0.27609,0.50804 0.167331,0.21871 0.435121,0.38798 0.711171,0.44441 0.0506,0.0143 0.1339,0.0211 0.22592,0.014 0.250931,-0.007 0.409951,-0.0777 0.786569,-0.32457 0.3346,-0.21872 0.476811,-0.32449 0.619141,-0.45145 0.141578,-0.12717 0.183909,-0.19061 0.18433,-0.27516 -0.0021,-0.0499 -0.008,-0.0634 -0.0587,-0.10581 -0.0507,-0.0425 -0.0666,-0.0493 -0.125521,-0.0494 -0.0916,1.4e-4 -0.108058,0.007 -0.250798,0.11285 -0.184132,0.13403 -0.661152,0.39508 -0.71973,0.39508 -0.0336,-1.2e-4 -0.0923,-0.16944 -0.13379,-0.42334 -0.11712,-0.67728 -0.175842,-1.45324 -0.184271,-2.41274 -0.008,-0.59967 -0.025,-0.53622 0.150489,-0.55038 0.0583,-0.007 0.15902,-0.0211 0.234382,-0.0353 0.0747,-0.0143 0.200829,-0.0283 0.276169,-0.0424 0.26778,-0.0353 0.342929,-0.0847 0.342961,-0.19753 -1.69e-4,-0.0565 -0.007,-0.0703 -0.0422,-0.11286 -0.0337,-0.0283 -0.0749,-0.0424 -0.10926,-0.0567 -0.059,-0.007 -0.48541,0.007 -0.744871,0.0213 l -0.108087,0.007 0.004,-0.072 c 0.01,-0.0419 0.0249,-0.23275 0.0332,-0.42324 0.01669,-0.19757 0.0335,-0.40209 0.0585,-0.47974 0.0281,-0.1778 0.11657,-0.38831 0.192079,-0.51525 0.0582,-0.0989 0.0665,-0.10591 0.167709,-0.14098 0.251061,-0.0847 0.560462,-0.0706 0.920221,0.0494 0.200819,0.0706 0.31805,0.0565 0.359839,-0.0282 0.0496,-0.0848 -0.0337,-0.1836 -0.250899,-0.30343 -0.1171,-0.0635 -0.192379,-0.0917 -0.376571,-0.14816 z m -3.661611,0.31051 c -0.242631,-0.0634 -0.418471,0.014 -0.468641,0.20452 -0.01191,0.0507 -0.01691,0.14107 2.1e-5,0.40216 0.0334,0.7972 0.0418,1.24866 0.0333,1.65783 -0.01659,0.75492 -0.0419,1.01605 -0.225841,1.99673 -0.01159,0.1072 -0.0337,0.21857 -0.042,0.25387 -0.0759,0.5078 -0.159231,0.8749 -0.232902,1.05172 -0.0349,0.0913 -0.108839,0.21147 -0.134398,0.21135 -0.01611,1.2e-4 -0.0997,-0.0915 -0.142171,-0.16224 -0.0509,-0.099 -0.150659,-0.32439 -0.209341,-0.50785 -0.125478,-0.36686 -0.284408,-1.13584 -0.334589,-1.53091 -0.0021,-0.0498 -0.007,-0.12705 -0.01691,-0.16955 -0.0503,-0.26812 -0.0836,-0.93832 -0.0584,-1.22758 0.0164,-0.19058 0.01701,-0.20445 -0.007,-0.25374 -0.0417,-0.0635 -0.125661,-0.0988 -0.192571,-0.0776 -0.10895,0.0282 -0.125058,0.0567 -0.15829,0.38831 -0.0925,0.70537 -0.21826,1.30492 -0.40985,1.93305 -0.0913,0.30356 -0.24212,0.70573 -0.3346,0.88199 -0.108868,0.21163 -0.292899,0.49372 -0.376568,0.55016 -0.042,0.0352 -0.0417,0.0283 -0.0836,-0.22569 -0.0586,-0.44449 -0.0923,-0.81145 -0.108921,-1.10773 -0.008,-0.0917 -0.01701,-0.26098 -0.0249,-0.38787 -0.02471,-0.42321 -0.0585,-0.98067 -0.067,-1.28404 2.64e-4,-0.16218 -0.0168,-0.45151 -0.025,-0.64198 -0.0173,-0.19064 -0.0334,-0.52928 -0.0334,-0.7621 -0.0168,-0.59969 -0.0502,-0.88186 -0.142171,-1.03706 -0.0505,-0.0777 -0.159121,-0.16925 -0.242739,-0.19746 -0.1167,-0.0422 -0.29281,-0.0424 -0.38484,-0.007 -0.167229,0.0706 -0.251081,0.16233 -0.393329,0.45159 -0.267732,0.51503 -0.485212,1.25583 -0.569331,1.9471 -0.18397,1.48865 -0.0501,2.5256 0.43529,3.33696 0.267751,0.45858 0.62746,0.73385 1.062599,0.83264 0.39321,0.0846 0.761341,-0.0565 1.012351,-0.38812 0.250989,-0.32455 0.468418,-0.90304 0.6692,-1.74965 0.0337,-0.14809 0.0646,-0.27579 0.0698,-0.2978 0.004,-0.0154 0.01691,0.0141 0.01619,0.0916 0.008,0.0634 0.0333,0.22575 0.0586,0.35279 0.192371,1.04412 0.543809,1.62255 0.98729,1.62255 0.200779,-1e-5 0.41833,-0.16232 0.585719,-0.44452 0.134012,-0.23277 0.317871,-0.64904 0.418301,-0.9524 0.108691,-0.33161 0.242829,-0.90991 0.32629,-1.39676 0.18411,-1.10764 0.209319,-1.80608 0.100539,-2.65974 -0.0671,-0.49388 -0.14233,-0.64211 -0.359799,-0.69853 z m 8.01503,3.28331 c 0.063,0.0187 0.0968,0.0467 0.1342,0.11008 0.1172,0.19756 0.0838,0.49391 -0.109061,0.86773 -0.209011,0.40924 -0.51883,0.76192 -0.937139,1.07236 -0.116821,0.0848 -0.250991,0.1763 -0.292761,0.20454 -0.100701,0.0564 -0.10912,0.0635 -0.100849,0.0282 0.01471,-0.005 0.0249,-0.10586 0.0332,-0.20466 0.008,-0.14099 0.008,-0.26789 5.29e-4,-0.54301 -0.0254,-0.34577 -0.0584,-0.86088 -0.0752,-1.0302 l -0.008,-0.0847 0.0836,-0.0352 c 0.0414,-0.0213 0.134009,-0.0777 0.200951,-0.12704 0.28447,-0.19049 0.73628,-0.31745 0.995569,-0.27515 0.0297,0.005 0.054,0.0107 0.0755,0.0172 z m -17.98375,-3.20472 c -0.0575,-0.0132 -0.119361,-0.008 -0.170251,0.0202 -0.0839,0.0423 -0.109419,0.0705 -0.26781,0.34585 -0.14205,0.23287 -0.25106,0.42313 -0.66105,1.17802 -0.0922,0.16928 -0.17513,0.31063 -0.18352,0.31767 -0.002,0.007 -0.0589,-0.0705 -0.11713,-0.16217 -0.20092,-0.31045 -0.74456,-1.13593 -0.8785,-1.32643 -0.0668,-0.10579 -0.16741,-0.25396 -0.21761,-0.33862 -0.15068,-0.23284 -0.26778,-0.32452 -0.46849,-0.36683 -0.24265,-0.0564 -0.50219,0.0494 -0.61093,0.23991 -0.0508,0.0845 -0.05,0.0987 -0.0503,0.21862 3.18e-4,0.14824 0.0246,0.23975 0.21745,0.67726 0.0582,0.14806 0.15913,0.36695 0.20095,0.47983 0.21753,0.55734 0.57721,1.31907 0.96206,2.04573 0.0582,0.11983 0.10896,0.22587 0.10892,0.23292 -0.003,0.0132 -0.0503,0.13415 -0.10862,0.26825 -0.21716,0.4728 -0.5354,1.22058 -0.62737,1.47459 -0.0502,0.13403 -0.10882,0.30333 -0.13411,0.35973 -0.0833,0.21174 -0.0586,0.38803 0.0667,0.45146 0.10901,0.0635 0.23447,0.0494 0.33482,-0.0283 0.10036,-0.0776 0.20919,-0.28932 0.65257,-1.22061 l 0.25086,-0.53612 0.21745,0.34562 c 0.45182,0.71961 0.70302,1.06544 0.99587,1.33354 0.0841,0.0777 0.23425,0.14805 0.35979,0.16922 0.27605,0.0564 0.59405,-0.0777 0.72789,-0.30342 0.0916,-0.15532 0.0997,-0.31047 0.02521,-0.55013 -0.0497,-0.19033 -0.075,-0.22572 -0.435102,-0.87486 -0.18415,-0.32454 -0.393218,-0.69151 -0.451829,-0.81851 -0.15903,-0.28221 -0.309569,-0.57142 -0.47693,-0.86069 -0.075,-0.13396 -0.14228,-0.24688 -0.142369,-0.25396 0.002,-0.007 0.0671,-0.14807 0.151399,-0.32427 0.084,-0.16921 0.267721,-0.56444 0.40998,-0.88191 0.133681,-0.31753 0.301221,-0.68436 0.359831,-0.8184 0.116441,-0.26123 0.132998,-0.33191 0.0946,-0.40377 -0.0296,-0.0459 -0.0815,-0.0774 -0.139139,-0.0907 z M 26.8805,26.826501 c -0.22116,-0.0487 -0.44072,0.0532 -0.5579,0.2631 -0.10061,0.17633 -0.23431,0.62085 -0.28484,0.9453 -0.007,0.0266 -0.0163,0.12708 -0.0337,0.21862 -0.0672,0.43031 -0.19254,1.64371 -0.21759,2.05291 -0.008,0.31747 -8e-5,1.27003 0.0166,1.55223 0.0502,0.6914 0.0755,0.83257 0.15914,1.05833 0.10879,0.26104 0.30954,0.43023 0.57731,0.47257 0.12566,0.0212 0.1673,0.0211 0.28444,-8e-5 0.25937,-0.0494 0.45181,-0.18328 0.58568,-0.4161 0.0421,-0.0705 0.0837,-0.16221 0.10074,-0.21153 0.0417,-0.0918 0.0628,-0.3257 0.0753,-0.58565 2.5e-4,-0.0987 0.008,-0.20454 0.009,-0.23975 0.0197,-0.0839 0.0423,-0.72645 0.0501,-1.12167 0.008,-0.16924 0.008,-0.68432 0.008,-1.14291 -0.008,-0.93129 -0.0252,-1.33334 -0.10055,-1.73549 -0.0499,-0.24684 -0.067,-0.31752 -0.14238,-0.52919 -0.11707,-0.30334 -0.25094,-0.4797 -0.43494,-0.55023 -0.0319,-0.0134 -0.0631,-0.0235 -0.0952,-0.0305 z m -2.44798,-0.0474 c -0.12544,-0.0422 -0.33458,-0.0423 -0.47675,7e-5 -0.22594,0.0705 -0.47705,0.26112 -0.67786,0.52215 -0.10849,0.14118 -0.2928,0.4444 -0.40984,0.67725 l -0.0584,0.13425 -0.0249,-0.16928 c -0.0418,-0.24692 -0.11698,-0.57847 -0.1588,-0.69136 -0.100389,-0.24692 -0.26778,-0.39522 -0.51885,-0.43756 -0.25095,-0.0423 -0.518749,0.0988 -0.660999,0.3387 -0.108931,0.18339 -0.20891,0.50091 -0.30944,0.92418 -0.0874,0.37294 -0.117301,0.59257 -0.191761,1.2207 -0.0672,0.649 -0.0586,1.66511 0.0167,2.44115 0.0753,0.65613 0.1841,1.13571 0.33477,1.39677 0.10879,0.18344 0.30114,0.33163 0.49363,0.37397 0.0923,0.0141 0.276,0.0141 0.36809,-0.007 0.20917,-0.0564 0.39324,-0.20464 0.47693,-0.39512 0.033,-0.0777 0.0776,-0.33096 0.1003,-0.63495 l 0.0252,-0.17639 0.1506,0.11999 c 0.22591,0.19048 0.3932,0.28927 0.66939,0.39512 0.39317,0.14108 0.63577,0.18342 1.00399,0.14821 0.13393,-0.0141 0.20074,-0.0354 0.26775,-0.0777 0.11737,-0.0987 0.10055,-0.26801 -0.0338,-0.33868 -0.0419,-0.0282 -0.1008,-0.0354 -0.24278,-0.0565 -0.51866,-0.0705 -0.94537,-0.20469 -1.23823,-0.39517 -0.1168,-0.0705 -0.13384,-0.0846 -0.10885,-0.0987 0.46015,-0.22578 0.92866,-0.63497 1.23815,-1.07242 0.46852,-0.64202 0.7364,-1.44623 0.76986,-2.27873 0.0165,-0.47275 -0.0585,-0.95958 -0.2092,-1.27002 -0.14217,-0.31746 -0.33467,-0.50806 -0.59413,-0.59275 z m -0.29064,0.468 c 0.0123,0.005 0.0216,0.0109 0.0306,0.0188 0.1255,0.10582 0.19264,0.45151 0.17594,0.93832 -0.008,0.50791 -0.0759,0.81834 -0.2675,1.29126 -0.23359,0.57164 -0.55216,1.03697 -0.97889,1.43911 -0.0671,0.0564 -0.15124,0.13397 -0.19251,0.16235 l -0.0752,0.0564 0.016,-0.18346 c 5.29e-4,-0.10569 0.008,-0.57145 0.0169,-1.05124 l 0.008,-0.86067 0.0509,-0.14817 c 0.125979,-0.35968 0.334619,-0.81832 0.476799,-1.0441 0.1093,-0.19034 0.23437,-0.34556 0.38493,-0.47257 0.14619,-0.1297 0.27356,-0.17842 0.35352,-0.14601 z m -4.6484,-0.24737 c -0.19923,-0.048 -0.37959,-0.0335 -0.55533,0.0406 -0.32624,0.14113 -0.58557,0.35994 -0.89516,0.74091 -0.0499,0.0636 -0.0921,0.10566 -0.0918,0.0987 -0.008,-0.24686 -0.0585,-0.57146 -0.10044,-0.69847 -0.11704,-0.28217 -0.41846,-0.43724 -0.71962,-0.35256 -0.15897,0.0353 -0.27618,0.12687 -0.35139,0.268 -0.0919,0.1623 -0.3018,1.05808 -0.37357,1.65165 -0.0244,0.2189 -0.10817,1.00193 -0.12528,1.31931 -0.0592,0.71239 -0.008,2.0108 0.0921,2.55405 0.0499,0.24684 0.15891,0.48681 0.27596,0.61378 0.10875,0.11288 0.3179,0.21864 0.50197,0.24686 0.1506,0.0212 0.29303,7e-5 0.47704,-0.0846 0.10855,-0.0494 0.15117,-0.0704 0.21744,-0.14115 0.20075,-0.19756 0.23423,-0.36686 0.23109,-0.98631 l 4.5e-4,-0.35267 0.12571,-0.0422 c 0.32633,-0.10582 0.66921,-0.28233 0.8785,-0.43752 0.35138,-0.26105 0.69444,-0.71252 0.92871,-1.21343 0.34296,-0.76197 0.7864,-2.6597 -0.30131,-3.15354 -0.0711,-0.0299 -0.13952,-0.0529 -0.20592,-0.0689 z m -0.207,0.54432 c 0.028,0.007 0.0499,0.0283 0.0622,0.0679 0.56898,2.08124 -0.82879,3.45684 -1.17974,3.62629 -0.0675,0.0351 -0.1253,0.0635 -0.1334,0.0635 -0.0131,-0.001 -0.0256,-0.0918 -0.0333,-0.38086 -0.0246,-0.39495 -0.0501,-1.66503 -0.0418,-1.86963 l 3.18e-4,-0.1621 0.15848,-0.26839 c 0.23427,-0.40214 0.41006,-0.62074 0.68611,-0.84652 0.11738,-0.0987 0.17565,-0.13406 0.27606,-0.17639 0.0888,-0.0397 0.1584,-0.0656 0.20596,-0.0536 z"
       id="text7156" />
  </g>
</svg>
