<?xml version="1.0" encoding="UTF-8" standalone="no"?>
<!-- Created with Inkscape (http://www.inkscape.org/) -->

<svg
   xmlns:dc="http://purl.org/dc/elements/1.1/"
   xmlns:cc="http://creativecommons.org/ns#"
   xmlns:rdf="http://www.w3.org/1999/02/22-rdf-syntax-ns#"
   xmlns:svg="http://www.w3.org/2000/svg"
   xmlns="http://www.w3.org/2000/svg"
   xmlns:sodipodi="http://sodipodi.sourceforge.net/DTD/sodipodi-0.dtd"
   xmlns:inkscape="http://www.inkscape.org/namespaces/inkscape"
   width="210mm"
   height="297mm"
   viewBox="0 0 210 297"
   version="1.1"
   id="svg1972"
   inkscape:version="0.92.5 (2060ec1f9f, 2020-04-08)"
   sodipodi:docname="icone info pratique.svg">
  <defs
     id="defs1966" />
  <sodipodi:namedview
     id="base"
     pagecolor="#ffffff"
     bordercolor="#666666"
     borderopacity="1.0"
     inkscape:pageopacity="0.0"
     inkscape:pageshadow="2"
     inkscape:zoom="0.35"
     inkscape:cx="-64.285714"
     inkscape:cy="560"
     inkscape:document-units="mm"
     inkscape:current-layer="layer1"
     showgrid="false"
     inkscape:window-width="1920"
     inkscape:window-height="1009"
     inkscape:window-x="-8"
     inkscape:window-y="-8"
     inkscape:window-maximized="1" />
  <metadata
     id="metadata1969">
    <rdf:RDF>
      <cc:Work
         rdf:about="">
        <dc:format>image/svg+xml</dc:format>
        <dc:type
           rdf:resource="http://purl.org/dc/dcmitype/StillImage" />
        <dc:title></dc:title>
      </cc:Work>
    </rdf:RDF>
  </metadata>
  <g
     inkscape:label="Calque 1"
     inkscape:groupmode="layer"
     id="layer1">
    <g
       transform="matrix(0.25175152,0,0,-0.25175152,13.405648,1744.5068)"
       style="fill:#000000;stroke:none"
       id="g1947">
      <g
         transform="matrix(0.70825269,0,0,0.70825269,-1951.1194,2710.068)"
         id="g1912">
        <path
           style="fill:#000000;stroke:none;stroke-width:0.22119583"
           inkscape:connector-curvature="0"
           d="m 3240.5332,5003.7371 c -53.087,-5.0875 -90.2479,-11.0598 -124.3121,-19.6865 -129.6207,-32.737 -142.4501,-86.7087 -29.419,-123.6484 152.8463,-50.2115 445.046,-33.843 522.6857,29.1978 21.2348,17.2533 21.8984,37.8245 1.5484,55.7414 -32.2946,28.313 -90.5679,52.9378 -178.0072,46.8064 0,0 100.7614,2.5642 129.5653,-47.0276 14.1566,-27.4283 -34.5065,-56.1838 -118.7821,-70.1191 -46.23,-7.7419 -82.2849,-9.7326 -145.5469,-8.4055 -75.2066,1.5484 -117.6762,7.2995 -163.9061,21.8984 -26.7647,8.6267 -40.0364,15.2625 -52.2022,26.5435 -38.9305,35.8338 25.4375,72.1099 149.9708,84.718 18.5804,1.7696 35.8337,3.7604 38.2668,4.2028 5.7511,0.8847 -19.6864,0.8847 -29.8614,-0.2212 z M 3069.77,4957.2859 c -9.9538,-19.4652 -9.9538,-26.7647 -0.4424,-41.1424 41.5848,-62.8196 319.1856,-81.6213 451.2395,-30.525 21.456,8.1842 40.7001,21.456 47.5571,32.5158 5.9723,9.9538 6.6359,24.5527 1.106,32.9582 -2.212,3.3179 -3.3179,6.6358 -2.4331,7.2994 2.6543,2.6544 34.0641,-15.2625 41.806,-24.1103 15.2625,-16.8109 7.7418,-33.1794 -22.7832,-49.3267 -113.0311,-59.5017 -419.6085,-59.9441 -533.7455,-0.8848 -32.737,16.8109 -40.7001,33.4006 -24.3316,50.4327 10.8386,11.7233 46.0087,30.525 42.0272,22.7831 z"
           id="path1452-8"
           sodipodi:nodetypes="ccccccccccccccccccccccccc" />
        <g
           id="g1881"
           transform="rotate(2.0477289,25363.746,13269.806)">
          <path
             id="path1448-2"
             d="m 3059.9168,6215.9644 c -34.0641,-7.5207 -69.2342,-29.8614 -91.7962,-58.1745 -20.7924,-26.1011 -31.631,-53.9718 -34.2854,-90.2479 -3.7603,-46.4511 9.2903,-84.9392 60.8289,-178.7262 31.4098,-57.7321 95.7778,-171.648 96.2202,-170.9844 1.1059,1.3272 58.8381,104.1832 82.2848,146.6528 42.6908,77.4186 53.3082,98.8746 63.0408,127.1876 8.8479,26.1011 9.2903,29.4191 10.175,57.0686 1.106,36.4973 -2.6543,54.6353 -16.5897,82.9484 -8.4054,16.3685 -13.9353,23.8891 -29.1978,39.1516 -21.6772,21.456 -40.0364,32.9582 -65.474,41.1425 -22.7831,7.2994 -53.087,8.8478 -75.2066,3.9815 z m 71.0039,-12.1658 c 29.6403,-9.069 55.7414,-26.9859 75.8702,-52.2022 21.8984,-27.6495 31.1886,-55.9625 31.1886,-95.7778 0,-52.8658 -9.9538,-76.5337 -102.1925,-241.1034 -46.4511,-82.5061 -43.7968,-78.5246 -47.1147,-74.7642 -1.5484,1.5483 -21.2348,35.8337 -43.7968,75.8701 -93.3446,167.4453 -101.9712,187.1317 -101.9712,238.8915 -0.2212,30.7463 2.6543,44.018 13.9353,68.5707 18.8016,40.4789 60.8288,74.543 101.9713,82.7273 6.6358,1.3272 14.1565,2.8755 16.5897,3.3179 9.069,2.212 40.9212,-1.106 55.5201,-5.5299 z"
             inkscape:connector-curvature="0"
             style="fill:#000000;stroke:none;stroke-width:0.22119583" />
          <path
             inkscape:connector-curvature="0"
             id="path1621-2"
             d="m 3063.4999,5934.0334 c -45.6388,11.5776 -80.9421,47.4372 -91.4809,92.9223 -8.6969,37.5357 0.3063,76.7735 24.4019,106.3509 16.5289,20.2889 35.1445,33.1145 60.4798,41.6688 12.565,4.2425 17.2788,4.8713 36.0775,4.8137 24.6738,-0.076 39.0892,-3.6937 61.1528,-15.3483 19.0483,-10.0618 41.0947,-33.1284 50.6379,-52.9807 10.7469,-22.3565 13.5301,-34.9566 13.1577,-59.5676 -0.2601,-17.1702 -1.1383,-23.1857 -5.1259,-35.101 -17.5823,-52.5399 -66.2922,-87.249 -121.1741,-86.3449 -8.2279,0.1352 -20.8849,1.7496 -28.1267,3.5868 z m 35.8238,8.0526 c 2.3121,5.9451 2.4527,24.4189 0.2314,30.3985 -1.8717,5.0379 -8.3822,6.3917 -12.2792,2.5534 -3.0681,-3.0218 -3.232,-35.0316 -0.1862,-36.2877 5.8423,-2.4093 10.4926,-1.1413 12.2338,3.3358 z m 17.3155,104.0096 c 22.7196,19.9205 27.3838,25.4663 25.0891,29.8333 -4.0423,7.6928 -7.6734,6.4364 -25.0033,-8.6499 -6.3331,-5.5132 -13.4114,-11.4508 -15.7294,-13.1945 l -4.2149,-3.1706 -19.5435,25.8768 c -10.7488,14.2324 -21.1952,27.3818 -23.214,29.221 -4.4143,4.0215 -10.4319,2.7395 -12.1689,-2.5923 -1.3883,-4.2616 1.3242,-8.4243 30.2127,-46.3627 14.6667,-19.2618 20.669,-25.8364 23.607,-25.8588 2.3878,-0.018 10.6455,5.8496 20.9652,14.8977 z m -102.2471,5.9102 c 2.3939,3.363 2.4532,4.5 0.3998,7.6556 -1.9508,2.9977 -4.6744,3.8245 -14.2503,4.3264 -15.844,0.8303 -23.6161,-1.2094 -24.4128,-6.407 -1.1592,-7.5634 2.3968,-9.2732 19.5573,-9.4038 14.3416,-0.1087 16.1694,0.265 18.7062,3.8286 z m 195.7174,-2.6494 c 1.6808,1.9944 1.8784,4.1826 0.6911,7.6535 -1.5971,4.6688 -2.2298,4.883 -16.0368,5.4303 -19.973,0.7917 -29.4503,-4.7654 -21.644,-12.6914 4.1068,-4.1697 33.5426,-4.4819 36.9897,-0.3924 z m -111.2673,84.4382 c 3.0112,1.8732 4.9772,21.4738 3.1652,31.5558 -0.873,4.8557 -2.2383,6.6233 -5.8367,7.5556 -7.3994,1.9171 -9.5733,-2.818 -9.7129,-21.1557 -0.1,-13.1309 0.4076,-16.0963 3.0193,-17.6442 3.9135,-2.3195 6.0241,-2.3897 9.3651,-0.3115 z"
             style="opacity:1;fill:#800080;stroke:none;stroke-width:1.80199504" />
        </g>
        <g
           id="g1903"
           transform="translate(350.96152,124.99999)">
          <path
             inkscape:connector-curvature="0"
             d="m 2756.603,4919.2696 c 30.0596,-63.7763 85.4477,-121.1584 119.8325,-124.1413 l 5.9246,-0.5258 15.7357,6.1708 c 40.6835,15.8985 48.2007,35.8227 26.8704,71.3096 -20.3349,33.7734 -32.7742,39.3171 -62.5672,27.814 -14.2326,-5.4951 -17.778,-4.9567 -27.0444,4.1008 -22.8684,22.3055 -59.4603,117.0787 -57.5152,148.9648 0.7754,12.9345 3.039,15.7157 17.2302,21.1948 27.9097,10.8235 34.5293,23.44 28.9956,55.0609 -7.9406,45.7584 -24.0345,57.1863 -63.5476,45.1726 -21.0749,-6.4206 -26.4631,-10.742 -33.8088,-27.4054 -22.5885,-51.1565 -10.7325,-141.51 29.8944,-227.7161 z m -11.5232,47.9989 c -0.6647,5.1787 -3.2513,17.4351 -5.694,27.22 -17.9632,71.5934 -17.2113,134.7261 1.8196,158.6666 3.9917,4.9742 33.9384,16.2027 43.0814,16.1091 16.8904,-0.1539 26.2433,-14.3749 30.433,-46.4671 3.37,-25.3997 -0.8851,-31.6676 -29.0532,-42.6862 -24.0603,-9.4325 -23.4784,-42.0597 1.9695,-108.0931 28.5172,-73.8601 46.3956,-92.1323 79.3567,-80.9316 22.22,7.53 28.5584,5.6859 41.3711,-12.0628 21.6681,-30.0639 23.0709,-48.0221 4.8382,-61.9278 -24.0518,-18.3455 -36.4395,-18.122 -63.7652,1.0322 -28.9558,20.2889 -53.7516,51.291 -80.3114,100.4457 -5.8419,10.8088 -12.7776,22.721 -15.4172,26.4699 -6.3025,8.9143 -7.1356,11.0721 -8.6285,22.2251 z"
             id="path1647"
             style="fill:#000000;stroke:none;stroke-width:0.0444798" />
          <path
             transform="matrix(7.4999995,0,0,-7.4999995,-1322.8338,7017.0963)"
             inkscape:connector-curvature="0"
             id="path1899"
             d="m 557.94396,293.9702 c -3.83977,-2.15269 -7.35068,-5.9964 -10.69132,-11.70481 -1.00265,-1.7133 -2.37361,-4.01976 -3.04657,-5.12546 -0.96879,-1.59174 -1.42893,-2.92657 -2.20974,-6.41026 -1.98357,-8.84992 -2.39162,-14.34708 -1.3914,-18.74473 0.62708,-2.75707 1.44081,-3.69342 4.06199,-4.67413 3.44422,-1.28865 5.167,-0.69631 6.14063,2.11133 0.71723,2.06824 0.99995,5.5457 0.52328,6.43636 -0.20609,0.38509 -1.37552,1.20416 -2.59873,1.82016 -3.25535,1.63937 -3.8606,2.96491 -3.18593,6.97743 0.7729,4.59667 4.41415,13.75753 6.69585,16.84576 0.65322,0.88411 1.57297,1.63152 2.52713,2.05358 1.45502,0.64363 1.56278,0.64753 3.5836,0.12974 3.05346,-0.78238 3.643,-0.706 4.95173,0.64155 1.34021,1.37997 3.06173,4.6724 3.06002,5.85234 -0.002,1.33851 -1.13064,2.8145 -2.95028,3.85802 -2.15328,1.23485 -3.17051,1.22241 -5.47026,-0.0669 z"
             style="opacity:1;fill:#00d500;fill-opacity:1;stroke-width:0.32051283" />
        </g>
      </g>
    </g>
  </g>
</svg>
