<?xml version="1.0" encoding="UTF-8" standalone="no"?>
<!-- Created with Inkscape (http://www.inkscape.org/) -->

<svg
   xmlns:dc="http://purl.org/dc/elements/1.1/"
   xmlns:cc="http://creativecommons.org/ns#"
   xmlns:rdf="http://www.w3.org/1999/02/22-rdf-syntax-ns#"
   xmlns:svg="http://www.w3.org/2000/svg"
   xmlns="http://www.w3.org/2000/svg"
   xmlns:sodipodi="http://sodipodi.sourceforge.net/DTD/sodipodi-0.dtd"
   xmlns:inkscape="http://www.inkscape.org/namespaces/inkscape"
   width="210mm"
   height="297mm"
   viewBox="0 0 210 297"
   version="1.1"
   id="svg5632"
   sodipodi:docname="icone gastro enterologie violet.svg"
   inkscape:version="0.92.5 (2060ec1f9f, 2020-04-08)">
  <defs
     id="defs5626" />
  <sodipodi:namedview
     id="base"
     pagecolor="#ffffff"
     bordercolor="#666666"
     borderopacity="1.0"
     inkscape:pageopacity="0.0"
     inkscape:pageshadow="2"
     inkscape:zoom="1.01"
     inkscape:cx="564.93364"
     inkscape:cy="539.38607"
     inkscape:document-units="mm"
     inkscape:current-layer="layer1"
     showgrid="false"
     inkscape:window-width="1920"
     inkscape:window-height="1009"
     inkscape:window-x="-8"
     inkscape:window-y="-8"
     inkscape:window-maximized="1"
     showguides="false" />
  <metadata
     id="metadata5629">
    <rdf:RDF>
      <cc:Work
         rdf:about="">
        <dc:format>image/svg+xml</dc:format>
        <dc:type
           rdf:resource="http://purl.org/dc/dcmitype/StillImage" />
        <dc:title />
      </cc:Work>
    </rdf:RDF>
  </metadata>
  <g
     inkscape:label="Calque 1"
     inkscape:groupmode="layer"
     id="layer1">
    <g
       id="g27147">
      <g
         style="opacity:1;fill:#800080;fill-opacity:0.81960785;stroke:none;stroke-width:1;stroke-miterlimit:4;stroke-dasharray:none;stroke-opacity:1"
         transform="matrix(1.9611507,0,0,1.9611507,-127.78904,-11.933906)"
         id="g1721">
        <path
           style="opacity:1;fill:#800080;fill-opacity:0.81960785;fill-rule:nonzero;stroke:none;stroke-width:3.77952766;stroke-miterlimit:4;stroke-dasharray:none;stroke-opacity:1"
           d="M 466.50246,416.60291 C 428.53557,412.11186 393.9216,394.51755 367.16058,366.10737 299.2832,294.04701 309.57133,181.30146 389.39294,122.46748 421.24698,98.988876 463.92921,87.634705 503.07146,92.227139 c 35.74745,4.194132 67.5168,18.938941 93.11188,43.215151 34.93114,33.13117 51.962,72.24201 51.88245,119.14636 -0.0452,26.60433 -4.21021,45.39991 -15.20302,68.60597 -9.75801,20.59938 -19.70982,34.52681 -34.93141,48.88607 -15.47098,14.59455 -24.52805,20.75439 -44.05267,29.96084 -17.95961,8.46848 -30.13011,11.92733 -51.12411,14.52941 -16.0362,1.98759 -19.69228,1.99081 -36.25212,0.0319 z"
           id="path1718"
           inkscape:connector-curvature="0"
           transform="scale(0.26458333)" />
      </g>
      <g
         transform="matrix(0.72211327,0,0,0.72211327,119.09967,27.761795)"
         id="g6926">
        <g
           id="g6868">
          <path
             style="fill:#000000;stroke:none;stroke-width:0.04913835"
             inkscape:connector-curvature="0"
             d="m -50.876919,38.748432 c 0.343988,7.272522 1.572432,17.247598 2.211223,18.476027 0.737094,1.277612 0.786245,3.931085 0.09829,4.32419 -0.245701,0.147413 -0.589638,-0.343951 -0.737094,-1.081041 -0.196538,-0.737075 -0.638792,-1.965537 -1.031883,-2.702601 -0.393092,-0.687943 -0.687943,-1.867283 -0.687943,-2.506071 0,-0.687942 -0.196538,-1.375885 -0.442246,-1.572434 -0.294862,-0.147377 -0.638788,-1.326735 -0.835337,-2.604315 -0.147449,-1.277579 -0.491394,-2.555225 -0.737094,-2.850014 -0.2457,-0.294862 -0.589637,-1.621582 -0.786183,-2.948316 -0.294862,-2.45692 -2.014677,-5.40524 -2.653468,-4.766448 -0.196611,0.2457 -0.196611,1.277645 0.04909,2.358679 0.540548,2.407769 1.375885,6.142271 2.014677,9.090588 0.2457,1.179339 0.687943,2.407768 0.933639,2.653468 0.294862,0.294863 0.491397,0.93364 0.491397,1.474126 0.04916,0.589702 0.442246,1.916437 0.982732,2.997464 0.540548,1.081041 0.933643,2.260362 0.982794,2.555196 0,0.343951 0.196539,0.638795 0.442243,0.638795 0.2457,0 0.540551,0.491386 0.737097,1.130181 0.147376,0.638799 1.27758,2.16209 2.456919,3.390545 l 2.211223,2.21123 -0.2457,7.518167 c -0.196539,6.044017 -0.09832,7.763857 0.540486,8.943178 0.393157,0.835352 0.737097,1.719844 0.737097,1.916397 0,0.687936 3.931045,6.19143 5.306934,7.370748 2.899165,2.555196 7.026821,4.815562 8.795798,4.864698 0.589641,0 1.228429,0.196539 1.375824,0.491381 0.147449,0.2457 0.737097,0.49139 1.22849,0.49139 1.179344,0 1.424978,1.03191 2.260378,9.68025 0.343951,3.24314 0.2457,3.39055 -1.17934,2.60433 -0.442246,-0.2457 -1.916371,-0.93363 -3.292257,-1.47414 -1.326734,-0.54053 -2.850014,-1.22846 -3.341411,-1.5233 -0.491397,-0.2457 -2.358679,-1.27759 -4.176749,-2.26036 -1.818128,-0.98277 -3.390562,-1.9164 -3.537954,-2.11295 -0.147449,-0.19654 -0.589702,-0.54052 -1.081099,-0.78621 -1.27758,-0.73707 -5.454329,-4.71728 -7.075911,-6.830231 -1.965526,-2.555192 -5.896574,-9.090595 -6.33882,-10.613886 -0.196539,-0.638799 -0.540548,-1.425014 -0.786245,-1.71984 -0.2457,-0.294826 -0.540486,-2.358639 -0.638792,-4.569869 -0.09825,-2.211223 -0.442242,-4.275033 -0.786182,-4.717279 -0.737098,-0.884488 -2.260378,-0.982765 -2.751775,-0.196538 -0.196538,0.343951 -0.786183,-0.343988 -1.424974,-1.572435 -0.884489,-1.818117 -1.277645,-2.162083 -2.506074,-2.162083 -2.211223,0 -3.292257,2.751749 -3.341408,8.2061 0,2.751748 0.196538,4.520732 0.589637,4.913838 0.343988,0.343988 0.589703,1.130182 0.589703,1.867257 0,0.687936 0.294789,1.818117 0.687881,2.506052 0.343987,0.687939 0.786244,1.818124 0.98279,2.555196 0.147376,0.737076 0.491397,1.326738 0.737097,1.326738 0.2457,0 0.589637,0.638799 0.786183,1.474148 0.196538,0.786215 0.540551,1.474154 0.786248,1.474154 0.2457,0 0.442246,0.294826 0.442246,0.638796 0,0.884488 4.422446,7.518172 6.928454,10.368192 2.358679,2.70261 9.43459,8.15697 10.564779,8.15697 0.393095,0 0.687942,0.19654 0.687942,0.44224 0,0.2457 0.589641,0.58966 1.277584,0.73708 0.737093,0.19654 1.621582,0.68793 2.014673,1.0319 0.393095,0.39311 1.130189,0.73708 1.621586,0.73708 0.491397,0 1.031883,0.19654 1.228429,0.44224 0.147449,0.2457 1.867282,0.93363 3.832808,1.52329 1.916372,0.58966 4.078505,1.22846 4.766448,1.47415 0.687881,0.2457 1.916371,0.49139 2.702558,0.58967 1.22849,0.0983 1.474187,0.3931 1.474187,1.37587 0,1.08104 -0.2457,1.27759 -2.456919,1.62156 -1.326735,0.19657 -5.552635,0.58966 -9.336288,0.88449 -6.830214,0.49138 -9.97508,0.34395 -20.294158,-1.03191 -2.260374,-0.34395 -4.668142,-0.44224 -5.356085,-0.2457 -1.179278,0.29483 -1.228433,0.44225 -0.933643,2.5552 0.786248,5.74919 5.257845,8.00955 18.967423,9.53284 4.815537,0.54052 14.299282,0.2457 15.675171,-0.49138 0.442242,-0.2457 1.768977,-0.54053 2.997405,-0.6388 l 2.211223,-0.14742 -0.147376,3.68538 c -0.09829,2.01467 -0.393154,4.37331 -0.638789,5.20867 -0.393156,1.32672 -0.786248,4.32416 -1.76898,13.07079 l -0.2457,2.35864 h -2.211223 c -3.292322,0 -8.943196,2.60434 -11.940667,5.5035 -2.358614,2.26037 -3.292257,4.27504 -3.685349,8.05869 -0.294862,2.85002 -0.196538,3.24313 1.425037,6.28971 0.982732,1.81811 1.670674,3.48882 1.52328,3.78365 -0.196539,0.2457 -0.835399,0.44225 -1.52328,0.44225 -0.687943,0 -2.309525,0.34395 -3.636259,0.78621 -1.867283,0.6388 -2.555225,1.13017 -3.194017,2.50606 -1.424975,2.9483 -1.130189,2.99744 11.596662,2.99744 6.191422,0 11.44927,0.0983 11.596661,0.29482 0.147377,0.14742 -0.2457,0.49138 -0.933639,0.73707 -1.326734,0.49139 -3.341412,3.48883 -3.341412,4.96298 0,1.62157 1.572432,2.01467 5.503484,1.47415 1.965522,-0.29482 4.02935,-0.73707 4.569898,-0.98277 1.375889,-0.58966 11.3018141,-1.52329 21.12949536,-1.91639 8.50088884,-0.39311 11.54751064,-1.08105 11.54751064,-2.65347 0,-0.78621 -1.818131,-2.80089 -2.4569193,-2.80089 -1.2775835,0 -0.2457003,-1.52329 1.8672173,-2.70261 2.260377,-1.32673 6.63373,-5.40522 7.026825,-6.58454 0.196538,-0.49138 1.670674,-0.49138 6.584513,-0.0983 10.269928,0.78622 11.596666,1.2776 7.911314,2.99745 -1.228491,0.54052 -2.309525,0.98276 -2.45692,0.98276 -0.835403,0 -2.751774,2.30951 -2.751774,3.24314 0,1.32672 2.162068,3.14485 3.636259,3.14485 0.589637,0 1.277587,0.19654 1.572435,0.44224 0.245627,0.29483 1.768976,0.73707 3.390493,1.03191 4.618995,0.83535 10.515631,1.86725 14.00443,2.45691 1.768981,0.2457 3.832816,0.73708 4.618995,0.98277 0.786245,0.29482 2.063835,0.49138 2.800925,0.49138 1.17934,0 2.309467,0.73708 1.867224,1.22847 -0.09825,0.0983 -2.407772,0.54051 -5.110391,0.98276 -5.503476,0.88449 -10.368171,2.99744 -12.33369,5.35608 -1.916375,2.21122 -0.835338,4.07849 3.488799,6.19143 3.783657,1.86727 6.879368,2.21123 18.918269,2.16209 10.859571,-0.0491 13.021701,-0.19657 19.655369,-1.71984 6.437119,-1.47416 12.284543,-6.24057 12.284543,-10.07337 0,-3.24313 -5.110392,-7.76385 -9.876771,-8.79576 -0.933639,-0.19654 -1.867282,-0.54052 -2.162071,-0.73707 -1.031945,-0.83536 -16.70705,-3.5871 -27.517529,-4.91384 -6.043966,-0.68793 -10.515562,-1.52329 -10.81041,-1.96553 -0.147376,-0.19654 0.442243,-0.63879 1.228429,-0.98277 4.275047,-1.76898 0.786248,-6.58454 -5.650882,-7.91127 -1.081026,-0.19654 -3.046556,-0.6388 -4.422438,-0.93363 -1.375885,-0.29483 -5.405239,-0.49139 -9.287137,-0.3931 l -6.830275,0.14741 0.09829,-6.63368 c 0.09825,-5.01212 -0.09829,-7.22334 -0.638788,-8.8449 -0.442246,-1.22846 -0.786248,-2.5552 -0.786248,-2.9483 0,-0.39312 -0.343952,-1.37588 -0.737032,-2.16209 -0.393157,-0.73707 -0.737097,-1.62157 -0.737097,-1.86726 0,-1.37587 -6.584514,-14.54495 -10.2207732,-20.49069 -0.7861865,-1.2776 -1.6215856,-2.80089 -1.7689804,-3.39055 -0.1965384,-0.58966 -0.5896371,-1.08104 -0.8353374,-1.08104 -0.2457003,0 -0.4422424,-0.34395 -0.4422424,-0.78622 0,-0.44224 -0.2948621,-1.37587 -0.6387917,-2.06381 -0.3931568,-0.73707 -1.0319448,-2.11294 -1.4250363,-3.04657 -0.393095,-0.93363 -1.0810377,-2.50606 -1.52328,-3.43969 -0.3930951,-0.93363 -1.22849425,-3.29227 -1.81813138,-5.15953 -0.58964076,-1.91639 -1.27758342,-3.83278 -1.52328012,-4.27503 -0.2457003,-0.49138 -0.442246,-1.17932 -0.442246,-1.57242 0,-0.39312 -0.2457003,-1.32674 -0.5896988,-2.11295 -0.2947895,-0.73708 -0.9335776,-2.45692 -1.3758236,-3.73452 -0.8353992,-2.260366 -0.8353992,-2.358639 0.098251,-2.850025 0.6879427,-0.393102 1.5724347,-0.196538 3.58711176,0.737079 1.42503624,0.737076 3.04655654,1.277595 3.53795354,1.277595 0.5405479,0 1.1793396,0.2457 1.52328,0.589661 0.7370937,0.73708 9.925987,1.22846 9.925987,0.49138 0,-0.982761 -1.425036,-1.572427 -4.471597,-1.867253 C 8.6296626,98.648108 6.958926,98.353264 6.7132294,98.107571 6.4183672,97.911033 5.1899493,97.567045 4.0106097,97.419636 2.7821808,97.223097 1.062355,96.731697 0.12871207,96.338587 L -1.5420245,95.601515 0.57095807,93.635978 C 2.3890894,91.916142 2.6838753,91.768722 3.4209725,92.407521 c 0.4913934,0.393109 2.1620682,0.884495 3.7836538,1.081048 1.621582,0.196539 3.2922567,0.540515 3.7345027,0.737076 2.751771,1.523283 20.539851,1.621563 22.456223,0.196538 1.572438,-1.228458 -0.245701,-1.768984 -5.306931,-1.474151 -4.618991,0.2457 -8.844891,-0.04913 -19.3113636,-1.228461 L 3.4701235,91.129915 3.6175001,89.360931 c 0.1473766,-1.6707 0.2457003,-1.76898 2.063828,-1.916393 1.0318831,-0.09829 2.6043142,0.196538 3.4888025,0.589659 1.2284904,0.589662 4.1767484,0.835356 12.4319994,1.130181 11.203566,0.294826 12.726846,0.09829 12.038904,-1.621567 C 33.444495,86.953156 31.528051,86.854875 22.486618,86.854875 10.64426,86.80575 5.4356278,86.461773 5.1407802,85.528141 5.0425291,85.233315 5.6813281,84.594513 6.6640566,84.15227 8.6296444,83.218642 15.115856,76.928932 15.607253,75.454778 15.75463,74.914262 15.656415,74.226323 15.312391,73.882354 14.62451,73.194419 8.8261793,73.292695 6.1727141,74.029767 4.6493723,74.472016 4.1580371,74.422876 3.4209435,73.734941 2.9295465,73.292695 2.5364515,72.653892 2.5364515,72.26079 c 0,-1.86726 -5.6509361,-7.960417 -9.5328301,-10.319056 l -2.8991508,-1.768948 2.2603773,-2.063828 c 2.7517089,-2.456919 3.6853482,-4.471597 2.6043142,-5.552631 -0.5896372,-0.58964 -0.9827939,-0.638791 -2.1129173,-0.196538 -0.7370972,0.294862 -2.2603773,0.687943 -3.3414118,0.884492 -1.081095,0.196538 -2.162133,0.491397 -2.456923,0.687943 -0.2457,0.196538 -2.063828,0.835337 -4.02935,1.425036 -1.916433,0.589641 -3.783654,1.424974 -4.127656,1.86722 -0.491335,0.589703 -1.228433,0.687943 -3.243106,0.442246 -1.719826,-0.196538 -3.243106,-0.04909 -4.668146,0.442243 -1.179339,0.393124 -2.456919,0.737097 -2.850014,0.737097 -1.52328,0.04913 -5.945722,2.604332 -8.304401,4.766415 -0.638792,0.638795 -1.326735,1.130181 -1.52328,1.130181 -0.589641,0 -1.130189,-7.960428 -1.17934,-17.296712 -0.04909,-8.894042 -0.343951,-10.220776 -1.867221,-8.402649 -1.031944,1.277584 -0.835399,18.476031 0.245701,20.883806 0.491331,1.031909 0.835337,2.40778 0.835337,3.046579 0,0.687935 0.343951,1.425011 0.835334,1.670704 0.933643,0.540518 0.589637,1.768976 -0.737094,2.506055 -0.835337,0.442243 -0.884488,0.343988 -0.687881,-0.687939 0.245628,-1.425014 -0.2457,-1.572423 -1.179339,-0.393102 -0.638792,0.835348 -0.638792,0.835348 -0.687943,0 0,-0.442246 0.2457,-0.835355 0.491397,-0.835355 0.786183,0 0.589637,-2.948302 -0.2457,-3.243132 -0.491401,-0.196538 -0.737098,-0.982768 -0.737098,-2.162082 0,-1.031909 -0.343951,-2.653506 -0.737097,-3.587087 -0.491331,-1.277641 -0.737032,-3.68541 -0.786183,-8.058704 -0.04916,-6.781125 -1.228428,-13.906125 -2.309528,-14.299282 -0.540486,-0.147413 -0.638788,0.737094 -0.442242,4.864692 z m 42.6029933,16.608806 c 0,0.2457 -0.6879426,1.228429 -1.572431,2.211223 -1.6215853,1.818099 -2.6043793,2.063792 -5.7000903,1.474136 -1.326735,-0.2457 -1.474126,-0.442246 -1.081034,-1.228436 0.294862,-0.491397 1.326734,-1.031948 2.358679,-1.228494 0.982732,-0.196538 2.358617,-0.638788 3.04656,-0.982729 1.4249745,-0.737097 2.9483163,-0.884488 2.9483163,-0.2457 z m -9.5819843,4.815537 c 0.540486,0.294826 1.818127,0.687939 2.899165,0.835352 1.031883,0.196575 2.260312,0.540522 2.70262,0.737075 0.442242,0.245701 1.62152,0.786216 2.7025542,1.326738 3.0466219,1.474148 8.15701,6.879369 10.12253613,10.663023 1.91637147,3.783646 1.22842887,3.587097 8.05870457,2.309503 5.3069341,-0.982769 4.6681421,0.540515 -2.1621336,5.257801 -1.4741255,1.031908 -2.8008598,2.06381 -2.8991654,2.260363 -0.098251,0.2457 -0.6879426,0.982764 -1.3267307,1.719843 L 1.0623623,86.609208 0.22696314,85.528163 C -0.46097953,84.643675 -1.3945608,84.348845 -4.0971805,84.103152 -5.9644591,83.906614 -7.7825904,83.56263 -8.07738,83.366077 c -0.2948621,-0.245701 -1.965522,-0.589659 -3.685414,-0.73708 -1.719825,-0.147412 -3.587108,-0.442242 -4.127594,-0.687935 -0.540548,-0.2457 -2.653465,-0.687935 -4.668142,-0.982761 -2.014677,-0.294826 -4.520751,-0.638803 -5.50348,-0.835356 -1.621585,-0.196538 -1.867282,-0.147413 -1.867282,0.737076 0,0.589662 0.442243,1.130181 0.982794,1.326734 1.37582,0.442242 1.228429,1.670704 -0.294862,2.211226 -1.326734,0.540527 -1.17934,1.474148 0.294862,1.474148 0.491332,0 0.982729,0.343987 1.179274,0.737079 0.14745,0.393109 0.786249,0.737075 1.42504,0.737075 0.687943,0 1.474126,0.343988 1.818128,0.737076 0.343951,0.393106 0.884492,0.737075 1.179278,0.737075 0.294862,0.04913 1.42504,0.442246 2.506074,0.982769 1.081034,0.540519 2.260374,0.933628 2.604314,0.982761 0.294862,0 0.589702,0.196575 0.589702,0.442246 0,0.2457 0.589638,0.589663 1.326731,0.786215 0.737036,0.147413 1.474129,0.491383 1.621524,0.638796 0.343988,0.491386 4.6681423,2.555196 5.3560849,2.555196 0.6388535,0 0.7370973,0.491382 0.5405479,3.095718 -0.049162,1.031909 0.1473766,2.112955 0.3930951,2.456915 0.2457003,0.34398 0.6387917,1.52329 0.8353374,2.65347 0.1966111,1.17932 0.5405479,2.21123 0.7862446,2.40778 0.2457003,0.14742 0.442246,0.73708 0.442246,1.32674 0,0.58966 0.3439513,1.71984 0.7370936,2.50605 0.393095,0.73708 0.7370355,1.71985 0.7370355,2.11295 0,0.68794 0.2948621,1.42501 2.30952467,6.04402 0.39309505,0.93363 1.03188313,2.35864 1.37588532,3.19399 1.42497821,3.48882 4.37329451,9.33629 4.76638601,9.4837 0.1965384,0.0983 0.3930914,0.54052 0.3930914,1.03191 0,0.44224 0.196611,1.03191 0.442246,1.2776 0.6388534,0.63879 6.1914836,11.25267 7.5673076,14.49581 0.442246,0.93362 1.228494,2.75175 1.76898,4.02934 0.589699,1.2776 1.031945,2.5552 1.031945,2.85003 0,0.2457 0.196539,0.88448 0.491397,1.37587 0.982729,1.81812 1.62152,6.04402 1.818066,12.08803 0.147449,5.06125 0.04916,6.63368 -0.589637,8.10783 -2.506074,5.55264 -3.439652,6.63367 -8.5500398,9.87681 -3.8819593,2.50606 -4.3242053,3.48882 -2.2603737,5.70005 0.6879427,0.73708 1.2284289,1.47415 1.2284289,1.62156 0,0.14741 -2.8008599,0.2457 -6.2405769,0.14741 -8.9922821,-0.19653 -22.1122235,1.08105 -25.7976375,2.60434 -1.965526,0.78622 -3.095711,0.58966 -3.537957,-0.54053 -0.393091,-0.98276 1.17934,-3.0957 2.211223,-3.14485 0.442246,0 1.474191,-0.34399 2.211222,-0.73707 0.786249,-0.39311 1.818132,-0.73708 2.309529,-0.73708 0.491397,0 1.572431,-0.34395 2.407768,-0.78621 1.130185,-0.58967 2.555225,-0.73708 5.847482,-0.58967 2.506074,0.0983 4.520751,-0.0492 4.8155369,-0.34395 0.3439877,-0.34395 -0.3439514,-1.13017 -2.063828,-2.50605 -1.4249749,-1.08105 -3.4396519,-3.24314 -4.4224459,-4.76642 -3.193951,-4.81556 -2.407768,-9.38543 2.60438,-14.49581 1.4249745,-1.37588 2.8008598,-2.5552 3.095711,-2.5552 0.3439514,0 1.2284289,-0.34395 2.0637663,-0.78621 0.7862446,-0.39311 2.4078302,-0.88449 3.5380189,-1.03191 1.17927422,-0.14741 2.26031194,-0.49139 2.40776842,-0.68794 0.34395136,-0.58966 -1.91643682,-1.42501 -3.78365382,-1.42501 -1.5724346,0 -6.3388823,1.9164 -6.3388823,2.55519 0,0.19654 -0.2947895,0.39312 -0.6879425,0.39312 -0.933578,0 -5.012083,4.619 -6.240573,6.97765 -0.638792,1.27758 -0.933582,2.85001 -0.933582,5.11038 0,3.58709 0.589641,5.01211 4.029293,9.13973 2.112979,2.60433 2.211284,2.85002 0.982794,2.85002 -1.130189,0 -8.4518,-7.02678 -8.4518,-8.15697 0,-0.14741 -0.343951,-0.98276 -0.687943,-1.81811 -2.555163,-5.50349 -2.555163,-15.67514 0,-29.48301 0.393092,-2.06381 0.687943,-5.8966 0.687943,-8.45179 v -4.61902 l 1.719826,-0.34395 c 0.933643,-0.14742 1.867282,-0.49139 2.014677,-0.73708 0.147449,-0.2457 0.589699,-0.44224 1.031945,-0.44224 1.474129,0 8.9922855,-3.5871 10.1224705,-4.81556 0.7862482,-0.83535 0.7862482,-1.03191 0.098287,-1.57243 -0.7862482,-0.6388 -0.8353991,-0.6388 -4.0785045,1.17932 -1.130189,0.68794 -2.751771,1.32673 -3.537957,1.52329 -0.786248,0.19654 -1.572431,0.54052 -1.719826,0.78621 -0.196538,0.2457 -0.687943,0.44224 -1.130185,0.44224 -0.442246,0.0492 -1.719891,0.44225 -2.800925,0.98277 -1.081034,0.54053 -2.506013,0.93364 -3.243106,0.98277 -0.687943,0 -1.425036,0.19654 -1.719826,0.44224 -0.2457,0.2457 -3.341411,0.73708 -6.879365,1.03191 -4.962997,0.44225 -8.058708,0.44225 -13.513098,0 -3.88188,-0.29482 -7.370682,-0.73709 -7.812928,-0.93364 -0.393154,-0.2457 -1.52328,-0.54052 -2.45692,-0.73708 -2.014677,-0.39311 -3.881959,-2.01467 -3.587108,-3.19399 0.147413,-0.54052 -0.2457,-0.98277 -1.17934,-1.37587 l -1.375885,-0.54053 1.326735,-0.0491 c 0.737093,-0.0491 1.425036,0.14741 1.572431,0.34395 0.147449,0.2457 3.488864,0.73707 7.469067,1.08105 5.798331,0.54051 8.795736,0.54051 15.036313,0.0983 4.275051,-0.29482 8.2061,-0.78621 8.697496,-1.0319 0.491397,-0.29482 2.112921,-0.73708 3.537958,-0.98277 4.078505,-0.73707 7.469005,-1.52329 8.550039,-2.01467 0.540548,-0.2457 1.719888,-0.58966 2.604376,-0.73707 1.081038,-0.2457 1.818132,-0.73708 2.162072,-1.5233 0.6879423,-1.47415 0.1473763,-2.06381 -1.081034,-1.27759 -0.540552,0.34395 -1.375885,0.58966 -1.916437,0.58966 -0.540486,0 -1.572369,0.2457 -2.358614,0.58966 -0.737097,0.29483 -2.309528,0.83535 -3.488806,1.13018 -3.243168,0.88449 -3.390562,0.39311 -3.734503,-11.30182 -0.442242,-13.513053 -0.687942,-14.151848 -6.879365,-15.28203 -2.211222,-0.393106 -3.194016,-0.835348 -6.044031,-2.899158 -2.50607,-1.768984 -2.70262,-2.702612 -0.491397,-2.702612 2.555225,0 3.685352,0.491382 3.980203,1.768984 0.196539,0.737068 0.687943,1.179314 1.27758,1.179314 1.228494,0 1.42504,-0.442246 0.884489,-2.309503 -0.589638,-2.260363 -1.867221,-2.800885 -6.093117,-2.407776 -3.537957,0.343952 -3.537957,0.294826 -4.569902,-1.130181 -0.589641,-0.786216 -1.031883,-1.719844 -1.031883,-2.112946 0,-0.343988 -0.294862,-1.081049 -0.687943,-1.621568 -1.326734,-1.965537 -1.375885,-3.636241 -0.196538,-5.552634 0.589637,-0.982765 1.32673,-2.063813 1.621582,-2.358639 0.2457,-0.343988 0.933581,-1.179322 1.424978,-1.867257 1.031945,-1.474155 2.50607,-1.670708 3.144862,-0.442246 0.343987,0.540519 1.179339,0.786208 2.604314,0.835348 l 2.162134,0.04913 0.147412,-2.604336 c 0.147377,-2.407765 0.04916,-2.702591 -1.719825,-4.471575 -2.35868,-2.358643 -3.390563,-2.751749 -4.864692,-1.76898 -0.933639,0.589659 -1.179339,1.179321 -1.179339,2.800889 0,1.621563 -0.343988,2.358639 -1.818132,4.029339 -0.982728,1.081049 -1.965522,2.063817 -2.211219,2.16209 -0.196538,0.09829 -0.393095,-0.933628 -0.393095,-2.260363 0,-1.719844 0.196538,-2.555196 0.737097,-2.751749 0.393092,-0.147412 0.737032,-0.638802 0.737032,-1.081044 0,-0.933629 1.768977,-3.537958 3.194017,-4.717279 1.670671,-1.375871 6.781059,-3.734514 9.336288,-4.324176 1.375885,-0.294826 3.144862,-0.737079 3.931048,-0.933629 1.916372,-0.540519 6.633669,-0.343951 7.862159,0.294826 z m -28.844202,2.948298 c -0.196611,1.081049 -1.081095,0.982772 -1.277641,-0.04913 -0.09825,-0.491386 0.147449,-0.786216 0.638788,-0.786216 0.491397,0 0.737097,0.343952 0.638853,0.835349 z m 12.284543,7.223342 c 1.17934,1.768984 1.277645,3.243128 0.2457,3.587101 -0.638791,0.2457 -3.685352,-4.2259 -3.292257,-4.864695 0.540548,-0.884492 1.965523,-0.294826 3.046557,1.277594 z m -27.812315,7.174194 c 1.130189,2.555196 1.965588,3.095719 2.653469,1.572435 0.245701,-0.540526 0.491397,0.786208 0.687943,3.587094 0.2457,3.587104 0.638853,5.012115 1.867282,7.518171 4.569837,9.139735 10.466473,15.232881 19.999307,20.638101 3.292257,1.81812 8.206099,4.02935 10.810417,4.81556 1.326734,0.44225 1.474187,0.68793 1.621582,2.80088 0.147413,2.40779 -0.04916,2.60434 -1.965523,1.86726 -0.638791,-0.29482 -2.75177,-0.98276 -4.766447,-1.57242 -1.965526,-0.58966 -4.176749,-1.37588 -4.913843,-1.71984 -0.687881,-0.39311 -1.670675,-0.68795 -2.112921,-0.68795 -0.491393,0 -0.884488,-0.19653 -0.884488,-0.44224 0,-0.2457 -0.638792,-0.58966 -1.474125,-0.78621 -0.786249,-0.19654 -1.474191,-0.49138 -1.474191,-0.73707 0,-0.24571 -0.491397,-0.58967 -1.031883,-0.73708 -1.867283,-0.58966 -5.552635,-3.39054 -8.648346,-6.58454 -1.719825,-1.71984 -3.095711,-3.29227 -3.095711,-3.48882 0,-0.2457 -0.294862,-0.73708 -0.638792,-1.08105 -0.687942,-0.68793 -5.159539,-8.156962 -6.142333,-10.220771 -1.62152,-3.488825 -2.850014,-7.763861 -3.390562,-12.088034 -0.196538,-1.818116 0.786248,-5.110388 1.572431,-5.110388 0.147449,0 0.737097,1.081041 1.326734,2.456912 z m 44.961611,6.093157 c 1.031883,0.393113 3.194017,0.835356 4.766448,0.982768 1.621523,0.147413 3.1447999,0.491387 3.4396511,0.78622 0.2457003,0.2457 1.6707366,0.491375 3.1448657,0.491375 2.8008599,0 6.830214,0.835355 7.2724564,1.523294 0.098287,0.245701 -0.1473766,0.982769 -0.58963716,1.670704 -0.88448837,1.375875 -2.70261974,1.621564 -3.63625904,0.491383 -0.3439513,-0.39311 -1.3267344,-0.737076 -2.1620718,-0.737076 -0.8353374,-0.04913 -2.063828,-0.343987 -2.7517706,-0.737075 -0.6879427,-0.393106 -2.0146771,-0.687936 -2.9974096,-0.737076 -0.933639,0 -2.162071,-0.343951 -2.702619,-0.737075 -1.228429,-0.933632 -4.324202,-0.933632 -5.110389,0 -0.737093,0.884492 -2.50607,0.786215 -2.85001,-0.147413 -0.09829,-0.393106 0.343951,-0.589666 1.375885,-0.589666 1.031883,0 1.474125,-0.196539 1.375824,-0.638796 -0.343952,-0.884488 -3.095712,-1.031901 -3.832747,-0.147412 -0.687943,0.835348 -2.702616,1.081041 -3.144862,0.343951 -0.442246,-0.638799 3.095711,-2.358636 4.962993,-2.456916 0.884489,0 2.456858,0.2457 3.439652,0.638795 z m 3.587108,4.471593 c 0.343951,0.393106 1.326734,0.737075 2.162072,0.737075 0.884488,0 2.0146768,0.343952 2.5552247,0.737076 0.4913352,0.393106 1.7689767,0.737072 2.8008598,0.737072 1.7689804,0 4.7664477,1.130185 4.7664477,1.818124 0,0.196538 -0.4913969,0.835348 -1.0810958,1.474147 -1.1301269,1.228458 -3.0465601,1.474151 -3.6853519,0.491382 C -6.5540999,93.48858 -15.05505,89.1644 -16.971422,88.574741 c -1.768977,-0.491382 -1.326734,-1.228458 0.786183,-1.228458 1.081038,0 2.162072,0.294826 2.506074,0.737076 z m -12.530301,79.604131 c 0.04916,2.85001 0.294862,5.35607 0.638788,5.99488 0.343988,0.58965 0.589703,1.52327 0.589703,2.11294 0,2.06381 2.112917,5.70005 4.962931,8.50094 1.572431,1.52328 2.899166,2.94829 2.899166,3.09571 0,0.14741 -0.737032,0.54053 -1.572431,0.88449 -1.228429,0.49138 -4.618992,0.6388 -13.414732,0.54052 -13.07079,-0.14741 -12.530304,-0.0983 -12.530304,-0.63879 0.04916,-1.42502 1.130188,-1.81813 5.74918,-2.06382 4.962993,-0.2457 5.847481,-0.78621 2.948316,-1.76898 -1.768977,-0.58965 -3.636259,-3.09571 -4.913839,-6.58454 -0.884492,-2.40777 -1.130189,-5.8966 -0.393095,-5.8966 0.2457,0 0.687943,-0.58966 0.933643,-1.37586 0.638788,-1.71986 3.04656,-4.32419 4.422446,-4.71729 0.589637,-0.19654 1.081034,-0.58967 1.081034,-0.83536 0,-0.2457 0.343987,-0.44224 0.786248,-0.44224 0.442242,0 1.474125,-0.29483 2.309463,-0.68794 0.884492,-0.39311 2.112982,-0.83535 2.800925,-0.93363 2.702558,-0.49139 2.702558,-0.44225 2.702558,4.81557 z m 64.37128,9.33628 c 1.081038,0.3931 2.653465,0.73707 3.439651,0.73707 1.621586,0.0983 5.208687,1.86725 5.50348,2.80088 0.09829,0.29483 -0.78619,0.98278 -1.965522,1.5233 -2.506078,1.13018 -2.850015,1.52328 -2.506078,2.94829 0.196611,0.63881 0.835403,1.13019 1.867282,1.37588 0.835338,0.14741 1.768981,0.44225 2.014681,0.6388 0.491397,0.29483 2.948316,0.68794 13.267329,2.26037 14.00443,2.06381 17.394993,2.65346 23.340722,4.12761 4.422442,1.08105 8.795802,3.43969 10.171683,5.45436 1.031891,1.47415 1.081038,1.6707 0.29479,3.09572 -0.982729,1.96554 -1.424971,2.3095 -4.078444,3.63624 -2.94832,1.37587 -7.125061,2.60433 -9.090649,2.60433 -0.835337,0 -2.211219,0.19654 -2.997409,0.49138 -2.70262,0.8845 -17.738929,1.37588 -22.800163,0.73708 -8.206165,-1.08104 -11.449274,-2.70261 -8.943197,-4.56986 2.063767,-1.57244 7.911248,-3.48883 11.793211,-3.88195 4.078436,-0.44224 6.977606,-1.76897 6.977606,-3.24312 0,-2.16209 -2.358625,-3.39054 -9.090588,-4.61901 -7.075914,-1.27759 -11.744057,-2.16209 -14.397525,-2.60433 -1.425044,-0.19654 -3.7345,-0.68793 -5.159543,-1.0319 -1.424971,-0.29482 -3.144862,-0.73708 -3.931049,-0.88449 -1.277579,-0.29483 -1.326738,-0.34395 -0.589637,-1.42501 0.442243,-0.58967 1.179275,-1.08105 1.670671,-1.08105 1.523281,0 4.864696,-1.91639 5.208698,-2.99744 0.442242,-1.2776 -1.081103,-2.65347 -3.439717,-3.19399 -0.786179,-0.14741 -1.719822,-0.54053 -2.063828,-0.78622 -0.343951,-0.2457 -3.144804,-0.3931 -6.535363,-0.29482 -5.847485,0.14741 -5.896636,0.14741 -5.896636,-0.93362 0,-1.13019 0.442242,-1.32675 3.685413,-1.81813 2.751709,-0.3931 12.284543,0.19658 14.250131,0.93363 z"
             id="path4942" />
          <path
             style="fill:#000000;stroke:none;stroke-width:0.04913835"
             inkscape:connector-curvature="0"
             d="m -24.980975,62.138312 c -1.621582,0.638799 -1.965523,2.555196 -0.687943,3.78365 0.982732,1.031909 1.474129,0.982769 2.653465,-0.196538 2.112921,-2.11295 0.737097,-4.619006 -1.965522,-3.587097 z"
             id="path4946" />
          <path
             style="fill:#000000;stroke:none;stroke-width:0.04913835"
             inkscape:connector-curvature="0"
             d="m -22.32751,72.162532 c -0.687943,0.737075 -0.786245,1.179321 -0.393092,1.818124 1.474129,2.309499 5.208632,2.653465 5.896575,0.491382 0.2457,-0.835355 0,-1.326738 -1.081038,-2.211226 -1.768977,-1.375875 -3.194013,-1.425015 -4.422445,-0.09829 z"
             id="path4948" />
        </g>
        <g
           id="g6892"
           transform="matrix(0.01185626,0,0,-0.01185626,-24.154007,162.30881)"
           style="fill:#000000;stroke:none">
          <path
             id="path6872"
             d="m 1131,2704 c -28,-20 -25,-36 27,-142 72,-149 212,-263 339,-278 50,-6 52,-6 100,38 72,68 156,123 241,160 73,31 84,33 197,33 100,0 130,-4 179,-22 226,-85 410,-301 476,-558 27,-102 36,-299 21,-422 -36,-291 -182,-556 -391,-710 -217,-159 -432,-230 -665,-220 -183,8 -347,61 -499,162 l -56,37 -63,-11 C 939,754 898,757 798,791 664,836 581,825 506,754 450,700 440,662 440,478 c 0,-138 3,-169 16,-182 20,-21 37,-20 57,2 14,16 17,44 17,178 0,142 2,163 20,192 37,61 127,79 209,42 67,-31 165,-44 248,-33 68,9 73,8 119,-20 149,-88 304,-139 476,-158 246,-26 495,46 739,212 230,158 379,391 445,699 14,65 18,127 18,265 -1,162 -4,190 -28,280 -63,238 -199,431 -389,549 -113,70 -201,99 -323,104 -180,8 -330,-51 -501,-195 -50,-43 -53,-44 -90,-34 -58,16 -130,68 -173,125 -39,52 -100,165 -100,184 0,9 -30,32 -42,32 -2,0 -14,-7 -27,-16 z"
             inkscape:connector-curvature="0" />
          <path
             id="path6874"
             d="m 777,2634 c -28,-28 26,-171 113,-302 139,-211 322,-353 555,-431 72,-24 89,-34 87,-48 -21,-123 -7,-232 38,-311 l 19,-32 -51,-26 c -100,-51 -176,-143 -193,-235 l -6,-34 h -67 c -92,0 -154,-20 -207,-68 l -46,-39 -57,25 c -104,47 -221,60 -334,36 C 423,1127 237,938 201,736 195,703 190,595 190,495 c 0,-164 2,-184 18,-198 23,-21 36,-21 56,-1 13,13 16,46 16,203 0,204 10,267 57,353 41,75 127,154 213,196 73,36 78,37 191,37 h 116 l 84,-42 c 46,-24 91,-43 100,-43 9,0 29,18 43,41 19,29 44,48 83,66 51,23 62,25 143,19 106,-9 120,0 120,72 0,96 74,181 197,227 26,10 54,22 61,28 20,15 14,56 -14,92 -60,79 -81,205 -49,295 30,85 24,92 -105,130 -297,88 -533,301 -647,584 -29,72 -35,81 -60,84 -16,2 -32,0 -36,-4 z"
             inkscape:connector-curvature="0" />
          <path
             style="stroke-width:5.63721418"
             id="path6884"
             d="m 3434.5799,2819.3321 c 124.7375,-81.958 120.8078,-86.0001 -103.6246,-284.5034 -130.0112,-109.4688 -224.3194,-206.4746 -220.2778,-210.4042 8.084,-7.859 218.4839,54.9052 472.4459,138.2161 l 456.2784,153.9342 -161.0024,109.3522 c -160.8898,101.3808 -161.002,109.3521 -22.9072,210.9619 441.9044,325.1512 441.7922,333.1227 -22.4572,179.0763 -245.9907,-83.1986 -468.0669,-166.0601 -491.7562,-182.34 -15.718,-16.1676 24.9259,-71.4057 93.3011,-114.2931 z"
             inkscape:connector-curvature="0" />
          <path
             inkscape:transform-center-y="-13.622112"
             inkscape:transform-center-x="-8.9067657"
             style="fill:#000000;stroke:none;stroke-width:5.63721371"
             id="path6884-2"
             d="m 4349.5852,1375.4687 c 56.2978,-138.2281 50.7698,-139.3306 -246.6457,-175.6303 -169.1589,-16.4796 -301.8407,-42.9316 -300.739,-48.4591 2.2045,-11.0569 211.1116,-78.6239 467.5528,-153.95873 l 463.1447,-131.8454 -70.6446,181.35373 c -75.07,174.7232 -70.6437,181.3532 100.7197,186.7759 548.3623,17.3519 552.7893,23.9828 83.0149,160.2532 -249.8107,70.9093 -479.7297,128.5384 -508.4735,128.5558 -22.1132,-4.4081 -19.9441,-72.9535 12.0707,-147.0451 z"
             inkscape:connector-curvature="0" />
          <path
             style="fill:#000000;stroke:none;stroke-width:5.63721371"
             id="path6884-8"
             d="m 2567.4788,-545.3182 c -16.7977,-148.30466 -22.1783,-146.62434 -300.6375,-36.01648 -156.3815,66.56681 -285.5206,106.90618 -287.2014,101.52643 -3.3615,-10.76174 147.6498,-170.1451 336.6654,-359.11743 l 343.3888,-337.59482 24.8628,193.03279 c 17.8018,189.3325 24.8632,193.03193 177.8832,115.70338 489.663,-247.45187 496.7253,-243.75197 149.6366,100.90297 -185.3152,181.91138 -359.5313,342.63671 -384.7542,356.42121 -21.5226,6.72353 -52.454,-54.48447 -59.8437,-134.85805 z"
             inkscape:connector-curvature="0" />
        </g>
      </g>
      <path
         transform="scale(0.26458333)"
         inkscape:connector-curvature="0"
         id="path6928"
         d="m 320.65661,470.98075 c -16.48579,-1.73015 -28.51324,-5.9746 -29.26992,-10.32928 -0.30393,-1.74914 -1.76154,-4.17822 -3.23912,-5.39795 -2.39387,-1.97613 -2.24728,-2.09879 1.34574,-1.1261 18.33308,4.96313 71.08284,5.13753 89.51613,0.29595 5.32258,-1.398 16.20968,-4.08333 24.19355,-5.96742 14.40766,-3.4 20.16129,-6.42204 20.16129,-10.58956 0,-2.57324 0.1245,-2.55773 -5.80771,-0.72353 -23.48855,7.26255 -23.59149,7.27892 -25.90008,4.12174 -1.18975,-1.62708 -2.19014,-6.26718 -2.2231,-10.31134 -0.14059,-17.25019 -2.9952,-48.01039 -4.8259,-52.00206 -2.0409,-4.45001 -5.57947,-6.38156 -17.04302,-9.303 -8.74458,-2.22852 -21.40106,-11.26863 -18.24673,-13.03305 3.49032,-1.95236 11.05093,0.0891 12.86185,3.47279 2.26447,4.2312 6.35152,3.84288 6.32128,-0.6006 -0.0477,-7.01023 -2.41709,-8.42507 -15.53105,-9.27419 l -12.45502,-0.80645 -4.00537,-8.04863 c -5.24445,-10.53852 -5.05242,-15.5596 0.90987,-23.7903 6.47854,-8.94336 9.25073,-10.6205 13.33687,-8.06866 1.76523,1.1024 5.31212,2.00436 7.88198,2.00436 4.68799,0 6.58256,-2.86044 6.63959,-10.02452 0.028,-3.5172 -8.82661,-13.6886 -13.09612,-15.04369 -4.45094,-1.41267 -9.4625,3.46667 -9.4625,9.21284 0,3.03272 -1.91846,6.67581 -5.60152,10.63712 l -5.60152,6.0247 -0.0436,-5.14974 c -0.0476,-5.61641 4.56444,-14.77888 11.11161,-22.07481 7.26832,-8.09954 32.12169,-17.13054 47.14208,-17.13007 9.90548,3.1e-4 30.12918,6.6048 39.07808,12.76181 8.17205,5.62251 18.70342,17.97751 23.74104,27.85205 3.50106,6.86267 6.95314,7.60442 20.67256,4.44197 11.27434,-2.59884 11.56811,0.42419 0.81987,8.43703 -5.15748,3.84494 -11.97585,9.71781 -15.15192,13.05084 -5.18038,5.43638 -6.02834,5.80638 -8.23948,3.59522 -1.35566,-1.35565 -6.41563,-3.15603 -11.24438,-4.00084 -4.82876,-0.84481 -14.58601,-2.6341 -21.68278,-3.9762 -36.72175,-6.94459 -41.51977,-7.57802 -43.34706,-5.72258 -1.34708,1.36782 -1.08744,2.37913 1.00835,3.92752 3.46194,2.55773 3.63958,5.54973 0.40322,6.79163 -5.42881,2.08323 -4.71457,2.50206 38.22848,22.4172 17.04063,7.90271 17.26172,8.07628 17.33871,13.61213 0.16771,12.05994 16.55152,57.47065 30.92302,85.70873 3.43846,6.7561 6.25173,12.79344 6.25173,13.41627 0,0.62286 -2.2114,-0.44219 -4.91424,-2.36677 -7.91389,-5.63519 -16.21797,-5.94029 -24.79953,-0.91118 l -7.29727,4.2765 -3.26867,-3.26868 c -4.40478,-4.40479 -4.12973,-5.96637 1.57003,-8.91383 4.70475,-2.43292 6.30466,-6.16168 3.41111,-7.95 -0.78518,-0.48526 -7.01548,1.69946 -13.84511,4.85493 -32.60112,15.06265 -59.34801,19.12423 -98.72528,14.9917 z m 80.23306,-159.53403 c 4.3579,-2.33228 3.88813,-7.42995 -0.97856,-10.61873 -3.32666,-2.17971 -4.86585,-2.33562 -8.17465,-0.82803 -5.19665,2.36775 -4.67894,8.18203 0.98266,11.03613 4.89889,2.46961 4.37272,2.44317 8.17055,0.41063 z m -15.26685,-25.37117 c 0.97607,-0.65174 2.6077,-2.76764 3.62583,-4.702 1.47577,-2.80382 1.35184,-4.01636 -0.61115,-5.97934 -5.46987,-5.46988 -13.73058,3.58141 -8.74793,9.58514 2.1715,2.61649 3.17038,2.80748 5.73325,1.0962 z"
         style="opacity:0.9654088;fill:#ffffff;fill-opacity:1;fill-rule:nonzero;stroke:#000000;stroke-width:6.09601259;stroke-miterlimit:4;stroke-dasharray:none;stroke-opacity:0.06422017" />
      <path
         transform="scale(0.26458333)"
         inkscape:connector-curvature="0"
         id="path6930"
         d="m 405.85337,264.90619 c -1.20358,-0.76262 -1.5189,-1.80032 -0.7007,-2.30599 3.94263,-2.43668 20.16432,-7.74616 21.0279,-6.88259 0.53944,0.53944 -1.09805,3.15065 -3.63886,5.80269 -4.69618,4.90175 -11.96766,6.37706 -16.68834,3.38589 z"
         style="opacity:0.9654088;fill:#ffffff;fill-opacity:1;fill-rule:nonzero;stroke:#000000;stroke-width:6.09601259;stroke-miterlimit:4;stroke-dasharray:none;stroke-opacity:0.06422017" />
      <path
         transform="scale(0.26458333)"
         inkscape:connector-curvature="0"
         id="path6944"
         d="m 328.56239,617.68333 c 0.89467,-2.68402 6.56873,-4.20073 16.57608,-4.43088 11.67392,-0.26848 13.63137,-2.13782 6.58934,-6.29272 -7.13673,-4.21077 -11.63651,-11.41933 -13.8829,-22.24014 -1.65742,-7.98375 -1.52265,-8.61941 3.36199,-15.85707 2.79874,-4.14695 7.80162,-9.25254 11.1175,-11.34577 6.74399,-4.25729 22.28838,-9.33209 24.46473,-7.98704 0.77762,0.4806 1.43971,5.73017 1.47131,11.66572 0.0633,11.88685 2.93682,25.93375 6.85531,33.51127 1.39424,2.69616 5.94548,8.6954 10.11385,13.33164 4.16839,4.63624 7.06428,8.94561 6.43532,9.57636 -0.62895,0.63076 -17.48872,1.36743 -37.46615,1.63704 -28.90932,0.39016 -36.18254,0.0701 -35.63638,-1.56841 z"
         style="opacity:0.9654088;fill:#ffffff;fill-opacity:1;fill-rule:nonzero;stroke:#000000;stroke-width:6.09601259;stroke-miterlimit:4;stroke-dasharray:none;stroke-opacity:0.06422017" />
      <path
         transform="scale(0.26458333)"
         inkscape:connector-curvature="0"
         id="path6946"
         d="m 598.36428,675.97163 c -15.62909,-1.97311 -24.19355,-5.15075 -24.19355,-8.97646 0,-3.99598 14.40197,-9.78923 32.67885,-13.1452 15.05478,-2.76434 20.72519,-6.05798 19.12259,-11.1073 -1.74092,-5.48518 -10.71934,-8.27562 -51.2787,-15.93715 -21.51308,-4.06375 -39.42607,-7.7 -39.80662,-8.08056 -1.27794,-1.27794 3.36041,-5.60852 6.01363,-5.61461 1.4438,-0.003 4.98396,-1.44427 7.86702,-3.2021 5.50597,-3.35705 6.78493,-8.01955 3.05009,-11.11919 -4.50431,-3.73824 -18.3962,-6.60604 -32.08234,-6.62297 -14.5299,-0.018 -17.95734,-1.81227 -9.67742,-5.06622 10.62677,-4.17624 59.61297,2.27695 66.03515,8.69912 2.26999,2.27 1.86545,2.91517 -4.24761,6.77417 -3.7161,2.34588 -6.48811,5.13342 -6.16001,6.19454 1.37091,4.43381 13.80822,7.85284 48.10974,13.22543 46.36555,7.26215 45.73349,7.15269 57.14982,9.8971 15.76062,3.78876 26.28705,8.65497 31.45538,14.54135 4.665,5.31316 4.75643,5.70649 2.39016,10.28237 -4.053,7.83764 -19.99091,14.24036 -43.52296,17.48444 -18.51732,2.55276 -49.75369,3.43331 -62.90322,1.77324 z"
         style="opacity:0.9654088;fill:#ffffff;fill-opacity:1;fill-rule:nonzero;stroke:#000000;stroke-width:6.09601259;stroke-miterlimit:4;stroke-dasharray:none;stroke-opacity:0.06422017" />
      <path
         transform="scale(0.26458333)"
         inkscape:connector-curvature="0"
         id="path6950"
         d="m 362.04991,427.9235 c -9.32774,-3.26489 -19.48903,-7.39254 -22.58065,-9.17257 -3.09161,-1.78003 -7.79853,-4.29818 -10.45982,-5.5959 -9.42064,-4.59375 -31.78826,-29.20422 -40.18098,-44.20998 -11.98673,-21.43169 -17.68952,-41.90394 -14.83785,-53.2659 1.41686,-5.64521 3.10131,-5.25274 6.30691,1.46948 1.48059,3.10484 3.75955,5.64516 5.06435,5.64516 1.5065,0 2.70009,2.20755 3.27029,6.04839 2.01874,13.59809 4.56672,21.10031 10.66852,31.41216 8.05785,13.61751 21.66588,28.40743 34.68559,37.6981 9.78819,6.98471 34.51871,20.01618 42.60382,22.44961 2.21774,0.66749 4.56549,2.02305 5.21723,3.01236 1.97057,2.99123 1.40131,10.679 -0.78175,10.55748 -1.10887,-0.0617 -9.64792,-2.78351 -18.97566,-6.04839 z"
         style="opacity:0.9654088;fill:#ffffff;fill-opacity:1;fill-rule:nonzero;stroke:#000000;stroke-width:6.09601259;stroke-miterlimit:4;stroke-dasharray:none;stroke-opacity:0.06422017" />
      <path
         transform="scale(0.26458333)"
         inkscape:connector-curvature="0"
         id="path6952"
         d="m 442.4157,349.30928 c -1.36139,-1.06489 -3.47595,-1.94607 -4.69903,-1.95818 -1.22308,-0.0121 -4.78743,-0.87223 -7.92079,-1.91138 -3.13336,-1.03915 -7.63735,-2.16575 -10.00887,-2.50357 -2.37152,-0.33781 -5.57959,-1.26977 -7.12905,-2.07103 -3.68136,-1.90371 -9.82232,-1.85845 -12.60829,0.0929 -2.34853,1.64498 -7.63397,1.60025 -7.63397,-0.0646 0,-0.54455 1.47487,-1.13171 3.27748,-1.3048 2.44619,-0.23489 3.19751,-0.73714 2.96219,-1.9802 -0.49208,-2.59934 -6.41724,-2.70361 -10.88679,-0.19158 -2.36168,1.32733 -4.54386,1.87886 -5.82505,1.47222 -1.9496,-0.61878 -1.96607,-0.7415 -0.34058,-2.53764 0.93945,-1.03808 4.12656,-2.64978 7.08247,-3.58155 5.2056,-1.64092 5.64397,-1.62671 13.95827,0.45253 4.72114,1.18067 10.58884,2.41784 13.03934,2.74928 2.45049,0.33143 6.46039,1.20054 8.91089,1.93134 2.45049,0.7308 8.0296,1.56944 12.39802,1.86364 9.54951,0.64314 15.67044,2.47179 16.12194,4.8165 0.40693,2.11324 -4.0295,6.7142 -6.44525,6.68429 -0.97773,-0.0121 -2.89154,-0.89329 -4.25293,-1.95819 z"
         style="opacity:0.9654088;fill:#ffffff;fill-opacity:1;fill-rule:nonzero;stroke:#000000;stroke-width:3.74210668;stroke-miterlimit:4;stroke-dasharray:none;stroke-opacity:0.06422017" />
      <path
         transform="scale(0.26458333)"
         inkscape:connector-curvature="0"
         id="path6954"
         d="m 432.51471,361.02564 c -2.71932,-2.28417 -25.79306,-13.93438 -29.71971,-15.00585 -2.02543,-0.55268 -2.19689,-0.8426 -0.97336,-1.64582 2.20064,-1.44466 6.04777,-1.20066 9.40594,0.59655 1.63366,0.8743 5.42079,2.15511 8.41584,2.84625 2.99505,0.69114 6.78218,1.73195 8.41584,2.31292 1.63367,0.58096 5.5185,1.55402 8.63297,2.16235 3.11447,0.60832 6.61686,1.8787 7.78309,2.82305 l 2.12041,1.71701 -3.60961,3.16929 c -4.17755,3.66793 -6.99589,3.9436 -10.47141,1.02425 z"
         style="opacity:0.9654088;fill:#ffffff;fill-opacity:1;fill-rule:nonzero;stroke:#000000;stroke-width:3.74210668;stroke-miterlimit:4;stroke-dasharray:none;stroke-opacity:0.06422017" />
      <path
         transform="scale(0.26458333)"
         inkscape:connector-curvature="0"
         id="path6956"
         d="m 354.13369,303.97705 c -5.58456,-6.13505 -7.32956,-11.10341 -3.89976,-11.10341 2.78789,0 8.02335,6.44503 8.02335,9.87701 0,3.99922 -1.25878,4.3736 -4.12359,1.2264 z"
         style="opacity:0.9654088;fill:#ffffff;fill-opacity:1;fill-rule:nonzero;stroke:#000000;stroke-width:3.74210668;stroke-miterlimit:4;stroke-dasharray:none;stroke-opacity:0.06422017" />
      <path
         inkscape:transform-center-y="8.644802"
         inkscape:transform-center-x="17.02764"
         style="fill:#000000;stroke:none;stroke-width:0.04826336"
         id="path6884-5"
         d="m 90.677526,134.31205 c 1.028925,0.75775 0.993483,0.79051 -1.016084,2.38489 -1.161596,0.8764 -2.012256,1.66258 -1.979504,1.69803 0.06551,0.0709 1.893019,-0.36944 4.10234,-0.96549 l 3.971298,-1.10726 -1.326427,-1.00856 c -1.329115,-0.94035 -1.326427,-1.00856 -0.09932,-1.81406 3.926754,-2.57764 3.929442,-2.64584 -0.11006,-1.54126 -2.141117,0.59874 -4.077633,1.20554 -4.287612,1.33389 -0.141775,0.13103 0.180434,0.62187 0.745365,1.01982 z"
         inkscape:connector-curvature="0" />
      <path
         inkscape:transform-center-y="9.5202505"
         inkscape:transform-center-x="16.554125"
         style="fill:#000000;stroke:none;stroke-width:0.04826336"
         id="path6884-5-5"
         d="m 92.435683,153.88095 c 1.066885,0.7033 1.033192,0.73786 -0.890872,2.43444 -1.11452,0.93553 -1.923208,1.76483 -1.888659,1.79853 0.0691,0.0674 1.871281,-0.46724 4.04667,-1.17721 l 3.908443,-1.31199 -1.377009,-0.93832 c -1.376152,-0.87006 -1.37701,-0.93832 -0.193385,-1.80645 3.787607,-2.77807 3.78675,-2.84632 -0.189945,-1.53347 -2.107138,0.70911 -4.009532,1.41565 -4.212563,1.55473 -0.134779,0.13822 0.212483,0.61167 0.797316,0.97974 z"
         inkscape:connector-curvature="0" />
      <path
         inkscape:transform-center-y="-14.669134"
         inkscape:transform-center-x="12.226839"
         style="fill:#000000;stroke:none;stroke-width:0.04826336"
         id="path6884-5-3"
         d="m 109.71255,107.03628 c -0.50977,1.17176 -0.54959,1.1445 -2.5512,-0.45986 -1.11293,-0.93744 -2.0687,-1.59181 -2.09598,-1.55199 -0.0545,0.0796 0.78146,1.76333 1.85422,3.7846 l 1.96328,3.6253 0.68808,-1.5176 c 0.62099,-1.50506 0.68809,-1.51762 1.74647,-0.50052 3.38687,3.25465 3.45396,3.2421 1.47812,-0.45029 -1.06021,-1.95418 -2.08275,-3.7071 -2.25461,-3.88325 -0.1593,-0.10906 -0.56612,0.3143 -0.82837,0.95363 z"
         inkscape:connector-curvature="0" />
      <path
         transform="scale(0.26458333)"
         inkscape:connector-curvature="0"
         id="path7006"
         d="m 379.23326,639.35584 c -2.25977,-1.35121 -2.19924,-4.03785 0.15849,-7.03522 1.27064,-1.61536 4.76296,-3.31532 10.64356,-5.18097 4.81382,-1.52721 9.86626,-3.26372 11.22765,-3.85892 1.36139,-0.5952 8.56486,-1.33127 16.00773,-1.63572 7.44286,-0.30445 13.86766,-0.88924 14.27733,-1.29953 0.40968,-0.4103 -3.22944,-4.67115 -8.08693,-9.46857 -11.25781,-11.11861 -13.78229,-15.86708 -13.78229,-25.92406 0,-9.5273 2.56121,-14.83212 11.44663,-23.7085 5.21552,-5.21022 7.89549,-7.02627 13.59473,-9.21229 3.90424,-1.49753 8.10969,-2.74287 9.34546,-2.76743 1.23576,-0.0246 3.52812,-0.59183 5.09411,-1.2606 2.60776,-1.11365 2.70682,-1.3325 1.17761,-2.60163 -2.63981,-2.19085 -11.52627,-2.49658 -17.25543,-0.59366 -10.68836,3.5501 -23.31374,14.9929 -28.45275,25.78767 -1.91381,4.02006 -2.35449,6.53224 -2.34468,13.36634 0.0146,10.18859 1.24336,13.21928 9.83486,24.25742 4.7316,6.07903 5.78679,7.99734 4.53805,8.24998 -2.11913,0.42872 -7.08926,-3.42034 -15.88441,-12.30154 -6.02759,-6.08655 -7.50538,-8.28138 -9.71881,-14.4345 -4.1318,-11.48597 -4.86674,-16.21057 -4.90216,-31.51394 -0.0344,-14.84419 1.03476,-26.31259 4.19963,-45.0495 1.0118,-5.9901 2.15413,-17.37446 2.53851,-25.29858 l 0.69888,-14.40749 4.08449,-1.07889 c 2.24647,-0.59339 5.86667,-1.7765 8.04489,-2.62914 3.78841,-1.48293 4.02489,-1.46133 5.44554,0.49738 4.92447,6.78953 10.77699,12.04553 16.40176,14.72998 5.00239,2.38742 6.08691,3.31482 5.68293,4.85964 -0.27459,1.05003 0.025,3.49775 0.66582,5.43937 1.11074,3.36556 1.01899,3.65314 -1.96706,6.16574 -1.72268,1.44954 -3.5283,3.6775 -4.0125,4.95103 -0.63378,1.66697 -1.65745,2.31551 -3.65485,2.31551 -1.52598,0 -3.73114,0.67006 -4.90037,1.48902 -1.61132,1.12861 -2.75865,1.24844 -4.74021,0.49505 -6.11304,-2.32417 -15.27246,-0.16035 -19.44523,4.59375 -3.79842,4.32759 -4.91052,8.17689 -4.61595,15.97725 0.16023,4.24282 0.7291,7.64295 1.27873,7.64295 0.54455,0 1.22856,-3.66408 1.52002,-8.14241 0.39306,-6.03964 1.04809,-8.83646 2.53642,-10.82991 4.96773,-6.65373 11.6642,-8.73676 18.36819,-5.71368 3.94453,1.77873 4.07251,1.77712 5.42176,-0.0681 0.87334,-1.19438 3.06243,-2.08833 5.94869,-2.42925 4.17085,-0.49266 4.6636,-0.8399 5.6829,-4.00478 0.77411,-2.40355 2.11287,-3.92041 4.36927,-4.9505 2.78035,-1.26929 3.15704,-1.84491 2.59168,-3.96039 -0.36382,-1.36139 -0.77467,-4.92271 -0.91299,-7.91406 l -0.25149,-5.4388 -4.91293,-1.98694 c -6.76225,-2.73486 -12.49345,-6.89707 -15.52951,-11.27811 -1.40513,-2.0276 -2.55478,-3.98532 -2.55478,-4.35048 0,-0.36516 1.32832,-1.35083 2.95183,-2.19038 2.94425,-1.52254 2.96411,-1.51371 7.73877,3.43992 2.8966,3.00516 5.64681,4.96637 6.96439,4.96637 1.1976,0 4.60573,-1.61229 7.57363,-3.58286 5.07937,-3.37251 5.77387,-3.55882 11.82914,-3.17325 7.60137,0.48402 12.06185,3.44713 16.90263,11.22847 2.81232,4.52067 2.9703,5.33175 2.9703,15.25013 0,9.23407 -0.3074,11.13103 -2.59388,16.0067 -3.1645,6.74797 -8.16014,11.90201 -15.01347,15.48953 -4.49976,2.35549 -6.31251,2.70613 -14.07582,2.72268 -7.63489,0.0163 -9.69066,-0.35691 -14.35643,-2.60615 -3.92975,-1.89442 -7.79093,-2.80935 -13.87141,-3.28692 -8.06563,-0.63348 -8.52285,-0.55854 -10.69418,1.75274 -1.95975,2.08605 -2.22776,3.27397 -1.97018,8.73246 0.38107,8.07527 2.12757,8.18772 2.77339,0.17857 0.65104,-8.0739 1.52977,-8.88966 7.9736,-7.40225 2.77682,0.64097 6.36915,1.1654 7.98296,1.1654 1.61382,0 4.58725,0.83952 6.60764,1.8656 10.00996,5.0837 21.23543,4.7241 32.02344,-1.02585 12.66095,-6.74821 18.9145,-17.60911 19.07905,-33.13567 0.0905,-8.53538 -0.10212,-9.41419 -3.5254,-16.0874 -1.9916,-3.88235 -3.27647,-7.2718 -2.85526,-7.53212 1.98241,-1.2252 22.35947,40.87623 28.3285,58.53007 3.83525,11.34304 5.93633,29.50751 5.18543,44.8297 -0.37478,7.64733 -0.83313,9.29482 -4.5873,16.48851 -4.8365,9.26765 -7.85179,12.43316 -19.70761,20.6895 -10.82298,7.53708 -11.8716,9.71027 -7.38151,15.2976 1.73453,2.15838 3.15369,4.10569 3.15369,4.32734 0,0.22166 -10.58168,0.67149 -23.51485,0.99965 -31.63429,0.80265 -46.88538,2.63854 -67.07921,8.07485 -1.08911,0.2932 -2.7599,0.0668 -3.71287,-0.50295 z m 92.22804,-61.08616 c 0.12584,-4.10294 1.1073,-4.0806 10.1017,0.22984 3.95673,1.89622 7.4233,3.21844 7.70347,2.93828 0.76668,-0.76669 -19.00793,-20.30743 -20.16778,-19.92926 -0.55223,0.18006 -1.41678,1.96433 -1.92124,3.96505 -0.50446,2.00072 -1.25376,3.63767 -1.66513,3.63767 -0.41136,0 -4.34269,-1.32542 -8.73627,-2.94539 -4.39359,-1.61996 -7.98834,-2.62972 -7.98834,-2.24389 0,0.38583 4.78961,5.50779 10.64357,11.38215 11.51472,11.55484 11.76469,11.61646 12.03002,2.96555 z"
         style="opacity:0.9654088;fill:#ffffff;fill-opacity:1;fill-rule:nonzero;stroke:#000000;stroke-width:3.74210668;stroke-miterlimit:4;stroke-dasharray:none;stroke-opacity:0.06422017" />
    </g>
  </g>
</svg>
