<?xml version="1.0" encoding="UTF-8" standalone="no"?>
<!-- Created with Inkscape (http://www.inkscape.org/) -->

<svg
   xmlns:dc="http://purl.org/dc/elements/1.1/"
   xmlns:cc="http://creativecommons.org/ns#"
   xmlns:rdf="http://www.w3.org/1999/02/22-rdf-syntax-ns#"
   xmlns:svg="http://www.w3.org/2000/svg"
   xmlns="http://www.w3.org/2000/svg"
   xmlns:sodipodi="http://sodipodi.sourceforge.net/DTD/sodipodi-0.dtd"
   xmlns:inkscape="http://www.inkscape.org/namespaces/inkscape"
   width="210mm"
   height="297mm"
   viewBox="0 0 210 297"
   version="1.1"
   id="svg6670"
   sodipodi:docname="icone chronovet prix web vieux violet.svg"
   inkscape:version="0.92.5 (2060ec1f9f, 2020-04-08)">
  <defs
     id="defs6664" />
  <sodipodi:namedview
     id="base"
     pagecolor="#ffffff"
     bordercolor="#666666"
     borderopacity="1.0"
     inkscape:pageopacity="0.0"
     inkscape:pageshadow="2"
     inkscape:zoom="0.35"
     inkscape:cx="926.99976"
     inkscape:cy="509.64918"
     inkscape:document-units="mm"
     inkscape:current-layer="layer1"
     showgrid="false"
     inkscape:window-width="1920"
     inkscape:window-height="1009"
     inkscape:window-x="-8"
     inkscape:window-y="-8"
     inkscape:window-maximized="1" />
  <metadata
     id="metadata6667">
    <rdf:RDF>
      <cc:Work
         rdf:about="">
        <dc:format>image/svg+xml</dc:format>
        <dc:type
           rdf:resource="http://purl.org/dc/dcmitype/StillImage" />
        <dc:title></dc:title>
      </cc:Work>
    </rdf:RDF>
  </metadata>
  <g
     inkscape:label="Calque 1"
     inkscape:groupmode="layer"
     id="layer1">
    <g
       id="g6803">
      <path
         style="fill:#800080;fill-opacity:0.81960784;stroke:none;stroke-width:0.03758258;stroke-opacity:1"
         inkscape:connector-curvature="0"
         d="m 13.109038,6.7730181 c -2.3677,0.67649 -4.2468304,2.33012 -5.7501304,4.9984899 -0.82682,1.5033 -0.82682,1.61605 -0.82682,18.60337 v 17.10007 l 0.93956,1.84155 c 1.05231,2.02946 2.48045,3.42002 4.6978304,4.39716 1.39055,0.63891 2.85627,0.71407 18.18996,0.71407 12.02643,0 17.10008,-0.11275 18.22756,-0.45099 2.06704,-0.60132 5.18639,-3.72067 5.78771,-5.78772 0.33825,-1.12747 0.45099,-6.16354 0.45099,-18.03963 0,-15.78469 -0.0376,-16.57392 -0.78923,-18.18997 -0.93957,-2.0670499 -2.33012,-3.5703499 -4.28442,-4.6226599 -1.46572,-0.82682 -1.87912,-0.82682 -18.41546,-0.90198 -10.52312,-0.0376 -17.40073,0.0752 -18.22755,0.33824 z"
         id="path3334" />
      <g
         transform="matrix(0.86213828,0,0,0.97104451,-395.77557,78.941868)"
         id="g3409">
        <g
           id="g3390"
           transform="matrix(0.01195851,0,0,-0.01311853,456.26181,-10.775076)"
           style="fill:#ffffff;stroke:none">
          <path
             style="fill:#ffffff"
             id="path3346"
             d="M 1500,3000 V 1880 h 50 50 v 1120 1120 h -50 -50 z"
             inkscape:connector-curvature="0" />
          <path
             style="fill:#ffffff"
             id="path3348"
             d="m 1700,3000 c 0,-982 4,-1120 30,-1120 26,0 30,138 30,1120 0,982 -4,1120 -30,1120 -26,0 -30,-138 -30,-1120 z"
             inkscape:connector-curvature="0" />
          <path
             style="fill:#ffffff"
             id="path3350"
             d="m 1800,3000 c 0,-733 7,-1120 20,-1120 13,0 20,387 20,1120 0,733 -7,1120 -20,1120 -13,0 -20,-387 -20,-1120 z"
             inkscape:connector-curvature="0" />
          <path
             style="fill:#ffffff"
             id="path3352"
             d="m 1940,3000 c 0,-733 7,-1120 20,-1120 13,0 20,387 20,1120 0,733 -7,1120 -20,1120 -13,0 -20,-387 -20,-1120 z"
             inkscape:connector-curvature="0" />
          <path
             style="fill:#ffffff"
             id="path3354"
             d="m 2040,3000 c 0,-733 7,-1120 20,-1120 13,0 20,387 20,1120 0,733 -7,1120 -20,1120 -13,0 -20,-387 -20,-1120 z"
             inkscape:connector-curvature="0" />
          <path
             style="fill:#ffffff"
             id="path3356"
             d="M 2180,3000 V 1880 h 49 50 v 1120 1120 h -49 -50 z"
             inkscape:connector-curvature="0" />
          <path
             style="fill:#ffffff"
             id="path3358"
             d="m 2309,3000 c 0,-621 3,-876 6,-565 3,311 3,819 0,1130 -3,311 -6,57 -6,-565 z"
             inkscape:connector-curvature="0" />
          <path
             style="fill:#ffffff"
             id="path3360"
             d="m 2361,3000 c 1,-955 5,-1120 29,-1120 24,0 29,165 29,1120 0,969 -4,1120 -29,1120 -25,0 -29,-151 -29,-1120 z"
             inkscape:connector-curvature="0" />
          <path
             style="fill:#ffffff"
             id="path3362"
             d="M 2440,3000 V 1880 h 100 100 v 1120 1120 h -100 -100 z"
             inkscape:connector-curvature="0" />
          <path
             style="fill:#ffffff"
             id="path3364"
             d="m 2700,3000 c 0,-982 4,-1120 30,-1120 26,0 30,138 30,1120 0,982 -4,1120 -30,1120 -26,0 -30,-138 -30,-1120 z"
             inkscape:connector-curvature="0" />
          <path
             style="fill:#ffffff"
             id="path3366"
             d="m 2849,3000 c 0,-621 3,-876 6,-565 3,311 3,819 0,1130 -3,311 -6,57 -6,-565 z"
             inkscape:connector-curvature="0" />
          <path
             style="fill:#ffffff"
             id="path3368"
             d="M 2880,3000 V 1880 h 90 90 v 1120 1120 h -90 -90 z"
             inkscape:connector-curvature="0" />
          <path
             style="fill:#ffffff"
             id="path3370"
             d="M 3160,3000 V 1880 h 50 50 v 1120 1120 h -50 -50 z"
             inkscape:connector-curvature="0" />
          <path
             style="fill:#ffffff"
             id="path3372"
             d="m 3300,3000 c 0,-733 7,-1120 20,-1120 13,0 20,387 20,1120 0,733 -7,1120 -20,1120 -13,0 -20,-387 -20,-1120 z"
             inkscape:connector-curvature="0" />
          <path
             style="fill:#ffffff"
             id="path3374"
             d="M 3582,3000 V 1880 h 49 49 v 1120 1120 h -49 -50 z"
             inkscape:connector-curvature="0" />
          <path
             style="fill:#ffffff"
             id="path3376"
             d="m 3700,3000 c 0,-733 7,-1120 20,-1120 13,0 20,387 20,1120 0,733 -7,1120 -20,1120 -13,0 -20,-387 -20,-1120 z"
             inkscape:connector-curvature="0" />
          <path
             style="fill:#ffffff"
             id="path3378"
             d="m 3789,3000 c 0,-621 3,-876 6,-565 3,311 3,819 0,1130 -3,311 -6,57 -6,-565 z"
             inkscape:connector-curvature="0" />
          <path
             style="fill:#ffffff"
             id="path3380"
             d="m 3940,3000 c 0,-733 7,-1120 20,-1120 13,0 20,387 20,1120 0,733 -7,1120 -20,1120 -13,0 -20,-387 -20,-1120 z"
             inkscape:connector-curvature="0" />
          <path
             style="fill:#ffffff"
             id="path3382"
             d="M 4060,3000 V 1880 h 50 50 v 1120 1120 h -50 -50 z"
             inkscape:connector-curvature="0" />
          <path
             style="fill:#ffffff"
             id="path3384"
             d="m 4209,3000 c 0,-621 3,-876 6,-565 3,311 3,819 0,1130 -3,311 -6,57 -6,-565 z"
             inkscape:connector-curvature="0" />
          <path
             style="fill:#ffffff"
             id="path3386"
             d="m 4260,3000 c 0,-733 7,-1120 20,-1120 13,0 20,387 20,1120 0,733 -7,1120 -20,1120 -13,0 -20,-387 -20,-1120 z"
             inkscape:connector-curvature="0" />
          <path
             style="fill:#ffffff"
             id="path3388"
             d="M 4380,3000 V 1880 h 60 60 v 1120 1120 h -60 -60 z"
             inkscape:connector-curvature="0" />
        </g>
      </g>
      <path
         inkscape:transform-center-y="-13.244999"
         inkscape:transform-center-x="-32.282"
         inkscape:connector-curvature="0"
         id="path7152"
         d="m 18.931988,36.721628 c -2.05584,-0.63026 -2.44683,-1.95059 -2.05738,-6.94851 0.36798,-4.72146 0.96718,-6.14031 2.95966,-7.01078 1.38694,-0.60579 2.13384,-0.6255 16.05318,-0.42327 14.39513,0.20911 14.61687,0.22238 15.91245,0.95222 1.70694,0.96162 2.08665,2.45275 1.74404,6.84993 -0.3343,4.29069 -0.96294,5.86386 -2.71076,6.7873 -1.31808,0.69617 -1.48492,0.70126 -15.85577,0.4816 -11.25881,-0.17208 -14.86571,-0.32684 -16.04542,-0.68849 z"
         style="opacity:1;fill:#ffffff;fill-opacity:1;fill-rule:nonzero;stroke:none;stroke-width:0.47964332;stroke-miterlimit:4;stroke-dasharray:none;stroke-opacity:1" />
      <path
         id="text7156"
         d="m 51.675588,27.108978 c -0.032,-0.007 -0.0675,-0.0105 -0.12195,-0.014 -0.15901,-0.007 -0.25112,0.0142 -0.43525,0.0989 -0.38484,0.16934 -0.81146,0.68426 -1.11265,1.34038 l -0.0581,0.12727 -0.008,-0.46557 c -0.0167,-0.50796 -0.025,-0.63489 -0.10026,-0.76187 -0.0587,-0.10587 -0.14232,-0.17657 -0.25936,-0.22593 -0.0914,-0.0351 -0.10862,-0.0422 -0.23439,-0.0423 -0.12525,6e-5 -0.14224,0.007 -0.23428,0.0423 -0.15062,0.0635 -0.24247,0.16236 -0.35968,0.35282 -0.20016,0.35999 -0.4352,1.07231 -0.55227,1.69318 -0.184,0.98067 -0.25931,2.27178 -0.17562,2.95612 0.0507,0.35287 0.12541,0.60679 0.26772,0.89606 0.1924,0.39507 0.40991,0.57835 0.77807,0.66301 0.092,0.0212 0.15902,0.0282 0.23435,0.0211 0.25928,-0.007 0.73619,-0.1762 1.08767,-0.38078 0.28447,-0.16227 0.62748,-0.38817 0.79484,-0.53632 0.41826,-0.35278 0.73625,-0.84658 0.85347,-1.29808 0.0417,-0.17642 0.0501,-0.47281 0.008,-0.59974 -0.10882,-0.3316 -0.37675,-0.50085 -0.82857,-0.52907 -0.067,-0.007 -0.12594,-0.0142 -0.12594,-0.0142 0,0 0.051,-0.0562 0.1092,-0.12686 0.25104,-0.28924 0.48539,-0.62096 0.66951,-0.95959 0.26766,-0.50093 0.37627,-0.84664 0.37584,-1.24184 -2.6e-4,-0.4869 -0.16739,-0.82535 -0.46849,-0.95936 -0.0416,-0.0176 -0.0715,-0.0285 -0.1035,-0.0354 z m -0.20711,0.3149 c 0.0136,0.005 0.0279,0.013 0.0429,0.0238 0.12543,0.0917 0.159,0.28931 0.0836,0.51505 -0.0586,0.14108 -0.1504,0.33156 -0.30109,0.58552 -0.15944,0.26092 -0.26769,0.40216 -0.56055,0.72669 -0.13433,0.14803 -0.34314,0.38797 -0.47697,0.53614 -0.12522,0.15528 -0.24246,0.28933 -0.25084,0.29638 -0.0251,0.0212 -0.0424,-0.0777 -0.0422,-0.35989 -2.6e-4,-0.23996 -2.6e-4,-0.23998 0.0588,-0.39502 0.27575,-0.79733 0.63587,-1.404 1.01237,-1.72855 0.11737,-0.0987 0.17562,-0.13394 0.25094,-0.16921 0.0936,-0.0372 0.14147,-0.0462 0.1835,-0.0308 z m -4.42835,-0.16679 c -0.52724,-0.15524 -1.21345,-0.0636 -1.6568,0.21868 -0.36813,0.24694 -0.66929,0.71263 -0.82834,1.30524 -0.17543,0.62797 -0.30943,1.79195 -0.28429,2.39164 0.0333,0.62082 0.15062,1.2418 0.32624,1.67918 0.0586,0.16934 0.18406,0.38811 0.27609,0.50804 0.16733,0.21871 0.43512,0.38798 0.71117,0.44441 0.0506,0.0143 0.1339,0.0211 0.22592,0.014 0.25093,-0.007 0.40995,-0.0777 0.78657,-0.32457 0.3346,-0.21872 0.47681,-0.32449 0.61914,-0.45145 0.14158,-0.12717 0.18391,-0.1906 0.18433,-0.27515 -0.002,-0.0499 -0.008,-0.0634 -0.0587,-0.10581 -0.0507,-0.0425 -0.0666,-0.0493 -0.12552,-0.0494 -0.0916,1.4e-4 -0.10806,0.007 -0.2508,0.11285 -0.18413,0.13403 -0.66115,0.39507 -0.71973,0.39507 -0.0336,-1.2e-4 -0.0923,-0.16943 -0.13379,-0.42333 -0.11712,-0.67728 -0.17584,-1.45324 -0.18427,-2.41274 -0.008,-0.59967 -0.025,-0.53622 0.15049,-0.55038 0.0583,-0.007 0.15902,-0.0211 0.23438,-0.0353 0.0747,-0.0143 0.20083,-0.0283 0.27617,-0.0424 0.26778,-0.0353 0.34293,-0.0847 0.34296,-0.19753 -1.7e-4,-0.0565 -0.007,-0.0703 -0.0422,-0.11286 -0.0337,-0.0283 -0.0749,-0.0424 -0.10926,-0.0567 -0.059,-0.007 -0.48541,0.007 -0.74487,0.0213 l -0.10808,0.007 0.004,-0.072 c 0.01,-0.0419 0.0249,-0.23275 0.0332,-0.42324 0.0167,-0.19757 0.0335,-0.40209 0.0585,-0.47974 0.0281,-0.1778 0.11657,-0.38831 0.19207,-0.51525 0.0582,-0.0989 0.0665,-0.10591 0.16771,-0.14098 0.25106,-0.0847 0.56047,-0.0706 0.92022,0.0494 0.20082,0.0706 0.31805,0.0565 0.35984,-0.0282 0.0496,-0.0848 -0.0337,-0.1836 -0.2509,-0.30343 -0.1171,-0.0635 -0.19237,-0.0917 -0.37657,-0.14816 z m -3.66161,0.31051 c -0.24263,-0.0634 -0.41847,0.014 -0.46864,0.20452 -0.0119,0.0507 -0.0169,0.14107 2e-5,0.40216 0.0334,0.7972 0.0418,1.24866 0.0333,1.65783 -0.0166,0.75492 -0.0419,1.01605 -0.22584,1.99673 -0.0116,0.1072 -0.0337,0.21857 -0.042,0.25387 -0.0759,0.5078 -0.15923,0.8749 -0.2329,1.05172 -0.0349,0.0913 -0.10884,0.21147 -0.1344,0.21135 -0.0161,1.2e-4 -0.0997,-0.0915 -0.14217,-0.16224 -0.0509,-0.099 -0.15066,-0.32439 -0.20934,-0.50785 -0.12548,-0.36686 -0.28441,-1.13584 -0.33459,-1.53091 -0.002,-0.0498 -0.007,-0.12705 -0.0169,-0.16955 -0.0503,-0.26812 -0.0836,-0.93832 -0.0584,-1.22758 0.0164,-0.19058 0.017,-0.20445 -0.007,-0.25374 -0.0417,-0.0635 -0.12566,-0.0988 -0.19257,-0.0776 -0.10895,0.0282 -0.12506,0.0567 -0.15829,0.38831 -0.0925,0.70537 -0.21826,1.30492 -0.40985,1.93305 -0.0913,0.30356 -0.24212,0.70573 -0.3346,0.88199 -0.10887,0.21163 -0.2929,0.49372 -0.37657,0.55016 -0.042,0.0352 -0.0417,0.0283 -0.0836,-0.22569 -0.0586,-0.44449 -0.0923,-0.81144 -0.10892,-1.10773 -0.008,-0.0917 -0.017,-0.26098 -0.0249,-0.38787 -0.0247,-0.42321 -0.0585,-0.98067 -0.067,-1.28404 2.6e-4,-0.16218 -0.0168,-0.45151 -0.025,-0.64198 -0.0173,-0.19064 -0.0334,-0.52928 -0.0334,-0.7621 -0.0168,-0.59969 -0.0502,-0.88186 -0.14217,-1.03706 -0.0505,-0.0777 -0.15912,-0.16925 -0.24274,-0.19746 -0.1167,-0.0422 -0.29281,-0.0424 -0.38484,-0.007 -0.16723,0.0706 -0.25108,0.16234 -0.39333,0.4516 -0.26773,0.51502 -0.48521,1.25582 -0.56933,1.94709 -0.18397,1.48866 -0.0501,2.5256 0.43529,3.33696 0.26775,0.45858 0.62746,0.73385 1.0626,0.83264 0.39321,0.0846 0.76134,-0.0565 1.01235,-0.38812 0.25099,-0.32454 0.46842,-0.90304 0.6692,-1.74965 0.0337,-0.14809 0.0646,-0.27578 0.0698,-0.2978 0.004,-0.0154 0.0169,0.0141 0.0162,0.0916 0.008,0.0634 0.0333,0.22575 0.0586,0.35279 0.19237,1.04412 0.54381,1.62255 0.98729,1.62255 0.20078,-10e-6 0.41833,-0.16232 0.58572,-0.44452 0.13401,-0.23277 0.31787,-0.64904 0.4183,-0.9524 0.10869,-0.33161 0.24283,-0.90991 0.32629,-1.39676 0.18411,-1.10764 0.20932,-1.80608 0.10054,-2.65974 -0.0671,-0.49388 -0.14233,-0.64211 -0.3598,-0.69853 z m 8.01503,3.28331 c 0.063,0.0187 0.0968,0.0467 0.1342,0.11008 0.1172,0.19756 0.0838,0.49391 -0.10906,0.86773 -0.20901,0.40924 -0.51883,0.76192 -0.93714,1.07236 -0.11682,0.0848 -0.25099,0.1763 -0.29276,0.20454 -0.1007,0.0564 -0.10912,0.0635 -0.10085,0.0282 0.0147,-0.005 0.0249,-0.10586 0.0332,-0.20466 0.008,-0.14099 0.008,-0.26789 5.3e-4,-0.54301 -0.0254,-0.34577 -0.0584,-0.86088 -0.0752,-1.0302 l -0.008,-0.0847 0.0836,-0.0352 c 0.0414,-0.0213 0.13401,-0.0777 0.20095,-0.12704 0.28447,-0.19049 0.73628,-0.31745 0.99557,-0.27515 0.0297,0.005 0.054,0.0107 0.0755,0.0172 z m -17.98375,-3.20472 c -0.0575,-0.0132 -0.11936,-0.008 -0.17025,0.0202 -0.0839,0.0423 -0.10942,0.0705 -0.26781,0.34585 -0.14205,0.23287 -0.25106,0.42313 -0.66105,1.17802 -0.0922,0.16928 -0.17513,0.31063 -0.18352,0.31767 -0.002,0.007 -0.0589,-0.0705 -0.11713,-0.16217 -0.20092,-0.31045 -0.74456,-1.13593 -0.8785,-1.32643 -0.0668,-0.10579 -0.16741,-0.25396 -0.21761,-0.33862 -0.15068,-0.23284 -0.26778,-0.32452 -0.46849,-0.36683 -0.24265,-0.0564 -0.50219,0.0494 -0.61093,0.23991 -0.0508,0.0845 -0.05,0.0987 -0.0503,0.21862 3.2e-4,0.14824 0.0246,0.23975 0.21745,0.67726 0.0582,0.14806 0.15913,0.36695 0.20095,0.47983 0.21753,0.55734 0.57721,1.31907 0.96206,2.04573 0.0582,0.11983 0.10896,0.22587 0.10892,0.23292 -0.003,0.0132 -0.0503,0.13415 -0.10862,0.26825 -0.21716,0.4728 -0.5354,1.22058 -0.62737,1.47459 -0.0502,0.13403 -0.10882,0.30333 -0.13411,0.35973 -0.0833,0.21174 -0.0586,0.38803 0.0667,0.45147 0.10901,0.0635 0.23447,0.0494 0.33482,-0.0283 0.10036,-0.0776 0.20919,-0.28932 0.65257,-1.22061 l 0.25086,-0.53613 0.21745,0.34563 c 0.45182,0.71961 0.70302,1.06544 0.99587,1.33353 0.0841,0.0777 0.23425,0.14805 0.35979,0.16922 0.27605,0.0564 0.59405,-0.0777 0.72789,-0.30342 0.0916,-0.15532 0.0997,-0.31046 0.0252,-0.55012 -0.0497,-0.19033 -0.075,-0.22573 -0.4351,-0.87486 -0.18415,-0.32455 -0.39322,-0.69152 -0.45183,-0.81852 -0.15903,-0.28221 -0.30957,-0.57142 -0.47693,-0.86069 -0.075,-0.13396 -0.14228,-0.24688 -0.14237,-0.25396 0.002,-0.007 0.0671,-0.14807 0.1514,-0.32427 0.084,-0.16921 0.26772,-0.56444 0.40998,-0.88191 0.13368,-0.31753 0.30122,-0.68436 0.35983,-0.8184 0.11644,-0.26123 0.133,-0.33191 0.0946,-0.40377 -0.0296,-0.0459 -0.0815,-0.0774 -0.13914,-0.0907 z m -5.0088,-0.46854 c -0.22116,-0.0487 -0.44072,0.0532 -0.5579,0.2631 -0.10061,0.17633 -0.23431,0.62085 -0.28484,0.9453 -0.007,0.0266 -0.0163,0.12708 -0.0337,0.21862 -0.0672,0.43031 -0.19254,1.64371 -0.21759,2.05291 -0.008,0.31747 -8e-5,1.27003 0.0166,1.55223 0.0502,0.6914 0.0755,0.83257 0.15914,1.05833 0.10879,0.26104 0.30954,0.43023 0.57731,0.47257 0.12566,0.0212 0.1673,0.0211 0.28444,-8e-5 0.25937,-0.0494 0.45181,-0.18328 0.58568,-0.4161 0.0421,-0.0705 0.0837,-0.16221 0.10074,-0.21153 0.0417,-0.0918 0.0628,-0.3257 0.0753,-0.58565 2.5e-4,-0.0987 0.008,-0.20454 0.009,-0.23975 0.0197,-0.0839 0.0423,-0.72645 0.0501,-1.12167 0.008,-0.16924 0.008,-0.68432 0.008,-1.14291 -0.008,-0.93129 -0.0252,-1.33334 -0.10055,-1.73549 -0.0499,-0.24684 -0.067,-0.31752 -0.14238,-0.52919 -0.11707,-0.30334 -0.25094,-0.4797 -0.43494,-0.55023 -0.0319,-0.0134 -0.0631,-0.0235 -0.0952,-0.0305 z m -2.44798,-0.0474 c -0.12544,-0.0422 -0.33458,-0.0423 -0.47675,7e-5 -0.22594,0.0705 -0.47705,0.26112 -0.67786,0.52215 -0.10849,0.14118 -0.2928,0.4444 -0.40984,0.67725 l -0.0584,0.13425 -0.0249,-0.16928 c -0.0418,-0.24692 -0.11698,-0.57847 -0.1588,-0.69136 -0.10039,-0.24692 -0.26778,-0.39522 -0.51885,-0.43756 -0.25095,-0.0423 -0.51875,0.0988 -0.661,0.3387 -0.10893,0.18339 -0.20891,0.50091 -0.30944,0.92418 -0.0874,0.37294 -0.1173,0.59257 -0.19176,1.2207 -0.0672,0.649 -0.0586,1.66511 0.0167,2.44115 0.0753,0.65613 0.1841,1.13571 0.33477,1.39677 0.10879,0.18344 0.30114,0.33163 0.49363,0.37397 0.0923,0.0141 0.276,0.0141 0.36809,-0.007 0.20917,-0.0564 0.39324,-0.20464 0.47693,-0.39512 0.033,-0.0777 0.0776,-0.33096 0.1003,-0.63495 l 0.0252,-0.17639 0.1506,0.11999 c 0.22591,0.19048 0.3932,0.28927 0.66939,0.39512 0.39317,0.14108 0.63577,0.18342 1.00399,0.14821 0.13393,-0.0141 0.20074,-0.0354 0.26775,-0.0777 0.11737,-0.0987 0.10055,-0.26801 -0.0338,-0.33868 -0.0419,-0.0282 -0.1008,-0.0354 -0.24278,-0.0565 -0.51866,-0.0705 -0.94537,-0.20469 -1.23823,-0.39517 -0.1168,-0.0705 -0.13384,-0.0846 -0.10885,-0.0987 0.46015,-0.22578 0.92866,-0.63497 1.23815,-1.07242 0.46852,-0.64202 0.7364,-1.44623 0.76986,-2.27873 0.0165,-0.47275 -0.0585,-0.95958 -0.2092,-1.27002 -0.14217,-0.31746 -0.33467,-0.50806 -0.59413,-0.59275 z m -0.29064,0.468 c 0.0123,0.005 0.0216,0.0109 0.0306,0.0188 0.1255,0.10582 0.19264,0.45151 0.17594,0.93832 -0.008,0.50791 -0.0759,0.81834 -0.2675,1.29126 -0.23359,0.57164 -0.55216,1.03697 -0.97889,1.43911 -0.0671,0.0564 -0.15124,0.13397 -0.19251,0.16235 l -0.0752,0.0564 0.016,-0.18346 c 5.3e-4,-0.10569 0.008,-0.57145 0.0169,-1.05124 l 0.008,-0.86067 0.0509,-0.14817 c 0.12598,-0.35968 0.33462,-0.81832 0.4768,-1.0441 0.1093,-0.19034 0.23437,-0.34556 0.38493,-0.47257 0.14619,-0.1297 0.27356,-0.17842 0.35352,-0.14601 z m -4.6484,-0.24737 c -0.19923,-0.048 -0.37959,-0.0335 -0.55533,0.0406 -0.32624,0.14113 -0.58557,0.35994 -0.89516,0.74091 -0.0499,0.0636 -0.0921,0.10566 -0.0918,0.0987 -0.008,-0.24686 -0.0585,-0.57146 -0.10044,-0.69847 -0.11704,-0.28217 -0.41846,-0.43724 -0.71962,-0.35256 -0.15897,0.0353 -0.27618,0.12687 -0.35139,0.268 -0.0919,0.1623 -0.3018,1.05808 -0.37357,1.65165 -0.0244,0.2189 -0.10817,1.00193 -0.12528,1.31931 -0.0592,0.71239 -0.008,2.0108 0.0921,2.55405 0.0499,0.24684 0.15891,0.48681 0.27596,0.61378 0.10875,0.11288 0.3179,0.21864 0.50197,0.24686 0.1506,0.0212 0.29303,7e-5 0.47704,-0.0846 0.10855,-0.0494 0.15117,-0.0704 0.21744,-0.14115 0.20075,-0.19756 0.23423,-0.36686 0.23109,-0.98631 l 4.5e-4,-0.35267 0.12571,-0.0422 c 0.32633,-0.10582 0.66921,-0.28233 0.8785,-0.43752 0.35138,-0.26105 0.69444,-0.71252 0.92871,-1.21343 0.34296,-0.76197 0.7864,-2.6597 -0.30131,-3.15354 -0.0711,-0.0299 -0.13952,-0.0529 -0.20592,-0.0689 z m -0.207,0.54432 c 0.028,0.007 0.0499,0.0283 0.0622,0.0679 0.56898,2.08124 -0.82879,3.45684 -1.17974,3.62629 -0.0675,0.0351 -0.1253,0.0635 -0.1334,0.0635 -0.0131,-0.001 -0.0256,-0.0918 -0.0333,-0.38086 -0.0246,-0.39495 -0.0501,-1.66503 -0.0418,-1.86963 l 3.2e-4,-0.1621 0.15848,-0.26839 c 0.23427,-0.40214 0.41006,-0.62074 0.68611,-0.84652 0.11738,-0.0987 0.17565,-0.13406 0.27606,-0.17639 0.0888,-0.0397 0.1584,-0.0656 0.20596,-0.0536 z"
         style="font-style:normal;font-variant:normal;font-weight:normal;font-stretch:normal;font-size:19.18953705px;line-height:1.25;font-family:'Choco Letter';-inkscape-font-specification:'Choco Letter, Normal';font-variant-ligatures:normal;font-variant-caps:normal;font-variant-numeric:normal;font-feature-settings:normal;text-align:start;letter-spacing:0px;word-spacing:0px;writing-mode:lr-tb;text-anchor:start;fill:#800080;fill-opacity:0.81960784;stroke:none;stroke-width:0.19207601"
         inkscape:connector-curvature="0" />
    </g>
  </g>
</svg>
