<?xml version="1.0" standalone="no"?>
<!DOCTYPE svg PUBLIC "-//W3C//DTD SVG 20010904//EN"
 "http://www.w3.org/TR/2001/REC-SVG-20010904/DTD/svg10.dtd">
<svg version="1.0" xmlns="http://www.w3.org/2000/svg"
 width="300.000000pt" height="300.000000pt" viewBox="0 0 300.000000 300.000000"
 preserveAspectRatio="xMidYMid meet">
<metadata>
Created by potrace 1.10, written by Peter Selinger 2001-2011
</metadata>
<g transform="translate(0.000000,300.000000) scale(0.100000,-0.100000)"
fill="#000000" stroke="none">
<path d="M1751 2507 c-29 -15 -41 -44 -30 -74 9 -24 15 -28 133 -94 92 -51
226 -173 292 -265 108 -151 162 -320 171 -534 6 -147 14 -170 62 -170 70 1 84
61 61 265 -41 361 -230 648 -545 828 -97 55 -113 60 -144 44z m92 -58 c78 -40
171 -106 241 -169 173 -161 285 -384 316 -630 19 -157 10 -247 -24 -234 -9 4
-15 39 -19 127 -20 376 -191 661 -504 841 -87 50 -98 60 -88 76 9 15 32 12 78
-11z"/>
<path d="M700 2428 c-91 -46 -107 -109 -97 -382 10 -285 65 -504 192 -756 130
-259 362 -518 615 -687 213 -143 320 -184 386 -150 44 23 64 49 160 207 72
119 88 152 88 187 1 59 -20 78 -223 199 -164 98 -177 104 -228 104 -62 0 -74
-5 -165 -72 l-66 -49 -50 53 c-100 105 -190 235 -255 364 -41 81 -109 271
-105 292 2 7 39 29 83 48 151 67 165 93 165 311 0 237 -7 288 -42 324 l-30 29
-192 0 c-179 0 -195 -1 -236 -22z m404 -22 c50 -21 56 -52 56 -270 0 -242 0
-243 -122 -306 -108 -57 -118 -65 -118 -105 0 -81 115 -343 211 -480 93 -132
201 -245 236 -245 6 0 47 25 91 55 112 76 156 76 277 -1 28 -18 94 -58 148
-89 78 -45 102 -64 113 -91 18 -42 15 -49 -86 -217 -119 -200 -148 -212 -309
-126 -336 181 -607 452 -771 773 -133 261 -190 506 -190 821 0 265 10 277 240
286 80 3 155 6 168 7 12 1 38 -4 56 -12z"/>
<path d="M1558 2196 c-16 -37 -5 -52 60 -85 130 -66 250 -187 312 -316 49
-100 71 -193 74 -311 2 -96 13 -124 47 -124 36 0 49 27 49 103 0 310 -161 585
-421 722 -80 42 -105 44 -121 11z m163 -84 c73 -48 143 -114 195 -182 58 -78
125 -241 123 -302 0 -12 -7 1 -15 31 -52 194 -185 372 -346 465 -27 16 -48 30
-48 32 0 11 24 0 91 -44z m336 -644 c-2 -18 -4 -6 -4 27 0 33 2 48 4 33 2 -15
2 -42 0 -60z"/>
<path d="M1421 1956 c-18 -21 -5 -38 58 -75 153 -87 238 -227 250 -411 l6 -95
30 0 c30 0 30 1 33 61 4 82 -20 190 -60 272 -40 80 -139 185 -218 230 -61 35
-82 39 -99 18z"/>
</g>
</svg>
