<?xml version="1.0" standalone="no"?>
<!DOCTYPE svg PUBLIC "-//W3C//DTD SVG 20010904//EN"
 "http://www.w3.org/TR/2001/REC-SVG-20010904/DTD/svg10.dtd">
<svg version="1.0" xmlns="http://www.w3.org/2000/svg"
 width="300.000000pt" height="300.000000pt" viewBox="0 0 300.000000 300.000000"
 preserveAspectRatio="xMidYMid meet">
<metadata>
Created by potrace 1.10, written by Peter Selinger 2001-2011
</metadata>
<g transform="translate(0.000000,300.000000) scale(0.100000,-0.100000)"
fill="#000000" stroke="none">
<path d="M2255 2465 c-162 -36 -362 -153 -506 -298 l-57 -57 -54 25 c-77 35
-145 46 -226 36 -89 -11 -142 -35 -218 -98 -57 -48 -61 -50 -73 -32 -31 50
-367 245 -464 269 -139 36 -128 -54 22 -164 195 -144 242 -177 304 -215 37
-22 72 -41 77 -41 11 0 12 -27 2 -51 -16 -38 -489 302 -582 418 -48 59 -57 89
-35 114 56 61 223 49 390 -30 106 -50 185 -104 280 -192 74 -68 98 -81 77 -42
-15 27 -121 128 -178 170 -66 48 -235 128 -310 147 -115 29 -234 17 -280 -29
-69 -69 10 -174 288 -383 73 -55 177 -126 232 -159 l98 -60 2 -170 2 -171 -60
-6 c-68 -7 -154 -43 -191 -80 -44 -44 -27 -48 33 -7 79 56 232 93 232 57 0 -7
3 -27 6 -43 6 -30 6 -30 -49 -36 -65 -6 -149 -44 -203 -91 -50 -44 -38 -59 15
-17 54 43 140 81 200 88 45 5 51 4 51 -13 1 -10 7 -35 14 -55 l13 -36 -53 -17
c-88 -28 -185 -114 -170 -152 6 -14 10 -11 25 17 21 40 101 99 160 119 l40 13
45 -50 c24 -27 62 -62 84 -77 l40 -28 -23 -34 c-30 -44 -40 -115 -40 -282 0
-114 -2 -131 -15 -125 -8 5 -58 8 -110 8 -110 0 -159 -19 -197 -75 -37 -53
-28 -157 14 -178 18 -9 158 4 302 27 74 12 400 5 510 -10 80 -12 399 -3 438
12 49 18 35 90 -27 143 -65 54 -204 70 -278 32 l-27 -14 0 127 c0 125 -1 128
-34 194 -19 37 -57 93 -86 124 l-52 57 52 51 c35 35 56 65 67 100 18 58 41 69
128 60 115 -12 205 -41 223 -71 13 -22 29 -16 25 8 -7 52 -154 95 -288 86 -59
-5 -70 -3 -66 9 3 8 6 26 6 39 0 23 2 24 74 24 94 0 166 -14 234 -45 63 -29
80 -24 39 11 -44 37 -129 58 -239 59 l-98 0 0 37 c0 37 0 37 57 49 77 15 235
7 291 -16 47 -19 62 -16 37 9 -32 32 -121 49 -229 43 -56 -3 -110 -8 -122 -12
-20 -6 -21 -4 -20 137 1 79 -1 159 -4 178 l-5 34 150 67 c83 37 188 80 234 95
76 25 86 26 110 13 14 -8 35 -29 46 -47 68 -112 119 -153 150 -121 34 34 47
287 21 422 -23 116 -63 181 -129 206 -36 14 -66 13 -142 -4z m170 -45 c47 -44
85 -199 85 -347 0 -81 -21 -203 -34 -203 -17 0 -47 35 -79 92 -42 72 -71 91
-134 85 -50 -5 -261 -87 -385 -148 -64 -32 -78 -35 -78 -15 0 7 -11 46 -23 85
l-24 72 71 44 c118 73 256 127 358 140 45 6 58 4 78 -13 l24 -19 -29 -27 c-39
-36 -180 -105 -335 -165 -69 -26 -124 -51 -122 -57 5 -15 37 -7 159 41 233 91
343 158 343 208 0 91 -169 77 -387 -30 -51 -25 -111 -61 -133 -80 l-40 -35
-19 23 c-18 23 -18 23 42 78 244 228 567 360 662 271z m-1764 -146 c86 -25
333 -163 435 -243 l32 -24 -22 -43 c-11 -24 -25 -43 -30 -44 -14 0 -157 89
-221 139 -33 26 -95 72 -138 101 -87 59 -151 130 -119 130 5 0 33 -7 63 -16z
m927 -154 c71 -25 135 -88 153 -151 7 -24 18 -51 25 -59 21 -25 35 -191 28
-321 l-7 -120 -46 -24 c-49 -25 -96 -64 -87 -72 3 -3 31 11 63 31 47 30 59 34
61 20 8 -35 -8 -60 -48 -78 -22 -9 -40 -22 -40 -27 0 -12 2 -12 39 7 18 9 34
14 36 12 3 -2 2 -20 -1 -39 -5 -28 -13 -37 -47 -52 -22 -9 -38 -20 -35 -23 4
-3 20 2 37 11 23 12 31 12 31 3 -1 -30 -40 -96 -75 -127 -99 -86 -236 -110
-345 -60 -52 24 -180 131 -180 150 0 5 15 9 33 9 17 0 39 5 47 11 11 8 1 9
-38 4 -57 -6 -58 -5 -76 69 l-7 29 47 -7 c26 -3 60 -12 75 -20 16 -8 31 -10
34 -6 9 14 -48 39 -107 48 -50 7 -53 9 -59 42 -4 19 -6 36 -4 38 7 7 75 -20
91 -35 17 -18 27 -13 18 10 -6 15 -72 47 -99 47 -22 0 -28 57 -22 228 5 166
16 220 62 298 41 70 141 145 220 165 60 14 164 9 223 -11z m146 -1220 c56 -91
70 -154 61 -292 -6 -102 -5 -118 9 -118 8 0 18 5 22 11 9 16 62 36 114 43 l45
7 -37 -21 c-21 -11 -38 -27 -38 -36 0 -9 3 -14 8 -12 60 31 89 39 126 34 23
-4 48 -11 56 -17 11 -7 5 -8 -20 -4 -43 7 -132 -15 -138 -34 -4 -11 2 -13 29
-7 69 15 109 18 143 12 29 -6 36 -11 36 -30 0 -23 -5 -24 -77 -30 -142 -11
-277 -10 -408 3 -71 7 -170 12 -220 11 -49 -1 -117 -1 -150 -1 -33 0 -100 -6
-150 -14 -49 -8 -120 -17 -157 -21 -67 -6 -68 -6 -78 21 -9 23 -7 30 7 41 33
25 116 44 196 44 69 0 78 2 67 15 -7 8 -28 18 -49 21 -20 4 -46 14 -58 22 -25
16 -70 11 -115 -12 -16 -8 -28 -11 -28 -7 0 5 17 17 38 27 56 29 194 27 244
-3 23 -13 40 -18 44 -12 3 6 1 47 -6 93 -20 145 15 398 55 389 6 -1 30 -10 55
-19 61 -22 171 -15 225 14 l40 21 38 -42 c21 -23 53 -67 71 -97z m-716 -385
c-26 -7 -64 -22 -84 -34 -22 -13 -34 -16 -32 -9 6 21 90 58 128 57 35 -1 35
-1 -12 -14z"/>
<path d="M1257 1814 c-13 -13 -7 -42 10 -48 21 -8 36 6 31 30 -3 19 -29 30
-41 18z"/>
<path d="M1553 1813 c-18 -7 -16 -40 2 -47 17 -6 48 21 42 38 -4 12 -26 17
-44 9z"/>
<path d="M1420 1571 c0 -5 -16 -36 -35 -68 -56 -92 -40 -153 38 -153 27 0 28
-2 22 -32 -9 -42 -9 -42 -35 -28 -26 14 -38 6 -21 -14 28 -33 141 -25 141 10
0 17 -14 18 -41 4 -17 -10 -19 -7 -19 30 0 39 1 40 33 40 18 0 42 6 52 14 18
13 18 17 5 57 -18 55 -89 143 -118 147 -12 2 -22 -1 -22 -7z m53 -59 c37 -39
69 -105 54 -113 -24 -13 -109 -18 -128 -9 -10 6 -19 20 -19 30 0 20 50 120 61
120 3 0 17 -13 32 -28z"/>
<path d="M1323 883 c-35 -81 -25 -210 17 -233 39 -21 63 43 64 167 1 65 -16
74 -26 13 -4 -25 -11 -70 -16 -100 -8 -54 -9 -54 -20 -27 -16 38 -15 104 2
160 17 58 2 73 -21 20z"/>
<path d="M1562 863 c-11 -27 -7 -113 7 -156 7 -21 24 -45 38 -54 25 -16 26
-16 44 6 32 39 17 211 -17 211 -17 0 -17 -10 -3 -83 14 -66 6 -115 -16 -97
-19 16 -38 105 -32 146 6 37 -9 56 -21 27z"/>
</g>
</svg>
