<?xml version="1.0" standalone="no"?>
<!DOCTYPE svg PUBLIC "-//W3C//DTD SVG 20010904//EN"
 "http://www.w3.org/TR/2001/REC-SVG-20010904/DTD/svg10.dtd">
<svg version="1.0" xmlns="http://www.w3.org/2000/svg"
 width="300.000000pt" height="301.000000pt" viewBox="0 0 300.000000 301.000000"
 preserveAspectRatio="xMidYMid meet">
<metadata>
Created by potrace 1.10, written by Peter Selinger 2001-2011
</metadata>
<g transform="translate(0.000000,301.000000) scale(0.100000,-0.100000)"
fill="#000000" stroke="none">
<path d="M905 3000 c-97 -10 -214 -44 -311 -89 -645 -303 -796 -1148 -295
-1652 140 -141 325 -241 520 -281 126 -26 335 -21 456 11 97 26 245 95 333
157 l65 45 58 -57 c33 -32 59 -63 59 -69 0 -6 -16 -27 -36 -46 -68 -65 -82
-41 218 -349 150 -153 364 -367 476 -475 l202 -197 176 176 176 176 -60 67
c-102 115 -879 883 -893 883 -7 0 -35 -21 -61 -47 l-48 -47 -60 59 c-33 33
-60 63 -60 67 0 4 21 38 46 74 121 177 176 359 177 579 0 206 -51 381 -163
553 -168 260 -444 429 -755 462 -99 11 -118 11 -220 0z m321 -220 c252 -65
471 -258 563 -499 42 -111 55 -182 55 -306 -2 -321 -181 -600 -475 -740 -252
-119 -565 -97 -793 55 -471 316 -505 984 -67 1332 89 71 182 120 293 152 112
34 306 36 424 6z"/>
</g>
</svg>
