<?xml version="1.0" standalone="no"?>
<!DOCTYPE svg PUBLIC "-//W3C//DTD SVG 20010904//EN"
 "http://www.w3.org/TR/2001/REC-SVG-20010904/DTD/svg10.dtd">
<svg version="1.0" xmlns="http://www.w3.org/2000/svg"
 width="900.000000pt" height="675.000000pt" viewBox="0 0 900.000000 675.000000"
 preserveAspectRatio="xMidYMid meet">
<metadata>
Created by potrace 1.10, written by Peter Selinger 2001-2011
</metadata>
<g transform="translate(0.000000,675.000000) scale(0.100000,-0.100000)"
fill="#000000" stroke="none">
<path d="M4980 4955 c0 -9 51 -89 64 -100 23 -20 46 -87 46 -134 0 -32 -8 -62
-24 -92 -14 -24 -34 -61 -45 -82 -22 -39 -28 -77 -12 -77 11 0 21 25 21 51 0
10 4 19 9 19 5 0 19 21 32 48 12 26 28 59 35 74 18 34 18 86 -1 122 -8 15 -15
35 -15 42 0 8 -6 17 -14 20 -8 3 -17 15 -20 28 -8 32 -76 105 -76 81z"/>
<path d="M4650 4920 c0 -5 5 -10 10 -10 6 0 10 -5 10 -11 0 -6 6 -16 13 -23 6
-7 21 -25 32 -40 11 -16 25 -33 31 -40 6 -6 14 -24 18 -39 7 -29 26 -37 26
-11 0 22 -55 111 -93 152 -31 33 -47 40 -47 22z"/>
<path d="M4380 4832 c0 -5 13 -26 29 -46 16 -21 32 -42 34 -49 2 -7 8 -8 13
-4 11 11 -24 73 -52 92 -13 9 -24 11 -24 7z"/>
<path d="M4100 4743 c0 -14 19 -38 25 -32 8 8 -5 39 -16 39 -5 0 -9 -3 -9 -7z"/>
<path d="M5310 4733 c0 -13 5 -23 10 -23 13 0 13 11 0 30 -8 12 -10 11 -10 -7z"/>
<path d="M4463 4665 c-3 -54 9 -80 21 -48 8 19 -3 103 -13 103 -3 0 -7 -25 -8
-55z"/>
<path d="M4790 4678 c0 -47 12 -63 24 -32 9 24 7 39 -9 60 -13 18 -14 15 -15
-28z"/>
<path d="M4140 4680 c0 -19 3 -21 12 -12 9 9 9 15 0 24 -9 9 -12 7 -12 -12z"/>
<path d="M5330 4687 c0 -7 7 -23 16 -36 22 -30 22 -108 1 -149 -41 -78 -47
-91 -47 -101 0 -27 21 -6 49 51 24 47 31 74 31 120 0 32 -4 66 -9 76 -5 9 -12
25 -15 35 -6 20 -26 23 -26 4z"/>
<path d="M4147 4643 c-4 -3 -6 -36 -5 -72 0 -36 3 -52 5 -34 2 17 11 37 19 43
8 7 14 20 14 30 0 20 -23 43 -33 33z"/>
<path d="M4772 4608 c-7 -7 -12 -20 -12 -29 0 -10 -3 -19 -7 -21 -14 -6 -53
-67 -53 -83 0 -21 19 -19 26 3 3 9 10 24 15 32 5 8 12 22 16 30 4 8 13 21 20
28 7 7 13 22 13 33 0 22 -2 23 -18 7z"/>
<path d="M4426 4526 c-26 -45 -28 -55 -24 -124 3 -44 10 -78 17 -80 6 -2 11
-8 11 -14 0 -5 6 -24 14 -41 8 -18 16 -41 18 -51 5 -30 28 -32 28 -2 0 13 -4
27 -9 30 -5 4 -19 27 -32 53 -30 62 -33 191 -5 222 10 11 16 28 14 38 -2 13
-11 5 -32 -31z"/>
<path d="M4106 4465 c-13 -34 -6 -153 9 -169 8 -8 15 -20 15 -26 0 -11 39 -70
53 -81 4 -3 10 -29 14 -57 5 -47 4 -53 -26 -82 -17 -17 -31 -33 -31 -36 0 -13
26 0 48 24 23 23 26 35 25 87 -1 33 -6 61 -12 63 -6 2 -11 11 -11 19 0 8 -15
34 -32 56 -31 38 -33 47 -35 125 -2 87 -6 105 -17 77z"/>
<path d="M4980 4420 c0 -11 5 -20 10 -20 6 0 10 9 10 20 0 11 -4 20 -10 20 -5
0 -10 -9 -10 -20z"/>
<path d="M4680 4410 c0 -18 7 -37 32 -80 4 -8 12 -25 18 -37 5 -13 14 -23 20
-23 5 0 10 -8 10 -19 0 -10 7 -24 15 -31 8 -7 15 -28 15 -47 0 -19 -7 -41 -15
-49 -18 -19 -20 -57 -2 -52 6 3 14 15 15 29 2 13 8 28 13 34 17 18 9 62 -23
124 -45 86 -54 101 -67 114 -6 6 -11 21 -11 34 0 13 -4 23 -10 23 -5 0 -10 -9
-10 -20z"/>
<path d="M5283 4353 c-17 -28 -16 -54 1 -78 7 -11 17 -35 21 -52 3 -18 11 -33
16 -33 5 0 9 -19 9 -42 0 -53 14 -81 23 -46 7 23 -14 108 -39 163 -7 17 -15
48 -16 70 -3 37 -4 39 -15 18z"/>
<path d="M5000 4296 c0 -13 7 -29 15 -36 8 -7 15 -18 15 -25 0 -7 7 -18 15
-25 10 -8 15 -31 15 -66 0 -52 12 -71 24 -38 12 32 5 61 -31 136 -39 81 -53
95 -53 54z"/>
<path d="M4490 4150 c0 -11 5 -20 10 -20 6 0 10 9 10 20 0 11 -4 20 -10 20 -5
0 -10 -9 -10 -20z"/>
<path d="M4456 4078 c-9 -17 -13 -34 -10 -37 8 -8 44 37 44 55 0 24 -18 15
-34 -18z"/>
<path d="M5311 4046 c-11 -13 -11 -20 -3 -28 8 -8 13 -7 18 5 10 27 0 41 -15
23z"/>
<path d="M4430 3951 c-66 -10 -127 -31 -230 -80 -98 -48 -179 -101 -242 -161
-16 -14 -55 -34 -88 -44 -46 -14 -74 -32 -126 -79 -60 -55 -175 -196 -186
-228 -3 -8 -34 -11 -100 -10 -75 2 -99 -1 -111 -14 -9 -8 -24 -15 -35 -15 -11
0 -25 -7 -32 -15 -7 -8 -16 -15 -21 -15 -21 0 -112 -72 -193 -152 -48 -48 -89
-88 -91 -88 -2 0 -24 -20 -50 -44 -101 -96 -251 -182 -335 -193 -96 -12 -98
-19 -12 -62 31 -15 71 -35 87 -44 17 -8 42 -20 58 -26 22 -9 27 -17 27 -45 0
-18 -7 -47 -15 -62 -8 -16 -15 -41 -15 -56 0 -14 -5 -28 -11 -30 -6 -2 -15
-26 -20 -53 -6 -33 -16 -55 -30 -65 -40 -28 -89 -84 -89 -102 0 -10 -5 -18
-10 -18 -6 0 -13 -7 -17 -15 -3 -9 -25 -46 -49 -82 -36 -56 -44 -75 -44 -115
0 -37 5 -52 25 -72 37 -37 65 -41 118 -17 27 13 67 21 97 21 28 0 84 10 126
22 l75 22 72 -37 c40 -20 76 -37 81 -37 5 0 37 -13 70 -29 151 -72 213 -88
381 -102 72 -6 159 -13 195 -16 43 -3 85 1 130 12 74 20 176 70 184 91 8 22
35 17 75 -15 32 -26 121 -72 209 -108 17 -7 47 -20 65 -28 35 -16 93 -31 172
-45 39 -7 58 -18 87 -49 63 -67 147 -93 187 -58 9 9 34 20 56 26 22 6 62 26
89 46 27 19 55 35 62 35 7 0 25 15 41 34 22 27 38 35 78 40 125 17 156 23 167
34 23 23 64 11 147 -43 94 -60 105 -64 229 -73 131 -10 226 13 290 72 26 25
32 37 32 72 0 37 -5 46 -37 71 -21 17 -46 33 -56 36 -26 10 -32 35 -13 56 18
19 22 60 6 62 -5 1 -14 2 -19 3 -6 0 -16 7 -22 14 -7 6 -19 12 -26 12 -17 0
-17 -26 1 -33 34 -13 22 -87 -14 -87 -14 0 -24 10 -31 30 -11 31 -27 38 -46
19 -8 -8 -20 -8 -43 2 -40 18 -49 53 -21 83 11 12 21 28 21 34 0 7 11 17 24
22 34 13 102 -10 142 -48 39 -37 44 -39 44 -14 0 28 -62 82 -93 82 -16 0 -30
8 -37 21 -7 11 -10 22 -8 24 2 2 23 -1 48 -5 25 -5 61 -9 81 -10 42 0 145 31
186 56 30 18 123 114 123 126 0 4 13 29 28 55 15 26 34 73 41 103 11 48 11 63
-3 112 -20 67 -35 86 -187 238 -100 100 -239 266 -239 285 0 4 -13 27 -30 52
-16 24 -30 46 -30 48 0 2 -13 24 -30 48 -16 25 -30 48 -30 51 0 13 -112 177
-171 252 -88 110 -190 170 -321 189 -26 3 -50 11 -54 16 -3 6 -16 14 -27 20
-12 5 -29 13 -37 18 -22 13 -79 37 -135 56 -39 13 -96 17 -270 20 -121 2 -245
0 -275 -4z m410 -32 c36 -1 80 -8 99 -15 18 -8 42 -14 52 -14 20 0 144 -58
194 -90 17 -11 40 -24 53 -30 12 -5 56 -44 97 -86 76 -78 94 -112 54 -99 -33
11 -89 46 -89 56 0 5 -7 9 -15 9 -24 0 -17 -37 12 -60 37 -29 110 -60 142 -60
31 0 72 -56 134 -180 21 -41 42 -82 46 -90 5 -8 24 -51 42 -95 18 -44 38 -87
46 -96 7 -8 13 -20 13 -25 0 -12 126 -144 137 -144 17 0 72 -65 87 -102 31
-74 14 -259 -30 -320 -5 -7 -18 -31 -29 -53 -46 -96 -142 -185 -200 -185 -17
0 -34 3 -38 6 -6 7 10 39 31 62 13 15 17 52 4 52 -4 0 -19 -20 -32 -46 -24
-43 -100 -104 -130 -104 -31 0 -102 -44 -132 -82 -82 -103 -186 -177 -270
-192 -37 -7 -68 -39 -49 -50 5 -3 28 1 52 10 62 22 102 20 138 -7 30 -22 31
-24 14 -41 -10 -9 -47 -22 -83 -27 -109 -18 -115 -16 -150 34 -48 70 -143 103
-217 74 -92 -36 -259 -72 -306 -66 -135 18 -185 32 -303 88 -112 53 -112 54
-70 132 58 106 68 165 73 408 3 135 0 244 -7 290 -6 41 -18 155 -25 254 -7 99
-23 223 -34 275 -11 52 -21 104 -21 115 0 34 -66 155 -109 200 -22 24 -41 50
-41 58 0 8 19 27 43 43 23 16 44 32 45 37 2 4 8 7 13 7 5 0 28 12 52 27 57 37
109 63 123 63 7 0 25 6 41 14 15 8 44 20 63 27 39 14 263 28 355 22 33 -2 89
-4 125 -4z m580 -229 c0 -5 8 -11 18 -15 11 -3 34 -26 52 -51 18 -25 51 -65
72 -88 22 -22 46 -56 54 -73 8 -18 18 -33 23 -33 5 0 12 -8 15 -17 3 -10 22
-45 41 -78 19 -33 38 -68 41 -77 4 -10 10 -18 14 -18 5 0 19 -21 32 -47 13
-27 29 -52 35 -56 7 -4 13 -13 13 -20 0 -7 15 -29 33 -49 73 -83 87 -100 87
-107 0 -5 23 -27 51 -51 63 -53 73 -76 56 -137 -19 -74 -57 -69 -57 9 0 20 -7
43 -15 52 -10 10 -13 24 -9 41 5 22 3 25 -20 25 -51 0 -225 182 -226 236 0 12
-7 27 -15 34 -8 7 -15 20 -15 30 0 10 -7 23 -15 30 -8 7 -15 19 -15 27 0 13
-10 35 -41 93 -4 8 -18 35 -30 59 -42 84 -142 222 -201 278 -35 33 -36 49 -3
27 14 -9 25 -20 25 -24z m-1420 -107 c23 -29 30 -46 28 -69 -3 -23 0 -30 9
-27 7 3 17 -6 21 -19 22 -57 32 -97 32 -132 0 -20 6 -52 14 -70 7 -18 17 -80
20 -137 4 -57 11 -117 16 -134 5 -16 12 -104 15 -194 4 -90 10 -174 15 -186
11 -29 5 -194 -9 -255 -6 -25 -10 -65 -11 -90 -1 -44 -25 -90 -48 -90 -6 0
-20 -12 -31 -26 -11 -14 -25 -23 -30 -19 -13 7 -50 -11 -71 -36 -27 -33 -100
-52 -206 -56 -108 -4 -116 -2 -218 55 -26 15 -53 35 -60 43 -6 8 -18 18 -27
21 -46 17 -77 194 -45 256 9 17 16 40 16 52 0 11 20 59 45 106 25 46 45 94 45
107 0 12 11 46 25 75 19 42 25 70 25 126 0 40 4 76 9 82 5 5 12 59 15 119 9
169 18 255 27 255 5 0 9 7 9 16 0 30 67 118 140 184 83 75 89 78 152 79 42 1
50 -3 78 -36z m-473 -290 c-3 -16 -15 -55 -27 -88 -11 -33 -32 -114 -45 -180
-24 -118 -35 -158 -62 -222 -7 -18 -19 -48 -26 -65 -34 -83 -95 -194 -127
-232 -19 -23 -40 -50 -47 -61 -46 -77 -77 -179 -62 -207 5 -9 9 -27 9 -39 0
-12 14 -44 30 -71 17 -26 30 -51 30 -54 0 -26 141 -164 168 -164 5 0 14 -12
21 -26 10 -24 10 -26 -6 -19 -10 3 -36 10 -58 15 -51 11 -116 34 -185 66 -30
14 -68 32 -85 39 -96 42 -125 58 -169 95 -26 22 -51 40 -55 40 -18 0 -20 -15
-5 -31 26 -29 14 -53 -31 -60 -22 -4 -53 -12 -68 -18 -16 -6 -54 -11 -86 -11
-41 0 -62 -5 -71 -16 -21 -24 -62 -13 -86 23 -20 29 -20 36 -9 69 7 20 16 39
22 43 16 10 73 101 73 115 0 8 7 16 15 20 8 3 15 11 15 18 1 14 34 58 44 58 4
0 11 -11 16 -25 5 -14 13 -25 18 -25 10 0 31 89 39 163 3 26 8 47 13 47 4 0
18 33 30 73 22 69 80 194 141 304 16 29 29 57 29 64 0 16 54 83 140 172 83 87
144 136 229 184 50 28 65 31 145 32 l88 1 -5 -27z m-667 -409 c0 -3 -14 -24
-31 -45 -20 -26 -39 -39 -54 -39 -42 0 -36 18 15 47 27 15 50 31 50 36 0 4 5
7 10 7 6 0 10 -3 10 -6z m-135 -94 c-3 -5 -13 -10 -21 -10 -8 0 -14 5 -14 10
0 6 9 10 21 10 11 0 17 -4 14 -10z m2933 -616 c2 -11 -10 -35 -27 -55 l-30
-34 -33 17 c-18 9 -46 19 -61 23 -23 5 -26 9 -18 19 7 8 27 17 45 20 19 4 40
13 47 22 19 23 73 15 77 -12z m-128 -111 c25 -9 71 -34 104 -55 32 -21 60 -38
63 -38 3 0 34 -13 70 -30 35 -16 69 -30 74 -30 23 0 99 -42 109 -59 14 -26 14
-26 -15 -56 -31 -35 -78 -47 -192 -52 -126 -6 -193 13 -299 82 -45 30 -86 55
-89 55 -15 0 -85 52 -85 63 0 6 21 29 46 50 66 52 96 50 188 -13 47 -33 79
-48 90 -44 9 3 16 10 16 14 0 12 -84 80 -98 80 -6 0 -15 6 -19 13 -4 8 -17 19
-28 25 -20 11 -20 11 0 12 10 0 40 -7 65 -17z m-1403 -107 c4 -8 37 -28 73
-44 175 -78 363 -112 428 -78 17 9 41 16 54 16 13 0 59 11 103 25 92 29 119
31 167 10 37 -15 61 -44 71 -86 13 -51 -69 -94 -83 -44 -8 30 -33 65 -47 65
-17 0 -16 -25 1 -39 23 -20 29 -61 11 -88 -13 -19 -23 -23 -48 -21 -29 3 -32
7 -37 42 -3 22 -11 41 -18 44 -10 3 -13 -10 -11 -51 1 -34 -3 -62 -11 -71 -27
-34 -94 -11 -145 49 -30 36 -55 46 -190 75 -61 13 -229 86 -338 147 -27 15
-48 43 -41 54 8 14 52 10 61 -5z"/>
<path d="M4935 3641 c-3 -6 -3 -15 0 -21 20 -33 -89 -153 -180 -197 -27 -13
-57 -27 -65 -32 -45 -24 -61 -30 -98 -40 -35 -10 -61 -35 -48 -49 16 -15 139
32 268 105 84 46 163 154 156 212 -3 26 -22 39 -33 22z"/>
<path d="M4194 3525 c-5 -27 -2 -41 11 -55 32 -35 75 -19 75 27 0 29 -26 31
-35 3 -10 -30 -27 -13 -23 23 4 44 -19 46 -28 2z"/>
<path d="M4315 2918 c-6 -18 -8 -38 -6 -71 1 -19 9 -31 27 -39 23 -11 29 -10
45 11 21 25 25 61 8 61 -6 0 -13 -9 -16 -20 -10 -37 -33 -23 -33 19 0 39 -16
65 -25 39z"/>
<path d="M5690 2915 c-14 -8 -36 -14 -50 -15 -25 0 -68 -23 -82 -44 -37 -53
71 -141 163 -134 35 3 46 9 71 44 16 23 32 59 35 81 5 35 2 43 -22 61 -32 25
-79 28 -115 7z"/>
<path d="M4857 2724 c-12 -14 -46 -37 -74 -50 -29 -14 -55 -29 -58 -33 -2 -5
-18 -11 -35 -14 -19 -4 -34 -15 -39 -30 -5 -14 -17 -27 -25 -30 -9 -4 -16 -14
-16 -23 0 -13 8 -15 53 -9 28 4 63 13 77 20 14 7 42 21 63 31 56 28 109 84
103 109 -3 11 -6 28 -6 38 0 24 -17 21 -43 -9z m-17 -73 c0 -6 -5 -13 -10 -16
-15 -9 -43 3 -35 15 8 13 45 13 45 1z m-52 -33 c-5 -15 -48 -24 -48 -10 0 14
12 22 33 22 10 0 17 -5 15 -12z"/>
<path d="M4329 2576 c-9 -18 -7 -30 5 -55 18 -35 23 -36 49 -17 24 19 21 33
-8 40 -21 5 -24 11 -19 31 8 32 -13 33 -27 1z"/>
<path d="M4924 2509 c-7 -12 -7 -11 54 -58 24 -19 49 -31 58 -27 23 9 2 40
-50 70 -51 30 -52 30 -62 15z"/>
<path d="M4810 2452 c0 -21 56 -66 70 -57 16 10 11 30 -13 53 -28 27 -57 29
-57 4z"/>
<path d="M4700 2419 c0 -26 37 -58 68 -59 32 0 27 25 -11 54 -41 31 -57 33
-57 5z"/>
<path d="M6045 3782 c-49 -21 -95 -51 -95 -63 0 -5 26 5 58 22 64 35 136 44
152 19 10 -14 9 -24 -6 -77 -9 -33 22 -30 58 4 26 24 35 27 107 26 102 0 121
-16 121 -102 0 -40 -5 -63 -15 -71 -8 -7 -15 -18 -15 -24 0 -7 -27 -29 -60
-50 -33 -21 -60 -44 -60 -52 0 -26 21 -25 62 5 23 17 50 31 59 31 19 0 59 -49
59 -72 0 -15 -62 -88 -75 -88 -5 0 -17 -8 -27 -17 -13 -12 -39 -17 -91 -18
-70 -1 -72 -2 -75 -28 -4 -31 13 -35 44 -12 10 8 38 15 61 15 23 0 48 7 57 15
8 8 21 15 28 15 17 0 67 53 92 98 16 31 17 35 2 51 -9 10 -16 23 -16 30 0 6
-11 17 -25 23 -30 14 -30 13 -3 69 12 24 23 67 25 94 5 66 -24 103 -91 116
-52 9 -134 -2 -146 -21 -9 -15 -30 -5 -30 14 0 7 -9 25 -21 40 -25 31 -72 34
-134 8z"/>
<path d="M5878 3667 c-37 -41 -48 -67 -28 -67 6 0 15 10 20 23 13 31 35 57 49
57 6 0 11 7 11 15 0 24 -12 17 -52 -28z"/>
<path d="M5816 3562 c-4 -13 -5 -26 -2 -29 10 -11 18 4 14 29 l-4 23 -8 -23z"/>
<path d="M5786 3489 c-15 -75 5 -131 57 -158 43 -23 44 -4 2 34 -38 33 -39 36
-37 95 3 63 -11 82 -22 29z"/>
<path d="M6078 3353 l-3 -38 -92 1 c-89 1 -116 -7 -73 -21 11 -3 24 -4 29 -1
5 3 28 -1 51 -9 32 -11 46 -12 56 -4 8 6 25 8 40 5 25 -7 26 -9 21 -64 -3 -31
-10 -81 -17 -110 -12 -48 -9 -74 6 -59 12 11 33 132 34 185 0 55 -26 152 -41
152 -4 0 -9 -17 -11 -37z"/>
</g>
</svg>
