<?xml version="1.0" standalone="no"?>
<!DOCTYPE svg PUBLIC "-//W3C//DTD SVG 20010904//EN"
 "http://www.w3.org/TR/2001/REC-SVG-20010904/DTD/svg10.dtd">
<svg version="1.0" xmlns="http://www.w3.org/2000/svg"
 width="300.000000pt" height="289.000000pt" viewBox="0 0 300.000000 289.000000"
 preserveAspectRatio="xMidYMid meet">
<metadata>
Created by potrace 1.10, written by Peter Selinger 2001-2011
</metadata>
<g transform="translate(0.000000,289.000000) scale(0.100000,-0.100000)"
fill="#000000" stroke="none">
<path d="M2805 2880 c-10 -17 7 -60 32 -80 55 -43 143 -7 143 60 l0 30 -84 0
c-47 0 -87 -4 -91 -10z m102 -27 c-3 -39 -27 -42 -27 -4 0 20 5 31 14 31 10 0
14 -9 13 -27z"/>
<path d="M2680 2731 c-32 -61 13 -138 75 -128 35 6 45 -4 45 -44 0 -47 -127
-79 -178 -43 -26 18 -30 7 -4 -12 24 -19 105 -17 147 3 41 20 56 11 30 -17
-42 -47 -162 -48 -216 -3 -59 50 -26 127 53 123 50 -3 57 1 18 10 -74 18 -138
-46 -107 -108 28 -59 134 -87 212 -57 58 22 67 38 55 108 -6 37 -5 65 2 85 11
29 7 64 -11 92 -8 12 -13 12 -23 2 -14 -14 -68 -16 -68 -2 0 17 -19 11 -30 -9z
m126 -34 c7 -33 -15 -72 -46 -82 -43 -14 -89 40 -76 88 5 19 12 22 60 22 53 0
56 -1 62 -28z"/>
<path d="M2700 2680 c0 -5 7 -7 15 -4 8 4 15 8 15 10 0 2 -7 4 -15 4 -8 0 -15
-4 -15 -10z"/>
<path d="M2768 2683 c7 -3 16 -2 19 1 4 3 -2 6 -13 5 -11 0 -14 -3 -6 -6z"/>
<path d="M316 2715 c-3 -9 -6 -36 -6 -59 0 -39 -5 -48 -55 -95 -55 -52 -77
-59 -83 -28 -2 11 3 17 15 17 17 1 17 1 0 11 -13 8 -22 7 -33 -1 -21 -18 -18
-26 27 -75 39 -43 44 -45 95 -45 39 0 54 4 54 14 0 7 -10 17 -22 20 -23 6 -23
7 -4 21 27 21 30 20 49 -20 11 -22 24 -35 36 -35 19 0 19 2 -5 72 -26 78 -25
98 5 98 35 0 51 12 51 36 0 17 -6 24 -18 24 -26 0 -80 28 -90 47 -8 13 -10 13
-16 -2z"/>
<path d="M672 2703 c-21 -8 -44 -62 -36 -86 16 -51 54 -37 54 19 0 25 4 34 16
34 12 0 14 -5 9 -17 -5 -10 -15 -43 -23 -74 -13 -46 -14 -61 -3 -86 24 -59 96
-70 143 -22 28 28 30 34 25 78 -5 44 -4 48 13 44 44 -12 48 75 4 103 -19 13
-27 13 -46 3 -30 -17 -88 -18 -113 -2 -21 14 -23 14 -43 6z m142 -55 c8 -13
20 -45 26 -72 13 -59 1 -98 -36 -114 -21 -10 -24 -9 -24 9 0 11 10 29 23 39
30 26 13 55 -33 55 -46 0 -63 -29 -32 -55 12 -10 22 -28 22 -39 0 -18 -3 -19
-24 -10 -49 23 -53 98 -10 180 19 37 66 41 88 7z m36 -8 c0 -16 -2 -30 -4 -30
-2 0 -9 14 -15 30 -8 24 -7 30 5 30 9 0 14 -10 14 -30z m-75 -90 c3 -5 -3 -10
-15 -10 -12 0 -18 5 -15 10 3 6 10 10 15 10 5 0 12 -4 15 -10z"/>
<path d="M740 2610 c0 -5 5 -10 10 -10 6 0 10 5 10 10 0 6 -4 10 -10 10 -5 0
-10 -4 -10 -10z"/>
<path d="M780 2610 c0 -5 5 -10 10 -10 6 0 10 5 10 10 0 6 -4 10 -10 10 -5 0
-10 -4 -10 -10z"/>
<path d="M1740 2695 c-6 -8 -9 -22 -6 -32 8 -26 -69 -100 -108 -105 -16 -2
-34 -11 -39 -20 -9 -13 -3 -25 31 -58 50 -50 82 -49 82 4 0 24 9 41 38 69 21
20 47 37 59 37 61 0 70 36 21 86 -36 37 -59 42 -78 19z m58 -20 c12 -14 27
-25 33 -25 6 0 9 -10 7 -22 -2 -18 -9 -23 -31 -21 -40 3 -129 -84 -120 -117 6
-24 -11 -41 -34 -33 -7 3 -13 12 -13 20 0 8 -9 17 -19 20 -23 6 -32 25 -21 43
5 8 17 10 31 7 18 -5 33 4 72 43 32 32 47 55 43 65 -7 20 3 45 18 45 7 0 22
-11 34 -25z"/>
<path d="M1232 2688 c-15 -15 -15 -51 0 -66 9 -9 16 -8 30 5 22 20 24 59 2 67
-20 8 -18 8 -32 -6z"/>
<path d="M1152 2663 c-12 -23 3 -63 22 -63 21 0 32 46 16 65 -16 20 -27 19
-38 -2z"/>
<path d="M2076 2603 c-6 -66 -5 -80 12 -102 57 -78 175 -76 228 4 13 20 15 39
9 101 l-7 76 -32 -31 c-28 -27 -39 -31 -88 -31 -50 0 -59 3 -81 30 -14 17 -28
30 -30 30 -2 0 -7 -35 -11 -77z m64 -58 c0 -8 -4 -15 -9 -15 -5 0 -11 7 -15
15 -3 9 0 15 9 15 8 0 15 -7 15 -15z m40 -16 c0 -5 -7 -9 -15 -9 -9 0 -15 9
-15 21 0 18 2 19 15 9 8 -7 15 -16 15 -21z m70 11 c0 -11 -7 -20 -15 -20 -18
0 -19 12 -3 28 16 16 18 15 18 -8z m38 8 c-6 -18 -28 -21 -28 -4 0 9 7 16 16
16 9 0 14 -5 12 -12z"/>
<path d="M1297 2642 c-35 -39 -13 -75 29 -47 17 11 24 24 22 38 -4 28 -30 33
-51 9z"/>
<path d="M1172 2583 c-31 -11 -44 -22 -49 -41 -6 -27 16 -52 46 -52 8 0 32
-12 53 -26 60 -42 91 -15 68 59 -13 43 -43 78 -64 76 -6 -1 -30 -8 -54 -16z"/>
<path d="M1316 2561 c-20 -22 -14 -41 13 -41 22 0 55 35 46 49 -10 17 -40 13
-59 -8z"/>
<path d="M960 2249 c-20 -17 -33 -20 -71 -15 -47 6 -48 6 -76 -35 -16 -25 -40
-46 -58 -52 -45 -14 -55 -26 -55 -62 0 -21 -9 -45 -26 -64 l-26 -31 105 0 c94
0 106 2 123 21 28 32 93 59 139 58 37 -1 37 -2 -13 -9 -29 -4 -70 -19 -91 -33
-104 -69 -92 -240 21 -296 24 -11 36 -21 27 -21 -17 0 -92 50 -104 69 -4 7
-48 11 -112 11 l-105 0 31 -35 c22 -25 31 -46 31 -70 0 -35 28 -65 60 -65 19
0 60 -40 60 -58 0 -20 38 -33 80 -26 33 5 47 3 70 -15 37 -26 53 -26 90 0 23
18 37 21 73 16 35 -5 48 -3 61 12 9 10 16 22 16 28 0 16 32 40 72 52 39 13 48
26 48 74 0 20 9 41 27 59 l27 28 -105 0 c-101 0 -107 -1 -130 -26 -32 -35 -96
-64 -139 -63 -32 1 -31 2 11 9 88 15 139 57 159 131 21 77 -13 156 -85 196
-43 25 -41 32 3 9 15 -8 36 -23 46 -35 17 -19 30 -21 130 -21 l111 0 -29 24
c-23 18 -31 34 -35 72 -6 47 -7 49 -49 63 -32 10 -50 24 -68 53 -25 39 -26 40
-72 33 -39 -5 -52 -3 -74 14 -33 26 -66 26 -98 0z m-8 -114 c5 -39 -6 -34 -16
8 -3 15 -2 27 3 27 5 0 11 -16 13 -35z m137 13 c1 6 6 12 11 12 6 0 4 -13 -5
-30 -20 -39 -25 -38 -24 8 0 30 2 33 9 17 5 -11 9 -14 9 -7z m-182 -14 c0 -15
7 -30 15 -35 9 -6 9 -9 1 -9 -16 0 -36 38 -29 56 8 20 11 17 13 -12z m226 -4
c-3 -11 -10 -20 -15 -20 -6 0 -7 -8 -3 -17 4 -13 3 -15 -5 -7 -8 8 -8 18 1 37
14 32 29 36 22 7z m29 -30 c-23 -41 -33 -38 -13 4 9 18 19 32 23 30 4 -3 -1
-18 -10 -34z m-282 -1 c0 -18 -4 -28 -10 -24 -6 4 -8 16 -5 28 2 12 2 16 -1 9
-3 -6 -10 -10 -15 -6 -16 10 -10 24 11 24 16 0 20 -7 20 -31z m199 -77 c40
-20 67 -54 80 -99 9 -33 9 -33 -24 -33 -33 0 -34 1 -28 35 3 21 1 41 -7 50
-15 18 -61 20 -78 3 -9 -9 -15 -9 -24 0 -7 7 -24 12 -38 12 -32 0 -50 -17 -50
-47 0 -18 6 -23 26 -23 21 0 25 4 21 20 -3 11 -1 20 4 20 5 0 9 -11 9 -25 0
-16 -6 -25 -15 -25 -8 0 -15 -4 -15 -8 0 -4 -19 -9 -41 -11 -41 -2 -42 -2 -36
28 10 48 37 82 82 102 51 23 91 24 134 1z m-9 -78 c0 -33 -20 -54 -52 -54 -26
0 -29 2 -18 15 7 8 21 15 31 15 12 0 19 7 19 20 0 11 5 20 10 20 6 0 10 -7 10
-16z m83 -299 c8 -16 4 -15 -14 5 -15 15 -20 28 -14 32 5 4 12 2 14 -5 2 -7 8
-21 14 -32z m-238 21 c7 3 16 1 19 -5 4 -6 13 -8 21 -4 17 6 21 -32 6 -56 -13
-20 -32 -3 -25 24 7 29 -12 42 -25 16 -8 -14 -8 -21 2 -24 7 -3 5 -6 -6 -6
-14 -1 -16 4 -12 27 6 26 6 26 -9 8 -19 -23 -21 -14 -4 17 6 13 13 17 15 10 3
-7 10 -10 18 -7z m198 -30 c-3 -4 1 -12 8 -17 10 -6 10 -9 2 -9 -13 0 -33 31
-33 50 0 7 5 6 14 -2 8 -7 12 -17 9 -22z m-36 10 c-3 -7 0 -19 6 -25 8 -8 8
-14 0 -22 -8 -8 -13 -7 -18 2 -5 8 -4 10 3 5 17 -10 15 9 -3 24 -15 13 -12 30
7 30 5 0 8 -6 5 -14z m-64 -4 c4 9 5 9 6 -2 0 -21 -17 -59 -18 -40 -1 13 -2
13 -11 0 -7 -11 -10 -7 -10 19 0 28 2 31 14 22 11 -9 15 -9 19 1z"/>
<path d="M950 2009 c0 -5 5 -7 10 -4 6 3 10 8 10 11 0 2 -4 4 -10 4 -5 0 -10
-5 -10 -11z"/>
<path d="M947 1630 c-3 -11 -1 -20 4 -20 5 0 9 9 9 20 0 11 -2 20 -4 20 -2 0
-6 -9 -9 -20z"/>
<path d="M2666 2261 c-3 -5 -15 -7 -26 -4 -11 3 -20 0 -20 -6 0 -6 -7 -11 -15
-11 -8 0 -15 -9 -15 -20 0 -11 -5 -20 -11 -20 -6 0 -9 -9 -6 -20 3 -11 1 -23
-4 -26 -6 -4 -6 -11 1 -19 14 -17 17 -70 6 -108 -8 -26 -7 -27 17 -18 20 8 29
6 43 -10 21 -24 34 -24 34 -1 1 15 2 15 16 -3 16 -20 16 -20 31 2 12 18 19 20
40 12 34 -13 37 -8 18 37 -10 25 -12 40 -5 44 6 4 8 14 5 22 -4 9 1 18 11 22
12 5 14 9 5 20 -6 7 -9 20 -6 28 4 9 -1 18 -10 22 -9 3 -13 10 -10 16 3 6 -2
13 -12 17 -10 4 -20 10 -23 13 -9 12 -59 20 -64 11z m69 -46 c42 -41 31 -105
-22 -133 -33 -18 -59 -14 -89 12 -21 18 -28 32 -28 61 0 74 88 112 139 60z
m-82 -169 c10 -8 15 -20 11 -30 -6 -15 -8 -15 -24 -1 -9 8 -25 13 -34 9 -17
-6 -20 3 -10 29 6 16 29 13 57 -7z m116 -20 c1 -4 -9 -6 -21 -3 -14 4 -26 0
-34 -11 -14 -19 -19 -17 -28 15 -6 18 -4 22 8 17 9 -3 16 -1 16 4 0 6 10 12
23 14 20 3 34 -11 36 -36z"/>
<path d="M2633 2215 c-49 -34 -31 -117 28 -130 69 -15 117 69 68 121 -26 27
-65 31 -96 9z m67 -55 c0 -43 -3 -50 -20 -50 -16 0 -20 7 -20 30 0 22 -4 28
-15 24 -22 -9 -18 5 8 27 37 31 47 24 47 -31z"/>
<path d="M1675 2200 c-10 -11 -30 -20 -45 -20 -30 0 -40 -15 -40 -59 0 -15 -4
-31 -10 -37 -6 -6 -6 -22 1 -44 22 -68 16 -65 140 -65 l113 0 13 44 c10 35 10
55 0 100 -11 51 -15 56 -42 59 -16 2 -35 12 -43 23 -17 25 -64 25 -87 -1z m59
4 c28 -11 17 -24 -20 -24 -31 0 -35 2 -24 15 14 17 21 18 44 9z m94 -81 l3
-43 -41 0 c-22 0 -50 -6 -61 -12 -17 -10 -23 -10 -26 0 -3 7 -24 12 -54 12
-53 0 -54 2 -43 59 l7 32 106 -3 106 -3 3 -42z m-186 -103 c3 -16 1 -30 -4
-30 -4 0 -8 14 -8 30 0 17 2 30 4 30 2 0 6 -13 8 -30z m40 0 c3 -16 1 -30 -4
-30 -4 0 -8 14 -8 30 0 17 2 30 4 30 2 0 6 -13 8 -30z m48 -6 c0 -13 -4 -24
-10 -24 -5 0 -10 14 -10 31 0 17 4 28 10 24 6 -3 10 -17 10 -31z m40 6 c0 -16
-4 -30 -10 -30 -5 0 -10 14 -10 30 0 17 5 30 10 30 6 0 10 -13 10 -30z m40 0
c0 -16 -4 -30 -10 -30 -11 0 -14 43 -3 53 11 12 13 8 13 -23z"/>
<path d="M1631 2128 c0 -28 2 -30 9 -13 12 28 12 45 0 45 -5 0 -10 -15 -9 -32z"/>
<path d="M1670 2131 c0 -17 2 -31 4 -31 8 0 13 51 5 56 -5 3 -9 -9 -9 -25z"/>
<path d="M1710 2131 c0 -17 5 -31 10 -31 6 0 10 11 10 24 0 14 -4 28 -10 31
-6 4 -10 -7 -10 -24z"/>
<path d="M1750 2131 c0 -17 5 -31 10 -31 6 0 10 11 10 24 0 14 -4 28 -10 31
-6 4 -10 -7 -10 -24z"/>
<path d="M1790 2133 c0 -18 5 -33 10 -33 13 0 13 30 0 50 -7 11 -10 7 -10 -17z"/>
<path d="M2180 2175 c0 -19 24 -30 41 -19 9 5 7 11 -6 21 -24 17 -35 17 -35
-2z"/>
<path d="M2136 2171 c-4 -5 -2 -12 4 -16 5 -3 10 -3 10 2 0 4 4 1 10 -7 5 -8
11 -12 15 -9 3 3 -3 14 -14 23 -11 10 -21 13 -25 7z"/>
<path d="M2240 2164 c0 -9 5 -14 12 -12 18 6 21 28 4 28 -9 0 -16 -7 -16 -16z"/>
<path d="M213 2155 c-34 -14 -43 -38 -21 -52 7 -4 52 -8 100 -9 69 -1 91 3
102 15 8 9 12 22 8 28 -20 33 -131 43 -189 18z"/>
<path d="M2092 2139 c6 -26 58 -39 58 -14 0 8 -6 15 -14 15 -8 0 -22 3 -31 6
-10 4 -15 2 -13 -7z"/>
<path d="M2276 2135 c4 -8 12 -15 20 -15 8 0 14 7 14 15 0 8 -9 15 -20 15 -13
0 -18 -5 -14 -15z"/>
<path d="M2207 2134 c-13 -13 -7 -24 14 -24 11 0 19 5 17 12 -5 14 -22 21 -31
12z"/>
<path d="M2166 2121 c-4 -5 -2 -12 3 -15 5 -4 12 -2 15 3 4 5 2 12 -3 15 -5 4
-12 2 -15 -3z"/>
<path d="M2250 2119 c0 -5 5 -7 10 -4 6 3 10 8 10 11 0 2 -4 4 -10 4 -5 0 -10
-5 -10 -11z"/>
<path d="M160 2067 c0 -31 6 -49 20 -62 25 -22 27 -20 31 27 3 30 -2 41 -24
58 l-27 21 0 -44z"/>
<path d="M397 2087 c-20 -16 -47 -22 -97 -25 -65 -4 -71 -6 -77 -30 -10 -40
29 -66 89 -59 89 11 125 44 116 110 l-3 24 -28 -20z m-7 -57 c0 -5 -4 -10 -10
-10 -5 0 -10 5 -10 10 0 6 5 10 10 10 6 0 10 -4 10 -10z m-115 -10 c3 -5 -1
-10 -10 -10 -9 0 -13 5 -10 10 3 6 8 10 10 10 2 0 7 -4 10 -10z m55 0 c0 -5
-4 -10 -10 -10 -5 0 -10 5 -10 10 0 6 5 10 10 10 6 0 10 -4 10 -10z"/>
<path d="M2075 2098 c-48 -132 -52 -128 124 -128 75 0 142 4 150 9 12 8 11 18
-5 68 -18 56 -20 58 -49 53 -47 -7 -157 -6 -188 3 -19 5 -29 4 -32 -5z m254
-49 c18 -61 23 -59 -129 -59 -77 0 -140 3 -140 6 0 3 5 24 11 47 l10 42 119 0
118 0 11 -36z"/>
<path d="M719 1933 c-10 -2 -19 -13 -22 -24 -3 -12 -14 -19 -31 -19 -18 0 -32
-11 -51 -37 -14 -21 -25 -41 -25 -45 0 -5 57 -8 126 -8 115 0 125 1 120 18 -3
9 -8 29 -11 44 -11 45 -65 82 -106 71z m78 -40 c-4 -3 -10 -3 -14 0 -3 4 0 7
7 7 7 0 10 -3 7 -7z"/>
<path d="M1257 1933 c-13 -3 -17 -11 -14 -24 4 -15 0 -19 -19 -19 -18 0 -24
-5 -24 -22 0 -13 -3 -33 -6 -45 -6 -23 -6 -23 121 -23 l127 0 -25 43 c-18 29
-33 43 -51 45 -14 2 -31 12 -37 23 -5 11 -14 17 -20 14 -5 -4 -9 -1 -9 4 0 11
-11 12 -43 4z"/>
<path d="M1714 1792 l-82 -3 -7 -32 c-4 -18 -9 -77 -12 -133 l-4 -101 30 -13
c29 -12 60 -10 159 7 l32 5 -1 77 c0 70 -18 185 -29 193 -3 2 -42 2 -86 0z
m94 -83 c7 -28 12 -79 12 -114 l0 -63 -32 -5 c-18 -3 -54 -9 -80 -13 l-48 -6
0 83 c0 46 -4 101 -9 121 l-9 37 42 4 c117 10 111 13 124 -44z"/>
<path d="M1744 1647 c-8 -21 2 -35 16 -21 5 5 6 15 0 24 -8 12 -10 12 -16 -3z"/>
<path d="M1700 1641 c0 -5 7 -14 15 -21 13 -10 15 -9 15 9 0 12 -6 21 -15 21
-8 0 -15 -4 -15 -9z"/>
<path d="M1776 1633 c-9 -9 -7 -33 3 -33 12 0 22 28 12 34 -5 3 -11 3 -15 -1z"/>
<path d="M1680 1606 c0 -9 7 -16 16 -16 17 0 14 22 -4 28 -7 2 -12 -3 -12 -12z"/>
<path d="M1715 1590 c-26 -29 -13 -51 27 -44 46 9 55 20 33 44 -23 25 -37 25
-60 0z"/>
<path d="M2130 1787 c0 -9 -10 -12 -30 -9 -28 4 -30 2 -30 -31 0 -28 7 -41 35
-64 94 -75 104 -95 60 -115 -18 -8 -25 -19 -25 -40 0 -28 1 -28 60 -28 60 0
60 0 60 30 0 17 -4 30 -9 30 -19 0 -39 30 -34 51 3 11 22 31 42 43 42 27 66
53 75 81 9 30 -8 49 -38 43 -18 -4 -26 -1 -26 8 0 11 -18 14 -70 14 -51 0 -70
-4 -70 -13z m120 -51 c0 -36 -5 -58 -15 -66 -14 -11 -14 -10 -5 16 6 15 8 45
5 66 -5 25 -3 38 4 38 7 0 11 -22 11 -54z m-136 28 c11 -4 16 -19 16 -47 0
-39 0 -40 -20 -22 -22 20 -34 50 -25 65 7 12 8 12 29 4z m204 -16 c2 -9 -8
-29 -22 -44 l-25 -29 -1 42 c0 39 11 55 35 49 6 -2 11 -10 13 -18z m-78 -218
c0 -17 -7 -20 -40 -20 -33 0 -40 3 -40 20 0 17 7 20 40 20 33 0 40 -3 40 -20z"/>
<path d="M2724 1739 c-17 -5 -39 -18 -49 -29 -23 -26 -51 -26 -58 1 -4 16 -12
20 -34 17 -22 -2 -28 -8 -28 -28 0 -21 5 -25 30 -27 61 -3 58 -2 45 -18 -7 -8
-18 -15 -26 -15 -7 0 -18 -9 -24 -19 -7 -15 -6 -24 6 -36 14 -14 19 -14 38 -2
11 8 21 23 21 33 0 32 13 44 39 34 24 -9 82 0 107 16 9 6 -4 11 -41 14 l-55 5
43 23 c63 34 56 51 -14 31z m-116 -36 c5 -17 -26 -29 -40 -15 -6 6 -7 15 -3
22 9 14 37 9 43 -7z m22 -93 c0 -13 -7 -20 -20 -20 -19 0 -27 20 -13 33 13 14
33 6 33 -13z"/>
<path d="M222 1669 c-34 -28 -62 -55 -62 -60 0 -25 27 -15 76 26 l55 47 36
-29 c84 -66 84 -66 96 -54 9 9 7 16 -9 29 -12 9 -42 34 -66 55 -25 20 -49 37
-54 37 -5 0 -37 -23 -72 -51z"/>
<path d="M253 1635 c-36 -31 -41 -41 -45 -85 -3 -46 -1 -50 20 -50 19 0 22 5
22 39 0 44 18 64 52 59 20 -3 23 -10 26 -50 3 -44 5 -48 28 -48 24 0 25 2 22
51 -3 47 -7 55 -44 85 l-41 34 -40 -35z"/>
<path d="M2725 1623 c-31 -8 -43 -22 -38 -43 3 -11 3 -20 1 -20 -3 0 -29 -5
-58 -10 -55 -11 -84 -26 -74 -41 9 -14 38 -10 89 12 48 21 56 19 68 -15 4 -10
87 14 87 26 0 5 -6 6 -12 2 -9 -5 -9 -2 1 9 12 15 11 17 -5 17 -16 0 -17 2 -4
10 12 8 12 10 -5 10 -17 0 -18 2 -5 11 11 8 12 12 2 16 -6 2 -10 9 -6 14 5 9
-7 10 -41 2z"/>
<path d="M2092 1313 c-7 -3 -18 -15 -23 -27 -5 -11 -16 -32 -24 -46 -52 -89
42 -220 157 -220 85 0 168 82 168 166 0 39 -28 98 -58 122 -16 12 -192 16
-220 5z m195 -9 c48 -13 8 -24 -87 -24 -90 0 -137 12 -93 23 27 7 155 8 180 1z
m59 -71 c-2 -3 -13 0 -23 5 -12 7 -25 7 -36 1 -11 -6 -23 -6 -36 0 -10 6 -22
7 -26 3 -3 -4 -42 -7 -86 -7 -65 0 -79 3 -76 15 2 12 19 15 92 12 50 -1 106 2
125 7 29 7 38 5 53 -12 10 -11 16 -22 13 -24z m0 -15 c3 -4 -38 -5 -90 -5 -67
2 -92 -1 -83 -8 8 -5 53 -10 100 -9 100 1 102 -2 65 -76 -59 -117 -221 -113
-278 5 -26 54 -23 87 8 95 31 7 270 5 278 -2z"/>
<path d="M2090 1155 c0 -18 6 -22 33 -23 49 -1 77 7 77 23 0 16 -4 17 -67 20
-38 1 -43 -2 -43 -20z"/>
<path d="M2183 1114 c-10 -28 36 -44 67 -24 9 5 19 5 27 -2 10 -8 13 -5 13 13
0 22 -5 24 -50 26 -38 2 -52 -2 -57 -13z"/>
<path d="M2665 1305 c-41 -15 -145 -115 -145 -140 0 -7 28 -43 63 -81 50 -53
67 -66 82 -60 18 6 17 9 -9 30 -28 22 -28 22 -21 107 7 82 20 137 30 127 3 -3
1 -28 -5 -55 -6 -28 -10 -77 -8 -109 l3 -59 13 94 c13 97 38 168 28 81 -17
-151 -19 -183 -9 -177 6 4 14 41 18 84 9 102 27 143 20 47 -3 -39 -8 -85 -11
-102 -6 -29 -4 -31 29 -37 45 -9 60 0 55 35 -3 21 -1 26 13 23 11 -3 18 3 22
19 16 58 1 92 -30 66 -15 -12 -15 -11 -3 8 19 31 5 71 -33 94 -38 23 -49 24
-102 5z m-45 -120 l-7 -80 -1 76 c-1 42 1 79 5 82 10 11 10 7 3 -78z m-34 -4
c-4 -6 -13 -11 -19 -10 -9 0 -9 2 1 6 6 2 12 9 12 14 0 6 -5 7 -12 3 -7 -5 -8
-3 -3 5 5 9 11 9 17 3 6 -6 7 -15 4 -21z m167 -24 c-3 -23 -10 -49 -15 -57 -6
-10 -8 -4 -4 19 3 18 6 47 6 63 0 16 4 27 9 24 5 -3 7 -25 4 -49z"/>
<path d="M1772 1282 l-32 -27 0 -97 c0 -59 -4 -98 -10 -98 -6 0 -10 35 -10 84
0 89 -11 116 -50 116 -39 0 -50 -27 -50 -116 0 -92 -17 -116 -22 -32 -2 41 -7
54 -20 56 -16 3 -18 -5 -18 -60 0 -68 10 -88 46 -88 43 0 54 24 54 116 0 49 4
84 10 84 6 0 10 -35 10 -84 0 -92 11 -116 54 -116 39 0 46 18 46 123 l0 99 28
-7 c22 -4 33 0 51 19 l22 24 -22 16 c-32 22 -49 20 -87 -12z"/>
<path d="M286 1269 c-8 -43 -8 -49 5 -49 5 0 7 4 4 10 -3 5 -1 19 5 31 8 13 8
25 2 31 -6 6 -12 -2 -16 -23z"/>
<path d="M880 1275 c-21 -22 -25 -23 -50 -10 -26 13 -28 12 -89 -49 -55 -56
-60 -64 -46 -76 14 -12 14 -15 1 -28 -12 -13 -18 -13 -31 -2 -8 7 -18 10 -22
6 -9 -9 78 -97 89 -90 5 3 2 14 -7 24 -14 15 -14 18 0 30 12 10 18 10 31 -1
13 -11 24 -4 75 47 57 57 60 62 48 87 -11 24 -10 30 11 52 13 14 21 27 18 30
-2 3 -15 -6 -28 -20z m-57 -137 l-53 -52 -34 33 c-37 36 -38 56 -3 45 19 -6
20 -5 10 8 -17 19 -4 31 15 15 13 -10 15 -9 9 6 -10 27 2 41 21 25 14 -11 15
-10 9 5 -14 37 6 39 42 3 l36 -36 -52 -52z"/>
<path d="M246 1259 c-4 -20 -2 -37 5 -43 8 -8 10 -7 7 4 -3 8 -1 23 4 34 6 11
6 22 0 28 -6 6 -12 -3 -16 -23z"/>
<path d="M326 1248 c-8 -32 -7 -48 3 -48 12 0 22 53 12 63 -5 5 -11 -2 -15
-15z"/>
<path d="M1205 1251 c-9 -11 -33 -21 -54 -23 l-36 -3 0 -100 0 -100 133 -3
133 -3 -3 103 -3 103 -33 3 c-18 2 -42 12 -53 23 -24 24 -61 24 -84 0z m75
-11 c0 -5 -16 -10 -36 -10 -21 0 -33 4 -29 10 3 6 19 10 36 10 16 0 29 -4 29
-10z m85 -115 l0 -90 -120 0 -120 0 -3 84 c-2 61 1 87 10 93 7 4 63 7 123 6
l110 -3 0 -90z"/>
<path d="M1230 1160 c0 -13 -7 -20 -20 -20 -13 0 -20 -7 -20 -20 0 -13 7 -20
20 -20 13 0 20 -7 20 -20 0 -12 7 -20 16 -20 9 0 18 9 21 20 3 11 12 20 19 20
8 0 14 9 14 20 0 11 -7 20 -15 20 -8 0 -15 9 -15 20 0 13 -7 20 -20 20 -13 0
-20 -7 -20 -20z"/>
<path d="M232 1184 c-24 -17 -29 -53 -10 -72 9 -9 7 -12 -10 -12 -24 0 -45
-31 -36 -54 9 -22 36 -27 133 -24 67 2 86 7 95 21 14 22 -2 49 -35 57 -16 4
-20 8 -11 14 34 21 -8 59 -56 50 -32 -6 -35 -5 -29 15 6 25 -9 27 -41 5z"/>
<path d="M1281 853 c-1 -8 -15 -13 -36 -13 -38 0 -95 -24 -95 -40 0 -6 -9 -10
-19 -10 -11 0 -27 -10 -36 -22 -15 -22 -15 -23 17 -29 18 -4 25 -7 16 -8 -24
-1 -23 -22 1 -28 12 -3 21 -17 25 -38 4 -18 14 -39 22 -46 14 -12 14 -14 -1
-25 -20 -15 -6 -25 24 -17 17 4 19 8 9 14 -9 6 -7 9 10 9 13 0 22 -6 22 -15 0
-8 -4 -15 -10 -15 -5 0 -10 -4 -10 -10 0 -5 13 -8 29 -7 28 2 29 3 13 20 -14
16 -14 19 -2 27 12 8 9 15 -17 39 -23 21 -30 35 -26 50 8 30 21 26 15 -4 -3
-17 1 -27 12 -31 21 -8 46 -55 46 -86 0 -15 3 -19 11 -11 18 18 22 115 5 168
-15 50 -15 52 19 70 6 3 5 7 -2 11 -7 3 -9 13 -6 21 5 12 2 15 -10 10 -10 -4
-17 0 -20 11 -3 9 -5 11 -6 5z m-61 -58 c6 -8 9 -19 5 -25 -8 -13 -45 -13 -45
0 0 5 7 7 16 3 12 -4 15 -2 12 8 -3 8 -11 13 -17 11 -7 -1 -10 2 -6 8 9 14 20
13 35 -5z"/>
<path d="M2619 844 c-7 -9 -13 -29 -14 -45 0 -32 -17 -40 -25 -12 -6 23 -27
27 -46 9 -18 -18 -8 -46 16 -46 11 0 22 -5 25 -11 4 -6 13 -8 21 -5 8 3 14 -1
14 -8 0 -7 9 -25 21 -40 11 -14 16 -26 10 -26 -6 0 -11 -11 -11 -24 0 -13 -6
-26 -12 -28 -9 -3 -8 -10 5 -22 16 -17 19 -17 43 -1 l26 17 -21 15 c-30 20
-17 33 32 33 65 0 92 -19 92 -63 0 -41 15 -44 29 -5 15 43 1 72 -49 96 -48 23
-62 48 -21 38 17 -4 26 -1 30 10 8 21 8 20 -10 38 -21 21 -31 20 -37 -4 -3
-11 -12 -20 -21 -20 -9 0 -16 -5 -16 -11 0 -5 -4 -7 -10 -4 -15 9 -12 25 5 25
8 0 15 6 15 14 0 7 9 16 19 19 14 3 18 11 14 25 -5 20 -43 38 -43 20 0 -5 -5
-6 -10 -3 -7 4 -9 -2 -4 -19 5 -20 2 -26 -10 -26 -10 0 -13 6 -9 16 6 16 -15
64 -27 64 -4 0 -14 -7 -21 -16z"/>
<path d="M1633 843 c-7 -3 -13 -18 -13 -35 0 -18 -10 -42 -25 -60 -25 -30 -31
-49 -18 -62 4 -4 8 -25 9 -47 4 -82 56 -109 180 -93 67 8 79 23 88 115 5 57 3
70 -14 92 -11 14 -20 36 -20 50 0 35 -22 50 -46 32 -24 -18 -78 -19 -107 -1
-12 7 -28 12 -34 9z m35 -26 c14 -17 85 -15 106 2 20 17 39 4 32 -22 -3 -13 4
-31 20 -50 20 -23 23 -36 19 -66 -3 -20 -8 -50 -11 -67 -2 -18 -11 -37 -19
-44 -15 -13 -55 -5 -55 11 0 6 10 7 23 4 17 -6 19 -4 11 5 -16 17 -49 8 -48
-13 1 -13 -6 -17 -31 -17 -28 0 -32 3 -28 20 4 16 0 20 -21 20 -14 0 -26 -4
-26 -9 0 -5 10 -7 23 -3 20 5 21 4 8 -11 -33 -41 -66 -3 -75 89 -5 56 -3 63
19 84 18 17 23 29 18 51 -4 22 -2 29 10 29 8 0 19 -6 25 -13z"/>
<path d="M1675 750 c3 -5 11 -10 16 -10 6 0 7 5 4 10 -3 6 -11 10 -16 10 -6 0
-7 -4 -4 -10z"/>
<path d="M1740 750 c0 -5 5 -10 10 -10 6 0 10 5 10 10 0 6 -4 10 -10 10 -5 0
-10 -4 -10 -10z"/>
<path d="M1706 705 c-4 -10 1 -15 14 -15 13 0 18 5 14 15 -4 8 -10 15 -14 15
-4 0 -10 -7 -14 -15z"/>
<path d="M1660 668 l25 -11 -25 -7 c-22 -6 -23 -8 -7 -15 10 -4 23 -3 29 3 16
16 1 42 -24 41 -23 0 -23 0 2 -11z"/>
<path d="M1751 666 c-17 -20 11 -41 36 -27 16 9 15 10 -7 11 -24 1 -24 1 -6
15 16 12 17 15 4 15 -8 0 -21 -6 -27 -14z"/>
<path d="M225 827 c-9 -7 -15 -20 -14 -28 2 -7 -11 -28 -29 -46 -31 -31 -32
-33 -32 -122 l0 -91 95 0 95 0 0 91 c0 89 -1 91 -32 122 -18 18 -31 40 -30 49
4 24 -31 41 -53 25z m33 -24 c-4 -22 -22 -20 -26 1 -2 10 3 16 13 16 10 0 15
-7 13 -17z m12 -140 l0 -73 -31 0 -32 0 5 68 c3 37 11 79 18 92 12 23 13 23
26 5 9 -12 14 -46 14 -92z m-68 10 c-4 -73 -6 -83 -23 -83 -29 0 -27 107 2
144 12 15 22 26 23 24 1 -2 0 -40 -2 -85z m128 -24 c0 -52 -2 -59 -20 -59 -18
0 -20 7 -20 54 0 29 -3 69 -6 87 l-6 34 26 -28 c22 -24 26 -38 26 -88z"/>
<path d="M376 815 c-4 -16 -13 -25 -26 -25 -11 0 -20 -7 -20 -15 0 -22 38 -18
45 4 9 29 28 42 45 29 12 -8 11 -9 -4 -4 -15 5 -17 4 -7 -8 16 -19 3 -46 -21
-46 -11 0 -18 -5 -15 -12 2 -7 12 -13 22 -13 13 0 23 13 33 43 13 40 13 44 -4
57 -28 21 -41 18 -48 -10z"/>
<path d="M2160 799 c0 -6 -9 -8 -20 -4 -14 5 -20 2 -20 -9 0 -9 -7 -16 -15
-16 -8 0 -15 -7 -15 -15 0 -8 -7 -15 -16 -15 -11 0 -14 -6 -9 -20 4 -12 2 -20
-5 -20 -7 0 -9 -7 -6 -16 4 -9 2 -22 -4 -29 -8 -9 -6 -14 6 -19 13 -5 14 -9 4
-21 -10 -12 -9 -16 4 -21 10 -4 15 -12 12 -19 -3 -10 18 -16 77 -24 95 -14
136 -5 179 36 30 29 37 49 14 40 -13 -5 -46 21 -46 35 0 3 10 8 23 12 18 5 19
8 7 16 -8 5 -15 17 -15 27 -1 10 -6 17 -13 16 -7 -2 -12 6 -12 18 0 14 -5 19
-14 16 -9 -4 -16 3 -20 15 -4 18 -7 19 -20 8 -13 -10 -16 -10 -16 4 0 19 -16
21 -24 4 -5 -10 -7 -10 -12 0 -7 15 -24 16 -24 1z m143 -168 l28 -26 -26 -22
c-16 -14 -39 -23 -60 -23 -33 0 -33 0 -22 30 9 25 9 33 -2 39 -8 5 -11 16 -8
25 9 23 54 11 90 -23z"/>
<path d="M2275 631 c-3 -5 -1 -12 5 -16 5 -3 10 1 10 9 0 18 -6 21 -15 7z"/>
<path d="M710 780 c0 -18 7 -20 60 -20 53 0 60 2 60 20 0 18 -7 20 -60 20 -53
0 -60 -2 -60 -20z"/>
<path d="M693 723 c-21 -14 -23 -24 -23 -93 0 -91 -1 -90 100 -90 101 0 100
-1 100 90 0 72 -2 79 -25 94 -37 24 -42 19 -11 -13 24 -25 27 -34 24 -87 l-3
-59 -74 -3 c-91 -4 -130 10 -51 18 l55 5 0 50 0 50 -50 5 c-47 5 -48 6 -27 18
12 7 22 17 22 22 0 14 -11 12 -37 -7z"/>
<path d="M1326 594 c-4 -14 -4 -29 -1 -34 8 -12 85 -13 85 -1 0 4 -18 20 -39
34 l-39 26 -6 -25z"/>
<path d="M1766 385 c-3 -8 -1 -27 4 -41 16 -41 12 -45 -22 -24 -89 54 -191 -7
-191 -115 0 -79 52 -135 125 -135 l33 1 -30 16 c-75 39 -87 73 -25 73 22 0 40
5 40 10 0 6 -7 10 -15 10 -8 0 -15 9 -15 19 0 11 -3 26 -6 35 -5 12 0 16 20
16 36 0 78 -23 109 -60 31 -36 37 -37 38 -7 l0 22 16 -22 c23 -33 36 -28 18 7
-19 36 -19 97 0 130 8 14 14 37 15 53 0 26 -2 27 -54 27 -39 0 -55 -4 -60 -15z
m102 -27 c2 -9 -8 -24 -22 -33 -32 -21 -66 -6 -66 31 0 23 3 25 42 22 31 -2
44 -8 46 -20z"/>
<path d="M1790 346 c0 -16 2 -18 9 -7 6 9 18 12 36 7 19 -5 26 -3 23 6 -3 7
-19 13 -36 14 -27 1 -32 -2 -32 -20z"/>
<path d="M2165 381 c-3 -10 -3 -26 1 -35 4 -12 0 -16 -15 -16 -71 0 -118 -55
-108 -127 17 -120 49 -157 106 -121 15 9 28 9 57 0 44 -13 74 -2 74 28 0 13 7
20 19 20 35 0 50 11 61 45 14 43 -8 100 -44 117 -19 8 -26 19 -26 40 0 58 -41
93 -55 47 l-7 -21 -22 21 c-27 26 -33 26 -41 2z m71 -74 c29 -56 43 -58 19 -1
-8 20 -13 45 -9 56 10 33 23 19 26 -29 3 -41 6 -48 25 -51 30 -4 53 -39 53
-77 0 -38 -16 -55 -51 -55 -27 0 -44 -21 -40 -49 2 -13 -23 -12 -96 6 -15 3
-25 0 -29 -11 -3 -9 -12 -16 -19 -16 -15 0 -50 38 -42 46 3 4 0 19 -8 35 -19
36 -19 72 0 108 16 33 33 41 81 41 27 0 36 -6 49 -30 15 -30 55 -59 55 -41 0
6 -7 14 -15 18 -19 11 -55 81 -55 106 0 30 26 3 56 -56z"/>
<path d="M2290 215 c0 -8 7 -15 15 -15 8 0 15 7 15 15 0 8 -7 15 -15 15 -8 0
-15 -7 -15 -15z"/>
<path d="M2698 382 c-8 -12 -31 -21 -58 -25 -35 -4 -53 -14 -77 -41 -29 -31
-33 -43 -33 -91 0 -101 39 -155 113 -155 39 0 87 34 87 63 0 35 -65 62 -76 32
-9 -22 4 -48 18 -39 9 6 9 9 0 12 -17 5 -15 22 2 22 24 0 26 -29 3 -45 -12 -8
-26 -15 -32 -15 -20 0 -53 44 -57 74 -4 37 19 46 28 12 7 -29 19 -34 28 -10 8
22 8 24 -8 24 -9 0 -12 8 -9 24 4 18 10 22 25 19 12 -4 17 -11 13 -20 -3 -10
-1 -13 9 -10 8 3 17 1 19 -6 2 -7 7 -9 11 -6 3 3 -4 19 -16 34 l-22 28 30 -7
c77 -17 89 -17 109 -1 19 15 19 16 -15 14 -50 -3 -70 0 -70 9 0 4 17 6 38 4
22 -2 45 3 57 11 17 13 18 18 7 41 -13 28 -66 66 -94 66 -9 0 -23 -8 -30 -18z
m92 -57 c-9 -11 -9 -15 -1 -15 7 0 9 -5 5 -11 -4 -7 -11 -6 -21 4 -17 17 -10
37 14 37 13 0 13 -3 3 -15z"/>
<path d="M1308 379 c-25 -14 -22 -24 7 -37 35 -16 37 -16 33 15 -3 30 -15 37
-40 22z"/>
<path d="M1171 366 c-17 -21 4 -30 29 -13 11 8 17 17 13 20 -11 11 -30 8 -42
-7z"/>
<path d="M710 343 c-32 -12 -71 -59 -81 -96 -8 -29 -7 -53 1 -88 9 -36 9 -53
1 -63 -6 -7 -8 -16 -4 -19 6 -6 282 -10 284 -4 0 1 2 59 5 130 3 92 1 127 -7
127 -8 0 -10 -13 -5 -40 9 -55 -11 -52 -25 5 -6 25 -15 42 -20 40 -4 -3 -4
-17 1 -31 29 -75 -1 -183 -55 -204 -40 -15 -99 10 -121 52 -34 65 -5 138 55
138 63 0 103 -78 62 -119 -26 -26 -43 -27 -67 0 -19 21 -12 50 14 55 7 1 8 0
2 -3 -15 -7 -12 -39 4 -52 22 -18 60 22 50 52 -18 60 -80 78 -110 32 -38 -57
11 -145 80 -145 83 0 109 132 39 201 -28 29 -75 43 -103 32z"/>
<path d="M1165 304 c-41 -55 -45 -92 -11 -131 19 -21 21 -31 13 -45 -6 -9 -8
-20 -4 -24 9 -10 38 16 31 28 -4 6 2 5 14 -1 40 -21 88 -13 115 19 14 16 28
38 32 49 4 12 12 17 24 14 25 -6 35 11 21 37 -14 27 -29 25 -24 -2 2 -13 1
-16 -2 -8 -38 89 -63 110 -133 110 -36 0 -44 -5 -76 -46z m145 7 c39 -28 47
-63 25 -111 -28 -62 -74 -77 -136 -44 -23 12 -29 20 -25 37 3 12 3 16 0 9 -9
-20 -24 -3 -24 27 0 30 41 92 68 103 23 10 62 1 92 -21z"/>
<path d="M1240 320 c0 -5 5 -10 10 -10 6 0 10 5 10 10 0 6 -4 10 -10 10 -5 0
-10 -4 -10 -10z"/>
<path d="M1196 301 c-15 -17 -15 -19 -1 -25 32 -12 46 -7 43 16 -4 29 -21 33
-42 9z"/>
<path d="M1263 305 c-17 -13 -17 -15 -1 -31 20 -20 48 -12 48 15 0 25 -23 33
-47 16z"/>
<path d="M1320 280 c0 -7 3 -10 7 -7 3 4 3 10 0 14 -4 3 -7 0 -7 -7z"/>
<path d="M1167 263 c-12 -12 -7 -41 8 -47 8 -3 20 0 27 7 9 11 15 10 30 -5 22
-22 50 -13 46 16 -2 17 -10 21 -40 22 -21 0 -41 3 -45 7 -8 9 -18 9 -26 0z"/>
<path d="M1294 245 c-6 -15 12 -45 27 -45 15 0 22 42 8 51 -20 13 -29 11 -35
-6z"/>
<path d="M1193 194 c-8 -22 6 -32 52 -38 28 -4 45 0 57 11 22 19 15 33 -18 33
-17 0 -24 -5 -24 -20 0 -11 -5 -20 -11 -20 -5 0 -7 5 -4 10 8 14 -13 40 -32
40 -7 0 -16 -7 -20 -16z"/>
<path d="M182 284 c-20 -14 -22 -24 -22 -103 0 -94 7 -111 50 -111 43 0 50 17
50 111 0 79 -2 89 -22 103 -12 9 -25 16 -28 16 -3 0 -16 -7 -28 -16z m56 -16
c19 -19 16 -147 -5 -170 -18 -20 -33 -24 -33 -8 0 6 7 10 15 10 11 0 15 11 15
39 0 36 -3 40 -27 43 -24 2 -29 8 -31 36 -5 52 34 82 66 50z"/>
<path d="M295 283 c-22 -21 -16 -60 21 -138 32 -66 60 -81 95 -49 25 22 24 31
-8 106 -41 98 -70 120 -108 81z m86 -68 c32 -72 36 -97 15 -115 -20 -16 -45 0
-62 39 -13 30 -12 32 11 43 14 6 25 15 25 20 0 20 -31 67 -47 71 -13 3 -12 5
5 6 19 1 28 -10 53 -64z"/>
<path d="M1094 205 c-9 -23 3 -45 26 -45 23 0 24 1 8 35 -13 28 -26 32 -34 10z"/>
<path d="M1236 102 c-2 -4 -1 -14 3 -21 12 -18 55 -10 59 12 3 13 -3 17 -27
17 -16 0 -32 -4 -35 -8z"/>
</g>
</svg>
