<?xml version="1.0" standalone="no"?>
<!DOCTYPE svg PUBLIC "-//W3C//DTD SVG 20010904//EN"
 "http://www.w3.org/TR/2001/REC-SVG-20010904/DTD/svg10.dtd">
<svg version="1.0" xmlns="http://www.w3.org/2000/svg"
 width="300.000000pt" height="425.000000pt" viewBox="0 0 300.000000 425.000000"
 preserveAspectRatio="xMidYMid meet">
<metadata>
Created by potrace 1.10, written by Peter Selinger 2001-2011
</metadata>
<g transform="translate(0.000000,425.000000) scale(0.100000,-0.100000)"
fill="#000000" stroke="none">
<path d="M1833 2674 c-32 -26 -73 -61 -92 -78 -26 -24 -32 -26 -26 -11 17 44
18 65 2 65 -36 0 -237 -173 -237 -205 0 -7 -13 -24 -28 -37 -23 -18 -32 -39
-47 -105 -12 -54 -23 -83 -32 -83 -10 0 -13 24 -13 103 0 95 -2 105 -22 124
-37 33 -89 37 -141 12 -72 -35 -90 -101 -38 -138 16 -12 36 -21 45 -21 12 0
16 -10 16 -43 0 -39 -4 -46 -50 -82 -42 -34 -55 -51 -79 -116 l-30 -77 25
-183 24 -184 40 -35 c22 -19 40 -38 40 -42 0 -4 -53 -9 -117 -11 -65 -1 104
-4 375 -5 483 -2 492 -2 492 18 0 21 -28 40 -74 49 -27 6 -30 12 -42 69 -15
72 -38 116 -69 130 -16 8 -24 22 -29 58 -9 69 -8 84 8 84 23 0 56 50 56 85 0
46 -33 84 -81 91 -21 4 -39 8 -39 11 0 2 25 28 55 58 66 64 71 93 26 156 l-30
40 69 91 c71 93 140 213 140 242 0 29 -38 17 -97 -30z m87 29 c0 -4 -12 -31
-27 -60 -20 -41 -31 -52 -44 -48 -20 7 -58 -43 -109 -144 -23 -48 -34 -60 -41
-50 -5 8 -9 9 -9 3 0 -6 18 -36 40 -67 22 -30 40 -66 40 -79 0 -33 -97 -129
-105 -105 -3 9 -7 24 -10 33 -3 9 -8 15 -10 12 -3 -3 2 -27 10 -54 8 -27 15
-52 15 -56 0 -5 -38 -8 -85 -8 -70 0 -85 3 -85 16 0 8 -23 39 -51 69 l-51 54
18 78 c15 65 23 83 53 111 37 34 62 47 109 58 27 7 27 7 8 -15 -46 -51 4 -13
103 79 144 135 231 200 231 173z m-200 -75 c0 -21 -140 -145 -182 -161 -21 -9
-38 -12 -38 -8 0 17 193 181 213 181 4 0 7 -6 7 -12z m-423 -168 c7 0 21 -10
33 -22 17 -19 20 -35 20 -120 l0 -98 -60 0 -60 0 0 34 c0 32 3 35 33 38 28 4
25 5 -22 12 -72 12 -106 41 -96 84 5 25 17 38 53 57 26 14 56 22 67 20 11 -3
25 -5 32 -5z m99 -302 c39 -42 55 -71 78 -138 l28 -85 -30 -152 c-28 -140 -33
-156 -69 -202 l-38 -50 -75 -1 -76 0 -47 48 -47 48 -23 177 -23 177 27 72 c22
61 34 79 79 115 48 40 56 43 109 43 57 0 59 -1 107 -52z m59 -27 c-7 -6 -75
60 -75 73 0 6 18 -7 40 -29 22 -21 37 -41 35 -44z m25 -15 c0 -3 13 -41 30
-85 22 -60 26 -81 16 -81 -8 0 -25 31 -40 71 -28 75 -32 99 -16 99 6 0 10 -2
10 -4z m273 -44 c13 -12 15 -17 5 -24 -10 -6 -8 -8 5 -8 9 0 17 -7 17 -15 0
-8 -8 -15 -17 -15 -17 -1 -17 -1 0 -11 18 -10 18 -12 -3 -34 -60 -63 -208 -23
-239 65 -11 34 -24 30 112 32 37 1 67 5 67 10 0 4 -4 8 -10 8 -5 0 -10 5 -10
11 0 15 50 2 73 -19z m-165 -127 c17 -9 50 -19 74 -23 42 -7 43 -9 50 -52 11
-73 8 -232 -5 -269 -22 -62 -47 -72 -175 -69 l-113 3 36 43 c35 41 39 51 69
212 17 94 31 170 32 170 0 0 15 -7 32 -15z m-54 -42 c-20 -113 -52 -265 -58
-270 -18 -19 -16 21 8 151 15 79 30 147 34 150 15 16 22 2 16 -31z m254 -171
c17 -31 25 -65 29 -122 l6 -80 -70 0 -70 0 23 47 c19 37 24 62 24 125 0 70 2
79 17 76 10 -2 28 -22 41 -46z m-336 -139 c-24 -34 -61 -68 -66 -62 -7 6 64
89 76 89 5 0 1 -12 -10 -27z"/>
<path d="M1690 2310 c0 -25 4 -39 10 -35 6 3 10 19 10 35 0 16 -4 32 -10 35
-6 4 -10 -10 -10 -35z"/>
<path d="M1223 2390 c0 -25 2 -35 4 -22 2 12 2 32 0 45 -2 12 -4 2 -4 -23z"/>
<path d="M1227 2159 c-9 -13 -17 -49 -18 -79 l-3 -55 42 -9 c40 -8 43 -7 98
39 l56 48 -34 33 c-24 23 -46 34 -80 39 -41 6 -48 5 -61 -16z"/>
<path d="M1157 2112 c-9 -10 -22 -33 -28 -51 -15 -43 -1 -60 36 -43 22 10 25
18 25 62 0 54 -7 61 -33 32z"/>
<path d="M1363 2014 l-53 -46 0 -63 0 -63 65 -12 c36 -7 68 -10 71 -7 3 2 10
35 16 71 10 62 9 70 -12 116 -13 28 -26 50 -29 50 -3 0 -30 -21 -58 -46z"/>
<path d="M1157 1986 c-16 -12 -17 -23 -12 -78 9 -91 21 -115 58 -122 46 -9 64
15 76 104 9 64 8 77 -6 92 -20 22 -90 24 -116 4z"/>
<path d="M1105 1886 c5 -47 13 -87 17 -91 14 -14 18 36 8 97 -5 34 -10 66 -10
71 0 4 -6 7 -13 7 -10 0 -11 -17 -2 -84z"/>
<path d="M1273 1783 c-16 -24 -14 -71 8 -175 10 -46 12 -48 44 -48 50 0 91 56
105 145 6 37 8 70 6 73 -3 3 -37 10 -76 17 -70 12 -72 12 -87 -12z"/>
<path d="M1134 1756 c-4 -9 -3 -40 0 -70 5 -40 14 -60 34 -79 37 -34 72 -44
71 -20 0 26 -25 163 -30 167 -2 2 -19 7 -37 11 -24 5 -33 3 -38 -9z"/>
</g>
</svg>
