<?xml version="1.0" standalone="no"?>
<!DOCTYPE svg PUBLIC "-//W3C//DTD SVG 20010904//EN"
 "http://www.w3.org/TR/2001/REC-SVG-20010904/DTD/svg10.dtd">
<svg version="1.0" xmlns="http://www.w3.org/2000/svg"
 width="300.000000pt" height="203.000000pt" viewBox="0 0 300.000000 203.000000"
 preserveAspectRatio="xMidYMid meet">
<metadata>
Created by potrace 1.10, written by Peter Selinger 2001-2011
</metadata>
<g transform="translate(0.000000,203.000000) scale(0.100000,-0.100000)"
fill="#000000" stroke="none">
<path d="M130 1812 c-119 -59 -113 -255 11 -367 69 -62 300 -155 387 -155 21
0 20 -2 -12 -62 -52 -96 -102 -241 -125 -363 -13 -68 -33 -134 -52 -173 -30
-62 -42 -73 -139 -135 -24 -16 -40 -37 -53 -72 -34 -92 -59 -227 -60 -335 l-2
-105 135 0 c131 0 135 1 138 22 4 25 -61 103 -85 103 -19 0 -10 64 19 133 29
66 82 108 202 158 55 23 107 46 113 52 9 6 16 1 24 -19 66 -175 144 -343 188
-408 l32 -46 114 0 c69 0 116 4 120 11 20 32 -43 120 -100 139 -29 10 -37 20
-64 88 -33 82 -71 220 -71 257 0 14 8 25 19 28 52 13 193 110 276 189 l92 88
153 -75 c84 -41 155 -76 157 -78 2 -2 -6 -30 -17 -63 -61 -175 -66 -462 -12
-557 l17 -28 115 3 115 3 3 27 c4 32 -57 105 -94 114 -20 5 -24 13 -24 43 1
89 62 255 137 370 25 40 34 46 83 56 30 7 61 14 69 16 10 3 18 -14 27 -56 38
-161 130 -378 215 -505 l44 -65 118 -3 c89 -2 117 0 118 10 5 54 -30 106 -90
132 -36 17 -44 27 -71 93 -39 94 -84 264 -110 420 l-21 122 56 73 c31 40 78
119 106 175 70 146 101 157 301 108 124 -30 144 -31 185 -5 40 24 52 64 30
101 -15 27 -15 28 14 34 44 10 94 65 108 118 22 91 10 109 -88 128 -59 11 -70
18 -148 89 -108 99 -158 125 -243 125 -82 0 -136 -24 -308 -139 -201 -134
-291 -166 -469 -166 -57 0 -167 9 -245 20 -432 62 -600 64 -711 9 -34 -18 -46
-18 -125 -9 -161 20 -265 51 -344 102 -79 50 -120 144 -86 197 14 23 4 51 -19
51 -10 0 -34 -8 -53 -18z m38 -190 c78 -109 249 -180 479 -198 70 -6 89 -4
131 14 110 48 232 47 622 -4 325 -42 504 -33 633 32 28 15 107 65 175 111 255
175 323 178 489 21 40 -38 89 -76 108 -84 27 -11 35 -20 35 -40 0 -15 12 -38
29 -54 28 -29 28 -29 9 -47 -16 -15 -40 -18 -126 -20 -76 -2 -110 -6 -120 -17
-23 -22 -7 -33 58 -39 72 -6 113 -29 108 -60 -4 -32 -64 -33 -182 -2 -197 51
-249 28 -337 -148 -85 -169 -184 -278 -310 -341 -82 -41 -99 -44 -99 -16 0 42
-39 22 -90 -47 -104 -140 -196 -371 -188 -475 3 -40 6 -44 52 -68 74 -37 71
-51 -10 -48 l-68 3 -14 45 c-10 29 -15 90 -15 170 -1 143 20 245 79 392 19 49
32 93 29 98 -14 23 -46 10 -60 -25 l-15 -34 -37 16 c-21 8 -90 41 -153 73
-187 94 -330 126 -439 100 -51 -12 -51 -12 -86 -88 -44 -94 -103 -171 -166
-218 -27 -20 -112 -64 -188 -99 -77 -34 -153 -72 -170 -84 -68 -49 -116 -146
-123 -250 -3 -53 -3 -54 31 -66 60 -20 48 -32 -30 -29 -39 2 -73 5 -75 7 -7 6
17 192 33 257 26 108 47 146 89 166 89 42 155 148 181 288 29 154 55 235 119
367 36 73 61 135 57 139 -4 4 -66 21 -138 38 -261 63 -375 155 -375 305 0 21
8 52 17 70 l17 32 7 -56 c3 -33 15 -69 27 -87z m2759 -149 c9 -23 -13 -39 -32
-23 -23 19 -20 49 6 43 11 -3 23 -12 26 -20z m-1759 -607 c7 -4 -7 -25 -41
-57 -78 -76 -147 -126 -244 -178 l-88 -46 1 -56 c1 -58 45 -205 95 -315 21
-48 33 -63 54 -68 33 -8 75 -35 75 -47 0 -5 -32 -8 -70 -7 l-71 2 -23 41 c-76
130 -194 402 -179 414 4 4 29 24 55 45 59 46 125 131 166 213 17 33 37 64 44
67 18 8 211 1 226 -8z m962 -131 c0 -88 80 -394 135 -519 20 -46 31 -58 67
-74 24 -10 49 -26 56 -35 13 -15 7 -16 -59 -14 l-72 2 -34 53 c-84 131 -172
340 -206 489 l-14 63 42 24 c23 14 47 32 54 40 19 22 31 10 31 -29z"/>
<path d="M2464 1628 c-5 -7 -11 -48 -15 -90 -3 -43 -9 -81 -12 -85 -13 -13
-62 33 -90 85 -27 50 -56 67 -72 42 -18 -28 65 -148 121 -175 32 -15 37 -15
59 -1 31 21 48 76 49 161 1 57 -2 70 -16 73 -9 2 -20 -3 -24 -10z"/>
<path d="M905 1420 c-10 -16 2 -27 36 -34 69 -14 126 -107 109 -181 -7 -31
-17 -50 -55 -101 -12 -16 -1 -28 19 -21 24 10 67 83 73 124 11 84 -35 170
-112 204 -46 21 -61 23 -70 9z"/>
<path d="M741 1349 c-58 -79 -50 -180 19 -249 39 -39 107 -67 123 -51 13 13 0
31 -21 31 -28 0 -81 38 -102 72 -35 58 -22 159 24 197 9 8 16 20 16 27 0 27
-30 13 -59 -27z"/>
<path d="M890 1346 c0 -8 16 -20 35 -26 62 -20 81 -94 38 -142 -9 -10 -13 -24
-8 -35 6 -16 9 -15 31 10 49 57 44 127 -12 176 -36 32 -84 42 -84 17z"/>
<path d="M801 1316 c-33 -35 -38 -101 -12 -144 25 -39 86 -71 102 -55 14 14 3
33 -20 33 -51 0 -85 97 -48 138 18 19 23 52 9 52 -5 0 -19 -11 -31 -24z"/>
<path d="M867 1264 c-25 -25 8 -70 43 -59 32 10 24 59 -10 63 -14 2 -29 0 -33
-4z"/>
<path d="M1840 1055 c0 -2 18 -14 39 -25 53 -26 71 -55 71 -111 0 -35 -6 -52
-25 -73 -25 -27 -32 -46 -17 -46 11 0 46 39 61 67 28 54 1 139 -54 173 -29 18
-75 27 -75 15z"/>
<path d="M1719 1009 c-29 -41 -36 -107 -15 -146 19 -38 71 -83 96 -83 34 0 31
18 -6 30 -72 24 -99 129 -49 188 29 34 31 42 11 42 -8 0 -25 -14 -37 -31z"/>
<path d="M1840 1000 c0 -5 5 -10 10 -10 39 0 66 -84 35 -110 -16 -13 -20 -40
-7 -40 17 0 43 38 48 72 5 27 1 40 -21 66 -25 30 -65 44 -65 22z"/>
<path d="M1760 973 c-17 -21 -20 -36 -16 -63 5 -36 45 -80 72 -80 22 0 17 14
-16 38 -34 25 -41 70 -15 96 8 8 15 19 15 25 0 19 -18 12 -40 -16z"/>
<path d="M1817 944 c-12 -12 -8 -42 6 -47 21 -8 39 8 35 29 -3 19 -29 30 -41
18z"/>
</g>
</svg>
