<?xml version="1.0" standalone="no"?>
<!DOCTYPE svg PUBLIC "-//W3C//DTD SVG 20010904//EN"
 "http://www.w3.org/TR/2001/REC-SVG-20010904/DTD/svg10.dtd">
<svg version="1.0" xmlns="http://www.w3.org/2000/svg"
 width="300.000000pt" height="300.000000pt" viewBox="0 0 300.000000 300.000000"
 preserveAspectRatio="xMidYMid meet">
<metadata>
Created by potrace 1.10, written by Peter Selinger 2001-2011
</metadata>
<g transform="translate(0.000000,300.000000) scale(0.100000,-0.100000)"
fill="#000000" stroke="none">
<path d="M1040 2293 c-8 -3 -86 -76 -172 -161 -165 -164 -179 -185 -163 -249
4 -18 73 -95 183 -205 l176 -178 -176 -177 c-181 -183 -196 -204 -184 -266 9
-46 306 -344 353 -353 62 -12 83 3 266 184 l177 176 178 -176 c182 -181 203
-196 265 -184 46 9 344 306 353 353 12 62 -3 83 -184 266 l-176 177 176 178
c181 182 196 203 184 265 -9 46 -306 344 -353 353 -62 12 -83 -3 -266 -184
l-177 -177 -173 172 c-94 94 -182 176 -194 182 -22 11 -67 13 -93 4z m249
-218 l176 -175 -183 -182 -182 -183 -175 176 c-146 146 -175 180 -175 204 0
43 292 335 335 335 24 0 58 -29 204 -175z m808 22 c128 -128 153 -157 153
-182 0 -26 -74 -103 -568 -597 -490 -491 -571 -568 -596 -568 -25 0 -55 26
-183 152 -130 130 -153 157 -153 182 0 27 67 98 568 598 494 494 571 568 597
568 25 0 54 -25 182 -153z m-19 -810 c143 -144 172 -178 172 -202 0 -24 -26
-55 -153 -182 -127 -127 -158 -153 -182 -153 -24 0 -58 29 -204 175 l-176 175
180 180 c99 99 182 180 185 180 3 0 83 -78 178 -173z"/>
<path d="M1358 1642 c-158 -158 -188 -192 -188 -217 0 -24 21 -50 113 -142 92
-92 118 -113 142 -113 25 0 59 30 217 188 158 158 188 192 188 217 0 24 -21
50 -113 142 -92 92 -118 113 -142 113 -25 0 -59 -30 -217 -188z m324 41 c54
-54 98 -102 98 -108 0 -13 -342 -355 -355 -355 -13 0 -205 192 -205 205 0 13
342 355 355 355 5 0 54 -44 107 -97z"/>
<path d="M1554 1735 c-4 -9 -2 -21 4 -27 15 -15 44 -1 40 19 -4 23 -36 29 -44
8z"/>
<path d="M1604 1685 c-4 -9 -2 -21 4 -27 15 -15 44 -1 40 19 -4 23 -36 29 -44
8z"/>
<path d="M1454 1635 c-4 -9 -2 -21 4 -27 15 -15 44 -1 40 19 -4 23 -36 29 -44
8z"/>
<path d="M1654 1635 c-4 -9 -2 -21 4 -27 15 -15 44 -1 40 19 -4 23 -36 29 -44
8z"/>
<path d="M1504 1585 c-4 -9 -2 -21 4 -27 15 -15 44 -1 40 19 -4 23 -36 29 -44
8z"/>
<path d="M1704 1585 c-4 -9 -2 -21 4 -27 15 -15 44 -1 40 19 -4 23 -36 29 -44
8z"/>
<path d="M1354 1535 c-4 -9 -2 -21 4 -27 15 -15 44 -1 40 19 -4 23 -36 29 -44
8z"/>
<path d="M1554 1535 c-4 -9 -2 -21 4 -27 15 -15 44 -1 40 19 -4 23 -36 29 -44
8z"/>
<path d="M1404 1485 c-4 -9 -2 -21 4 -27 15 -15 44 -1 40 19 -4 23 -36 29 -44
8z"/>
<path d="M1604 1485 c-4 -9 -2 -21 4 -27 15 -15 44 -1 40 19 -4 23 -36 29 -44
8z"/>
<path d="M1254 1435 c-4 -9 -2 -21 4 -27 15 -15 44 -1 40 19 -4 23 -36 29 -44
8z"/>
<path d="M1454 1435 c-4 -9 -2 -21 4 -27 15 -15 44 -1 40 19 -4 23 -36 29 -44
8z"/>
<path d="M1304 1385 c-4 -9 -2 -21 4 -27 15 -15 44 -1 40 19 -4 23 -36 29 -44
8z"/>
<path d="M1504 1385 c-4 -9 -2 -21 4 -27 15 -15 44 -1 40 19 -4 23 -36 29 -44
8z"/>
<path d="M1354 1335 c-4 -9 -2 -21 4 -27 15 -15 44 -1 40 19 -4 23 -36 29 -44
8z"/>
<path d="M1404 1285 c-4 -9 -2 -21 4 -27 15 -15 44 -1 40 19 -4 23 -36 29 -44
8z"/>
</g>
</svg>
