<?xml version="1.0" standalone="no"?>
<!DOCTYPE svg PUBLIC "-//W3C//DTD SVG 20010904//EN"
 "http://www.w3.org/TR/2001/REC-SVG-20010904/DTD/svg10.dtd">
<svg version="1.0" xmlns="http://www.w3.org/2000/svg"
 width="300.000000pt" height="308.000000pt" viewBox="0 0 300.000000 308.000000"
 preserveAspectRatio="xMidYMid meet">
<metadata>
Created by potrace 1.10, written by Peter Selinger 2001-2011
</metadata>
<g transform="translate(0.000000,308.000000) scale(0.100000,-0.100000)"
fill="#000000" stroke="none">
<path d="M859 2751 c-28 -29 -29 -32 -29 -129 l0 -99 -85 -157 c-123 -226
-159 -326 -170 -476 -18 -233 -53 -1300 -45 -1332 15 -51 49 -98 99 -133 l43
-30 892 -3 893 -2 54 28 c42 21 61 40 87 82 30 52 32 59 32 155 0 55 -11 368
-25 695 -31 741 -24 705 -192 1012 l-78 143 -5 113 c-5 109 -6 115 -33 138
l-28 24 -690 0 -691 0 -29 -29z m1399 -139 l3 -93 -80 -147 c-173 -318 -165
-280 -197 -1027 -14 -330 -24 -648 -22 -706 3 -98 5 -108 31 -143 l28 -36
-665 2 c-652 3 -665 3 -693 24 -15 11 -38 40 -50 65 l-22 44 24 610 c13 336
29 652 35 704 15 132 48 221 156 420 l94 175 0 96 c0 53 3 100 7 103 3 4 308
6 677 5 l671 -3 3 -93z m130 -354 c124 -245 118 -202 149 -998 26 -655 26
-676 9 -713 -35 -73 -60 -82 -238 -85 -176 -4 -210 5 -251 62 -32 45 -32 94
-3 796 26 615 31 667 71 779 22 63 165 332 173 327 4 -2 44 -78 90 -168z
m-308 -1813 c11 -13 8 -15 -18 -15 -24 0 -30 4 -26 15 4 8 12 15 19 15 7 0 18
-7 25 -15z"/>
<path d="M1097 2533 c-16 -16 -6 -53 16 -58 12 -3 229 -4 481 -3 409 3 460 5
469 19 6 9 7 24 4 33 -6 14 -51 16 -485 16 -263 0 -482 -3 -485 -7z"/>
<path d="M1072 1821 c-91 -58 -108 -191 -35 -272 99 -110 245 -37 245 122 0
95 -50 157 -133 166 -33 3 -52 -1 -77 -16z m117 -77 c15 -19 21 -41 21 -76 0
-41 -5 -54 -29 -79 -16 -16 -34 -29 -39 -29 -21 0 -62 43 -71 76 -27 96 63
178 118 108z"/>
<path d="M1410 1822 c-96 -48 -116 -189 -39 -277 56 -64 137 -65 196 -3 78 83
63 222 -29 278 -41 25 -82 25 -128 2z m104 -71 c43 -47 37 -133 -11 -171 -34
-26 -39 -26 -74 9 -24 25 -29 38 -29 79 0 35 6 57 21 76 24 31 68 35 93 7z"/>
<path d="M855 1550 c-28 -11 -72 -60 -84 -93 -27 -69 0 -171 55 -211 15 -10
46 -21 70 -24 55 -6 112 28 137 81 22 45 22 129 1 174 -32 65 -115 100 -179
73z m105 -92 c41 -67 11 -168 -49 -168 -35 0 -67 30 -76 71 -22 100 77 176
125 97z"/>
<path d="M1629 1536 c-46 -32 -69 -80 -69 -146 0 -67 23 -115 72 -147 96 -64
218 19 218 147 0 129 -126 212 -221 146z m118 -68 c27 -30 36 -62 29 -102 -15
-77 -90 -103 -126 -43 -40 65 -11 167 48 167 17 0 37 -9 49 -22z"/>
<path d="M1225 1461 c-22 -10 -50 -29 -61 -42 -40 -45 -214 -348 -223 -388
-22 -101 44 -206 146 -230 45 -11 56 -10 109 10 32 12 82 22 109 22 28 0 77
-10 109 -22 53 -20 64 -21 109 -10 102 24 168 129 146 230 -9 40 -183 343
-223 388 -51 57 -148 76 -221 42z m142 -70 c47 -30 236 -350 236 -402 0 -101
-101 -151 -200 -100 -55 28 -139 28 -193 1 -23 -11 -59 -20 -86 -20 -39 0 -51
5 -80 34 -29 29 -34 41 -34 81 0 41 12 66 101 216 105 179 134 209 194 209 17
0 44 -9 62 -19z"/>
<path d="M2267 1884 c-4 -4 -7 -265 -7 -579 0 -510 2 -574 16 -586 11 -9 20
-10 32 -2 16 9 17 60 17 589 l0 579 -25 3 c-14 2 -29 0 -33 -4z"/>
</g>
</svg>
