<?xml version="1.0" standalone="no"?>
<!DOCTYPE svg PUBLIC "-//W3C//DTD SVG 20010904//EN"
 "http://www.w3.org/TR/2001/REC-SVG-20010904/DTD/svg10.dtd">
<svg version="1.0" xmlns="http://www.w3.org/2000/svg"
 width="300.000000pt" height="296.000000pt" viewBox="0 0 300.000000 296.000000"
 preserveAspectRatio="xMidYMid meet">
<metadata>
Created by potrace 1.10, written by Peter Selinger 2001-2011
</metadata>
<g transform="translate(0.000000,296.000000) scale(0.100000,-0.100000)"
fill="#000000" stroke="none">
<path d="M1092 2541 c-115 -40 -147 -107 -147 -306 0 -109 4 -141 23 -199 32
-95 66 -159 110 -208 109 -122 185 -129 277 -27 84 93 123 237 105 385 -28
227 -141 375 -285 374 -16 -1 -54 -9 -83 -19z"/>
<path d="M1829 2524 c-72 -22 -138 -73 -171 -131 -61 -108 -89 -388 -52 -513
39 -131 134 -205 229 -179 110 31 239 216 291 421 18 68 15 201 -5 269 -37
124 -152 177 -292 133z"/>
<path d="M570 1933 c-8 -3 -32 -22 -53 -41 -65 -63 -99 -194 -78 -307 28 -152
153 -318 264 -350 94 -27 197 5 251 78 17 23 22 47 25 115 7 167 -39 284 -158
403 -57 57 -88 80 -125 92 -49 17 -97 20 -126 10z"/>
<path d="M2315 1798 c-75 -28 -204 -148 -257 -239 -66 -113 -76 -267 -23 -374
32 -66 74 -94 150 -102 48 -5 63 -2 119 26 83 41 163 126 213 228 37 76 38 79
38 193 0 110 -2 120 -30 175 -16 32 -42 67 -57 78 -31 23 -110 31 -153 15z"/>
<path d="M1334 1451 c-65 -19 -139 -57 -166 -87 -9 -11 -47 -66 -86 -124 -38
-58 -104 -149 -145 -203 -83 -110 -132 -202 -171 -325 -40 -126 -35 -173 23
-235 76 -83 170 -77 481 31 128 44 140 47 235 46 89 -1 111 -5 205 -39 89 -32
121 -38 212 -43 95 -4 111 -2 151 17 79 38 96 118 56 261 -44 159 -151 344
-308 532 -95 114 -145 155 -208 174 -63 19 -204 17 -279 -5z"/>
</g>
</svg>
