<?xml version="1.0" standalone="no"?>
<!DOCTYPE svg PUBLIC "-//W3C//DTD SVG 20010904//EN"
 "http://www.w3.org/TR/2001/REC-SVG-20010904/DTD/svg10.dtd">
<svg version="1.0" xmlns="http://www.w3.org/2000/svg"
 width="300.000000pt" height="296.000000pt" viewBox="0 0 300.000000 296.000000"
 preserveAspectRatio="xMidYMid meet">
<metadata>
Created by potrace 1.10, written by Peter Selinger 2001-2011
</metadata>
<g transform="translate(0.000000,296.000000) scale(0.100000,-0.100000)"
fill="#000000" stroke="none">
<path d="M1092 2541 c-105 -36 -141 -100 -149 -267 -11 -215 70 -413 211 -516
67 -48 130 -35 199 41 74 82 111 189 110 317 -2 159 -49 291 -134 376 -69 69
-138 83 -237 49z m145 -37 c63 -13 142 -125 169 -240 19 -81 21 -211 4 -275
-28 -103 -94 -193 -157 -213 -32 -10 -85 16 -133 65 -38 39 -104 159 -116 211
-26 109 -31 236 -12 320 26 112 114 159 245 132z"/>
<path d="M1829 2524 c-72 -22 -138 -73 -171 -131 -60 -106 -88 -372 -53 -506
35 -133 133 -213 230 -186 121 34 269 265 298 467 19 124 -14 273 -70 324 -51
47 -145 60 -234 32z m184 -45 c17 -8 37 -32 54 -68 24 -51 27 -66 27 -171 -1
-109 -3 -120 -37 -203 -92 -228 -214 -335 -316 -282 -25 13 -101 95 -88 95 3
0 -1 21 -9 47 -19 62 -18 230 2 334 30 158 91 228 229 263 30 7 107 -1 138
-15z"/>
<path d="M565 1931 c-11 -5 -37 -27 -57 -49 -38 -42 -61 -103 -73 -193 -23
-164 123 -412 268 -454 94 -27 196 5 251 78 16 22 22 47 25 109 7 167 -40 291
-153 404 -39 38 -89 78 -111 89 -46 21 -120 29 -150 16z m157 -68 c90 -49 181
-182 207 -301 41 -194 -14 -292 -167 -292 -69 0 -71 1 -152 80 -123 120 -167
296 -112 441 13 34 61 89 86 100 30 12 84 1 138 -28z"/>
<path d="M2284 1780 c-69 -34 -181 -144 -226 -222 -91 -154 -68 -386 44 -453
16 -9 53 -19 83 -22 48 -5 63 -2 119 26 83 41 163 126 213 228 37 76 38 79 38
192 0 107 -2 121 -28 173 -53 107 -134 134 -243 78z m179 -52 c41 -49 60 -126
55 -223 -4 -69 -10 -95 -41 -157 -58 -120 -186 -228 -271 -228 -53 0 -113 37
-136 84 -28 58 -36 159 -19 227 7 30 12 57 11 62 -1 4 2 7 7 7 5 0 14 13 21
30 14 35 31 55 108 133 110 111 206 135 265 65z"/>
<path d="M1355 1456 c-130 -33 -173 -66 -260 -198 -38 -56 -103 -149 -147
-206 -89 -116 -135 -203 -178 -331 -44 -131 -40 -181 19 -244 38 -42 73 -57
132 -57 61 0 232 44 374 97 90 33 110 37 200 37 91 1 111 -3 215 -38 94 -32
133 -40 217 -44 90 -4 107 -2 146 17 62 30 81 72 74 162 -16 191 -184 491
-398 709 -60 61 -84 79 -128 93 -63 20 -191 21 -266 3z m243 -41 c58 -18 131
-79 202 -170 25 -32 52 -65 60 -74 32 -34 143 -216 175 -284 52 -114 67 -167
69 -244 1 -66 -1 -75 -26 -100 -24 -24 -38 -28 -99 -31 -84 -5 -162 9 -284 51
-79 28 -103 32 -195 32 -90 0 -117 -4 -190 -29 -47 -16 -89 -32 -95 -36 -5 -4
-68 -22 -139 -40 -160 -41 -202 -38 -255 14 -33 34 -36 41 -35 94 2 106 89
305 183 418 48 58 75 96 142 196 37 54 75 108 85 120 72 79 274 121 402 83z"/>
</g>
</svg>
