<?xml version="1.0" standalone="no"?>
<!DOCTYPE svg PUBLIC "-//W3C//DTD SVG 20010904//EN"
 "http://www.w3.org/TR/2001/REC-SVG-20010904/DTD/svg10.dtd">
<svg version="1.0" xmlns="http://www.w3.org/2000/svg"
 width="300.000000pt" height="300.000000pt" viewBox="0 0 300.000000 300.000000"
 preserveAspectRatio="xMidYMid meet">
<metadata>
Created by potrace 1.10, written by Peter Selinger 2001-2011
</metadata>
<g transform="translate(0.000000,300.000000) scale(0.100000,-0.100000)"
fill="#000000" stroke="none">
<path d="M1270 2980 c-80 -30 -120 -67 -162 -150 -36 -72 -39 -74 -95 -95
-191 -69 -345 -226 -411 -420 l-27 -80 0 -360 c0 -412 -1 -404 97 -551 87
-130 249 -250 425 -314 48 -17 91 -37 95 -43 4 -7 8 -26 8 -43 0 -45 34 -83
81 -90 l39 -7 0 -211 c0 -235 8 -303 43 -380 70 -153 214 -222 482 -233 303
-12 493 56 555 199 32 72 42 283 16 323 -19 28 -47 32 -70 9 -13 -12 -16 -39
-16 -127 -1 -161 -21 -207 -110 -252 -80 -40 -144 -50 -325 -50 -150 0 -179 3
-244 23 -96 30 -145 63 -181 118 -41 65 -51 146 -48 378 l3 200 35 9 c46 11
80 44 80 76 0 56 9 67 71 86 244 72 461 255 541 454 22 54 23 69 26 404 3 328
2 352 -18 424 -59 214 -208 377 -420 458 -63 24 -66 27 -83 76 -52 146 -234
226 -387 169z m196 -105 c51 -25 100 -78 89 -95 -4 -6 -76 -10 -176 -10 -192
0 -206 6 -153 62 65 69 156 85 240 43z m176 -216 c98 -20 196 -75 273 -153
112 -113 165 -236 165 -383 l0 -73 -702 2 -703 3 -3 45 c-8 114 54 285 139
383 69 80 170 142 282 172 65 17 470 20 549 4z m-454 -705 c30 -20 29 -59 -2
-79 -21 -14 -52 -16 -196 -13 -156 3 -173 5 -186 22 -19 27 -18 42 6 66 18 18
33 20 188 20 135 0 172 -3 190 -16z m186 -316 c8 -22 6 -32 -9 -48 -17 -19
-29 -20 -300 -20 -290 0 -304 2 -318 41 -3 9 1 26 9 38 15 21 19 21 312 19
l297 -3 9 -27z m-150 -274 c20 -20 20 -48 0 -68 -24 -24 -359 -24 -386 1 -22
20 -23 46 -2 67 13 13 45 16 194 16 149 0 181 -3 194 -16z"/>
<path d="M773 2250 c-26 -10 -32 -57 -11 -78 13 -13 574 -18 594 -4 20 13 25
47 10 68 -14 18 -30 19 -293 21 -153 1 -288 -2 -300 -7z"/>
</g>
</svg>
