<?xml version="1.0" standalone="no"?>
<!DOCTYPE svg PUBLIC "-//W3C//DTD SVG 20010904//EN"
 "http://www.w3.org/TR/2001/REC-SVG-20010904/DTD/svg10.dtd">
<svg version="1.0" xmlns="http://www.w3.org/2000/svg"
 width="450.000000pt" height="481.000000pt" viewBox="0 0 450.000000 481.000000"
 preserveAspectRatio="xMidYMid meet">
<metadata>
Created by potrace 1.10, written by Peter Selinger 2001-2011
</metadata>
<g transform="translate(0.000000,481.000000) scale(0.100000,-0.100000)"
fill="#000000" stroke="none">
<path d="M823 4659 c-6 -6 -53 -22 -105 -35 -51 -14 -110 -36 -131 -50 -37
-25 -76 -89 -77 -126 0 -10 -4 -18 -10 -18 -25 0 -50 -45 -50 -91 l0 -47 83 1
82 2 1 -105 c1 -119 20 -179 76 -237 l31 -33 -34 -14 c-19 -7 -49 -17 -67 -21
-18 -3 -37 -16 -43 -27 -14 -26 -6 -32 22 -18 12 7 71 16 131 21 119 10 115
11 311 -65 37 -14 87 -26 110 -26 l41 0 -46 48 c-25 26 -62 72 -83 102 -38 56
-38 55 -19 -26 8 -30 4 -29 -53 14 -18 13 -33 19 -33 14 0 -15 -28 -5 -67 25
-18 13 -33 19 -33 14 0 -17 -14 -13 -65 21 -47 31 -105 108 -105 137 1 9 8 3
17 -14 18 -34 89 -112 117 -127 17 -9 18 -7 14 16 -5 25 -3 24 41 -17 43 -40
46 -41 49 -19 3 22 5 21 46 -13 24 -19 45 -35 48 -35 7 0 -18 142 -36 204 -21
73 -71 142 -122 172 -67 39 -71 54 -25 105 45 53 61 80 61 110 0 18 -2 19 -15
9 -21 -17 -29 -7 -16 18 6 12 11 33 11 48 0 26 -1 26 -18 11 -25 -23 -46 -22
-37 1 9 20 19 82 13 82 -2 0 -9 -5 -15 -11z m-233 -234 c0 -8 -4 -15 -10 -15
-5 0 -10 7 -10 15 0 8 5 15 10 15 6 0 10 -7 10 -15z m-64 -90 c-11 -8 -25 -15
-30 -15 -6 0 -2 7 8 15 11 8 25 15 30 15 6 0 2 -7 -8 -15z m161 -192 c-4 -3
-7 0 -7 7 0 7 3 10 7 7 3 -4 3 -10 0 -14z"/>
<path d="M3597 4616 c-36 -13 -88 -48 -121 -82 -25 -24 -19 -63 14 -94 27 -26
28 -28 12 -43 -9 -8 -26 -17 -37 -20 -19 -5 -19 -5 3 -12 14 -5 21 -13 18 -21
-11 -28 14 -13 36 22 21 33 28 36 76 40 50 4 52 3 52 -21 0 -66 -58 -134 -165
-194 -70 -39 -133 -105 -145 -152 -24 -87 39 -193 147 -245 139 -68 448 -21
498 76 39 74 4 93 -118 65 -102 -24 -253 -24 -303 1 -50 25 -71 64 -54 105 7
16 57 73 112 127 149 147 185 238 142 364 -27 81 -89 112 -167 84z m-6 -129
c-13 -13 -26 -3 -16 12 3 6 11 8 17 5 6 -4 6 -10 -1 -17z"/>
<path d="M1806 4558 c-8 -13 -18 -40 -21 -60 -6 -31 -12 -38 -30 -38 -30 0
-50 51 -33 83 7 14 13 17 16 9 5 -15 32 -16 32 -2 0 20 -31 22 -50 5 -13 -12
-20 -31 -20 -57 0 -30 -6 -44 -31 -66 -24 -21 -32 -38 -36 -72 -6 -62 20 -99
106 -150 93 -56 115 -79 146 -159 29 -77 70 -137 117 -173 51 -39 127 -74 189
-88 82 -18 264 -8 364 20 44 13 104 28 134 35 l54 11 -34 20 c-75 44 -90 46
-153 24 -98 -34 -169 -21 -235 41 -50 47 -65 132 -35 195 45 95 186 112 240
28 45 -68 -1 -164 -78 -164 -86 0 -120 101 -47 141 45 24 102 -28 78 -72 -20
-39 -79 -31 -79 11 0 22 26 45 34 31 4 -5 2 -12 -4 -16 -17 -10 -11 -25 10
-25 24 0 27 32 5 50 -12 10 -20 9 -40 -4 -29 -19 -32 -42 -9 -74 34 -49 124
-12 124 51 0 115 -148 146 -210 44 -76 -124 75 -281 213 -223 69 28 115 119
103 200 -32 199 -234 304 -407 210 -64 -35 -98 -77 -150 -179 -40 -80 -64
-109 -81 -99 -20 13 -47 86 -67 184 -24 117 -52 184 -87 207 -20 12 -24 24
-24 61 0 28 6 52 17 64 9 10 11 18 5 18 -6 0 -18 -10 -26 -22z m-106 -198 c0
-5 -4 -10 -10 -10 -5 0 -10 5 -10 10 0 6 5 10 10 10 6 0 10 -4 10 -10z"/>
<path d="M1856 4573 c-11 -11 -6 -23 9 -23 8 0 15 4 15 9 0 13 -16 22 -24 14z"/>
<path d="M3964 4292 c-7 -19 -30 -39 -68 -61 -64 -36 -89 -77 -84 -139 2 -29
8 -38 25 -40 21 -3 21 0 16 51 -5 51 -4 54 27 78 69 51 100 87 100 113 0 33
-3 33 -16 -2z"/>
<path d="M3890 4048 c-66 -23 -148 -25 -209 -4 -91 33 -162 10 -147 -48 15
-60 206 -80 349 -37 81 24 97 35 97 67 0 38 -28 45 -90 22z"/>
<path d="M3953 3675 c-13 -9 -27 -33 -33 -54 -17 -64 3 -129 66 -215 74 -102
91 -156 63 -208 -11 -20 -12 -19 -47 15 -43 42 -79 57 -130 57 -73 -1 -118
-32 -200 -140 -13 -16 -33 -35 -44 -41 -20 -11 -20 -10 -4 12 20 29 21 110 2
147 -8 15 -26 38 -40 51 -19 18 -26 35 -26 61 0 20 -6 44 -13 54 -12 17 -16
17 -43 3 -16 -8 -37 -24 -47 -35 -11 -11 -38 -23 -65 -27 -26 -4 -69 -18 -95
-31 -27 -13 -66 -24 -88 -24 -41 0 -79 -14 -79 -29 0 -4 12 -25 26 -46 17 -26
26 -55 29 -92 7 -100 68 -163 156 -163 26 0 59 4 73 10 22 8 27 6 38 -18 7
-15 28 -36 45 -47 24 -15 37 -33 48 -69 18 -59 20 -177 3 -194 -16 -16 -1 -29
20 -16 22 14 29 50 31 149 1 101 17 89 32 -23 10 -73 9 -85 -5 -101 -9 -10
-16 -21 -16 -24 0 -11 38 -8 45 2 3 5 10 69 15 143 9 114 14 135 33 156 31 33
107 82 128 82 15 0 16 -5 8 -40 -6 -25 -5 -56 1 -82 21 -94 4 -220 -32 -239
-26 -14 -9 -34 21 -24 15 4 26 27 45 88 13 45 27 100 30 122 4 22 12 55 18 73
l10 33 44 -88 c35 -70 44 -99 44 -140 0 -42 -4 -55 -20 -65 -25 -16 -26 -28
-1 -28 41 0 46 23 53 262 7 225 7 229 32 259 49 58 46 125 -11 253 -33 74 -35
83 -29 147 8 73 -7 120 -39 133 -23 9 -28 8 -52 -9z m-425 -506 c-2 -6 -8 -10
-13 -10 -5 0 -11 4 -13 10 -2 6 4 11 13 11 9 0 15 -5 13 -11z m-56 -36 c31
-28 18 -81 -24 -96 -23 -8 -68 29 -68 55 0 49 56 74 92 41z m-140 -38 c0 -5
-5 -11 -11 -13 -6 -2 -11 4 -11 13 0 9 5 15 11 13 6 -2 11 -8 11 -13z"/>
<path d="M3424 3092 c0 -14 6 -17 26 -13 18 4 20 6 8 9 -10 2 -18 8 -18 13 0
5 -4 9 -8 9 -4 0 -8 -8 -8 -18z"/>
<path d="M686 3568 c-34 -34 -47 -80 -61 -213 -6 -52 -11 -64 -35 -80 -41 -27
-81 -112 -87 -184 -5 -56 -4 -62 24 -90 60 -59 191 -65 245 -10 16 15 28 24
28 19 0 -15 -61 -60 -83 -61 -12 0 -30 -4 -41 -8 -17 -7 -16 -10 13 -44 18
-20 48 -46 68 -58 l36 -22 -23 -19 c-12 -10 -32 -18 -44 -18 -64 -1 -61 -50 4
-63 62 -12 115 5 136 44 9 19 21 29 30 25 7 -3 55 -8 105 -12 l91 -7 -13 23
c-34 55 -39 66 -39 83 0 25 24 68 51 92 19 17 19 14 -4 -13 -37 -46 -37 -108
-1 -152 25 -29 26 -32 9 -44 -36 -26 6 -56 77 -56 31 0 87 30 93 50 3 10 19
35 36 56 17 21 33 51 36 66 3 15 9 25 14 22 5 -3 23 -3 39 1 36 8 60 48 60
100 l0 35 -42 -6 c-24 -3 -48 -7 -55 -9 -6 -2 -22 17 -34 41 -39 81 -153 141
-284 151 -63 5 -124 -5 -211 -32 -17 -5 -25 1 -42 29 l-22 36 43 37 c23 21 70
65 105 99 56 55 62 64 62 102 0 33 -5 45 -24 57 -21 14 -28 14 -58 2 -49 -21
-77 -57 -128 -162 -41 -85 -47 -93 -63 -81 -16 13 -15 18 26 87 71 120 82 185
37 209 -29 16 -40 12 -74 -22z m-86 -454 c0 -8 -7 -14 -15 -14 -15 0 -21 21
-9 33 10 9 24 -2 24 -19z m130 1 c0 -8 -4 -15 -9 -15 -13 0 -22 16 -14 24 11
11 23 6 23 -9z m-57 -41 c3 -3 1 -14 -5 -24 -16 -26 -2 -53 23 -47 12 3 18 3
14 -1 -9 -10 -94 -11 -100 -2 -3 5 4 6 15 3 24 -6 36 18 21 45 -6 11 -7 22 -4
26 8 8 28 8 36 0z m134 -41 c-4 -3 -7 0 -7 7 0 7 3 10 7 7 3 -4 3 -10 0 -14z"/>
<path d="M2076 3490 c-16 -5 -46 -23 -66 -39 -25 -20 -44 -28 -59 -24 -49 13
-72 -58 -26 -79 14 -6 25 -20 25 -30 0 -51 53 -132 98 -149 l22 -9 -2 -217 -3
-217 -24 -6 c-14 -3 -26 -11 -29 -18 -3 -9 19 -12 82 -12 46 0 87 4 90 8 3 5
8 44 11 88 9 106 13 117 31 74 18 -41 58 -86 96 -106 39 -20 40 -18 13 22 -47
69 -24 173 45 209 42 22 51 18 13 -5 -78 -47 -89 -156 -22 -222 16 -16 29 -30
29 -31 0 -1 -32 0 -71 1 -51 3 -74 0 -80 -9 -18 -29 11 -37 134 -37 143 0 157
3 157 29 0 24 45 65 80 74 76 20 126 103 118 198 -5 60 -30 118 -94 213 -49
73 -59 102 -50 139 7 28 46 51 70 42 25 -10 46 -51 52 -103 10 -88 13 -96 37
-92 20 3 22 8 21 63 -2 122 -44 185 -124 185 -57 0 -93 -25 -110 -75 -15 -47
2 -102 60 -191 59 -90 80 -142 80 -202 0 -52 -30 -112 -55 -112 -11 0 -15 12
-15 53 0 130 -134 283 -288 328 -32 9 -41 16 -37 28 4 9 9 30 12 46 4 17 17
40 30 52 12 12 23 26 23 32 0 18 -33 42 -55 39 -12 -1 -35 9 -54 24 -30 26
-89 49 -121 47 -8 0 -28 -5 -44 -9z m160 -125 c21 -28 17 -51 -11 -73 -13 -11
-29 -31 -36 -45 -26 -56 -105 -58 -131 -2 -6 13 -22 32 -35 40 -15 10 -23 25
-23 45 0 50 18 58 126 56 82 -2 99 -5 110 -21z m-107 -639 c-9 -8 -10 4 -5 53
3 35 7 82 8 105 1 23 4 -1 5 -53 3 -63 0 -98 -8 -105z"/>
<path d="M2046 3343 c-11 -11 -6 -23 9 -23 8 0 15 4 15 9 0 13 -16 22 -24 14z"/>
<path d="M2177 3344 c-8 -8 1 -24 14 -24 5 0 9 7 9 15 0 15 -12 20 -23 9z"/>
<path d="M2087 3248 c5 -10 54 -10 70 0 6 4 -8 7 -32 7 -24 0 -41 -3 -38 -7z"/>
<path d="M512 2418 c-15 -19 -12 -148 5 -188 42 -103 143 -146 233 -100 67 34
92 78 101 176 4 48 5 92 2 99 -7 21 -34 27 -56 12 -17 -11 -27 -11 -65 2 -37
12 -55 12 -100 3 -36 -8 -61 -8 -73 -2 -24 13 -34 13 -47 -2z m91 -144 c11
-11 -3 -24 -18 -18 -8 4 -12 10 -9 15 6 11 18 12 27 3z m165 -5 c-2 -6 -8 -10
-13 -10 -5 0 -11 4 -13 10 -2 6 4 11 13 11 9 0 15 -5 13 -11z m-78 -44 c-6 -8
-9 -18 -6 -23 3 -5 0 -9 -7 -9 -7 0 -13 11 -13 24 -2 17 3 23 18 23 17 0 18
-3 8 -15z m-43 -41 c-3 -3 -12 -4 -19 -1 -8 3 -5 6 6 6 11 1 17 -2 13 -5z m80
0 c-3 -3 -12 -4 -19 -1 -8 3 -5 6 6 6 11 1 17 -2 13 -5z"/>
<path d="M2146 2356 c-23 -24 -65 -56 -94 -71 -46 -22 -57 -34 -77 -80 -14
-32 -32 -56 -45 -60 -31 -10 -30 -47 2 -82 35 -38 116 -66 198 -69 100 -3 162
-14 157 -28 -2 -6 -14 -13 -28 -14 -28 -5 -51 -21 -44 -32 6 -10 63 -3 112 12
29 8 32 12 22 29 -8 15 -5 27 11 55 18 28 20 37 10 49 -9 11 -9 15 -1 15 19 0
25 -29 12 -57 -12 -25 -11 -26 20 -19 17 3 36 6 41 6 5 0 6 9 3 20 -11 33 12
50 64 48 l46 -1 -45 -6 -45 -6 -3 -45 c-4 -51 -16 -70 -44 -70 -12 0 -18 -5
-15 -12 2 -7 11 -12 18 -10 7 2 35 6 61 9 51 6 57 13 33 33 -32 26 2 32 54 9
85 -36 161 -143 161 -226 0 -32 -26 -80 -49 -93 -34 -17 -88 -12 -116 13 -49
42 -27 127 34 127 31 0 44 -8 59 -35 6 -11 12 -14 12 -7 0 20 -47 62 -70 62
-35 0 -76 -27 -90 -59 -37 -90 69 -188 173 -160 52 14 111 70 144 137 24 49
28 69 28 142 0 75 -4 93 -33 154 -43 91 -86 143 -169 202 -86 62 -162 92 -250
100 -111 10 -117 7 -121 -67 -2 -35 -7 -69 -11 -77 -4 -7 -6 11 -3 42 6 71 -4
122 -29 147 -29 29 -48 24 -93 -25z m-72 -182 c21 -20 20 -30 -4 -54 -11 -11
-24 -20 -29 -20 -16 0 -41 30 -41 49 0 38 45 54 74 25z"/>
<path d="M2020 2150 c0 -5 5 -10 10 -10 6 0 10 5 10 10 0 6 -4 10 -10 10 -5 0
-10 -4 -10 -10z"/>
<path d="M3675 2333 c-14 -13 -16 -27 -11 -72 4 -30 8 -57 10 -58 2 -2 15 -1
30 3 24 6 26 11 26 56 0 49 -13 88 -30 88 -5 0 -16 -8 -25 -17z"/>
<path d="M3319 2301 c-33 -33 -39 -45 -39 -81 0 -57 37 -90 138 -123 70 -23
78 -24 87 -9 6 8 23 28 38 42 l28 27 -30 59 c-49 96 -82 124 -144 124 -32 0
-46 -7 -78 -39z m131 -12 c0 -5 -7 -9 -15 -9 -15 0 -20 12 -9 23 8 8 24 -1 24
-14z m-100 -104 c0 -8 -4 -15 -9 -15 -13 0 -22 16 -14 24 11 11 23 6 23 -9z"/>
<path d="M975 2170 c-49 -11 -109 -20 -132 -20 -28 0 -54 -8 -79 -25 -40 -27
-118 -34 -155 -14 -17 9 -22 5 -35 -26 -22 -55 -10 -101 43 -154 33 -33 47
-57 54 -93 13 -59 7 -78 -23 -78 -13 0 -30 -5 -38 -10 -13 -8 -13 -11 -1 -19
12 -8 89 -4 100 5 2 2 11 32 21 66 21 78 40 82 57 13 16 -64 10 -83 -29 -87
-17 -2 -33 -9 -36 -15 -3 -9 12 -13 52 -13 l55 0 10 38 c6 20 15 58 22 85 6
26 14 47 18 47 3 0 49 7 101 15 52 8 99 10 103 6 5 -5 11 -36 14 -70 l6 -61
-31 0 c-32 0 -52 -17 -34 -29 6 -3 31 -5 55 -3 l45 4 19 76 c10 41 24 77 30
79 12 4 33 -70 33 -121 0 -32 -3 -35 -32 -38 -17 -2 -33 -9 -36 -15 -3 -9 12
-13 51 -13 l54 0 24 88 c18 64 24 113 24 184 0 54 3 98 6 98 18 0 65 -50 100
-106 48 -76 117 -139 161 -148 49 -10 102 21 106 61 4 37 -12 49 -79 59 -56 8
-74 20 -152 98 -63 63 -113 87 -150 73 -7 -3 -18 3 -25 13 -17 27 -91 59 -152
64 -36 4 -87 -1 -145 -14z"/>
<path d="M3654 2171 c-73 -18 -154 -114 -154 -183 l0 -35 73 4 c66 5 75 8 110
42 41 38 40 31 22 139 -4 23 -10 42 -14 41 -3 -1 -20 -4 -37 -8z"/>
<path d="M3721 2174 c0 -5 6 -36 13 -69 l13 -60 48 -13 48 -14 38 44 c21 23
37 47 35 53 -9 31 -197 88 -195 59z"/>
<path d="M3914 2068 c-56 -61 -56 -62 -43 -110 7 -24 17 -46 23 -50 5 -3 34
-9 64 -13 30 -4 62 -9 70 -13 13 -4 14 2 9 41 -7 51 -32 105 -69 150 l-23 28
-31 -33z"/>
<path d="M3701 1986 l-33 -34 14 -48 c13 -46 16 -49 62 -62 l49 -14 37 39 37
38 -14 46 c-13 43 -17 48 -58 58 -59 15 -57 15 -94 -23z"/>
<path d="M4073 1993 c-24 -5 -27 -13 -17 -50 12 -42 104 -18 104 26 0 28 -28
35 -87 24z"/>
<path d="M3342 1944 c-55 -38 -9 -70 78 -53 59 11 67 19 54 53 -8 22 -101 22
-132 0z"/>
<path d="M3528 1933 c-18 -3 -28 -10 -28 -22 0 -24 47 -115 71 -137 19 -18 21
-17 63 27 l44 44 -14 48 -15 47 -47 -1 c-26 -1 -59 -4 -74 -6z"/>
<path d="M3846 1851 l-34 -36 25 -67 c21 -56 29 -68 48 -68 26 0 98 50 119 83
19 29 40 86 34 93 -3 2 -39 10 -81 18 l-76 13 -35 -36z"/>
<path d="M3650 1785 c-49 -50 -50 -47 25 -87 42 -22 165 -38 165 -21 0 27 -50
128 -66 134 -66 24 -78 21 -124 -26z"/>
<path d="M4016 1745 c-4 -11 2 -15 27 -15 18 0 43 -7 56 -16 22 -16 23 -16 12
4 -21 39 -83 57 -95 27z"/>
<path d="M3806 1643 c-16 -4 -18 -11 -12 -51 7 -53 24 -76 49 -66 22 8 31 45
23 89 -7 35 -15 39 -60 28z"/>
<path d="M2063 1443 c-7 -2 -17 -22 -23 -44 -6 -22 -27 -58 -47 -80 -43 -48
-38 -68 20 -83 42 -11 67 4 67 39 0 29 20 85 30 85 5 0 6 -16 3 -35 -4 -23 -2
-35 6 -35 6 0 11 -15 11 -33 0 -25 -6 -37 -22 -45 -18 -8 -19 -11 -5 -11 24
-1 21 -18 -8 -37 -28 -18 -45 -12 -45 18 0 17 -2 18 -15 8 -19 -16 -19 -40 -1
-65 11 -16 17 -17 29 -7 11 10 17 9 28 -5 13 -16 12 -17 -3 -5 -12 9 -18 10
-23 2 -12 -19 25 -49 82 -67 55 -17 62 -28 41 -66 -6 -12 -15 -75 -19 -139 -8
-125 -22 -170 -54 -176 -55 -11 -49 -52 8 -52 17 0 35 -8 42 -17 17 -23 89
-22 114 1 16 15 22 15 40 5 16 -11 27 -11 58 0 23 9 38 10 40 4 2 -6 10 -18
17 -28 12 -17 18 -17 59 -6 27 8 62 10 86 6 22 -4 49 -4 60 0 23 7 35 33 22
49 -7 8 -5 24 7 48 13 28 25 38 52 43 49 10 68 22 90 58 32 51 26 103 -14 143
-33 33 -64 42 -100 28 -20 -8 -21 -24 -2 -24 7 0 25 -9 40 -21 37 -29 37 -89
0 -118 -15 -12 -30 -21 -34 -21 -4 0 -13 20 -19 44 -17 67 -54 103 -159 153
-52 25 -100 56 -109 69 -15 23 -14 26 19 62 18 20 40 53 48 71 13 32 12 35 -5
45 -10 6 -35 26 -54 44 l-36 33 44 -30 c54 -38 127 -43 155 -12 17 19 16 22
-33 94 -49 74 -83 99 -103 79 -7 -7 -25 -2 -57 15 -62 33 -168 31 -219 -6
l-33 -23 -28 26 c-28 27 -29 27 -48 19z m237 -173 c11 -11 20 -31 20 -45 0
-20 -6 -25 -36 -31 -49 -9 -68 10 -59 60 6 29 12 36 31 36 13 0 33 -9 44 -20z
m-144 -165 c-11 -8 -27 -15 -35 -15 -9 1 -2 7 14 15 39 18 44 18 21 0z m299
-255 c-20 -39 -19 -119 2 -150 15 -22 15 -24 1 -12 -40 32 -45 117 -11 169 22
33 26 28 8 -7z m-217 -177 c-7 -14 -19 -28 -26 -31 -9 -3 -7 9 7 37 12 22 22
48 22 58 1 10 4 6 6 -9 2 -15 -2 -40 -9 -55z m218 -31 c-7 -6 -126 30 -126 38
0 5 29 -1 65 -13 35 -11 63 -23 61 -25z"/>
<path d="M2276 1243 c-11 -11 -6 -23 9 -23 8 0 15 4 15 9 0 13 -16 22 -24 14z"/>
<path d="M700 1351 c-19 -11 -45 -30 -57 -43 l-22 -23 82 0 c55 0 97 -6 127
-18 33 -13 40 -13 26 -3 -10 8 -15 19 -11 25 4 7 -5 11 -25 11 -28 0 -30 2
-20 20 12 23 8 24 -38 10 l-34 -9 16 24 c20 31 6 32 -44 6z"/>
<path d="M657 1269 c-49 -11 -72 -24 -124 -67 l-42 -35 20 -29 c23 -32 74 -62
90 -52 6 3 17 20 25 38 10 23 13 26 14 11 0 -11 -7 -31 -16 -43 -9 -13 -14
-25 -11 -28 2 -3 31 -10 64 -17 32 -7 71 -20 86 -30 l27 -17 0 26 c0 15 -8 37
-17 48 -13 15 -10 14 10 -3 l27 -24 63 25 c52 20 65 22 75 11 7 -7 26 -13 42
-13 23 0 30 5 30 20 0 11 -9 29 -19 39 -19 19 -19 20 0 37 10 9 19 25 19 36 0
14 -8 18 -35 18 -21 0 -37 -6 -43 -16 -8 -14 -15 -12 -58 16 -51 32 -133 61
-168 59 -12 -1 -38 -5 -59 -10z m-77 -98 c0 -12 -20 -25 -27 -18 -7 7 6 27 18
27 5 0 9 -4 9 -9z"/>
<path d="M2100 1240 c0 -5 5 -10 10 -10 6 0 10 5 10 10 0 6 -4 10 -10 10 -5 0
-10 -4 -10 -10z"/>
<path d="M3420 1103 c-8 -3 -25 -15 -38 -27 -15 -13 -34 -20 -51 -18 -32 4
-64 -22 -59 -47 2 -9 15 -17 31 -19 24 -3 26 -6 20 -30 -13 -45 -7 -136 11
-171 17 -32 66 -61 103 -61 29 0 26 -57 -3 -77 -34 -22 -30 -33 11 -33 26 0
45 9 74 35 64 58 124 35 66 -25 -24 -26 -26 -30 -11 -36 26 -10 74 15 110 57
30 36 37 39 82 38 27 -1 74 -4 104 -8 51 -6 53 -7 33 -19 -31 -17 -30 -42 3
-42 29 0 57 13 97 46 27 22 67 33 67 17 0 -4 -10 -17 -22 -30 -30 -32 -12 -51
31 -33 89 36 158 232 122 343 -16 48 -84 107 -151 131 -47 17 -69 18 -219 12
-91 -4 -177 -9 -191 -11 -14 -1 -40 -3 -58 -4 -23 -1 -31 -5 -26 -13 4 -6 -8
-2 -28 10 -34 21 -76 27 -108 15z m226 -88 c-3 -8 -13 -15 -23 -15 -17 1 -17
1 0 11 9 5 17 18 18 27 0 11 2 12 6 4 3 -7 2 -19 -1 -27z m-32 -101 c9 -62 -6
-124 -36 -150 -20 -18 -20 -17 2 13 25 34 31 106 17 188 -4 25 -4 33 2 20 5
-11 12 -43 15 -71z m-220 -45 c-3 -5 -10 -7 -15 -3 -5 3 -7 10 -3 15 3 5 10 7
15 3 5 -3 7 -10 3 -15z m136 11 c0 -5 -4 -10 -10 -10 -5 0 -10 5 -10 10 0 6 5
10 10 10 6 0 10 -4 10 -10z m-50 -59 c0 -6 -5 -13 -11 -17 -6 -3 -9 -15 -6
-25 3 -12 0 -19 -8 -19 -8 0 -11 8 -8 20 3 11 0 20 -6 20 -6 0 -11 7 -11 15 0
9 9 15 25 15 14 0 25 -4 25 -9z"/>
<path d="M991 1023 c-39 -14 -139 -98 -129 -108 2 -2 24 1 48 6 64 15 169 4
242 -25 l63 -25 -29 24 c-25 20 -28 26 -17 39 12 14 9 16 -28 16 -38 0 -41 2
-31 19 5 11 10 22 10 24 0 6 -89 -11 -103 -20 -6 -3 -1 7 11 24 35 49 32 50
-37 26z"/>
<path d="M893 895 c-60 -18 -122 -57 -167 -104 l-40 -41 35 -36 c18 -19 49
-45 67 -56 32 -20 33 -20 54 -2 11 11 27 33 34 49 7 17 13 24 14 17 0 -7 -9
-30 -20 -52 -11 -22 -20 -41 -20 -44 0 -9 103 -36 138 -36 22 0 45 -9 64 -25
16 -14 34 -25 40 -25 16 0 2 69 -19 94 -10 11 -3 8 14 -8 l32 -29 73 27 c40
14 79 30 87 35 9 6 20 2 32 -10 13 -13 33 -19 63 -19 l45 0 -10 33 c-5 17 -20
42 -34 54 -22 20 -23 22 -6 28 19 6 38 37 43 70 5 32 -61 33 -97 2 l-28 -23
-61 41 c-106 71 -229 93 -333 60z m-92 -138 c-13 -13 -26 -3 -16 12 3 6 11 8
17 5 6 -4 6 -10 -1 -17z"/>
<path d="M2925 300 c3 -5 8 -10 11 -10 2 0 4 5 4 10 0 6 -5 10 -11 10 -5 0 -7
-4 -4 -10z"/>
<path d="M380 240 c0 -7 3 -10 7 -7 3 4 3 10 0 14 -4 3 -7 0 -7 -7z"/>
<path d="M800 230 c0 -7 3 -10 7 -7 3 4 3 10 0 14 -4 3 -7 0 -7 -7z"/>
<path d="M341 143 c2 -24 2 -25 6 -5 2 12 11 22 20 22 11 0 14 -6 10 -21 -4
-16 -3 -19 5 -11 16 16 2 42 -22 42 -16 0 -20 -6 -19 -27z"/>
<path d="M642 140 c0 -14 2 -19 5 -12 2 6 2 18 0 25 -3 6 -5 1 -5 -13z"/>
<path d="M401 134 c0 -11 3 -14 6 -6 3 7 2 16 -1 19 -3 4 -6 -2 -5 -13z"/>
<path d="M431 134 c0 -11 3 -14 6 -6 3 7 2 16 -1 19 -3 4 -6 -2 -5 -13z"/>
<path d="M450 140 c0 -7 3 -10 7 -7 3 4 3 10 0 14 -4 3 -7 0 -7 -7z"/>
<path d="M501 134 c0 -11 3 -14 6 -6 3 7 2 16 -1 19 -3 4 -6 -2 -5 -13z"/>
<path d="M521 134 c0 -11 3 -14 6 -6 3 7 2 16 -1 19 -3 4 -6 -2 -5 -13z"/>
<path d="M551 134 c0 -11 3 -14 6 -6 3 7 2 16 -1 19 -3 4 -6 -2 -5 -13z"/>
<path d="M571 134 c0 -11 3 -14 6 -6 3 7 2 16 -1 19 -3 4 -6 -2 -5 -13z"/>
<path d="M590 146 c0 -3 9 -10 20 -16 11 -6 20 -8 20 -6 0 3 -9 10 -20 16 -11
6 -20 8 -20 6z"/>
<path d="M711 134 c0 -11 3 -14 6 -6 3 7 2 16 -1 19 -3 4 -6 -2 -5 -13z"/>
<path d="M761 134 c0 -11 3 -14 6 -6 3 7 2 16 -1 19 -3 4 -6 -2 -5 -13z"/>
<path d="M780 140 c0 -7 3 -10 7 -7 3 4 3 10 0 14 -4 3 -7 0 -7 -7z"/>
<path d="M871 134 c0 -11 3 -14 6 -6 3 7 2 16 -1 19 -3 4 -6 -2 -5 -13z"/>
<path d="M901 134 c0 -11 3 -14 6 -6 3 7 2 16 -1 19 -3 4 -6 -2 -5 -13z"/>
<path d="M921 134 c0 -11 3 -14 6 -6 3 7 2 16 -1 19 -3 4 -6 -2 -5 -13z"/>
<path d="M943 143 c4 -3 10 -3 14 0 3 4 0 7 -7 7 -7 0 -10 -3 -7 -7z"/>
<path d="M971 134 c0 -11 3 -14 6 -6 3 7 2 16 -1 19 -3 4 -6 -2 -5 -13z"/>
<path d="M740 130 c0 -7 3 -10 7 -7 3 4 3 10 0 14 -4 3 -7 0 -7 -7z"/>
</g>
</svg>
