<?xml version="1.0" encoding="UTF-8" standalone="no"?>
<!-- Created with Inkscape (http://www.inkscape.org/) -->

<svg
   xmlns:dc="http://purl.org/dc/elements/1.1/"
   xmlns:cc="http://creativecommons.org/ns#"
   xmlns:rdf="http://www.w3.org/1999/02/22-rdf-syntax-ns#"
   xmlns:svg="http://www.w3.org/2000/svg"
   xmlns="http://www.w3.org/2000/svg"
   xmlns:sodipodi="http://sodipodi.sourceforge.net/DTD/sodipodi-0.dtd"
   xmlns:inkscape="http://www.inkscape.org/namespaces/inkscape"
   width="210mm"
   height="297mm"
   viewBox="0 0 210 297"
   version="1.1"
   id="svg8296"
   inkscape:version="0.92.5 (2060ec1f9f, 2020-04-08)"
   sodipodi:docname="picto chronovet du site.svg">
  <defs
     id="defs8290" />
  <sodipodi:namedview
     id="base"
     pagecolor="#ffffff"
     bordercolor="#666666"
     borderopacity="1.0"
     inkscape:pageopacity="0.0"
     inkscape:pageshadow="2"
     inkscape:zoom="0.35"
     inkscape:cx="400"
     inkscape:cy="560"
     inkscape:document-units="mm"
     inkscape:current-layer="layer1"
     showgrid="false"
     inkscape:window-width="1920"
     inkscape:window-height="1009"
     inkscape:window-x="-8"
     inkscape:window-y="-8"
     inkscape:window-maximized="1" />
  <metadata
     id="metadata8293">
    <rdf:RDF>
      <cc:Work
         rdf:about="">
        <dc:format>image/svg+xml</dc:format>
        <dc:type
           rdf:resource="http://purl.org/dc/dcmitype/StillImage" />
        <dc:title></dc:title>
      </cc:Work>
    </rdf:RDF>
  </metadata>
  <g
     inkscape:label="Calque 1"
     inkscape:groupmode="layer"
     id="layer1">
    <g
       transform="matrix(0.03527778,0,0,-0.03527778,-10.579457,115.72263)"
       style="fill:#000000;stroke:none"
       id="g8268">
      <path
         style="fill:#3c7a96;fill-opacity:1"
         inkscape:connector-curvature="0"
         d="m 1251,3097 c -7,-10 -12,-133 -13,-393 l -3,-379 H 863 c -255,0 -375,-3 -383,-11 -13,-13 -15,-843 -2,-856 4,-4 179,-9 387,-10 l 380,-3 5,-385 5,-385 432,-3 433,-2 5,22 c 3,13 4,176 3,363 l -3,340 h -25 -25 l 3,-326 c 2,-222 0,-329 -7,-334 -6,-3 -178,-6 -383,-6 l -373,-1 -3,379 c -2,346 -4,379 -20,391 -13,10 -98,13 -387,11 l -370,-1 -3,376 c -2,297 0,376 10,376 7,0 177,1 378,3 l 365,2 3,388 c 1,213 6,387 10,387 4,1 176,2 382,2 l 375,1 3,-383 c 2,-292 5,-386 15,-392 6,-5 181,-8 387,-7 l 375,1 3,-98 c 1,-55 7,-103 11,-107 5,-5 18,-6 30,-2 20,6 21,13 21,130 0,88 -4,126 -12,132 -7,4 -182,8 -388,8 h -375 l -5,383 c -4,326 -7,384 -20,392 -9,6 -185,10 -426,10 -332,0 -414,-3 -423,-13 z"
         id="path8215" />
      <path
         inkscape:connector-curvature="0"
         d="m 3942,1998 c -38,-38 22,-103 67,-72 40,29 21,84 -29,84 -14,0 -31,-5 -38,-12 z"
         id="path8217" />
      <path
         inkscape:connector-curvature="0"
         d="m 1567,1949 c -56,-9 -107,-44 -144,-100 -23,-36 -26,-49 -25,-129 0,-99 13,-125 82,-178 32,-25 43,-27 128,-27 105,0 126,12 120,70 -3,33 -5,33 -90,20 -61,-10 -101,7 -128,52 -59,101 24,231 133,209 75,-16 82,-14 85,25 2,21 -2,40 -10,46 -19,15 -96,21 -151,12 z"
         id="path8219" />
      <path
         inkscape:connector-curvature="0"
         d="m 3755,1954 c -6,-1 -27,-5 -48,-9 -83,-14 -147,-108 -147,-215 0,-79 27,-138 82,-181 39,-31 47,-34 117,-34 66,0 81,4 113,26 50,34 72,64 93,127 39,120 -35,259 -150,279 -28,5 -55,8 -60,7 z m 86,-120 c 21,-22 24,-36 24,-97 0,-57 -4,-78 -20,-98 -50,-67 -140,-55 -175,23 -24,53 -25,71 -3,130 13,38 25,52 56,67 45,23 80,15 118,-25 z"
         id="path8221" />
      <path
         inkscape:connector-curvature="0"
         d="m 1797,1943 c -4,-3 -7,-100 -7,-214 v -209 l 24,-6 c 13,-3 35,-4 47,-2 23,3 24,7 25,83 1,44 2,86 3,93 1,8 25,12 86,12 h 84 l 3,-92 c 3,-89 4,-93 27,-96 12,-2 33,-1 46,2 l 23,6 -1,212 -2,213 -48,3 -49,3 2,-73 c 3,-118 11,-108 -84,-108 -99,0 -99,1 -87,97 4,40 4,66 -3,73 -11,11 -79,14 -89,3 z"
         id="path8223" />
      <path
         inkscape:connector-curvature="0"
         d="m 2265,1943 c -6,-5 -10,-88 -10,-213 0,-125 4,-208 10,-212 12,-9 58,-10 79,-2 14,5 15,18 10,85 -6,66 -4,79 9,85 28,10 53,-14 92,-90 24,-48 45,-76 59,-80 34,-9 84,-7 91,5 8,11 -29,68 -87,134 -43,49 -48,71 -17,80 45,15 72,96 48,147 -22,48 -54,60 -168,65 -58,2 -110,1 -116,-4 z m 173,-79 c 28,-19 29,-67 2,-94 -22,-22 -75,-27 -86,-8 -8,13 -6,96 2,110 9,13 58,9 82,-8 z"
         id="path8225" />
      <path
         inkscape:connector-curvature="0"
         d="m 2745,1941 c -29,-12 -74,-60 -96,-103 -14,-27 -19,-58 -19,-113 0,-87 20,-130 86,-180 35,-27 46,-30 114,-30 67,0 79,3 112,28 48,37 69,71 84,136 25,105 -19,217 -100,255 -36,17 -145,21 -181,7 z m 154,-102 c 32,-31 37,-54 32,-134 -3,-52 -24,-83 -67,-101 -99,-42 -182,93 -125,205 35,68 109,82 160,30 z"
         id="path8227" />
      <path
         inkscape:connector-curvature="0"
         d="m 3110,1943 c -6,-132 -1,-416 7,-424 6,-6 26,-9 44,-7 l 34,3 v 144 c 0,162 10,184 47,104 12,-26 40,-75 63,-108 22,-33 49,-77 59,-97 21,-38 65,-56 107,-43 19,6 20,12 14,123 -4,65 -2,155 3,202 7,58 7,89 0,97 -12,14 -84,18 -92,5 -3,-5 0,-66 6,-135 6,-70 8,-130 4,-134 -13,-13 -39,12 -67,64 -16,29 -50,87 -77,130 l -49,78 -51,3 c -29,2 -52,-1 -52,-5 z"
         id="path8229" />
      <path
         style="fill:#1c6586;fill-opacity:1"
         inkscape:connector-curvature="0"
         d="m 2412,1391 c -11,-7 -14,-74 -13,-351 1,-189 4,-347 7,-352 7,-12 92,-10 115,2 10,6 19,16 19,22 0,12 24,52 119,198 30,47 64,101 76,120 31,54 95,155 142,223 91,132 93,154 15,142 -54,-8 -66,-17 -102,-79 -26,-46 -102,-169 -132,-215 -10,-14 -21,-33 -25,-41 -4,-8 -23,-42 -43,-75 -19,-33 -41,-72 -48,-87 -6,-16 -18,-28 -26,-28 -13,0 -15,37 -13,263 l 2,262 -40,3 c -22,1 -46,-2 -53,-7 z"
         id="path8231" />
      <path
         style="fill:#1c6586;fill-opacity:1"
         inkscape:connector-curvature="0"
         d="m 3542,1388 c -7,-7 -12,-34 -12,-60 v -48 h 91 90 l -2,-297 -2,-298 h 54 54 l -1,40 c 0,22 -2,155 -4,295 l -3,255 79,2 c 43,1 85,2 92,2 18,1 16,95 -3,111 -8,6 -23,9 -35,5 -25,-8 -343,-9 -368,-1 -10,4 -23,1 -30,-6 z"
         id="path8233" />
      <path
         style="fill:#1c6586;fill-opacity:1"
         inkscape:connector-curvature="0"
         d="m 3057,1383 c -4,-3 -7,-163 -7,-355 V 680 h 195 195 l 1,33 c 2,44 -1,71 -9,79 -4,4 -61,3 -127,-1 -96,-7 -122,-6 -131,5 -6,7 -10,52 -10,101 l 1,88 107,-4 107,-3 7,26 c 3,14 3,42 0,62 l -7,35 -107,-3 -107,-3 v 90 90 l 125,2 c 69,1 131,2 138,3 8,0 12,18 12,55 v 55 h -188 c -104,0 -192,-3 -195,-7 z"
         id="path8235" />
    </g>
  </g>
</svg>
