<?xml version="1.0" encoding="UTF-8" standalone="no"?>
<svg
   xmlns:dc="http://purl.org/dc/elements/1.1/"
   xmlns:cc="http://creativecommons.org/ns#"
   xmlns:rdf="http://www.w3.org/1999/02/22-rdf-syntax-ns#"
   xmlns:svg="http://www.w3.org/2000/svg"
   xmlns="http://www.w3.org/2000/svg"
   xmlns:sodipodi="http://sodipodi.sourceforge.net/DTD/sodipodi-0.dtd"
   xmlns:inkscape="http://www.inkscape.org/namespaces/inkscape"
   height="63"
   viewBox="0 0 63 63"
   width="63"
   version="1.1"
   id="svg6"
   sodipodi:docname="sites.svg"
   inkscape:version="0.92.3 (2405546, 2018-03-11)">
  <metadata
     id="metadata12">
    <rdf:RDF>
      <cc:Work
         rdf:about="">
        <dc:format>image/svg+xml</dc:format>
        <dc:type
           rdf:resource="http://purl.org/dc/dcmitype/StillImage" />
        <dc:title></dc:title>
      </cc:Work>
    </rdf:RDF>
  </metadata>
  <defs
     id="defs10" />
  <sodipodi:namedview
     pagecolor="#ffffff"
     bordercolor="#666666"
     borderopacity="1"
     objecttolerance="10"
     gridtolerance="10"
     guidetolerance="10"
     inkscape:pageopacity="0"
     inkscape:pageshadow="2"
     inkscape:window-width="1600"
     inkscape:window-height="851"
     id="namedview8"
     showgrid="false"
     inkscape:zoom="4.8074975"
     inkscape:cx="-26.621727"
     inkscape:cy="4.6428707"
     inkscape:window-x="0"
     inkscape:window-y="25"
     inkscape:window-maximized="1"
     inkscape:current-layer="svg6" />
  <path
     d="M 0,39 H 24 V 63 H 0 Z"
     id="path2"
     inkscape:connector-curvature="0"
     style="fill:none" />
  <path
     d="m 41.055793,29.188209 v -18.61188 l -9.30594,-9.3059391 -9.305939,9.3059391 v 6.20396 H 3.8320337 V 60.208008 H 59.667673 V 29.188209 Z M 16.239954,54.004048 h -6.20396 v -6.20396 h 6.20396 z m 0,-12.40792 h -6.20396 v -6.203959 h 6.20396 z m 0,-12.407919 h -6.20396 v -6.20396 h 6.20396 z m 18.611879,24.815839 h -6.20396 v -6.20396 h 6.20396 z m 0,-12.40792 h -6.20396 v -6.203959 h 6.20396 z m 0,-12.407919 h -6.20396 v -6.20396 h 6.20396 z m 0,-12.40792 h -6.20396 v -6.20396 h 6.20396 z m 18.61188,37.223759 h -6.20396 v -6.20396 h 6.20396 z m 0,-12.40792 h -6.20396 v -6.203959 h 6.20396 z"
     id="path4"
     inkscape:connector-curvature="0"
     style="stroke-width:3.10197997;fill:#680d3f;fill-opacity:1" />
</svg>
