<?xml version="1.0" encoding="UTF-8" standalone="no"?>
<svg
   xmlns:dc="http://purl.org/dc/elements/1.1/"
   xmlns:cc="http://creativecommons.org/ns#"
   xmlns:rdf="http://www.w3.org/1999/02/22-rdf-syntax-ns#"
   xmlns:svg="http://www.w3.org/2000/svg"
   xmlns="http://www.w3.org/2000/svg"
   xmlns:sodipodi="http://sodipodi.sourceforge.net/DTD/sodipodi-0.dtd"
   xmlns:inkscape="http://www.inkscape.org/namespaces/inkscape"
   enable-background="new 0 0 24 24"
   height="63"
   viewBox="0 0 63 63"
   width="63"
   version="1.1"
   id="svg12"
   sodipodi:docname="urgences.svg"
   inkscape:version="0.92.3 (2405546, 2018-03-11)">
  <metadata
     id="metadata18">
    <rdf:RDF>
      <cc:Work
         rdf:about="">
        <dc:format>image/svg+xml</dc:format>
        <dc:type
           rdf:resource="http://purl.org/dc/dcmitype/StillImage" />
        <dc:title></dc:title>
      </cc:Work>
    </rdf:RDF>
  </metadata>
  <defs
     id="defs16" />
  <sodipodi:namedview
     pagecolor="#ffffff"
     bordercolor="#666666"
     borderopacity="1"
     objecttolerance="10"
     gridtolerance="10"
     guidetolerance="10"
     inkscape:pageopacity="0"
     inkscape:pageshadow="2"
     inkscape:window-width="1600"
     inkscape:window-height="851"
     id="namedview14"
     showgrid="false"
     inkscape:zoom="6.7988281"
     inkscape:cx="8.2623987"
     inkscape:cy="29.41098"
     inkscape:window-x="0"
     inkscape:window-y="25"
     inkscape:window-maximized="1"
     inkscape:current-layer="svg12" />
  <g
     id="g4"
     transform="matrix(2.8079096,0,0,2.8079096,0,-4.3898305)">
    <rect
       height="24"
       width="24"
       id="rect2"
       x="0"
       y="0"
       style="fill:none" />
  </g>
  <g
     id="g10"
     transform="matrix(2.9108685,0,0,2.9108685,-3.4417696,-3.8603274)"
     style="fill:#680d3f;fill-opacity:1">
    <g
       id="g8"
       style="fill:#680d3f;fill-opacity:1">
      <path
         d="M 20,6 H 16 V 4 C 16,2.9 15.1,2 14,2 H 10 C 8.9,2 8,2.9 8,4 V 6 H 4 C 2.9,6 2,6.9 2,8 v 12 c 0,1.1 0.9,2 2,2 h 16 c 1.1,0 2,-0.9 2,-2 V 8 C 22,6.9 21.1,6 20,6 Z M 10,4 h 4 v 2 h -4 z m 6,11 h -3 v 3 H 11 V 15 H 8 v -2 h 3 v -3 h 2 v 3 h 3 z"
         id="path6"
         inkscape:connector-curvature="0"
         style="fill:#680d3f;fill-opacity:1" />
    </g>
  </g>
</svg>
